M48
INCH,TZ
T1C0.012
T2C0.035
T3C0.035
T4C0.039
T5C0.039
T6C0.040
T7C0.063
T8C0.071
T9C0.118
%
G90
G05
T1
X31250Y-46700
X31250Y-48050
X32000Y-40500
X32100Y-42350
X32350Y-44600
X32950Y-50150
X33000Y-37250
X33150Y-46400
X33375Y-46400
X33500Y-54500
X34100Y-48150
X34250Y-40500
X34250Y-42250
X34550Y-49200
X34750Y-37250
X35100Y-45350
X35150Y-46800
X35150Y-47600
X35450Y-48250
X35500Y-54500
X35850Y-43950
X35950Y-50100
X36100Y-43950
X36200Y-44600
X36250Y-37250
X36400Y-39950
X36950Y-44650
X36975Y-48875
X37500Y-54500
X37550Y-49150
X37550Y-50300
X37600Y-42800
X37600Y-48800
X38000Y-37250
X38050Y-49225
X38250Y-42100
X38625Y-49025
X38650Y-46850
X38650Y-47300
X38675Y-41975
X38675Y-42775
X38850Y-38950
X38925Y-41725
X39250Y-45300
X39300Y-46800
X39350Y-42550
X39450Y-46300
X39500Y-43150
X39500Y-53000
X39500Y-54500
X39700Y-48250
X39750Y-37250
X40000Y-44825
X40150Y-46875
X40400Y-44250
X40450Y-43350
X40600Y-45600
X40650Y-43950
X40650Y-44550
X41200Y-40150
X41200Y-40400
X41500Y-37250
X41500Y-53000
X41500Y-54500
X42350Y-48000
X42350Y-48250
X43000Y-37250
X43500Y-53000
X44000Y-54500
X44100Y-39600
X44250Y-51250
X44300Y-44700
X44350Y-46000
X44650Y-42200
X44650Y-45450
X44750Y-37250
X44775Y-48000
X45000Y-49250
X45050Y-50250
X45450Y-41750
X45500Y-38250
X45600Y-55350
X45700Y-48000
X45850Y-42850
X45900Y-45650
X46500Y-37250
X47500Y-38250
X47550Y-55350
X48500Y-37250
X49000Y-38250
X49250Y-55350
X50250Y-37250
X50250Y-38750
X50250Y-40250
X50300Y-45100
X50300Y-45400
X51000Y-55350
X51450Y-48050
X51900Y-48150
X52000Y-52000
X52300Y-48100
X52500Y-50500
X53000Y-51500
X53150Y-47950
X53500Y-40250
X53500Y-42250
X53500Y-44250
T2
X45142Y-51228
X45142Y-54228
X46142Y-51228
X46142Y-54228
X47142Y-51228
X47142Y-54228
X48142Y-51228
X48142Y-54228
X49142Y-51228
X49142Y-54228
X50142Y-51228
X50142Y-54228
T3
X32335Y-46484
X32335Y-48216
T4
X47850Y-40050
X47850Y-41050
X47850Y-42050
X47850Y-43050
X47850Y-44050
X47850Y-45050
X47850Y-46050
X47850Y-47050
X47850Y-48050
X48850Y-40050
X48850Y-41050
X48850Y-42050
X48850Y-43050
X48850Y-44050
X48850Y-45050
X48850Y-46050
X48850Y-47050
X48850Y-48050
X48850Y-49050
T5
X31598Y-50858
X31598Y-52630
X34157Y-50858
X34157Y-52630
X35929Y-50858
X35929Y-52630
X38488Y-50858
X38488Y-52630
X47850Y-49050
T6
X52250Y-39950
X52250Y-40950
X52250Y-41950
X52250Y-42950
X52250Y-43950
X52250Y-44950
T7
X31200Y-41350
T8
X32972Y-41350
T9
X31500Y-37177
X31500Y-54500
X52760Y-37177
X52760Y-54500
T0
M30
