G04 (created by PCBNEW (2013-07-07 BZR 4022)-stable) date 3/3/2015 11:44:29 PM*
%MOIN*%
G04 Gerber Fmt 3.4, Leading zero omitted, Abs format*
%FSLAX34Y34*%
G01*
G70*
G90*
G04 APERTURE LIST*
%ADD10C,0.00590551*%
%ADD11R,0.0570866X0.0452756*%
%ADD12C,0.0708661*%
%ADD13R,0.12X0.06*%
%ADD14O,0.12X0.06*%
%ADD15R,0.110236X0.0944882*%
%ADD16C,0.0629921*%
%ADD17R,0.0846457X0.0374016*%
%ADD18R,0.0846457X0.127953*%
%ADD19R,0.0906X0.0197*%
%ADD20R,0.0984X0.0787*%
%ADD21C,0.0354*%
%ADD22R,0.0905512X0.0984252*%
%ADD23R,0.0374016X0.0393701*%
%ADD24R,0.0393701X0.0374016*%
%ADD25R,0.065X0.065*%
%ADD26C,0.065*%
%ADD27R,0.0767717X0.023622*%
%ADD28R,0.0593X0.0593*%
%ADD29C,0.0590551*%
%ADD30C,0.0593*%
%ADD31C,0.15748*%
%ADD32C,0.024*%
%ADD33C,0.01*%
%ADD34C,0.05*%
%ADD35C,0.03*%
%ADD36C,0.025*%
%ADD37C,0.02*%
G04 APERTURE END LIST*
G54D10*
G54D11*
X38800Y-40503D03*
X38800Y-39696D03*
G54D12*
X35929Y-50858D03*
X38488Y-50858D03*
X35929Y-52629D03*
X38488Y-52629D03*
G54D13*
X52250Y-44950D03*
G54D14*
X52250Y-43950D03*
X52250Y-42950D03*
X52250Y-41950D03*
X52250Y-40950D03*
X52250Y-39950D03*
G54D15*
X31200Y-39105D03*
X33601Y-39105D03*
X31200Y-43594D03*
X33601Y-43594D03*
G54D16*
X31200Y-41350D03*
G54D12*
X32971Y-41350D03*
G54D17*
X40000Y-38344D03*
X40000Y-39250D03*
X40000Y-40155D03*
G54D18*
X42283Y-39250D03*
G54D19*
X33358Y-46720D03*
X33358Y-47035D03*
X33358Y-47350D03*
X33358Y-47665D03*
X33358Y-47980D03*
G54D20*
X33319Y-45598D03*
X31154Y-45598D03*
X33319Y-49102D03*
X31154Y-49102D03*
G54D21*
X32335Y-46484D03*
X32335Y-48216D03*
G54D12*
X34157Y-52629D03*
X31598Y-52629D03*
X34157Y-50858D03*
X31598Y-50858D03*
G54D22*
X36100Y-41053D03*
X36100Y-42746D03*
X37500Y-41046D03*
X37500Y-39353D03*
G54D23*
X43100Y-49824D03*
X43100Y-49175D03*
X39500Y-49824D03*
X39500Y-49175D03*
X52200Y-46675D03*
X52200Y-47324D03*
X50400Y-48675D03*
X50400Y-49324D03*
X53100Y-48675D03*
X53100Y-49324D03*
X40400Y-49824D03*
X40400Y-49175D03*
X51300Y-48675D03*
X51300Y-49324D03*
X52200Y-48675D03*
X52200Y-49324D03*
X53100Y-47324D03*
X53100Y-46675D03*
G54D24*
X36374Y-47600D03*
X35725Y-47600D03*
X36374Y-46800D03*
X35725Y-46800D03*
G54D23*
X35500Y-49524D03*
X35500Y-48875D03*
X41300Y-49824D03*
X41300Y-49175D03*
X36800Y-45275D03*
X36800Y-45924D03*
X36500Y-49524D03*
X36500Y-48875D03*
X50350Y-42925D03*
X50350Y-43574D03*
X50350Y-41175D03*
X50350Y-41824D03*
X42200Y-49824D03*
X42200Y-49175D03*
X39500Y-50875D03*
X39500Y-51524D03*
X43100Y-50875D03*
X43100Y-51524D03*
X40400Y-50875D03*
X40400Y-51524D03*
X41300Y-50875D03*
X41300Y-51524D03*
X42200Y-50875D03*
X42200Y-51524D03*
G54D11*
X43600Y-38803D03*
X43600Y-37996D03*
G54D24*
X38649Y-49625D03*
X38000Y-49625D03*
G54D23*
X35950Y-45924D03*
X35950Y-45275D03*
X34650Y-46774D03*
X34650Y-46125D03*
X34650Y-47625D03*
X34650Y-48274D03*
G54D24*
X42975Y-48000D03*
X43624Y-48000D03*
G54D25*
X45141Y-54228D03*
G54D26*
X46141Y-54228D03*
X47141Y-54228D03*
X48141Y-54228D03*
X49141Y-54228D03*
X50141Y-54228D03*
X50141Y-51228D03*
X49141Y-51228D03*
X48141Y-51228D03*
X47141Y-51228D03*
X46141Y-51228D03*
X45141Y-51228D03*
G54D27*
X37899Y-47950D03*
X37899Y-46950D03*
X37899Y-46450D03*
X37899Y-47450D03*
X37899Y-45950D03*
X37899Y-43450D03*
X37899Y-44950D03*
X37899Y-43950D03*
X37899Y-44450D03*
X37899Y-45450D03*
X41600Y-45450D03*
X41600Y-44450D03*
X41600Y-43950D03*
X41600Y-44950D03*
X41600Y-43450D03*
X41600Y-45950D03*
X41600Y-47450D03*
X41600Y-46450D03*
X41600Y-46950D03*
X41600Y-47950D03*
G54D28*
X48850Y-49050D03*
G54D29*
X47850Y-49050D03*
G54D30*
X48850Y-48050D03*
X47850Y-48050D03*
X48850Y-47050D03*
X47850Y-47050D03*
X48850Y-46050D03*
X47850Y-46050D03*
X48850Y-45050D03*
X47850Y-45050D03*
X48850Y-44050D03*
X47850Y-44050D03*
X48850Y-43050D03*
X47850Y-43050D03*
X48850Y-42050D03*
X47850Y-42050D03*
X48850Y-41050D03*
X47850Y-41050D03*
X48850Y-40050D03*
X47850Y-40050D03*
G54D31*
X31500Y-37177D03*
X52759Y-37177D03*
X31500Y-54500D03*
X52759Y-54500D03*
G54D32*
X42350Y-48250D03*
X42350Y-48000D03*
X36950Y-44650D03*
X41200Y-40400D03*
X41200Y-40150D03*
X36975Y-48875D03*
X37550Y-49150D03*
X38625Y-49025D03*
X45050Y-50250D03*
X35150Y-47600D03*
X35150Y-46800D03*
X51450Y-48050D03*
X38675Y-42775D03*
X52300Y-48100D03*
X38675Y-41975D03*
X40000Y-44825D03*
X40450Y-43350D03*
X44300Y-44700D03*
X45850Y-42850D03*
X39500Y-43150D03*
X40650Y-44550D03*
X44650Y-42200D03*
X45900Y-45650D03*
X44650Y-45450D03*
X44350Y-46000D03*
X40600Y-45600D03*
X39350Y-42550D03*
X40400Y-44250D03*
X45450Y-41750D03*
X38925Y-41725D03*
X40650Y-43950D03*
X51900Y-48150D03*
X39700Y-48250D03*
X40150Y-46875D03*
X36200Y-44600D03*
X38250Y-42100D03*
X37600Y-42800D03*
X35100Y-45350D03*
X35950Y-50100D03*
X37550Y-50300D03*
X41500Y-54500D03*
X44000Y-54500D03*
X47550Y-55350D03*
X49250Y-55350D03*
X51000Y-55350D03*
X45600Y-55350D03*
X53500Y-44250D03*
X53500Y-42250D03*
X53500Y-40250D03*
X44100Y-39600D03*
X38850Y-38950D03*
X32350Y-44600D03*
X36400Y-39950D03*
X34250Y-40500D03*
X32000Y-40500D03*
X34250Y-42250D03*
X32100Y-42350D03*
X31250Y-46700D03*
X32950Y-50150D03*
X31250Y-48050D03*
X34550Y-49200D03*
X35450Y-48250D03*
X45700Y-48000D03*
X45500Y-38250D03*
X47500Y-38250D03*
X49000Y-38250D03*
X50250Y-40250D03*
X50250Y-38750D03*
X50250Y-37250D03*
X48500Y-37250D03*
X46500Y-37250D03*
X44750Y-37250D03*
X43000Y-37250D03*
X41500Y-37250D03*
X39750Y-37250D03*
X38000Y-37250D03*
X36250Y-37250D03*
X34750Y-37250D03*
X33000Y-37250D03*
X52500Y-50500D03*
X53000Y-51500D03*
X52000Y-52000D03*
X44775Y-48000D03*
X45000Y-49250D03*
X44250Y-51250D03*
X39500Y-53000D03*
X43500Y-53000D03*
X41500Y-53000D03*
X39500Y-54500D03*
X37500Y-54500D03*
X35500Y-54500D03*
X33500Y-54500D03*
X38050Y-49225D03*
X39250Y-45300D03*
X34100Y-48150D03*
X53150Y-47950D03*
X50300Y-45400D03*
X50300Y-45100D03*
X39300Y-46800D03*
X38650Y-46850D03*
X37600Y-48800D03*
X39450Y-46300D03*
X38650Y-47300D03*
X33375Y-46400D03*
X35850Y-43950D03*
X36100Y-43950D03*
X33150Y-46400D03*
G54D33*
X41300Y-51524D02*
X42200Y-51524D01*
X40400Y-51524D02*
X41300Y-51524D01*
X40000Y-39250D02*
X42283Y-39250D01*
G54D34*
X41200Y-40150D02*
X41200Y-39275D01*
X41200Y-39275D02*
X41225Y-39250D01*
X40000Y-39250D02*
X41225Y-39250D01*
X41225Y-39250D02*
X43153Y-39250D01*
X43153Y-39250D02*
X43600Y-38803D01*
G54D35*
X40400Y-51524D02*
X39500Y-51524D01*
X42950Y-51524D02*
X40250Y-51524D01*
X42950Y-51524D02*
X43375Y-51524D01*
X44000Y-49500D02*
X44000Y-48524D01*
X43650Y-49850D02*
X44000Y-49500D01*
X43650Y-51250D02*
X43650Y-49850D01*
X43375Y-51524D02*
X43650Y-51250D01*
X42624Y-48524D02*
X44000Y-48524D01*
X44000Y-48524D02*
X45524Y-48524D01*
X48850Y-49650D02*
X48850Y-49050D01*
X48600Y-49900D02*
X48850Y-49650D01*
X46900Y-49900D02*
X48600Y-49900D01*
X45524Y-48524D02*
X46900Y-49900D01*
X42350Y-48000D02*
X42350Y-48250D01*
X42350Y-48250D02*
X42624Y-48524D01*
G54D36*
X41600Y-47950D02*
X42300Y-47950D01*
X42300Y-47950D02*
X42350Y-48000D01*
X42350Y-48000D02*
X42975Y-48000D01*
G54D34*
X42350Y-48250D02*
X42350Y-48000D01*
G54D36*
X36800Y-44800D02*
X36950Y-44650D01*
X36800Y-45275D02*
X36800Y-44800D01*
G54D34*
X41200Y-40400D02*
X41200Y-40150D01*
G54D33*
X38625Y-49025D02*
X38625Y-49600D01*
X38625Y-49600D02*
X38649Y-49625D01*
X37875Y-48950D02*
X37675Y-49150D01*
X36500Y-48875D02*
X36974Y-48875D01*
X36974Y-48875D02*
X36975Y-48875D01*
X37875Y-48950D02*
X38550Y-48950D01*
X38550Y-48950D02*
X38625Y-49025D01*
X37675Y-49150D02*
X37550Y-49150D01*
X45650Y-54300D02*
X45650Y-54600D01*
X45050Y-50250D02*
X45400Y-50250D01*
X45400Y-50250D02*
X45650Y-50500D01*
X45650Y-50500D02*
X45650Y-54300D01*
X48595Y-54775D02*
X49141Y-54228D01*
X45825Y-54775D02*
X48595Y-54775D01*
X45650Y-54600D02*
X45825Y-54775D01*
X45160Y-54760D02*
X45141Y-54741D01*
X53600Y-48450D02*
X53400Y-48250D01*
X53400Y-48250D02*
X53000Y-48250D01*
X53000Y-48250D02*
X52650Y-47900D01*
X52650Y-47900D02*
X52650Y-47450D01*
X52650Y-47450D02*
X52524Y-47324D01*
X52200Y-47324D02*
X52524Y-47324D01*
X45160Y-54760D02*
X45400Y-55000D01*
X50650Y-55000D02*
X45400Y-55000D01*
X51200Y-54450D02*
X50650Y-55000D01*
X51200Y-54100D02*
X51200Y-54450D01*
X53600Y-51700D02*
X51200Y-54100D01*
X53600Y-51700D02*
X53600Y-48450D01*
X45141Y-54741D02*
X45141Y-54228D01*
X50400Y-49324D02*
X49774Y-49950D01*
X46650Y-53736D02*
X47141Y-54228D01*
X46650Y-50650D02*
X46650Y-53736D01*
X46950Y-50350D02*
X46650Y-50650D01*
X48900Y-50350D02*
X46950Y-50350D01*
X49300Y-49950D02*
X48900Y-50350D01*
X49774Y-49950D02*
X49300Y-49950D01*
X51300Y-49324D02*
X51300Y-50050D01*
X47720Y-50650D02*
X47141Y-51228D01*
X49200Y-50650D02*
X47720Y-50650D01*
X49550Y-50300D02*
X49200Y-50650D01*
X51050Y-50300D02*
X49550Y-50300D01*
X51300Y-50050D02*
X51050Y-50300D01*
X53100Y-49324D02*
X53100Y-50450D01*
X52321Y-51228D02*
X50141Y-51228D01*
X53100Y-50450D02*
X52321Y-51228D01*
X52200Y-49324D02*
X52200Y-50050D01*
X49720Y-50650D02*
X49141Y-51228D01*
X51600Y-50650D02*
X49720Y-50650D01*
X52200Y-50050D02*
X51600Y-50650D01*
X35150Y-47600D02*
X35725Y-47600D01*
X35124Y-47625D02*
X34650Y-47625D01*
X35150Y-47600D02*
X35124Y-47625D01*
X33358Y-47350D02*
X34374Y-47350D01*
X34374Y-47350D02*
X34650Y-47625D01*
X37899Y-47450D02*
X36524Y-47450D01*
X36524Y-47450D02*
X36374Y-47600D01*
X35150Y-46800D02*
X35725Y-46800D01*
X34650Y-46774D02*
X35124Y-46774D01*
X35124Y-46774D02*
X35150Y-46800D01*
X33358Y-47035D02*
X34389Y-47035D01*
X34389Y-47035D02*
X34650Y-46774D01*
X37899Y-46950D02*
X36524Y-46950D01*
X36524Y-46950D02*
X36374Y-46800D01*
X50350Y-41175D02*
X50575Y-40950D01*
X50575Y-40950D02*
X52250Y-40950D01*
X50350Y-42925D02*
X51325Y-41950D01*
X51325Y-41950D02*
X52250Y-41950D01*
X48850Y-47050D02*
X51300Y-47050D01*
X51674Y-46675D02*
X52200Y-46675D01*
X51300Y-47050D02*
X51674Y-46675D01*
X46900Y-47550D02*
X46300Y-46950D01*
X48350Y-47550D02*
X46900Y-47550D01*
X48850Y-47050D02*
X48350Y-47550D01*
X46300Y-46950D02*
X41600Y-46950D01*
X48850Y-48050D02*
X49475Y-48675D01*
X49475Y-48675D02*
X50400Y-48675D01*
X48350Y-48550D02*
X47150Y-48550D01*
X46050Y-47450D02*
X41600Y-47450D01*
X48950Y-47950D02*
X48350Y-48550D01*
X47150Y-48550D02*
X46050Y-47450D01*
X51300Y-48200D02*
X51450Y-48050D01*
X51300Y-48675D02*
X51300Y-48200D01*
X39350Y-42850D02*
X39450Y-42850D01*
X39450Y-42850D02*
X40250Y-42050D01*
X44450Y-41850D02*
X44250Y-42050D01*
X47850Y-42050D02*
X45250Y-42050D01*
X44450Y-41850D02*
X44550Y-41850D01*
X44550Y-41850D02*
X45050Y-41850D01*
X45050Y-41850D02*
X45250Y-42050D01*
X44250Y-42050D02*
X40250Y-42050D01*
X38850Y-43800D02*
X38850Y-43400D01*
X38850Y-43800D02*
X38200Y-44450D01*
X39350Y-42850D02*
X38850Y-43350D01*
X38850Y-43350D02*
X38850Y-43400D01*
X37899Y-44450D02*
X38200Y-44450D01*
X37899Y-44450D02*
X38200Y-44450D01*
X44150Y-41300D02*
X43900Y-41550D01*
X43900Y-41550D02*
X39900Y-41550D01*
X47100Y-41300D02*
X44150Y-41300D01*
X47100Y-41300D02*
X47350Y-41050D01*
X47850Y-41050D02*
X47350Y-41050D01*
X39900Y-41550D02*
X38675Y-42775D01*
X38675Y-42775D02*
X38600Y-42850D01*
X38200Y-43950D02*
X37899Y-43950D01*
X38600Y-43550D02*
X38600Y-42850D01*
X38200Y-43950D02*
X38600Y-43550D01*
X52524Y-48100D02*
X52300Y-48100D01*
X53100Y-48675D02*
X52524Y-48100D01*
X39750Y-41300D02*
X43800Y-41300D01*
X43800Y-41300D02*
X44050Y-41050D01*
X44050Y-41050D02*
X46850Y-41050D01*
X46850Y-41050D02*
X47850Y-40050D01*
X47850Y-40050D02*
X47850Y-40050D01*
X38200Y-43450D02*
X38350Y-43300D01*
X38350Y-43300D02*
X38350Y-42700D01*
X38200Y-43450D02*
X37899Y-43450D01*
X39750Y-41300D02*
X38350Y-42700D01*
X39850Y-40850D02*
X43550Y-40850D01*
X43550Y-40850D02*
X43850Y-40550D01*
X43850Y-40550D02*
X46125Y-40550D01*
X46125Y-40550D02*
X47400Y-39275D01*
X47400Y-39275D02*
X48600Y-39275D01*
X48600Y-39275D02*
X48850Y-39525D01*
X48850Y-39525D02*
X48850Y-40050D01*
X38525Y-41675D02*
X38825Y-41375D01*
X38525Y-41825D02*
X38525Y-41675D01*
X38675Y-41975D02*
X38525Y-41825D01*
X39475Y-40850D02*
X38950Y-41375D01*
X38950Y-41375D02*
X38825Y-41375D01*
X39850Y-40850D02*
X39475Y-40850D01*
X40000Y-44200D02*
X40000Y-44100D01*
X40000Y-44825D02*
X40000Y-44200D01*
X41600Y-43450D02*
X41150Y-43450D01*
X40950Y-43650D02*
X41150Y-43450D01*
X40450Y-43650D02*
X40950Y-43650D01*
X40000Y-44100D02*
X40450Y-43650D01*
X40500Y-43250D02*
X40500Y-43300D01*
X40500Y-43300D02*
X40450Y-43350D01*
X47350Y-45050D02*
X46950Y-45050D01*
X42800Y-43050D02*
X42250Y-43050D01*
X43950Y-44200D02*
X42800Y-43050D01*
X43950Y-45150D02*
X43950Y-44200D01*
X44750Y-45950D02*
X43950Y-45150D01*
X45800Y-45950D02*
X44750Y-45950D01*
X46050Y-45950D02*
X45800Y-45950D01*
X46950Y-45050D02*
X46050Y-45950D01*
X48850Y-44550D02*
X48650Y-44550D01*
X48150Y-45050D02*
X47850Y-45050D01*
X48650Y-44550D02*
X48150Y-45050D01*
X47850Y-45050D02*
X47350Y-45050D01*
X42250Y-43050D02*
X40700Y-43050D01*
X38200Y-45950D02*
X37899Y-45950D01*
X38200Y-45950D02*
X39600Y-44550D01*
X39600Y-44150D02*
X40250Y-43500D01*
X40250Y-43500D02*
X40500Y-43250D01*
X40500Y-43250D02*
X40700Y-43050D01*
X39600Y-44550D02*
X39600Y-44150D01*
X50350Y-43574D02*
X49374Y-44550D01*
X49374Y-44550D02*
X48850Y-44550D01*
X39350Y-44050D02*
X39350Y-44300D01*
X43000Y-42800D02*
X42750Y-42800D01*
X42750Y-42800D02*
X40600Y-42800D01*
X40600Y-42800D02*
X39350Y-44050D01*
X37899Y-45450D02*
X38200Y-45450D01*
X38200Y-45450D02*
X39350Y-44300D01*
X43000Y-42800D02*
X44300Y-44100D01*
X44300Y-44050D02*
X44300Y-44100D01*
X44300Y-44700D02*
X44300Y-44050D01*
X44250Y-44050D02*
X44300Y-44100D01*
X47850Y-44050D02*
X46050Y-44050D01*
X46050Y-44050D02*
X44250Y-44050D01*
X50350Y-41824D02*
X49650Y-42524D01*
X48350Y-43550D02*
X47850Y-44050D01*
X49250Y-43550D02*
X48350Y-43550D01*
X49650Y-43150D02*
X49250Y-43550D01*
X49650Y-42524D02*
X49650Y-43150D01*
X45850Y-42850D02*
X45550Y-42550D01*
X45550Y-42550D02*
X45350Y-42550D01*
X46450Y-43050D02*
X46050Y-43050D01*
X46050Y-43050D02*
X45850Y-42850D01*
X40500Y-42550D02*
X45350Y-42550D01*
X40500Y-42550D02*
X39100Y-43950D01*
X39100Y-44050D02*
X38200Y-44950D01*
X39100Y-44050D02*
X39100Y-43950D01*
X47850Y-43050D02*
X46450Y-43050D01*
X37899Y-44950D02*
X38200Y-44950D01*
X38200Y-44950D02*
X37899Y-44950D01*
X41600Y-44950D02*
X41050Y-44950D01*
X40350Y-42300D02*
X39500Y-43150D01*
X40350Y-42300D02*
X44750Y-42300D01*
X40650Y-44550D02*
X41050Y-44950D01*
X48350Y-42550D02*
X48850Y-43050D01*
X47400Y-42550D02*
X48350Y-42550D01*
X47150Y-42300D02*
X47400Y-42550D01*
X44750Y-42300D02*
X47150Y-42300D01*
X44650Y-42200D02*
X44750Y-42300D01*
X45900Y-45650D02*
X44850Y-45650D01*
X45900Y-45650D02*
X47000Y-44550D01*
X44850Y-45650D02*
X44650Y-45450D01*
X48850Y-44050D02*
X48350Y-44550D01*
X47000Y-44550D02*
X47900Y-44550D01*
X47900Y-44550D02*
X48350Y-44550D01*
X44350Y-46000D02*
X42900Y-46000D01*
X42900Y-46000D02*
X42350Y-45450D01*
X42350Y-45450D02*
X41600Y-45450D01*
X40950Y-45950D02*
X41600Y-45950D01*
X40600Y-45600D02*
X40950Y-45950D01*
X47050Y-45950D02*
X46600Y-46400D01*
X42700Y-46400D02*
X42250Y-45950D01*
X46600Y-46400D02*
X42700Y-46400D01*
X48850Y-45050D02*
X48350Y-45550D01*
X42250Y-45950D02*
X41600Y-45950D01*
X47450Y-45550D02*
X47050Y-45950D01*
X48350Y-45550D02*
X47450Y-45550D01*
X40100Y-41800D02*
X39350Y-42550D01*
X45450Y-41750D02*
X45250Y-41550D01*
X44100Y-41800D02*
X40500Y-41800D01*
X44350Y-41550D02*
X44100Y-41800D01*
X45250Y-41550D02*
X44350Y-41550D01*
X40500Y-41800D02*
X40100Y-41800D01*
X40750Y-44250D02*
X40400Y-44250D01*
X40950Y-44450D02*
X41600Y-44450D01*
X40850Y-44350D02*
X40950Y-44450D01*
X40850Y-44350D02*
X40750Y-44250D01*
X48850Y-42050D02*
X48350Y-41550D01*
X45650Y-41550D02*
X45450Y-41750D01*
X48350Y-41550D02*
X45650Y-41550D01*
X38925Y-41725D02*
X39575Y-41075D01*
X41600Y-43950D02*
X40650Y-43950D01*
X48350Y-40550D02*
X48850Y-41050D01*
X48350Y-39775D02*
X48350Y-40550D01*
X48075Y-39500D02*
X48350Y-39775D01*
X47550Y-39500D02*
X48075Y-39500D01*
X46250Y-40800D02*
X47550Y-39500D01*
X43950Y-40800D02*
X46250Y-40800D01*
X43675Y-41075D02*
X43950Y-40800D01*
X39575Y-41075D02*
X43675Y-41075D01*
X51900Y-48375D02*
X51900Y-48150D01*
X52200Y-48675D02*
X51900Y-48375D01*
X37275Y-48850D02*
X37275Y-49025D01*
X36975Y-49325D02*
X36975Y-50858D01*
X37275Y-49025D02*
X36975Y-49325D01*
X37275Y-48850D02*
X37275Y-48675D01*
X37275Y-48675D02*
X37450Y-48500D01*
X37450Y-48500D02*
X38750Y-48500D01*
X38750Y-48500D02*
X39000Y-48250D01*
X39000Y-48250D02*
X39700Y-48250D01*
X40150Y-46875D02*
X40575Y-46450D01*
X40575Y-46450D02*
X41600Y-46450D01*
X52250Y-44950D02*
X52600Y-44950D01*
X53100Y-45450D02*
X53100Y-46675D01*
X52600Y-44950D02*
X53100Y-45450D01*
X51500Y-45400D02*
X51950Y-44950D01*
X51950Y-44950D02*
X52250Y-44950D01*
X35929Y-50858D02*
X36975Y-50858D01*
X36975Y-50858D02*
X37275Y-50858D01*
X37275Y-50858D02*
X38488Y-50858D01*
X47450Y-46550D02*
X47300Y-46700D01*
X42500Y-46700D02*
X42250Y-46450D01*
X47300Y-46700D02*
X42500Y-46700D01*
X42250Y-46450D02*
X41850Y-46450D01*
X50850Y-46050D02*
X51500Y-45400D01*
X50850Y-46050D02*
X48850Y-46050D01*
X48850Y-46050D02*
X48350Y-46550D01*
X48350Y-46550D02*
X47450Y-46550D01*
X36200Y-44600D02*
X35950Y-44850D01*
X35950Y-44850D02*
X35950Y-45275D01*
X53500Y-39500D02*
X53500Y-40250D01*
X35950Y-45275D02*
X35174Y-45275D01*
X35174Y-45275D02*
X35100Y-45350D01*
X34157Y-52629D02*
X35100Y-51687D01*
X35600Y-50100D02*
X35950Y-50100D01*
X35100Y-50600D02*
X35600Y-50100D01*
X35100Y-51687D02*
X35100Y-50600D01*
X38000Y-49625D02*
X38000Y-50249D01*
X37950Y-50300D02*
X37550Y-50300D01*
X38000Y-50249D02*
X37950Y-50300D01*
X44000Y-54500D02*
X44100Y-54500D01*
X41500Y-54500D02*
X44000Y-54500D01*
X45600Y-55350D02*
X47550Y-55350D01*
X47550Y-55350D02*
X49250Y-55350D01*
X49250Y-55350D02*
X51000Y-55350D01*
X45600Y-55350D02*
X44950Y-55350D01*
X44700Y-55100D02*
X44950Y-55350D01*
X44100Y-54500D02*
X44700Y-55100D01*
X52759Y-38759D02*
X53500Y-39500D01*
X52759Y-37177D02*
X52759Y-38759D01*
X53500Y-40250D02*
X53500Y-42250D01*
X53500Y-42250D02*
X53500Y-44250D01*
X44400Y-39350D02*
X44150Y-39600D01*
X44750Y-39000D02*
X44400Y-39350D01*
X44750Y-37250D02*
X44750Y-39000D01*
X44150Y-39600D02*
X44100Y-39600D01*
X38850Y-38950D02*
X38850Y-38350D01*
X38855Y-38344D02*
X38850Y-38350D01*
X38855Y-38344D02*
X40000Y-38344D01*
X34250Y-40500D02*
X34800Y-39950D01*
X34800Y-39950D02*
X36400Y-39950D01*
X34250Y-42250D02*
X34250Y-40500D01*
X32300Y-44650D02*
X32100Y-44450D01*
X32100Y-44450D02*
X32100Y-42350D01*
X32100Y-42350D02*
X32200Y-42250D01*
X32200Y-42250D02*
X34250Y-42250D01*
X32300Y-45250D02*
X32300Y-44650D01*
X34250Y-40500D02*
X32000Y-40500D01*
X32350Y-45750D02*
X32350Y-44600D01*
X31400Y-46700D02*
X32350Y-45750D01*
X31250Y-46700D02*
X31400Y-46700D01*
X31250Y-48050D02*
X31450Y-48050D01*
X33600Y-50150D02*
X34550Y-49200D01*
X31450Y-46900D02*
X31250Y-46700D01*
X31250Y-46700D02*
X31250Y-48050D01*
X31800Y-46900D02*
X31450Y-46900D01*
X32950Y-50150D02*
X33600Y-50150D01*
X32200Y-49400D02*
X32950Y-50150D01*
X32200Y-48800D02*
X32200Y-49400D01*
X31450Y-48050D02*
X32200Y-48800D01*
X34650Y-48274D02*
X35425Y-48274D01*
X35450Y-48250D02*
X35100Y-48250D01*
X35425Y-48274D02*
X35450Y-48250D01*
X34650Y-48274D02*
X34650Y-49100D01*
X34650Y-49100D02*
X34550Y-49200D01*
X34200Y-48850D02*
X34550Y-49200D01*
X34200Y-48850D02*
X34200Y-48750D01*
X31500Y-37177D02*
X31572Y-37250D01*
X49000Y-38250D02*
X47500Y-38250D01*
X50250Y-38750D02*
X50250Y-40250D01*
X48500Y-37250D02*
X50250Y-37250D01*
X44750Y-37250D02*
X46500Y-37250D01*
X41500Y-37250D02*
X43000Y-37250D01*
X38000Y-37250D02*
X39750Y-37250D01*
X34750Y-37250D02*
X36250Y-37250D01*
X31572Y-37250D02*
X33000Y-37250D01*
X52500Y-52000D02*
X53000Y-51500D01*
X52000Y-52000D02*
X52500Y-52000D01*
X43624Y-48000D02*
X44775Y-48000D01*
X43500Y-53000D02*
X44250Y-52250D01*
X44250Y-52250D02*
X44250Y-51250D01*
X41500Y-53000D02*
X43500Y-53000D01*
X37500Y-54500D02*
X39500Y-54500D01*
X34500Y-54500D02*
X35500Y-54500D01*
X33500Y-54500D02*
X34500Y-54500D01*
X38050Y-49225D02*
X38050Y-49575D01*
X38050Y-49575D02*
X38000Y-49625D01*
G54D35*
X43624Y-48000D02*
X45700Y-48000D01*
X45700Y-48000D02*
X45900Y-48000D01*
X46950Y-49050D02*
X47850Y-49050D01*
X45900Y-48000D02*
X46950Y-49050D01*
G54D37*
X33358Y-47980D02*
X33930Y-47980D01*
X33930Y-47980D02*
X34100Y-48150D01*
G54D33*
X42200Y-50875D02*
X42200Y-49824D01*
X53100Y-47900D02*
X53100Y-47324D01*
X53150Y-47950D02*
X53100Y-47900D01*
X39500Y-50875D02*
X39500Y-49824D01*
G54D35*
X50300Y-45100D02*
X51450Y-43950D01*
X51450Y-43950D02*
X52250Y-43950D01*
X50300Y-45400D02*
X50300Y-45100D01*
G54D36*
X35950Y-45924D02*
X36800Y-45924D01*
X36800Y-45924D02*
X37325Y-46450D01*
X37325Y-46450D02*
X37899Y-46450D01*
G54D33*
X39300Y-46800D02*
X40800Y-48300D01*
X41524Y-48500D02*
X41000Y-48500D01*
X41000Y-48500D02*
X40800Y-48300D01*
X41524Y-48500D02*
X42200Y-49175D01*
X40700Y-48575D02*
X39174Y-47050D01*
X41300Y-49175D02*
X40700Y-48575D01*
X38850Y-47050D02*
X38650Y-46850D01*
X39174Y-47050D02*
X38850Y-47050D01*
X37600Y-48800D02*
X37675Y-48725D01*
X39949Y-48725D02*
X40400Y-49175D01*
X37675Y-48725D02*
X39949Y-48725D01*
X39450Y-46300D02*
X39650Y-46500D01*
X40850Y-48000D02*
X39650Y-46800D01*
X39650Y-46800D02*
X39650Y-46500D01*
X43100Y-49175D02*
X42825Y-49175D01*
X41100Y-48250D02*
X40850Y-48000D01*
X41700Y-48250D02*
X41100Y-48250D01*
X42150Y-48700D02*
X41700Y-48250D01*
X42350Y-48700D02*
X42150Y-48700D01*
X42825Y-49175D02*
X42350Y-48700D01*
X41300Y-50875D02*
X41300Y-49824D01*
X40400Y-50875D02*
X40400Y-49824D01*
X43100Y-50875D02*
X43100Y-49824D01*
X36000Y-48800D02*
X36000Y-48700D01*
X37100Y-48500D02*
X37325Y-48275D01*
X36200Y-48500D02*
X37100Y-48500D01*
X36000Y-48700D02*
X36200Y-48500D01*
X37325Y-48275D02*
X38474Y-48275D01*
X36000Y-49500D02*
X36000Y-48800D01*
X38550Y-48199D02*
X38474Y-48275D01*
X38650Y-47300D02*
X38650Y-48099D01*
X38650Y-48099D02*
X38550Y-48199D01*
X36000Y-49500D02*
X35524Y-49500D01*
X34157Y-50392D02*
X34157Y-50858D01*
X34650Y-49900D02*
X34157Y-50392D01*
X35124Y-49900D02*
X34650Y-49900D01*
X35524Y-49500D02*
X35124Y-49900D01*
X36024Y-49524D02*
X36500Y-49524D01*
X36000Y-49500D02*
X36024Y-49524D01*
X31598Y-50858D02*
X34157Y-50858D01*
X31200Y-39105D02*
X33601Y-39105D01*
G54D34*
X35902Y-39105D02*
X37252Y-39105D01*
X31200Y-39105D02*
X35902Y-39105D01*
X37252Y-39105D02*
X37500Y-39353D01*
X37400Y-39203D02*
X37550Y-39353D01*
X37650Y-39253D02*
X37550Y-39353D01*
X35850Y-43950D02*
X35850Y-42996D01*
X35850Y-42996D02*
X36100Y-42746D01*
X36100Y-43950D02*
X36100Y-42746D01*
X35850Y-43950D02*
X36100Y-43950D01*
G54D36*
X33150Y-46400D02*
X33400Y-46400D01*
X33150Y-46700D02*
X33150Y-46400D01*
X33400Y-46700D02*
X33150Y-46700D01*
X33400Y-46400D02*
X33400Y-46700D01*
G54D33*
X36100Y-41053D02*
X36107Y-41046D01*
X36107Y-41046D02*
X37500Y-41046D01*
G54D34*
X38800Y-40503D02*
X39096Y-40503D01*
X39444Y-40155D02*
X40000Y-40155D01*
X39096Y-40503D02*
X39444Y-40155D01*
X38142Y-41046D02*
X38683Y-40505D01*
X37000Y-41046D02*
X38142Y-41046D01*
X37046Y-41046D02*
X37000Y-41046D01*
X37000Y-41046D02*
X36150Y-41046D01*
G54D10*
G36*
X41065Y-45699D02*
X41065Y-45700D01*
X41053Y-45700D01*
X40920Y-45566D01*
X40920Y-45536D01*
X40871Y-45418D01*
X40781Y-45328D01*
X40663Y-45280D01*
X40536Y-45279D01*
X40418Y-45328D01*
X40328Y-45418D01*
X40280Y-45536D01*
X40279Y-45663D01*
X40328Y-45781D01*
X40418Y-45871D01*
X40536Y-45919D01*
X40566Y-45919D01*
X40773Y-46126D01*
X40773Y-46126D01*
X40854Y-46180D01*
X40854Y-46180D01*
X40930Y-46196D01*
X40949Y-46200D01*
X40575Y-46200D01*
X40479Y-46219D01*
X40398Y-46273D01*
X40398Y-46273D01*
X40116Y-46554D01*
X40086Y-46554D01*
X39968Y-46603D01*
X39900Y-46672D01*
X39900Y-46500D01*
X39880Y-46404D01*
X39880Y-46404D01*
X39859Y-46371D01*
X39826Y-46323D01*
X39826Y-46323D01*
X39770Y-46266D01*
X39770Y-46236D01*
X39721Y-46118D01*
X39631Y-46028D01*
X39513Y-45980D01*
X39386Y-45979D01*
X39268Y-46028D01*
X39178Y-46118D01*
X39130Y-46236D01*
X39129Y-46363D01*
X39178Y-46481D01*
X39194Y-46497D01*
X39118Y-46528D01*
X39028Y-46618D01*
X38980Y-46736D01*
X38979Y-46800D01*
X38970Y-46800D01*
X38970Y-46786D01*
X38921Y-46668D01*
X38831Y-46578D01*
X38713Y-46530D01*
X38586Y-46529D01*
X38483Y-46572D01*
X38483Y-46528D01*
X38483Y-46292D01*
X38452Y-46218D01*
X38434Y-46200D01*
X38452Y-46181D01*
X38483Y-46108D01*
X38483Y-46028D01*
X38483Y-46020D01*
X39680Y-44823D01*
X39679Y-44888D01*
X39728Y-45006D01*
X39818Y-45096D01*
X39936Y-45144D01*
X40063Y-45145D01*
X40181Y-45096D01*
X40271Y-45006D01*
X40319Y-44888D01*
X40320Y-44761D01*
X40271Y-44643D01*
X40250Y-44622D01*
X40250Y-44534D01*
X40329Y-44567D01*
X40329Y-44613D01*
X40378Y-44731D01*
X40468Y-44821D01*
X40586Y-44869D01*
X40616Y-44869D01*
X40873Y-45126D01*
X40873Y-45126D01*
X40954Y-45180D01*
X40954Y-45180D01*
X41030Y-45196D01*
X41049Y-45200D01*
X41049Y-45199D01*
X41050Y-45200D01*
X41065Y-45200D01*
X41046Y-45218D01*
X41016Y-45291D01*
X41016Y-45371D01*
X41016Y-45607D01*
X41046Y-45681D01*
X41065Y-45699D01*
X41065Y-45699D01*
G37*
G54D33*
X41065Y-45699D02*
X41065Y-45700D01*
X41053Y-45700D01*
X40920Y-45566D01*
X40920Y-45536D01*
X40871Y-45418D01*
X40781Y-45328D01*
X40663Y-45280D01*
X40536Y-45279D01*
X40418Y-45328D01*
X40328Y-45418D01*
X40280Y-45536D01*
X40279Y-45663D01*
X40328Y-45781D01*
X40418Y-45871D01*
X40536Y-45919D01*
X40566Y-45919D01*
X40773Y-46126D01*
X40773Y-46126D01*
X40854Y-46180D01*
X40854Y-46180D01*
X40930Y-46196D01*
X40949Y-46200D01*
X40575Y-46200D01*
X40479Y-46219D01*
X40398Y-46273D01*
X40398Y-46273D01*
X40116Y-46554D01*
X40086Y-46554D01*
X39968Y-46603D01*
X39900Y-46672D01*
X39900Y-46500D01*
X39880Y-46404D01*
X39880Y-46404D01*
X39859Y-46371D01*
X39826Y-46323D01*
X39826Y-46323D01*
X39770Y-46266D01*
X39770Y-46236D01*
X39721Y-46118D01*
X39631Y-46028D01*
X39513Y-45980D01*
X39386Y-45979D01*
X39268Y-46028D01*
X39178Y-46118D01*
X39130Y-46236D01*
X39129Y-46363D01*
X39178Y-46481D01*
X39194Y-46497D01*
X39118Y-46528D01*
X39028Y-46618D01*
X38980Y-46736D01*
X38979Y-46800D01*
X38970Y-46800D01*
X38970Y-46786D01*
X38921Y-46668D01*
X38831Y-46578D01*
X38713Y-46530D01*
X38586Y-46529D01*
X38483Y-46572D01*
X38483Y-46528D01*
X38483Y-46292D01*
X38452Y-46218D01*
X38434Y-46200D01*
X38452Y-46181D01*
X38483Y-46108D01*
X38483Y-46028D01*
X38483Y-46020D01*
X39680Y-44823D01*
X39679Y-44888D01*
X39728Y-45006D01*
X39818Y-45096D01*
X39936Y-45144D01*
X40063Y-45145D01*
X40181Y-45096D01*
X40271Y-45006D01*
X40319Y-44888D01*
X40320Y-44761D01*
X40271Y-44643D01*
X40250Y-44622D01*
X40250Y-44534D01*
X40329Y-44567D01*
X40329Y-44613D01*
X40378Y-44731D01*
X40468Y-44821D01*
X40586Y-44869D01*
X40616Y-44869D01*
X40873Y-45126D01*
X40873Y-45126D01*
X40954Y-45180D01*
X40954Y-45180D01*
X41030Y-45196D01*
X41049Y-45200D01*
X41049Y-45199D01*
X41050Y-45200D01*
X41065Y-45200D01*
X41046Y-45218D01*
X41016Y-45291D01*
X41016Y-45371D01*
X41016Y-45607D01*
X41046Y-45681D01*
X41065Y-45699D01*
G54D10*
G36*
X48474Y-49530D02*
X48455Y-49550D01*
X48080Y-49550D01*
X48135Y-49527D01*
X48161Y-49432D01*
X47850Y-49120D01*
X47538Y-49432D01*
X47564Y-49527D01*
X47628Y-49550D01*
X47044Y-49550D01*
X45772Y-48277D01*
X45658Y-48201D01*
X45524Y-48174D01*
X44071Y-48174D01*
X44071Y-48137D01*
X44071Y-48112D01*
X44009Y-48050D01*
X43674Y-48050D01*
X43674Y-48057D01*
X43574Y-48057D01*
X43574Y-48050D01*
X43566Y-48050D01*
X43566Y-47950D01*
X43574Y-47950D01*
X43574Y-47942D01*
X43674Y-47942D01*
X43674Y-47950D01*
X44009Y-47950D01*
X44071Y-47887D01*
X44071Y-47862D01*
X44071Y-47763D01*
X44045Y-47700D01*
X45946Y-47700D01*
X46973Y-48726D01*
X46973Y-48726D01*
X47054Y-48780D01*
X47054Y-48780D01*
X47150Y-48800D01*
X47360Y-48800D01*
X47299Y-48969D01*
X47310Y-49186D01*
X47372Y-49335D01*
X47467Y-49361D01*
X47779Y-49050D01*
X47773Y-49044D01*
X47844Y-48973D01*
X47850Y-48979D01*
X47855Y-48973D01*
X47926Y-49044D01*
X47920Y-49050D01*
X48232Y-49361D01*
X48327Y-49335D01*
X48353Y-49261D01*
X48353Y-49386D01*
X48383Y-49459D01*
X48440Y-49515D01*
X48474Y-49530D01*
X48474Y-49530D01*
G37*
G54D33*
X48474Y-49530D02*
X48455Y-49550D01*
X48080Y-49550D01*
X48135Y-49527D01*
X48161Y-49432D01*
X47850Y-49120D01*
X47538Y-49432D01*
X47564Y-49527D01*
X47628Y-49550D01*
X47044Y-49550D01*
X45772Y-48277D01*
X45658Y-48201D01*
X45524Y-48174D01*
X44071Y-48174D01*
X44071Y-48137D01*
X44071Y-48112D01*
X44009Y-48050D01*
X43674Y-48050D01*
X43674Y-48057D01*
X43574Y-48057D01*
X43574Y-48050D01*
X43566Y-48050D01*
X43566Y-47950D01*
X43574Y-47950D01*
X43574Y-47942D01*
X43674Y-47942D01*
X43674Y-47950D01*
X44009Y-47950D01*
X44071Y-47887D01*
X44071Y-47862D01*
X44071Y-47763D01*
X44045Y-47700D01*
X45946Y-47700D01*
X46973Y-48726D01*
X46973Y-48726D01*
X47054Y-48780D01*
X47054Y-48780D01*
X47150Y-48800D01*
X47360Y-48800D01*
X47299Y-48969D01*
X47310Y-49186D01*
X47372Y-49335D01*
X47467Y-49361D01*
X47779Y-49050D01*
X47773Y-49044D01*
X47844Y-48973D01*
X47850Y-48979D01*
X47855Y-48973D01*
X47926Y-49044D01*
X47920Y-49050D01*
X48232Y-49361D01*
X48327Y-49335D01*
X48353Y-49261D01*
X48353Y-49386D01*
X48383Y-49459D01*
X48440Y-49515D01*
X48474Y-49530D01*
G54D10*
G36*
X52850Y-50346D02*
X52218Y-50978D01*
X50606Y-50978D01*
X50587Y-50931D01*
X50555Y-50900D01*
X51600Y-50900D01*
X51695Y-50880D01*
X51776Y-50826D01*
X52376Y-50226D01*
X52376Y-50226D01*
X52376Y-50226D01*
X52409Y-50178D01*
X52430Y-50145D01*
X52430Y-50145D01*
X52450Y-50050D01*
X52450Y-49712D01*
X52500Y-49691D01*
X52556Y-49635D01*
X52586Y-49561D01*
X52587Y-49482D01*
X52587Y-49088D01*
X52556Y-49014D01*
X52541Y-49000D01*
X52556Y-48985D01*
X52586Y-48912D01*
X52587Y-48832D01*
X52587Y-48515D01*
X52712Y-48641D01*
X52712Y-48911D01*
X52743Y-48985D01*
X52758Y-48999D01*
X52743Y-49014D01*
X52713Y-49087D01*
X52712Y-49167D01*
X52712Y-49561D01*
X52743Y-49634D01*
X52799Y-49691D01*
X52850Y-49712D01*
X52850Y-50346D01*
X52850Y-50346D01*
G37*
G54D33*
X52850Y-50346D02*
X52218Y-50978D01*
X50606Y-50978D01*
X50587Y-50931D01*
X50555Y-50900D01*
X51600Y-50900D01*
X51695Y-50880D01*
X51776Y-50826D01*
X52376Y-50226D01*
X52376Y-50226D01*
X52376Y-50226D01*
X52409Y-50178D01*
X52430Y-50145D01*
X52430Y-50145D01*
X52450Y-50050D01*
X52450Y-49712D01*
X52500Y-49691D01*
X52556Y-49635D01*
X52586Y-49561D01*
X52587Y-49482D01*
X52587Y-49088D01*
X52556Y-49014D01*
X52541Y-49000D01*
X52556Y-48985D01*
X52586Y-48912D01*
X52587Y-48832D01*
X52587Y-48515D01*
X52712Y-48641D01*
X52712Y-48911D01*
X52743Y-48985D01*
X52758Y-48999D01*
X52743Y-49014D01*
X52713Y-49087D01*
X52712Y-49167D01*
X52712Y-49561D01*
X52743Y-49634D01*
X52799Y-49691D01*
X52850Y-49712D01*
X52850Y-50346D01*
G54D10*
G36*
X53350Y-51596D02*
X51023Y-53923D01*
X50969Y-54004D01*
X50950Y-54100D01*
X50950Y-54346D01*
X50546Y-54750D01*
X50254Y-54750D01*
X50438Y-54673D01*
X50586Y-54526D01*
X50666Y-54333D01*
X50666Y-54124D01*
X50587Y-53931D01*
X50439Y-53783D01*
X50246Y-53703D01*
X50037Y-53703D01*
X49844Y-53783D01*
X49696Y-53930D01*
X49641Y-54063D01*
X49587Y-53931D01*
X49439Y-53783D01*
X49246Y-53703D01*
X49037Y-53703D01*
X48844Y-53783D01*
X48696Y-53930D01*
X48641Y-54063D01*
X48587Y-53931D01*
X48439Y-53783D01*
X48246Y-53703D01*
X48037Y-53703D01*
X47844Y-53783D01*
X47696Y-53930D01*
X47641Y-54063D01*
X47587Y-53931D01*
X47439Y-53783D01*
X47246Y-53703D01*
X47037Y-53703D01*
X46989Y-53723D01*
X46900Y-53633D01*
X46900Y-51696D01*
X47036Y-51753D01*
X47245Y-51753D01*
X47438Y-51673D01*
X47586Y-51526D01*
X47641Y-51393D01*
X47696Y-51525D01*
X47843Y-51673D01*
X48036Y-51753D01*
X48245Y-51753D01*
X48438Y-51673D01*
X48586Y-51526D01*
X48641Y-51393D01*
X48696Y-51525D01*
X48843Y-51673D01*
X49036Y-51753D01*
X49245Y-51753D01*
X49438Y-51673D01*
X49586Y-51526D01*
X49641Y-51393D01*
X49696Y-51525D01*
X49843Y-51673D01*
X50036Y-51753D01*
X50245Y-51753D01*
X50438Y-51673D01*
X50586Y-51526D01*
X50606Y-51478D01*
X52321Y-51478D01*
X52417Y-51459D01*
X52498Y-51405D01*
X53276Y-50626D01*
X53330Y-50545D01*
X53350Y-50450D01*
X53350Y-51596D01*
X53350Y-51596D01*
G37*
G54D33*
X53350Y-51596D02*
X51023Y-53923D01*
X50969Y-54004D01*
X50950Y-54100D01*
X50950Y-54346D01*
X50546Y-54750D01*
X50254Y-54750D01*
X50438Y-54673D01*
X50586Y-54526D01*
X50666Y-54333D01*
X50666Y-54124D01*
X50587Y-53931D01*
X50439Y-53783D01*
X50246Y-53703D01*
X50037Y-53703D01*
X49844Y-53783D01*
X49696Y-53930D01*
X49641Y-54063D01*
X49587Y-53931D01*
X49439Y-53783D01*
X49246Y-53703D01*
X49037Y-53703D01*
X48844Y-53783D01*
X48696Y-53930D01*
X48641Y-54063D01*
X48587Y-53931D01*
X48439Y-53783D01*
X48246Y-53703D01*
X48037Y-53703D01*
X47844Y-53783D01*
X47696Y-53930D01*
X47641Y-54063D01*
X47587Y-53931D01*
X47439Y-53783D01*
X47246Y-53703D01*
X47037Y-53703D01*
X46989Y-53723D01*
X46900Y-53633D01*
X46900Y-51696D01*
X47036Y-51753D01*
X47245Y-51753D01*
X47438Y-51673D01*
X47586Y-51526D01*
X47641Y-51393D01*
X47696Y-51525D01*
X47843Y-51673D01*
X48036Y-51753D01*
X48245Y-51753D01*
X48438Y-51673D01*
X48586Y-51526D01*
X48641Y-51393D01*
X48696Y-51525D01*
X48843Y-51673D01*
X49036Y-51753D01*
X49245Y-51753D01*
X49438Y-51673D01*
X49586Y-51526D01*
X49641Y-51393D01*
X49696Y-51525D01*
X49843Y-51673D01*
X50036Y-51753D01*
X50245Y-51753D01*
X50438Y-51673D01*
X50586Y-51526D01*
X50606Y-51478D01*
X52321Y-51478D01*
X52417Y-51459D01*
X52498Y-51405D01*
X53276Y-50626D01*
X53330Y-50545D01*
X53350Y-50450D01*
X53350Y-51596D01*
G54D10*
G36*
X53721Y-55461D02*
X53153Y-55461D01*
X53340Y-55384D01*
X53427Y-55238D01*
X52759Y-54570D01*
X52689Y-54641D01*
X52689Y-54500D01*
X52021Y-53832D01*
X51875Y-53919D01*
X51720Y-54301D01*
X51724Y-54714D01*
X51875Y-55080D01*
X52021Y-55167D01*
X52689Y-54500D01*
X52689Y-54641D01*
X52092Y-55238D01*
X52179Y-55384D01*
X52370Y-55461D01*
X39097Y-55461D01*
X39097Y-52724D01*
X39086Y-52484D01*
X39014Y-52309D01*
X38913Y-52275D01*
X38842Y-52346D01*
X38842Y-52204D01*
X38808Y-52103D01*
X38582Y-52021D01*
X38342Y-52031D01*
X38167Y-52103D01*
X38133Y-52204D01*
X38488Y-52559D01*
X38842Y-52204D01*
X38842Y-52346D01*
X38558Y-52629D01*
X38913Y-52984D01*
X39014Y-52950D01*
X39097Y-52724D01*
X39097Y-55461D01*
X38842Y-55461D01*
X38842Y-53055D01*
X38488Y-52700D01*
X38417Y-52771D01*
X38417Y-52629D01*
X38062Y-52275D01*
X37961Y-52309D01*
X37879Y-52535D01*
X37889Y-52775D01*
X37961Y-52950D01*
X38062Y-52984D01*
X38417Y-52629D01*
X38417Y-52771D01*
X38133Y-53055D01*
X38167Y-53156D01*
X38393Y-53238D01*
X38633Y-53228D01*
X38808Y-53156D01*
X38842Y-53055D01*
X38842Y-55461D01*
X36537Y-55461D01*
X36537Y-52724D01*
X36527Y-52484D01*
X36455Y-52309D01*
X36354Y-52275D01*
X36283Y-52346D01*
X36283Y-52204D01*
X36249Y-52103D01*
X36023Y-52021D01*
X35783Y-52031D01*
X35608Y-52103D01*
X35574Y-52204D01*
X35929Y-52559D01*
X36283Y-52204D01*
X36283Y-52346D01*
X35999Y-52629D01*
X36354Y-52984D01*
X36455Y-52950D01*
X36537Y-52724D01*
X36537Y-55461D01*
X36283Y-55461D01*
X36283Y-53055D01*
X35929Y-52700D01*
X35858Y-52771D01*
X35858Y-52629D01*
X35503Y-52275D01*
X35402Y-52309D01*
X35320Y-52535D01*
X35330Y-52775D01*
X35402Y-52950D01*
X35503Y-52984D01*
X35858Y-52629D01*
X35858Y-52771D01*
X35574Y-53055D01*
X35608Y-53156D01*
X35834Y-53238D01*
X36074Y-53228D01*
X36249Y-53156D01*
X36283Y-53055D01*
X36283Y-55461D01*
X34766Y-55461D01*
X34766Y-52724D01*
X34756Y-52484D01*
X34683Y-52309D01*
X34582Y-52275D01*
X34512Y-52346D01*
X34512Y-52204D01*
X34478Y-52103D01*
X34252Y-52021D01*
X34012Y-52031D01*
X33836Y-52103D01*
X33802Y-52204D01*
X34157Y-52559D01*
X34512Y-52204D01*
X34512Y-52346D01*
X34228Y-52629D01*
X34582Y-52984D01*
X34683Y-52950D01*
X34766Y-52724D01*
X34766Y-55461D01*
X34512Y-55461D01*
X34512Y-53055D01*
X34157Y-52700D01*
X34086Y-52771D01*
X34086Y-52629D01*
X33732Y-52275D01*
X33631Y-52309D01*
X33548Y-52535D01*
X33558Y-52775D01*
X33631Y-52950D01*
X33732Y-52984D01*
X34086Y-52629D01*
X34086Y-52771D01*
X33802Y-53055D01*
X33836Y-53156D01*
X34062Y-53238D01*
X34302Y-53228D01*
X34478Y-53156D01*
X34512Y-53055D01*
X34512Y-55461D01*
X32539Y-55461D01*
X32539Y-54698D01*
X32535Y-54285D01*
X32384Y-53919D01*
X32238Y-53832D01*
X32207Y-53863D01*
X32207Y-52724D01*
X32197Y-52484D01*
X32124Y-52309D01*
X32023Y-52275D01*
X31952Y-52346D01*
X31952Y-52204D01*
X31918Y-52103D01*
X31693Y-52021D01*
X31452Y-52031D01*
X31277Y-52103D01*
X31243Y-52204D01*
X31598Y-52559D01*
X31952Y-52204D01*
X31952Y-52346D01*
X31669Y-52629D01*
X32023Y-52984D01*
X32124Y-52950D01*
X32207Y-52724D01*
X32207Y-53863D01*
X32167Y-53903D01*
X32167Y-53761D01*
X32080Y-53615D01*
X31952Y-53564D01*
X31952Y-53055D01*
X31598Y-52700D01*
X31527Y-52771D01*
X31527Y-52629D01*
X31173Y-52275D01*
X31072Y-52309D01*
X30989Y-52535D01*
X30999Y-52775D01*
X31072Y-52950D01*
X31173Y-52984D01*
X31527Y-52629D01*
X31527Y-52771D01*
X31243Y-53055D01*
X31277Y-53156D01*
X31503Y-53238D01*
X31743Y-53228D01*
X31918Y-53156D01*
X31952Y-53055D01*
X31952Y-53564D01*
X31698Y-53460D01*
X31285Y-53464D01*
X30919Y-53615D01*
X30832Y-53761D01*
X31500Y-54429D01*
X32167Y-53761D01*
X32167Y-53903D01*
X31570Y-54500D01*
X32238Y-55167D01*
X32384Y-55080D01*
X32539Y-54698D01*
X32539Y-55461D01*
X31894Y-55461D01*
X32080Y-55384D01*
X32167Y-55238D01*
X31500Y-54570D01*
X30832Y-55238D01*
X30919Y-55384D01*
X31110Y-55461D01*
X30538Y-55461D01*
X30538Y-54894D01*
X30615Y-55080D01*
X30761Y-55167D01*
X31429Y-54500D01*
X30761Y-53832D01*
X30615Y-53919D01*
X30538Y-54110D01*
X30538Y-49654D01*
X30548Y-49664D01*
X30622Y-49695D01*
X30701Y-49695D01*
X31685Y-49695D01*
X31759Y-49665D01*
X31815Y-49608D01*
X31845Y-49535D01*
X31846Y-49455D01*
X31846Y-48668D01*
X31815Y-48595D01*
X31759Y-48539D01*
X31685Y-48508D01*
X31606Y-48508D01*
X30622Y-48508D01*
X30548Y-48538D01*
X30538Y-48549D01*
X30538Y-46150D01*
X30548Y-46160D01*
X30622Y-46191D01*
X30701Y-46191D01*
X31685Y-46191D01*
X31759Y-46161D01*
X31815Y-46104D01*
X31845Y-46031D01*
X31846Y-45951D01*
X31846Y-45164D01*
X31815Y-45091D01*
X31759Y-45035D01*
X31685Y-45004D01*
X31606Y-45004D01*
X30622Y-45004D01*
X30548Y-45034D01*
X30538Y-45045D01*
X30538Y-44291D01*
X30599Y-44316D01*
X31087Y-44316D01*
X31150Y-44254D01*
X31150Y-43644D01*
X31142Y-43644D01*
X31142Y-43544D01*
X31150Y-43544D01*
X31150Y-42934D01*
X31087Y-42871D01*
X30599Y-42871D01*
X30538Y-42896D01*
X30538Y-39749D01*
X30608Y-39778D01*
X30688Y-39778D01*
X31790Y-39778D01*
X31864Y-39747D01*
X31920Y-39691D01*
X31951Y-39618D01*
X31951Y-39555D01*
X32850Y-39555D01*
X32850Y-39617D01*
X32880Y-39691D01*
X32936Y-39747D01*
X33010Y-39778D01*
X33090Y-39778D01*
X34192Y-39778D01*
X34265Y-39747D01*
X34322Y-39691D01*
X34352Y-39618D01*
X34352Y-39555D01*
X35902Y-39555D01*
X36847Y-39555D01*
X36847Y-39885D01*
X36877Y-39958D01*
X36933Y-40015D01*
X37007Y-40045D01*
X37086Y-40045D01*
X37992Y-40045D01*
X38065Y-40015D01*
X38122Y-39959D01*
X38152Y-39885D01*
X38152Y-39806D01*
X38152Y-38821D01*
X38122Y-38748D01*
X38066Y-38691D01*
X37992Y-38661D01*
X37913Y-38661D01*
X37279Y-38661D01*
X37252Y-38655D01*
X35902Y-38655D01*
X34352Y-38655D01*
X34352Y-38593D01*
X34322Y-38520D01*
X34266Y-38464D01*
X34192Y-38433D01*
X34113Y-38433D01*
X33010Y-38433D01*
X32937Y-38463D01*
X32880Y-38520D01*
X32850Y-38593D01*
X32850Y-38655D01*
X32539Y-38655D01*
X32539Y-37375D01*
X32535Y-36962D01*
X32384Y-36596D01*
X32238Y-36509D01*
X31570Y-37177D01*
X32238Y-37844D01*
X32384Y-37757D01*
X32539Y-37375D01*
X32539Y-38655D01*
X32167Y-38655D01*
X32167Y-37915D01*
X31500Y-37247D01*
X30832Y-37915D01*
X30919Y-38061D01*
X31301Y-38216D01*
X31714Y-38212D01*
X32080Y-38061D01*
X32167Y-37915D01*
X32167Y-38655D01*
X31951Y-38655D01*
X31951Y-38593D01*
X31920Y-38520D01*
X31864Y-38464D01*
X31791Y-38433D01*
X31711Y-38433D01*
X30609Y-38433D01*
X30538Y-38462D01*
X30538Y-37571D01*
X30615Y-37757D01*
X30761Y-37844D01*
X31429Y-37177D01*
X30761Y-36509D01*
X30615Y-36596D01*
X30538Y-36787D01*
X30538Y-36215D01*
X31105Y-36215D01*
X30919Y-36293D01*
X30832Y-36438D01*
X31500Y-37106D01*
X32167Y-36438D01*
X32080Y-36293D01*
X31889Y-36215D01*
X52365Y-36215D01*
X52179Y-36293D01*
X52092Y-36438D01*
X52759Y-37106D01*
X53427Y-36438D01*
X53340Y-36293D01*
X53149Y-36215D01*
X53721Y-36215D01*
X53721Y-36783D01*
X53643Y-36596D01*
X53498Y-36509D01*
X52830Y-37177D01*
X53498Y-37844D01*
X53643Y-37757D01*
X53721Y-37566D01*
X53721Y-48217D01*
X53576Y-48073D01*
X53495Y-48019D01*
X53469Y-48013D01*
X53470Y-47886D01*
X53421Y-47768D01*
X53360Y-47707D01*
X53400Y-47691D01*
X53456Y-47635D01*
X53486Y-47561D01*
X53487Y-47482D01*
X53487Y-47088D01*
X53456Y-47014D01*
X53441Y-47000D01*
X53456Y-46985D01*
X53486Y-46912D01*
X53487Y-46832D01*
X53487Y-46438D01*
X53456Y-46365D01*
X53427Y-46335D01*
X53427Y-37915D01*
X52759Y-37247D01*
X52689Y-37318D01*
X52689Y-37177D01*
X52021Y-36509D01*
X51875Y-36596D01*
X51720Y-36979D01*
X51724Y-37391D01*
X51875Y-37757D01*
X52021Y-37844D01*
X52689Y-37177D01*
X52689Y-37318D01*
X52092Y-37915D01*
X52179Y-38061D01*
X52561Y-38216D01*
X52974Y-38212D01*
X53340Y-38061D01*
X53427Y-37915D01*
X53427Y-46335D01*
X53400Y-46308D01*
X53350Y-46287D01*
X53350Y-45450D01*
X53330Y-45354D01*
X53276Y-45273D01*
X53050Y-45046D01*
X53050Y-44610D01*
X53019Y-44536D01*
X52963Y-44480D01*
X52889Y-44450D01*
X52810Y-44449D01*
X52565Y-44449D01*
X52757Y-44411D01*
X52919Y-44303D01*
X53027Y-44141D01*
X53065Y-43950D01*
X53027Y-43758D01*
X52919Y-43596D01*
X52757Y-43488D01*
X52687Y-43474D01*
X52806Y-43438D01*
X52974Y-43303D01*
X53077Y-43114D01*
X53083Y-43085D01*
X53034Y-43000D01*
X52300Y-43000D01*
X52300Y-43007D01*
X52200Y-43007D01*
X52200Y-43000D01*
X51465Y-43000D01*
X51416Y-43085D01*
X51422Y-43114D01*
X51525Y-43303D01*
X51693Y-43438D01*
X51812Y-43474D01*
X51742Y-43488D01*
X51580Y-43596D01*
X51578Y-43600D01*
X51450Y-43600D01*
X51449Y-43600D01*
X51316Y-43626D01*
X51202Y-43702D01*
X51202Y-43702D01*
X51202Y-43702D01*
X50052Y-44852D01*
X49976Y-44966D01*
X49950Y-45100D01*
X49950Y-45400D01*
X49976Y-45533D01*
X50052Y-45647D01*
X50166Y-45723D01*
X50300Y-45750D01*
X50433Y-45723D01*
X50547Y-45647D01*
X50623Y-45533D01*
X50650Y-45400D01*
X50650Y-45244D01*
X51587Y-44307D01*
X51742Y-44411D01*
X51934Y-44449D01*
X51610Y-44449D01*
X51536Y-44480D01*
X51480Y-44536D01*
X51450Y-44610D01*
X51449Y-44689D01*
X51449Y-45096D01*
X51323Y-45223D01*
X51323Y-45223D01*
X50746Y-45800D01*
X49283Y-45800D01*
X49271Y-45769D01*
X49131Y-45629D01*
X48949Y-45553D01*
X48751Y-45553D01*
X48663Y-45589D01*
X48719Y-45533D01*
X48750Y-45546D01*
X48948Y-45546D01*
X49130Y-45471D01*
X49270Y-45331D01*
X49346Y-45149D01*
X49346Y-44951D01*
X49283Y-44800D01*
X49374Y-44800D01*
X49470Y-44780D01*
X49551Y-44726D01*
X50306Y-43971D01*
X50576Y-43971D01*
X50650Y-43941D01*
X50706Y-43885D01*
X50736Y-43811D01*
X50737Y-43732D01*
X50737Y-43338D01*
X50706Y-43264D01*
X50691Y-43250D01*
X50706Y-43235D01*
X50736Y-43162D01*
X50737Y-43082D01*
X50737Y-42891D01*
X51428Y-42200D01*
X51511Y-42200D01*
X51580Y-42303D01*
X51742Y-42411D01*
X51812Y-42425D01*
X51693Y-42461D01*
X51525Y-42596D01*
X51422Y-42785D01*
X51416Y-42814D01*
X51465Y-42900D01*
X52200Y-42900D01*
X52200Y-42892D01*
X52300Y-42892D01*
X52300Y-42900D01*
X53034Y-42900D01*
X53083Y-42814D01*
X53077Y-42785D01*
X52974Y-42596D01*
X52806Y-42461D01*
X52687Y-42425D01*
X52757Y-42411D01*
X52919Y-42303D01*
X53027Y-42141D01*
X53065Y-41950D01*
X53027Y-41758D01*
X52919Y-41596D01*
X52757Y-41488D01*
X52565Y-41450D01*
X52757Y-41411D01*
X52919Y-41303D01*
X53027Y-41141D01*
X53065Y-40950D01*
X53027Y-40758D01*
X52919Y-40596D01*
X52757Y-40488D01*
X52565Y-40450D01*
X52757Y-40411D01*
X52919Y-40303D01*
X53027Y-40141D01*
X53065Y-39950D01*
X53027Y-39758D01*
X52919Y-39596D01*
X52757Y-39488D01*
X52565Y-39450D01*
X51934Y-39450D01*
X51742Y-39488D01*
X51580Y-39596D01*
X51472Y-39758D01*
X51434Y-39950D01*
X51472Y-40141D01*
X51580Y-40303D01*
X51742Y-40411D01*
X51934Y-40450D01*
X51742Y-40488D01*
X51580Y-40596D01*
X51511Y-40700D01*
X50575Y-40700D01*
X50479Y-40719D01*
X50398Y-40773D01*
X50393Y-40778D01*
X50123Y-40778D01*
X50049Y-40808D01*
X49993Y-40864D01*
X49963Y-40938D01*
X49962Y-41017D01*
X49962Y-41411D01*
X49993Y-41485D01*
X50008Y-41499D01*
X49993Y-41514D01*
X49963Y-41587D01*
X49962Y-41667D01*
X49962Y-41858D01*
X49473Y-42348D01*
X49419Y-42429D01*
X49400Y-42524D01*
X49400Y-43046D01*
X49346Y-43099D01*
X49346Y-42951D01*
X49271Y-42769D01*
X49131Y-42629D01*
X48949Y-42553D01*
X48751Y-42553D01*
X48720Y-42566D01*
X48663Y-42510D01*
X48750Y-42546D01*
X48948Y-42546D01*
X49130Y-42471D01*
X49270Y-42331D01*
X49346Y-42149D01*
X49346Y-41951D01*
X49271Y-41769D01*
X49131Y-41629D01*
X48949Y-41553D01*
X48751Y-41553D01*
X48720Y-41566D01*
X48663Y-41510D01*
X48750Y-41546D01*
X48948Y-41546D01*
X49130Y-41471D01*
X49270Y-41331D01*
X49346Y-41149D01*
X49346Y-40951D01*
X49271Y-40769D01*
X49131Y-40629D01*
X48949Y-40553D01*
X48751Y-40553D01*
X48720Y-40566D01*
X48663Y-40510D01*
X48750Y-40546D01*
X48948Y-40546D01*
X49130Y-40471D01*
X49270Y-40331D01*
X49346Y-40149D01*
X49346Y-39951D01*
X49271Y-39769D01*
X49131Y-39629D01*
X49100Y-39616D01*
X49100Y-39525D01*
X49080Y-39429D01*
X49080Y-39429D01*
X49026Y-39348D01*
X49026Y-39348D01*
X48776Y-39098D01*
X48695Y-39044D01*
X48600Y-39025D01*
X47400Y-39025D01*
X47304Y-39044D01*
X47223Y-39098D01*
X47223Y-39098D01*
X46021Y-40300D01*
X43850Y-40300D01*
X43849Y-40300D01*
X43830Y-40303D01*
X43754Y-40319D01*
X43673Y-40373D01*
X43673Y-40373D01*
X43446Y-40600D01*
X41597Y-40600D01*
X41615Y-40572D01*
X41650Y-40400D01*
X41650Y-40150D01*
X41650Y-39700D01*
X41660Y-39700D01*
X41660Y-39929D01*
X41690Y-40002D01*
X41746Y-40059D01*
X41820Y-40089D01*
X41899Y-40089D01*
X42746Y-40089D01*
X42819Y-40059D01*
X42876Y-40003D01*
X42906Y-39929D01*
X42906Y-39850D01*
X42906Y-39700D01*
X43153Y-39700D01*
X43325Y-39665D01*
X43471Y-39568D01*
X43809Y-39229D01*
X43925Y-39229D01*
X43998Y-39199D01*
X44054Y-39143D01*
X44085Y-39069D01*
X44085Y-38990D01*
X44085Y-38537D01*
X44055Y-38464D01*
X44026Y-38435D01*
X44027Y-38434D01*
X44097Y-38364D01*
X44135Y-38272D01*
X44135Y-37720D01*
X44097Y-37628D01*
X44027Y-37558D01*
X43935Y-37520D01*
X43835Y-37520D01*
X43712Y-37520D01*
X43650Y-37582D01*
X43650Y-37946D01*
X44072Y-37946D01*
X44135Y-37883D01*
X44135Y-37720D01*
X44135Y-38272D01*
X44135Y-38108D01*
X44072Y-38046D01*
X43650Y-38046D01*
X43650Y-38054D01*
X43550Y-38054D01*
X43550Y-38046D01*
X43550Y-37946D01*
X43550Y-37582D01*
X43487Y-37520D01*
X43364Y-37520D01*
X43264Y-37520D01*
X43172Y-37558D01*
X43102Y-37628D01*
X43064Y-37720D01*
X43064Y-37883D01*
X43127Y-37946D01*
X43550Y-37946D01*
X43550Y-38046D01*
X43127Y-38046D01*
X43064Y-38108D01*
X43064Y-38272D01*
X43102Y-38364D01*
X43172Y-38434D01*
X43173Y-38435D01*
X43145Y-38463D01*
X43114Y-38537D01*
X43114Y-38616D01*
X43114Y-38652D01*
X42967Y-38800D01*
X42906Y-38800D01*
X42906Y-38570D01*
X42876Y-38497D01*
X42820Y-38440D01*
X42746Y-38410D01*
X42667Y-38410D01*
X41820Y-38410D01*
X41747Y-38440D01*
X41690Y-38496D01*
X41660Y-38570D01*
X41660Y-38649D01*
X41660Y-38800D01*
X41225Y-38800D01*
X40673Y-38800D01*
X40673Y-38581D01*
X40673Y-38107D01*
X40635Y-38016D01*
X40565Y-37945D01*
X40473Y-37907D01*
X40373Y-37907D01*
X40112Y-37907D01*
X40050Y-37969D01*
X40050Y-38294D01*
X40610Y-38294D01*
X40673Y-38231D01*
X40673Y-38107D01*
X40673Y-38581D01*
X40673Y-38456D01*
X40610Y-38394D01*
X40050Y-38394D01*
X40050Y-38718D01*
X40112Y-38781D01*
X40373Y-38781D01*
X40473Y-38781D01*
X40565Y-38743D01*
X40635Y-38672D01*
X40673Y-38581D01*
X40673Y-38800D01*
X40000Y-38800D01*
X39950Y-38809D01*
X39950Y-38718D01*
X39950Y-38394D01*
X39950Y-38294D01*
X39950Y-37969D01*
X39887Y-37907D01*
X39626Y-37907D01*
X39526Y-37907D01*
X39434Y-37945D01*
X39364Y-38016D01*
X39326Y-38107D01*
X39326Y-38231D01*
X39389Y-38294D01*
X39950Y-38294D01*
X39950Y-38394D01*
X39389Y-38394D01*
X39326Y-38456D01*
X39326Y-38581D01*
X39364Y-38672D01*
X39434Y-38743D01*
X39526Y-38781D01*
X39626Y-38781D01*
X39887Y-38781D01*
X39950Y-38718D01*
X39950Y-38809D01*
X39827Y-38834D01*
X39784Y-38862D01*
X39537Y-38862D01*
X39463Y-38893D01*
X39407Y-38949D01*
X39376Y-39023D01*
X39376Y-39102D01*
X39376Y-39476D01*
X39407Y-39550D01*
X39463Y-39606D01*
X39536Y-39636D01*
X39616Y-39637D01*
X39784Y-39637D01*
X39827Y-39665D01*
X40000Y-39700D01*
X40750Y-39700D01*
X40750Y-40150D01*
X40750Y-40400D01*
X40784Y-40572D01*
X40802Y-40600D01*
X40027Y-40600D01*
X40172Y-40571D01*
X40215Y-40542D01*
X40462Y-40542D01*
X40536Y-40512D01*
X40592Y-40455D01*
X40623Y-40382D01*
X40623Y-40302D01*
X40623Y-39928D01*
X40592Y-39855D01*
X40536Y-39799D01*
X40463Y-39768D01*
X40383Y-39768D01*
X40215Y-39768D01*
X40172Y-39739D01*
X40000Y-39705D01*
X39444Y-39705D01*
X39335Y-39727D01*
X39335Y-39420D01*
X39297Y-39328D01*
X39227Y-39258D01*
X39135Y-39220D01*
X39035Y-39220D01*
X38912Y-39220D01*
X38850Y-39282D01*
X38850Y-39646D01*
X39272Y-39646D01*
X39335Y-39583D01*
X39335Y-39420D01*
X39335Y-39727D01*
X39272Y-39739D01*
X39262Y-39746D01*
X38850Y-39746D01*
X38850Y-39754D01*
X38750Y-39754D01*
X38750Y-39746D01*
X38750Y-39646D01*
X38750Y-39282D01*
X38687Y-39220D01*
X38564Y-39220D01*
X38464Y-39220D01*
X38372Y-39258D01*
X38302Y-39328D01*
X38264Y-39420D01*
X38264Y-39583D01*
X38327Y-39646D01*
X38750Y-39646D01*
X38750Y-39746D01*
X38327Y-39746D01*
X38264Y-39808D01*
X38264Y-39972D01*
X38302Y-40064D01*
X38372Y-40134D01*
X38373Y-40135D01*
X38345Y-40163D01*
X38314Y-40237D01*
X38314Y-40238D01*
X38117Y-40435D01*
X38066Y-40384D01*
X37992Y-40354D01*
X37913Y-40354D01*
X37007Y-40354D01*
X36934Y-40384D01*
X36877Y-40440D01*
X36847Y-40514D01*
X36847Y-40593D01*
X36847Y-40596D01*
X36752Y-40596D01*
X36752Y-40521D01*
X36722Y-40448D01*
X36666Y-40391D01*
X36592Y-40361D01*
X36513Y-40361D01*
X35607Y-40361D01*
X35534Y-40391D01*
X35477Y-40447D01*
X35447Y-40521D01*
X35447Y-40601D01*
X35447Y-41585D01*
X35477Y-41658D01*
X35533Y-41715D01*
X35607Y-41745D01*
X35686Y-41745D01*
X36592Y-41745D01*
X36665Y-41715D01*
X36722Y-41659D01*
X36752Y-41585D01*
X36752Y-41506D01*
X36752Y-41496D01*
X36847Y-41496D01*
X36847Y-41578D01*
X36877Y-41651D01*
X36933Y-41708D01*
X37007Y-41738D01*
X37086Y-41738D01*
X37992Y-41738D01*
X38065Y-41708D01*
X38122Y-41652D01*
X38152Y-41578D01*
X38152Y-41498D01*
X38152Y-41494D01*
X38315Y-41462D01*
X38461Y-41364D01*
X38872Y-40953D01*
X39017Y-40953D01*
X38846Y-41125D01*
X38825Y-41125D01*
X38824Y-41125D01*
X38805Y-41128D01*
X38729Y-41144D01*
X38648Y-41198D01*
X38648Y-41198D01*
X38348Y-41498D01*
X38294Y-41579D01*
X38275Y-41675D01*
X38275Y-41825D01*
X38294Y-41920D01*
X38348Y-42001D01*
X38354Y-42008D01*
X38354Y-42038D01*
X38403Y-42156D01*
X38471Y-42224D01*
X38173Y-42523D01*
X38119Y-42604D01*
X38100Y-42700D01*
X38100Y-43131D01*
X37475Y-43131D01*
X37402Y-43162D01*
X37345Y-43218D01*
X37315Y-43291D01*
X37315Y-43371D01*
X37315Y-43607D01*
X37345Y-43681D01*
X37364Y-43699D01*
X37345Y-43718D01*
X37315Y-43791D01*
X37315Y-43871D01*
X37315Y-44107D01*
X37345Y-44181D01*
X37364Y-44199D01*
X37345Y-44218D01*
X37315Y-44291D01*
X37315Y-44371D01*
X37315Y-44607D01*
X37345Y-44681D01*
X37364Y-44699D01*
X37345Y-44718D01*
X37315Y-44791D01*
X37315Y-44871D01*
X37315Y-45107D01*
X37345Y-45181D01*
X37364Y-45199D01*
X37345Y-45218D01*
X37315Y-45291D01*
X37315Y-45371D01*
X37315Y-45607D01*
X37345Y-45681D01*
X37364Y-45699D01*
X37345Y-45718D01*
X37315Y-45791D01*
X37315Y-45871D01*
X37315Y-45980D01*
X37187Y-45852D01*
X37187Y-45688D01*
X37156Y-45614D01*
X37141Y-45600D01*
X37156Y-45585D01*
X37186Y-45512D01*
X37187Y-45432D01*
X37187Y-45038D01*
X37156Y-44965D01*
X37125Y-44934D01*
X37179Y-44879D01*
X37193Y-44858D01*
X37221Y-44831D01*
X37235Y-44795D01*
X37250Y-44774D01*
X37255Y-44749D01*
X37269Y-44713D01*
X37269Y-44675D01*
X37275Y-44650D01*
X37270Y-44624D01*
X37270Y-44586D01*
X37255Y-44550D01*
X37250Y-44525D01*
X37236Y-44504D01*
X37221Y-44468D01*
X37194Y-44441D01*
X37179Y-44420D01*
X37158Y-44406D01*
X37131Y-44378D01*
X37095Y-44364D01*
X37074Y-44349D01*
X37049Y-44344D01*
X37013Y-44330D01*
X36975Y-44330D01*
X36950Y-44325D01*
X36924Y-44329D01*
X36886Y-44329D01*
X36850Y-44344D01*
X36825Y-44349D01*
X36804Y-44363D01*
X36768Y-44378D01*
X36752Y-44394D01*
X36752Y-43198D01*
X36752Y-42214D01*
X36722Y-42141D01*
X36666Y-42084D01*
X36592Y-42054D01*
X36513Y-42054D01*
X35607Y-42054D01*
X35534Y-42084D01*
X35477Y-42140D01*
X35447Y-42214D01*
X35447Y-42293D01*
X35447Y-42804D01*
X35434Y-42824D01*
X35400Y-42996D01*
X35400Y-43950D01*
X35434Y-44122D01*
X35531Y-44268D01*
X35677Y-44365D01*
X35850Y-44400D01*
X36100Y-44400D01*
X36272Y-44365D01*
X36418Y-44268D01*
X36515Y-44122D01*
X36550Y-43950D01*
X36550Y-43438D01*
X36592Y-43438D01*
X36665Y-43408D01*
X36722Y-43352D01*
X36752Y-43278D01*
X36752Y-43198D01*
X36752Y-44394D01*
X36741Y-44405D01*
X36720Y-44420D01*
X36570Y-44570D01*
X36499Y-44675D01*
X36475Y-44800D01*
X36475Y-44933D01*
X36443Y-44964D01*
X36413Y-45038D01*
X36412Y-45117D01*
X36412Y-45511D01*
X36443Y-45585D01*
X36457Y-45599D01*
X36354Y-45599D01*
X36387Y-45521D01*
X36387Y-45028D01*
X36349Y-44936D01*
X36278Y-44866D01*
X36186Y-44828D01*
X36087Y-44828D01*
X36062Y-44828D01*
X36000Y-44890D01*
X36000Y-45225D01*
X36324Y-45225D01*
X36387Y-45162D01*
X36387Y-45028D01*
X36387Y-45521D01*
X36387Y-45387D01*
X36324Y-45325D01*
X36000Y-45325D01*
X36000Y-45333D01*
X35900Y-45333D01*
X35900Y-45325D01*
X35900Y-45225D01*
X35900Y-44890D01*
X35837Y-44828D01*
X35812Y-44828D01*
X35713Y-44828D01*
X35621Y-44866D01*
X35550Y-44936D01*
X35512Y-45028D01*
X35512Y-45162D01*
X35575Y-45225D01*
X35900Y-45225D01*
X35900Y-45325D01*
X35575Y-45325D01*
X35512Y-45387D01*
X35512Y-45521D01*
X35550Y-45613D01*
X35581Y-45643D01*
X35563Y-45687D01*
X35562Y-45767D01*
X35562Y-46161D01*
X35593Y-46234D01*
X35608Y-46250D01*
X35087Y-46250D01*
X35087Y-45878D01*
X35049Y-45786D01*
X34978Y-45716D01*
X34886Y-45678D01*
X34787Y-45678D01*
X34762Y-45678D01*
X34700Y-45740D01*
X34700Y-46075D01*
X35024Y-46075D01*
X35087Y-46012D01*
X35087Y-45878D01*
X35087Y-46250D01*
X35087Y-46250D01*
X35087Y-46237D01*
X35024Y-46175D01*
X34700Y-46175D01*
X34700Y-46183D01*
X34600Y-46183D01*
X34600Y-46175D01*
X34600Y-46075D01*
X34600Y-45740D01*
X34537Y-45678D01*
X34512Y-45678D01*
X34413Y-45678D01*
X34402Y-45682D01*
X34402Y-44017D01*
X34402Y-43171D01*
X34402Y-43071D01*
X34364Y-42979D01*
X34294Y-42909D01*
X34202Y-42871D01*
X33714Y-42871D01*
X33651Y-42934D01*
X33651Y-43544D01*
X34340Y-43544D01*
X34402Y-43481D01*
X34402Y-43171D01*
X34402Y-44017D01*
X34402Y-43706D01*
X34340Y-43644D01*
X33651Y-43644D01*
X33651Y-44254D01*
X33714Y-44316D01*
X34202Y-44316D01*
X34294Y-44278D01*
X34364Y-44208D01*
X34402Y-44116D01*
X34402Y-44017D01*
X34402Y-45682D01*
X34321Y-45716D01*
X34250Y-45786D01*
X34212Y-45878D01*
X34212Y-46012D01*
X34275Y-46075D01*
X34600Y-46075D01*
X34600Y-46175D01*
X34275Y-46175D01*
X34212Y-46237D01*
X34212Y-46285D01*
X33891Y-46438D01*
X33850Y-46421D01*
X33771Y-46421D01*
X33725Y-46421D01*
X33725Y-46400D01*
X33700Y-46275D01*
X33644Y-46191D01*
X33850Y-46191D01*
X33924Y-46161D01*
X33980Y-46104D01*
X34010Y-46031D01*
X34011Y-45951D01*
X34011Y-45164D01*
X33980Y-45091D01*
X33924Y-45035D01*
X33850Y-45004D01*
X33771Y-45004D01*
X33551Y-45004D01*
X33551Y-44254D01*
X33551Y-43644D01*
X33551Y-43544D01*
X33551Y-42934D01*
X33526Y-42908D01*
X33526Y-41240D01*
X33441Y-41036D01*
X33286Y-40880D01*
X33082Y-40795D01*
X32861Y-40795D01*
X32658Y-40879D01*
X32501Y-41035D01*
X32417Y-41239D01*
X32417Y-41459D01*
X32501Y-41663D01*
X32657Y-41819D01*
X32860Y-41904D01*
X33081Y-41904D01*
X33285Y-41820D01*
X33441Y-41664D01*
X33525Y-41460D01*
X33526Y-41240D01*
X33526Y-42908D01*
X33489Y-42871D01*
X33000Y-42871D01*
X32908Y-42909D01*
X32838Y-42979D01*
X32800Y-43071D01*
X32800Y-43171D01*
X32800Y-43481D01*
X32862Y-43544D01*
X33551Y-43544D01*
X33551Y-43644D01*
X32862Y-43644D01*
X32800Y-43706D01*
X32800Y-44017D01*
X32800Y-44116D01*
X32838Y-44208D01*
X32908Y-44278D01*
X33000Y-44316D01*
X33489Y-44316D01*
X33551Y-44254D01*
X33551Y-45004D01*
X32787Y-45004D01*
X32713Y-45034D01*
X32657Y-45091D01*
X32627Y-45164D01*
X32626Y-45244D01*
X32626Y-46031D01*
X32657Y-46104D01*
X32713Y-46160D01*
X32787Y-46191D01*
X32866Y-46191D01*
X32905Y-46191D01*
X32878Y-46218D01*
X32864Y-46254D01*
X32849Y-46275D01*
X32844Y-46300D01*
X32830Y-46336D01*
X32830Y-46374D01*
X32825Y-46400D01*
X32825Y-46438D01*
X32791Y-46451D01*
X32735Y-46508D01*
X32712Y-46564D01*
X32712Y-46409D01*
X32654Y-46270D01*
X32548Y-46164D01*
X32410Y-46107D01*
X32260Y-46106D01*
X32121Y-46164D01*
X32015Y-46270D01*
X32001Y-46304D01*
X32001Y-44017D01*
X32001Y-43171D01*
X32001Y-43071D01*
X31962Y-42979D01*
X31892Y-42909D01*
X31800Y-42871D01*
X31715Y-42871D01*
X31715Y-41248D01*
X31636Y-41058D01*
X31492Y-40913D01*
X31302Y-40835D01*
X31098Y-40834D01*
X30908Y-40913D01*
X30763Y-41057D01*
X30685Y-41247D01*
X30684Y-41451D01*
X30763Y-41641D01*
X30907Y-41786D01*
X31097Y-41864D01*
X31301Y-41865D01*
X31491Y-41786D01*
X31636Y-41642D01*
X31714Y-41452D01*
X31715Y-41248D01*
X31715Y-42871D01*
X31312Y-42871D01*
X31250Y-42934D01*
X31250Y-43544D01*
X31938Y-43544D01*
X32001Y-43481D01*
X32001Y-43171D01*
X32001Y-44017D01*
X32001Y-43706D01*
X31938Y-43644D01*
X31250Y-43644D01*
X31250Y-44254D01*
X31312Y-44316D01*
X31800Y-44316D01*
X31892Y-44278D01*
X31962Y-44208D01*
X32001Y-44116D01*
X32001Y-44017D01*
X32001Y-46304D01*
X31958Y-46408D01*
X31957Y-46558D01*
X32015Y-46697D01*
X32121Y-46803D01*
X32259Y-46860D01*
X32409Y-46861D01*
X32548Y-46803D01*
X32654Y-46697D01*
X32711Y-46559D01*
X32712Y-46409D01*
X32712Y-46564D01*
X32705Y-46581D01*
X32704Y-46661D01*
X32704Y-46858D01*
X32712Y-46877D01*
X32705Y-46896D01*
X32704Y-46976D01*
X32704Y-47173D01*
X32712Y-47192D01*
X32705Y-47211D01*
X32704Y-47291D01*
X32704Y-47488D01*
X32712Y-47507D01*
X32705Y-47526D01*
X32704Y-47606D01*
X32704Y-47727D01*
X32693Y-47739D01*
X32655Y-47831D01*
X32655Y-47868D01*
X32717Y-47930D01*
X32789Y-47930D01*
X32791Y-47932D01*
X32865Y-47963D01*
X32944Y-47963D01*
X33850Y-47963D01*
X33923Y-47933D01*
X34214Y-48025D01*
X34212Y-48028D01*
X34212Y-48162D01*
X34275Y-48224D01*
X34600Y-48224D01*
X34600Y-48216D01*
X34700Y-48216D01*
X34700Y-48224D01*
X35024Y-48224D01*
X35087Y-48162D01*
X35087Y-48028D01*
X35049Y-47936D01*
X35039Y-47927D01*
X35085Y-47919D01*
X35086Y-47919D01*
X35213Y-47920D01*
X35300Y-47883D01*
X35348Y-47875D01*
X35358Y-47900D01*
X35414Y-47956D01*
X35488Y-47986D01*
X35567Y-47987D01*
X35961Y-47987D01*
X36035Y-47956D01*
X36049Y-47941D01*
X36064Y-47956D01*
X36137Y-47986D01*
X36217Y-47987D01*
X36611Y-47987D01*
X36684Y-47956D01*
X36741Y-47900D01*
X36762Y-47850D01*
X37277Y-47850D01*
X37327Y-47900D01*
X37849Y-47900D01*
X37849Y-47892D01*
X37949Y-47892D01*
X37949Y-47900D01*
X37957Y-47900D01*
X37957Y-48000D01*
X37949Y-48000D01*
X37949Y-48007D01*
X37849Y-48007D01*
X37849Y-48000D01*
X37327Y-48000D01*
X37297Y-48030D01*
X37229Y-48044D01*
X37148Y-48098D01*
X36996Y-48250D01*
X36200Y-48250D01*
X36104Y-48269D01*
X36071Y-48290D01*
X36023Y-48323D01*
X36023Y-48323D01*
X35854Y-48492D01*
X35828Y-48466D01*
X35736Y-48428D01*
X35637Y-48428D01*
X35612Y-48428D01*
X35550Y-48490D01*
X35550Y-48825D01*
X35557Y-48825D01*
X35557Y-48925D01*
X35550Y-48925D01*
X35550Y-48933D01*
X35450Y-48933D01*
X35450Y-48925D01*
X35450Y-48825D01*
X35450Y-48490D01*
X35387Y-48428D01*
X35362Y-48428D01*
X35263Y-48428D01*
X35171Y-48466D01*
X35100Y-48536D01*
X35087Y-48570D01*
X35087Y-48521D01*
X35087Y-48387D01*
X35024Y-48324D01*
X34700Y-48324D01*
X34700Y-48659D01*
X34762Y-48721D01*
X34787Y-48721D01*
X34886Y-48721D01*
X34978Y-48683D01*
X35049Y-48613D01*
X35087Y-48521D01*
X35087Y-48570D01*
X35062Y-48628D01*
X35062Y-48762D01*
X35125Y-48825D01*
X35450Y-48825D01*
X35450Y-48925D01*
X35125Y-48925D01*
X35062Y-48987D01*
X35062Y-49121D01*
X35100Y-49213D01*
X35131Y-49243D01*
X35113Y-49287D01*
X35112Y-49367D01*
X35112Y-49558D01*
X35021Y-49650D01*
X34650Y-49650D01*
X34600Y-49659D01*
X34600Y-48659D01*
X34600Y-48324D01*
X34275Y-48324D01*
X34212Y-48387D01*
X34212Y-48521D01*
X34250Y-48613D01*
X34321Y-48683D01*
X34413Y-48721D01*
X34512Y-48721D01*
X34537Y-48721D01*
X34600Y-48659D01*
X34600Y-49659D01*
X34554Y-49669D01*
X34473Y-49723D01*
X34060Y-50135D01*
X34060Y-48091D01*
X33998Y-48029D01*
X33408Y-48029D01*
X33408Y-48266D01*
X33470Y-48328D01*
X33860Y-48328D01*
X33952Y-48290D01*
X34022Y-48220D01*
X34060Y-48128D01*
X34060Y-48091D01*
X34060Y-50135D01*
X34011Y-50185D01*
X34011Y-49455D01*
X34011Y-48668D01*
X33980Y-48595D01*
X33924Y-48539D01*
X33850Y-48508D01*
X33771Y-48508D01*
X33308Y-48508D01*
X33308Y-48266D01*
X33308Y-48029D01*
X32717Y-48029D01*
X32680Y-48065D01*
X32654Y-48002D01*
X32548Y-47896D01*
X32410Y-47839D01*
X32260Y-47838D01*
X32121Y-47896D01*
X32015Y-48002D01*
X31958Y-48140D01*
X31957Y-48290D01*
X32015Y-48429D01*
X32121Y-48535D01*
X32259Y-48592D01*
X32409Y-48593D01*
X32548Y-48535D01*
X32654Y-48429D01*
X32711Y-48291D01*
X32711Y-48239D01*
X32763Y-48290D01*
X32855Y-48328D01*
X33245Y-48328D01*
X33308Y-48266D01*
X33308Y-48508D01*
X32787Y-48508D01*
X32713Y-48538D01*
X32657Y-48595D01*
X32627Y-48668D01*
X32626Y-48748D01*
X32626Y-49535D01*
X32657Y-49608D01*
X32713Y-49664D01*
X32787Y-49695D01*
X32866Y-49695D01*
X33850Y-49695D01*
X33924Y-49665D01*
X33980Y-49608D01*
X34010Y-49535D01*
X34011Y-49455D01*
X34011Y-50185D01*
X33980Y-50215D01*
X33926Y-50296D01*
X33914Y-50359D01*
X33843Y-50388D01*
X33687Y-50543D01*
X33661Y-50608D01*
X32094Y-50608D01*
X32068Y-50544D01*
X31912Y-50388D01*
X31709Y-50304D01*
X31488Y-50303D01*
X31284Y-50388D01*
X31128Y-50543D01*
X31044Y-50747D01*
X31043Y-50968D01*
X31128Y-51171D01*
X31284Y-51327D01*
X31487Y-51412D01*
X31708Y-51412D01*
X31912Y-51328D01*
X32068Y-51172D01*
X32094Y-51108D01*
X33660Y-51108D01*
X33687Y-51171D01*
X33843Y-51327D01*
X34046Y-51412D01*
X34267Y-51412D01*
X34471Y-51328D01*
X34627Y-51172D01*
X34711Y-50969D01*
X34711Y-50748D01*
X34627Y-50544D01*
X34493Y-50410D01*
X34753Y-50150D01*
X35124Y-50150D01*
X35220Y-50130D01*
X35301Y-50076D01*
X35456Y-49921D01*
X35726Y-49921D01*
X35800Y-49891D01*
X35856Y-49835D01*
X35886Y-49761D01*
X35886Y-49750D01*
X35920Y-49750D01*
X35929Y-49755D01*
X35929Y-49755D01*
X36024Y-49774D01*
X36118Y-49774D01*
X36143Y-49834D01*
X36199Y-49891D01*
X36273Y-49921D01*
X36352Y-49921D01*
X36725Y-49921D01*
X36725Y-50608D01*
X36425Y-50608D01*
X36399Y-50544D01*
X36243Y-50388D01*
X36039Y-50304D01*
X35819Y-50303D01*
X35615Y-50388D01*
X35459Y-50543D01*
X35374Y-50747D01*
X35374Y-50968D01*
X35458Y-51171D01*
X35614Y-51327D01*
X35818Y-51412D01*
X36038Y-51412D01*
X36242Y-51328D01*
X36398Y-51172D01*
X36425Y-51108D01*
X36975Y-51108D01*
X37275Y-51108D01*
X37991Y-51108D01*
X38017Y-51171D01*
X38173Y-51327D01*
X38377Y-51412D01*
X38597Y-51412D01*
X38801Y-51328D01*
X38957Y-51172D01*
X39042Y-50969D01*
X39042Y-50748D01*
X38958Y-50544D01*
X38802Y-50388D01*
X38598Y-50304D01*
X38378Y-50303D01*
X38174Y-50388D01*
X38018Y-50543D01*
X37991Y-50608D01*
X37950Y-50608D01*
X37950Y-49999D01*
X37950Y-49675D01*
X37615Y-49675D01*
X37553Y-49737D01*
X37553Y-49762D01*
X37553Y-49861D01*
X37591Y-49953D01*
X37661Y-50024D01*
X37753Y-50062D01*
X37887Y-50062D01*
X37950Y-49999D01*
X37950Y-50608D01*
X37275Y-50608D01*
X37225Y-50608D01*
X37225Y-49428D01*
X37300Y-49353D01*
X37368Y-49421D01*
X37486Y-49469D01*
X37553Y-49470D01*
X37553Y-49487D01*
X37553Y-49512D01*
X37615Y-49575D01*
X37950Y-49575D01*
X37950Y-49567D01*
X38050Y-49567D01*
X38050Y-49575D01*
X38058Y-49575D01*
X38058Y-49675D01*
X38050Y-49675D01*
X38050Y-49999D01*
X38112Y-50062D01*
X38246Y-50062D01*
X38338Y-50024D01*
X38368Y-49993D01*
X38412Y-50011D01*
X38492Y-50012D01*
X38886Y-50012D01*
X38959Y-49981D01*
X39016Y-49925D01*
X39046Y-49851D01*
X39046Y-49772D01*
X39046Y-49398D01*
X39016Y-49324D01*
X38960Y-49268D01*
X38886Y-49238D01*
X38875Y-49238D01*
X38875Y-49227D01*
X38896Y-49206D01*
X38944Y-49088D01*
X38945Y-48975D01*
X39062Y-48975D01*
X39062Y-49062D01*
X39125Y-49125D01*
X39450Y-49125D01*
X39450Y-49117D01*
X39550Y-49117D01*
X39550Y-49125D01*
X39874Y-49125D01*
X39935Y-49064D01*
X40012Y-49141D01*
X40012Y-49411D01*
X40043Y-49485D01*
X40058Y-49499D01*
X40043Y-49514D01*
X40013Y-49587D01*
X40012Y-49667D01*
X40012Y-50061D01*
X40043Y-50134D01*
X40099Y-50191D01*
X40150Y-50212D01*
X40150Y-50487D01*
X40099Y-50508D01*
X40043Y-50564D01*
X40013Y-50638D01*
X40012Y-50717D01*
X40012Y-51111D01*
X40039Y-51174D01*
X39860Y-51174D01*
X39886Y-51112D01*
X39887Y-51032D01*
X39887Y-50638D01*
X39856Y-50565D01*
X39800Y-50508D01*
X39750Y-50487D01*
X39750Y-50212D01*
X39800Y-50191D01*
X39856Y-50135D01*
X39886Y-50061D01*
X39887Y-49982D01*
X39887Y-49588D01*
X39868Y-49543D01*
X39899Y-49513D01*
X39937Y-49421D01*
X39937Y-49287D01*
X39874Y-49225D01*
X39550Y-49225D01*
X39550Y-49233D01*
X39450Y-49233D01*
X39450Y-49225D01*
X39125Y-49225D01*
X39062Y-49287D01*
X39062Y-49421D01*
X39100Y-49513D01*
X39131Y-49543D01*
X39113Y-49587D01*
X39112Y-49667D01*
X39112Y-50061D01*
X39143Y-50134D01*
X39199Y-50191D01*
X39250Y-50212D01*
X39250Y-50487D01*
X39199Y-50508D01*
X39143Y-50564D01*
X39113Y-50638D01*
X39112Y-50717D01*
X39112Y-51111D01*
X39143Y-51185D01*
X39158Y-51199D01*
X39143Y-51214D01*
X39113Y-51287D01*
X39112Y-51367D01*
X39112Y-51761D01*
X39143Y-51834D01*
X39199Y-51891D01*
X39273Y-51921D01*
X39352Y-51921D01*
X39726Y-51921D01*
X39800Y-51891D01*
X39816Y-51874D01*
X40083Y-51874D01*
X40099Y-51891D01*
X40173Y-51921D01*
X40252Y-51921D01*
X40626Y-51921D01*
X40700Y-51891D01*
X40716Y-51874D01*
X40983Y-51874D01*
X40999Y-51891D01*
X41073Y-51921D01*
X41152Y-51921D01*
X41526Y-51921D01*
X41600Y-51891D01*
X41616Y-51874D01*
X41883Y-51874D01*
X41899Y-51891D01*
X41973Y-51921D01*
X42052Y-51921D01*
X42426Y-51921D01*
X42500Y-51891D01*
X42516Y-51874D01*
X42783Y-51874D01*
X42799Y-51891D01*
X42873Y-51921D01*
X42952Y-51921D01*
X43326Y-51921D01*
X43400Y-51891D01*
X43427Y-51864D01*
X43509Y-51848D01*
X43509Y-51848D01*
X43622Y-51772D01*
X43897Y-51497D01*
X43973Y-51383D01*
X43973Y-51383D01*
X44000Y-51250D01*
X44000Y-49994D01*
X44247Y-49747D01*
X44247Y-49747D01*
X44247Y-49747D01*
X44323Y-49633D01*
X44349Y-49500D01*
X44350Y-49500D01*
X44350Y-48874D01*
X45379Y-48874D01*
X46652Y-50147D01*
X46652Y-50147D01*
X46740Y-50206D01*
X46473Y-50473D01*
X46419Y-50554D01*
X46400Y-50650D01*
X46400Y-50767D01*
X46246Y-50703D01*
X46037Y-50703D01*
X45900Y-50760D01*
X45900Y-50500D01*
X45880Y-50404D01*
X45880Y-50404D01*
X45826Y-50323D01*
X45826Y-50323D01*
X45576Y-50073D01*
X45495Y-50019D01*
X45400Y-50000D01*
X45252Y-50000D01*
X45231Y-49978D01*
X45113Y-49930D01*
X44986Y-49929D01*
X44868Y-49978D01*
X44778Y-50068D01*
X44730Y-50186D01*
X44729Y-50313D01*
X44778Y-50431D01*
X44868Y-50521D01*
X44986Y-50569D01*
X45113Y-50570D01*
X45231Y-50521D01*
X45252Y-50500D01*
X45296Y-50500D01*
X45400Y-50603D01*
X45400Y-50767D01*
X45246Y-50703D01*
X45037Y-50703D01*
X44844Y-50783D01*
X44696Y-50930D01*
X44616Y-51123D01*
X44616Y-51332D01*
X44696Y-51525D01*
X44843Y-51673D01*
X45036Y-51753D01*
X45245Y-51753D01*
X45400Y-51689D01*
X45400Y-53703D01*
X44777Y-53703D01*
X44703Y-53733D01*
X44647Y-53789D01*
X44616Y-53863D01*
X44616Y-53942D01*
X44616Y-54592D01*
X44647Y-54666D01*
X44703Y-54722D01*
X44776Y-54753D01*
X44856Y-54753D01*
X44894Y-54753D01*
X44910Y-54837D01*
X44964Y-54918D01*
X44983Y-54936D01*
X44983Y-54936D01*
X45223Y-55176D01*
X45304Y-55230D01*
X45400Y-55250D01*
X50650Y-55250D01*
X50745Y-55230D01*
X50826Y-55176D01*
X51376Y-54626D01*
X51430Y-54545D01*
X51430Y-54545D01*
X51450Y-54450D01*
X51450Y-54203D01*
X53721Y-51932D01*
X53721Y-54105D01*
X53643Y-53919D01*
X53498Y-53832D01*
X53427Y-53903D01*
X53427Y-53761D01*
X53340Y-53615D01*
X52957Y-53460D01*
X52545Y-53464D01*
X52179Y-53615D01*
X52092Y-53761D01*
X52759Y-54429D01*
X53427Y-53761D01*
X53427Y-53903D01*
X52830Y-54500D01*
X53498Y-55167D01*
X53643Y-55080D01*
X53721Y-54889D01*
X53721Y-55461D01*
X53721Y-55461D01*
G37*
G54D33*
X53721Y-55461D02*
X53153Y-55461D01*
X53340Y-55384D01*
X53427Y-55238D01*
X52759Y-54570D01*
X52689Y-54641D01*
X52689Y-54500D01*
X52021Y-53832D01*
X51875Y-53919D01*
X51720Y-54301D01*
X51724Y-54714D01*
X51875Y-55080D01*
X52021Y-55167D01*
X52689Y-54500D01*
X52689Y-54641D01*
X52092Y-55238D01*
X52179Y-55384D01*
X52370Y-55461D01*
X39097Y-55461D01*
X39097Y-52724D01*
X39086Y-52484D01*
X39014Y-52309D01*
X38913Y-52275D01*
X38842Y-52346D01*
X38842Y-52204D01*
X38808Y-52103D01*
X38582Y-52021D01*
X38342Y-52031D01*
X38167Y-52103D01*
X38133Y-52204D01*
X38488Y-52559D01*
X38842Y-52204D01*
X38842Y-52346D01*
X38558Y-52629D01*
X38913Y-52984D01*
X39014Y-52950D01*
X39097Y-52724D01*
X39097Y-55461D01*
X38842Y-55461D01*
X38842Y-53055D01*
X38488Y-52700D01*
X38417Y-52771D01*
X38417Y-52629D01*
X38062Y-52275D01*
X37961Y-52309D01*
X37879Y-52535D01*
X37889Y-52775D01*
X37961Y-52950D01*
X38062Y-52984D01*
X38417Y-52629D01*
X38417Y-52771D01*
X38133Y-53055D01*
X38167Y-53156D01*
X38393Y-53238D01*
X38633Y-53228D01*
X38808Y-53156D01*
X38842Y-53055D01*
X38842Y-55461D01*
X36537Y-55461D01*
X36537Y-52724D01*
X36527Y-52484D01*
X36455Y-52309D01*
X36354Y-52275D01*
X36283Y-52346D01*
X36283Y-52204D01*
X36249Y-52103D01*
X36023Y-52021D01*
X35783Y-52031D01*
X35608Y-52103D01*
X35574Y-52204D01*
X35929Y-52559D01*
X36283Y-52204D01*
X36283Y-52346D01*
X35999Y-52629D01*
X36354Y-52984D01*
X36455Y-52950D01*
X36537Y-52724D01*
X36537Y-55461D01*
X36283Y-55461D01*
X36283Y-53055D01*
X35929Y-52700D01*
X35858Y-52771D01*
X35858Y-52629D01*
X35503Y-52275D01*
X35402Y-52309D01*
X35320Y-52535D01*
X35330Y-52775D01*
X35402Y-52950D01*
X35503Y-52984D01*
X35858Y-52629D01*
X35858Y-52771D01*
X35574Y-53055D01*
X35608Y-53156D01*
X35834Y-53238D01*
X36074Y-53228D01*
X36249Y-53156D01*
X36283Y-53055D01*
X36283Y-55461D01*
X34766Y-55461D01*
X34766Y-52724D01*
X34756Y-52484D01*
X34683Y-52309D01*
X34582Y-52275D01*
X34512Y-52346D01*
X34512Y-52204D01*
X34478Y-52103D01*
X34252Y-52021D01*
X34012Y-52031D01*
X33836Y-52103D01*
X33802Y-52204D01*
X34157Y-52559D01*
X34512Y-52204D01*
X34512Y-52346D01*
X34228Y-52629D01*
X34582Y-52984D01*
X34683Y-52950D01*
X34766Y-52724D01*
X34766Y-55461D01*
X34512Y-55461D01*
X34512Y-53055D01*
X34157Y-52700D01*
X34086Y-52771D01*
X34086Y-52629D01*
X33732Y-52275D01*
X33631Y-52309D01*
X33548Y-52535D01*
X33558Y-52775D01*
X33631Y-52950D01*
X33732Y-52984D01*
X34086Y-52629D01*
X34086Y-52771D01*
X33802Y-53055D01*
X33836Y-53156D01*
X34062Y-53238D01*
X34302Y-53228D01*
X34478Y-53156D01*
X34512Y-53055D01*
X34512Y-55461D01*
X32539Y-55461D01*
X32539Y-54698D01*
X32535Y-54285D01*
X32384Y-53919D01*
X32238Y-53832D01*
X32207Y-53863D01*
X32207Y-52724D01*
X32197Y-52484D01*
X32124Y-52309D01*
X32023Y-52275D01*
X31952Y-52346D01*
X31952Y-52204D01*
X31918Y-52103D01*
X31693Y-52021D01*
X31452Y-52031D01*
X31277Y-52103D01*
X31243Y-52204D01*
X31598Y-52559D01*
X31952Y-52204D01*
X31952Y-52346D01*
X31669Y-52629D01*
X32023Y-52984D01*
X32124Y-52950D01*
X32207Y-52724D01*
X32207Y-53863D01*
X32167Y-53903D01*
X32167Y-53761D01*
X32080Y-53615D01*
X31952Y-53564D01*
X31952Y-53055D01*
X31598Y-52700D01*
X31527Y-52771D01*
X31527Y-52629D01*
X31173Y-52275D01*
X31072Y-52309D01*
X30989Y-52535D01*
X30999Y-52775D01*
X31072Y-52950D01*
X31173Y-52984D01*
X31527Y-52629D01*
X31527Y-52771D01*
X31243Y-53055D01*
X31277Y-53156D01*
X31503Y-53238D01*
X31743Y-53228D01*
X31918Y-53156D01*
X31952Y-53055D01*
X31952Y-53564D01*
X31698Y-53460D01*
X31285Y-53464D01*
X30919Y-53615D01*
X30832Y-53761D01*
X31500Y-54429D01*
X32167Y-53761D01*
X32167Y-53903D01*
X31570Y-54500D01*
X32238Y-55167D01*
X32384Y-55080D01*
X32539Y-54698D01*
X32539Y-55461D01*
X31894Y-55461D01*
X32080Y-55384D01*
X32167Y-55238D01*
X31500Y-54570D01*
X30832Y-55238D01*
X30919Y-55384D01*
X31110Y-55461D01*
X30538Y-55461D01*
X30538Y-54894D01*
X30615Y-55080D01*
X30761Y-55167D01*
X31429Y-54500D01*
X30761Y-53832D01*
X30615Y-53919D01*
X30538Y-54110D01*
X30538Y-49654D01*
X30548Y-49664D01*
X30622Y-49695D01*
X30701Y-49695D01*
X31685Y-49695D01*
X31759Y-49665D01*
X31815Y-49608D01*
X31845Y-49535D01*
X31846Y-49455D01*
X31846Y-48668D01*
X31815Y-48595D01*
X31759Y-48539D01*
X31685Y-48508D01*
X31606Y-48508D01*
X30622Y-48508D01*
X30548Y-48538D01*
X30538Y-48549D01*
X30538Y-46150D01*
X30548Y-46160D01*
X30622Y-46191D01*
X30701Y-46191D01*
X31685Y-46191D01*
X31759Y-46161D01*
X31815Y-46104D01*
X31845Y-46031D01*
X31846Y-45951D01*
X31846Y-45164D01*
X31815Y-45091D01*
X31759Y-45035D01*
X31685Y-45004D01*
X31606Y-45004D01*
X30622Y-45004D01*
X30548Y-45034D01*
X30538Y-45045D01*
X30538Y-44291D01*
X30599Y-44316D01*
X31087Y-44316D01*
X31150Y-44254D01*
X31150Y-43644D01*
X31142Y-43644D01*
X31142Y-43544D01*
X31150Y-43544D01*
X31150Y-42934D01*
X31087Y-42871D01*
X30599Y-42871D01*
X30538Y-42896D01*
X30538Y-39749D01*
X30608Y-39778D01*
X30688Y-39778D01*
X31790Y-39778D01*
X31864Y-39747D01*
X31920Y-39691D01*
X31951Y-39618D01*
X31951Y-39555D01*
X32850Y-39555D01*
X32850Y-39617D01*
X32880Y-39691D01*
X32936Y-39747D01*
X33010Y-39778D01*
X33090Y-39778D01*
X34192Y-39778D01*
X34265Y-39747D01*
X34322Y-39691D01*
X34352Y-39618D01*
X34352Y-39555D01*
X35902Y-39555D01*
X36847Y-39555D01*
X36847Y-39885D01*
X36877Y-39958D01*
X36933Y-40015D01*
X37007Y-40045D01*
X37086Y-40045D01*
X37992Y-40045D01*
X38065Y-40015D01*
X38122Y-39959D01*
X38152Y-39885D01*
X38152Y-39806D01*
X38152Y-38821D01*
X38122Y-38748D01*
X38066Y-38691D01*
X37992Y-38661D01*
X37913Y-38661D01*
X37279Y-38661D01*
X37252Y-38655D01*
X35902Y-38655D01*
X34352Y-38655D01*
X34352Y-38593D01*
X34322Y-38520D01*
X34266Y-38464D01*
X34192Y-38433D01*
X34113Y-38433D01*
X33010Y-38433D01*
X32937Y-38463D01*
X32880Y-38520D01*
X32850Y-38593D01*
X32850Y-38655D01*
X32539Y-38655D01*
X32539Y-37375D01*
X32535Y-36962D01*
X32384Y-36596D01*
X32238Y-36509D01*
X31570Y-37177D01*
X32238Y-37844D01*
X32384Y-37757D01*
X32539Y-37375D01*
X32539Y-38655D01*
X32167Y-38655D01*
X32167Y-37915D01*
X31500Y-37247D01*
X30832Y-37915D01*
X30919Y-38061D01*
X31301Y-38216D01*
X31714Y-38212D01*
X32080Y-38061D01*
X32167Y-37915D01*
X32167Y-38655D01*
X31951Y-38655D01*
X31951Y-38593D01*
X31920Y-38520D01*
X31864Y-38464D01*
X31791Y-38433D01*
X31711Y-38433D01*
X30609Y-38433D01*
X30538Y-38462D01*
X30538Y-37571D01*
X30615Y-37757D01*
X30761Y-37844D01*
X31429Y-37177D01*
X30761Y-36509D01*
X30615Y-36596D01*
X30538Y-36787D01*
X30538Y-36215D01*
X31105Y-36215D01*
X30919Y-36293D01*
X30832Y-36438D01*
X31500Y-37106D01*
X32167Y-36438D01*
X32080Y-36293D01*
X31889Y-36215D01*
X52365Y-36215D01*
X52179Y-36293D01*
X52092Y-36438D01*
X52759Y-37106D01*
X53427Y-36438D01*
X53340Y-36293D01*
X53149Y-36215D01*
X53721Y-36215D01*
X53721Y-36783D01*
X53643Y-36596D01*
X53498Y-36509D01*
X52830Y-37177D01*
X53498Y-37844D01*
X53643Y-37757D01*
X53721Y-37566D01*
X53721Y-48217D01*
X53576Y-48073D01*
X53495Y-48019D01*
X53469Y-48013D01*
X53470Y-47886D01*
X53421Y-47768D01*
X53360Y-47707D01*
X53400Y-47691D01*
X53456Y-47635D01*
X53486Y-47561D01*
X53487Y-47482D01*
X53487Y-47088D01*
X53456Y-47014D01*
X53441Y-47000D01*
X53456Y-46985D01*
X53486Y-46912D01*
X53487Y-46832D01*
X53487Y-46438D01*
X53456Y-46365D01*
X53427Y-46335D01*
X53427Y-37915D01*
X52759Y-37247D01*
X52689Y-37318D01*
X52689Y-37177D01*
X52021Y-36509D01*
X51875Y-36596D01*
X51720Y-36979D01*
X51724Y-37391D01*
X51875Y-37757D01*
X52021Y-37844D01*
X52689Y-37177D01*
X52689Y-37318D01*
X52092Y-37915D01*
X52179Y-38061D01*
X52561Y-38216D01*
X52974Y-38212D01*
X53340Y-38061D01*
X53427Y-37915D01*
X53427Y-46335D01*
X53400Y-46308D01*
X53350Y-46287D01*
X53350Y-45450D01*
X53330Y-45354D01*
X53276Y-45273D01*
X53050Y-45046D01*
X53050Y-44610D01*
X53019Y-44536D01*
X52963Y-44480D01*
X52889Y-44450D01*
X52810Y-44449D01*
X52565Y-44449D01*
X52757Y-44411D01*
X52919Y-44303D01*
X53027Y-44141D01*
X53065Y-43950D01*
X53027Y-43758D01*
X52919Y-43596D01*
X52757Y-43488D01*
X52687Y-43474D01*
X52806Y-43438D01*
X52974Y-43303D01*
X53077Y-43114D01*
X53083Y-43085D01*
X53034Y-43000D01*
X52300Y-43000D01*
X52300Y-43007D01*
X52200Y-43007D01*
X52200Y-43000D01*
X51465Y-43000D01*
X51416Y-43085D01*
X51422Y-43114D01*
X51525Y-43303D01*
X51693Y-43438D01*
X51812Y-43474D01*
X51742Y-43488D01*
X51580Y-43596D01*
X51578Y-43600D01*
X51450Y-43600D01*
X51449Y-43600D01*
X51316Y-43626D01*
X51202Y-43702D01*
X51202Y-43702D01*
X51202Y-43702D01*
X50052Y-44852D01*
X49976Y-44966D01*
X49950Y-45100D01*
X49950Y-45400D01*
X49976Y-45533D01*
X50052Y-45647D01*
X50166Y-45723D01*
X50300Y-45750D01*
X50433Y-45723D01*
X50547Y-45647D01*
X50623Y-45533D01*
X50650Y-45400D01*
X50650Y-45244D01*
X51587Y-44307D01*
X51742Y-44411D01*
X51934Y-44449D01*
X51610Y-44449D01*
X51536Y-44480D01*
X51480Y-44536D01*
X51450Y-44610D01*
X51449Y-44689D01*
X51449Y-45096D01*
X51323Y-45223D01*
X51323Y-45223D01*
X50746Y-45800D01*
X49283Y-45800D01*
X49271Y-45769D01*
X49131Y-45629D01*
X48949Y-45553D01*
X48751Y-45553D01*
X48663Y-45589D01*
X48719Y-45533D01*
X48750Y-45546D01*
X48948Y-45546D01*
X49130Y-45471D01*
X49270Y-45331D01*
X49346Y-45149D01*
X49346Y-44951D01*
X49283Y-44800D01*
X49374Y-44800D01*
X49470Y-44780D01*
X49551Y-44726D01*
X50306Y-43971D01*
X50576Y-43971D01*
X50650Y-43941D01*
X50706Y-43885D01*
X50736Y-43811D01*
X50737Y-43732D01*
X50737Y-43338D01*
X50706Y-43264D01*
X50691Y-43250D01*
X50706Y-43235D01*
X50736Y-43162D01*
X50737Y-43082D01*
X50737Y-42891D01*
X51428Y-42200D01*
X51511Y-42200D01*
X51580Y-42303D01*
X51742Y-42411D01*
X51812Y-42425D01*
X51693Y-42461D01*
X51525Y-42596D01*
X51422Y-42785D01*
X51416Y-42814D01*
X51465Y-42900D01*
X52200Y-42900D01*
X52200Y-42892D01*
X52300Y-42892D01*
X52300Y-42900D01*
X53034Y-42900D01*
X53083Y-42814D01*
X53077Y-42785D01*
X52974Y-42596D01*
X52806Y-42461D01*
X52687Y-42425D01*
X52757Y-42411D01*
X52919Y-42303D01*
X53027Y-42141D01*
X53065Y-41950D01*
X53027Y-41758D01*
X52919Y-41596D01*
X52757Y-41488D01*
X52565Y-41450D01*
X52757Y-41411D01*
X52919Y-41303D01*
X53027Y-41141D01*
X53065Y-40950D01*
X53027Y-40758D01*
X52919Y-40596D01*
X52757Y-40488D01*
X52565Y-40450D01*
X52757Y-40411D01*
X52919Y-40303D01*
X53027Y-40141D01*
X53065Y-39950D01*
X53027Y-39758D01*
X52919Y-39596D01*
X52757Y-39488D01*
X52565Y-39450D01*
X51934Y-39450D01*
X51742Y-39488D01*
X51580Y-39596D01*
X51472Y-39758D01*
X51434Y-39950D01*
X51472Y-40141D01*
X51580Y-40303D01*
X51742Y-40411D01*
X51934Y-40450D01*
X51742Y-40488D01*
X51580Y-40596D01*
X51511Y-40700D01*
X50575Y-40700D01*
X50479Y-40719D01*
X50398Y-40773D01*
X50393Y-40778D01*
X50123Y-40778D01*
X50049Y-40808D01*
X49993Y-40864D01*
X49963Y-40938D01*
X49962Y-41017D01*
X49962Y-41411D01*
X49993Y-41485D01*
X50008Y-41499D01*
X49993Y-41514D01*
X49963Y-41587D01*
X49962Y-41667D01*
X49962Y-41858D01*
X49473Y-42348D01*
X49419Y-42429D01*
X49400Y-42524D01*
X49400Y-43046D01*
X49346Y-43099D01*
X49346Y-42951D01*
X49271Y-42769D01*
X49131Y-42629D01*
X48949Y-42553D01*
X48751Y-42553D01*
X48720Y-42566D01*
X48663Y-42510D01*
X48750Y-42546D01*
X48948Y-42546D01*
X49130Y-42471D01*
X49270Y-42331D01*
X49346Y-42149D01*
X49346Y-41951D01*
X49271Y-41769D01*
X49131Y-41629D01*
X48949Y-41553D01*
X48751Y-41553D01*
X48720Y-41566D01*
X48663Y-41510D01*
X48750Y-41546D01*
X48948Y-41546D01*
X49130Y-41471D01*
X49270Y-41331D01*
X49346Y-41149D01*
X49346Y-40951D01*
X49271Y-40769D01*
X49131Y-40629D01*
X48949Y-40553D01*
X48751Y-40553D01*
X48720Y-40566D01*
X48663Y-40510D01*
X48750Y-40546D01*
X48948Y-40546D01*
X49130Y-40471D01*
X49270Y-40331D01*
X49346Y-40149D01*
X49346Y-39951D01*
X49271Y-39769D01*
X49131Y-39629D01*
X49100Y-39616D01*
X49100Y-39525D01*
X49080Y-39429D01*
X49080Y-39429D01*
X49026Y-39348D01*
X49026Y-39348D01*
X48776Y-39098D01*
X48695Y-39044D01*
X48600Y-39025D01*
X47400Y-39025D01*
X47304Y-39044D01*
X47223Y-39098D01*
X47223Y-39098D01*
X46021Y-40300D01*
X43850Y-40300D01*
X43849Y-40300D01*
X43830Y-40303D01*
X43754Y-40319D01*
X43673Y-40373D01*
X43673Y-40373D01*
X43446Y-40600D01*
X41597Y-40600D01*
X41615Y-40572D01*
X41650Y-40400D01*
X41650Y-40150D01*
X41650Y-39700D01*
X41660Y-39700D01*
X41660Y-39929D01*
X41690Y-40002D01*
X41746Y-40059D01*
X41820Y-40089D01*
X41899Y-40089D01*
X42746Y-40089D01*
X42819Y-40059D01*
X42876Y-40003D01*
X42906Y-39929D01*
X42906Y-39850D01*
X42906Y-39700D01*
X43153Y-39700D01*
X43325Y-39665D01*
X43471Y-39568D01*
X43809Y-39229D01*
X43925Y-39229D01*
X43998Y-39199D01*
X44054Y-39143D01*
X44085Y-39069D01*
X44085Y-38990D01*
X44085Y-38537D01*
X44055Y-38464D01*
X44026Y-38435D01*
X44027Y-38434D01*
X44097Y-38364D01*
X44135Y-38272D01*
X44135Y-37720D01*
X44097Y-37628D01*
X44027Y-37558D01*
X43935Y-37520D01*
X43835Y-37520D01*
X43712Y-37520D01*
X43650Y-37582D01*
X43650Y-37946D01*
X44072Y-37946D01*
X44135Y-37883D01*
X44135Y-37720D01*
X44135Y-38272D01*
X44135Y-38108D01*
X44072Y-38046D01*
X43650Y-38046D01*
X43650Y-38054D01*
X43550Y-38054D01*
X43550Y-38046D01*
X43550Y-37946D01*
X43550Y-37582D01*
X43487Y-37520D01*
X43364Y-37520D01*
X43264Y-37520D01*
X43172Y-37558D01*
X43102Y-37628D01*
X43064Y-37720D01*
X43064Y-37883D01*
X43127Y-37946D01*
X43550Y-37946D01*
X43550Y-38046D01*
X43127Y-38046D01*
X43064Y-38108D01*
X43064Y-38272D01*
X43102Y-38364D01*
X43172Y-38434D01*
X43173Y-38435D01*
X43145Y-38463D01*
X43114Y-38537D01*
X43114Y-38616D01*
X43114Y-38652D01*
X42967Y-38800D01*
X42906Y-38800D01*
X42906Y-38570D01*
X42876Y-38497D01*
X42820Y-38440D01*
X42746Y-38410D01*
X42667Y-38410D01*
X41820Y-38410D01*
X41747Y-38440D01*
X41690Y-38496D01*
X41660Y-38570D01*
X41660Y-38649D01*
X41660Y-38800D01*
X41225Y-38800D01*
X40673Y-38800D01*
X40673Y-38581D01*
X40673Y-38107D01*
X40635Y-38016D01*
X40565Y-37945D01*
X40473Y-37907D01*
X40373Y-37907D01*
X40112Y-37907D01*
X40050Y-37969D01*
X40050Y-38294D01*
X40610Y-38294D01*
X40673Y-38231D01*
X40673Y-38107D01*
X40673Y-38581D01*
X40673Y-38456D01*
X40610Y-38394D01*
X40050Y-38394D01*
X40050Y-38718D01*
X40112Y-38781D01*
X40373Y-38781D01*
X40473Y-38781D01*
X40565Y-38743D01*
X40635Y-38672D01*
X40673Y-38581D01*
X40673Y-38800D01*
X40000Y-38800D01*
X39950Y-38809D01*
X39950Y-38718D01*
X39950Y-38394D01*
X39950Y-38294D01*
X39950Y-37969D01*
X39887Y-37907D01*
X39626Y-37907D01*
X39526Y-37907D01*
X39434Y-37945D01*
X39364Y-38016D01*
X39326Y-38107D01*
X39326Y-38231D01*
X39389Y-38294D01*
X39950Y-38294D01*
X39950Y-38394D01*
X39389Y-38394D01*
X39326Y-38456D01*
X39326Y-38581D01*
X39364Y-38672D01*
X39434Y-38743D01*
X39526Y-38781D01*
X39626Y-38781D01*
X39887Y-38781D01*
X39950Y-38718D01*
X39950Y-38809D01*
X39827Y-38834D01*
X39784Y-38862D01*
X39537Y-38862D01*
X39463Y-38893D01*
X39407Y-38949D01*
X39376Y-39023D01*
X39376Y-39102D01*
X39376Y-39476D01*
X39407Y-39550D01*
X39463Y-39606D01*
X39536Y-39636D01*
X39616Y-39637D01*
X39784Y-39637D01*
X39827Y-39665D01*
X40000Y-39700D01*
X40750Y-39700D01*
X40750Y-40150D01*
X40750Y-40400D01*
X40784Y-40572D01*
X40802Y-40600D01*
X40027Y-40600D01*
X40172Y-40571D01*
X40215Y-40542D01*
X40462Y-40542D01*
X40536Y-40512D01*
X40592Y-40455D01*
X40623Y-40382D01*
X40623Y-40302D01*
X40623Y-39928D01*
X40592Y-39855D01*
X40536Y-39799D01*
X40463Y-39768D01*
X40383Y-39768D01*
X40215Y-39768D01*
X40172Y-39739D01*
X40000Y-39705D01*
X39444Y-39705D01*
X39335Y-39727D01*
X39335Y-39420D01*
X39297Y-39328D01*
X39227Y-39258D01*
X39135Y-39220D01*
X39035Y-39220D01*
X38912Y-39220D01*
X38850Y-39282D01*
X38850Y-39646D01*
X39272Y-39646D01*
X39335Y-39583D01*
X39335Y-39420D01*
X39335Y-39727D01*
X39272Y-39739D01*
X39262Y-39746D01*
X38850Y-39746D01*
X38850Y-39754D01*
X38750Y-39754D01*
X38750Y-39746D01*
X38750Y-39646D01*
X38750Y-39282D01*
X38687Y-39220D01*
X38564Y-39220D01*
X38464Y-39220D01*
X38372Y-39258D01*
X38302Y-39328D01*
X38264Y-39420D01*
X38264Y-39583D01*
X38327Y-39646D01*
X38750Y-39646D01*
X38750Y-39746D01*
X38327Y-39746D01*
X38264Y-39808D01*
X38264Y-39972D01*
X38302Y-40064D01*
X38372Y-40134D01*
X38373Y-40135D01*
X38345Y-40163D01*
X38314Y-40237D01*
X38314Y-40238D01*
X38117Y-40435D01*
X38066Y-40384D01*
X37992Y-40354D01*
X37913Y-40354D01*
X37007Y-40354D01*
X36934Y-40384D01*
X36877Y-40440D01*
X36847Y-40514D01*
X36847Y-40593D01*
X36847Y-40596D01*
X36752Y-40596D01*
X36752Y-40521D01*
X36722Y-40448D01*
X36666Y-40391D01*
X36592Y-40361D01*
X36513Y-40361D01*
X35607Y-40361D01*
X35534Y-40391D01*
X35477Y-40447D01*
X35447Y-40521D01*
X35447Y-40601D01*
X35447Y-41585D01*
X35477Y-41658D01*
X35533Y-41715D01*
X35607Y-41745D01*
X35686Y-41745D01*
X36592Y-41745D01*
X36665Y-41715D01*
X36722Y-41659D01*
X36752Y-41585D01*
X36752Y-41506D01*
X36752Y-41496D01*
X36847Y-41496D01*
X36847Y-41578D01*
X36877Y-41651D01*
X36933Y-41708D01*
X37007Y-41738D01*
X37086Y-41738D01*
X37992Y-41738D01*
X38065Y-41708D01*
X38122Y-41652D01*
X38152Y-41578D01*
X38152Y-41498D01*
X38152Y-41494D01*
X38315Y-41462D01*
X38461Y-41364D01*
X38872Y-40953D01*
X39017Y-40953D01*
X38846Y-41125D01*
X38825Y-41125D01*
X38824Y-41125D01*
X38805Y-41128D01*
X38729Y-41144D01*
X38648Y-41198D01*
X38648Y-41198D01*
X38348Y-41498D01*
X38294Y-41579D01*
X38275Y-41675D01*
X38275Y-41825D01*
X38294Y-41920D01*
X38348Y-42001D01*
X38354Y-42008D01*
X38354Y-42038D01*
X38403Y-42156D01*
X38471Y-42224D01*
X38173Y-42523D01*
X38119Y-42604D01*
X38100Y-42700D01*
X38100Y-43131D01*
X37475Y-43131D01*
X37402Y-43162D01*
X37345Y-43218D01*
X37315Y-43291D01*
X37315Y-43371D01*
X37315Y-43607D01*
X37345Y-43681D01*
X37364Y-43699D01*
X37345Y-43718D01*
X37315Y-43791D01*
X37315Y-43871D01*
X37315Y-44107D01*
X37345Y-44181D01*
X37364Y-44199D01*
X37345Y-44218D01*
X37315Y-44291D01*
X37315Y-44371D01*
X37315Y-44607D01*
X37345Y-44681D01*
X37364Y-44699D01*
X37345Y-44718D01*
X37315Y-44791D01*
X37315Y-44871D01*
X37315Y-45107D01*
X37345Y-45181D01*
X37364Y-45199D01*
X37345Y-45218D01*
X37315Y-45291D01*
X37315Y-45371D01*
X37315Y-45607D01*
X37345Y-45681D01*
X37364Y-45699D01*
X37345Y-45718D01*
X37315Y-45791D01*
X37315Y-45871D01*
X37315Y-45980D01*
X37187Y-45852D01*
X37187Y-45688D01*
X37156Y-45614D01*
X37141Y-45600D01*
X37156Y-45585D01*
X37186Y-45512D01*
X37187Y-45432D01*
X37187Y-45038D01*
X37156Y-44965D01*
X37125Y-44934D01*
X37179Y-44879D01*
X37193Y-44858D01*
X37221Y-44831D01*
X37235Y-44795D01*
X37250Y-44774D01*
X37255Y-44749D01*
X37269Y-44713D01*
X37269Y-44675D01*
X37275Y-44650D01*
X37270Y-44624D01*
X37270Y-44586D01*
X37255Y-44550D01*
X37250Y-44525D01*
X37236Y-44504D01*
X37221Y-44468D01*
X37194Y-44441D01*
X37179Y-44420D01*
X37158Y-44406D01*
X37131Y-44378D01*
X37095Y-44364D01*
X37074Y-44349D01*
X37049Y-44344D01*
X37013Y-44330D01*
X36975Y-44330D01*
X36950Y-44325D01*
X36924Y-44329D01*
X36886Y-44329D01*
X36850Y-44344D01*
X36825Y-44349D01*
X36804Y-44363D01*
X36768Y-44378D01*
X36752Y-44394D01*
X36752Y-43198D01*
X36752Y-42214D01*
X36722Y-42141D01*
X36666Y-42084D01*
X36592Y-42054D01*
X36513Y-42054D01*
X35607Y-42054D01*
X35534Y-42084D01*
X35477Y-42140D01*
X35447Y-42214D01*
X35447Y-42293D01*
X35447Y-42804D01*
X35434Y-42824D01*
X35400Y-42996D01*
X35400Y-43950D01*
X35434Y-44122D01*
X35531Y-44268D01*
X35677Y-44365D01*
X35850Y-44400D01*
X36100Y-44400D01*
X36272Y-44365D01*
X36418Y-44268D01*
X36515Y-44122D01*
X36550Y-43950D01*
X36550Y-43438D01*
X36592Y-43438D01*
X36665Y-43408D01*
X36722Y-43352D01*
X36752Y-43278D01*
X36752Y-43198D01*
X36752Y-44394D01*
X36741Y-44405D01*
X36720Y-44420D01*
X36570Y-44570D01*
X36499Y-44675D01*
X36475Y-44800D01*
X36475Y-44933D01*
X36443Y-44964D01*
X36413Y-45038D01*
X36412Y-45117D01*
X36412Y-45511D01*
X36443Y-45585D01*
X36457Y-45599D01*
X36354Y-45599D01*
X36387Y-45521D01*
X36387Y-45028D01*
X36349Y-44936D01*
X36278Y-44866D01*
X36186Y-44828D01*
X36087Y-44828D01*
X36062Y-44828D01*
X36000Y-44890D01*
X36000Y-45225D01*
X36324Y-45225D01*
X36387Y-45162D01*
X36387Y-45028D01*
X36387Y-45521D01*
X36387Y-45387D01*
X36324Y-45325D01*
X36000Y-45325D01*
X36000Y-45333D01*
X35900Y-45333D01*
X35900Y-45325D01*
X35900Y-45225D01*
X35900Y-44890D01*
X35837Y-44828D01*
X35812Y-44828D01*
X35713Y-44828D01*
X35621Y-44866D01*
X35550Y-44936D01*
X35512Y-45028D01*
X35512Y-45162D01*
X35575Y-45225D01*
X35900Y-45225D01*
X35900Y-45325D01*
X35575Y-45325D01*
X35512Y-45387D01*
X35512Y-45521D01*
X35550Y-45613D01*
X35581Y-45643D01*
X35563Y-45687D01*
X35562Y-45767D01*
X35562Y-46161D01*
X35593Y-46234D01*
X35608Y-46250D01*
X35087Y-46250D01*
X35087Y-45878D01*
X35049Y-45786D01*
X34978Y-45716D01*
X34886Y-45678D01*
X34787Y-45678D01*
X34762Y-45678D01*
X34700Y-45740D01*
X34700Y-46075D01*
X35024Y-46075D01*
X35087Y-46012D01*
X35087Y-45878D01*
X35087Y-46250D01*
X35087Y-46250D01*
X35087Y-46237D01*
X35024Y-46175D01*
X34700Y-46175D01*
X34700Y-46183D01*
X34600Y-46183D01*
X34600Y-46175D01*
X34600Y-46075D01*
X34600Y-45740D01*
X34537Y-45678D01*
X34512Y-45678D01*
X34413Y-45678D01*
X34402Y-45682D01*
X34402Y-44017D01*
X34402Y-43171D01*
X34402Y-43071D01*
X34364Y-42979D01*
X34294Y-42909D01*
X34202Y-42871D01*
X33714Y-42871D01*
X33651Y-42934D01*
X33651Y-43544D01*
X34340Y-43544D01*
X34402Y-43481D01*
X34402Y-43171D01*
X34402Y-44017D01*
X34402Y-43706D01*
X34340Y-43644D01*
X33651Y-43644D01*
X33651Y-44254D01*
X33714Y-44316D01*
X34202Y-44316D01*
X34294Y-44278D01*
X34364Y-44208D01*
X34402Y-44116D01*
X34402Y-44017D01*
X34402Y-45682D01*
X34321Y-45716D01*
X34250Y-45786D01*
X34212Y-45878D01*
X34212Y-46012D01*
X34275Y-46075D01*
X34600Y-46075D01*
X34600Y-46175D01*
X34275Y-46175D01*
X34212Y-46237D01*
X34212Y-46285D01*
X33891Y-46438D01*
X33850Y-46421D01*
X33771Y-46421D01*
X33725Y-46421D01*
X33725Y-46400D01*
X33700Y-46275D01*
X33644Y-46191D01*
X33850Y-46191D01*
X33924Y-46161D01*
X33980Y-46104D01*
X34010Y-46031D01*
X34011Y-45951D01*
X34011Y-45164D01*
X33980Y-45091D01*
X33924Y-45035D01*
X33850Y-45004D01*
X33771Y-45004D01*
X33551Y-45004D01*
X33551Y-44254D01*
X33551Y-43644D01*
X33551Y-43544D01*
X33551Y-42934D01*
X33526Y-42908D01*
X33526Y-41240D01*
X33441Y-41036D01*
X33286Y-40880D01*
X33082Y-40795D01*
X32861Y-40795D01*
X32658Y-40879D01*
X32501Y-41035D01*
X32417Y-41239D01*
X32417Y-41459D01*
X32501Y-41663D01*
X32657Y-41819D01*
X32860Y-41904D01*
X33081Y-41904D01*
X33285Y-41820D01*
X33441Y-41664D01*
X33525Y-41460D01*
X33526Y-41240D01*
X33526Y-42908D01*
X33489Y-42871D01*
X33000Y-42871D01*
X32908Y-42909D01*
X32838Y-42979D01*
X32800Y-43071D01*
X32800Y-43171D01*
X32800Y-43481D01*
X32862Y-43544D01*
X33551Y-43544D01*
X33551Y-43644D01*
X32862Y-43644D01*
X32800Y-43706D01*
X32800Y-44017D01*
X32800Y-44116D01*
X32838Y-44208D01*
X32908Y-44278D01*
X33000Y-44316D01*
X33489Y-44316D01*
X33551Y-44254D01*
X33551Y-45004D01*
X32787Y-45004D01*
X32713Y-45034D01*
X32657Y-45091D01*
X32627Y-45164D01*
X32626Y-45244D01*
X32626Y-46031D01*
X32657Y-46104D01*
X32713Y-46160D01*
X32787Y-46191D01*
X32866Y-46191D01*
X32905Y-46191D01*
X32878Y-46218D01*
X32864Y-46254D01*
X32849Y-46275D01*
X32844Y-46300D01*
X32830Y-46336D01*
X32830Y-46374D01*
X32825Y-46400D01*
X32825Y-46438D01*
X32791Y-46451D01*
X32735Y-46508D01*
X32712Y-46564D01*
X32712Y-46409D01*
X32654Y-46270D01*
X32548Y-46164D01*
X32410Y-46107D01*
X32260Y-46106D01*
X32121Y-46164D01*
X32015Y-46270D01*
X32001Y-46304D01*
X32001Y-44017D01*
X32001Y-43171D01*
X32001Y-43071D01*
X31962Y-42979D01*
X31892Y-42909D01*
X31800Y-42871D01*
X31715Y-42871D01*
X31715Y-41248D01*
X31636Y-41058D01*
X31492Y-40913D01*
X31302Y-40835D01*
X31098Y-40834D01*
X30908Y-40913D01*
X30763Y-41057D01*
X30685Y-41247D01*
X30684Y-41451D01*
X30763Y-41641D01*
X30907Y-41786D01*
X31097Y-41864D01*
X31301Y-41865D01*
X31491Y-41786D01*
X31636Y-41642D01*
X31714Y-41452D01*
X31715Y-41248D01*
X31715Y-42871D01*
X31312Y-42871D01*
X31250Y-42934D01*
X31250Y-43544D01*
X31938Y-43544D01*
X32001Y-43481D01*
X32001Y-43171D01*
X32001Y-44017D01*
X32001Y-43706D01*
X31938Y-43644D01*
X31250Y-43644D01*
X31250Y-44254D01*
X31312Y-44316D01*
X31800Y-44316D01*
X31892Y-44278D01*
X31962Y-44208D01*
X32001Y-44116D01*
X32001Y-44017D01*
X32001Y-46304D01*
X31958Y-46408D01*
X31957Y-46558D01*
X32015Y-46697D01*
X32121Y-46803D01*
X32259Y-46860D01*
X32409Y-46861D01*
X32548Y-46803D01*
X32654Y-46697D01*
X32711Y-46559D01*
X32712Y-46409D01*
X32712Y-46564D01*
X32705Y-46581D01*
X32704Y-46661D01*
X32704Y-46858D01*
X32712Y-46877D01*
X32705Y-46896D01*
X32704Y-46976D01*
X32704Y-47173D01*
X32712Y-47192D01*
X32705Y-47211D01*
X32704Y-47291D01*
X32704Y-47488D01*
X32712Y-47507D01*
X32705Y-47526D01*
X32704Y-47606D01*
X32704Y-47727D01*
X32693Y-47739D01*
X32655Y-47831D01*
X32655Y-47868D01*
X32717Y-47930D01*
X32789Y-47930D01*
X32791Y-47932D01*
X32865Y-47963D01*
X32944Y-47963D01*
X33850Y-47963D01*
X33923Y-47933D01*
X34214Y-48025D01*
X34212Y-48028D01*
X34212Y-48162D01*
X34275Y-48224D01*
X34600Y-48224D01*
X34600Y-48216D01*
X34700Y-48216D01*
X34700Y-48224D01*
X35024Y-48224D01*
X35087Y-48162D01*
X35087Y-48028D01*
X35049Y-47936D01*
X35039Y-47927D01*
X35085Y-47919D01*
X35086Y-47919D01*
X35213Y-47920D01*
X35300Y-47883D01*
X35348Y-47875D01*
X35358Y-47900D01*
X35414Y-47956D01*
X35488Y-47986D01*
X35567Y-47987D01*
X35961Y-47987D01*
X36035Y-47956D01*
X36049Y-47941D01*
X36064Y-47956D01*
X36137Y-47986D01*
X36217Y-47987D01*
X36611Y-47987D01*
X36684Y-47956D01*
X36741Y-47900D01*
X36762Y-47850D01*
X37277Y-47850D01*
X37327Y-47900D01*
X37849Y-47900D01*
X37849Y-47892D01*
X37949Y-47892D01*
X37949Y-47900D01*
X37957Y-47900D01*
X37957Y-48000D01*
X37949Y-48000D01*
X37949Y-48007D01*
X37849Y-48007D01*
X37849Y-48000D01*
X37327Y-48000D01*
X37297Y-48030D01*
X37229Y-48044D01*
X37148Y-48098D01*
X36996Y-48250D01*
X36200Y-48250D01*
X36104Y-48269D01*
X36071Y-48290D01*
X36023Y-48323D01*
X36023Y-48323D01*
X35854Y-48492D01*
X35828Y-48466D01*
X35736Y-48428D01*
X35637Y-48428D01*
X35612Y-48428D01*
X35550Y-48490D01*
X35550Y-48825D01*
X35557Y-48825D01*
X35557Y-48925D01*
X35550Y-48925D01*
X35550Y-48933D01*
X35450Y-48933D01*
X35450Y-48925D01*
X35450Y-48825D01*
X35450Y-48490D01*
X35387Y-48428D01*
X35362Y-48428D01*
X35263Y-48428D01*
X35171Y-48466D01*
X35100Y-48536D01*
X35087Y-48570D01*
X35087Y-48521D01*
X35087Y-48387D01*
X35024Y-48324D01*
X34700Y-48324D01*
X34700Y-48659D01*
X34762Y-48721D01*
X34787Y-48721D01*
X34886Y-48721D01*
X34978Y-48683D01*
X35049Y-48613D01*
X35087Y-48521D01*
X35087Y-48570D01*
X35062Y-48628D01*
X35062Y-48762D01*
X35125Y-48825D01*
X35450Y-48825D01*
X35450Y-48925D01*
X35125Y-48925D01*
X35062Y-48987D01*
X35062Y-49121D01*
X35100Y-49213D01*
X35131Y-49243D01*
X35113Y-49287D01*
X35112Y-49367D01*
X35112Y-49558D01*
X35021Y-49650D01*
X34650Y-49650D01*
X34600Y-49659D01*
X34600Y-48659D01*
X34600Y-48324D01*
X34275Y-48324D01*
X34212Y-48387D01*
X34212Y-48521D01*
X34250Y-48613D01*
X34321Y-48683D01*
X34413Y-48721D01*
X34512Y-48721D01*
X34537Y-48721D01*
X34600Y-48659D01*
X34600Y-49659D01*
X34554Y-49669D01*
X34473Y-49723D01*
X34060Y-50135D01*
X34060Y-48091D01*
X33998Y-48029D01*
X33408Y-48029D01*
X33408Y-48266D01*
X33470Y-48328D01*
X33860Y-48328D01*
X33952Y-48290D01*
X34022Y-48220D01*
X34060Y-48128D01*
X34060Y-48091D01*
X34060Y-50135D01*
X34011Y-50185D01*
X34011Y-49455D01*
X34011Y-48668D01*
X33980Y-48595D01*
X33924Y-48539D01*
X33850Y-48508D01*
X33771Y-48508D01*
X33308Y-48508D01*
X33308Y-48266D01*
X33308Y-48029D01*
X32717Y-48029D01*
X32680Y-48065D01*
X32654Y-48002D01*
X32548Y-47896D01*
X32410Y-47839D01*
X32260Y-47838D01*
X32121Y-47896D01*
X32015Y-48002D01*
X31958Y-48140D01*
X31957Y-48290D01*
X32015Y-48429D01*
X32121Y-48535D01*
X32259Y-48592D01*
X32409Y-48593D01*
X32548Y-48535D01*
X32654Y-48429D01*
X32711Y-48291D01*
X32711Y-48239D01*
X32763Y-48290D01*
X32855Y-48328D01*
X33245Y-48328D01*
X33308Y-48266D01*
X33308Y-48508D01*
X32787Y-48508D01*
X32713Y-48538D01*
X32657Y-48595D01*
X32627Y-48668D01*
X32626Y-48748D01*
X32626Y-49535D01*
X32657Y-49608D01*
X32713Y-49664D01*
X32787Y-49695D01*
X32866Y-49695D01*
X33850Y-49695D01*
X33924Y-49665D01*
X33980Y-49608D01*
X34010Y-49535D01*
X34011Y-49455D01*
X34011Y-50185D01*
X33980Y-50215D01*
X33926Y-50296D01*
X33914Y-50359D01*
X33843Y-50388D01*
X33687Y-50543D01*
X33661Y-50608D01*
X32094Y-50608D01*
X32068Y-50544D01*
X31912Y-50388D01*
X31709Y-50304D01*
X31488Y-50303D01*
X31284Y-50388D01*
X31128Y-50543D01*
X31044Y-50747D01*
X31043Y-50968D01*
X31128Y-51171D01*
X31284Y-51327D01*
X31487Y-51412D01*
X31708Y-51412D01*
X31912Y-51328D01*
X32068Y-51172D01*
X32094Y-51108D01*
X33660Y-51108D01*
X33687Y-51171D01*
X33843Y-51327D01*
X34046Y-51412D01*
X34267Y-51412D01*
X34471Y-51328D01*
X34627Y-51172D01*
X34711Y-50969D01*
X34711Y-50748D01*
X34627Y-50544D01*
X34493Y-50410D01*
X34753Y-50150D01*
X35124Y-50150D01*
X35220Y-50130D01*
X35301Y-50076D01*
X35456Y-49921D01*
X35726Y-49921D01*
X35800Y-49891D01*
X35856Y-49835D01*
X35886Y-49761D01*
X35886Y-49750D01*
X35920Y-49750D01*
X35929Y-49755D01*
X35929Y-49755D01*
X36024Y-49774D01*
X36118Y-49774D01*
X36143Y-49834D01*
X36199Y-49891D01*
X36273Y-49921D01*
X36352Y-49921D01*
X36725Y-49921D01*
X36725Y-50608D01*
X36425Y-50608D01*
X36399Y-50544D01*
X36243Y-50388D01*
X36039Y-50304D01*
X35819Y-50303D01*
X35615Y-50388D01*
X35459Y-50543D01*
X35374Y-50747D01*
X35374Y-50968D01*
X35458Y-51171D01*
X35614Y-51327D01*
X35818Y-51412D01*
X36038Y-51412D01*
X36242Y-51328D01*
X36398Y-51172D01*
X36425Y-51108D01*
X36975Y-51108D01*
X37275Y-51108D01*
X37991Y-51108D01*
X38017Y-51171D01*
X38173Y-51327D01*
X38377Y-51412D01*
X38597Y-51412D01*
X38801Y-51328D01*
X38957Y-51172D01*
X39042Y-50969D01*
X39042Y-50748D01*
X38958Y-50544D01*
X38802Y-50388D01*
X38598Y-50304D01*
X38378Y-50303D01*
X38174Y-50388D01*
X38018Y-50543D01*
X37991Y-50608D01*
X37950Y-50608D01*
X37950Y-49999D01*
X37950Y-49675D01*
X37615Y-49675D01*
X37553Y-49737D01*
X37553Y-49762D01*
X37553Y-49861D01*
X37591Y-49953D01*
X37661Y-50024D01*
X37753Y-50062D01*
X37887Y-50062D01*
X37950Y-49999D01*
X37950Y-50608D01*
X37275Y-50608D01*
X37225Y-50608D01*
X37225Y-49428D01*
X37300Y-49353D01*
X37368Y-49421D01*
X37486Y-49469D01*
X37553Y-49470D01*
X37553Y-49487D01*
X37553Y-49512D01*
X37615Y-49575D01*
X37950Y-49575D01*
X37950Y-49567D01*
X38050Y-49567D01*
X38050Y-49575D01*
X38058Y-49575D01*
X38058Y-49675D01*
X38050Y-49675D01*
X38050Y-49999D01*
X38112Y-50062D01*
X38246Y-50062D01*
X38338Y-50024D01*
X38368Y-49993D01*
X38412Y-50011D01*
X38492Y-50012D01*
X38886Y-50012D01*
X38959Y-49981D01*
X39016Y-49925D01*
X39046Y-49851D01*
X39046Y-49772D01*
X39046Y-49398D01*
X39016Y-49324D01*
X38960Y-49268D01*
X38886Y-49238D01*
X38875Y-49238D01*
X38875Y-49227D01*
X38896Y-49206D01*
X38944Y-49088D01*
X38945Y-48975D01*
X39062Y-48975D01*
X39062Y-49062D01*
X39125Y-49125D01*
X39450Y-49125D01*
X39450Y-49117D01*
X39550Y-49117D01*
X39550Y-49125D01*
X39874Y-49125D01*
X39935Y-49064D01*
X40012Y-49141D01*
X40012Y-49411D01*
X40043Y-49485D01*
X40058Y-49499D01*
X40043Y-49514D01*
X40013Y-49587D01*
X40012Y-49667D01*
X40012Y-50061D01*
X40043Y-50134D01*
X40099Y-50191D01*
X40150Y-50212D01*
X40150Y-50487D01*
X40099Y-50508D01*
X40043Y-50564D01*
X40013Y-50638D01*
X40012Y-50717D01*
X40012Y-51111D01*
X40039Y-51174D01*
X39860Y-51174D01*
X39886Y-51112D01*
X39887Y-51032D01*
X39887Y-50638D01*
X39856Y-50565D01*
X39800Y-50508D01*
X39750Y-50487D01*
X39750Y-50212D01*
X39800Y-50191D01*
X39856Y-50135D01*
X39886Y-50061D01*
X39887Y-49982D01*
X39887Y-49588D01*
X39868Y-49543D01*
X39899Y-49513D01*
X39937Y-49421D01*
X39937Y-49287D01*
X39874Y-49225D01*
X39550Y-49225D01*
X39550Y-49233D01*
X39450Y-49233D01*
X39450Y-49225D01*
X39125Y-49225D01*
X39062Y-49287D01*
X39062Y-49421D01*
X39100Y-49513D01*
X39131Y-49543D01*
X39113Y-49587D01*
X39112Y-49667D01*
X39112Y-50061D01*
X39143Y-50134D01*
X39199Y-50191D01*
X39250Y-50212D01*
X39250Y-50487D01*
X39199Y-50508D01*
X39143Y-50564D01*
X39113Y-50638D01*
X39112Y-50717D01*
X39112Y-51111D01*
X39143Y-51185D01*
X39158Y-51199D01*
X39143Y-51214D01*
X39113Y-51287D01*
X39112Y-51367D01*
X39112Y-51761D01*
X39143Y-51834D01*
X39199Y-51891D01*
X39273Y-51921D01*
X39352Y-51921D01*
X39726Y-51921D01*
X39800Y-51891D01*
X39816Y-51874D01*
X40083Y-51874D01*
X40099Y-51891D01*
X40173Y-51921D01*
X40252Y-51921D01*
X40626Y-51921D01*
X40700Y-51891D01*
X40716Y-51874D01*
X40983Y-51874D01*
X40999Y-51891D01*
X41073Y-51921D01*
X41152Y-51921D01*
X41526Y-51921D01*
X41600Y-51891D01*
X41616Y-51874D01*
X41883Y-51874D01*
X41899Y-51891D01*
X41973Y-51921D01*
X42052Y-51921D01*
X42426Y-51921D01*
X42500Y-51891D01*
X42516Y-51874D01*
X42783Y-51874D01*
X42799Y-51891D01*
X42873Y-51921D01*
X42952Y-51921D01*
X43326Y-51921D01*
X43400Y-51891D01*
X43427Y-51864D01*
X43509Y-51848D01*
X43509Y-51848D01*
X43622Y-51772D01*
X43897Y-51497D01*
X43973Y-51383D01*
X43973Y-51383D01*
X44000Y-51250D01*
X44000Y-49994D01*
X44247Y-49747D01*
X44247Y-49747D01*
X44247Y-49747D01*
X44323Y-49633D01*
X44349Y-49500D01*
X44350Y-49500D01*
X44350Y-48874D01*
X45379Y-48874D01*
X46652Y-50147D01*
X46652Y-50147D01*
X46740Y-50206D01*
X46473Y-50473D01*
X46419Y-50554D01*
X46400Y-50650D01*
X46400Y-50767D01*
X46246Y-50703D01*
X46037Y-50703D01*
X45900Y-50760D01*
X45900Y-50500D01*
X45880Y-50404D01*
X45880Y-50404D01*
X45826Y-50323D01*
X45826Y-50323D01*
X45576Y-50073D01*
X45495Y-50019D01*
X45400Y-50000D01*
X45252Y-50000D01*
X45231Y-49978D01*
X45113Y-49930D01*
X44986Y-49929D01*
X44868Y-49978D01*
X44778Y-50068D01*
X44730Y-50186D01*
X44729Y-50313D01*
X44778Y-50431D01*
X44868Y-50521D01*
X44986Y-50569D01*
X45113Y-50570D01*
X45231Y-50521D01*
X45252Y-50500D01*
X45296Y-50500D01*
X45400Y-50603D01*
X45400Y-50767D01*
X45246Y-50703D01*
X45037Y-50703D01*
X44844Y-50783D01*
X44696Y-50930D01*
X44616Y-51123D01*
X44616Y-51332D01*
X44696Y-51525D01*
X44843Y-51673D01*
X45036Y-51753D01*
X45245Y-51753D01*
X45400Y-51689D01*
X45400Y-53703D01*
X44777Y-53703D01*
X44703Y-53733D01*
X44647Y-53789D01*
X44616Y-53863D01*
X44616Y-53942D01*
X44616Y-54592D01*
X44647Y-54666D01*
X44703Y-54722D01*
X44776Y-54753D01*
X44856Y-54753D01*
X44894Y-54753D01*
X44910Y-54837D01*
X44964Y-54918D01*
X44983Y-54936D01*
X44983Y-54936D01*
X45223Y-55176D01*
X45304Y-55230D01*
X45400Y-55250D01*
X50650Y-55250D01*
X50745Y-55230D01*
X50826Y-55176D01*
X51376Y-54626D01*
X51430Y-54545D01*
X51430Y-54545D01*
X51450Y-54450D01*
X51450Y-54203D01*
X53721Y-51932D01*
X53721Y-54105D01*
X53643Y-53919D01*
X53498Y-53832D01*
X53427Y-53903D01*
X53427Y-53761D01*
X53340Y-53615D01*
X52957Y-53460D01*
X52545Y-53464D01*
X52179Y-53615D01*
X52092Y-53761D01*
X52759Y-54429D01*
X53427Y-53761D01*
X53427Y-53903D01*
X52830Y-54500D01*
X53498Y-55167D01*
X53643Y-55080D01*
X53721Y-54889D01*
X53721Y-55461D01*
M02*
