G04 (created by PCBNEW (2013-07-07 BZR 4022)-stable) date 3/3/2015 11:44:30 PM*
%MOIN*%
G04 Gerber Fmt 3.4, Leading zero omitted, Abs format*
%FSLAX34Y34*%
G01*
G70*
G90*
G04 APERTURE LIST*
%ADD10C,0.00590551*%
%ADD11C,0.008*%
%ADD12C,0.005*%
%ADD13C,0.006*%
G04 APERTURE END LIST*
G54D10*
G54D11*
X40550Y-45600D02*
X41950Y-45600D01*
X41950Y-45600D02*
X41950Y-44900D01*
X41950Y-44900D02*
X40550Y-44900D01*
X40550Y-44900D02*
X40550Y-45600D01*
X40856Y-44053D02*
X40462Y-44053D01*
X40462Y-44053D02*
X40462Y-43561D01*
X41643Y-44053D02*
X42037Y-44053D01*
X42037Y-44053D02*
X42037Y-43561D01*
X45643Y-45696D02*
X46037Y-45696D01*
X46037Y-45696D02*
X46037Y-46188D01*
X44856Y-45696D02*
X44462Y-45696D01*
X44462Y-45696D02*
X44462Y-46188D01*
X40856Y-46803D02*
X40462Y-46803D01*
X40462Y-46803D02*
X40462Y-46311D01*
X41643Y-46803D02*
X42037Y-46803D01*
X42037Y-46803D02*
X42037Y-46311D01*
X45643Y-39696D02*
X46037Y-39696D01*
X46037Y-39696D02*
X46037Y-40188D01*
X44856Y-39696D02*
X44462Y-39696D01*
X44462Y-39696D02*
X44462Y-40188D01*
X43893Y-41446D02*
X44287Y-41446D01*
X44287Y-41446D02*
X44287Y-41938D01*
X43106Y-41446D02*
X42712Y-41446D01*
X42712Y-41446D02*
X42712Y-41938D01*
X45643Y-42696D02*
X46037Y-42696D01*
X46037Y-42696D02*
X46037Y-43188D01*
X44856Y-42696D02*
X44462Y-42696D01*
X44462Y-42696D02*
X44462Y-43188D01*
X43893Y-44446D02*
X44287Y-44446D01*
X44287Y-44446D02*
X44287Y-44938D01*
X43106Y-44446D02*
X42712Y-44446D01*
X42712Y-44446D02*
X42712Y-44938D01*
X49700Y-46400D02*
X49700Y-49550D01*
X49700Y-49550D02*
X50900Y-49550D01*
X50900Y-49550D02*
X50900Y-46400D01*
X49700Y-49400D02*
X50900Y-49400D01*
X49700Y-46400D02*
X50900Y-46400D01*
X53500Y-46550D02*
X53500Y-46400D01*
X53500Y-46400D02*
X52500Y-46400D01*
X52500Y-46400D02*
X52500Y-46550D01*
X53500Y-49450D02*
X53500Y-46550D01*
X53500Y-46550D02*
X52500Y-46550D01*
X52500Y-46550D02*
X52500Y-49450D01*
X52500Y-49450D02*
X53500Y-49450D01*
X45950Y-43900D02*
X44550Y-43900D01*
X44550Y-43900D02*
X44550Y-44600D01*
X44550Y-44600D02*
X45950Y-44600D01*
X45950Y-44600D02*
X45950Y-43900D01*
X44200Y-42650D02*
X42800Y-42650D01*
X42800Y-42650D02*
X42800Y-43350D01*
X42800Y-43350D02*
X44200Y-43350D01*
X44200Y-43350D02*
X44200Y-42650D01*
X45950Y-40900D02*
X44550Y-40900D01*
X44550Y-40900D02*
X44550Y-41600D01*
X44550Y-41600D02*
X45950Y-41600D01*
X45950Y-41600D02*
X45950Y-40900D01*
X40550Y-42850D02*
X41950Y-42850D01*
X41950Y-42850D02*
X41950Y-42150D01*
X41950Y-42150D02*
X40550Y-42150D01*
X40550Y-42150D02*
X40550Y-42850D01*
X44200Y-45650D02*
X42800Y-45650D01*
X42800Y-45650D02*
X42800Y-46350D01*
X42800Y-46350D02*
X44200Y-46350D01*
X44200Y-46350D02*
X44200Y-45650D01*
X45950Y-46900D02*
X44550Y-46900D01*
X44550Y-46900D02*
X44550Y-47600D01*
X44550Y-47600D02*
X45950Y-47600D01*
X45950Y-47600D02*
X45950Y-46900D01*
X35350Y-47950D02*
X36750Y-47950D01*
X36750Y-47950D02*
X36750Y-47250D01*
X36750Y-47250D02*
X35350Y-47250D01*
X35350Y-47250D02*
X35350Y-47950D01*
X35350Y-47150D02*
X36750Y-47150D01*
X36750Y-47150D02*
X36750Y-46450D01*
X36750Y-46450D02*
X35350Y-46450D01*
X35350Y-46450D02*
X35350Y-47150D01*
X36850Y-43750D02*
X38250Y-43750D01*
X38250Y-43750D02*
X38250Y-43050D01*
X38250Y-43050D02*
X36850Y-43050D01*
X36850Y-43050D02*
X36850Y-43750D01*
X51750Y-47800D02*
X51750Y-46400D01*
X51750Y-46400D02*
X51050Y-46400D01*
X51050Y-46400D02*
X51050Y-47800D01*
X51050Y-47800D02*
X51750Y-47800D01*
X39100Y-43900D02*
X37500Y-43900D01*
X37500Y-43900D02*
X37500Y-44800D01*
X37500Y-44800D02*
X39100Y-44800D01*
X39100Y-44800D02*
X39100Y-43900D01*
X38950Y-44950D02*
X37550Y-44950D01*
X37550Y-44950D02*
X37550Y-45650D01*
X37550Y-45650D02*
X38950Y-45650D01*
X38950Y-45650D02*
X38950Y-44950D01*
G54D12*
X39225Y-47975D02*
X37275Y-47975D01*
X37275Y-47975D02*
X37275Y-46425D01*
X37275Y-46425D02*
X39225Y-46425D01*
X39225Y-46425D02*
X39225Y-47975D01*
X39086Y-47725D02*
G75*
G03X39086Y-47725I-111J0D01*
G74*
G01*
G54D10*
X40203Y-45459D02*
X40334Y-45271D01*
X40428Y-45459D02*
X40428Y-45065D01*
X40278Y-45065D01*
X40240Y-45084D01*
X40221Y-45103D01*
X40203Y-45140D01*
X40203Y-45196D01*
X40221Y-45234D01*
X40240Y-45253D01*
X40278Y-45271D01*
X40428Y-45271D01*
X39828Y-45459D02*
X40053Y-45459D01*
X39940Y-45459D02*
X39940Y-45065D01*
X39978Y-45121D01*
X40015Y-45159D01*
X40053Y-45178D01*
X39696Y-45065D02*
X39434Y-45065D01*
X39603Y-45459D01*
X41987Y-44646D02*
X42024Y-44628D01*
X42062Y-44590D01*
X42118Y-44534D01*
X42156Y-44515D01*
X42193Y-44515D01*
X42174Y-44609D02*
X42212Y-44590D01*
X42249Y-44553D01*
X42268Y-44478D01*
X42268Y-44346D01*
X42249Y-44271D01*
X42212Y-44234D01*
X42174Y-44215D01*
X42099Y-44215D01*
X42062Y-44234D01*
X42024Y-44271D01*
X42006Y-44346D01*
X42006Y-44478D01*
X42024Y-44553D01*
X42062Y-44590D01*
X42099Y-44609D01*
X42174Y-44609D01*
X41631Y-44609D02*
X41856Y-44609D01*
X41743Y-44609D02*
X41743Y-44215D01*
X41781Y-44271D01*
X41818Y-44309D01*
X41856Y-44328D01*
X46037Y-45446D02*
X46074Y-45428D01*
X46112Y-45390D01*
X46168Y-45334D01*
X46206Y-45315D01*
X46243Y-45315D01*
X46224Y-45409D02*
X46262Y-45390D01*
X46299Y-45353D01*
X46318Y-45278D01*
X46318Y-45146D01*
X46299Y-45071D01*
X46262Y-45034D01*
X46224Y-45015D01*
X46149Y-45015D01*
X46112Y-45034D01*
X46074Y-45071D01*
X46056Y-45146D01*
X46056Y-45278D01*
X46074Y-45353D01*
X46112Y-45390D01*
X46149Y-45409D01*
X46224Y-45409D01*
X45700Y-45015D02*
X45887Y-45015D01*
X45906Y-45203D01*
X45887Y-45184D01*
X45850Y-45165D01*
X45756Y-45165D01*
X45718Y-45184D01*
X45700Y-45203D01*
X45681Y-45240D01*
X45681Y-45334D01*
X45700Y-45371D01*
X45718Y-45390D01*
X45756Y-45409D01*
X45850Y-45409D01*
X45887Y-45390D01*
X45906Y-45371D01*
X40587Y-47446D02*
X40624Y-47428D01*
X40662Y-47390D01*
X40718Y-47334D01*
X40756Y-47315D01*
X40793Y-47315D01*
X40774Y-47409D02*
X40812Y-47390D01*
X40849Y-47353D01*
X40868Y-47278D01*
X40868Y-47146D01*
X40849Y-47071D01*
X40812Y-47034D01*
X40774Y-47015D01*
X40699Y-47015D01*
X40662Y-47034D01*
X40624Y-47071D01*
X40606Y-47146D01*
X40606Y-47278D01*
X40624Y-47353D01*
X40662Y-47390D01*
X40699Y-47409D01*
X40774Y-47409D01*
X40268Y-47015D02*
X40343Y-47015D01*
X40381Y-47034D01*
X40400Y-47053D01*
X40437Y-47109D01*
X40456Y-47184D01*
X40456Y-47334D01*
X40437Y-47371D01*
X40418Y-47390D01*
X40381Y-47409D01*
X40306Y-47409D01*
X40268Y-47390D01*
X40250Y-47371D01*
X40231Y-47334D01*
X40231Y-47240D01*
X40250Y-47203D01*
X40268Y-47184D01*
X40306Y-47165D01*
X40381Y-47165D01*
X40418Y-47184D01*
X40437Y-47203D01*
X40456Y-47240D01*
X46087Y-39546D02*
X46124Y-39528D01*
X46162Y-39490D01*
X46218Y-39434D01*
X46256Y-39415D01*
X46293Y-39415D01*
X46274Y-39509D02*
X46312Y-39490D01*
X46349Y-39453D01*
X46368Y-39378D01*
X46368Y-39246D01*
X46349Y-39171D01*
X46312Y-39134D01*
X46274Y-39115D01*
X46199Y-39115D01*
X46162Y-39134D01*
X46124Y-39171D01*
X46106Y-39246D01*
X46106Y-39378D01*
X46124Y-39453D01*
X46162Y-39490D01*
X46199Y-39509D01*
X46274Y-39509D01*
X45975Y-39115D02*
X45712Y-39115D01*
X45881Y-39509D01*
X43537Y-40757D02*
X43574Y-40739D01*
X43612Y-40701D01*
X43668Y-40645D01*
X43706Y-40626D01*
X43743Y-40626D01*
X43724Y-40720D02*
X43762Y-40701D01*
X43799Y-40664D01*
X43818Y-40589D01*
X43818Y-40457D01*
X43799Y-40382D01*
X43762Y-40345D01*
X43724Y-40326D01*
X43649Y-40326D01*
X43612Y-40345D01*
X43574Y-40382D01*
X43556Y-40457D01*
X43556Y-40589D01*
X43574Y-40664D01*
X43612Y-40701D01*
X43649Y-40720D01*
X43724Y-40720D01*
X43218Y-40457D02*
X43218Y-40720D01*
X43312Y-40307D02*
X43406Y-40589D01*
X43162Y-40589D01*
X46037Y-42546D02*
X46074Y-42528D01*
X46112Y-42490D01*
X46168Y-42434D01*
X46206Y-42415D01*
X46243Y-42415D01*
X46224Y-42509D02*
X46262Y-42490D01*
X46299Y-42453D01*
X46318Y-42378D01*
X46318Y-42246D01*
X46299Y-42171D01*
X46262Y-42134D01*
X46224Y-42115D01*
X46149Y-42115D01*
X46112Y-42134D01*
X46074Y-42171D01*
X46056Y-42246D01*
X46056Y-42378D01*
X46074Y-42453D01*
X46112Y-42490D01*
X46149Y-42509D01*
X46224Y-42509D01*
X45925Y-42115D02*
X45681Y-42115D01*
X45812Y-42265D01*
X45756Y-42265D01*
X45718Y-42284D01*
X45700Y-42303D01*
X45681Y-42340D01*
X45681Y-42434D01*
X45700Y-42471D01*
X45718Y-42490D01*
X45756Y-42509D01*
X45868Y-42509D01*
X45906Y-42490D01*
X45925Y-42471D01*
X42787Y-44296D02*
X42824Y-44278D01*
X42862Y-44240D01*
X42918Y-44184D01*
X42956Y-44165D01*
X42993Y-44165D01*
X42974Y-44259D02*
X43012Y-44240D01*
X43049Y-44203D01*
X43068Y-44128D01*
X43068Y-43996D01*
X43049Y-43921D01*
X43012Y-43884D01*
X42974Y-43865D01*
X42899Y-43865D01*
X42862Y-43884D01*
X42824Y-43921D01*
X42806Y-43996D01*
X42806Y-44128D01*
X42824Y-44203D01*
X42862Y-44240D01*
X42899Y-44259D01*
X42974Y-44259D01*
X42656Y-43903D02*
X42637Y-43884D01*
X42600Y-43865D01*
X42506Y-43865D01*
X42468Y-43884D01*
X42450Y-43903D01*
X42431Y-43940D01*
X42431Y-43978D01*
X42450Y-44034D01*
X42675Y-44259D01*
X42431Y-44259D01*
X50509Y-45659D02*
X50115Y-45659D01*
X50115Y-45753D01*
X50134Y-45809D01*
X50171Y-45846D01*
X50209Y-45865D01*
X50284Y-45884D01*
X50340Y-45884D01*
X50415Y-45865D01*
X50453Y-45846D01*
X50490Y-45809D01*
X50509Y-45753D01*
X50509Y-45659D01*
X50284Y-46109D02*
X50265Y-46071D01*
X50246Y-46053D01*
X50209Y-46034D01*
X50190Y-46034D01*
X50153Y-46053D01*
X50134Y-46071D01*
X50115Y-46109D01*
X50115Y-46184D01*
X50134Y-46221D01*
X50153Y-46240D01*
X50190Y-46259D01*
X50209Y-46259D01*
X50246Y-46240D01*
X50265Y-46221D01*
X50284Y-46184D01*
X50284Y-46109D01*
X50303Y-46071D01*
X50321Y-46053D01*
X50359Y-46034D01*
X50434Y-46034D01*
X50471Y-46053D01*
X50490Y-46071D01*
X50509Y-46109D01*
X50509Y-46184D01*
X50490Y-46221D01*
X50471Y-46240D01*
X50434Y-46259D01*
X50359Y-46259D01*
X50321Y-46240D01*
X50303Y-46221D01*
X50284Y-46184D01*
X53209Y-45609D02*
X52815Y-45609D01*
X52815Y-45703D01*
X52834Y-45759D01*
X52871Y-45796D01*
X52909Y-45815D01*
X52984Y-45834D01*
X53040Y-45834D01*
X53115Y-45815D01*
X53153Y-45796D01*
X53190Y-45759D01*
X53209Y-45703D01*
X53209Y-45609D01*
X52815Y-45965D02*
X52815Y-46228D01*
X53209Y-46059D01*
X46903Y-44409D02*
X47034Y-44221D01*
X47128Y-44409D02*
X47128Y-44015D01*
X46978Y-44015D01*
X46940Y-44034D01*
X46921Y-44053D01*
X46903Y-44090D01*
X46903Y-44146D01*
X46921Y-44184D01*
X46940Y-44203D01*
X46978Y-44221D01*
X47128Y-44221D01*
X46528Y-44409D02*
X46753Y-44409D01*
X46640Y-44409D02*
X46640Y-44015D01*
X46678Y-44071D01*
X46715Y-44109D01*
X46753Y-44128D01*
X46190Y-44146D02*
X46190Y-44409D01*
X46284Y-43996D02*
X46378Y-44278D01*
X46134Y-44278D01*
X42609Y-42746D02*
X42421Y-42615D01*
X42609Y-42521D02*
X42215Y-42521D01*
X42215Y-42671D01*
X42234Y-42709D01*
X42253Y-42728D01*
X42290Y-42746D01*
X42346Y-42746D01*
X42384Y-42728D01*
X42403Y-42709D01*
X42421Y-42671D01*
X42421Y-42521D01*
X42609Y-43121D02*
X42609Y-42896D01*
X42609Y-43009D02*
X42215Y-43009D01*
X42271Y-42971D01*
X42309Y-42934D01*
X42328Y-42896D01*
X42215Y-43478D02*
X42215Y-43290D01*
X42403Y-43271D01*
X42384Y-43290D01*
X42365Y-43328D01*
X42365Y-43421D01*
X42384Y-43459D01*
X42403Y-43478D01*
X42440Y-43496D01*
X42534Y-43496D01*
X42571Y-43478D01*
X42590Y-43459D01*
X42609Y-43421D01*
X42609Y-43328D01*
X42590Y-43290D01*
X42571Y-43271D01*
X46953Y-41509D02*
X47084Y-41321D01*
X47178Y-41509D02*
X47178Y-41115D01*
X47028Y-41115D01*
X46990Y-41134D01*
X46971Y-41153D01*
X46953Y-41190D01*
X46953Y-41246D01*
X46971Y-41284D01*
X46990Y-41303D01*
X47028Y-41321D01*
X47178Y-41321D01*
X46578Y-41509D02*
X46803Y-41509D01*
X46690Y-41509D02*
X46690Y-41115D01*
X46728Y-41171D01*
X46765Y-41209D01*
X46803Y-41228D01*
X46353Y-41284D02*
X46390Y-41265D01*
X46409Y-41246D01*
X46428Y-41209D01*
X46428Y-41190D01*
X46409Y-41153D01*
X46390Y-41134D01*
X46353Y-41115D01*
X46278Y-41115D01*
X46240Y-41134D01*
X46221Y-41153D01*
X46203Y-41190D01*
X46203Y-41209D01*
X46221Y-41246D01*
X46240Y-41265D01*
X46278Y-41284D01*
X46353Y-41284D01*
X46390Y-41303D01*
X46409Y-41321D01*
X46428Y-41359D01*
X46428Y-41434D01*
X46409Y-41471D01*
X46390Y-41490D01*
X46353Y-41509D01*
X46278Y-41509D01*
X46240Y-41490D01*
X46221Y-41471D01*
X46203Y-41434D01*
X46203Y-41359D01*
X46221Y-41321D01*
X46240Y-41303D01*
X46278Y-41284D01*
X41503Y-42009D02*
X41634Y-41821D01*
X41728Y-42009D02*
X41728Y-41615D01*
X41578Y-41615D01*
X41540Y-41634D01*
X41521Y-41653D01*
X41503Y-41690D01*
X41503Y-41746D01*
X41521Y-41784D01*
X41540Y-41803D01*
X41578Y-41821D01*
X41728Y-41821D01*
X41128Y-42009D02*
X41353Y-42009D01*
X41240Y-42009D02*
X41240Y-41615D01*
X41278Y-41671D01*
X41315Y-41709D01*
X41353Y-41728D01*
X40978Y-41653D02*
X40959Y-41634D01*
X40921Y-41615D01*
X40828Y-41615D01*
X40790Y-41634D01*
X40771Y-41653D01*
X40753Y-41690D01*
X40753Y-41728D01*
X40771Y-41784D01*
X40996Y-42009D01*
X40753Y-42009D01*
X43653Y-46909D02*
X43784Y-46721D01*
X43878Y-46909D02*
X43878Y-46515D01*
X43728Y-46515D01*
X43690Y-46534D01*
X43671Y-46553D01*
X43653Y-46590D01*
X43653Y-46646D01*
X43671Y-46684D01*
X43690Y-46703D01*
X43728Y-46721D01*
X43878Y-46721D01*
X43278Y-46909D02*
X43503Y-46909D01*
X43390Y-46909D02*
X43390Y-46515D01*
X43428Y-46571D01*
X43465Y-46609D01*
X43503Y-46628D01*
X43146Y-46515D02*
X42903Y-46515D01*
X43034Y-46665D01*
X42978Y-46665D01*
X42940Y-46684D01*
X42921Y-46703D01*
X42903Y-46740D01*
X42903Y-46834D01*
X42921Y-46871D01*
X42940Y-46890D01*
X42978Y-46909D01*
X43090Y-46909D01*
X43128Y-46890D01*
X43146Y-46871D01*
X46903Y-47459D02*
X47034Y-47271D01*
X47128Y-47459D02*
X47128Y-47065D01*
X46978Y-47065D01*
X46940Y-47084D01*
X46921Y-47103D01*
X46903Y-47140D01*
X46903Y-47196D01*
X46921Y-47234D01*
X46940Y-47253D01*
X46978Y-47271D01*
X47128Y-47271D01*
X46528Y-47459D02*
X46753Y-47459D01*
X46640Y-47459D02*
X46640Y-47065D01*
X46678Y-47121D01*
X46715Y-47159D01*
X46753Y-47178D01*
X46190Y-47065D02*
X46265Y-47065D01*
X46303Y-47084D01*
X46321Y-47103D01*
X46359Y-47159D01*
X46378Y-47234D01*
X46378Y-47384D01*
X46359Y-47421D01*
X46340Y-47440D01*
X46303Y-47459D01*
X46228Y-47459D01*
X46190Y-47440D01*
X46171Y-47421D01*
X46153Y-47384D01*
X46153Y-47290D01*
X46171Y-47253D01*
X46190Y-47234D01*
X46228Y-47215D01*
X46303Y-47215D01*
X46340Y-47234D01*
X46359Y-47253D01*
X46378Y-47290D01*
X36115Y-48509D02*
X36246Y-48321D01*
X36340Y-48509D02*
X36340Y-48115D01*
X36190Y-48115D01*
X36153Y-48134D01*
X36134Y-48153D01*
X36115Y-48190D01*
X36115Y-48246D01*
X36134Y-48284D01*
X36153Y-48303D01*
X36190Y-48321D01*
X36340Y-48321D01*
X35984Y-48115D02*
X35721Y-48115D01*
X35890Y-48509D01*
X36115Y-46309D02*
X36246Y-46121D01*
X36340Y-46309D02*
X36340Y-45915D01*
X36190Y-45915D01*
X36153Y-45934D01*
X36134Y-45953D01*
X36115Y-45990D01*
X36115Y-46046D01*
X36134Y-46084D01*
X36153Y-46103D01*
X36190Y-46121D01*
X36340Y-46121D01*
X35759Y-45915D02*
X35946Y-45915D01*
X35965Y-46103D01*
X35946Y-46084D01*
X35909Y-46065D01*
X35815Y-46065D01*
X35778Y-46084D01*
X35759Y-46103D01*
X35740Y-46140D01*
X35740Y-46234D01*
X35759Y-46271D01*
X35778Y-46290D01*
X35815Y-46309D01*
X35909Y-46309D01*
X35946Y-46290D01*
X35965Y-46271D01*
X36465Y-43559D02*
X36596Y-43371D01*
X36690Y-43559D02*
X36690Y-43165D01*
X36540Y-43165D01*
X36503Y-43184D01*
X36484Y-43203D01*
X36465Y-43240D01*
X36465Y-43296D01*
X36484Y-43334D01*
X36503Y-43353D01*
X36540Y-43371D01*
X36690Y-43371D01*
X36315Y-43203D02*
X36296Y-43184D01*
X36259Y-43165D01*
X36165Y-43165D01*
X36128Y-43184D01*
X36109Y-43203D01*
X36090Y-43240D01*
X36090Y-43278D01*
X36109Y-43334D01*
X36334Y-43559D01*
X36090Y-43559D01*
X51409Y-45546D02*
X51221Y-45415D01*
X51409Y-45321D02*
X51015Y-45321D01*
X51015Y-45471D01*
X51034Y-45509D01*
X51053Y-45528D01*
X51090Y-45546D01*
X51146Y-45546D01*
X51184Y-45528D01*
X51203Y-45509D01*
X51221Y-45471D01*
X51221Y-45321D01*
X51053Y-45696D02*
X51034Y-45715D01*
X51015Y-45753D01*
X51015Y-45846D01*
X51034Y-45884D01*
X51053Y-45903D01*
X51090Y-45921D01*
X51128Y-45921D01*
X51184Y-45903D01*
X51409Y-45678D01*
X51409Y-45921D01*
X51015Y-46278D02*
X51015Y-46090D01*
X51203Y-46071D01*
X51184Y-46090D01*
X51165Y-46128D01*
X51165Y-46221D01*
X51184Y-46259D01*
X51203Y-46278D01*
X51240Y-46296D01*
X51334Y-46296D01*
X51371Y-46278D01*
X51390Y-46259D01*
X51409Y-46221D01*
X51409Y-46128D01*
X51390Y-46090D01*
X51371Y-46071D01*
X37115Y-44421D02*
X37134Y-44440D01*
X37190Y-44459D01*
X37228Y-44459D01*
X37284Y-44440D01*
X37321Y-44403D01*
X37340Y-44365D01*
X37359Y-44290D01*
X37359Y-44234D01*
X37340Y-44159D01*
X37321Y-44121D01*
X37284Y-44084D01*
X37228Y-44065D01*
X37190Y-44065D01*
X37134Y-44084D01*
X37115Y-44103D01*
X36740Y-44459D02*
X36965Y-44459D01*
X36853Y-44459D02*
X36853Y-44065D01*
X36890Y-44121D01*
X36928Y-44159D01*
X36965Y-44178D01*
X37165Y-45471D02*
X37184Y-45490D01*
X37240Y-45509D01*
X37278Y-45509D01*
X37334Y-45490D01*
X37371Y-45453D01*
X37390Y-45415D01*
X37409Y-45340D01*
X37409Y-45284D01*
X37390Y-45209D01*
X37371Y-45171D01*
X37334Y-45134D01*
X37278Y-45115D01*
X37240Y-45115D01*
X37184Y-45134D01*
X37165Y-45153D01*
X37015Y-45153D02*
X36996Y-45134D01*
X36959Y-45115D01*
X36865Y-45115D01*
X36828Y-45134D01*
X36809Y-45153D01*
X36790Y-45190D01*
X36790Y-45228D01*
X36809Y-45284D01*
X37034Y-45509D01*
X36790Y-45509D01*
G54D13*
X40104Y-48461D02*
X40104Y-48785D01*
X40085Y-48823D01*
X40066Y-48842D01*
X40028Y-48861D01*
X39952Y-48861D01*
X39914Y-48842D01*
X39895Y-48823D01*
X39876Y-48785D01*
X39876Y-48461D01*
X39476Y-48861D02*
X39704Y-48861D01*
X39590Y-48861D02*
X39590Y-48461D01*
X39628Y-48519D01*
X39666Y-48557D01*
X39704Y-48576D01*
M02*
