G04 #@! TF.GenerationSoftware,KiCad,Pcbnew,5.1.2-f72e74a~84~ubuntu18.04.1*
G04 #@! TF.CreationDate,2019-05-27T13:07:39-06:00*
G04 #@! TF.ProjectId,sprinkler_node_buffer,73707269-6e6b-46c6-9572-5f6e6f64655f,rev?*
G04 #@! TF.SameCoordinates,Original*
G04 #@! TF.FileFunction,Legend,Bot*
G04 #@! TF.FilePolarity,Positive*
%FSLAX46Y46*%
G04 Gerber Fmt 4.6, Leading zero omitted, Abs format (unit mm)*
G04 Created by KiCad (PCBNEW 5.1.2-f72e74a~84~ubuntu18.04.1) date 2019-05-27 13:07:39*
%MOMM*%
%LPD*%
G04 APERTURE LIST*
%ADD10C,0.254000*%
%ADD11C,0.150000*%
G04 APERTURE END LIST*
D10*
X61028942Y-47858438D02*
X61028942Y-45826438D01*
X60158085Y-47858438D01*
X60158085Y-45826438D01*
X59214657Y-47858438D02*
X59359800Y-47761676D01*
X59432371Y-47664914D01*
X59504942Y-47471390D01*
X59504942Y-46890819D01*
X59432371Y-46697295D01*
X59359800Y-46600533D01*
X59214657Y-46503771D01*
X58996942Y-46503771D01*
X58851800Y-46600533D01*
X58779228Y-46697295D01*
X58706657Y-46890819D01*
X58706657Y-47471390D01*
X58779228Y-47664914D01*
X58851800Y-47761676D01*
X58996942Y-47858438D01*
X59214657Y-47858438D01*
X57400371Y-47858438D02*
X57400371Y-45826438D01*
X57400371Y-47761676D02*
X57545514Y-47858438D01*
X57835800Y-47858438D01*
X57980942Y-47761676D01*
X58053514Y-47664914D01*
X58126085Y-47471390D01*
X58126085Y-46890819D01*
X58053514Y-46697295D01*
X57980942Y-46600533D01*
X57835800Y-46503771D01*
X57545514Y-46503771D01*
X57400371Y-46600533D01*
X56094085Y-47761676D02*
X56239228Y-47858438D01*
X56529514Y-47858438D01*
X56674657Y-47761676D01*
X56747228Y-47568152D01*
X56747228Y-46794057D01*
X56674657Y-46600533D01*
X56529514Y-46503771D01*
X56239228Y-46503771D01*
X56094085Y-46600533D01*
X56021514Y-46794057D01*
X56021514Y-46987580D01*
X56747228Y-47181104D01*
X53699228Y-46794057D02*
X53481514Y-46890819D01*
X53408942Y-46987580D01*
X53336371Y-47181104D01*
X53336371Y-47471390D01*
X53408942Y-47664914D01*
X53481514Y-47761676D01*
X53626657Y-47858438D01*
X54207228Y-47858438D01*
X54207228Y-45826438D01*
X53699228Y-45826438D01*
X53554085Y-45923200D01*
X53481514Y-46019961D01*
X53408942Y-46213485D01*
X53408942Y-46407009D01*
X53481514Y-46600533D01*
X53554085Y-46697295D01*
X53699228Y-46794057D01*
X54207228Y-46794057D01*
X52030085Y-46503771D02*
X52030085Y-47858438D01*
X52683228Y-46503771D02*
X52683228Y-47568152D01*
X52610657Y-47761676D01*
X52465514Y-47858438D01*
X52247800Y-47858438D01*
X52102657Y-47761676D01*
X52030085Y-47664914D01*
X51522085Y-46503771D02*
X50941514Y-46503771D01*
X51304371Y-47858438D02*
X51304371Y-46116723D01*
X51231800Y-45923200D01*
X51086657Y-45826438D01*
X50941514Y-45826438D01*
X50651228Y-46503771D02*
X50070657Y-46503771D01*
X50433514Y-47858438D02*
X50433514Y-46116723D01*
X50360942Y-45923200D01*
X50215800Y-45826438D01*
X50070657Y-45826438D01*
X48982085Y-47761676D02*
X49127228Y-47858438D01*
X49417514Y-47858438D01*
X49562657Y-47761676D01*
X49635228Y-47568152D01*
X49635228Y-46794057D01*
X49562657Y-46600533D01*
X49417514Y-46503771D01*
X49127228Y-46503771D01*
X48982085Y-46600533D01*
X48909514Y-46794057D01*
X48909514Y-46987580D01*
X49635228Y-47181104D01*
X48256371Y-47858438D02*
X48256371Y-46503771D01*
X48256371Y-46890819D02*
X48183800Y-46697295D01*
X48111228Y-46600533D01*
X47966085Y-46503771D01*
X47820942Y-46503771D01*
X55186942Y-51160438D02*
X56057800Y-51160438D01*
X55622371Y-51160438D02*
X55622371Y-49128438D01*
X55767514Y-49418723D01*
X55912657Y-49612247D01*
X56057800Y-49709009D01*
X54533800Y-50966914D02*
X54461228Y-51063676D01*
X54533800Y-51160438D01*
X54606371Y-51063676D01*
X54533800Y-50966914D01*
X54533800Y-51160438D01*
X53517800Y-49128438D02*
X53372657Y-49128438D01*
X53227514Y-49225200D01*
X53154942Y-49321961D01*
X53082371Y-49515485D01*
X53009800Y-49902533D01*
X53009800Y-50386342D01*
X53082371Y-50773390D01*
X53154942Y-50966914D01*
X53227514Y-51063676D01*
X53372657Y-51160438D01*
X53517800Y-51160438D01*
X53662942Y-51063676D01*
X53735514Y-50966914D01*
X53808085Y-50773390D01*
X53880657Y-50386342D01*
X53880657Y-49902533D01*
X53808085Y-49515485D01*
X53735514Y-49321961D01*
X53662942Y-49225200D01*
X53517800Y-49128438D01*
D11*
X62229904Y-43873800D02*
X62325142Y-43826180D01*
X62468000Y-43826180D01*
X62610857Y-43873800D01*
X62706095Y-43969038D01*
X62753714Y-44064276D01*
X62801333Y-44254752D01*
X62801333Y-44397609D01*
X62753714Y-44588085D01*
X62706095Y-44683323D01*
X62610857Y-44778561D01*
X62468000Y-44826180D01*
X62372761Y-44826180D01*
X62229904Y-44778561D01*
X62182285Y-44730942D01*
X62182285Y-44397609D01*
X62372761Y-44397609D01*
X61753714Y-44826180D02*
X61753714Y-43826180D01*
X61182285Y-44826180D01*
X61182285Y-43826180D01*
X60706095Y-44826180D02*
X60706095Y-43826180D01*
X60468000Y-43826180D01*
X60325142Y-43873800D01*
X60229904Y-43969038D01*
X60182285Y-44064276D01*
X60134666Y-44254752D01*
X60134666Y-44397609D01*
X60182285Y-44588085D01*
X60229904Y-44683323D01*
X60325142Y-44778561D01*
X60468000Y-44826180D01*
X60706095Y-44826180D01*
X62804514Y-49449028D02*
X62042609Y-49449028D01*
X62423561Y-49829980D02*
X62423561Y-49068076D01*
X61090228Y-48829980D02*
X61566419Y-48829980D01*
X61614038Y-49306171D01*
X61566419Y-49258552D01*
X61471180Y-49210933D01*
X61233085Y-49210933D01*
X61137847Y-49258552D01*
X61090228Y-49306171D01*
X61042609Y-49401409D01*
X61042609Y-49639504D01*
X61090228Y-49734742D01*
X61137847Y-49782361D01*
X61233085Y-49829980D01*
X61471180Y-49829980D01*
X61566419Y-49782361D01*
X61614038Y-49734742D01*
X60756895Y-48829980D02*
X60423561Y-49829980D01*
X60090228Y-48829980D01*
X62516971Y-54913161D02*
X62374114Y-54960780D01*
X62136019Y-54960780D01*
X62040780Y-54913161D01*
X61993161Y-54865542D01*
X61945542Y-54770304D01*
X61945542Y-54675066D01*
X61993161Y-54579828D01*
X62040780Y-54532209D01*
X62136019Y-54484590D01*
X62326495Y-54436971D01*
X62421733Y-54389352D01*
X62469352Y-54341733D01*
X62516971Y-54246495D01*
X62516971Y-54151257D01*
X62469352Y-54056019D01*
X62421733Y-54008400D01*
X62326495Y-53960780D01*
X62088400Y-53960780D01*
X61945542Y-54008400D01*
X61516971Y-54960780D02*
X61516971Y-53960780D01*
X60516971Y-54008400D02*
X60612209Y-53960780D01*
X60755066Y-53960780D01*
X60897923Y-54008400D01*
X60993161Y-54103638D01*
X61040780Y-54198876D01*
X61088400Y-54389352D01*
X61088400Y-54532209D01*
X61040780Y-54722685D01*
X60993161Y-54817923D01*
X60897923Y-54913161D01*
X60755066Y-54960780D01*
X60659828Y-54960780D01*
X60516971Y-54913161D01*
X60469352Y-54865542D01*
X60469352Y-54532209D01*
X60659828Y-54532209D01*
X60278876Y-55056019D02*
X59516971Y-55056019D01*
X58755066Y-54008400D02*
X58850304Y-53960780D01*
X58993161Y-53960780D01*
X59136019Y-54008400D01*
X59231257Y-54103638D01*
X59278876Y-54198876D01*
X59326495Y-54389352D01*
X59326495Y-54532209D01*
X59278876Y-54722685D01*
X59231257Y-54817923D01*
X59136019Y-54913161D01*
X58993161Y-54960780D01*
X58897923Y-54960780D01*
X58755066Y-54913161D01*
X58707447Y-54865542D01*
X58707447Y-54532209D01*
X58897923Y-54532209D01*
X58278876Y-54960780D02*
X58278876Y-53960780D01*
X57707447Y-54960780D01*
X57707447Y-53960780D01*
X57231257Y-54960780D02*
X57231257Y-53960780D01*
X56993161Y-53960780D01*
X56850304Y-54008400D01*
X56755066Y-54103638D01*
X56707447Y-54198876D01*
X56659828Y-54389352D01*
X56659828Y-54532209D01*
X56707447Y-54722685D01*
X56755066Y-54817923D01*
X56850304Y-54913161D01*
X56993161Y-54960780D01*
X57231257Y-54960780D01*
X62567771Y-60043961D02*
X62424914Y-60091580D01*
X62186819Y-60091580D01*
X62091580Y-60043961D01*
X62043961Y-59996342D01*
X61996342Y-59901104D01*
X61996342Y-59805866D01*
X62043961Y-59710628D01*
X62091580Y-59663009D01*
X62186819Y-59615390D01*
X62377295Y-59567771D01*
X62472533Y-59520152D01*
X62520152Y-59472533D01*
X62567771Y-59377295D01*
X62567771Y-59282057D01*
X62520152Y-59186819D01*
X62472533Y-59139200D01*
X62377295Y-59091580D01*
X62139200Y-59091580D01*
X61996342Y-59139200D01*
X61567771Y-60091580D02*
X61567771Y-59091580D01*
X60567771Y-59139200D02*
X60663009Y-59091580D01*
X60805866Y-59091580D01*
X60948723Y-59139200D01*
X61043961Y-59234438D01*
X61091580Y-59329676D01*
X61139200Y-59520152D01*
X61139200Y-59663009D01*
X61091580Y-59853485D01*
X61043961Y-59948723D01*
X60948723Y-60043961D01*
X60805866Y-60091580D01*
X60710628Y-60091580D01*
X60567771Y-60043961D01*
X60520152Y-59996342D01*
X60520152Y-59663009D01*
X60710628Y-59663009D01*
X60329676Y-60186819D02*
X59567771Y-60186819D01*
X58805866Y-59139200D02*
X58901104Y-59091580D01*
X59043961Y-59091580D01*
X59186819Y-59139200D01*
X59282057Y-59234438D01*
X59329676Y-59329676D01*
X59377295Y-59520152D01*
X59377295Y-59663009D01*
X59329676Y-59853485D01*
X59282057Y-59948723D01*
X59186819Y-60043961D01*
X59043961Y-60091580D01*
X58948723Y-60091580D01*
X58805866Y-60043961D01*
X58758247Y-59996342D01*
X58758247Y-59663009D01*
X58948723Y-59663009D01*
X58329676Y-60091580D02*
X58329676Y-59091580D01*
X57758247Y-60091580D01*
X57758247Y-59091580D01*
X57282057Y-60091580D02*
X57282057Y-59091580D01*
X57043961Y-59091580D01*
X56901104Y-59139200D01*
X56805866Y-59234438D01*
X56758247Y-59329676D01*
X56710628Y-59520152D01*
X56710628Y-59663009D01*
X56758247Y-59853485D01*
X56805866Y-59948723D01*
X56901104Y-60043961D01*
X57043961Y-60091580D01*
X57282057Y-60091580D01*
X47747038Y-60548780D02*
X48080371Y-60072590D01*
X48318466Y-60548780D02*
X48318466Y-59548780D01*
X47937514Y-59548780D01*
X47842276Y-59596400D01*
X47794657Y-59644019D01*
X47747038Y-59739257D01*
X47747038Y-59882114D01*
X47794657Y-59977352D01*
X47842276Y-60024971D01*
X47937514Y-60072590D01*
X48318466Y-60072590D01*
X47413704Y-59548780D02*
X46747038Y-60548780D01*
X46747038Y-59548780D02*
X47413704Y-60548780D01*
X46175609Y-59548780D02*
X45985133Y-59548780D01*
X45889895Y-59596400D01*
X45794657Y-59691638D01*
X45747038Y-59882114D01*
X45747038Y-60215447D01*
X45794657Y-60405923D01*
X45889895Y-60501161D01*
X45985133Y-60548780D01*
X46175609Y-60548780D01*
X46270847Y-60501161D01*
X46366085Y-60405923D01*
X46413704Y-60215447D01*
X46413704Y-59882114D01*
X46366085Y-59691638D01*
X46270847Y-59596400D01*
X46175609Y-59548780D01*
X45318466Y-59548780D02*
X45318466Y-60358304D01*
X45270847Y-60453542D01*
X45223228Y-60501161D01*
X45127990Y-60548780D01*
X44937514Y-60548780D01*
X44842276Y-60501161D01*
X44794657Y-60453542D01*
X44747038Y-60358304D01*
X44747038Y-59548780D01*
X44413704Y-59548780D02*
X43842276Y-59548780D01*
X44127990Y-60548780D02*
X44127990Y-59548780D01*
X46597771Y-55265580D02*
X46931104Y-54789390D01*
X47169200Y-55265580D02*
X47169200Y-54265580D01*
X46788247Y-54265580D01*
X46693009Y-54313200D01*
X46645390Y-54360819D01*
X46597771Y-54456057D01*
X46597771Y-54598914D01*
X46645390Y-54694152D01*
X46693009Y-54741771D01*
X46788247Y-54789390D01*
X47169200Y-54789390D01*
X46264438Y-54265580D02*
X45597771Y-55265580D01*
X45597771Y-54265580D02*
X46264438Y-55265580D01*
X45216819Y-55265580D02*
X45216819Y-54265580D01*
X44740628Y-55265580D02*
X44740628Y-54265580D01*
X44169200Y-55265580D01*
X44169200Y-54265580D01*
X48469276Y-49109380D02*
X47897847Y-49109380D01*
X48183561Y-50109380D02*
X48183561Y-49109380D01*
X47659752Y-49109380D02*
X46993085Y-50109380D01*
X46993085Y-49109380D02*
X47659752Y-50109380D01*
X46421657Y-49109380D02*
X46231180Y-49109380D01*
X46135942Y-49157000D01*
X46040704Y-49252238D01*
X45993085Y-49442714D01*
X45993085Y-49776047D01*
X46040704Y-49966523D01*
X46135942Y-50061761D01*
X46231180Y-50109380D01*
X46421657Y-50109380D01*
X46516895Y-50061761D01*
X46612133Y-49966523D01*
X46659752Y-49776047D01*
X46659752Y-49442714D01*
X46612133Y-49252238D01*
X46516895Y-49157000D01*
X46421657Y-49109380D01*
X45564514Y-49109380D02*
X45564514Y-49918904D01*
X45516895Y-50014142D01*
X45469276Y-50061761D01*
X45374038Y-50109380D01*
X45183561Y-50109380D01*
X45088323Y-50061761D01*
X45040704Y-50014142D01*
X44993085Y-49918904D01*
X44993085Y-49109380D01*
X44659752Y-49109380D02*
X44088323Y-49109380D01*
X44374038Y-50109380D02*
X44374038Y-49109380D01*
X47193009Y-44054780D02*
X46621580Y-44054780D01*
X46907295Y-45054780D02*
X46907295Y-44054780D01*
X46383485Y-44054780D02*
X45716819Y-45054780D01*
X45716819Y-44054780D02*
X46383485Y-45054780D01*
X45335866Y-45054780D02*
X45335866Y-44054780D01*
X44859676Y-45054780D02*
X44859676Y-44054780D01*
X44288247Y-45054780D01*
X44288247Y-44054780D01*
M02*
