G04 #@! TF.GenerationSoftware,KiCad,Pcbnew,5.1.2-f72e74a~84~ubuntu18.04.1*
G04 #@! TF.CreationDate,2019-05-27T13:07:39-06:00*
G04 #@! TF.ProjectId,sprinkler_node_buffer,73707269-6e6b-46c6-9572-5f6e6f64655f,rev?*
G04 #@! TF.SameCoordinates,Original*
G04 #@! TF.FileFunction,Legend,Top*
G04 #@! TF.FilePolarity,Positive*
%FSLAX46Y46*%
G04 Gerber Fmt 4.6, Leading zero omitted, Abs format (unit mm)*
G04 Created by KiCad (PCBNEW 5.1.2-f72e74a~84~ubuntu18.04.1) date 2019-05-27 13:07:39*
%MOMM*%
%LPD*%
G04 APERTURE LIST*
%ADD10C,0.150000*%
%ADD11C,0.203200*%
%ADD12C,0.300000*%
G04 APERTURE END LIST*
D10*
X46594828Y-53309780D02*
X46261495Y-52833590D01*
X46023400Y-53309780D02*
X46023400Y-52309780D01*
X46404352Y-52309780D01*
X46499590Y-52357400D01*
X46547209Y-52405019D01*
X46594828Y-52500257D01*
X46594828Y-52643114D01*
X46547209Y-52738352D01*
X46499590Y-52785971D01*
X46404352Y-52833590D01*
X46023400Y-52833590D01*
X46928161Y-52309780D02*
X47594828Y-53309780D01*
X47594828Y-52309780D02*
X46928161Y-53309780D01*
X47975780Y-53309780D02*
X47975780Y-52309780D01*
X48451971Y-53309780D02*
X48451971Y-52309780D01*
X49023400Y-53309780D01*
X49023400Y-52309780D01*
X57820085Y-48534628D02*
X58581990Y-48534628D01*
X58201038Y-48915580D02*
X58201038Y-48153676D01*
X59534371Y-47915580D02*
X59058180Y-47915580D01*
X59010561Y-48391771D01*
X59058180Y-48344152D01*
X59153419Y-48296533D01*
X59391514Y-48296533D01*
X59486752Y-48344152D01*
X59534371Y-48391771D01*
X59581990Y-48487009D01*
X59581990Y-48725104D01*
X59534371Y-48820342D01*
X59486752Y-48867961D01*
X59391514Y-48915580D01*
X59153419Y-48915580D01*
X59058180Y-48867961D01*
X59010561Y-48820342D01*
X59867704Y-47915580D02*
X60201038Y-48915580D01*
X60534371Y-47915580D01*
X58293095Y-42172000D02*
X58197857Y-42124380D01*
X58055000Y-42124380D01*
X57912142Y-42172000D01*
X57816904Y-42267238D01*
X57769285Y-42362476D01*
X57721666Y-42552952D01*
X57721666Y-42695809D01*
X57769285Y-42886285D01*
X57816904Y-42981523D01*
X57912142Y-43076761D01*
X58055000Y-43124380D01*
X58150238Y-43124380D01*
X58293095Y-43076761D01*
X58340714Y-43029142D01*
X58340714Y-42695809D01*
X58150238Y-42695809D01*
X58769285Y-43124380D02*
X58769285Y-42124380D01*
X59340714Y-43124380D01*
X59340714Y-42124380D01*
X59816904Y-43124380D02*
X59816904Y-42124380D01*
X60055000Y-42124380D01*
X60197857Y-42172000D01*
X60293095Y-42267238D01*
X60340714Y-42362476D01*
X60388333Y-42552952D01*
X60388333Y-42695809D01*
X60340714Y-42886285D01*
X60293095Y-42981523D01*
X60197857Y-43076761D01*
X60055000Y-43124380D01*
X59816904Y-43124380D01*
X46253590Y-42098980D02*
X46825019Y-42098980D01*
X46539304Y-43098980D02*
X46539304Y-42098980D01*
X47063114Y-42098980D02*
X47729780Y-43098980D01*
X47729780Y-42098980D02*
X47063114Y-43098980D01*
X48110733Y-43098980D02*
X48110733Y-42098980D01*
X48586923Y-43098980D02*
X48586923Y-42098980D01*
X49158352Y-43098980D01*
X49158352Y-42098980D01*
X69778000Y-61936000D02*
X70778000Y-60936000D01*
X70778000Y-60936000D02*
X69778000Y-59936000D01*
X60778000Y-61936000D02*
X69778000Y-61936000D01*
X69778000Y-61936000D02*
X69778000Y-41936000D01*
X69778000Y-41936000D02*
X60778000Y-41936000D01*
X60778000Y-41936000D02*
X60778000Y-61936000D01*
D11*
X56896000Y-61341000D02*
X56896000Y-59563000D01*
X60452000Y-61341000D02*
X56896000Y-61341000D01*
X60452000Y-59563000D02*
X60452000Y-61341000D01*
X56896000Y-59563000D02*
X60452000Y-59563000D01*
X56896000Y-57531000D02*
X60452000Y-57531000D01*
X60452000Y-57531000D02*
X60452000Y-59309000D01*
X60452000Y-59309000D02*
X56896000Y-59309000D01*
X56896000Y-59309000D02*
X56896000Y-57531000D01*
X50038000Y-43561000D02*
X50038000Y-45339000D01*
X46482000Y-43561000D02*
X50038000Y-43561000D01*
X46482000Y-45339000D02*
X46482000Y-43561000D01*
X50038000Y-45339000D02*
X46482000Y-45339000D01*
X50038000Y-55245000D02*
X46482000Y-55245000D01*
X46482000Y-55245000D02*
X46482000Y-53467000D01*
X46482000Y-53467000D02*
X50038000Y-53467000D01*
X50038000Y-53467000D02*
X50038000Y-55245000D01*
X46482000Y-59563000D02*
X50038000Y-59563000D01*
X50038000Y-59563000D02*
X50038000Y-61341000D01*
X50038000Y-61341000D02*
X46482000Y-61341000D01*
X46482000Y-61341000D02*
X46482000Y-59563000D01*
X46482000Y-51435000D02*
X46482000Y-49657000D01*
X50038000Y-51435000D02*
X46482000Y-51435000D01*
X50038000Y-49657000D02*
X50038000Y-51435000D01*
X46482000Y-49657000D02*
X50038000Y-49657000D01*
X49914000Y-47382000D02*
X47114000Y-47382000D01*
X49914000Y-45582000D02*
X47114000Y-45582000D01*
X47879000Y-47382000D02*
X47879000Y-45582000D01*
X47879000Y-57288000D02*
X47879000Y-55488000D01*
X49914000Y-55488000D02*
X47114000Y-55488000D01*
X49914000Y-57288000D02*
X47114000Y-57288000D01*
X49403000Y-49414000D02*
X49403000Y-47614000D01*
X51438000Y-47614000D02*
X48638000Y-47614000D01*
X51438000Y-49414000D02*
X48638000Y-49414000D01*
X51184000Y-59320000D02*
X48384000Y-59320000D01*
X51184000Y-57520000D02*
X48384000Y-57520000D01*
X49149000Y-59320000D02*
X49149000Y-57520000D01*
D10*
X45775000Y-61950000D02*
X45775000Y-41950000D01*
X36775000Y-61950000D02*
X45775000Y-61950000D01*
X36775000Y-41950000D02*
X36775000Y-61950000D01*
X45775000Y-41950000D02*
X36775000Y-41950000D01*
X35775000Y-42950000D02*
X36775000Y-43950000D01*
X36775000Y-41950000D02*
X35775000Y-42950000D01*
D11*
X55618000Y-52308000D02*
X55618000Y-53308000D01*
X55618000Y-53308000D02*
X56868000Y-53308000D01*
X55618000Y-50308000D02*
X55618000Y-49308000D01*
X55618000Y-49308000D02*
X56868000Y-49308000D01*
X50927000Y-47244000D02*
X50927000Y-43688000D01*
X50927000Y-43688000D02*
X52705000Y-43688000D01*
X52705000Y-43688000D02*
X52705000Y-47244000D01*
X52705000Y-47244000D02*
X50927000Y-47244000D01*
X52705000Y-53340000D02*
X52705000Y-56896000D01*
X52705000Y-56896000D02*
X50927000Y-56896000D01*
X50927000Y-56896000D02*
X50927000Y-53340000D01*
X50927000Y-53340000D02*
X52705000Y-53340000D01*
X58547000Y-49276000D02*
X60325000Y-49276000D01*
X58547000Y-52832000D02*
X58547000Y-49276000D01*
X60325000Y-52832000D02*
X58547000Y-52832000D01*
X60325000Y-49276000D02*
X60325000Y-52832000D01*
X60452000Y-45339000D02*
X56896000Y-45339000D01*
X56896000Y-45339000D02*
X56896000Y-43561000D01*
X56896000Y-43561000D02*
X60452000Y-43561000D01*
X60452000Y-43561000D02*
X60452000Y-45339000D01*
X53086000Y-45339000D02*
X53086000Y-43561000D01*
X56642000Y-45339000D02*
X53086000Y-45339000D01*
X56642000Y-43561000D02*
X56642000Y-45339000D01*
X53086000Y-43561000D02*
X56642000Y-43561000D01*
X60452000Y-55245000D02*
X56896000Y-55245000D01*
X56896000Y-55245000D02*
X56896000Y-53467000D01*
X56896000Y-53467000D02*
X60452000Y-53467000D01*
X60452000Y-53467000D02*
X60452000Y-55245000D01*
X53086000Y-55245000D02*
X53086000Y-53467000D01*
X56642000Y-55245000D02*
X53086000Y-55245000D01*
X56642000Y-53467000D02*
X56642000Y-55245000D01*
X53086000Y-53467000D02*
X56642000Y-53467000D01*
X53848000Y-49657000D02*
X53848000Y-51435000D01*
X50292000Y-49657000D02*
X53848000Y-49657000D01*
X50292000Y-51435000D02*
X50292000Y-49657000D01*
X53848000Y-51435000D02*
X50292000Y-51435000D01*
X53848000Y-61341000D02*
X50292000Y-61341000D01*
X50292000Y-61341000D02*
X50292000Y-59563000D01*
X50292000Y-59563000D02*
X53848000Y-59563000D01*
X53848000Y-59563000D02*
X53848000Y-61341000D01*
D12*
X56510000Y-46098000D02*
G75*
G03X56510000Y-46098000I-100000J0D01*
G01*
D10*
X53010000Y-46698000D02*
X53010000Y-48298000D01*
X56210000Y-46698000D02*
X56210000Y-48298000D01*
X56464000Y-56604000D02*
X56464000Y-58204000D01*
X53264000Y-56604000D02*
X53264000Y-58204000D01*
D12*
X56764000Y-56004000D02*
G75*
G03X56764000Y-56004000I-100000J0D01*
G01*
D11*
X60452000Y-55499000D02*
X60452000Y-57277000D01*
X56896000Y-55499000D02*
X60452000Y-55499000D01*
X56896000Y-57277000D02*
X56896000Y-55499000D01*
X60452000Y-57277000D02*
X56896000Y-57277000D01*
X60452000Y-47371000D02*
X56896000Y-47371000D01*
X56896000Y-47371000D02*
X56896000Y-45593000D01*
X56896000Y-45593000D02*
X60452000Y-45593000D01*
X60452000Y-45593000D02*
X60452000Y-47371000D01*
D10*
X67444666Y-62388380D02*
X67444666Y-63102666D01*
X67397047Y-63245523D01*
X67301809Y-63340761D01*
X67158952Y-63388380D01*
X67063714Y-63388380D01*
X67873238Y-62483619D02*
X67920857Y-62436000D01*
X68016095Y-62388380D01*
X68254190Y-62388380D01*
X68349428Y-62436000D01*
X68397047Y-62483619D01*
X68444666Y-62578857D01*
X68444666Y-62674095D01*
X68397047Y-62816952D01*
X67825619Y-63388380D01*
X68444666Y-63388380D01*
X58583533Y-60859942D02*
X58535914Y-60907561D01*
X58393057Y-60955180D01*
X58297819Y-60955180D01*
X58154961Y-60907561D01*
X58059723Y-60812323D01*
X58012104Y-60717085D01*
X57964485Y-60526609D01*
X57964485Y-60383752D01*
X58012104Y-60193276D01*
X58059723Y-60098038D01*
X58154961Y-60002800D01*
X58297819Y-59955180D01*
X58393057Y-59955180D01*
X58535914Y-60002800D01*
X58583533Y-60050419D01*
X59535914Y-60955180D02*
X58964485Y-60955180D01*
X59250200Y-60955180D02*
X59250200Y-59955180D01*
X59154961Y-60098038D01*
X59059723Y-60193276D01*
X58964485Y-60240895D01*
X58507333Y-58827942D02*
X58459714Y-58875561D01*
X58316857Y-58923180D01*
X58221619Y-58923180D01*
X58078761Y-58875561D01*
X57983523Y-58780323D01*
X57935904Y-58685085D01*
X57888285Y-58494609D01*
X57888285Y-58351752D01*
X57935904Y-58161276D01*
X57983523Y-58066038D01*
X58078761Y-57970800D01*
X58221619Y-57923180D01*
X58316857Y-57923180D01*
X58459714Y-57970800D01*
X58507333Y-58018419D01*
X58888285Y-58018419D02*
X58935904Y-57970800D01*
X59031142Y-57923180D01*
X59269238Y-57923180D01*
X59364476Y-57970800D01*
X59412095Y-58018419D01*
X59459714Y-58113657D01*
X59459714Y-58208895D01*
X59412095Y-58351752D01*
X58840666Y-58923180D01*
X59459714Y-58923180D01*
X48118733Y-44807142D02*
X48071114Y-44854761D01*
X47928257Y-44902380D01*
X47833019Y-44902380D01*
X47690161Y-44854761D01*
X47594923Y-44759523D01*
X47547304Y-44664285D01*
X47499685Y-44473809D01*
X47499685Y-44330952D01*
X47547304Y-44140476D01*
X47594923Y-44045238D01*
X47690161Y-43950000D01*
X47833019Y-43902380D01*
X47928257Y-43902380D01*
X48071114Y-43950000D01*
X48118733Y-43997619D01*
X48452066Y-43902380D02*
X49071114Y-43902380D01*
X48737780Y-44283333D01*
X48880638Y-44283333D01*
X48975876Y-44330952D01*
X49023495Y-44378571D01*
X49071114Y-44473809D01*
X49071114Y-44711904D01*
X49023495Y-44807142D01*
X48975876Y-44854761D01*
X48880638Y-44902380D01*
X48594923Y-44902380D01*
X48499685Y-44854761D01*
X48452066Y-44807142D01*
X48093333Y-54814742D02*
X48045714Y-54862361D01*
X47902857Y-54909980D01*
X47807619Y-54909980D01*
X47664761Y-54862361D01*
X47569523Y-54767123D01*
X47521904Y-54671885D01*
X47474285Y-54481409D01*
X47474285Y-54338552D01*
X47521904Y-54148076D01*
X47569523Y-54052838D01*
X47664761Y-53957600D01*
X47807619Y-53909980D01*
X47902857Y-53909980D01*
X48045714Y-53957600D01*
X48093333Y-54005219D01*
X48950476Y-54243314D02*
X48950476Y-54909980D01*
X48712380Y-53862361D02*
X48474285Y-54576647D01*
X49093333Y-54576647D01*
X48067933Y-60783742D02*
X48020314Y-60831361D01*
X47877457Y-60878980D01*
X47782219Y-60878980D01*
X47639361Y-60831361D01*
X47544123Y-60736123D01*
X47496504Y-60640885D01*
X47448885Y-60450409D01*
X47448885Y-60307552D01*
X47496504Y-60117076D01*
X47544123Y-60021838D01*
X47639361Y-59926600D01*
X47782219Y-59878980D01*
X47877457Y-59878980D01*
X48020314Y-59926600D01*
X48067933Y-59974219D01*
X48972695Y-59878980D02*
X48496504Y-59878980D01*
X48448885Y-60355171D01*
X48496504Y-60307552D01*
X48591742Y-60259933D01*
X48829838Y-60259933D01*
X48925076Y-60307552D01*
X48972695Y-60355171D01*
X49020314Y-60450409D01*
X49020314Y-60688504D01*
X48972695Y-60783742D01*
X48925076Y-60831361D01*
X48829838Y-60878980D01*
X48591742Y-60878980D01*
X48496504Y-60831361D01*
X48448885Y-60783742D01*
X48144133Y-50928542D02*
X48096514Y-50976161D01*
X47953657Y-51023780D01*
X47858419Y-51023780D01*
X47715561Y-50976161D01*
X47620323Y-50880923D01*
X47572704Y-50785685D01*
X47525085Y-50595209D01*
X47525085Y-50452352D01*
X47572704Y-50261876D01*
X47620323Y-50166638D01*
X47715561Y-50071400D01*
X47858419Y-50023780D01*
X47953657Y-50023780D01*
X48096514Y-50071400D01*
X48144133Y-50119019D01*
X49001276Y-50023780D02*
X48810800Y-50023780D01*
X48715561Y-50071400D01*
X48667942Y-50119019D01*
X48572704Y-50261876D01*
X48525085Y-50452352D01*
X48525085Y-50833304D01*
X48572704Y-50928542D01*
X48620323Y-50976161D01*
X48715561Y-51023780D01*
X48906038Y-51023780D01*
X49001276Y-50976161D01*
X49048895Y-50928542D01*
X49096514Y-50833304D01*
X49096514Y-50595209D01*
X49048895Y-50499971D01*
X49001276Y-50452352D01*
X48906038Y-50404733D01*
X48715561Y-50404733D01*
X48620323Y-50452352D01*
X48572704Y-50499971D01*
X48525085Y-50595209D01*
X48106104Y-47112180D02*
X48106104Y-46112180D01*
X48344200Y-46112180D01*
X48487057Y-46159800D01*
X48582295Y-46255038D01*
X48629914Y-46350276D01*
X48677533Y-46540752D01*
X48677533Y-46683609D01*
X48629914Y-46874085D01*
X48582295Y-46969323D01*
X48487057Y-47064561D01*
X48344200Y-47112180D01*
X48106104Y-47112180D01*
X49629914Y-47112180D02*
X49058485Y-47112180D01*
X49344200Y-47112180D02*
X49344200Y-46112180D01*
X49248961Y-46255038D01*
X49153723Y-46350276D01*
X49058485Y-46397895D01*
X48182304Y-56891180D02*
X48182304Y-55891180D01*
X48420400Y-55891180D01*
X48563257Y-55938800D01*
X48658495Y-56034038D01*
X48706114Y-56129276D01*
X48753733Y-56319752D01*
X48753733Y-56462609D01*
X48706114Y-56653085D01*
X48658495Y-56748323D01*
X48563257Y-56843561D01*
X48420400Y-56891180D01*
X48182304Y-56891180D01*
X49134685Y-55986419D02*
X49182304Y-55938800D01*
X49277542Y-55891180D01*
X49515638Y-55891180D01*
X49610876Y-55938800D01*
X49658495Y-55986419D01*
X49706114Y-56081657D01*
X49706114Y-56176895D01*
X49658495Y-56319752D01*
X49087066Y-56891180D01*
X49706114Y-56891180D01*
X49731704Y-49042580D02*
X49731704Y-48042580D01*
X49969800Y-48042580D01*
X50112657Y-48090200D01*
X50207895Y-48185438D01*
X50255514Y-48280676D01*
X50303133Y-48471152D01*
X50303133Y-48614009D01*
X50255514Y-48804485D01*
X50207895Y-48899723D01*
X50112657Y-48994961D01*
X49969800Y-49042580D01*
X49731704Y-49042580D01*
X50636466Y-48042580D02*
X51255514Y-48042580D01*
X50922180Y-48423533D01*
X51065038Y-48423533D01*
X51160276Y-48471152D01*
X51207895Y-48518771D01*
X51255514Y-48614009D01*
X51255514Y-48852104D01*
X51207895Y-48947342D01*
X51160276Y-48994961D01*
X51065038Y-49042580D01*
X50779323Y-49042580D01*
X50684085Y-48994961D01*
X50636466Y-48947342D01*
X49503104Y-58923180D02*
X49503104Y-57923180D01*
X49741200Y-57923180D01*
X49884057Y-57970800D01*
X49979295Y-58066038D01*
X50026914Y-58161276D01*
X50074533Y-58351752D01*
X50074533Y-58494609D01*
X50026914Y-58685085D01*
X49979295Y-58780323D01*
X49884057Y-58875561D01*
X49741200Y-58923180D01*
X49503104Y-58923180D01*
X50931676Y-58256514D02*
X50931676Y-58923180D01*
X50693580Y-57875561D02*
X50455485Y-58589847D01*
X51074533Y-58589847D01*
X38441666Y-40402380D02*
X38441666Y-41116666D01*
X38394047Y-41259523D01*
X38298809Y-41354761D01*
X38155952Y-41402380D01*
X38060714Y-41402380D01*
X39441666Y-41402380D02*
X38870238Y-41402380D01*
X39155952Y-41402380D02*
X39155952Y-40402380D01*
X39060714Y-40545238D01*
X38965476Y-40640476D01*
X38870238Y-40688095D01*
X56114961Y-51906419D02*
X56019723Y-51858800D01*
X55924485Y-51763561D01*
X55781628Y-51620704D01*
X55686390Y-51573085D01*
X55591152Y-51573085D01*
X55638771Y-51811180D02*
X55543533Y-51763561D01*
X55448295Y-51668323D01*
X55400676Y-51477847D01*
X55400676Y-51144514D01*
X55448295Y-50954038D01*
X55543533Y-50858800D01*
X55638771Y-50811180D01*
X55829247Y-50811180D01*
X55924485Y-50858800D01*
X56019723Y-50954038D01*
X56067342Y-51144514D01*
X56067342Y-51477847D01*
X56019723Y-51668323D01*
X55924485Y-51763561D01*
X55829247Y-51811180D01*
X55638771Y-51811180D01*
X57019723Y-51811180D02*
X56448295Y-51811180D01*
X56734009Y-51811180D02*
X56734009Y-50811180D01*
X56638771Y-50954038D01*
X56543533Y-51049276D01*
X56448295Y-51096895D01*
X52268380Y-45658066D02*
X51792190Y-45991400D01*
X52268380Y-46229495D02*
X51268380Y-46229495D01*
X51268380Y-45848542D01*
X51316000Y-45753304D01*
X51363619Y-45705685D01*
X51458857Y-45658066D01*
X51601714Y-45658066D01*
X51696952Y-45705685D01*
X51744571Y-45753304D01*
X51792190Y-45848542D01*
X51792190Y-46229495D01*
X52268380Y-44705685D02*
X52268380Y-45277114D01*
X52268380Y-44991400D02*
X51268380Y-44991400D01*
X51411238Y-45086638D01*
X51506476Y-45181876D01*
X51554095Y-45277114D01*
X52395380Y-55284666D02*
X51919190Y-55618000D01*
X52395380Y-55856095D02*
X51395380Y-55856095D01*
X51395380Y-55475142D01*
X51443000Y-55379904D01*
X51490619Y-55332285D01*
X51585857Y-55284666D01*
X51728714Y-55284666D01*
X51823952Y-55332285D01*
X51871571Y-55379904D01*
X51919190Y-55475142D01*
X51919190Y-55856095D01*
X51490619Y-54903714D02*
X51443000Y-54856095D01*
X51395380Y-54760857D01*
X51395380Y-54522761D01*
X51443000Y-54427523D01*
X51490619Y-54379904D01*
X51585857Y-54332285D01*
X51681095Y-54332285D01*
X51823952Y-54379904D01*
X52395380Y-54951333D01*
X52395380Y-54332285D01*
X60015380Y-51322266D02*
X59539190Y-51655600D01*
X60015380Y-51893695D02*
X59015380Y-51893695D01*
X59015380Y-51512742D01*
X59063000Y-51417504D01*
X59110619Y-51369885D01*
X59205857Y-51322266D01*
X59348714Y-51322266D01*
X59443952Y-51369885D01*
X59491571Y-51417504D01*
X59539190Y-51512742D01*
X59539190Y-51893695D01*
X59015380Y-50988933D02*
X59015380Y-50369885D01*
X59396333Y-50703219D01*
X59396333Y-50560361D01*
X59443952Y-50465123D01*
X59491571Y-50417504D01*
X59586809Y-50369885D01*
X59824904Y-50369885D01*
X59920142Y-50417504D01*
X59967761Y-50465123D01*
X60015380Y-50560361D01*
X60015380Y-50846076D01*
X59967761Y-50941314D01*
X59920142Y-50988933D01*
X58507333Y-44953180D02*
X58174000Y-44476990D01*
X57935904Y-44953180D02*
X57935904Y-43953180D01*
X58316857Y-43953180D01*
X58412095Y-44000800D01*
X58459714Y-44048419D01*
X58507333Y-44143657D01*
X58507333Y-44286514D01*
X58459714Y-44381752D01*
X58412095Y-44429371D01*
X58316857Y-44476990D01*
X57935904Y-44476990D01*
X59364476Y-44286514D02*
X59364476Y-44953180D01*
X59126380Y-43905561D02*
X58888285Y-44619847D01*
X59507333Y-44619847D01*
X54748133Y-44902380D02*
X54414800Y-44426190D01*
X54176704Y-44902380D02*
X54176704Y-43902380D01*
X54557657Y-43902380D01*
X54652895Y-43950000D01*
X54700514Y-43997619D01*
X54748133Y-44092857D01*
X54748133Y-44235714D01*
X54700514Y-44330952D01*
X54652895Y-44378571D01*
X54557657Y-44426190D01*
X54176704Y-44426190D01*
X55652895Y-43902380D02*
X55176704Y-43902380D01*
X55129085Y-44378571D01*
X55176704Y-44330952D01*
X55271942Y-44283333D01*
X55510038Y-44283333D01*
X55605276Y-44330952D01*
X55652895Y-44378571D01*
X55700514Y-44473809D01*
X55700514Y-44711904D01*
X55652895Y-44807142D01*
X55605276Y-44854761D01*
X55510038Y-44902380D01*
X55271942Y-44902380D01*
X55176704Y-44854761D01*
X55129085Y-44807142D01*
X58507333Y-54833780D02*
X58174000Y-54357590D01*
X57935904Y-54833780D02*
X57935904Y-53833780D01*
X58316857Y-53833780D01*
X58412095Y-53881400D01*
X58459714Y-53929019D01*
X58507333Y-54024257D01*
X58507333Y-54167114D01*
X58459714Y-54262352D01*
X58412095Y-54309971D01*
X58316857Y-54357590D01*
X57935904Y-54357590D01*
X59364476Y-53833780D02*
X59174000Y-53833780D01*
X59078761Y-53881400D01*
X59031142Y-53929019D01*
X58935904Y-54071876D01*
X58888285Y-54262352D01*
X58888285Y-54643304D01*
X58935904Y-54738542D01*
X58983523Y-54786161D01*
X59078761Y-54833780D01*
X59269238Y-54833780D01*
X59364476Y-54786161D01*
X59412095Y-54738542D01*
X59459714Y-54643304D01*
X59459714Y-54405209D01*
X59412095Y-54309971D01*
X59364476Y-54262352D01*
X59269238Y-54214733D01*
X59078761Y-54214733D01*
X58983523Y-54262352D01*
X58935904Y-54309971D01*
X58888285Y-54405209D01*
X54773533Y-54859180D02*
X54440200Y-54382990D01*
X54202104Y-54859180D02*
X54202104Y-53859180D01*
X54583057Y-53859180D01*
X54678295Y-53906800D01*
X54725914Y-53954419D01*
X54773533Y-54049657D01*
X54773533Y-54192514D01*
X54725914Y-54287752D01*
X54678295Y-54335371D01*
X54583057Y-54382990D01*
X54202104Y-54382990D01*
X55106866Y-53859180D02*
X55773533Y-53859180D01*
X55344961Y-54859180D01*
X51928733Y-50972980D02*
X51595400Y-50496790D01*
X51357304Y-50972980D02*
X51357304Y-49972980D01*
X51738257Y-49972980D01*
X51833495Y-50020600D01*
X51881114Y-50068219D01*
X51928733Y-50163457D01*
X51928733Y-50306314D01*
X51881114Y-50401552D01*
X51833495Y-50449171D01*
X51738257Y-50496790D01*
X51357304Y-50496790D01*
X52500161Y-50401552D02*
X52404923Y-50353933D01*
X52357304Y-50306314D01*
X52309685Y-50211076D01*
X52309685Y-50163457D01*
X52357304Y-50068219D01*
X52404923Y-50020600D01*
X52500161Y-49972980D01*
X52690638Y-49972980D01*
X52785876Y-50020600D01*
X52833495Y-50068219D01*
X52881114Y-50163457D01*
X52881114Y-50211076D01*
X52833495Y-50306314D01*
X52785876Y-50353933D01*
X52690638Y-50401552D01*
X52500161Y-50401552D01*
X52404923Y-50449171D01*
X52357304Y-50496790D01*
X52309685Y-50592028D01*
X52309685Y-50782504D01*
X52357304Y-50877742D01*
X52404923Y-50925361D01*
X52500161Y-50972980D01*
X52690638Y-50972980D01*
X52785876Y-50925361D01*
X52833495Y-50877742D01*
X52881114Y-50782504D01*
X52881114Y-50592028D01*
X52833495Y-50496790D01*
X52785876Y-50449171D01*
X52690638Y-50401552D01*
X51903333Y-61031380D02*
X51570000Y-60555190D01*
X51331904Y-61031380D02*
X51331904Y-60031380D01*
X51712857Y-60031380D01*
X51808095Y-60079000D01*
X51855714Y-60126619D01*
X51903333Y-60221857D01*
X51903333Y-60364714D01*
X51855714Y-60459952D01*
X51808095Y-60507571D01*
X51712857Y-60555190D01*
X51331904Y-60555190D01*
X52379523Y-61031380D02*
X52570000Y-61031380D01*
X52665238Y-60983761D01*
X52712857Y-60936142D01*
X52808095Y-60793285D01*
X52855714Y-60602809D01*
X52855714Y-60221857D01*
X52808095Y-60126619D01*
X52760476Y-60079000D01*
X52665238Y-60031380D01*
X52474761Y-60031380D01*
X52379523Y-60079000D01*
X52331904Y-60126619D01*
X52284285Y-60221857D01*
X52284285Y-60459952D01*
X52331904Y-60555190D01*
X52379523Y-60602809D01*
X52474761Y-60650428D01*
X52665238Y-60650428D01*
X52760476Y-60602809D01*
X52808095Y-60555190D01*
X52855714Y-60459952D01*
X54087780Y-48234504D02*
X54897304Y-48234504D01*
X54992542Y-48186885D01*
X55040161Y-48139266D01*
X55087780Y-48044028D01*
X55087780Y-47853552D01*
X55040161Y-47758314D01*
X54992542Y-47710695D01*
X54897304Y-47663076D01*
X54087780Y-47663076D01*
X55087780Y-46663076D02*
X55087780Y-47234504D01*
X55087780Y-46948790D02*
X54087780Y-46948790D01*
X54230638Y-47044028D01*
X54325876Y-47139266D01*
X54373495Y-47234504D01*
X54341780Y-58089704D02*
X55151304Y-58089704D01*
X55246542Y-58042085D01*
X55294161Y-57994466D01*
X55341780Y-57899228D01*
X55341780Y-57708752D01*
X55294161Y-57613514D01*
X55246542Y-57565895D01*
X55151304Y-57518276D01*
X54341780Y-57518276D01*
X54437019Y-57089704D02*
X54389400Y-57042085D01*
X54341780Y-56946847D01*
X54341780Y-56708752D01*
X54389400Y-56613514D01*
X54437019Y-56565895D01*
X54532257Y-56518276D01*
X54627495Y-56518276D01*
X54770352Y-56565895D01*
X55341780Y-57137323D01*
X55341780Y-56518276D01*
X58456533Y-56922942D02*
X58408914Y-56970561D01*
X58266057Y-57018180D01*
X58170819Y-57018180D01*
X58027961Y-56970561D01*
X57932723Y-56875323D01*
X57885104Y-56780085D01*
X57837485Y-56589609D01*
X57837485Y-56446752D01*
X57885104Y-56256276D01*
X57932723Y-56161038D01*
X58027961Y-56065800D01*
X58170819Y-56018180D01*
X58266057Y-56018180D01*
X58408914Y-56065800D01*
X58456533Y-56113419D01*
X58789866Y-56018180D02*
X59456533Y-56018180D01*
X59027961Y-57018180D01*
X58456533Y-46889942D02*
X58408914Y-46937561D01*
X58266057Y-46985180D01*
X58170819Y-46985180D01*
X58027961Y-46937561D01*
X57932723Y-46842323D01*
X57885104Y-46747085D01*
X57837485Y-46556609D01*
X57837485Y-46413752D01*
X57885104Y-46223276D01*
X57932723Y-46128038D01*
X58027961Y-46032800D01*
X58170819Y-45985180D01*
X58266057Y-45985180D01*
X58408914Y-46032800D01*
X58456533Y-46080419D01*
X59027961Y-46413752D02*
X58932723Y-46366133D01*
X58885104Y-46318514D01*
X58837485Y-46223276D01*
X58837485Y-46175657D01*
X58885104Y-46080419D01*
X58932723Y-46032800D01*
X59027961Y-45985180D01*
X59218438Y-45985180D01*
X59313676Y-46032800D01*
X59361295Y-46080419D01*
X59408914Y-46175657D01*
X59408914Y-46223276D01*
X59361295Y-46318514D01*
X59313676Y-46366133D01*
X59218438Y-46413752D01*
X59027961Y-46413752D01*
X58932723Y-46461371D01*
X58885104Y-46508990D01*
X58837485Y-46604228D01*
X58837485Y-46794704D01*
X58885104Y-46889942D01*
X58932723Y-46937561D01*
X59027961Y-46985180D01*
X59218438Y-46985180D01*
X59313676Y-46937561D01*
X59361295Y-46889942D01*
X59408914Y-46794704D01*
X59408914Y-46604228D01*
X59361295Y-46508990D01*
X59313676Y-46461371D01*
X59218438Y-46413752D01*
M02*
