G04 #@! TF.GenerationSoftware,KiCad,Pcbnew,5.1.2-f72e74a~84~ubuntu18.04.1*
G04 #@! TF.CreationDate,2019-05-27T13:07:39-06:00*
G04 #@! TF.ProjectId,sprinkler_node_buffer,73707269-6e6b-46c6-9572-5f6e6f64655f,rev?*
G04 #@! TF.SameCoordinates,Original*
G04 #@! TF.FileFunction,Copper,L1,Top*
G04 #@! TF.FilePolarity,Positive*
%FSLAX46Y46*%
G04 Gerber Fmt 4.6, Leading zero omitted, Abs format (unit mm)*
G04 Created by KiCad (PCBNEW 5.1.2-f72e74a~84~ubuntu18.04.1) date 2019-05-27 13:07:39*
%MOMM*%
%LPD*%
G04 APERTURE LIST*
%ADD10R,3.000000X2.000000*%
%ADD11O,3.000000X2.000000*%
%ADD12R,1.000000X0.950000*%
%ADD13R,1.100000X1.000000*%
%ADD14R,1.400000X1.000000*%
%ADD15R,0.950000X1.000000*%
%ADD16R,0.700000X1.000000*%
%ADD17C,0.609600*%
%ADD18C,0.381000*%
G04 APERTURE END LIST*
D10*
X65278000Y-59436000D03*
D11*
X65278000Y-54436000D03*
X65278000Y-49436000D03*
X65278000Y-44436000D03*
D12*
X57849000Y-60452000D03*
X59499000Y-60452000D03*
X59499000Y-58420000D03*
X57849000Y-58420000D03*
X49085000Y-44450000D03*
X47435000Y-44450000D03*
X47435000Y-54356000D03*
X49085000Y-54356000D03*
X49085000Y-60452000D03*
X47435000Y-60452000D03*
X47435000Y-50546000D03*
X49085000Y-50546000D03*
D13*
X46939000Y-46482000D03*
X50089000Y-46482000D03*
X50089000Y-56388000D03*
X46939000Y-56388000D03*
X51613000Y-48514000D03*
X48463000Y-48514000D03*
X48209000Y-58420000D03*
X51359000Y-58420000D03*
D11*
X41275000Y-59450000D03*
X41275000Y-54450000D03*
X41275000Y-49450000D03*
D10*
X41275000Y-44450000D03*
D14*
X57318000Y-52258000D03*
X57318000Y-50358000D03*
X55118000Y-51308000D03*
D15*
X51816000Y-44641000D03*
X51816000Y-46291000D03*
X51816000Y-55943000D03*
X51816000Y-54293000D03*
X59436000Y-50229000D03*
X59436000Y-51879000D03*
D12*
X57849000Y-44450000D03*
X59499000Y-44450000D03*
X54039000Y-44450000D03*
X55689000Y-44450000D03*
X57849000Y-54356000D03*
X59499000Y-54356000D03*
X54039000Y-54356000D03*
X55689000Y-54356000D03*
X52895000Y-50546000D03*
X51245000Y-50546000D03*
X51245000Y-60452000D03*
X52895000Y-60452000D03*
D16*
X55560000Y-46298000D03*
X54610000Y-46298000D03*
X53660000Y-46298000D03*
X53660000Y-48698000D03*
X55560000Y-48698000D03*
X55814000Y-58604000D03*
X53914000Y-58604000D03*
X53914000Y-56204000D03*
X54864000Y-56204000D03*
X55814000Y-56204000D03*
D12*
X59499000Y-56388000D03*
X57849000Y-56388000D03*
X57849000Y-46482000D03*
X59499000Y-46482000D03*
D17*
X51308000Y-57150000D03*
X52959000Y-56184800D03*
X57835800Y-59486800D03*
X60604400Y-56413400D03*
X57327800Y-49276000D03*
X59486800Y-45491400D03*
X50952400Y-47320200D03*
X53644800Y-47396400D03*
X59486800Y-53289200D03*
D18*
X51359000Y-58420000D02*
X51359000Y-57201000D01*
X51359000Y-57201000D02*
X51308000Y-57150000D01*
X51816000Y-56642000D02*
X51308000Y-57150000D01*
X51816000Y-55943000D02*
X51816000Y-56642000D01*
X50546000Y-56388000D02*
X51308000Y-57150000D01*
X50089000Y-56388000D02*
X50546000Y-56388000D01*
X53914000Y-56204000D02*
X52978200Y-56204000D01*
X52978200Y-56204000D02*
X52959000Y-56184800D01*
X57849000Y-60452000D02*
X57849000Y-59500000D01*
X57849000Y-59500000D02*
X57835800Y-59486800D01*
X57849000Y-59473600D02*
X57835800Y-59486800D01*
X57849000Y-58420000D02*
X57849000Y-59473600D01*
X59499000Y-56388000D02*
X60579000Y-56388000D01*
X60579000Y-56388000D02*
X60604400Y-56413400D01*
X57318000Y-50358000D02*
X57318000Y-49285800D01*
X57318000Y-49285800D02*
X57327800Y-49276000D01*
X59499000Y-46482000D02*
X59499000Y-45503600D01*
X59499000Y-45503600D02*
X59486800Y-45491400D01*
X59499000Y-45479200D02*
X59486800Y-45491400D01*
X59499000Y-44450000D02*
X59499000Y-45479200D01*
X50089000Y-46482000D02*
X50114200Y-46482000D01*
X50114200Y-46482000D02*
X50952400Y-47320200D01*
X51816000Y-46456600D02*
X50952400Y-47320200D01*
X51816000Y-46291000D02*
X51816000Y-46456600D01*
X51613000Y-47980800D02*
X50952400Y-47320200D01*
X51613000Y-48514000D02*
X51613000Y-47980800D01*
X53660000Y-46298000D02*
X53660000Y-47381200D01*
X53660000Y-47381200D02*
X53644800Y-47396400D01*
X59499000Y-53301400D02*
X59486800Y-53289200D01*
X59499000Y-54356000D02*
X59499000Y-53301400D01*
X64262000Y-60452000D02*
X65278000Y-59436000D01*
X59499000Y-60452000D02*
X64262000Y-60452000D01*
X64778000Y-54436000D02*
X65278000Y-54436000D01*
X60794000Y-58420000D02*
X64778000Y-54436000D01*
X59499000Y-58420000D02*
X60794000Y-58420000D01*
X52007000Y-44450000D02*
X51816000Y-44641000D01*
X54039000Y-44450000D02*
X52007000Y-44450000D01*
X49276000Y-44641000D02*
X49085000Y-44450000D01*
X51816000Y-44641000D02*
X49276000Y-44641000D01*
X49085000Y-44450000D02*
X49085000Y-45352200D01*
X47955200Y-46482000D02*
X46939000Y-46482000D01*
X49085000Y-45352200D02*
X47955200Y-46482000D01*
X41275000Y-44450000D02*
X47435000Y-44450000D01*
X47341000Y-54450000D02*
X47435000Y-54356000D01*
X41275000Y-54450000D02*
X47341000Y-54450000D01*
X51879000Y-54356000D02*
X51816000Y-54293000D01*
X54039000Y-54356000D02*
X51879000Y-54356000D01*
X49148000Y-54293000D02*
X49085000Y-54356000D01*
X51816000Y-54293000D02*
X49148000Y-54293000D01*
X49085000Y-54356000D02*
X48818800Y-54622200D01*
X48703000Y-54674000D02*
X46989000Y-56388000D01*
X46989000Y-56388000D02*
X46939000Y-56388000D01*
X49085000Y-54674000D02*
X48703000Y-54674000D01*
X49085000Y-54356000D02*
X49085000Y-54674000D01*
X48209000Y-58420000D02*
X48260000Y-58420000D01*
X49085000Y-59245000D02*
X49085000Y-60452000D01*
X48260000Y-58420000D02*
X49085000Y-59245000D01*
X49085000Y-60452000D02*
X51245000Y-60452000D01*
X41275000Y-59450000D02*
X43702000Y-59450000D01*
X44704000Y-60452000D02*
X47435000Y-60452000D01*
X43702000Y-59450000D02*
X44704000Y-60452000D01*
X41275000Y-49450000D02*
X44547800Y-49450000D01*
X45643800Y-50546000D02*
X47435000Y-50546000D01*
X44547800Y-49450000D02*
X45643800Y-50546000D01*
X49085000Y-49136000D02*
X49085000Y-50546000D01*
X48463000Y-48514000D02*
X49085000Y-49136000D01*
X49085000Y-50546000D02*
X51245000Y-50546000D01*
X57849000Y-56569000D02*
X55814000Y-58604000D01*
X57849000Y-56388000D02*
X57849000Y-56569000D01*
X55633000Y-48698000D02*
X57849000Y-46482000D01*
X55560000Y-48698000D02*
X55633000Y-48698000D01*
X57849000Y-47338000D02*
X58390000Y-47879000D01*
X57849000Y-46482000D02*
X57849000Y-47338000D01*
X61840000Y-47879000D02*
X63397000Y-49436000D01*
X63397000Y-49436000D02*
X65278000Y-49436000D01*
X58390000Y-47879000D02*
X61840000Y-47879000D01*
X64778000Y-49436000D02*
X65278000Y-49436000D01*
X57874000Y-56388000D02*
X58839200Y-55422800D01*
X58839200Y-55422800D02*
X60325000Y-55422800D01*
X57849000Y-56388000D02*
X57874000Y-56388000D01*
X60909200Y-54838600D02*
X60909200Y-53304800D01*
X60325000Y-55422800D02*
X60909200Y-54838600D01*
X60909200Y-53304800D02*
X64778000Y-49436000D01*
X59057000Y-52258000D02*
X59436000Y-51879000D01*
X57318000Y-52258000D02*
X59057000Y-52258000D01*
X57824000Y-54356000D02*
X57849000Y-54356000D01*
X55976000Y-56204000D02*
X57824000Y-54356000D01*
X55814000Y-56204000D02*
X55976000Y-56204000D01*
X57849000Y-54356000D02*
X57785000Y-54356000D01*
X57785000Y-54356000D02*
X56794400Y-53365400D01*
X56794400Y-53365400D02*
X55956200Y-53365400D01*
X55118000Y-52527200D02*
X55118000Y-51308000D01*
X55956200Y-53365400D02*
X55118000Y-52527200D01*
X56001000Y-46298000D02*
X57849000Y-44450000D01*
X55560000Y-46298000D02*
X56001000Y-46298000D01*
X54610000Y-45529000D02*
X55689000Y-44450000D01*
X54610000Y-46298000D02*
X54610000Y-45529000D01*
X54864000Y-55181000D02*
X55689000Y-54356000D01*
X54864000Y-56204000D02*
X54864000Y-55181000D01*
X52895000Y-49463000D02*
X53660000Y-48698000D01*
X52895000Y-50546000D02*
X52895000Y-49463000D01*
X52895000Y-59623000D02*
X53914000Y-58604000D01*
X52895000Y-60452000D02*
X52895000Y-59623000D01*
M02*
