G04 #@! TF.GenerationSoftware,KiCad,Pcbnew,5.1.2-f72e74a~84~ubuntu18.04.1*
G04 #@! TF.CreationDate,2019-05-27T13:07:39-06:00*
G04 #@! TF.ProjectId,sprinkler_node_buffer,73707269-6e6b-46c6-9572-5f6e6f64655f,rev?*
G04 #@! TF.SameCoordinates,Original*
G04 #@! TF.FileFunction,Soldermask,Bot*
G04 #@! TF.FilePolarity,Negative*
%FSLAX46Y46*%
G04 Gerber Fmt 4.6, Leading zero omitted, Abs format (unit mm)*
G04 Created by KiCad (PCBNEW 5.1.2-f72e74a~84~ubuntu18.04.1) date 2019-05-27 13:07:39*
%MOMM*%
%LPD*%
G04 APERTURE LIST*
%ADD10C,0.101600*%
G04 APERTURE END LIST*
D10*
G36*
X41878097Y-58404069D02*
G01*
X41981032Y-58414207D01*
X42179146Y-58474305D01*
X42179149Y-58474306D01*
X42275975Y-58526061D01*
X42361729Y-58571897D01*
X42521765Y-58703235D01*
X42653103Y-58863271D01*
X42698939Y-58949025D01*
X42750694Y-59045851D01*
X42750695Y-59045854D01*
X42810793Y-59243968D01*
X42831085Y-59450000D01*
X42810793Y-59656032D01*
X42750695Y-59854146D01*
X42750694Y-59854149D01*
X42698939Y-59950975D01*
X42653103Y-60036729D01*
X42521765Y-60196765D01*
X42361729Y-60328103D01*
X42275975Y-60373939D01*
X42179149Y-60425694D01*
X42179146Y-60425695D01*
X41981032Y-60485793D01*
X41878097Y-60495931D01*
X41826631Y-60501000D01*
X40723369Y-60501000D01*
X40671903Y-60495931D01*
X40568968Y-60485793D01*
X40370854Y-60425695D01*
X40370851Y-60425694D01*
X40274025Y-60373939D01*
X40188271Y-60328103D01*
X40028235Y-60196765D01*
X39896897Y-60036729D01*
X39851061Y-59950975D01*
X39799306Y-59854149D01*
X39799305Y-59854146D01*
X39739207Y-59656032D01*
X39718915Y-59450000D01*
X39739207Y-59243968D01*
X39799305Y-59045854D01*
X39799306Y-59045851D01*
X39851061Y-58949025D01*
X39896897Y-58863271D01*
X40028235Y-58703235D01*
X40188271Y-58571897D01*
X40274025Y-58526061D01*
X40370851Y-58474306D01*
X40370854Y-58474305D01*
X40568968Y-58414207D01*
X40671903Y-58404069D01*
X40723369Y-58399000D01*
X41826631Y-58399000D01*
X41878097Y-58404069D01*
X41878097Y-58404069D01*
G37*
G36*
X66829000Y-60487000D02*
G01*
X63727000Y-60487000D01*
X63727000Y-58385000D01*
X66829000Y-58385000D01*
X66829000Y-60487000D01*
X66829000Y-60487000D01*
G37*
G36*
X41878097Y-53404069D02*
G01*
X41981032Y-53414207D01*
X42179146Y-53474305D01*
X42179149Y-53474306D01*
X42275975Y-53526061D01*
X42361729Y-53571897D01*
X42521765Y-53703235D01*
X42653103Y-53863271D01*
X42698939Y-53949025D01*
X42750694Y-54045851D01*
X42750695Y-54045854D01*
X42810793Y-54243968D01*
X42831085Y-54450000D01*
X42810793Y-54656032D01*
X42754942Y-54840146D01*
X42750694Y-54854149D01*
X42698939Y-54950975D01*
X42653103Y-55036729D01*
X42521765Y-55196765D01*
X42361729Y-55328103D01*
X42275975Y-55373939D01*
X42179149Y-55425694D01*
X42179146Y-55425695D01*
X41981032Y-55485793D01*
X41878097Y-55495931D01*
X41826631Y-55501000D01*
X40723369Y-55501000D01*
X40671903Y-55495931D01*
X40568968Y-55485793D01*
X40370854Y-55425695D01*
X40370851Y-55425694D01*
X40274025Y-55373939D01*
X40188271Y-55328103D01*
X40028235Y-55196765D01*
X39896897Y-55036729D01*
X39851061Y-54950975D01*
X39799306Y-54854149D01*
X39795058Y-54840146D01*
X39739207Y-54656032D01*
X39718915Y-54450000D01*
X39739207Y-54243968D01*
X39799305Y-54045854D01*
X39799306Y-54045851D01*
X39851061Y-53949025D01*
X39896897Y-53863271D01*
X40028235Y-53703235D01*
X40188271Y-53571897D01*
X40274025Y-53526061D01*
X40370851Y-53474306D01*
X40370854Y-53474305D01*
X40568968Y-53414207D01*
X40671903Y-53404069D01*
X40723369Y-53399000D01*
X41826631Y-53399000D01*
X41878097Y-53404069D01*
X41878097Y-53404069D01*
G37*
G36*
X65881097Y-53390069D02*
G01*
X65984032Y-53400207D01*
X66182146Y-53460305D01*
X66182149Y-53460306D01*
X66278975Y-53512061D01*
X66364729Y-53557897D01*
X66524765Y-53689235D01*
X66656103Y-53849271D01*
X66701939Y-53935025D01*
X66753694Y-54031851D01*
X66753695Y-54031854D01*
X66813793Y-54229968D01*
X66834085Y-54436000D01*
X66813793Y-54642032D01*
X66809546Y-54656032D01*
X66753694Y-54840149D01*
X66701939Y-54936975D01*
X66656103Y-55022729D01*
X66524765Y-55182765D01*
X66364729Y-55314103D01*
X66278975Y-55359939D01*
X66182149Y-55411694D01*
X66182146Y-55411695D01*
X65984032Y-55471793D01*
X65881097Y-55481931D01*
X65829631Y-55487000D01*
X64726369Y-55487000D01*
X64674903Y-55481931D01*
X64571968Y-55471793D01*
X64373854Y-55411695D01*
X64373851Y-55411694D01*
X64277025Y-55359939D01*
X64191271Y-55314103D01*
X64031235Y-55182765D01*
X63899897Y-55022729D01*
X63854061Y-54936975D01*
X63802306Y-54840149D01*
X63746454Y-54656032D01*
X63742207Y-54642032D01*
X63721915Y-54436000D01*
X63742207Y-54229968D01*
X63802305Y-54031854D01*
X63802306Y-54031851D01*
X63854061Y-53935025D01*
X63899897Y-53849271D01*
X64031235Y-53689235D01*
X64191271Y-53557897D01*
X64277025Y-53512061D01*
X64373851Y-53460306D01*
X64373854Y-53460305D01*
X64571968Y-53400207D01*
X64674903Y-53390069D01*
X64726369Y-53385000D01*
X65829631Y-53385000D01*
X65881097Y-53390069D01*
X65881097Y-53390069D01*
G37*
G36*
X41878097Y-48404069D02*
G01*
X41981032Y-48414207D01*
X42179146Y-48474305D01*
X42179149Y-48474306D01*
X42275975Y-48526061D01*
X42361729Y-48571897D01*
X42521765Y-48703235D01*
X42653103Y-48863271D01*
X42698939Y-48949025D01*
X42750694Y-49045851D01*
X42750695Y-49045854D01*
X42810793Y-49243968D01*
X42831085Y-49450000D01*
X42810793Y-49656032D01*
X42754942Y-49840146D01*
X42750694Y-49854149D01*
X42698939Y-49950975D01*
X42653103Y-50036729D01*
X42521765Y-50196765D01*
X42361729Y-50328103D01*
X42275975Y-50373939D01*
X42179149Y-50425694D01*
X42179146Y-50425695D01*
X41981032Y-50485793D01*
X41878097Y-50495931D01*
X41826631Y-50501000D01*
X40723369Y-50501000D01*
X40671903Y-50495931D01*
X40568968Y-50485793D01*
X40370854Y-50425695D01*
X40370851Y-50425694D01*
X40274025Y-50373939D01*
X40188271Y-50328103D01*
X40028235Y-50196765D01*
X39896897Y-50036729D01*
X39851061Y-49950975D01*
X39799306Y-49854149D01*
X39795058Y-49840146D01*
X39739207Y-49656032D01*
X39718915Y-49450000D01*
X39739207Y-49243968D01*
X39799305Y-49045854D01*
X39799306Y-49045851D01*
X39851061Y-48949025D01*
X39896897Y-48863271D01*
X40028235Y-48703235D01*
X40188271Y-48571897D01*
X40274025Y-48526061D01*
X40370851Y-48474306D01*
X40370854Y-48474305D01*
X40568968Y-48414207D01*
X40671903Y-48404069D01*
X40723369Y-48399000D01*
X41826631Y-48399000D01*
X41878097Y-48404069D01*
X41878097Y-48404069D01*
G37*
G36*
X65881097Y-48390069D02*
G01*
X65984032Y-48400207D01*
X66182146Y-48460305D01*
X66182149Y-48460306D01*
X66278975Y-48512061D01*
X66364729Y-48557897D01*
X66524765Y-48689235D01*
X66656103Y-48849271D01*
X66701939Y-48935025D01*
X66753694Y-49031851D01*
X66753695Y-49031854D01*
X66813793Y-49229968D01*
X66834085Y-49436000D01*
X66813793Y-49642032D01*
X66809546Y-49656032D01*
X66753694Y-49840149D01*
X66701939Y-49936975D01*
X66656103Y-50022729D01*
X66524765Y-50182765D01*
X66364729Y-50314103D01*
X66278975Y-50359939D01*
X66182149Y-50411694D01*
X66182146Y-50411695D01*
X65984032Y-50471793D01*
X65881097Y-50481931D01*
X65829631Y-50487000D01*
X64726369Y-50487000D01*
X64674903Y-50481931D01*
X64571968Y-50471793D01*
X64373854Y-50411695D01*
X64373851Y-50411694D01*
X64277025Y-50359939D01*
X64191271Y-50314103D01*
X64031235Y-50182765D01*
X63899897Y-50022729D01*
X63854061Y-49936975D01*
X63802306Y-49840149D01*
X63746454Y-49656032D01*
X63742207Y-49642032D01*
X63721915Y-49436000D01*
X63742207Y-49229968D01*
X63802305Y-49031854D01*
X63802306Y-49031851D01*
X63854061Y-48935025D01*
X63899897Y-48849271D01*
X64031235Y-48689235D01*
X64191271Y-48557897D01*
X64277025Y-48512061D01*
X64373851Y-48460306D01*
X64373854Y-48460305D01*
X64571968Y-48400207D01*
X64674903Y-48390069D01*
X64726369Y-48385000D01*
X65829631Y-48385000D01*
X65881097Y-48390069D01*
X65881097Y-48390069D01*
G37*
G36*
X42826000Y-45501000D02*
G01*
X39724000Y-45501000D01*
X39724000Y-43399000D01*
X42826000Y-43399000D01*
X42826000Y-45501000D01*
X42826000Y-45501000D01*
G37*
G36*
X65881097Y-43390069D02*
G01*
X65984032Y-43400207D01*
X66182146Y-43460305D01*
X66182149Y-43460306D01*
X66278975Y-43512061D01*
X66364729Y-43557897D01*
X66524765Y-43689235D01*
X66656103Y-43849271D01*
X66701939Y-43935025D01*
X66753694Y-44031851D01*
X66753695Y-44031854D01*
X66813793Y-44229968D01*
X66834085Y-44436000D01*
X66813793Y-44642032D01*
X66753695Y-44840146D01*
X66753694Y-44840149D01*
X66701939Y-44936975D01*
X66656103Y-45022729D01*
X66524765Y-45182765D01*
X66364729Y-45314103D01*
X66278975Y-45359939D01*
X66182149Y-45411694D01*
X66182146Y-45411695D01*
X65984032Y-45471793D01*
X65881097Y-45481931D01*
X65829631Y-45487000D01*
X64726369Y-45487000D01*
X64674903Y-45481931D01*
X64571968Y-45471793D01*
X64373854Y-45411695D01*
X64373851Y-45411694D01*
X64277025Y-45359939D01*
X64191271Y-45314103D01*
X64031235Y-45182765D01*
X63899897Y-45022729D01*
X63854061Y-44936975D01*
X63802306Y-44840149D01*
X63802305Y-44840146D01*
X63742207Y-44642032D01*
X63721915Y-44436000D01*
X63742207Y-44229968D01*
X63802305Y-44031854D01*
X63802306Y-44031851D01*
X63854061Y-43935025D01*
X63899897Y-43849271D01*
X64031235Y-43689235D01*
X64191271Y-43557897D01*
X64277025Y-43512061D01*
X64373851Y-43460306D01*
X64373854Y-43460305D01*
X64571968Y-43400207D01*
X64674903Y-43390069D01*
X64726369Y-43385000D01*
X65829631Y-43385000D01*
X65881097Y-43390069D01*
X65881097Y-43390069D01*
G37*
M02*
