M48
;DRILL file {KiCad 5.0.0-fee4fd1~66~ubuntu18.04.1} date Tue Feb  5 20:13:16 2019
;FORMAT={-:-/ absolute / inch / decimal}
FMAT,2
INCH,TZ
T1C0.0120
T2C0.0400
T3C0.0512
%
G90
G05
M72
T1
X2.972Y-1.922
X2.973Y-1.574
X3.05Y-1.565
X3.05Y-2.006
X3.13Y-1.999
X3.14Y-1.577
X3.149Y-2.643
X3.17Y-2.181
X3.188Y-2.277
X3.22Y-1.573
X3.26Y-2.097
X3.266Y-2.199
X3.29Y-2.573
X3.297Y-1.753
X3.3Y-1.574
X3.338Y-2.247
X3.38Y-1.564
X3.394Y-1.831
X3.394Y-1.886
X3.421Y-2.988
X3.445Y-2.779
X3.457Y-2.45
X3.458Y-2.753
X3.46Y-1.565
X3.477Y-2.779
X3.54Y-1.561
X3.564Y-1.81
X3.57Y-1.954
X3.57Y-2.085
X3.6Y-1.64
X3.614Y-1.566
X3.633Y-1.81
X3.64Y-2.933
X3.662Y-2.085
X3.68Y-2.286
X3.69Y-1.955
X3.74Y-1.883
X3.74Y-1.936
X3.84Y-1.722
X3.92Y-1.34
X3.952Y-2.368
X3.991Y-2.467
X4.03Y-2.17
X4.043Y-2.933
X4.067Y-2.619
X4.109Y-1.351
T2
X4.26Y-2.08
X4.26Y-2.18
X4.26Y-2.28
X4.26Y-2.38
X4.26Y-2.48
X4.26Y-2.58
T3
X2.67Y-2.2
X2.67Y-2.3969
X2.67Y-2.5937
X2.67Y-2.7906
X2.67Y-1.38
X2.67Y-1.5769
X2.67Y-1.7737
X2.67Y-1.9706
T0
M30
