G04 #@! TF.GenerationSoftware,KiCad,Pcbnew,5.0.0-fee4fd1~66~ubuntu18.04.1*
G04 #@! TF.CreationDate,2019-02-05T20:00:04-07:00*
G04 #@! TF.ProjectId,sprinkler_nodes,737072696E6B6C65725F6E6F6465732E,rev?*
G04 #@! TF.SameCoordinates,Original*
G04 #@! TF.FileFunction,Copper,L2,Bot,Signal*
G04 #@! TF.FilePolarity,Positive*
%FSLAX46Y46*%
G04 Gerber Fmt 4.6, Leading zero omitted, Abs format (unit mm)*
G04 Created by KiCad (PCBNEW 5.0.0-fee4fd1~66~ubuntu18.04.1) date Tue Feb  5 20:00:04 2019*
%MOMM*%
%LPD*%
G01*
G04 APERTURE LIST*
G04 #@! TA.AperFunction,ComponentPad*
%ADD10O,3.000000X2.000000*%
G04 #@! TD*
G04 #@! TA.AperFunction,ComponentPad*
%ADD11R,3.000000X2.000000*%
G04 #@! TD*
G04 #@! TA.AperFunction,ComponentPad*
%ADD12R,3.048000X1.524000*%
G04 #@! TD*
G04 #@! TA.AperFunction,ComponentPad*
%ADD13O,3.048000X1.524000*%
G04 #@! TD*
G04 #@! TA.AperFunction,ViaPad*
%ADD14C,0.609600*%
G04 #@! TD*
G04 #@! TA.AperFunction,Conductor*
%ADD15C,0.254000*%
G04 #@! TD*
G04 #@! TA.AperFunction,Conductor*
%ADD16C,0.508000*%
G04 #@! TD*
G04 APERTURE END LIST*
D10*
G04 #@! TO.P,J1,4*
G04 #@! TO.N,/VIN_AC*
X67818000Y-70880000D03*
G04 #@! TO.P,J1,3*
G04 #@! TO.N,/VIN_GND*
X67818000Y-65880000D03*
G04 #@! TO.P,J1,2*
X67818000Y-60880000D03*
D11*
G04 #@! TO.P,J1,1*
G04 #@! TO.N,/SW_24V_1*
X67818000Y-55880000D03*
G04 #@! TD*
G04 #@! TO.P,J2,1*
G04 #@! TO.N,/RF_IN*
X67818000Y-35052000D03*
D10*
G04 #@! TO.P,J2,2*
G04 #@! TO.N,/RF_IN_RTN*
X67818000Y-40052000D03*
G04 #@! TO.P,J2,3*
G04 #@! TO.N,/RF_OUT*
X67818000Y-45052000D03*
G04 #@! TO.P,J2,4*
G04 #@! TO.N,/RF_OUT_RTN*
X67818000Y-50052000D03*
G04 #@! TD*
D12*
G04 #@! TO.P,J3,1*
G04 #@! TO.N,/MCLR*
X108204000Y-65532000D03*
D13*
G04 #@! TO.P,J3,2*
G04 #@! TO.N,+3V3*
X108204000Y-62992000D03*
G04 #@! TO.P,J3,3*
G04 #@! TO.N,GND*
X108204000Y-60452000D03*
G04 #@! TO.P,J3,4*
G04 #@! TO.N,/ICSPDAT*
X108204000Y-57912000D03*
G04 #@! TO.P,J3,5*
G04 #@! TO.N,/ICSPCLK*
X108204000Y-55372000D03*
G04 #@! TO.P,J3,6*
G04 #@! TO.N,Net-(J3-Pad6)*
X108204000Y-52832000D03*
G04 #@! TD*
D14*
G04 #@! TO.N,GND*
X87503000Y-70586600D03*
X86893400Y-75895200D03*
X79984600Y-67132200D03*
X83566000Y-65354200D03*
X92456000Y-74498200D03*
X102692200Y-74498200D03*
X82804000Y-53263800D03*
X87807800Y-62230000D03*
X93472000Y-58064400D03*
X104368600Y-34315400D03*
X99568000Y-34036000D03*
X91440000Y-41656000D03*
X75488800Y-48818800D03*
X77470000Y-50952400D03*
X79502000Y-50774600D03*
X83743800Y-44526200D03*
X75514200Y-39979600D03*
X77470000Y-39751000D03*
X79756000Y-40055800D03*
X81788000Y-39954200D03*
X83820000Y-39979600D03*
X85852000Y-39725600D03*
X87884000Y-39751000D03*
X89916000Y-39649400D03*
X91795600Y-39776400D03*
X80975200Y-57835800D03*
X84785200Y-57073800D03*
X97536000Y-43738800D03*
X100380800Y-60147200D03*
X101371400Y-62661800D03*
X102362000Y-55118000D03*
X88315600Y-70586600D03*
X87833200Y-69926200D03*
G04 #@! TO.N,+3V3*
X103301800Y-66522600D03*
G04 #@! TO.N,+5V*
X80518000Y-55397400D03*
X82956400Y-55854600D03*
G04 #@! TO.N,/MCLR*
X90678000Y-49631600D03*
X93726000Y-49657000D03*
G04 #@! TO.N,/V_Temp*
X90678000Y-52959000D03*
X93014800Y-52959000D03*
G04 #@! TO.N,/UART_RX*
X86207600Y-46507400D03*
X86207600Y-47904400D03*
G04 #@! TO.N,/GPIO3*
X92278200Y-45974000D03*
X90525600Y-45974000D03*
G04 #@! TO.N,/AN4*
X94996000Y-49174400D03*
X94996000Y-47828200D03*
G04 #@! TD*
D15*
G04 #@! TO.N,GND*
X88315600Y-70586600D02*
X88315800Y-70586600D01*
D16*
G04 #@! TO.N,+3V3*
X106832400Y-62992000D02*
X108204000Y-62992000D01*
X103301800Y-66522600D02*
X106832400Y-62992000D01*
G04 #@! TO.N,+5V*
X80975200Y-55854600D02*
X80518000Y-55397400D01*
X82956400Y-55854600D02*
X80975200Y-55854600D01*
D15*
G04 #@! TO.N,/MCLR*
X90678000Y-49631600D02*
X90703400Y-49657000D01*
X90703400Y-49657000D02*
X93726000Y-49657000D01*
G04 #@! TO.N,/V_Temp*
X90678000Y-52959000D02*
X93014800Y-52959000D01*
G04 #@! TO.N,/UART_RX*
X86207600Y-47904400D02*
X86207600Y-46507400D01*
G04 #@! TO.N,/GPIO3*
X90525600Y-45974000D02*
X92278200Y-45974000D01*
G04 #@! TO.N,/AN4*
X94996000Y-47828200D02*
X94996000Y-49174400D01*
G04 #@! TD*
G04 #@! TO.N,GND*
G36*
X111050000Y-79300000D02*
X18490000Y-79300000D01*
X18490000Y-70880000D01*
X65650969Y-70880000D01*
X65777864Y-71517945D01*
X66139231Y-72058769D01*
X66680055Y-72420136D01*
X67156969Y-72515000D01*
X68479031Y-72515000D01*
X68955945Y-72420136D01*
X69496769Y-72058769D01*
X69858136Y-71517945D01*
X69985031Y-70880000D01*
X69858136Y-70242055D01*
X69496769Y-69701231D01*
X68955945Y-69339864D01*
X68479031Y-69245000D01*
X67156969Y-69245000D01*
X66680055Y-69339864D01*
X66139231Y-69701231D01*
X65777864Y-70242055D01*
X65650969Y-70880000D01*
X18490000Y-70880000D01*
X18490000Y-68707000D01*
X34290000Y-68707000D01*
X34338601Y-68697333D01*
X34379803Y-68669803D01*
X34407333Y-68628601D01*
X34417000Y-68580000D01*
X34417000Y-65880000D01*
X65650969Y-65880000D01*
X65777864Y-66517945D01*
X66139231Y-67058769D01*
X66680055Y-67420136D01*
X67156969Y-67515000D01*
X68479031Y-67515000D01*
X68955945Y-67420136D01*
X69496769Y-67058769D01*
X69858136Y-66517945D01*
X69894394Y-66335662D01*
X102362000Y-66335662D01*
X102362000Y-66709538D01*
X102505076Y-67054954D01*
X102769446Y-67319324D01*
X103114862Y-67462400D01*
X103488738Y-67462400D01*
X103834154Y-67319324D01*
X104098524Y-67054954D01*
X104149325Y-66932310D01*
X106032560Y-65049076D01*
X106032560Y-66294000D01*
X106081843Y-66541765D01*
X106222191Y-66751809D01*
X106432235Y-66892157D01*
X106680000Y-66941440D01*
X109728000Y-66941440D01*
X109975765Y-66892157D01*
X110185809Y-66751809D01*
X110326157Y-66541765D01*
X110375440Y-66294000D01*
X110375440Y-64770000D01*
X110326157Y-64522235D01*
X110185809Y-64312191D01*
X109975765Y-64171843D01*
X109774643Y-64131838D01*
X109973180Y-63999180D01*
X110281944Y-63537082D01*
X110390368Y-62992000D01*
X110281944Y-62446918D01*
X109973180Y-61984820D01*
X109511082Y-61676056D01*
X109103588Y-61595000D01*
X107304412Y-61595000D01*
X106896918Y-61676056D01*
X106434820Y-61984820D01*
X106137755Y-62429409D01*
X102892090Y-65675075D01*
X102769446Y-65725876D01*
X102505076Y-65990246D01*
X102362000Y-66335662D01*
X69894394Y-66335662D01*
X69985031Y-65880000D01*
X69858136Y-65242055D01*
X69496769Y-64701231D01*
X68955945Y-64339864D01*
X68479031Y-64245000D01*
X67156969Y-64245000D01*
X66680055Y-64339864D01*
X66139231Y-64701231D01*
X65777864Y-65242055D01*
X65650969Y-65880000D01*
X34417000Y-65880000D01*
X34417000Y-60880000D01*
X65650969Y-60880000D01*
X65777864Y-61517945D01*
X66139231Y-62058769D01*
X66680055Y-62420136D01*
X67156969Y-62515000D01*
X68479031Y-62515000D01*
X68955945Y-62420136D01*
X69496769Y-62058769D01*
X69858136Y-61517945D01*
X69985031Y-60880000D01*
X69858136Y-60242055D01*
X69496769Y-59701231D01*
X68955945Y-59339864D01*
X68479031Y-59245000D01*
X67156969Y-59245000D01*
X66680055Y-59339864D01*
X66139231Y-59701231D01*
X65777864Y-60242055D01*
X65650969Y-60880000D01*
X34417000Y-60880000D01*
X34417000Y-54880000D01*
X65670560Y-54880000D01*
X65670560Y-56880000D01*
X65719843Y-57127765D01*
X65860191Y-57337809D01*
X66070235Y-57478157D01*
X66318000Y-57527440D01*
X69318000Y-57527440D01*
X69565765Y-57478157D01*
X69775809Y-57337809D01*
X69916157Y-57127765D01*
X69965440Y-56880000D01*
X69965440Y-55210462D01*
X79578200Y-55210462D01*
X79578200Y-55584338D01*
X79721276Y-55929754D01*
X79985646Y-56194124D01*
X80108290Y-56244925D01*
X80284669Y-56421304D01*
X80334267Y-56495533D01*
X80628330Y-56692019D01*
X80887644Y-56743600D01*
X80887648Y-56743600D01*
X80975199Y-56761015D01*
X81062750Y-56743600D01*
X82646820Y-56743600D01*
X82769462Y-56794400D01*
X83143338Y-56794400D01*
X83488754Y-56651324D01*
X83753124Y-56386954D01*
X83896200Y-56041538D01*
X83896200Y-55667662D01*
X83753124Y-55322246D01*
X83488754Y-55057876D01*
X83143338Y-54914800D01*
X82769462Y-54914800D01*
X82646820Y-54965600D01*
X81356375Y-54965600D01*
X81314724Y-54865046D01*
X81050354Y-54600676D01*
X80704938Y-54457600D01*
X80331062Y-54457600D01*
X79985646Y-54600676D01*
X79721276Y-54865046D01*
X79578200Y-55210462D01*
X69965440Y-55210462D01*
X69965440Y-54880000D01*
X69916157Y-54632235D01*
X69775809Y-54422191D01*
X69565765Y-54281843D01*
X69318000Y-54232560D01*
X66318000Y-54232560D01*
X66070235Y-54281843D01*
X65860191Y-54422191D01*
X65719843Y-54632235D01*
X65670560Y-54880000D01*
X34417000Y-54880000D01*
X34417000Y-52772062D01*
X89738200Y-52772062D01*
X89738200Y-53145938D01*
X89881276Y-53491354D01*
X90145646Y-53755724D01*
X90491062Y-53898800D01*
X90864938Y-53898800D01*
X91210354Y-53755724D01*
X91245078Y-53721000D01*
X92447722Y-53721000D01*
X92482446Y-53755724D01*
X92827862Y-53898800D01*
X93201738Y-53898800D01*
X93547154Y-53755724D01*
X93811524Y-53491354D01*
X93954600Y-53145938D01*
X93954600Y-52832000D01*
X106017632Y-52832000D01*
X106126056Y-53377082D01*
X106434820Y-53839180D01*
X106828158Y-54102000D01*
X106434820Y-54364820D01*
X106126056Y-54826918D01*
X106017632Y-55372000D01*
X106126056Y-55917082D01*
X106434820Y-56379180D01*
X106828158Y-56642000D01*
X106434820Y-56904820D01*
X106126056Y-57366918D01*
X106017632Y-57912000D01*
X106126056Y-58457082D01*
X106434820Y-58919180D01*
X106896918Y-59227944D01*
X107304412Y-59309000D01*
X109103588Y-59309000D01*
X109511082Y-59227944D01*
X109973180Y-58919180D01*
X110281944Y-58457082D01*
X110390368Y-57912000D01*
X110281944Y-57366918D01*
X109973180Y-56904820D01*
X109579842Y-56642000D01*
X109973180Y-56379180D01*
X110281944Y-55917082D01*
X110390368Y-55372000D01*
X110281944Y-54826918D01*
X109973180Y-54364820D01*
X109579842Y-54102000D01*
X109973180Y-53839180D01*
X110281944Y-53377082D01*
X110390368Y-52832000D01*
X110281944Y-52286918D01*
X109973180Y-51824820D01*
X109511082Y-51516056D01*
X109103588Y-51435000D01*
X107304412Y-51435000D01*
X106896918Y-51516056D01*
X106434820Y-51824820D01*
X106126056Y-52286918D01*
X106017632Y-52832000D01*
X93954600Y-52832000D01*
X93954600Y-52772062D01*
X93811524Y-52426646D01*
X93547154Y-52162276D01*
X93201738Y-52019200D01*
X92827862Y-52019200D01*
X92482446Y-52162276D01*
X92447722Y-52197000D01*
X91245078Y-52197000D01*
X91210354Y-52162276D01*
X90864938Y-52019200D01*
X90491062Y-52019200D01*
X90145646Y-52162276D01*
X89881276Y-52426646D01*
X89738200Y-52772062D01*
X34417000Y-52772062D01*
X34417000Y-50052000D01*
X65650969Y-50052000D01*
X65777864Y-50689945D01*
X66139231Y-51230769D01*
X66680055Y-51592136D01*
X67156969Y-51687000D01*
X68479031Y-51687000D01*
X68955945Y-51592136D01*
X69496769Y-51230769D01*
X69858136Y-50689945D01*
X69985031Y-50052000D01*
X69864225Y-49444662D01*
X89738200Y-49444662D01*
X89738200Y-49818538D01*
X89881276Y-50163954D01*
X90145646Y-50428324D01*
X90491062Y-50571400D01*
X90864938Y-50571400D01*
X91210354Y-50428324D01*
X91219678Y-50419000D01*
X93158922Y-50419000D01*
X93193646Y-50453724D01*
X93539062Y-50596800D01*
X93912938Y-50596800D01*
X94258354Y-50453724D01*
X94522724Y-50189354D01*
X94591228Y-50023970D01*
X94809062Y-50114200D01*
X95182938Y-50114200D01*
X95528354Y-49971124D01*
X95792724Y-49706754D01*
X95935800Y-49361338D01*
X95935800Y-48987462D01*
X95792724Y-48642046D01*
X95758000Y-48607322D01*
X95758000Y-48395278D01*
X95792724Y-48360554D01*
X95935800Y-48015138D01*
X95935800Y-47641262D01*
X95792724Y-47295846D01*
X95528354Y-47031476D01*
X95182938Y-46888400D01*
X94809062Y-46888400D01*
X94463646Y-47031476D01*
X94199276Y-47295846D01*
X94056200Y-47641262D01*
X94056200Y-48015138D01*
X94199276Y-48360554D01*
X94234000Y-48395278D01*
X94234001Y-48607321D01*
X94199276Y-48642046D01*
X94130772Y-48807430D01*
X93912938Y-48717200D01*
X93539062Y-48717200D01*
X93193646Y-48860276D01*
X93158922Y-48895000D01*
X91270478Y-48895000D01*
X91210354Y-48834876D01*
X90864938Y-48691800D01*
X90491062Y-48691800D01*
X90145646Y-48834876D01*
X89881276Y-49099246D01*
X89738200Y-49444662D01*
X69864225Y-49444662D01*
X69858136Y-49414055D01*
X69496769Y-48873231D01*
X68955945Y-48511864D01*
X68479031Y-48417000D01*
X67156969Y-48417000D01*
X66680055Y-48511864D01*
X66139231Y-48873231D01*
X65777864Y-49414055D01*
X65650969Y-50052000D01*
X34417000Y-50052000D01*
X34417000Y-45052000D01*
X65650969Y-45052000D01*
X65777864Y-45689945D01*
X66139231Y-46230769D01*
X66680055Y-46592136D01*
X67156969Y-46687000D01*
X68479031Y-46687000D01*
X68955945Y-46592136D01*
X69362533Y-46320462D01*
X85267800Y-46320462D01*
X85267800Y-46694338D01*
X85410876Y-47039754D01*
X85445601Y-47074479D01*
X85445600Y-47337322D01*
X85410876Y-47372046D01*
X85267800Y-47717462D01*
X85267800Y-48091338D01*
X85410876Y-48436754D01*
X85675246Y-48701124D01*
X86020662Y-48844200D01*
X86394538Y-48844200D01*
X86739954Y-48701124D01*
X87004324Y-48436754D01*
X87147400Y-48091338D01*
X87147400Y-47717462D01*
X87004324Y-47372046D01*
X86969600Y-47337322D01*
X86969600Y-47074478D01*
X87004324Y-47039754D01*
X87147400Y-46694338D01*
X87147400Y-46320462D01*
X87004324Y-45975046D01*
X86816340Y-45787062D01*
X89585800Y-45787062D01*
X89585800Y-46160938D01*
X89728876Y-46506354D01*
X89993246Y-46770724D01*
X90338662Y-46913800D01*
X90712538Y-46913800D01*
X91057954Y-46770724D01*
X91092678Y-46736000D01*
X91711122Y-46736000D01*
X91745846Y-46770724D01*
X92091262Y-46913800D01*
X92465138Y-46913800D01*
X92810554Y-46770724D01*
X93074924Y-46506354D01*
X93218000Y-46160938D01*
X93218000Y-45787062D01*
X93074924Y-45441646D01*
X92810554Y-45177276D01*
X92465138Y-45034200D01*
X92091262Y-45034200D01*
X91745846Y-45177276D01*
X91711122Y-45212000D01*
X91092678Y-45212000D01*
X91057954Y-45177276D01*
X90712538Y-45034200D01*
X90338662Y-45034200D01*
X89993246Y-45177276D01*
X89728876Y-45441646D01*
X89585800Y-45787062D01*
X86816340Y-45787062D01*
X86739954Y-45710676D01*
X86394538Y-45567600D01*
X86020662Y-45567600D01*
X85675246Y-45710676D01*
X85410876Y-45975046D01*
X85267800Y-46320462D01*
X69362533Y-46320462D01*
X69496769Y-46230769D01*
X69858136Y-45689945D01*
X69985031Y-45052000D01*
X69858136Y-44414055D01*
X69496769Y-43873231D01*
X68955945Y-43511864D01*
X68479031Y-43417000D01*
X67156969Y-43417000D01*
X66680055Y-43511864D01*
X66139231Y-43873231D01*
X65777864Y-44414055D01*
X65650969Y-45052000D01*
X34417000Y-45052000D01*
X34417000Y-40052000D01*
X65650969Y-40052000D01*
X65777864Y-40689945D01*
X66139231Y-41230769D01*
X66680055Y-41592136D01*
X67156969Y-41687000D01*
X68479031Y-41687000D01*
X68955945Y-41592136D01*
X69496769Y-41230769D01*
X69858136Y-40689945D01*
X69985031Y-40052000D01*
X69858136Y-39414055D01*
X69496769Y-38873231D01*
X68955945Y-38511864D01*
X68479031Y-38417000D01*
X67156969Y-38417000D01*
X66680055Y-38511864D01*
X66139231Y-38873231D01*
X65777864Y-39414055D01*
X65650969Y-40052000D01*
X34417000Y-40052000D01*
X34417000Y-36830000D01*
X34407333Y-36781399D01*
X34379803Y-36740197D01*
X34338601Y-36712667D01*
X34290000Y-36703000D01*
X18490000Y-36703000D01*
X18490000Y-34052000D01*
X65670560Y-34052000D01*
X65670560Y-36052000D01*
X65719843Y-36299765D01*
X65860191Y-36509809D01*
X66070235Y-36650157D01*
X66318000Y-36699440D01*
X69318000Y-36699440D01*
X69565765Y-36650157D01*
X69775809Y-36509809D01*
X69916157Y-36299765D01*
X69965440Y-36052000D01*
X69965440Y-34052000D01*
X69916157Y-33804235D01*
X69775809Y-33594191D01*
X69565765Y-33453843D01*
X69318000Y-33404560D01*
X66318000Y-33404560D01*
X66070235Y-33453843D01*
X65860191Y-33594191D01*
X65719843Y-33804235D01*
X65670560Y-34052000D01*
X18490000Y-34052000D01*
X18490000Y-26110000D01*
X111050001Y-26110000D01*
X111050000Y-79300000D01*
X111050000Y-79300000D01*
G37*
X111050000Y-79300000D02*
X18490000Y-79300000D01*
X18490000Y-70880000D01*
X65650969Y-70880000D01*
X65777864Y-71517945D01*
X66139231Y-72058769D01*
X66680055Y-72420136D01*
X67156969Y-72515000D01*
X68479031Y-72515000D01*
X68955945Y-72420136D01*
X69496769Y-72058769D01*
X69858136Y-71517945D01*
X69985031Y-70880000D01*
X69858136Y-70242055D01*
X69496769Y-69701231D01*
X68955945Y-69339864D01*
X68479031Y-69245000D01*
X67156969Y-69245000D01*
X66680055Y-69339864D01*
X66139231Y-69701231D01*
X65777864Y-70242055D01*
X65650969Y-70880000D01*
X18490000Y-70880000D01*
X18490000Y-68707000D01*
X34290000Y-68707000D01*
X34338601Y-68697333D01*
X34379803Y-68669803D01*
X34407333Y-68628601D01*
X34417000Y-68580000D01*
X34417000Y-65880000D01*
X65650969Y-65880000D01*
X65777864Y-66517945D01*
X66139231Y-67058769D01*
X66680055Y-67420136D01*
X67156969Y-67515000D01*
X68479031Y-67515000D01*
X68955945Y-67420136D01*
X69496769Y-67058769D01*
X69858136Y-66517945D01*
X69894394Y-66335662D01*
X102362000Y-66335662D01*
X102362000Y-66709538D01*
X102505076Y-67054954D01*
X102769446Y-67319324D01*
X103114862Y-67462400D01*
X103488738Y-67462400D01*
X103834154Y-67319324D01*
X104098524Y-67054954D01*
X104149325Y-66932310D01*
X106032560Y-65049076D01*
X106032560Y-66294000D01*
X106081843Y-66541765D01*
X106222191Y-66751809D01*
X106432235Y-66892157D01*
X106680000Y-66941440D01*
X109728000Y-66941440D01*
X109975765Y-66892157D01*
X110185809Y-66751809D01*
X110326157Y-66541765D01*
X110375440Y-66294000D01*
X110375440Y-64770000D01*
X110326157Y-64522235D01*
X110185809Y-64312191D01*
X109975765Y-64171843D01*
X109774643Y-64131838D01*
X109973180Y-63999180D01*
X110281944Y-63537082D01*
X110390368Y-62992000D01*
X110281944Y-62446918D01*
X109973180Y-61984820D01*
X109511082Y-61676056D01*
X109103588Y-61595000D01*
X107304412Y-61595000D01*
X106896918Y-61676056D01*
X106434820Y-61984820D01*
X106137755Y-62429409D01*
X102892090Y-65675075D01*
X102769446Y-65725876D01*
X102505076Y-65990246D01*
X102362000Y-66335662D01*
X69894394Y-66335662D01*
X69985031Y-65880000D01*
X69858136Y-65242055D01*
X69496769Y-64701231D01*
X68955945Y-64339864D01*
X68479031Y-64245000D01*
X67156969Y-64245000D01*
X66680055Y-64339864D01*
X66139231Y-64701231D01*
X65777864Y-65242055D01*
X65650969Y-65880000D01*
X34417000Y-65880000D01*
X34417000Y-60880000D01*
X65650969Y-60880000D01*
X65777864Y-61517945D01*
X66139231Y-62058769D01*
X66680055Y-62420136D01*
X67156969Y-62515000D01*
X68479031Y-62515000D01*
X68955945Y-62420136D01*
X69496769Y-62058769D01*
X69858136Y-61517945D01*
X69985031Y-60880000D01*
X69858136Y-60242055D01*
X69496769Y-59701231D01*
X68955945Y-59339864D01*
X68479031Y-59245000D01*
X67156969Y-59245000D01*
X66680055Y-59339864D01*
X66139231Y-59701231D01*
X65777864Y-60242055D01*
X65650969Y-60880000D01*
X34417000Y-60880000D01*
X34417000Y-54880000D01*
X65670560Y-54880000D01*
X65670560Y-56880000D01*
X65719843Y-57127765D01*
X65860191Y-57337809D01*
X66070235Y-57478157D01*
X66318000Y-57527440D01*
X69318000Y-57527440D01*
X69565765Y-57478157D01*
X69775809Y-57337809D01*
X69916157Y-57127765D01*
X69965440Y-56880000D01*
X69965440Y-55210462D01*
X79578200Y-55210462D01*
X79578200Y-55584338D01*
X79721276Y-55929754D01*
X79985646Y-56194124D01*
X80108290Y-56244925D01*
X80284669Y-56421304D01*
X80334267Y-56495533D01*
X80628330Y-56692019D01*
X80887644Y-56743600D01*
X80887648Y-56743600D01*
X80975199Y-56761015D01*
X81062750Y-56743600D01*
X82646820Y-56743600D01*
X82769462Y-56794400D01*
X83143338Y-56794400D01*
X83488754Y-56651324D01*
X83753124Y-56386954D01*
X83896200Y-56041538D01*
X83896200Y-55667662D01*
X83753124Y-55322246D01*
X83488754Y-55057876D01*
X83143338Y-54914800D01*
X82769462Y-54914800D01*
X82646820Y-54965600D01*
X81356375Y-54965600D01*
X81314724Y-54865046D01*
X81050354Y-54600676D01*
X80704938Y-54457600D01*
X80331062Y-54457600D01*
X79985646Y-54600676D01*
X79721276Y-54865046D01*
X79578200Y-55210462D01*
X69965440Y-55210462D01*
X69965440Y-54880000D01*
X69916157Y-54632235D01*
X69775809Y-54422191D01*
X69565765Y-54281843D01*
X69318000Y-54232560D01*
X66318000Y-54232560D01*
X66070235Y-54281843D01*
X65860191Y-54422191D01*
X65719843Y-54632235D01*
X65670560Y-54880000D01*
X34417000Y-54880000D01*
X34417000Y-52772062D01*
X89738200Y-52772062D01*
X89738200Y-53145938D01*
X89881276Y-53491354D01*
X90145646Y-53755724D01*
X90491062Y-53898800D01*
X90864938Y-53898800D01*
X91210354Y-53755724D01*
X91245078Y-53721000D01*
X92447722Y-53721000D01*
X92482446Y-53755724D01*
X92827862Y-53898800D01*
X93201738Y-53898800D01*
X93547154Y-53755724D01*
X93811524Y-53491354D01*
X93954600Y-53145938D01*
X93954600Y-52832000D01*
X106017632Y-52832000D01*
X106126056Y-53377082D01*
X106434820Y-53839180D01*
X106828158Y-54102000D01*
X106434820Y-54364820D01*
X106126056Y-54826918D01*
X106017632Y-55372000D01*
X106126056Y-55917082D01*
X106434820Y-56379180D01*
X106828158Y-56642000D01*
X106434820Y-56904820D01*
X106126056Y-57366918D01*
X106017632Y-57912000D01*
X106126056Y-58457082D01*
X106434820Y-58919180D01*
X106896918Y-59227944D01*
X107304412Y-59309000D01*
X109103588Y-59309000D01*
X109511082Y-59227944D01*
X109973180Y-58919180D01*
X110281944Y-58457082D01*
X110390368Y-57912000D01*
X110281944Y-57366918D01*
X109973180Y-56904820D01*
X109579842Y-56642000D01*
X109973180Y-56379180D01*
X110281944Y-55917082D01*
X110390368Y-55372000D01*
X110281944Y-54826918D01*
X109973180Y-54364820D01*
X109579842Y-54102000D01*
X109973180Y-53839180D01*
X110281944Y-53377082D01*
X110390368Y-52832000D01*
X110281944Y-52286918D01*
X109973180Y-51824820D01*
X109511082Y-51516056D01*
X109103588Y-51435000D01*
X107304412Y-51435000D01*
X106896918Y-51516056D01*
X106434820Y-51824820D01*
X106126056Y-52286918D01*
X106017632Y-52832000D01*
X93954600Y-52832000D01*
X93954600Y-52772062D01*
X93811524Y-52426646D01*
X93547154Y-52162276D01*
X93201738Y-52019200D01*
X92827862Y-52019200D01*
X92482446Y-52162276D01*
X92447722Y-52197000D01*
X91245078Y-52197000D01*
X91210354Y-52162276D01*
X90864938Y-52019200D01*
X90491062Y-52019200D01*
X90145646Y-52162276D01*
X89881276Y-52426646D01*
X89738200Y-52772062D01*
X34417000Y-52772062D01*
X34417000Y-50052000D01*
X65650969Y-50052000D01*
X65777864Y-50689945D01*
X66139231Y-51230769D01*
X66680055Y-51592136D01*
X67156969Y-51687000D01*
X68479031Y-51687000D01*
X68955945Y-51592136D01*
X69496769Y-51230769D01*
X69858136Y-50689945D01*
X69985031Y-50052000D01*
X69864225Y-49444662D01*
X89738200Y-49444662D01*
X89738200Y-49818538D01*
X89881276Y-50163954D01*
X90145646Y-50428324D01*
X90491062Y-50571400D01*
X90864938Y-50571400D01*
X91210354Y-50428324D01*
X91219678Y-50419000D01*
X93158922Y-50419000D01*
X93193646Y-50453724D01*
X93539062Y-50596800D01*
X93912938Y-50596800D01*
X94258354Y-50453724D01*
X94522724Y-50189354D01*
X94591228Y-50023970D01*
X94809062Y-50114200D01*
X95182938Y-50114200D01*
X95528354Y-49971124D01*
X95792724Y-49706754D01*
X95935800Y-49361338D01*
X95935800Y-48987462D01*
X95792724Y-48642046D01*
X95758000Y-48607322D01*
X95758000Y-48395278D01*
X95792724Y-48360554D01*
X95935800Y-48015138D01*
X95935800Y-47641262D01*
X95792724Y-47295846D01*
X95528354Y-47031476D01*
X95182938Y-46888400D01*
X94809062Y-46888400D01*
X94463646Y-47031476D01*
X94199276Y-47295846D01*
X94056200Y-47641262D01*
X94056200Y-48015138D01*
X94199276Y-48360554D01*
X94234000Y-48395278D01*
X94234001Y-48607321D01*
X94199276Y-48642046D01*
X94130772Y-48807430D01*
X93912938Y-48717200D01*
X93539062Y-48717200D01*
X93193646Y-48860276D01*
X93158922Y-48895000D01*
X91270478Y-48895000D01*
X91210354Y-48834876D01*
X90864938Y-48691800D01*
X90491062Y-48691800D01*
X90145646Y-48834876D01*
X89881276Y-49099246D01*
X89738200Y-49444662D01*
X69864225Y-49444662D01*
X69858136Y-49414055D01*
X69496769Y-48873231D01*
X68955945Y-48511864D01*
X68479031Y-48417000D01*
X67156969Y-48417000D01*
X66680055Y-48511864D01*
X66139231Y-48873231D01*
X65777864Y-49414055D01*
X65650969Y-50052000D01*
X34417000Y-50052000D01*
X34417000Y-45052000D01*
X65650969Y-45052000D01*
X65777864Y-45689945D01*
X66139231Y-46230769D01*
X66680055Y-46592136D01*
X67156969Y-46687000D01*
X68479031Y-46687000D01*
X68955945Y-46592136D01*
X69362533Y-46320462D01*
X85267800Y-46320462D01*
X85267800Y-46694338D01*
X85410876Y-47039754D01*
X85445601Y-47074479D01*
X85445600Y-47337322D01*
X85410876Y-47372046D01*
X85267800Y-47717462D01*
X85267800Y-48091338D01*
X85410876Y-48436754D01*
X85675246Y-48701124D01*
X86020662Y-48844200D01*
X86394538Y-48844200D01*
X86739954Y-48701124D01*
X87004324Y-48436754D01*
X87147400Y-48091338D01*
X87147400Y-47717462D01*
X87004324Y-47372046D01*
X86969600Y-47337322D01*
X86969600Y-47074478D01*
X87004324Y-47039754D01*
X87147400Y-46694338D01*
X87147400Y-46320462D01*
X87004324Y-45975046D01*
X86816340Y-45787062D01*
X89585800Y-45787062D01*
X89585800Y-46160938D01*
X89728876Y-46506354D01*
X89993246Y-46770724D01*
X90338662Y-46913800D01*
X90712538Y-46913800D01*
X91057954Y-46770724D01*
X91092678Y-46736000D01*
X91711122Y-46736000D01*
X91745846Y-46770724D01*
X92091262Y-46913800D01*
X92465138Y-46913800D01*
X92810554Y-46770724D01*
X93074924Y-46506354D01*
X93218000Y-46160938D01*
X93218000Y-45787062D01*
X93074924Y-45441646D01*
X92810554Y-45177276D01*
X92465138Y-45034200D01*
X92091262Y-45034200D01*
X91745846Y-45177276D01*
X91711122Y-45212000D01*
X91092678Y-45212000D01*
X91057954Y-45177276D01*
X90712538Y-45034200D01*
X90338662Y-45034200D01*
X89993246Y-45177276D01*
X89728876Y-45441646D01*
X89585800Y-45787062D01*
X86816340Y-45787062D01*
X86739954Y-45710676D01*
X86394538Y-45567600D01*
X86020662Y-45567600D01*
X85675246Y-45710676D01*
X85410876Y-45975046D01*
X85267800Y-46320462D01*
X69362533Y-46320462D01*
X69496769Y-46230769D01*
X69858136Y-45689945D01*
X69985031Y-45052000D01*
X69858136Y-44414055D01*
X69496769Y-43873231D01*
X68955945Y-43511864D01*
X68479031Y-43417000D01*
X67156969Y-43417000D01*
X66680055Y-43511864D01*
X66139231Y-43873231D01*
X65777864Y-44414055D01*
X65650969Y-45052000D01*
X34417000Y-45052000D01*
X34417000Y-40052000D01*
X65650969Y-40052000D01*
X65777864Y-40689945D01*
X66139231Y-41230769D01*
X66680055Y-41592136D01*
X67156969Y-41687000D01*
X68479031Y-41687000D01*
X68955945Y-41592136D01*
X69496769Y-41230769D01*
X69858136Y-40689945D01*
X69985031Y-40052000D01*
X69858136Y-39414055D01*
X69496769Y-38873231D01*
X68955945Y-38511864D01*
X68479031Y-38417000D01*
X67156969Y-38417000D01*
X66680055Y-38511864D01*
X66139231Y-38873231D01*
X65777864Y-39414055D01*
X65650969Y-40052000D01*
X34417000Y-40052000D01*
X34417000Y-36830000D01*
X34407333Y-36781399D01*
X34379803Y-36740197D01*
X34338601Y-36712667D01*
X34290000Y-36703000D01*
X18490000Y-36703000D01*
X18490000Y-34052000D01*
X65670560Y-34052000D01*
X65670560Y-36052000D01*
X65719843Y-36299765D01*
X65860191Y-36509809D01*
X66070235Y-36650157D01*
X66318000Y-36699440D01*
X69318000Y-36699440D01*
X69565765Y-36650157D01*
X69775809Y-36509809D01*
X69916157Y-36299765D01*
X69965440Y-36052000D01*
X69965440Y-34052000D01*
X69916157Y-33804235D01*
X69775809Y-33594191D01*
X69565765Y-33453843D01*
X69318000Y-33404560D01*
X66318000Y-33404560D01*
X66070235Y-33453843D01*
X65860191Y-33594191D01*
X65719843Y-33804235D01*
X65670560Y-34052000D01*
X18490000Y-34052000D01*
X18490000Y-26110000D01*
X111050001Y-26110000D01*
X111050000Y-79300000D01*
G04 #@! TD*
M02*
