G04 #@! TF.FileFunction,Legend,Bot*
%FSLAX46Y46*%
G04 Gerber Fmt 4.6, Leading zero omitted, Abs format (unit mm)*
G04 Created by KiCad (PCBNEW 4.0.7) date 12/16/17 16:03:18*
%MOMM*%
%LPD*%
G01*
G04 APERTURE LIST*
%ADD10C,0.100000*%
%ADD11C,0.203200*%
%ADD12C,0.150000*%
G04 APERTURE END LIST*
D10*
D11*
X88578000Y-129911000D02*
X85022000Y-129911000D01*
X85022000Y-129911000D02*
X85022000Y-131689000D01*
X85022000Y-131689000D02*
X88578000Y-131689000D01*
X88578000Y-131689000D02*
X88578000Y-129911000D01*
X62484000Y-159131000D02*
X58928000Y-159131000D01*
X58928000Y-159131000D02*
X58928000Y-160909000D01*
X58928000Y-160909000D02*
X62484000Y-160909000D01*
X62484000Y-160909000D02*
X62484000Y-159131000D01*
X65786000Y-158115000D02*
X65786000Y-158496000D01*
X65786000Y-158496000D02*
X68326000Y-158496000D01*
X68326000Y-158496000D02*
X68326000Y-158115000D01*
X65786000Y-150749000D02*
X65786000Y-158115000D01*
X65786000Y-158115000D02*
X68326000Y-158115000D01*
X68326000Y-158115000D02*
X68326000Y-150749000D01*
X68326000Y-150749000D02*
X65786000Y-150749000D01*
X43020000Y-156324000D02*
X51021000Y-156324000D01*
X51021000Y-156324000D02*
X51021000Y-153276000D01*
X51021000Y-153276000D02*
X43020000Y-153276000D01*
X50640000Y-156324000D02*
X50640000Y-153276000D01*
X43020000Y-156324000D02*
X43020000Y-153276000D01*
X50640000Y-157086000D02*
X42639000Y-157086000D01*
X42639000Y-157086000D02*
X42639000Y-160134000D01*
X42639000Y-160134000D02*
X50640000Y-160134000D01*
X43020000Y-157086000D02*
X43020000Y-160134000D01*
X50640000Y-157086000D02*
X50640000Y-160134000D01*
X117729000Y-135382000D02*
X117729000Y-138938000D01*
X117729000Y-138938000D02*
X119507000Y-138938000D01*
X119507000Y-138938000D02*
X119507000Y-135382000D01*
X119507000Y-135382000D02*
X117729000Y-135382000D01*
X115189000Y-135382000D02*
X115189000Y-138938000D01*
X115189000Y-138938000D02*
X116967000Y-138938000D01*
X116967000Y-138938000D02*
X116967000Y-135382000D01*
X116967000Y-135382000D02*
X115189000Y-135382000D01*
X59563000Y-147066000D02*
X59563000Y-150622000D01*
X59563000Y-150622000D02*
X61341000Y-150622000D01*
X61341000Y-150622000D02*
X61341000Y-147066000D01*
X61341000Y-147066000D02*
X59563000Y-147066000D01*
X57531000Y-147066000D02*
X57531000Y-150622000D01*
X57531000Y-150622000D02*
X59309000Y-150622000D01*
X59309000Y-150622000D02*
X59309000Y-147066000D01*
X59309000Y-147066000D02*
X57531000Y-147066000D01*
X46195000Y-162928000D02*
X50259000Y-162928000D01*
X50259000Y-162928000D02*
X50259000Y-160642000D01*
X50259000Y-160642000D02*
X46195000Y-160642000D01*
X46195000Y-160642000D02*
X46195000Y-162928000D01*
D12*
X64630000Y-155540000D02*
G75*
G02X64030000Y-154940000I0J600000D01*
G01*
X64030000Y-154940000D02*
G75*
G02X64630000Y-154340000I600000J0D01*
G01*
X59830000Y-156540000D02*
X59830000Y-153340000D01*
X59830000Y-153340000D02*
X64630000Y-153340000D01*
X64630000Y-153340000D02*
X64630000Y-154340000D01*
X59830000Y-156540000D02*
X64630000Y-156540000D01*
X64630000Y-156540000D02*
X64630000Y-155540000D01*
D11*
X61595000Y-150622000D02*
X65659000Y-150622000D01*
X65659000Y-150622000D02*
X65659000Y-148336000D01*
X65659000Y-148336000D02*
X61595000Y-148336000D01*
X61595000Y-148336000D02*
X61595000Y-150622000D01*
D12*
X86966666Y-132857143D02*
X87014285Y-132904762D01*
X87157142Y-132952381D01*
X87252380Y-132952381D01*
X87395238Y-132904762D01*
X87490476Y-132809524D01*
X87538095Y-132714286D01*
X87585714Y-132523810D01*
X87585714Y-132380952D01*
X87538095Y-132190476D01*
X87490476Y-132095238D01*
X87395238Y-132000000D01*
X87252380Y-131952381D01*
X87157142Y-131952381D01*
X87014285Y-132000000D01*
X86966666Y-132047619D01*
X86014285Y-132952381D02*
X86585714Y-132952381D01*
X86300000Y-132952381D02*
X86300000Y-131952381D01*
X86395238Y-132095238D01*
X86490476Y-132190476D01*
X86585714Y-132238095D01*
X61348857Y-162409143D02*
X61396476Y-162456762D01*
X61539333Y-162504381D01*
X61634571Y-162504381D01*
X61777429Y-162456762D01*
X61872667Y-162361524D01*
X61920286Y-162266286D01*
X61967905Y-162075810D01*
X61967905Y-161932952D01*
X61920286Y-161742476D01*
X61872667Y-161647238D01*
X61777429Y-161552000D01*
X61634571Y-161504381D01*
X61539333Y-161504381D01*
X61396476Y-161552000D01*
X61348857Y-161599619D01*
X60967905Y-161599619D02*
X60920286Y-161552000D01*
X60825048Y-161504381D01*
X60586952Y-161504381D01*
X60491714Y-161552000D01*
X60444095Y-161599619D01*
X60396476Y-161694857D01*
X60396476Y-161790095D01*
X60444095Y-161932952D01*
X61015524Y-162504381D01*
X60396476Y-162504381D01*
X59539333Y-161837714D02*
X59539333Y-162504381D01*
X59777429Y-161456762D02*
X60015524Y-162171048D01*
X59396476Y-162171048D01*
X69794381Y-151693714D02*
X68794381Y-151693714D01*
X68794381Y-151931809D01*
X68842000Y-152074667D01*
X68937238Y-152169905D01*
X69032476Y-152217524D01*
X69222952Y-152265143D01*
X69365810Y-152265143D01*
X69556286Y-152217524D01*
X69651524Y-152169905D01*
X69746762Y-152074667D01*
X69794381Y-151931809D01*
X69794381Y-151693714D01*
X69794381Y-153217524D02*
X69794381Y-152646095D01*
X69794381Y-152931809D02*
X68794381Y-152931809D01*
X68937238Y-152836571D01*
X69032476Y-152741333D01*
X69080095Y-152646095D01*
X68889619Y-153598476D02*
X68842000Y-153646095D01*
X68794381Y-153741333D01*
X68794381Y-153979429D01*
X68842000Y-154074667D01*
X68889619Y-154122286D01*
X68984857Y-154169905D01*
X69080095Y-154169905D01*
X69222952Y-154122286D01*
X69794381Y-153550857D01*
X69794381Y-154169905D01*
X45714286Y-152752381D02*
X45714286Y-151752381D01*
X45476191Y-151752381D01*
X45333333Y-151800000D01*
X45238095Y-151895238D01*
X45190476Y-151990476D01*
X45142857Y-152180952D01*
X45142857Y-152323810D01*
X45190476Y-152514286D01*
X45238095Y-152609524D01*
X45333333Y-152704762D01*
X45476191Y-152752381D01*
X45714286Y-152752381D01*
X44190476Y-152752381D02*
X44761905Y-152752381D01*
X44476191Y-152752381D02*
X44476191Y-151752381D01*
X44571429Y-151895238D01*
X44666667Y-151990476D01*
X44761905Y-152038095D01*
X43285714Y-151752381D02*
X43761905Y-151752381D01*
X43809524Y-152228571D01*
X43761905Y-152180952D01*
X43666667Y-152133333D01*
X43428571Y-152133333D01*
X43333333Y-152180952D01*
X43285714Y-152228571D01*
X43238095Y-152323810D01*
X43238095Y-152561905D01*
X43285714Y-152657143D01*
X43333333Y-152704762D01*
X43428571Y-152752381D01*
X43666667Y-152752381D01*
X43761905Y-152704762D01*
X43809524Y-152657143D01*
X45504286Y-161602381D02*
X45504286Y-160602381D01*
X45266191Y-160602381D01*
X45123333Y-160650000D01*
X45028095Y-160745238D01*
X44980476Y-160840476D01*
X44932857Y-161030952D01*
X44932857Y-161173810D01*
X44980476Y-161364286D01*
X45028095Y-161459524D01*
X45123333Y-161554762D01*
X45266191Y-161602381D01*
X45504286Y-161602381D01*
X43980476Y-161602381D02*
X44551905Y-161602381D01*
X44266191Y-161602381D02*
X44266191Y-160602381D01*
X44361429Y-160745238D01*
X44456667Y-160840476D01*
X44551905Y-160888095D01*
X43123333Y-160602381D02*
X43313810Y-160602381D01*
X43409048Y-160650000D01*
X43456667Y-160697619D01*
X43551905Y-160840476D01*
X43599524Y-161030952D01*
X43599524Y-161411905D01*
X43551905Y-161507143D01*
X43504286Y-161554762D01*
X43409048Y-161602381D01*
X43218571Y-161602381D01*
X43123333Y-161554762D01*
X43075714Y-161507143D01*
X43028095Y-161411905D01*
X43028095Y-161173810D01*
X43075714Y-161078571D01*
X43123333Y-161030952D01*
X43218571Y-160983333D01*
X43409048Y-160983333D01*
X43504286Y-161030952D01*
X43551905Y-161078571D01*
X43599524Y-161173810D01*
X119070381Y-133183334D02*
X118594190Y-132850000D01*
X119070381Y-132611905D02*
X118070381Y-132611905D01*
X118070381Y-132992858D01*
X118118000Y-133088096D01*
X118165619Y-133135715D01*
X118260857Y-133183334D01*
X118403714Y-133183334D01*
X118498952Y-133135715D01*
X118546571Y-133088096D01*
X118594190Y-132992858D01*
X118594190Y-132611905D01*
X118165619Y-133564286D02*
X118118000Y-133611905D01*
X118070381Y-133707143D01*
X118070381Y-133945239D01*
X118118000Y-134040477D01*
X118165619Y-134088096D01*
X118260857Y-134135715D01*
X118356095Y-134135715D01*
X118498952Y-134088096D01*
X119070381Y-133516667D01*
X119070381Y-134135715D01*
X116530381Y-133183334D02*
X116054190Y-132850000D01*
X116530381Y-132611905D02*
X115530381Y-132611905D01*
X115530381Y-132992858D01*
X115578000Y-133088096D01*
X115625619Y-133135715D01*
X115720857Y-133183334D01*
X115863714Y-133183334D01*
X115958952Y-133135715D01*
X116006571Y-133088096D01*
X116054190Y-132992858D01*
X116054190Y-132611905D01*
X115863714Y-134040477D02*
X116530381Y-134040477D01*
X115482762Y-133802381D02*
X116197048Y-133564286D01*
X116197048Y-134183334D01*
X60904381Y-144899143D02*
X60428190Y-144565809D01*
X60904381Y-144327714D02*
X59904381Y-144327714D01*
X59904381Y-144708667D01*
X59952000Y-144803905D01*
X59999619Y-144851524D01*
X60094857Y-144899143D01*
X60237714Y-144899143D01*
X60332952Y-144851524D01*
X60380571Y-144803905D01*
X60428190Y-144708667D01*
X60428190Y-144327714D01*
X60237714Y-145756286D02*
X60904381Y-145756286D01*
X59856762Y-145518190D02*
X60571048Y-145280095D01*
X60571048Y-145899143D01*
X59904381Y-146184857D02*
X59904381Y-146803905D01*
X60285333Y-146470571D01*
X60285333Y-146613429D01*
X60332952Y-146708667D01*
X60380571Y-146756286D01*
X60475810Y-146803905D01*
X60713905Y-146803905D01*
X60809143Y-146756286D01*
X60856762Y-146708667D01*
X60904381Y-146613429D01*
X60904381Y-146327714D01*
X60856762Y-146232476D01*
X60809143Y-146184857D01*
X58872381Y-144899143D02*
X58396190Y-144565809D01*
X58872381Y-144327714D02*
X57872381Y-144327714D01*
X57872381Y-144708667D01*
X57920000Y-144803905D01*
X57967619Y-144851524D01*
X58062857Y-144899143D01*
X58205714Y-144899143D01*
X58300952Y-144851524D01*
X58348571Y-144803905D01*
X58396190Y-144708667D01*
X58396190Y-144327714D01*
X58205714Y-145756286D02*
X58872381Y-145756286D01*
X57824762Y-145518190D02*
X58539048Y-145280095D01*
X58539048Y-145899143D01*
X58205714Y-146708667D02*
X58872381Y-146708667D01*
X57824762Y-146470571D02*
X58539048Y-146232476D01*
X58539048Y-146851524D01*
X48869857Y-164269381D02*
X49203191Y-163793190D01*
X49441286Y-164269381D02*
X49441286Y-163269381D01*
X49060333Y-163269381D01*
X48965095Y-163317000D01*
X48917476Y-163364619D01*
X48869857Y-163459857D01*
X48869857Y-163602714D01*
X48917476Y-163697952D01*
X48965095Y-163745571D01*
X49060333Y-163793190D01*
X49441286Y-163793190D01*
X48012714Y-163602714D02*
X48012714Y-164269381D01*
X48250810Y-163221762D02*
X48488905Y-163936048D01*
X47869857Y-163936048D01*
X47012714Y-163269381D02*
X47488905Y-163269381D01*
X47536524Y-163745571D01*
X47488905Y-163697952D01*
X47393667Y-163650333D01*
X47155571Y-163650333D01*
X47060333Y-163697952D01*
X47012714Y-163745571D01*
X46965095Y-163840810D01*
X46965095Y-164078905D01*
X47012714Y-164174143D01*
X47060333Y-164221762D01*
X47155571Y-164269381D01*
X47393667Y-164269381D01*
X47488905Y-164221762D01*
X47536524Y-164174143D01*
X58380381Y-153701905D02*
X59189905Y-153701905D01*
X59285143Y-153749524D01*
X59332762Y-153797143D01*
X59380381Y-153892381D01*
X59380381Y-154082858D01*
X59332762Y-154178096D01*
X59285143Y-154225715D01*
X59189905Y-154273334D01*
X58380381Y-154273334D01*
X59380381Y-155273334D02*
X59380381Y-154701905D01*
X59380381Y-154987619D02*
X58380381Y-154987619D01*
X58523238Y-154892381D01*
X58618476Y-154797143D01*
X58666095Y-154701905D01*
X58380381Y-156178096D02*
X58380381Y-155701905D01*
X58856571Y-155654286D01*
X58808952Y-155701905D01*
X58761333Y-155797143D01*
X58761333Y-156035239D01*
X58808952Y-156130477D01*
X58856571Y-156178096D01*
X58951810Y-156225715D01*
X59189905Y-156225715D01*
X59285143Y-156178096D01*
X59332762Y-156130477D01*
X59380381Y-156035239D01*
X59380381Y-155797143D01*
X59332762Y-155701905D01*
X59285143Y-155654286D01*
X64142857Y-147952381D02*
X64476191Y-147476190D01*
X64714286Y-147952381D02*
X64714286Y-146952381D01*
X64333333Y-146952381D01*
X64238095Y-147000000D01*
X64190476Y-147047619D01*
X64142857Y-147142857D01*
X64142857Y-147285714D01*
X64190476Y-147380952D01*
X64238095Y-147428571D01*
X64333333Y-147476190D01*
X64714286Y-147476190D01*
X63285714Y-147285714D02*
X63285714Y-147952381D01*
X63523810Y-146904762D02*
X63761905Y-147619048D01*
X63142857Y-147619048D01*
X62571429Y-146952381D02*
X62476190Y-146952381D01*
X62380952Y-147000000D01*
X62333333Y-147047619D01*
X62285714Y-147142857D01*
X62238095Y-147333333D01*
X62238095Y-147571429D01*
X62285714Y-147761905D01*
X62333333Y-147857143D01*
X62380952Y-147904762D01*
X62476190Y-147952381D01*
X62571429Y-147952381D01*
X62666667Y-147904762D01*
X62714286Y-147857143D01*
X62761905Y-147761905D01*
X62809524Y-147571429D01*
X62809524Y-147333333D01*
X62761905Y-147142857D01*
X62714286Y-147047619D01*
X62666667Y-147000000D01*
X62571429Y-146952381D01*
M02*
