G04 #@! TF.FileFunction,Copper,L1,Top,Signal*
%FSLAX46Y46*%
G04 Gerber Fmt 4.6, Leading zero omitted, Abs format (unit mm)*
G04 Created by KiCad (PCBNEW 4.0.7) date 12/16/17 16:03:18*
%MOMM*%
%LPD*%
G01*
G04 APERTURE LIST*
%ADD10C,0.100000*%
%ADD11R,4.600000X2.000000*%
%ADD12R,1.000000X0.950000*%
%ADD13R,1.950000X0.600000*%
%ADD14R,0.950000X1.000000*%
%ADD15R,1.000000X1.400000*%
%ADD16R,1.450000X1.150000*%
%ADD17R,1.150000X1.450000*%
%ADD18R,0.950000X2.150000*%
%ADD19R,3.250000X2.150000*%
%ADD20R,3.000000X1.500000*%
%ADD21R,2.300000X2.500000*%
%ADD22R,1.700000X2.500000*%
%ADD23R,2.500000X2.300000*%
%ADD24R,3.000000X2.000000*%
%ADD25O,3.000000X2.000000*%
%ADD26R,2.900000X5.400000*%
%ADD27C,4.000000*%
%ADD28R,1.400000X1.000000*%
%ADD29R,1.550000X0.600000*%
%ADD30R,1.000000X0.700000*%
%ADD31C,1.625000*%
%ADD32R,2.540000X1.520000*%
%ADD33R,1.524000X3.048000*%
%ADD34O,1.524000X3.048000*%
%ADD35C,0.600000*%
%ADD36C,0.500000*%
%ADD37C,0.200000*%
%ADD38C,1.500000*%
%ADD39C,1.000000*%
%ADD40C,2.000000*%
%ADD41C,0.600000*%
G04 APERTURE END LIST*
D10*
D11*
X71660000Y-149860000D03*
X62960000Y-149860000D03*
D12*
X118925000Y-116300000D03*
X117275000Y-116300000D03*
X118925000Y-111900000D03*
X117275000Y-111900000D03*
D13*
X93474000Y-132334000D03*
X93474000Y-134874000D03*
X93474000Y-136144000D03*
X93474000Y-133604000D03*
X93474000Y-137414000D03*
X93474000Y-143764000D03*
X93474000Y-139954000D03*
X93474000Y-142494000D03*
X93474000Y-141224000D03*
X93474000Y-138684000D03*
X84074000Y-138684000D03*
X84074000Y-141224000D03*
X84074000Y-142494000D03*
X84074000Y-139954000D03*
X84074000Y-143764000D03*
X84074000Y-137414000D03*
X84074000Y-133604000D03*
X84074000Y-136144000D03*
X84074000Y-134874000D03*
X84074000Y-132334000D03*
D12*
X82005000Y-118806000D03*
X83655000Y-118806000D03*
D14*
X76480000Y-123187000D03*
X76480000Y-121537000D03*
X83592000Y-123124000D03*
X83592000Y-121474000D03*
D15*
X79086000Y-123292000D03*
X80986000Y-123292000D03*
X80036000Y-121092000D03*
D16*
X79248000Y-153407000D03*
X79248000Y-155457000D03*
D17*
X87639000Y-155194000D03*
X85589000Y-155194000D03*
D18*
X87898000Y-158284000D03*
X85598000Y-158284000D03*
X83298000Y-158284000D03*
D19*
X85598000Y-164084000D03*
D20*
X83852000Y-150876000D03*
X87852000Y-150876000D03*
D21*
X79756000Y-159394000D03*
X79756000Y-163694000D03*
D14*
X69088000Y-110427000D03*
X69088000Y-112077000D03*
X44069000Y-108014000D03*
X44069000Y-109664000D03*
D12*
X116268000Y-131318000D03*
X114618000Y-131318000D03*
D14*
X102090000Y-126451000D03*
X102090000Y-124801000D03*
X108694000Y-124801000D03*
X108694000Y-126451000D03*
X103378000Y-152463000D03*
X103378000Y-150813000D03*
X109982000Y-150813000D03*
X109982000Y-152463000D03*
D12*
X78886000Y-127363000D03*
X77236000Y-127363000D03*
D14*
X92818000Y-126479000D03*
X92818000Y-124829000D03*
X99676000Y-124829000D03*
X99676000Y-126479000D03*
X100974000Y-161023000D03*
X100974000Y-162673000D03*
X93862000Y-162673000D03*
X93862000Y-161023000D03*
X104892000Y-112077000D03*
X104892000Y-110427000D03*
X112004000Y-110490000D03*
X112004000Y-112140000D03*
X111080000Y-126431000D03*
X111080000Y-124781000D03*
X118192000Y-124781000D03*
X118192000Y-126431000D03*
X94388000Y-112252000D03*
X94388000Y-110602000D03*
X101500000Y-110539000D03*
X101500000Y-112189000D03*
D11*
X52610000Y-147320000D03*
X43910000Y-147320000D03*
D22*
X73152000Y-109125000D03*
X73152000Y-113125000D03*
D14*
X121412000Y-160719000D03*
X121412000Y-162369000D03*
X117602000Y-160719000D03*
X117602000Y-162369000D03*
X113792000Y-160719000D03*
X113792000Y-162369000D03*
D12*
X67881000Y-122428000D03*
X66231000Y-122428000D03*
D22*
X62992000Y-123730000D03*
X62992000Y-127730000D03*
D12*
X67881000Y-134112000D03*
X66231000Y-134112000D03*
D22*
X62992000Y-135414000D03*
X62992000Y-139414000D03*
D14*
X105791000Y-160719000D03*
X105791000Y-162369000D03*
X109728000Y-160719000D03*
X109728000Y-162369000D03*
D23*
X48980000Y-154800000D03*
X44680000Y-154800000D03*
X44680000Y-158610000D03*
X48980000Y-158610000D03*
D24*
X124968000Y-129540000D03*
D25*
X124968000Y-134540000D03*
X124968000Y-139540000D03*
X124968000Y-144540000D03*
D24*
X35560000Y-119460000D03*
D25*
X35560000Y-124460000D03*
X35560000Y-129460000D03*
X35560000Y-134460000D03*
D24*
X124968000Y-107696000D03*
D25*
X124968000Y-112696000D03*
X124968000Y-117696000D03*
X124968000Y-122696000D03*
D24*
X35560000Y-140970000D03*
D25*
X35560000Y-145970000D03*
X35560000Y-150970000D03*
X35560000Y-155970000D03*
D26*
X62460000Y-162560000D03*
X72160000Y-162560000D03*
D27*
X34000000Y-166000000D03*
X124900000Y-164700000D03*
X116600000Y-108000000D03*
X34000000Y-106000000D03*
D15*
X122428000Y-151638000D03*
X120528000Y-151638000D03*
X121478000Y-153838000D03*
X118486000Y-147828000D03*
X116586000Y-147828000D03*
X117536000Y-150028000D03*
X114676000Y-151892000D03*
X112776000Y-151892000D03*
X113726000Y-154092000D03*
D28*
X68326000Y-128900000D03*
X68326000Y-127000000D03*
X66126000Y-127950000D03*
X68240000Y-140396000D03*
X68240000Y-138496000D03*
X66040000Y-139446000D03*
D14*
X118618000Y-135065000D03*
X118618000Y-136715000D03*
X118618000Y-140525000D03*
X118618000Y-138875000D03*
X69088000Y-116014000D03*
X69088000Y-114364000D03*
D12*
X79501000Y-113792000D03*
X77851000Y-113792000D03*
X108013000Y-134620000D03*
X106363000Y-134620000D03*
X106363000Y-136652000D03*
X108013000Y-136652000D03*
X108013000Y-138684000D03*
X106363000Y-138684000D03*
X45784000Y-114935000D03*
X47434000Y-114935000D03*
X98193000Y-133550000D03*
X96543000Y-133550000D03*
X98193000Y-135582000D03*
X96543000Y-135582000D03*
X93799000Y-158546000D03*
X95449000Y-158546000D03*
X108013000Y-140716000D03*
X106363000Y-140716000D03*
D14*
X43561000Y-113221000D03*
X43561000Y-114871000D03*
D12*
X104567000Y-122832000D03*
X106217000Y-122832000D03*
X105855000Y-148844000D03*
X107505000Y-148844000D03*
D14*
X121412000Y-156401000D03*
X121412000Y-158051000D03*
X117602000Y-156401000D03*
X117602000Y-158051000D03*
X113792000Y-156401000D03*
X113792000Y-158051000D03*
D12*
X79439000Y-139954000D03*
X81089000Y-139954000D03*
X75375000Y-135300000D03*
X77025000Y-135300000D03*
D14*
X81998000Y-128570000D03*
X81998000Y-130220000D03*
D12*
X93027000Y-145796000D03*
X91377000Y-145796000D03*
X81089000Y-142494000D03*
X79439000Y-142494000D03*
X95549000Y-122860000D03*
X97199000Y-122860000D03*
X98243000Y-164642000D03*
X96593000Y-164642000D03*
X107623000Y-108458000D03*
X109273000Y-108458000D03*
X67881000Y-124460000D03*
X66231000Y-124460000D03*
X68325000Y-131200000D03*
X66675000Y-131200000D03*
X113811000Y-122812000D03*
X115461000Y-122812000D03*
X97119000Y-108570000D03*
X98769000Y-108570000D03*
X118925000Y-114100000D03*
X117275000Y-114100000D03*
X67881000Y-136144000D03*
X66231000Y-136144000D03*
X69125000Y-142800000D03*
X67475000Y-142800000D03*
D14*
X109728000Y-158051000D03*
X109728000Y-156401000D03*
X105791000Y-158051000D03*
X105791000Y-156401000D03*
D29*
X110838000Y-133350000D03*
X110838000Y-134620000D03*
X110838000Y-135890000D03*
X110838000Y-137160000D03*
X110838000Y-138430000D03*
X110838000Y-139700000D03*
X110838000Y-140970000D03*
X116238000Y-140970000D03*
X116238000Y-139700000D03*
X116238000Y-138430000D03*
X116238000Y-137160000D03*
X116238000Y-135890000D03*
X116238000Y-134620000D03*
X116238000Y-133350000D03*
D30*
X104192000Y-124930000D03*
X104192000Y-125880000D03*
X104192000Y-126830000D03*
X106592000Y-126830000D03*
X106592000Y-125880000D03*
X106592000Y-124930000D03*
X105480000Y-150942000D03*
X105480000Y-151892000D03*
X105480000Y-152842000D03*
X107880000Y-152842000D03*
X107880000Y-151892000D03*
X107880000Y-150942000D03*
D29*
X73837000Y-129649000D03*
X73837000Y-130919000D03*
X73837000Y-132189000D03*
X73837000Y-133459000D03*
X79237000Y-133459000D03*
X79237000Y-132189000D03*
X79237000Y-130919000D03*
X79237000Y-129649000D03*
D30*
X95047000Y-124958000D03*
X95047000Y-125908000D03*
X95047000Y-126858000D03*
X97447000Y-126858000D03*
X97447000Y-125908000D03*
X97447000Y-124958000D03*
X98618000Y-162544000D03*
X98618000Y-161594000D03*
X98618000Y-160644000D03*
X96218000Y-160644000D03*
X96218000Y-161594000D03*
X96218000Y-162544000D03*
X107248000Y-110556000D03*
X107248000Y-111506000D03*
X107248000Y-112456000D03*
X109648000Y-112456000D03*
X109648000Y-111506000D03*
X109648000Y-110556000D03*
X113436000Y-124910000D03*
X113436000Y-125860000D03*
X113436000Y-126810000D03*
X115836000Y-126810000D03*
X115836000Y-125860000D03*
X115836000Y-124910000D03*
X96744000Y-110668000D03*
X96744000Y-111618000D03*
X96744000Y-112568000D03*
X99144000Y-112568000D03*
X99144000Y-111618000D03*
X99144000Y-110668000D03*
D31*
X59690000Y-123190000D03*
X54610000Y-123190000D03*
X52070000Y-123190000D03*
X49530000Y-123190000D03*
X49530000Y-128270000D03*
X52070000Y-128270000D03*
X54610000Y-128270000D03*
X59690000Y-128270000D03*
X59690000Y-134620000D03*
X54610000Y-134620000D03*
X52070000Y-134620000D03*
X49530000Y-134620000D03*
X49530000Y-139700000D03*
X52070000Y-139700000D03*
X54610000Y-139700000D03*
X59690000Y-139700000D03*
D32*
X46736000Y-104960000D03*
X46736000Y-107500000D03*
X46736000Y-110040000D03*
X46736000Y-112580000D03*
X63496000Y-104960000D03*
X63496000Y-107500000D03*
X63496000Y-110040000D03*
X63496000Y-112580000D03*
D12*
X96543000Y-137614000D03*
X98193000Y-137614000D03*
X81089000Y-137414000D03*
X79439000Y-137414000D03*
D14*
X114046000Y-147702000D03*
X114046000Y-149352000D03*
D33*
X76962000Y-109347000D03*
D34*
X79502000Y-109347000D03*
X82042000Y-109347000D03*
X84582000Y-109347000D03*
X87122000Y-109347000D03*
X89662000Y-109347000D03*
D35*
X103300000Y-149500000D03*
X100900000Y-149800000D03*
X86300001Y-127799999D03*
X107600000Y-106300000D03*
X127100000Y-120600000D03*
X120400000Y-120600000D03*
X118600000Y-120600000D03*
X113800000Y-119700000D03*
X113800000Y-121500000D03*
X91900000Y-127500000D03*
X97100000Y-106600000D03*
X86000000Y-132300000D03*
X105800000Y-163900000D03*
X89100000Y-164700000D03*
X89700000Y-164700000D03*
X89700000Y-164100000D03*
X89100000Y-164100000D03*
X66500000Y-149860000D03*
X67100000Y-149860000D03*
X69700000Y-138500000D03*
X45100000Y-144800000D03*
X43900000Y-144800000D03*
X44500000Y-144800000D03*
X45100000Y-145400000D03*
X44500000Y-145400000D03*
X43900000Y-145400000D03*
X90400000Y-151500000D03*
X91000000Y-151500000D03*
X91000000Y-150900000D03*
X90400000Y-150900000D03*
X92600000Y-158500000D03*
X100900000Y-159800000D03*
X111100000Y-127500000D03*
X108700000Y-127600000D03*
X92900000Y-127700000D03*
X102200000Y-127500000D03*
X100000000Y-127500000D03*
X112000000Y-113300000D03*
X104900000Y-113300000D03*
X101500000Y-113400000D03*
X94400000Y-113500000D03*
X43600000Y-112000000D03*
X42600000Y-109600000D03*
X69100000Y-109000000D03*
X80000000Y-119700000D03*
X75200000Y-121500000D03*
X75900000Y-127400000D03*
X69700000Y-127000000D03*
X113300000Y-131300000D03*
X108500000Y-156400000D03*
X104500000Y-156400000D03*
X116600000Y-146400000D03*
X120500000Y-150300000D03*
X108000000Y-142000000D03*
X117100000Y-126300000D03*
X73800000Y-134500000D03*
X112200000Y-150400000D03*
X103400000Y-153800000D03*
X109900000Y-153700000D03*
X93400000Y-131300000D03*
X79248000Y-151765000D03*
X51910000Y-159245000D03*
X51910000Y-157975000D03*
X51910000Y-158610000D03*
X67691000Y-149860000D03*
X56769000Y-147955000D03*
X113400000Y-144300000D03*
X112200000Y-145500000D03*
X102200002Y-120600000D03*
X61426000Y-145500000D03*
X120500000Y-122100000D03*
X118192000Y-122067736D03*
X100100000Y-121900000D03*
X51910000Y-155435000D03*
X51910000Y-154165000D03*
X51910000Y-154800000D03*
X58293000Y-154813000D03*
X58928000Y-154813000D03*
X59563000Y-154813000D03*
X64900000Y-161400000D03*
X64900000Y-162000000D03*
X64900000Y-162600000D03*
X114500000Y-135900000D03*
X120285000Y-136715000D03*
X120200000Y-138875000D03*
X114700000Y-139700000D03*
X97400000Y-148100032D03*
X97400000Y-146500000D03*
X91400000Y-141100000D03*
X86700000Y-141100000D03*
X89600000Y-129000000D03*
X86700000Y-129000000D03*
X95800000Y-117800000D03*
X90200000Y-117900000D03*
X92900000Y-117000000D03*
X90200000Y-117000000D03*
X90300000Y-142100000D03*
X86800000Y-142100000D03*
X118500000Y-128700000D03*
X118500000Y-127500000D03*
X101800000Y-130500000D03*
X98300000Y-130500000D03*
X87800000Y-140300000D03*
X90800000Y-140399992D03*
X96500000Y-146400006D03*
X96500000Y-148600000D03*
X93199996Y-120000000D03*
X89300000Y-120000000D03*
D36*
X103300000Y-149500000D02*
X103300000Y-150735000D01*
X103300000Y-150735000D02*
X103378000Y-150813000D01*
X100900000Y-156300000D02*
X100900000Y-149800000D01*
X103700000Y-159100000D02*
X100900000Y-156300000D01*
X103700000Y-162673000D02*
X105487000Y-162673000D01*
X100974000Y-162673000D02*
X103700000Y-162673000D01*
X103700000Y-162673000D02*
X103700000Y-159100000D01*
X68400000Y-105600000D02*
X96100000Y-105600000D01*
X96100000Y-105600000D02*
X97100000Y-106600000D01*
X66900000Y-107100000D02*
X68400000Y-105600000D01*
X66900000Y-114801000D02*
X66900000Y-107100000D01*
X69088000Y-116014000D02*
X68113000Y-116014000D01*
X68113000Y-116014000D02*
X66900000Y-114801000D01*
X77851000Y-113792000D02*
X77826000Y-113792000D01*
X77826000Y-113792000D02*
X75604000Y-116014000D01*
X75604000Y-116014000D02*
X70063000Y-116014000D01*
X70063000Y-116014000D02*
X69088000Y-116014000D01*
X81998000Y-128570000D02*
X82768001Y-127799999D01*
X82768001Y-127799999D02*
X86300001Y-127799999D01*
X107623000Y-108458000D02*
X107623000Y-106323000D01*
X107623000Y-106323000D02*
X107600000Y-106300000D01*
X120400000Y-120600000D02*
X127100000Y-120600000D01*
X117500000Y-119700000D02*
X117700000Y-119700000D01*
X117700000Y-119700000D02*
X118600000Y-120600000D01*
X101990000Y-119700000D02*
X113800000Y-119700000D01*
X113800000Y-119700000D02*
X117500000Y-119700000D01*
X113811000Y-122812000D02*
X113811000Y-121511000D01*
X113811000Y-121511000D02*
X113800000Y-121500000D01*
X102090000Y-122112169D02*
X101450001Y-121472170D01*
X101450001Y-121472170D02*
X101450001Y-120239999D01*
X101450001Y-120239999D02*
X101990000Y-119700000D01*
X102090000Y-124801000D02*
X102090000Y-122112169D01*
X92818000Y-124829000D02*
X91892999Y-125754001D01*
X91892999Y-125754001D02*
X91892999Y-127492999D01*
X91892999Y-127492999D02*
X91900000Y-127500000D01*
X92149999Y-121149999D02*
X92818000Y-121818000D01*
X92818000Y-121818000D02*
X92818000Y-124829000D01*
X94388000Y-110602000D02*
X93413000Y-110602000D01*
X93413000Y-110602000D02*
X92149999Y-111865001D01*
X92149999Y-111865001D02*
X92149999Y-121149999D01*
X97119000Y-108570000D02*
X97119000Y-106619000D01*
X97119000Y-106619000D02*
X97100000Y-106600000D01*
X105487000Y-162673000D02*
X105791000Y-162369000D01*
D37*
X84074000Y-132334000D02*
X85966000Y-132334000D01*
X85966000Y-132334000D02*
X86000000Y-132300000D01*
D36*
X89084000Y-163823800D02*
X89084000Y-164084000D01*
X105791000Y-162369000D02*
X105791000Y-163891000D01*
X105791000Y-163891000D02*
X105800000Y-163900000D01*
D38*
X85598000Y-164084000D02*
X89084000Y-164084000D01*
X89084000Y-164084000D02*
X89700000Y-164700000D01*
D36*
X95047000Y-124958000D02*
X92947000Y-124958000D01*
X113436000Y-124910000D02*
X111209000Y-124910000D01*
X111209000Y-124910000D02*
X111080000Y-124781000D01*
X113811000Y-122812000D02*
X113811000Y-124535000D01*
X113811000Y-124535000D02*
X113436000Y-124910000D01*
X107623000Y-108458000D02*
X107623000Y-110181000D01*
X107623000Y-110181000D02*
X107248000Y-110556000D01*
X104892000Y-110427000D02*
X107119000Y-110427000D01*
X107119000Y-110427000D02*
X107248000Y-110556000D01*
X97119000Y-108570000D02*
X97119000Y-110293000D01*
X97119000Y-110293000D02*
X96744000Y-110668000D01*
X94388000Y-110602000D02*
X96678000Y-110602000D01*
X96678000Y-110602000D02*
X96744000Y-110668000D01*
X78886000Y-127363000D02*
X79886000Y-127363000D01*
X79886000Y-127363000D02*
X80316000Y-127793000D01*
X80316000Y-127793000D02*
X80316000Y-128570000D01*
X81998000Y-128570000D02*
X80316000Y-128570000D01*
X80316000Y-128570000D02*
X79237000Y-129649000D01*
X98618000Y-162544000D02*
X98618000Y-164267000D01*
X98618000Y-164267000D02*
X98243000Y-164642000D01*
X100974000Y-162673000D02*
X98747000Y-162673000D01*
X98747000Y-162673000D02*
X98618000Y-162544000D01*
X104567000Y-122832000D02*
X104567000Y-124555000D01*
X104567000Y-124555000D02*
X104192000Y-124930000D01*
X102090000Y-124801000D02*
X104063000Y-124801000D01*
X104063000Y-124801000D02*
X104192000Y-124930000D01*
X92947000Y-124958000D02*
X92818000Y-124829000D01*
X95549000Y-122860000D02*
X95549000Y-124456000D01*
X95549000Y-124456000D02*
X95047000Y-124958000D01*
X105480000Y-150942000D02*
X105480000Y-149219000D01*
X105480000Y-149219000D02*
X105855000Y-148844000D01*
X103378000Y-150813000D02*
X105351000Y-150813000D01*
X105351000Y-150813000D02*
X105480000Y-150942000D01*
D39*
X83852000Y-153457000D02*
X85589000Y-155194000D01*
X83852000Y-150876000D02*
X83852000Y-153457000D01*
X85589000Y-158275000D02*
X85598000Y-158284000D01*
X85589000Y-155194000D02*
X85589000Y-158275000D01*
X85598000Y-158284000D02*
X85598000Y-164084000D01*
D40*
X79756000Y-163694000D02*
X85208000Y-163694000D01*
X85208000Y-163694000D02*
X85598000Y-164084000D01*
D41*
X62960000Y-149860000D02*
X66500000Y-149860000D01*
X66500000Y-149860000D02*
X67100000Y-149860000D01*
X67100000Y-149860000D02*
X67691000Y-149860000D01*
X68240000Y-138496000D02*
X69696000Y-138496000D01*
X69696000Y-138496000D02*
X69700000Y-138500000D01*
D40*
X44500000Y-144800000D02*
X44500000Y-146730000D01*
X44500000Y-146730000D02*
X43910000Y-147320000D01*
D37*
X43910000Y-145410000D02*
X43900000Y-145400000D01*
D40*
X87852000Y-150876000D02*
X90976000Y-150876000D01*
X90976000Y-150876000D02*
X91000000Y-150900000D01*
D36*
X93799000Y-158546000D02*
X92646000Y-158546000D01*
X92646000Y-158546000D02*
X92600000Y-158500000D01*
X93862000Y-161023000D02*
X93862000Y-158609000D01*
X93862000Y-158609000D02*
X93799000Y-158546000D01*
X100974000Y-161023000D02*
X100974000Y-159874000D01*
X100974000Y-159874000D02*
X100900000Y-159800000D01*
X98618000Y-161594000D02*
X100403000Y-161594000D01*
X100403000Y-161594000D02*
X100974000Y-161023000D01*
X118192000Y-126431000D02*
X117231000Y-126431000D01*
X117231000Y-126431000D02*
X117100000Y-126300000D01*
X111080000Y-126431000D02*
X111080000Y-127480000D01*
X111080000Y-127480000D02*
X111100000Y-127500000D01*
X113436000Y-125860000D02*
X111651000Y-125860000D01*
X111651000Y-125860000D02*
X111080000Y-126431000D01*
X108694000Y-126451000D02*
X108694000Y-127594000D01*
X108694000Y-127594000D02*
X108700000Y-127600000D01*
X92818000Y-126479000D02*
X92818000Y-127618000D01*
X92818000Y-127618000D02*
X92900000Y-127700000D01*
X95047000Y-125908000D02*
X93389000Y-125908000D01*
X93389000Y-125908000D02*
X92818000Y-126479000D01*
X102090000Y-126451000D02*
X102090000Y-127390000D01*
X102090000Y-127390000D02*
X102200000Y-127500000D01*
X104192000Y-125880000D02*
X102661000Y-125880000D01*
X102661000Y-125880000D02*
X102090000Y-126451000D01*
X99676000Y-126479000D02*
X99676000Y-127176000D01*
X99676000Y-127176000D02*
X100000000Y-127500000D01*
X112004000Y-112140000D02*
X112004000Y-113296000D01*
X112004000Y-113296000D02*
X112000000Y-113300000D01*
X107248000Y-111506000D02*
X105463000Y-111506000D01*
X105463000Y-111506000D02*
X104892000Y-112077000D01*
X104892000Y-112077000D02*
X104892000Y-113292000D01*
X104892000Y-113292000D02*
X104900000Y-113300000D01*
X101500000Y-112189000D02*
X101500000Y-113400000D01*
X94388000Y-112252000D02*
X94388000Y-113488000D01*
X94388000Y-113488000D02*
X94400000Y-113500000D01*
X96744000Y-111618000D02*
X95022000Y-111618000D01*
X95022000Y-111618000D02*
X94388000Y-112252000D01*
X43561000Y-113221000D02*
X43561000Y-112039000D01*
X43561000Y-112039000D02*
X43600000Y-112000000D01*
X44069000Y-109664000D02*
X42664000Y-109664000D01*
X42664000Y-109664000D02*
X42600000Y-109600000D01*
X46736000Y-110040000D02*
X44445000Y-110040000D01*
X44445000Y-110040000D02*
X44069000Y-109664000D01*
X69088000Y-110427000D02*
X69088000Y-109012000D01*
X69088000Y-109012000D02*
X69100000Y-109000000D01*
X82005000Y-118806000D02*
X80894000Y-118806000D01*
X80894000Y-118806000D02*
X80000000Y-119700000D01*
X80036000Y-121092000D02*
X80036000Y-119736000D01*
X80036000Y-119736000D02*
X80000000Y-119700000D01*
X76480000Y-121537000D02*
X75237000Y-121537000D01*
X75237000Y-121537000D02*
X75200000Y-121500000D01*
X77236000Y-127363000D02*
X75937000Y-127363000D01*
X75937000Y-127363000D02*
X75900000Y-127400000D01*
X68326000Y-127000000D02*
X69700000Y-127000000D01*
X114618000Y-131318000D02*
X113318000Y-131318000D01*
X113318000Y-131318000D02*
X113300000Y-131300000D01*
D37*
X109728000Y-156401000D02*
X108501000Y-156401000D01*
X108501000Y-156401000D02*
X108500000Y-156400000D01*
X105791000Y-156401000D02*
X104501000Y-156401000D01*
X104501000Y-156401000D02*
X104500000Y-156400000D01*
X116586000Y-147828000D02*
X116586000Y-146414000D01*
X116586000Y-146414000D02*
X116600000Y-146400000D01*
X120528000Y-151638000D02*
X120528000Y-150328000D01*
X120528000Y-150328000D02*
X120500000Y-150300000D01*
X108013000Y-140716000D02*
X108013000Y-141987000D01*
X108013000Y-141987000D02*
X108000000Y-142000000D01*
X73837000Y-133459000D02*
X73837000Y-134463000D01*
X73837000Y-134463000D02*
X73800000Y-134500000D01*
X112776000Y-151892000D02*
X112776000Y-150976000D01*
X112776000Y-150976000D02*
X112200000Y-150400000D01*
X103378000Y-152463000D02*
X103378000Y-153778000D01*
X103378000Y-153778000D02*
X103400000Y-153800000D01*
X105480000Y-151892000D02*
X103949000Y-151892000D01*
X103949000Y-151892000D02*
X103378000Y-152463000D01*
X109982000Y-152463000D02*
X109982000Y-153618000D01*
X109982000Y-153618000D02*
X109900000Y-153700000D01*
X110838000Y-140970000D02*
X108267000Y-140970000D01*
X108267000Y-140970000D02*
X108013000Y-140716000D01*
X93474000Y-132334000D02*
X93474000Y-131374000D01*
X93474000Y-131374000D02*
X93400000Y-131300000D01*
D40*
X48980000Y-158610000D02*
X51910000Y-158610000D01*
D39*
X79248000Y-153407000D02*
X79248000Y-151765000D01*
X87852000Y-154981000D02*
X87639000Y-155194000D01*
X87852000Y-150876000D02*
X87852000Y-154981000D01*
X87639000Y-155194000D02*
X87639000Y-158025000D01*
X87639000Y-158025000D02*
X87898000Y-158284000D01*
D36*
X69088000Y-114364000D02*
X71913000Y-114364000D01*
X71913000Y-114364000D02*
X73152000Y-113125000D01*
X69088000Y-112077000D02*
X69088000Y-114364000D01*
D38*
X128700000Y-163300000D02*
X128700000Y-148000000D01*
D36*
X121800000Y-147700000D02*
X128400000Y-147700000D01*
D38*
X128700000Y-148000000D02*
X128700000Y-125600000D01*
D36*
X128400000Y-147700000D02*
X128700000Y-148000000D01*
X118400000Y-144300000D02*
X121800000Y-147700000D01*
X113400000Y-144300000D02*
X118400000Y-144300000D01*
X109982000Y-150813000D02*
X109982000Y-147718000D01*
X109982000Y-147718000D02*
X112200000Y-145500000D01*
D38*
X76750000Y-168400000D02*
X94200000Y-168400000D01*
X94200000Y-168400000D02*
X102800000Y-168400000D01*
D36*
X93862000Y-162673000D02*
X93862000Y-168062000D01*
X93862000Y-168062000D02*
X94200000Y-168400000D01*
X108800000Y-120600000D02*
X102200002Y-120600000D01*
D41*
X76480000Y-123187000D02*
X78981000Y-123187000D01*
X78981000Y-123187000D02*
X79086000Y-123292000D01*
X71300000Y-120300000D02*
X74187000Y-123187000D01*
X74187000Y-123187000D02*
X76480000Y-123187000D01*
X60880000Y-120300000D02*
X71300000Y-120300000D01*
X59690000Y-121490000D02*
X60880000Y-120300000D01*
X46736000Y-107500000D02*
X44583000Y-107500000D01*
X44583000Y-107500000D02*
X44069000Y-108014000D01*
X40800000Y-109400000D02*
X42186000Y-108014000D01*
X42186000Y-108014000D02*
X44069000Y-108014000D01*
X40800000Y-115900000D02*
X40800000Y-109400000D01*
X42900000Y-118000000D02*
X40800000Y-115900000D01*
X56200000Y-118000000D02*
X42900000Y-118000000D01*
X59690000Y-121490000D02*
X56200000Y-118000000D01*
X59690000Y-123190000D02*
X59690000Y-121490000D01*
X57228451Y-141302451D02*
X57500000Y-141574000D01*
X68900000Y-145500000D02*
X61426000Y-145500000D01*
X61426000Y-145500000D02*
X57500000Y-141574000D01*
X57500000Y-141574000D02*
X58928000Y-143002000D01*
X71660000Y-149860000D02*
X71660000Y-148260000D01*
X71660000Y-148260000D02*
X68900000Y-145500000D01*
D38*
X127100000Y-104300000D02*
X112200000Y-104300000D01*
X112200000Y-104300000D02*
X101600000Y-104300000D01*
D36*
X112004000Y-110490000D02*
X112004000Y-104496000D01*
X112004000Y-104496000D02*
X112200000Y-104300000D01*
D38*
X101600000Y-104300000D02*
X98300000Y-104300000D01*
D36*
X101500000Y-110539000D02*
X101500000Y-104400000D01*
X101500000Y-104400000D02*
X101600000Y-104300000D01*
X117882000Y-131318000D02*
X121600000Y-127600000D01*
X121600000Y-127600000D02*
X121600000Y-125600000D01*
X117482000Y-131318000D02*
X117882000Y-131318000D01*
D38*
X128700000Y-125600000D02*
X128700000Y-105900000D01*
D36*
X121600000Y-125600000D02*
X128700000Y-125600000D01*
X120500000Y-124500000D02*
X121600000Y-125600000D01*
X120500000Y-122100000D02*
X120500000Y-124500000D01*
X108800000Y-120600000D02*
X116724264Y-120600000D01*
X116724264Y-120600000D02*
X118192000Y-122067736D01*
X118192000Y-122067736D02*
X118192000Y-123781000D01*
X118192000Y-123781000D02*
X118192000Y-124781000D01*
X108694000Y-124801000D02*
X108694000Y-123801000D01*
X108694000Y-123801000D02*
X108800000Y-123695000D01*
X108800000Y-123695000D02*
X108800000Y-120600000D01*
X99676000Y-124829000D02*
X99676000Y-122324000D01*
X99676000Y-122324000D02*
X100100000Y-121900000D01*
X115836000Y-124910000D02*
X118063000Y-124910000D01*
X118063000Y-124910000D02*
X118192000Y-124781000D01*
X99144000Y-110668000D02*
X101371000Y-110668000D01*
X101371000Y-110668000D02*
X101500000Y-110539000D01*
X109648000Y-110556000D02*
X111938000Y-110556000D01*
X111938000Y-110556000D02*
X112004000Y-110490000D01*
X116268000Y-131318000D02*
X117482000Y-131318000D01*
X117482000Y-131318000D02*
X117500000Y-131300000D01*
X116238000Y-133350000D02*
X116238000Y-131348000D01*
X116238000Y-131348000D02*
X116268000Y-131318000D01*
D38*
X117475000Y-168400000D02*
X120904000Y-168400000D01*
X120904000Y-168400000D02*
X126367000Y-168400000D01*
D36*
X121412000Y-162369000D02*
X121412000Y-167892000D01*
X121412000Y-167892000D02*
X120904000Y-168400000D01*
D38*
X113919000Y-168400000D02*
X117475000Y-168400000D01*
D36*
X117602000Y-162369000D02*
X117602000Y-168273000D01*
X117602000Y-168273000D02*
X117475000Y-168400000D01*
D38*
X109855000Y-168400000D02*
X113919000Y-168400000D01*
D36*
X113792000Y-162369000D02*
X113792000Y-168273000D01*
X113792000Y-168273000D02*
X113919000Y-168400000D01*
D38*
X105100000Y-168400000D02*
X109855000Y-168400000D01*
D36*
X109728000Y-162369000D02*
X109728000Y-168273000D01*
X109728000Y-168273000D02*
X109855000Y-168400000D01*
D38*
X126367000Y-168400000D02*
X128700000Y-166067000D01*
X128700000Y-166067000D02*
X128700000Y-163300000D01*
X128700000Y-105900000D02*
X127100000Y-104300000D01*
X102800000Y-168400000D02*
X105100000Y-168400000D01*
X72160000Y-162560000D02*
X72160000Y-163810000D01*
X72160000Y-163810000D02*
X76750000Y-168400000D01*
D40*
X72160000Y-162560000D02*
X72160000Y-163560000D01*
X72160000Y-162560000D02*
X72160000Y-162960000D01*
X72160000Y-162560000D02*
X72160000Y-163320600D01*
D36*
X106592000Y-124930000D02*
X108565000Y-124930000D01*
X108565000Y-124930000D02*
X108694000Y-124801000D01*
X93862000Y-162673000D02*
X96089000Y-162673000D01*
X96089000Y-162673000D02*
X96218000Y-162544000D01*
X107880000Y-150942000D02*
X109853000Y-150942000D01*
X109853000Y-150942000D02*
X109982000Y-150813000D01*
X99676000Y-124829000D02*
X97576000Y-124829000D01*
X97576000Y-124829000D02*
X97447000Y-124958000D01*
D40*
X79756000Y-159394000D02*
X72804000Y-159394000D01*
X72804000Y-159394000D02*
X72160000Y-158750000D01*
D39*
X79248000Y-155457000D02*
X79248000Y-158886000D01*
X79248000Y-158886000D02*
X79756000Y-159394000D01*
X80866000Y-158284000D02*
X79756000Y-159394000D01*
X83298000Y-158284000D02*
X80866000Y-158284000D01*
D40*
X72160000Y-162560000D02*
X72160000Y-158750000D01*
X72160000Y-158750000D02*
X72160000Y-150360000D01*
D41*
X57228451Y-124502501D02*
X57228451Y-134620000D01*
X57228451Y-134620000D02*
X57228451Y-141302451D01*
X59690000Y-134620000D02*
X57228451Y-134620000D01*
X59690000Y-134620000D02*
X62198000Y-134620000D01*
X62198000Y-134620000D02*
X62992000Y-135414000D01*
X66231000Y-134112000D02*
X64294000Y-134112000D01*
X64294000Y-134112000D02*
X62992000Y-135414000D01*
X57404000Y-124326952D02*
X57228451Y-124502501D01*
X59690000Y-123190000D02*
X58540952Y-123190000D01*
X58540952Y-123190000D02*
X57404000Y-124326952D01*
X59690000Y-123190000D02*
X62452000Y-123190000D01*
X62452000Y-123190000D02*
X62992000Y-123730000D01*
X66231000Y-122428000D02*
X64294000Y-122428000D01*
X64294000Y-122428000D02*
X62992000Y-123730000D01*
D40*
X72160000Y-150360000D02*
X71660000Y-149860000D01*
X51910000Y-154800000D02*
X51910000Y-148020000D01*
X51910000Y-148020000D02*
X52610000Y-147320000D01*
X51910000Y-154800000D02*
X58915000Y-154800000D01*
X58915000Y-154800000D02*
X58928000Y-154813000D01*
X48980000Y-154800000D02*
X51910000Y-154800000D01*
D37*
X85700000Y-116500000D02*
X79800000Y-116500000D01*
X76962000Y-111362000D02*
X78651001Y-113051001D01*
X78651001Y-113051001D02*
X78651001Y-115351001D01*
X78651001Y-115351001D02*
X79800000Y-116500000D01*
X76962000Y-109347000D02*
X76962000Y-111362000D01*
X88500000Y-128968600D02*
X88500000Y-119300000D01*
X88499978Y-128968622D02*
X88500000Y-128968600D01*
X88500000Y-119300000D02*
X85700000Y-116500000D01*
X88499978Y-134400022D02*
X88499978Y-128968622D01*
X86756000Y-136144000D02*
X88499978Y-134400022D01*
X84074000Y-136144000D02*
X86756000Y-136144000D01*
X76962000Y-109347000D02*
X73374000Y-109347000D01*
X73374000Y-109347000D02*
X73152000Y-109125000D01*
X121412000Y-160719000D02*
X121412000Y-160019000D01*
X121412000Y-160019000D02*
X121412000Y-158051000D01*
X117602000Y-160719000D02*
X117602000Y-158051000D01*
X113792000Y-160719000D02*
X113792000Y-158051000D01*
D41*
X67881000Y-122428000D02*
X67881000Y-124460000D01*
X62992000Y-127730000D02*
X60230000Y-127730000D01*
X60230000Y-127730000D02*
X59690000Y-128270000D01*
X66126000Y-127950000D02*
X63212000Y-127950000D01*
X63212000Y-127950000D02*
X62992000Y-127730000D01*
X66231000Y-124460000D02*
X66231000Y-127845000D01*
X66231000Y-127845000D02*
X66126000Y-127950000D01*
X67881000Y-136144000D02*
X67881000Y-134112000D01*
X66040000Y-139446000D02*
X66040000Y-136335000D01*
X66040000Y-136335000D02*
X66231000Y-136144000D01*
X62992000Y-139414000D02*
X66008000Y-139414000D01*
X66008000Y-139414000D02*
X66040000Y-139446000D01*
X59690000Y-139700000D02*
X62706000Y-139700000D01*
X62706000Y-139700000D02*
X62992000Y-139414000D01*
D37*
X105791000Y-160719000D02*
X105791000Y-158051000D01*
X109728000Y-160719000D02*
X109728000Y-160019000D01*
X109728000Y-160019000D02*
X109728000Y-158051000D01*
D40*
X64900000Y-162000000D02*
X63020000Y-162000000D01*
X63020000Y-162000000D02*
X62460000Y-162560000D01*
D41*
X63119000Y-161901000D02*
X62460000Y-162560000D01*
D39*
X51400000Y-137300000D02*
X52070000Y-136630000D01*
X52070000Y-136630000D02*
X52070000Y-123190000D01*
X46000000Y-137300000D02*
X51400000Y-137300000D01*
X39000000Y-144300000D02*
X46000000Y-137300000D01*
D40*
X39000000Y-150970000D02*
X40850000Y-150970000D01*
X35560000Y-150970000D02*
X39000000Y-150970000D01*
D39*
X39000000Y-150970000D02*
X39000000Y-144300000D01*
D40*
X40850000Y-150970000D02*
X44680000Y-154800000D01*
X44680000Y-158610000D02*
X44680000Y-154800000D01*
D39*
X31800000Y-125720000D02*
X31800000Y-134400000D01*
X31800000Y-134400000D02*
X31800000Y-146600000D01*
X35560000Y-134460000D02*
X33060000Y-134460000D01*
X33060000Y-134460000D02*
X33000000Y-134400000D01*
X33000000Y-134400000D02*
X31800000Y-134400000D01*
X31800000Y-146600000D02*
X31800000Y-154900000D01*
X35560000Y-145970000D02*
X32430000Y-145970000D01*
X32430000Y-145970000D02*
X31800000Y-146600000D01*
X31800000Y-154900000D02*
X32870000Y-155970000D01*
X32870000Y-155970000D02*
X35560000Y-155970000D01*
X35560000Y-124460000D02*
X33060000Y-124460000D01*
X33060000Y-124460000D02*
X31800000Y-125720000D01*
D37*
X79501000Y-113792000D02*
X79501000Y-109348000D01*
X79501000Y-109348000D02*
X79502000Y-109347000D01*
X84582000Y-110109000D02*
X84582000Y-109347000D01*
X85544000Y-111071000D02*
X84582000Y-110109000D01*
X90899989Y-116299991D02*
X85670998Y-111071000D01*
X98200011Y-129400011D02*
X92234311Y-129400011D01*
X85670998Y-111071000D02*
X85544000Y-111071000D01*
X99099989Y-131968011D02*
X99099989Y-130299989D01*
X98193000Y-132875000D02*
X99099989Y-131968011D01*
X99099989Y-130299989D02*
X98200011Y-129400011D01*
X90899989Y-128065689D02*
X90899989Y-116299991D01*
X98193000Y-133550000D02*
X98193000Y-132875000D01*
X92234311Y-129400011D02*
X90899989Y-128065689D01*
X99500000Y-134975000D02*
X99500000Y-129900000D01*
X98893000Y-135582000D02*
X99500000Y-134975000D01*
X98193000Y-135582000D02*
X98893000Y-135582000D01*
X91300000Y-116134301D02*
X90265698Y-115100000D01*
X99500000Y-129900000D02*
X98600000Y-129000000D01*
X98600000Y-129000000D02*
X92400000Y-129000000D01*
X92400000Y-129000000D02*
X91300000Y-127900000D01*
X91300000Y-127900000D02*
X91300000Y-116134301D01*
X90265698Y-115100000D02*
X87122000Y-111956302D01*
X87122000Y-111956302D02*
X87122000Y-109347000D01*
X116238000Y-135890000D02*
X114510000Y-135890000D01*
X114510000Y-135890000D02*
X114500000Y-135900000D01*
X118618000Y-132382000D02*
X121460000Y-129540000D01*
X121460000Y-129540000D02*
X124968000Y-129540000D01*
X118618000Y-135065000D02*
X118618000Y-132382000D01*
X116238000Y-135890000D02*
X117818000Y-135890000D01*
X117818000Y-135890000D02*
X118618000Y-135090000D01*
X118618000Y-135090000D02*
X118618000Y-135065000D01*
X118618000Y-136715000D02*
X120285000Y-136715000D01*
X120285000Y-136715000D02*
X122460000Y-134540000D01*
X122460000Y-134540000D02*
X124968000Y-134540000D01*
X116238000Y-137160000D02*
X117213000Y-137160000D01*
X117658000Y-136715000D02*
X118618000Y-136715000D01*
X117213000Y-137160000D02*
X117658000Y-136715000D01*
X121475000Y-138875000D02*
X120200000Y-138875000D01*
X120200000Y-138875000D02*
X118618000Y-138875000D01*
X118618000Y-138875000D02*
X117943000Y-138875000D01*
X117943000Y-138875000D02*
X117498000Y-138430000D01*
X117498000Y-138430000D02*
X116238000Y-138430000D01*
X122140000Y-139540000D02*
X121475000Y-138875000D01*
X124968000Y-139540000D02*
X122140000Y-139540000D01*
X116238000Y-139700000D02*
X114700000Y-139700000D01*
X120000000Y-143500000D02*
X121040000Y-144540000D01*
X121040000Y-144540000D02*
X124968000Y-144540000D01*
X120000000Y-141232000D02*
X120000000Y-143500000D01*
X118618000Y-140525000D02*
X119293000Y-140525000D01*
X119293000Y-140525000D02*
X120000000Y-141232000D01*
X116238000Y-139700000D02*
X116713000Y-139700000D01*
X116713000Y-139700000D02*
X117538000Y-140525000D01*
X117538000Y-140525000D02*
X118618000Y-140525000D01*
D39*
X35560000Y-119460000D02*
X45800000Y-119460000D01*
X45800000Y-119460000D02*
X49530000Y-123190000D01*
X35560000Y-129460000D02*
X48340000Y-129460000D01*
X48340000Y-129460000D02*
X49530000Y-128270000D01*
D37*
X118800000Y-110800000D02*
X118900000Y-110700000D01*
X118900000Y-110700000D02*
X121904000Y-107696000D01*
X118925000Y-111900000D02*
X118925000Y-110725000D01*
X118925000Y-110725000D02*
X118900000Y-110700000D01*
X109648000Y-112456000D02*
X109648000Y-113248000D01*
X109648000Y-113248000D02*
X110600000Y-114200000D01*
X110600000Y-114200000D02*
X112700000Y-114200000D01*
X112700000Y-114200000D02*
X116100000Y-110800000D01*
X116100000Y-110800000D02*
X118800000Y-110800000D01*
X121904000Y-107696000D02*
X124968000Y-107696000D01*
X119000000Y-113100000D02*
X116200000Y-113100000D01*
X116200000Y-113100000D02*
X110800000Y-118500000D01*
X110800000Y-118500000D02*
X95400000Y-118500000D01*
X95400000Y-118500000D02*
X95000000Y-118100000D01*
X95000000Y-118100000D02*
X95000000Y-116012000D01*
X95000000Y-116012000D02*
X98444000Y-112568000D01*
X98444000Y-112568000D02*
X99144000Y-112568000D01*
X119000000Y-113100000D02*
X121892000Y-113100000D01*
X118925000Y-114100000D02*
X118925000Y-113175000D01*
X118925000Y-113175000D02*
X119000000Y-113100000D01*
X122192000Y-112800000D02*
X122296000Y-112696000D01*
X121892000Y-113100000D02*
X122192000Y-112800000D01*
X122296000Y-112696000D02*
X124968000Y-112696000D01*
X115836000Y-126810000D02*
X116536000Y-126810000D01*
X116536000Y-126810000D02*
X117826000Y-128100000D01*
X117826000Y-128100000D02*
X119000000Y-128100000D01*
X119000000Y-128100000D02*
X119700000Y-127400000D01*
X119700000Y-127400000D02*
X119700000Y-117800000D01*
X118925000Y-116300000D02*
X118925000Y-116975000D01*
X118925000Y-116975000D02*
X119700000Y-117750000D01*
X119700000Y-117750000D02*
X119700000Y-117800000D01*
X124968000Y-117696000D02*
X119804000Y-117696000D01*
X119804000Y-117696000D02*
X119700000Y-117800000D01*
D39*
X38060000Y-140970000D02*
X44410000Y-134620000D01*
X44410000Y-134620000D02*
X49530000Y-134620000D01*
X38060000Y-140970000D02*
X35560000Y-140970000D01*
D37*
X108013000Y-134620000D02*
X110838000Y-134620000D01*
X106363000Y-134620000D02*
X101520000Y-134620000D01*
X101500000Y-128900000D02*
X105400000Y-128900000D01*
X101520000Y-134620000D02*
X101000000Y-134100000D01*
X101000000Y-134100000D02*
X101000000Y-129400000D01*
X101000000Y-129400000D02*
X101500000Y-128900000D01*
X105400000Y-128900000D02*
X106363000Y-127937000D01*
X106363000Y-127937000D02*
X106363000Y-127059000D01*
X106363000Y-127059000D02*
X106592000Y-126830000D01*
X99200000Y-127900000D02*
X97939000Y-127900000D01*
X97939000Y-127900000D02*
X97447000Y-127408000D01*
X100500000Y-129200000D02*
X99200000Y-127900000D01*
X100500000Y-135600000D02*
X100500000Y-129200000D01*
X101552000Y-136652000D02*
X100500000Y-135600000D01*
X104652000Y-136652000D02*
X101552000Y-136652000D01*
X106363000Y-136652000D02*
X104652000Y-136652000D01*
X97447000Y-127408000D02*
X97447000Y-126858000D01*
X106363000Y-136652000D02*
X106363000Y-135977000D01*
X106363000Y-135977000D02*
X106463001Y-135876999D01*
X106463001Y-135876999D02*
X109849999Y-135876999D01*
X109849999Y-135876999D02*
X109863000Y-135890000D01*
X109863000Y-135890000D02*
X110838000Y-135890000D01*
X97400000Y-146500000D02*
X97400000Y-138336002D01*
X97400000Y-138336002D02*
X97343001Y-138279003D01*
X96975736Y-148100032D02*
X97400000Y-148100032D01*
X95449000Y-158546000D02*
X95449000Y-148762998D01*
X96211999Y-147999999D02*
X96875703Y-147999999D01*
X95449000Y-148762998D02*
X96211999Y-147999999D01*
X96875703Y-147999999D02*
X96975736Y-148100032D01*
X96218000Y-160644000D02*
X96218000Y-159290000D01*
X96218000Y-159290000D02*
X95474000Y-158546000D01*
X95474000Y-158546000D02*
X95449000Y-158546000D01*
X108013000Y-136652000D02*
X108013000Y-137327000D01*
X103300000Y-137200000D02*
X99200000Y-137200000D01*
X108013000Y-137327000D02*
X107840000Y-137500000D01*
X107840000Y-137500000D02*
X103600000Y-137500000D01*
X103600000Y-137500000D02*
X103300000Y-137200000D01*
X97491998Y-136800000D02*
X97343001Y-136948997D01*
X99200000Y-137200000D02*
X98800000Y-136800000D01*
X98800000Y-136800000D02*
X97491998Y-136800000D01*
X97343001Y-136948997D02*
X97343001Y-138279003D01*
X109093000Y-136652000D02*
X109601000Y-137160000D01*
X109601000Y-137160000D02*
X110838000Y-137160000D01*
X108013000Y-136652000D02*
X109093000Y-136652000D01*
X110838000Y-138430000D02*
X108267000Y-138430000D01*
X108267000Y-138430000D02*
X108013000Y-138684000D01*
X106363000Y-138684000D02*
X105663000Y-138684000D01*
X106704999Y-149509003D02*
X106299990Y-149914012D01*
X106299990Y-149914012D02*
X106299990Y-151961990D01*
X105663000Y-138684000D02*
X104800000Y-139547000D01*
X104800000Y-139547000D02*
X104800000Y-145500000D01*
X104800000Y-145500000D02*
X106704999Y-147404999D01*
X106704999Y-147404999D02*
X106704999Y-149509003D01*
X106299990Y-151961990D02*
X107180000Y-152842000D01*
X107180000Y-152842000D02*
X107880000Y-152842000D01*
X84074000Y-134874000D02*
X86760300Y-134874000D01*
X86760300Y-134874000D02*
X88000000Y-133634300D01*
X88000000Y-133634300D02*
X88000000Y-119700000D01*
X88000000Y-119700000D02*
X85400000Y-117100000D01*
X85400000Y-117100000D02*
X44500000Y-117100000D01*
X44500000Y-117100000D02*
X43561000Y-116161000D01*
X43561000Y-116161000D02*
X43561000Y-114871000D01*
X43561000Y-114871000D02*
X45720000Y-114871000D01*
X45720000Y-114871000D02*
X45784000Y-114935000D01*
X47434000Y-114935000D02*
X47434000Y-113278000D01*
X47434000Y-113278000D02*
X46736000Y-112580000D01*
X46736000Y-112580000D02*
X46226000Y-112580000D01*
X93474000Y-133604000D02*
X96489000Y-133604000D01*
X96489000Y-133604000D02*
X96543000Y-133550000D01*
X93474000Y-134874000D02*
X95810000Y-134874000D01*
X95810000Y-134874000D02*
X96518000Y-135582000D01*
X96518000Y-135582000D02*
X96543000Y-135582000D01*
X110838000Y-139700000D02*
X106704000Y-139700000D01*
X106704000Y-139700000D02*
X106363000Y-140041000D01*
X106363000Y-140041000D02*
X106363000Y-140716000D01*
X105468200Y-124533800D02*
X106217000Y-123785000D01*
X106217000Y-123785000D02*
X106217000Y-122832000D01*
X105468200Y-125651400D02*
X105468200Y-124533800D01*
X105696800Y-125880000D02*
X105468200Y-125651400D01*
X106592000Y-125880000D02*
X105696800Y-125880000D01*
X106700000Y-150324000D02*
X106700000Y-151412000D01*
X106700000Y-151412000D02*
X107180000Y-151892000D01*
X107180000Y-151892000D02*
X107880000Y-151892000D01*
X107505000Y-148844000D02*
X107505000Y-149519000D01*
X107505000Y-149519000D02*
X106700000Y-150324000D01*
D36*
X80986000Y-123292000D02*
X83424000Y-123292000D01*
X83424000Y-123292000D02*
X83592000Y-123124000D01*
D37*
X83592000Y-121474000D02*
X83592000Y-118869000D01*
X83592000Y-118869000D02*
X83655000Y-118806000D01*
X87500000Y-123400000D02*
X85574000Y-121474000D01*
X85574000Y-121474000D02*
X83592000Y-121474000D01*
X87500000Y-132600000D02*
X87500000Y-123400000D01*
X86496000Y-133604000D02*
X87500000Y-132600000D01*
X84074000Y-133604000D02*
X86496000Y-133604000D01*
X121412000Y-156401000D02*
X121412000Y-153904000D01*
X121412000Y-153904000D02*
X121478000Y-153838000D01*
X117602000Y-156401000D02*
X117602000Y-150094000D01*
X117602000Y-150094000D02*
X117536000Y-150028000D01*
X113792000Y-156401000D02*
X113792000Y-154158000D01*
X113792000Y-154158000D02*
X113726000Y-154092000D01*
X79439000Y-139954000D02*
X75454000Y-139954000D01*
X75454000Y-139954000D02*
X72200000Y-136700000D01*
X72200000Y-136700000D02*
X72200000Y-130311000D01*
X72200000Y-130311000D02*
X72862000Y-129649000D01*
X72862000Y-129649000D02*
X73837000Y-129649000D01*
X81089000Y-139954000D02*
X81089000Y-140629000D01*
X81089000Y-140629000D02*
X81684000Y-141224000D01*
X81684000Y-141224000D02*
X82899000Y-141224000D01*
X82899000Y-141224000D02*
X84074000Y-141224000D01*
X81114000Y-139954000D02*
X81089000Y-139954000D01*
X75375000Y-135300000D02*
X75375000Y-131482000D01*
X75375000Y-131482000D02*
X74812000Y-130919000D01*
X74812000Y-130919000D02*
X73837000Y-130919000D01*
X73710000Y-130792000D02*
X73837000Y-130919000D01*
X86700000Y-141100000D02*
X85852002Y-141100000D01*
X85852002Y-141100000D02*
X85376001Y-140623999D01*
X82623999Y-140623999D02*
X82200000Y-140200000D01*
X82200000Y-139300000D02*
X81600000Y-138700000D01*
X85376001Y-140623999D02*
X82623999Y-140623999D01*
X82200000Y-140200000D02*
X82200000Y-139300000D01*
X81600000Y-138700000D02*
X78300000Y-138700000D01*
X78300000Y-138700000D02*
X77025000Y-137425000D01*
X77025000Y-137425000D02*
X77025000Y-135300000D01*
X91400000Y-141100000D02*
X93350000Y-141100000D01*
X93350000Y-141100000D02*
X93474000Y-141224000D01*
X93474000Y-141224000D02*
X94149000Y-141224000D01*
X79237000Y-130919000D02*
X81299000Y-130919000D01*
X81299000Y-130919000D02*
X81300000Y-130920000D01*
X81300000Y-130920000D02*
X81323000Y-130920000D01*
X81323000Y-130920000D02*
X81998000Y-130245000D01*
X81998000Y-130245000D02*
X81998000Y-130220000D01*
X93027000Y-145796000D02*
X93027000Y-144211000D01*
X93027000Y-144211000D02*
X93474000Y-143764000D01*
X89600000Y-129000000D02*
X89300000Y-129300000D01*
X89300000Y-129300000D02*
X89300000Y-143044000D01*
X89300000Y-143044000D02*
X91377000Y-145121000D01*
X91377000Y-145121000D02*
X91377000Y-145796000D01*
X91000000Y-145419000D02*
X91377000Y-145796000D01*
X82900000Y-131500000D02*
X85400000Y-129000000D01*
X85400000Y-129000000D02*
X86700000Y-129000000D01*
X82100000Y-131500000D02*
X82900000Y-131500000D01*
X81411000Y-132189000D02*
X82100000Y-131500000D01*
X79237000Y-132189000D02*
X81411000Y-132189000D01*
X84074000Y-142494000D02*
X82899000Y-142494000D01*
X82899000Y-142494000D02*
X81089000Y-142494000D01*
X79439000Y-142494000D02*
X79439000Y-141819000D01*
X77800000Y-139100000D02*
X76200000Y-137500000D01*
X79439000Y-141819000D02*
X80288999Y-140969001D01*
X76200000Y-133900000D02*
X76641000Y-133459000D01*
X80288999Y-140969001D02*
X80288999Y-139388999D01*
X80288999Y-139388999D02*
X80000000Y-139100000D01*
X80000000Y-139100000D02*
X77800000Y-139100000D01*
X76200000Y-137500000D02*
X76200000Y-133900000D01*
X76641000Y-133459000D02*
X79237000Y-133459000D01*
X96400000Y-125600000D02*
X96708000Y-125908000D01*
X96708000Y-125908000D02*
X97447000Y-125908000D01*
X96400000Y-124334000D02*
X96400000Y-125600000D01*
X97199000Y-122860000D02*
X97199000Y-123535000D01*
X97199000Y-123535000D02*
X96400000Y-124334000D01*
X97400000Y-163860000D02*
X97400000Y-162076000D01*
X97400000Y-162076000D02*
X96918000Y-161594000D01*
X96918000Y-161594000D02*
X96218000Y-161594000D01*
X96593000Y-164642000D02*
X96618000Y-164642000D01*
X96618000Y-164642000D02*
X97400000Y-163860000D01*
X108600000Y-111200000D02*
X108906000Y-111506000D01*
X108906000Y-111506000D02*
X109648000Y-111506000D01*
X108600000Y-109806000D02*
X108600000Y-111200000D01*
X109273000Y-108458000D02*
X109273000Y-109133000D01*
X109273000Y-109133000D02*
X108600000Y-109806000D01*
X84074000Y-139954000D02*
X86554000Y-139954000D01*
X86554000Y-139954000D02*
X87400000Y-140800000D01*
X87400000Y-140800000D02*
X87400000Y-142700000D01*
X87400000Y-142700000D02*
X85300000Y-144800000D01*
X85300000Y-144800000D02*
X76900000Y-144800000D01*
X76900000Y-144800000D02*
X71300000Y-139200000D01*
X71300000Y-139200000D02*
X71300000Y-132400000D01*
X71300000Y-132400000D02*
X70100000Y-131200000D01*
X70100000Y-131200000D02*
X68325000Y-131200000D01*
D41*
X66675000Y-131200000D02*
X66675000Y-130551000D01*
X66675000Y-130551000D02*
X68326000Y-128900000D01*
D37*
X115461000Y-122812000D02*
X115461000Y-123487000D01*
X115461000Y-123487000D02*
X115035999Y-123912001D01*
X115035999Y-123912001D02*
X115035999Y-125759999D01*
X115035999Y-125759999D02*
X115136000Y-125860000D01*
X115136000Y-125860000D02*
X115836000Y-125860000D01*
X98200000Y-111400000D02*
X98418000Y-111618000D01*
X98418000Y-111618000D02*
X99144000Y-111618000D01*
X98200000Y-109814000D02*
X98200000Y-111400000D01*
X98769000Y-108570000D02*
X98769000Y-109245000D01*
X98769000Y-109245000D02*
X98200000Y-109814000D01*
X96224264Y-117800000D02*
X95800000Y-117800000D01*
X107300000Y-117900000D02*
X107200000Y-117800000D01*
X107200000Y-117800000D02*
X96224264Y-117800000D01*
X107300000Y-117900000D02*
X110834300Y-117900000D01*
X110834300Y-117900000D02*
X115300000Y-113434302D01*
X115300000Y-113434302D02*
X115300000Y-112600000D01*
X115300000Y-112600000D02*
X116000000Y-111900000D01*
X116000000Y-111900000D02*
X117275000Y-111900000D01*
X107248000Y-112456000D02*
X107248000Y-117848000D01*
X107248000Y-117848000D02*
X107300000Y-117900000D01*
X90499980Y-118500000D02*
X90499980Y-118199980D01*
X90499980Y-118199980D02*
X90200000Y-117900000D01*
X90499980Y-123100020D02*
X90499980Y-118500000D01*
X90100010Y-123900000D02*
X90100010Y-123499990D01*
X90100010Y-123499990D02*
X90499980Y-123100020D01*
X90100010Y-127934311D02*
X90100010Y-123900000D01*
X90600010Y-130065689D02*
X90600010Y-128434311D01*
X90600010Y-128434311D02*
X90100010Y-127934311D01*
X90100000Y-137900000D02*
X90100000Y-130565698D01*
X90100000Y-130565698D02*
X90600010Y-130065689D01*
X90100000Y-140799980D02*
X90100000Y-137900000D01*
X91794020Y-142494000D02*
X90100000Y-140799980D01*
X93474000Y-142494000D02*
X91794020Y-142494000D01*
X110800000Y-118900011D02*
X93800011Y-118900011D01*
X93800011Y-118900011D02*
X92900000Y-118000000D01*
X92900000Y-118000000D02*
X92900000Y-117000000D01*
X93199999Y-116700001D02*
X92900000Y-117000000D01*
X96744000Y-113156000D02*
X93199999Y-116700001D01*
X96744000Y-112568000D02*
X96744000Y-113156000D01*
X110800000Y-118900011D02*
X110965689Y-118900011D01*
X117275000Y-114100000D02*
X115765698Y-114100000D01*
X115765698Y-114100000D02*
X110965687Y-118900011D01*
X110965687Y-118900011D02*
X110800000Y-118900011D01*
X89500000Y-117500000D02*
X90000000Y-117000000D01*
X90000000Y-117000000D02*
X90200000Y-117000000D01*
X89500000Y-118600000D02*
X89500000Y-117500000D01*
X90099970Y-119199970D02*
X89500000Y-118600000D01*
X90099970Y-122000030D02*
X90099970Y-119199970D01*
X89700000Y-123100000D02*
X89700000Y-122400000D01*
X89700000Y-122400000D02*
X90099970Y-122000030D01*
X89700000Y-128100000D02*
X89700000Y-123100000D01*
X90200000Y-128600000D02*
X89700000Y-128100000D01*
X90200000Y-129900000D02*
X90200000Y-128600000D01*
X89700000Y-130400000D02*
X90200000Y-129900000D01*
X89700000Y-137200000D02*
X89700000Y-130400000D01*
X90300000Y-142100000D02*
X90300000Y-141675736D01*
X90300000Y-141675736D02*
X89700000Y-141075736D01*
X89700000Y-141075736D02*
X89700000Y-137200000D01*
X84074000Y-143764000D02*
X85136000Y-143764000D01*
X85136000Y-143764000D02*
X86800000Y-142100000D01*
X118500000Y-128700000D02*
X114272000Y-128700000D01*
X114272000Y-128700000D02*
X113436000Y-127864000D01*
X119299990Y-118999990D02*
X119299990Y-126838012D01*
X119299990Y-126838012D02*
X118638002Y-127500000D01*
X118638002Y-127500000D02*
X118500000Y-127500000D01*
X117275000Y-116300000D02*
X117275000Y-116975000D01*
X117275000Y-116975000D02*
X119299990Y-118999990D01*
X112800000Y-128500000D02*
X113436000Y-127864000D01*
X113436000Y-127864000D02*
X113436000Y-126810000D01*
X107300000Y-128500000D02*
X112800000Y-128500000D01*
X105300000Y-130500000D02*
X107300000Y-128500000D01*
X101800000Y-130500000D02*
X105300000Y-130500000D01*
X92800000Y-130500000D02*
X98300000Y-130500000D01*
X91700000Y-131600000D02*
X92800000Y-130500000D01*
X91700000Y-135045000D02*
X91700000Y-131600000D01*
X93474000Y-136144000D02*
X92799000Y-136144000D01*
X92799000Y-136144000D02*
X91700000Y-135045000D01*
X87800000Y-140724264D02*
X87800000Y-140300000D01*
X87800000Y-143400000D02*
X87800000Y-140724264D01*
X86000000Y-145200000D02*
X87800000Y-143400000D01*
X76000000Y-145200000D02*
X86000000Y-145200000D01*
X73600000Y-142800000D02*
X76000000Y-145200000D01*
X69125000Y-142800000D02*
X73600000Y-142800000D01*
X93474000Y-139954000D02*
X91245992Y-139954000D01*
X91245992Y-139954000D02*
X91099999Y-140099993D01*
X91099999Y-140099993D02*
X90800000Y-140399992D01*
D41*
X67475000Y-142800000D02*
X67475000Y-141161000D01*
X67475000Y-141161000D02*
X68240000Y-140396000D01*
D37*
X96543000Y-146357006D02*
X96500000Y-146400006D01*
X96543000Y-137614000D02*
X96543000Y-146357006D01*
X96500000Y-148600000D02*
X98618000Y-150718000D01*
X98618000Y-150718000D02*
X98618000Y-160644000D01*
X93474000Y-137414000D02*
X96343000Y-137414000D01*
X96343000Y-137414000D02*
X96543000Y-137614000D01*
X93474000Y-138684000D02*
X92299000Y-138684000D01*
X91800000Y-138185000D02*
X91800000Y-137272998D01*
X94700000Y-136800000D02*
X95100000Y-136400000D01*
X92299000Y-138684000D02*
X91800000Y-138185000D01*
X100000000Y-136100000D02*
X100000000Y-129600000D01*
X91800000Y-137272998D02*
X92272998Y-136800000D01*
X92272998Y-136800000D02*
X94700000Y-136800000D01*
X95947000Y-128300000D02*
X95047000Y-127400000D01*
X95100000Y-136400000D02*
X99700000Y-136400000D01*
X99700000Y-136400000D02*
X100000000Y-136100000D01*
X100000000Y-129600000D02*
X98700000Y-128300000D01*
X98700000Y-128300000D02*
X95947000Y-128300000D01*
X95047000Y-126858000D02*
X95047000Y-127400000D01*
X95047000Y-127400000D02*
X95047000Y-127408000D01*
X102899990Y-154499990D02*
X104780010Y-154499990D01*
X88384000Y-138684000D02*
X88900000Y-139200000D01*
X104780010Y-154499990D02*
X105480000Y-153800000D01*
X102200010Y-153800010D02*
X102899990Y-154499990D01*
X100265716Y-147100017D02*
X102200010Y-149034311D01*
X88900000Y-139200000D02*
X88900000Y-145500000D01*
X102200010Y-149034311D02*
X102200010Y-153800010D01*
X90500017Y-147100017D02*
X100265716Y-147100017D01*
X88900000Y-145500000D02*
X90500017Y-147100017D01*
X84074000Y-138684000D02*
X88384000Y-138684000D01*
X105480000Y-153880000D02*
X105480000Y-153800000D01*
X105480000Y-153800000D02*
X105480000Y-152842000D01*
X106000000Y-154400000D02*
X105480000Y-153880000D01*
X110500000Y-154400000D02*
X106000000Y-154400000D01*
X111300000Y-153600000D02*
X110500000Y-154400000D01*
X111300000Y-149773000D02*
X111300000Y-153600000D01*
X114046000Y-147702000D02*
X113371000Y-147702000D01*
X113371000Y-147702000D02*
X111300000Y-149773000D01*
X93499995Y-120299999D02*
X93199996Y-120000000D01*
X99800000Y-120600000D02*
X93799996Y-120600000D01*
X93799996Y-120600000D02*
X93499995Y-120299999D01*
X100000000Y-120800000D02*
X99800000Y-120600000D01*
X89000001Y-120299999D02*
X89300000Y-120000000D01*
X89000000Y-129034300D02*
X89000001Y-120299999D01*
X88899989Y-129134311D02*
X89000000Y-129034300D01*
X88899989Y-135500011D02*
X88899989Y-129134311D01*
X86986000Y-137414000D02*
X88899989Y-135500011D01*
X84074000Y-137414000D02*
X86986000Y-137414000D01*
X99800000Y-120600000D02*
X100900000Y-121700000D01*
X103800000Y-128300000D02*
X104192000Y-127908000D01*
X104192000Y-127908000D02*
X104192000Y-126830000D01*
X101600000Y-128300000D02*
X103800000Y-128300000D01*
X100900000Y-127600000D02*
X101600000Y-128300000D01*
X100900000Y-121700000D02*
X100900000Y-127600000D01*
X84074000Y-137414000D02*
X81089000Y-137414000D01*
X122428000Y-151638000D02*
X122428000Y-150738000D01*
X122428000Y-150738000D02*
X120700000Y-149010000D01*
X120700000Y-149010000D02*
X120700000Y-147700000D01*
X120700000Y-147700000D02*
X118300000Y-145300000D01*
X118300000Y-145300000D02*
X113200000Y-145300000D01*
X113200000Y-145300000D02*
X112300000Y-144400000D01*
X112300000Y-144400000D02*
X112300000Y-138276998D01*
X112300000Y-138276998D02*
X111823002Y-137800000D01*
X111823002Y-137800000D02*
X109852998Y-137800000D01*
X109852998Y-137800000D02*
X109743999Y-137908999D01*
X109743999Y-137908999D02*
X102294999Y-137908999D01*
X102294999Y-137908999D02*
X102000000Y-137614000D01*
X102000000Y-137614000D02*
X98193000Y-137614000D01*
X110565698Y-154900000D02*
X102700000Y-154900000D01*
X101799999Y-149200000D02*
X100100021Y-147500022D01*
X101800000Y-154000000D02*
X101799999Y-149200000D01*
X80349990Y-138299990D02*
X79464000Y-137414000D01*
X79464000Y-137414000D02*
X79439000Y-137414000D01*
X90334322Y-147500022D02*
X88499989Y-145665689D01*
X82819698Y-139353999D02*
X81765689Y-138299990D01*
X81765689Y-138299990D02*
X80349990Y-138299990D01*
X87953999Y-139353999D02*
X82819698Y-139353999D01*
X88499989Y-139899989D02*
X87953999Y-139353999D01*
X100100021Y-147500022D02*
X90334322Y-147500022D01*
X111165698Y-154300000D02*
X110565698Y-154900000D01*
X116923998Y-148900000D02*
X115800000Y-150023998D01*
X115308002Y-153000000D02*
X112800000Y-153000000D01*
X88499989Y-145665689D02*
X88499989Y-139899989D01*
X102700000Y-154900000D02*
X101800000Y-154000000D01*
X112800000Y-153000000D02*
X111500000Y-154300000D01*
X115800000Y-152508002D02*
X115308002Y-153000000D01*
X111500000Y-154300000D02*
X111165698Y-154300000D01*
X117614000Y-148900000D02*
X116923998Y-148900000D01*
X115800000Y-150023998D02*
X115800000Y-152508002D01*
X118486000Y-147828000D02*
X118486000Y-148028000D01*
X118486000Y-148028000D02*
X117614000Y-148900000D01*
X79439000Y-137414000D02*
X79614000Y-137414000D01*
X114676000Y-151892000D02*
X114676000Y-149982000D01*
X114676000Y-149982000D02*
X114046000Y-149352000D01*
M02*
