G04 #@! TF.FileFunction,Legend,Top*
%FSLAX46Y46*%
G04 Gerber Fmt 4.6, Leading zero omitted, Abs format (unit mm)*
G04 Created by KiCad (PCBNEW 4.0.7) date 12/16/17 16:03:18*
%MOMM*%
%LPD*%
G01*
G04 APERTURE LIST*
%ADD10C,0.100000*%
%ADD11C,0.200000*%
%ADD12C,0.300000*%
%ADD13C,0.150000*%
%ADD14C,0.203200*%
%ADD15C,0.500000*%
%ADD16C,0.088900*%
G04 APERTURE END LIST*
D10*
D11*
X125702381Y-153375000D02*
X125583333Y-153315476D01*
X125404762Y-153315476D01*
X125226190Y-153375000D01*
X125107143Y-153494048D01*
X125047619Y-153613095D01*
X124988095Y-153851190D01*
X124988095Y-154029762D01*
X125047619Y-154267857D01*
X125107143Y-154386905D01*
X125226190Y-154505952D01*
X125404762Y-154565476D01*
X125523810Y-154565476D01*
X125702381Y-154505952D01*
X125761905Y-154446429D01*
X125761905Y-154029762D01*
X125523810Y-154029762D01*
X126297619Y-154565476D02*
X126297619Y-153315476D01*
X127011905Y-154565476D01*
X127011905Y-153315476D01*
X127607143Y-154565476D02*
X127607143Y-153315476D01*
X127904762Y-153315476D01*
X128083334Y-153375000D01*
X128202381Y-153494048D01*
X128261905Y-153613095D01*
X128321429Y-153851190D01*
X128321429Y-154029762D01*
X128261905Y-154267857D01*
X128202381Y-154386905D01*
X128083334Y-154505952D01*
X127904762Y-154565476D01*
X127607143Y-154565476D01*
X125702381Y-151625000D02*
X125583333Y-151565476D01*
X125404762Y-151565476D01*
X125226190Y-151625000D01*
X125107143Y-151744048D01*
X125047619Y-151863095D01*
X124988095Y-152101190D01*
X124988095Y-152279762D01*
X125047619Y-152517857D01*
X125107143Y-152636905D01*
X125226190Y-152755952D01*
X125404762Y-152815476D01*
X125523810Y-152815476D01*
X125702381Y-152755952D01*
X125761905Y-152696429D01*
X125761905Y-152279762D01*
X125523810Y-152279762D01*
X126297619Y-152815476D02*
X126297619Y-151565476D01*
X126773810Y-151565476D01*
X126892857Y-151625000D01*
X126952381Y-151684524D01*
X127011905Y-151803571D01*
X127011905Y-151982143D01*
X126952381Y-152101190D01*
X126892857Y-152160714D01*
X126773810Y-152220238D01*
X126297619Y-152220238D01*
X127547619Y-152815476D02*
X127547619Y-151565476D01*
X128380952Y-151565476D02*
X128619048Y-151565476D01*
X128738095Y-151625000D01*
X128857143Y-151744048D01*
X128916667Y-151982143D01*
X128916667Y-152398810D01*
X128857143Y-152636905D01*
X128738095Y-152755952D01*
X128619048Y-152815476D01*
X128380952Y-152815476D01*
X128261905Y-152755952D01*
X128142857Y-152636905D01*
X128083333Y-152398810D01*
X128083333Y-151982143D01*
X128142857Y-151744048D01*
X128261905Y-151625000D01*
X128380952Y-151565476D01*
X124988095Y-149255952D02*
X125166667Y-149315476D01*
X125464286Y-149315476D01*
X125583333Y-149255952D01*
X125642857Y-149196429D01*
X125702381Y-149077381D01*
X125702381Y-148958333D01*
X125642857Y-148839286D01*
X125583333Y-148779762D01*
X125464286Y-148720238D01*
X125226190Y-148660714D01*
X125107143Y-148601190D01*
X125047619Y-148541667D01*
X124988095Y-148422619D01*
X124988095Y-148303571D01*
X125047619Y-148184524D01*
X125107143Y-148125000D01*
X125226190Y-148065476D01*
X125523810Y-148065476D01*
X125702381Y-148125000D01*
X126238095Y-149315476D02*
X126238095Y-148065476D01*
X126535714Y-148065476D01*
X126714286Y-148125000D01*
X126833333Y-148244048D01*
X126892857Y-148363095D01*
X126952381Y-148601190D01*
X126952381Y-148779762D01*
X126892857Y-149017857D01*
X126833333Y-149136905D01*
X126714286Y-149255952D01*
X126535714Y-149315476D01*
X126238095Y-149315476D01*
X127428571Y-148958333D02*
X128023809Y-148958333D01*
X127309524Y-149315476D02*
X127726190Y-148065476D01*
X128142857Y-149315476D01*
X124988095Y-151005952D02*
X125166667Y-151065476D01*
X125464286Y-151065476D01*
X125583333Y-151005952D01*
X125642857Y-150946429D01*
X125702381Y-150827381D01*
X125702381Y-150708333D01*
X125642857Y-150589286D01*
X125583333Y-150529762D01*
X125464286Y-150470238D01*
X125226190Y-150410714D01*
X125107143Y-150351190D01*
X125047619Y-150291667D01*
X124988095Y-150172619D01*
X124988095Y-150053571D01*
X125047619Y-149934524D01*
X125107143Y-149875000D01*
X125226190Y-149815476D01*
X125523810Y-149815476D01*
X125702381Y-149875000D01*
X126952381Y-150946429D02*
X126892857Y-151005952D01*
X126714286Y-151065476D01*
X126595238Y-151065476D01*
X126416666Y-151005952D01*
X126297619Y-150886905D01*
X126238095Y-150767857D01*
X126178571Y-150529762D01*
X126178571Y-150351190D01*
X126238095Y-150113095D01*
X126297619Y-149994048D01*
X126416666Y-149875000D01*
X126595238Y-149815476D01*
X126714286Y-149815476D01*
X126892857Y-149875000D01*
X126952381Y-149934524D01*
X128083333Y-151065476D02*
X127488095Y-151065476D01*
X127488095Y-149815476D01*
X125761905Y-157065476D02*
X125345238Y-156470238D01*
X125047619Y-157065476D02*
X125047619Y-155815476D01*
X125523810Y-155815476D01*
X125642857Y-155875000D01*
X125702381Y-155934524D01*
X125761905Y-156053571D01*
X125761905Y-156232143D01*
X125702381Y-156351190D01*
X125642857Y-156410714D01*
X125523810Y-156470238D01*
X125047619Y-156470238D01*
X126178571Y-155815476D02*
X127011905Y-157065476D01*
X127011905Y-155815476D02*
X126178571Y-157065476D01*
X127488095Y-156589286D02*
X128440476Y-156589286D01*
X127964286Y-157065476D02*
X127964286Y-156113095D01*
X125761905Y-158815476D02*
X125345238Y-158220238D01*
X125047619Y-158815476D02*
X125047619Y-157565476D01*
X125523810Y-157565476D01*
X125642857Y-157625000D01*
X125702381Y-157684524D01*
X125761905Y-157803571D01*
X125761905Y-157982143D01*
X125702381Y-158101190D01*
X125642857Y-158160714D01*
X125523810Y-158220238D01*
X125047619Y-158220238D01*
X126178571Y-157565476D02*
X127011905Y-158815476D01*
X127011905Y-157565476D02*
X126178571Y-158815476D01*
X127488095Y-158339286D02*
X128440476Y-158339286D01*
X125119048Y-159315476D02*
X125833333Y-159315476D01*
X125476190Y-160565476D02*
X125476190Y-159315476D01*
X126130952Y-159315476D02*
X126964286Y-160565476D01*
X126964286Y-159315476D02*
X126130952Y-160565476D01*
X127440476Y-160089286D02*
X128392857Y-160089286D01*
X125119048Y-161065476D02*
X125833333Y-161065476D01*
X125476190Y-162315476D02*
X125476190Y-161065476D01*
X126130952Y-161065476D02*
X126964286Y-162315476D01*
X126964286Y-161065476D02*
X126130952Y-162315476D01*
X127440476Y-161839286D02*
X128392857Y-161839286D01*
X127916667Y-162315476D02*
X127916667Y-161363095D01*
X79052381Y-106233333D02*
X80052381Y-105900000D01*
X79052381Y-105566666D01*
X79957143Y-104661904D02*
X80004762Y-104709523D01*
X80052381Y-104852380D01*
X80052381Y-104947618D01*
X80004762Y-105090476D01*
X79909524Y-105185714D01*
X79814286Y-105233333D01*
X79623810Y-105280952D01*
X79480952Y-105280952D01*
X79290476Y-105233333D01*
X79195238Y-105185714D01*
X79100000Y-105090476D01*
X79052381Y-104947618D01*
X79052381Y-104852380D01*
X79100000Y-104709523D01*
X79147619Y-104661904D01*
X79957143Y-103661904D02*
X80004762Y-103709523D01*
X80052381Y-103852380D01*
X80052381Y-103947618D01*
X80004762Y-104090476D01*
X79909524Y-104185714D01*
X79814286Y-104233333D01*
X79623810Y-104280952D01*
X79480952Y-104280952D01*
X79290476Y-104233333D01*
X79195238Y-104185714D01*
X79100000Y-104090476D01*
X79052381Y-103947618D01*
X79052381Y-103852380D01*
X79100000Y-103709523D01*
X79147619Y-103661904D01*
X87457143Y-105495238D02*
X87504762Y-105542857D01*
X87552381Y-105685714D01*
X87552381Y-105780952D01*
X87504762Y-105923810D01*
X87409524Y-106019048D01*
X87314286Y-106066667D01*
X87123810Y-106114286D01*
X86980952Y-106114286D01*
X86790476Y-106066667D01*
X86695238Y-106019048D01*
X86600000Y-105923810D01*
X86552381Y-105780952D01*
X86552381Y-105685714D01*
X86600000Y-105542857D01*
X86647619Y-105495238D01*
X87552381Y-104590476D02*
X87552381Y-105066667D01*
X86552381Y-105066667D01*
X87552381Y-104257143D02*
X86552381Y-104257143D01*
X87552381Y-103685714D02*
X86980952Y-104114286D01*
X86552381Y-103685714D02*
X87123810Y-104257143D01*
X85052381Y-105971429D02*
X84052381Y-105971429D01*
X84052381Y-105733334D01*
X84100000Y-105590476D01*
X84195238Y-105495238D01*
X84290476Y-105447619D01*
X84480952Y-105400000D01*
X84623810Y-105400000D01*
X84814286Y-105447619D01*
X84909524Y-105495238D01*
X85004762Y-105590476D01*
X85052381Y-105733334D01*
X85052381Y-105971429D01*
X84766667Y-105019048D02*
X84766667Y-104542857D01*
X85052381Y-105114286D02*
X84052381Y-104780953D01*
X85052381Y-104447619D01*
X84052381Y-104257143D02*
X84052381Y-103685714D01*
X85052381Y-103971429D02*
X84052381Y-103971429D01*
X81500000Y-105561904D02*
X81452381Y-105657142D01*
X81452381Y-105799999D01*
X81500000Y-105942857D01*
X81595238Y-106038095D01*
X81690476Y-106085714D01*
X81880952Y-106133333D01*
X82023810Y-106133333D01*
X82214286Y-106085714D01*
X82309524Y-106038095D01*
X82404762Y-105942857D01*
X82452381Y-105799999D01*
X82452381Y-105704761D01*
X82404762Y-105561904D01*
X82357143Y-105514285D01*
X82023810Y-105514285D01*
X82023810Y-105704761D01*
X82452381Y-105085714D02*
X81452381Y-105085714D01*
X82452381Y-104514285D01*
X81452381Y-104514285D01*
X82452381Y-104038095D02*
X81452381Y-104038095D01*
X81452381Y-103800000D01*
X81500000Y-103657142D01*
X81595238Y-103561904D01*
X81690476Y-103514285D01*
X81880952Y-103466666D01*
X82023810Y-103466666D01*
X82214286Y-103514285D01*
X82309524Y-103561904D01*
X82404762Y-103657142D01*
X82452381Y-103800000D01*
X82452381Y-104038095D01*
X77252381Y-106338095D02*
X76252381Y-106338095D01*
X76966667Y-106004761D01*
X76252381Y-105671428D01*
X77252381Y-105671428D01*
X77157143Y-104623809D02*
X77204762Y-104671428D01*
X77252381Y-104814285D01*
X77252381Y-104909523D01*
X77204762Y-105052381D01*
X77109524Y-105147619D01*
X77014286Y-105195238D01*
X76823810Y-105242857D01*
X76680952Y-105242857D01*
X76490476Y-105195238D01*
X76395238Y-105147619D01*
X76300000Y-105052381D01*
X76252381Y-104909523D01*
X76252381Y-104814285D01*
X76300000Y-104671428D01*
X76347619Y-104623809D01*
X77252381Y-103719047D02*
X77252381Y-104195238D01*
X76252381Y-104195238D01*
X77252381Y-102814285D02*
X76776190Y-103147619D01*
X77252381Y-103385714D02*
X76252381Y-103385714D01*
X76252381Y-103004761D01*
X76300000Y-102909523D01*
X76347619Y-102861904D01*
X76442857Y-102814285D01*
X76585714Y-102814285D01*
X76680952Y-102861904D01*
X76728571Y-102909523D01*
X76776190Y-103004761D01*
X76776190Y-103385714D01*
X50585714Y-133004762D02*
X50728571Y-133052381D01*
X50966667Y-133052381D01*
X51061905Y-133004762D01*
X51109524Y-132957143D01*
X51157143Y-132861905D01*
X51157143Y-132766667D01*
X51109524Y-132671429D01*
X51061905Y-132623810D01*
X50966667Y-132576190D01*
X50776190Y-132528571D01*
X50680952Y-132480952D01*
X50633333Y-132433333D01*
X50585714Y-132338095D01*
X50585714Y-132242857D01*
X50633333Y-132147619D01*
X50680952Y-132100000D01*
X50776190Y-132052381D01*
X51014286Y-132052381D01*
X51157143Y-132100000D01*
X51490476Y-132052381D02*
X51728571Y-133052381D01*
X51919048Y-132338095D01*
X52109524Y-133052381D01*
X52347619Y-132052381D01*
X52490476Y-133147619D02*
X53252381Y-133147619D01*
X53395238Y-132052381D02*
X54014286Y-132052381D01*
X53680952Y-132433333D01*
X53823810Y-132433333D01*
X53919048Y-132480952D01*
X53966667Y-132528571D01*
X54014286Y-132623810D01*
X54014286Y-132861905D01*
X53966667Y-132957143D01*
X53919048Y-133004762D01*
X53823810Y-133052381D01*
X53538095Y-133052381D01*
X53442857Y-133004762D01*
X53395238Y-132957143D01*
X50585714Y-130704762D02*
X50728571Y-130752381D01*
X50966667Y-130752381D01*
X51061905Y-130704762D01*
X51109524Y-130657143D01*
X51157143Y-130561905D01*
X51157143Y-130466667D01*
X51109524Y-130371429D01*
X51061905Y-130323810D01*
X50966667Y-130276190D01*
X50776190Y-130228571D01*
X50680952Y-130180952D01*
X50633333Y-130133333D01*
X50585714Y-130038095D01*
X50585714Y-129942857D01*
X50633333Y-129847619D01*
X50680952Y-129800000D01*
X50776190Y-129752381D01*
X51014286Y-129752381D01*
X51157143Y-129800000D01*
X51490476Y-129752381D02*
X51728571Y-130752381D01*
X51919048Y-130038095D01*
X52109524Y-130752381D01*
X52347619Y-129752381D01*
X52490476Y-130847619D02*
X53252381Y-130847619D01*
X53442857Y-129847619D02*
X53490476Y-129800000D01*
X53585714Y-129752381D01*
X53823810Y-129752381D01*
X53919048Y-129800000D01*
X53966667Y-129847619D01*
X54014286Y-129942857D01*
X54014286Y-130038095D01*
X53966667Y-130180952D01*
X53395238Y-130752381D01*
X54014286Y-130752381D01*
X50785714Y-121504762D02*
X50928571Y-121552381D01*
X51166667Y-121552381D01*
X51261905Y-121504762D01*
X51309524Y-121457143D01*
X51357143Y-121361905D01*
X51357143Y-121266667D01*
X51309524Y-121171429D01*
X51261905Y-121123810D01*
X51166667Y-121076190D01*
X50976190Y-121028571D01*
X50880952Y-120980952D01*
X50833333Y-120933333D01*
X50785714Y-120838095D01*
X50785714Y-120742857D01*
X50833333Y-120647619D01*
X50880952Y-120600000D01*
X50976190Y-120552381D01*
X51214286Y-120552381D01*
X51357143Y-120600000D01*
X51690476Y-120552381D02*
X51928571Y-121552381D01*
X52119048Y-120838095D01*
X52309524Y-121552381D01*
X52547619Y-120552381D01*
X52690476Y-121647619D02*
X53452381Y-121647619D01*
X54214286Y-121552381D02*
X53642857Y-121552381D01*
X53928571Y-121552381D02*
X53928571Y-120552381D01*
X53833333Y-120695238D01*
X53738095Y-120790476D01*
X53642857Y-120838095D01*
X41138096Y-124100000D02*
X41042858Y-124052381D01*
X40900001Y-124052381D01*
X40757143Y-124100000D01*
X40661905Y-124195238D01*
X40614286Y-124290476D01*
X40566667Y-124480952D01*
X40566667Y-124623810D01*
X40614286Y-124814286D01*
X40661905Y-124909524D01*
X40757143Y-125004762D01*
X40900001Y-125052381D01*
X40995239Y-125052381D01*
X41138096Y-125004762D01*
X41185715Y-124957143D01*
X41185715Y-124623810D01*
X40995239Y-124623810D01*
X41614286Y-125052381D02*
X41614286Y-124052381D01*
X42185715Y-125052381D01*
X42185715Y-124052381D01*
X42661905Y-125052381D02*
X42661905Y-124052381D01*
X42900000Y-124052381D01*
X43042858Y-124100000D01*
X43138096Y-124195238D01*
X43185715Y-124290476D01*
X43233334Y-124480952D01*
X43233334Y-124623810D01*
X43185715Y-124814286D01*
X43138096Y-124909524D01*
X43042858Y-125004762D01*
X42900000Y-125052381D01*
X42661905Y-125052381D01*
X41338096Y-134100000D02*
X41242858Y-134052381D01*
X41100001Y-134052381D01*
X40957143Y-134100000D01*
X40861905Y-134195238D01*
X40814286Y-134290476D01*
X40766667Y-134480952D01*
X40766667Y-134623810D01*
X40814286Y-134814286D01*
X40861905Y-134909524D01*
X40957143Y-135004762D01*
X41100001Y-135052381D01*
X41195239Y-135052381D01*
X41338096Y-135004762D01*
X41385715Y-134957143D01*
X41385715Y-134623810D01*
X41195239Y-134623810D01*
X41814286Y-135052381D02*
X41814286Y-134052381D01*
X42385715Y-135052381D01*
X42385715Y-134052381D01*
X42861905Y-135052381D02*
X42861905Y-134052381D01*
X43100000Y-134052381D01*
X43242858Y-134100000D01*
X43338096Y-134195238D01*
X43385715Y-134290476D01*
X43433334Y-134480952D01*
X43433334Y-134623810D01*
X43385715Y-134814286D01*
X43338096Y-134909524D01*
X43242858Y-135004762D01*
X43100000Y-135052381D01*
X42861905Y-135052381D01*
X40485714Y-120004762D02*
X40628571Y-120052381D01*
X40866667Y-120052381D01*
X40961905Y-120004762D01*
X41009524Y-119957143D01*
X41057143Y-119861905D01*
X41057143Y-119766667D01*
X41009524Y-119671429D01*
X40961905Y-119623810D01*
X40866667Y-119576190D01*
X40676190Y-119528571D01*
X40580952Y-119480952D01*
X40533333Y-119433333D01*
X40485714Y-119338095D01*
X40485714Y-119242857D01*
X40533333Y-119147619D01*
X40580952Y-119100000D01*
X40676190Y-119052381D01*
X40914286Y-119052381D01*
X41057143Y-119100000D01*
X41390476Y-119052381D02*
X41628571Y-120052381D01*
X41819048Y-119338095D01*
X42009524Y-120052381D01*
X42247619Y-119052381D01*
X42390476Y-120147619D02*
X43152381Y-120147619D01*
X43914286Y-120052381D02*
X43342857Y-120052381D01*
X43628571Y-120052381D02*
X43628571Y-119052381D01*
X43533333Y-119195238D01*
X43438095Y-119290476D01*
X43342857Y-119338095D01*
X40485714Y-130104762D02*
X40628571Y-130152381D01*
X40866667Y-130152381D01*
X40961905Y-130104762D01*
X41009524Y-130057143D01*
X41057143Y-129961905D01*
X41057143Y-129866667D01*
X41009524Y-129771429D01*
X40961905Y-129723810D01*
X40866667Y-129676190D01*
X40676190Y-129628571D01*
X40580952Y-129580952D01*
X40533333Y-129533333D01*
X40485714Y-129438095D01*
X40485714Y-129342857D01*
X40533333Y-129247619D01*
X40580952Y-129200000D01*
X40676190Y-129152381D01*
X40914286Y-129152381D01*
X41057143Y-129200000D01*
X41390476Y-129152381D02*
X41628571Y-130152381D01*
X41819048Y-129438095D01*
X42009524Y-130152381D01*
X42247619Y-129152381D01*
X42390476Y-130247619D02*
X43152381Y-130247619D01*
X43342857Y-129247619D02*
X43390476Y-129200000D01*
X43485714Y-129152381D01*
X43723810Y-129152381D01*
X43819048Y-129200000D01*
X43866667Y-129247619D01*
X43914286Y-129342857D01*
X43914286Y-129438095D01*
X43866667Y-129580952D01*
X43295238Y-130152381D01*
X43914286Y-130152381D01*
X40385714Y-141404762D02*
X40528571Y-141452381D01*
X40766667Y-141452381D01*
X40861905Y-141404762D01*
X40909524Y-141357143D01*
X40957143Y-141261905D01*
X40957143Y-141166667D01*
X40909524Y-141071429D01*
X40861905Y-141023810D01*
X40766667Y-140976190D01*
X40576190Y-140928571D01*
X40480952Y-140880952D01*
X40433333Y-140833333D01*
X40385714Y-140738095D01*
X40385714Y-140642857D01*
X40433333Y-140547619D01*
X40480952Y-140500000D01*
X40576190Y-140452381D01*
X40814286Y-140452381D01*
X40957143Y-140500000D01*
X41290476Y-140452381D02*
X41528571Y-141452381D01*
X41719048Y-140738095D01*
X41909524Y-141452381D01*
X42147619Y-140452381D01*
X42290476Y-141547619D02*
X43052381Y-141547619D01*
X43195238Y-140452381D02*
X43814286Y-140452381D01*
X43480952Y-140833333D01*
X43623810Y-140833333D01*
X43719048Y-140880952D01*
X43766667Y-140928571D01*
X43814286Y-141023810D01*
X43814286Y-141261905D01*
X43766667Y-141357143D01*
X43719048Y-141404762D01*
X43623810Y-141452381D01*
X43338095Y-141452381D01*
X43242857Y-141404762D01*
X43195238Y-141357143D01*
X40838096Y-144700000D02*
X40742858Y-144652381D01*
X40600001Y-144652381D01*
X40457143Y-144700000D01*
X40361905Y-144795238D01*
X40314286Y-144890476D01*
X40266667Y-145080952D01*
X40266667Y-145223810D01*
X40314286Y-145414286D01*
X40361905Y-145509524D01*
X40457143Y-145604762D01*
X40600001Y-145652381D01*
X40695239Y-145652381D01*
X40838096Y-145604762D01*
X40885715Y-145557143D01*
X40885715Y-145223810D01*
X40695239Y-145223810D01*
X41314286Y-145652381D02*
X41314286Y-144652381D01*
X41885715Y-145652381D01*
X41885715Y-144652381D01*
X42361905Y-145652381D02*
X42361905Y-144652381D01*
X42600000Y-144652381D01*
X42742858Y-144700000D01*
X42838096Y-144795238D01*
X42885715Y-144890476D01*
X42933334Y-145080952D01*
X42933334Y-145223810D01*
X42885715Y-145414286D01*
X42838096Y-145509524D01*
X42742858Y-145604762D01*
X42600000Y-145652381D01*
X42361905Y-145652381D01*
X40552381Y-152614285D02*
X41552381Y-152280952D01*
X40552381Y-151947618D01*
X41552381Y-151614285D02*
X40552381Y-151614285D01*
X41552381Y-151138095D02*
X40552381Y-151138095D01*
X41552381Y-150566666D01*
X40552381Y-150566666D01*
X41171429Y-150090476D02*
X41171429Y-149328571D01*
X40702381Y-157464285D02*
X41702381Y-157130952D01*
X40702381Y-156797618D01*
X41702381Y-156464285D02*
X40702381Y-156464285D01*
X41702381Y-155988095D02*
X40702381Y-155988095D01*
X41702381Y-155416666D01*
X40702381Y-155416666D01*
X41321429Y-154940476D02*
X41321429Y-154178571D01*
X41702381Y-154559523D02*
X40940476Y-154559523D01*
D12*
X121304857Y-168493143D02*
X121304857Y-167993143D01*
X122090571Y-167778857D02*
X122090571Y-168493143D01*
X120590571Y-168493143D01*
X120590571Y-167778857D01*
X122090571Y-167136000D02*
X120590571Y-167136000D01*
X122090571Y-166278857D01*
X120590571Y-166278857D01*
X118280571Y-167635999D02*
X117566286Y-168135999D01*
X118280571Y-168493142D02*
X116780571Y-168493142D01*
X116780571Y-167921714D01*
X116852000Y-167778856D01*
X116923429Y-167707428D01*
X117066286Y-167635999D01*
X117280571Y-167635999D01*
X117423429Y-167707428D01*
X117494857Y-167778856D01*
X117566286Y-167921714D01*
X117566286Y-168493142D01*
X116780571Y-167135999D02*
X118280571Y-166135999D01*
X116780571Y-166135999D02*
X118280571Y-167135999D01*
X112970571Y-168274857D02*
X112970571Y-167417714D01*
X114470571Y-167846285D02*
X112970571Y-167846285D01*
X112970571Y-167060571D02*
X114470571Y-166060571D01*
X112970571Y-166060571D02*
X114470571Y-167060571D01*
X109835143Y-169179714D02*
X109835143Y-168036857D01*
X110406571Y-168608286D02*
X109263714Y-168608286D01*
X108906571Y-166608285D02*
X108906571Y-167322571D01*
X109620857Y-167394000D01*
X109549429Y-167322571D01*
X109478000Y-167179714D01*
X109478000Y-166822571D01*
X109549429Y-166679714D01*
X109620857Y-166608285D01*
X109763714Y-166536857D01*
X110120857Y-166536857D01*
X110263714Y-166608285D01*
X110335143Y-166679714D01*
X110406571Y-166822571D01*
X110406571Y-167179714D01*
X110335143Y-167322571D01*
X110263714Y-167394000D01*
X106025143Y-169235142D02*
X106025143Y-168092285D01*
X106596571Y-168663714D02*
X105453714Y-168663714D01*
X105096571Y-167520856D02*
X105096571Y-166592285D01*
X105668000Y-167092285D01*
X105668000Y-166877999D01*
X105739429Y-166735142D01*
X105810857Y-166663713D01*
X105953714Y-166592285D01*
X106310857Y-166592285D01*
X106453714Y-166663713D01*
X106525143Y-166735142D01*
X106596571Y-166877999D01*
X106596571Y-167306571D01*
X106525143Y-167449428D01*
X106453714Y-167520856D01*
X106453714Y-165949428D02*
X106525143Y-165878000D01*
X106596571Y-165949428D01*
X106525143Y-166020857D01*
X106453714Y-165949428D01*
X106596571Y-165949428D01*
X105096571Y-165377999D02*
X105096571Y-164449428D01*
X105668000Y-164949428D01*
X105668000Y-164735142D01*
X105739429Y-164592285D01*
X105810857Y-164520856D01*
X105953714Y-164449428D01*
X106310857Y-164449428D01*
X106453714Y-164520856D01*
X106525143Y-164592285D01*
X106596571Y-164735142D01*
X106596571Y-165163714D01*
X106525143Y-165306571D01*
X106453714Y-165377999D01*
D13*
X62110000Y-151260000D02*
X62110000Y-154060000D01*
X62110000Y-154060000D02*
X62110000Y-155060000D01*
X62110000Y-155060000D02*
X71310000Y-155060000D01*
X71310000Y-155060000D02*
X72510000Y-153860000D01*
X72510000Y-153860000D02*
X72510000Y-151260000D01*
X62110000Y-144660000D02*
X71310000Y-144660000D01*
X71310000Y-144660000D02*
X72510000Y-145860000D01*
X72510000Y-145860000D02*
X72510000Y-148460000D01*
X62110000Y-144660000D02*
X62110000Y-148460000D01*
D14*
X116322000Y-115411000D02*
X119878000Y-115411000D01*
X119878000Y-115411000D02*
X119878000Y-117189000D01*
X119878000Y-117189000D02*
X116322000Y-117189000D01*
X116322000Y-117189000D02*
X116322000Y-115411000D01*
X116322000Y-111011000D02*
X119878000Y-111011000D01*
X119878000Y-111011000D02*
X119878000Y-112789000D01*
X119878000Y-112789000D02*
X116322000Y-112789000D01*
X116322000Y-112789000D02*
X116322000Y-111011000D01*
X84297607Y-131234000D02*
G75*
G03X84297607Y-131234000I-223607J0D01*
G01*
X89474000Y-131634000D02*
X92074000Y-131634000D01*
X88074000Y-131634000D02*
X85474000Y-131634000D01*
X88074000Y-131634000D02*
G75*
G03X89474000Y-131634000I700000J0D01*
G01*
X92074000Y-131634000D02*
X92074000Y-144434000D01*
X92074000Y-144434000D02*
X85474000Y-144434000D01*
X85474000Y-144434000D02*
X85474000Y-131634000D01*
X84608000Y-119695000D02*
X81052000Y-119695000D01*
X81052000Y-119695000D02*
X81052000Y-117917000D01*
X81052000Y-117917000D02*
X84608000Y-117917000D01*
X84608000Y-117917000D02*
X84608000Y-119695000D01*
X77369000Y-120584000D02*
X77369000Y-124140000D01*
X77369000Y-124140000D02*
X75591000Y-124140000D01*
X75591000Y-124140000D02*
X75591000Y-120584000D01*
X75591000Y-120584000D02*
X77369000Y-120584000D01*
X84481000Y-120521000D02*
X84481000Y-124077000D01*
X84481000Y-124077000D02*
X82703000Y-124077000D01*
X82703000Y-124077000D02*
X82703000Y-120521000D01*
X82703000Y-120521000D02*
X84481000Y-120521000D01*
X79036000Y-121592000D02*
X78036000Y-121592000D01*
X78036000Y-121592000D02*
X78036000Y-122842000D01*
X81036000Y-121592000D02*
X82036000Y-121592000D01*
X82036000Y-121592000D02*
X82036000Y-122842000D01*
X78105000Y-156464000D02*
X78105000Y-152400000D01*
X78105000Y-152400000D02*
X80391000Y-152400000D01*
X80391000Y-152400000D02*
X80391000Y-156464000D01*
X80391000Y-156464000D02*
X78105000Y-156464000D01*
X84582000Y-154051000D02*
X88646000Y-154051000D01*
X88646000Y-154051000D02*
X88646000Y-156337000D01*
X88646000Y-156337000D02*
X84582000Y-156337000D01*
X84582000Y-156337000D02*
X84582000Y-154051000D01*
X85598000Y-162584000D02*
X82298000Y-162584000D01*
X82298000Y-162584000D02*
X82298000Y-159784000D01*
X82298000Y-159784000D02*
X88898000Y-159784000D01*
X88898000Y-159784000D02*
X88898000Y-162584000D01*
X88898000Y-162584000D02*
X85598000Y-162584000D01*
D13*
X88502000Y-148226000D02*
X88502000Y-149826000D01*
X88502000Y-153526000D02*
X88502000Y-151926000D01*
X88502000Y-153526000D02*
X83852000Y-153526000D01*
X83852000Y-153526000D02*
X83202000Y-152876000D01*
X83202000Y-152876000D02*
X83202000Y-151926000D01*
X88502000Y-148226000D02*
X83852000Y-148226000D01*
X83852000Y-148226000D02*
X83202000Y-148876000D01*
X83202000Y-148876000D02*
X83202000Y-149826000D01*
X83202000Y-149826000D02*
X83202000Y-149776000D01*
D14*
X78232000Y-165354000D02*
X78232000Y-157353000D01*
X78232000Y-157353000D02*
X81280000Y-157353000D01*
X81280000Y-157353000D02*
X81280000Y-165354000D01*
X78232000Y-157734000D02*
X81280000Y-157734000D01*
X78232000Y-165354000D02*
X81280000Y-165354000D01*
X68199000Y-113030000D02*
X68199000Y-109474000D01*
X68199000Y-109474000D02*
X69977000Y-109474000D01*
X69977000Y-109474000D02*
X69977000Y-113030000D01*
X69977000Y-113030000D02*
X68199000Y-113030000D01*
X43180000Y-110617000D02*
X43180000Y-107061000D01*
X43180000Y-107061000D02*
X44958000Y-107061000D01*
X44958000Y-107061000D02*
X44958000Y-110617000D01*
X44958000Y-110617000D02*
X43180000Y-110617000D01*
X113665000Y-130429000D02*
X117221000Y-130429000D01*
X117221000Y-130429000D02*
X117221000Y-132207000D01*
X117221000Y-132207000D02*
X113665000Y-132207000D01*
X113665000Y-132207000D02*
X113665000Y-130429000D01*
X102979000Y-123848000D02*
X102979000Y-127404000D01*
X102979000Y-127404000D02*
X101201000Y-127404000D01*
X101201000Y-127404000D02*
X101201000Y-123848000D01*
X101201000Y-123848000D02*
X102979000Y-123848000D01*
X107805000Y-127404000D02*
X107805000Y-123848000D01*
X107805000Y-123848000D02*
X109583000Y-123848000D01*
X109583000Y-123848000D02*
X109583000Y-127404000D01*
X109583000Y-127404000D02*
X107805000Y-127404000D01*
X104267000Y-149860000D02*
X104267000Y-153416000D01*
X104267000Y-153416000D02*
X102489000Y-153416000D01*
X102489000Y-153416000D02*
X102489000Y-149860000D01*
X102489000Y-149860000D02*
X104267000Y-149860000D01*
X109093000Y-153416000D02*
X109093000Y-149860000D01*
X109093000Y-149860000D02*
X110871000Y-149860000D01*
X110871000Y-149860000D02*
X110871000Y-153416000D01*
X110871000Y-153416000D02*
X109093000Y-153416000D01*
X76283000Y-126474000D02*
X79839000Y-126474000D01*
X79839000Y-126474000D02*
X79839000Y-128252000D01*
X79839000Y-128252000D02*
X76283000Y-128252000D01*
X76283000Y-128252000D02*
X76283000Y-126474000D01*
X93707000Y-123876000D02*
X93707000Y-127432000D01*
X93707000Y-127432000D02*
X91929000Y-127432000D01*
X91929000Y-127432000D02*
X91929000Y-123876000D01*
X91929000Y-123876000D02*
X93707000Y-123876000D01*
X98787000Y-127432000D02*
X98787000Y-123876000D01*
X98787000Y-123876000D02*
X100565000Y-123876000D01*
X100565000Y-123876000D02*
X100565000Y-127432000D01*
X100565000Y-127432000D02*
X98787000Y-127432000D01*
X100085000Y-163626000D02*
X100085000Y-160070000D01*
X100085000Y-160070000D02*
X101863000Y-160070000D01*
X101863000Y-160070000D02*
X101863000Y-163626000D01*
X101863000Y-163626000D02*
X100085000Y-163626000D01*
X94751000Y-160070000D02*
X94751000Y-163626000D01*
X94751000Y-163626000D02*
X92973000Y-163626000D01*
X92973000Y-163626000D02*
X92973000Y-160070000D01*
X92973000Y-160070000D02*
X94751000Y-160070000D01*
X105781000Y-109474000D02*
X105781000Y-113030000D01*
X105781000Y-113030000D02*
X104003000Y-113030000D01*
X104003000Y-113030000D02*
X104003000Y-109474000D01*
X104003000Y-109474000D02*
X105781000Y-109474000D01*
X111115000Y-113093000D02*
X111115000Y-109537000D01*
X111115000Y-109537000D02*
X112893000Y-109537000D01*
X112893000Y-109537000D02*
X112893000Y-113093000D01*
X112893000Y-113093000D02*
X111115000Y-113093000D01*
X111969000Y-123828000D02*
X111969000Y-127384000D01*
X111969000Y-127384000D02*
X110191000Y-127384000D01*
X110191000Y-127384000D02*
X110191000Y-123828000D01*
X110191000Y-123828000D02*
X111969000Y-123828000D01*
X117303000Y-127384000D02*
X117303000Y-123828000D01*
X117303000Y-123828000D02*
X119081000Y-123828000D01*
X119081000Y-123828000D02*
X119081000Y-127384000D01*
X119081000Y-127384000D02*
X117303000Y-127384000D01*
X95277000Y-109649000D02*
X95277000Y-113205000D01*
X95277000Y-113205000D02*
X93499000Y-113205000D01*
X93499000Y-113205000D02*
X93499000Y-109649000D01*
X93499000Y-109649000D02*
X95277000Y-109649000D01*
X100611000Y-113142000D02*
X100611000Y-109586000D01*
X100611000Y-109586000D02*
X102389000Y-109586000D01*
X102389000Y-109586000D02*
X102389000Y-113142000D01*
X102389000Y-113142000D02*
X100611000Y-113142000D01*
D13*
X43060000Y-148720000D02*
X43060000Y-151520000D01*
X43060000Y-151520000D02*
X43060000Y-152520000D01*
X43060000Y-152520000D02*
X52260000Y-152520000D01*
X52260000Y-152520000D02*
X53460000Y-151320000D01*
X53460000Y-151320000D02*
X53460000Y-148720000D01*
X43060000Y-142120000D02*
X52260000Y-142120000D01*
X52260000Y-142120000D02*
X53460000Y-143320000D01*
X53460000Y-143320000D02*
X53460000Y-145920000D01*
X43060000Y-142120000D02*
X43060000Y-145920000D01*
D14*
X71882000Y-107442000D02*
X71882000Y-107061000D01*
X71882000Y-107061000D02*
X74422000Y-107061000D01*
X74422000Y-107061000D02*
X74422000Y-107442000D01*
X71882000Y-114808000D02*
X71882000Y-107442000D01*
X71882000Y-107442000D02*
X74422000Y-107442000D01*
X74422000Y-107442000D02*
X74422000Y-114808000D01*
X74422000Y-114808000D02*
X71882000Y-114808000D01*
X120523000Y-159766000D02*
X120523000Y-159385000D01*
X120523000Y-159385000D02*
X122301000Y-159385000D01*
X122301000Y-159385000D02*
X122301000Y-159766000D01*
X120523000Y-163322000D02*
X120523000Y-159766000D01*
X120523000Y-159766000D02*
X122301000Y-159766000D01*
X122301000Y-159766000D02*
X122301000Y-163322000D01*
X122301000Y-163322000D02*
X120523000Y-163322000D01*
X116713000Y-159766000D02*
X116713000Y-159385000D01*
X116713000Y-159385000D02*
X118491000Y-159385000D01*
X118491000Y-159385000D02*
X118491000Y-159766000D01*
X116713000Y-163322000D02*
X116713000Y-159766000D01*
X116713000Y-159766000D02*
X118491000Y-159766000D01*
X118491000Y-159766000D02*
X118491000Y-163322000D01*
X118491000Y-163322000D02*
X116713000Y-163322000D01*
X112903000Y-159766000D02*
X112903000Y-159385000D01*
X112903000Y-159385000D02*
X114681000Y-159385000D01*
X114681000Y-159385000D02*
X114681000Y-159766000D01*
X112903000Y-163322000D02*
X112903000Y-159766000D01*
X112903000Y-159766000D02*
X114681000Y-159766000D01*
X114681000Y-159766000D02*
X114681000Y-163322000D01*
X114681000Y-163322000D02*
X112903000Y-163322000D01*
X68834000Y-121539000D02*
X69215000Y-121539000D01*
X69215000Y-121539000D02*
X69215000Y-123317000D01*
X69215000Y-123317000D02*
X68834000Y-123317000D01*
X65278000Y-121539000D02*
X68834000Y-121539000D01*
X68834000Y-121539000D02*
X68834000Y-123317000D01*
X68834000Y-123317000D02*
X65278000Y-123317000D01*
X65278000Y-123317000D02*
X65278000Y-121539000D01*
X61722000Y-122047000D02*
X61722000Y-121666000D01*
X61722000Y-121666000D02*
X64262000Y-121666000D01*
X64262000Y-121666000D02*
X64262000Y-122047000D01*
X61722000Y-129413000D02*
X61722000Y-122047000D01*
X61722000Y-122047000D02*
X64262000Y-122047000D01*
X64262000Y-122047000D02*
X64262000Y-129413000D01*
X64262000Y-129413000D02*
X61722000Y-129413000D01*
X68834000Y-133223000D02*
X69215000Y-133223000D01*
X69215000Y-133223000D02*
X69215000Y-135001000D01*
X69215000Y-135001000D02*
X68834000Y-135001000D01*
X65278000Y-133223000D02*
X68834000Y-133223000D01*
X68834000Y-133223000D02*
X68834000Y-135001000D01*
X68834000Y-135001000D02*
X65278000Y-135001000D01*
X65278000Y-135001000D02*
X65278000Y-133223000D01*
X61722000Y-133731000D02*
X61722000Y-133350000D01*
X61722000Y-133350000D02*
X64262000Y-133350000D01*
X64262000Y-133350000D02*
X64262000Y-133731000D01*
X61722000Y-141097000D02*
X61722000Y-133731000D01*
X61722000Y-133731000D02*
X64262000Y-133731000D01*
X64262000Y-133731000D02*
X64262000Y-141097000D01*
X64262000Y-141097000D02*
X61722000Y-141097000D01*
X104902000Y-159766000D02*
X104902000Y-159385000D01*
X104902000Y-159385000D02*
X106680000Y-159385000D01*
X106680000Y-159385000D02*
X106680000Y-159766000D01*
X104902000Y-163322000D02*
X104902000Y-159766000D01*
X104902000Y-159766000D02*
X106680000Y-159766000D01*
X106680000Y-159766000D02*
X106680000Y-163322000D01*
X106680000Y-163322000D02*
X104902000Y-163322000D01*
X108839000Y-159766000D02*
X108839000Y-159385000D01*
X108839000Y-159385000D02*
X110617000Y-159385000D01*
X110617000Y-159385000D02*
X110617000Y-159766000D01*
X108839000Y-163322000D02*
X108839000Y-159766000D01*
X108839000Y-159766000D02*
X110617000Y-159766000D01*
X110617000Y-159766000D02*
X110617000Y-163322000D01*
X110617000Y-163322000D02*
X108839000Y-163322000D01*
X43020000Y-153276000D02*
X51021000Y-153276000D01*
X51021000Y-153276000D02*
X51021000Y-156324000D01*
X51021000Y-156324000D02*
X43020000Y-156324000D01*
X50640000Y-153276000D02*
X50640000Y-156324000D01*
X43020000Y-153276000D02*
X43020000Y-156324000D01*
X50640000Y-160134000D02*
X42639000Y-160134000D01*
X42639000Y-160134000D02*
X42639000Y-157086000D01*
X42639000Y-157086000D02*
X50640000Y-157086000D01*
X43020000Y-160134000D02*
X43020000Y-157086000D01*
X50640000Y-160134000D02*
X50640000Y-157086000D01*
D13*
X120468000Y-127040000D02*
X119468000Y-128040000D01*
X119468000Y-128040000D02*
X120468000Y-129040000D01*
X129468000Y-127040000D02*
X120468000Y-127040000D01*
X120468000Y-127040000D02*
X120468000Y-147040000D01*
X120468000Y-147040000D02*
X129468000Y-147040000D01*
X129468000Y-147040000D02*
X129468000Y-127040000D01*
X31060000Y-116960000D02*
X30060000Y-117960000D01*
X30060000Y-117960000D02*
X31060000Y-118960000D01*
X40060000Y-116960000D02*
X31060000Y-116960000D01*
X31060000Y-116960000D02*
X31060000Y-136960000D01*
X31060000Y-136960000D02*
X40060000Y-136960000D01*
X40060000Y-136960000D02*
X40060000Y-116960000D01*
X120468000Y-105196000D02*
X119468000Y-106196000D01*
X119468000Y-106196000D02*
X120468000Y-107196000D01*
X129468000Y-105196000D02*
X120468000Y-105196000D01*
X120468000Y-105196000D02*
X120468000Y-125196000D01*
X120468000Y-125196000D02*
X129468000Y-125196000D01*
X129468000Y-125196000D02*
X129468000Y-105196000D01*
X31060000Y-138470000D02*
X30060000Y-139470000D01*
X30060000Y-139470000D02*
X31060000Y-140470000D01*
X40060000Y-138470000D02*
X31060000Y-138470000D01*
X31060000Y-138470000D02*
X31060000Y-158470000D01*
X31060000Y-158470000D02*
X40060000Y-158470000D01*
X40060000Y-158470000D02*
X40060000Y-138470000D01*
X61060000Y-165560000D02*
X61060000Y-168810000D01*
X61060000Y-168810000D02*
X73560000Y-168810000D01*
X73560000Y-168810000D02*
X73560000Y-165560000D01*
X73560000Y-156310000D02*
X61060000Y-156310000D01*
X61060000Y-156310000D02*
X61060000Y-159560000D01*
X73560000Y-156310000D02*
X73560000Y-159560000D01*
D14*
X122478000Y-153338000D02*
X123478000Y-153338000D01*
X123478000Y-153338000D02*
X123478000Y-152088000D01*
X120478000Y-153338000D02*
X119478000Y-153338000D01*
X119478000Y-153338000D02*
X119478000Y-152088000D01*
X118536000Y-149528000D02*
X119536000Y-149528000D01*
X119536000Y-149528000D02*
X119536000Y-148278000D01*
X116536000Y-149528000D02*
X115536000Y-149528000D01*
X115536000Y-149528000D02*
X115536000Y-148278000D01*
X114726000Y-153592000D02*
X115726000Y-153592000D01*
X115726000Y-153592000D02*
X115726000Y-152342000D01*
X112726000Y-153592000D02*
X111726000Y-153592000D01*
X111726000Y-153592000D02*
X111726000Y-152342000D01*
X66626000Y-128950000D02*
X66626000Y-129950000D01*
X66626000Y-129950000D02*
X67876000Y-129950000D01*
X66626000Y-126950000D02*
X66626000Y-125950000D01*
X66626000Y-125950000D02*
X67876000Y-125950000D01*
X66540000Y-140446000D02*
X66540000Y-141446000D01*
X66540000Y-141446000D02*
X67790000Y-141446000D01*
X66540000Y-138446000D02*
X66540000Y-137446000D01*
X66540000Y-137446000D02*
X67790000Y-137446000D01*
X117729000Y-137668000D02*
X117729000Y-134112000D01*
X117729000Y-134112000D02*
X119507000Y-134112000D01*
X119507000Y-134112000D02*
X119507000Y-137668000D01*
X119507000Y-137668000D02*
X117729000Y-137668000D01*
X119507000Y-137922000D02*
X119507000Y-141478000D01*
X119507000Y-141478000D02*
X117729000Y-141478000D01*
X117729000Y-141478000D02*
X117729000Y-137922000D01*
X117729000Y-137922000D02*
X119507000Y-137922000D01*
X69977000Y-113411000D02*
X69977000Y-116967000D01*
X69977000Y-116967000D02*
X68199000Y-116967000D01*
X68199000Y-116967000D02*
X68199000Y-113411000D01*
X68199000Y-113411000D02*
X69977000Y-113411000D01*
X76898000Y-112903000D02*
X80454000Y-112903000D01*
X80454000Y-112903000D02*
X80454000Y-114681000D01*
X80454000Y-114681000D02*
X76898000Y-114681000D01*
X76898000Y-114681000D02*
X76898000Y-112903000D01*
X105410000Y-133731000D02*
X108966000Y-133731000D01*
X108966000Y-133731000D02*
X108966000Y-135509000D01*
X108966000Y-135509000D02*
X105410000Y-135509000D01*
X105410000Y-135509000D02*
X105410000Y-133731000D01*
X108966000Y-137541000D02*
X105410000Y-137541000D01*
X105410000Y-137541000D02*
X105410000Y-135763000D01*
X105410000Y-135763000D02*
X108966000Y-135763000D01*
X108966000Y-135763000D02*
X108966000Y-137541000D01*
X105410000Y-137795000D02*
X108966000Y-137795000D01*
X108966000Y-137795000D02*
X108966000Y-139573000D01*
X108966000Y-139573000D02*
X105410000Y-139573000D01*
X105410000Y-139573000D02*
X105410000Y-137795000D01*
X48387000Y-115824000D02*
X44831000Y-115824000D01*
X44831000Y-115824000D02*
X44831000Y-114046000D01*
X44831000Y-114046000D02*
X48387000Y-114046000D01*
X48387000Y-114046000D02*
X48387000Y-115824000D01*
X95590000Y-132661000D02*
X99146000Y-132661000D01*
X99146000Y-132661000D02*
X99146000Y-134439000D01*
X99146000Y-134439000D02*
X95590000Y-134439000D01*
X95590000Y-134439000D02*
X95590000Y-132661000D01*
X95590000Y-134693000D02*
X99146000Y-134693000D01*
X99146000Y-134693000D02*
X99146000Y-136471000D01*
X99146000Y-136471000D02*
X95590000Y-136471000D01*
X95590000Y-136471000D02*
X95590000Y-134693000D01*
X96402000Y-159435000D02*
X92846000Y-159435000D01*
X92846000Y-159435000D02*
X92846000Y-157657000D01*
X92846000Y-157657000D02*
X96402000Y-157657000D01*
X96402000Y-157657000D02*
X96402000Y-159435000D01*
X105410000Y-139827000D02*
X108966000Y-139827000D01*
X108966000Y-139827000D02*
X108966000Y-141605000D01*
X108966000Y-141605000D02*
X105410000Y-141605000D01*
X105410000Y-141605000D02*
X105410000Y-139827000D01*
X42672000Y-115824000D02*
X42672000Y-112268000D01*
X42672000Y-112268000D02*
X44450000Y-112268000D01*
X44450000Y-112268000D02*
X44450000Y-115824000D01*
X44450000Y-115824000D02*
X42672000Y-115824000D01*
X107170000Y-123721000D02*
X103614000Y-123721000D01*
X103614000Y-123721000D02*
X103614000Y-121943000D01*
X103614000Y-121943000D02*
X107170000Y-121943000D01*
X107170000Y-121943000D02*
X107170000Y-123721000D01*
X108458000Y-149733000D02*
X104902000Y-149733000D01*
X104902000Y-149733000D02*
X104902000Y-147955000D01*
X104902000Y-147955000D02*
X108458000Y-147955000D01*
X108458000Y-147955000D02*
X108458000Y-149733000D01*
X120523000Y-159004000D02*
X120523000Y-155448000D01*
X120523000Y-155448000D02*
X122301000Y-155448000D01*
X122301000Y-155448000D02*
X122301000Y-159004000D01*
X122301000Y-159004000D02*
X120523000Y-159004000D01*
X116713000Y-159004000D02*
X116713000Y-155448000D01*
X116713000Y-155448000D02*
X118491000Y-155448000D01*
X118491000Y-155448000D02*
X118491000Y-159004000D01*
X118491000Y-159004000D02*
X116713000Y-159004000D01*
X112903000Y-159004000D02*
X112903000Y-155448000D01*
X112903000Y-155448000D02*
X114681000Y-155448000D01*
X114681000Y-155448000D02*
X114681000Y-159004000D01*
X114681000Y-159004000D02*
X112903000Y-159004000D01*
X82042000Y-140843000D02*
X78486000Y-140843000D01*
X78486000Y-140843000D02*
X78486000Y-139065000D01*
X78486000Y-139065000D02*
X82042000Y-139065000D01*
X82042000Y-139065000D02*
X82042000Y-140843000D01*
X77978000Y-136189000D02*
X74422000Y-136189000D01*
X74422000Y-136189000D02*
X74422000Y-134411000D01*
X74422000Y-134411000D02*
X77978000Y-134411000D01*
X77978000Y-134411000D02*
X77978000Y-136189000D01*
X81109000Y-131173000D02*
X81109000Y-127617000D01*
X81109000Y-127617000D02*
X82887000Y-127617000D01*
X82887000Y-127617000D02*
X82887000Y-131173000D01*
X82887000Y-131173000D02*
X81109000Y-131173000D01*
X90424000Y-144907000D02*
X93980000Y-144907000D01*
X93980000Y-144907000D02*
X93980000Y-146685000D01*
X93980000Y-146685000D02*
X90424000Y-146685000D01*
X90424000Y-146685000D02*
X90424000Y-144907000D01*
X78486000Y-141605000D02*
X82042000Y-141605000D01*
X82042000Y-141605000D02*
X82042000Y-143383000D01*
X82042000Y-143383000D02*
X78486000Y-143383000D01*
X78486000Y-143383000D02*
X78486000Y-141605000D01*
X98152000Y-123749000D02*
X94596000Y-123749000D01*
X94596000Y-123749000D02*
X94596000Y-121971000D01*
X94596000Y-121971000D02*
X98152000Y-121971000D01*
X98152000Y-121971000D02*
X98152000Y-123749000D01*
X95640000Y-163753000D02*
X99196000Y-163753000D01*
X99196000Y-163753000D02*
X99196000Y-165531000D01*
X99196000Y-165531000D02*
X95640000Y-165531000D01*
X95640000Y-165531000D02*
X95640000Y-163753000D01*
X110226000Y-109347000D02*
X106670000Y-109347000D01*
X106670000Y-109347000D02*
X106670000Y-107569000D01*
X106670000Y-107569000D02*
X110226000Y-107569000D01*
X110226000Y-107569000D02*
X110226000Y-109347000D01*
X65278000Y-123571000D02*
X68834000Y-123571000D01*
X68834000Y-123571000D02*
X68834000Y-125349000D01*
X68834000Y-125349000D02*
X65278000Y-125349000D01*
X65278000Y-125349000D02*
X65278000Y-123571000D01*
X65722000Y-130311000D02*
X69278000Y-130311000D01*
X69278000Y-130311000D02*
X69278000Y-132089000D01*
X69278000Y-132089000D02*
X65722000Y-132089000D01*
X65722000Y-132089000D02*
X65722000Y-130311000D01*
X116414000Y-123701000D02*
X112858000Y-123701000D01*
X112858000Y-123701000D02*
X112858000Y-121923000D01*
X112858000Y-121923000D02*
X116414000Y-121923000D01*
X116414000Y-121923000D02*
X116414000Y-123701000D01*
X99722000Y-109459000D02*
X96166000Y-109459000D01*
X96166000Y-109459000D02*
X96166000Y-107681000D01*
X96166000Y-107681000D02*
X99722000Y-107681000D01*
X99722000Y-107681000D02*
X99722000Y-109459000D01*
X116322000Y-113211000D02*
X119878000Y-113211000D01*
X119878000Y-113211000D02*
X119878000Y-114989000D01*
X119878000Y-114989000D02*
X116322000Y-114989000D01*
X116322000Y-114989000D02*
X116322000Y-113211000D01*
X65278000Y-135255000D02*
X68834000Y-135255000D01*
X68834000Y-135255000D02*
X68834000Y-137033000D01*
X68834000Y-137033000D02*
X65278000Y-137033000D01*
X65278000Y-137033000D02*
X65278000Y-135255000D01*
X66522000Y-141911000D02*
X70078000Y-141911000D01*
X70078000Y-141911000D02*
X70078000Y-143689000D01*
X70078000Y-143689000D02*
X66522000Y-143689000D01*
X66522000Y-143689000D02*
X66522000Y-141911000D01*
X110617000Y-155448000D02*
X110617000Y-159004000D01*
X110617000Y-159004000D02*
X108839000Y-159004000D01*
X108839000Y-159004000D02*
X108839000Y-155448000D01*
X108839000Y-155448000D02*
X110617000Y-155448000D01*
X106680000Y-155448000D02*
X106680000Y-159004000D01*
X106680000Y-159004000D02*
X104902000Y-159004000D01*
X104902000Y-159004000D02*
X104902000Y-155448000D01*
X104902000Y-155448000D02*
X106680000Y-155448000D01*
D13*
X113013000Y-132835000D02*
X112038000Y-132835000D01*
X114063000Y-132835000D02*
X115038000Y-132835000D01*
X113013000Y-132835000D02*
G75*
G03X113538000Y-133360000I525000J0D01*
G01*
X113538000Y-133360000D02*
G75*
G03X114063000Y-132835000I0J525000D01*
G01*
X115038000Y-141485000D02*
X112038000Y-141485000D01*
X115038000Y-132835000D02*
X115038000Y-141485000D01*
X112038000Y-141485000D02*
X112038000Y-132835000D01*
D15*
X110324803Y-132185000D02*
G75*
G03X110324803Y-132185000I-111803J0D01*
G01*
D12*
X104092000Y-124080000D02*
G75*
G03X104092000Y-124080000I-100000J0D01*
G01*
D13*
X104592000Y-127480000D02*
X106192000Y-127480000D01*
X104592000Y-124280000D02*
X106192000Y-124280000D01*
D12*
X105380000Y-150092000D02*
G75*
G03X105380000Y-150092000I-100000J0D01*
G01*
D13*
X105880000Y-153492000D02*
X107480000Y-153492000D01*
X105880000Y-150292000D02*
X107480000Y-150292000D01*
X75937000Y-129154000D02*
G75*
G03X76537000Y-129754000I600000J0D01*
G01*
X76537000Y-129754000D02*
G75*
G03X77137000Y-129154000I0J600000D01*
G01*
X74937000Y-133954000D02*
X78137000Y-133954000D01*
X78137000Y-133954000D02*
X78137000Y-129154000D01*
X78137000Y-129154000D02*
X77137000Y-129154000D01*
X74937000Y-133954000D02*
X74937000Y-129154000D01*
X74937000Y-129154000D02*
X75937000Y-129154000D01*
D12*
X94947000Y-124108000D02*
G75*
G03X94947000Y-124108000I-100000J0D01*
G01*
D13*
X95447000Y-127508000D02*
X97047000Y-127508000D01*
X95447000Y-124308000D02*
X97047000Y-124308000D01*
D12*
X98918000Y-163394000D02*
G75*
G03X98918000Y-163394000I-100000J0D01*
G01*
D13*
X98218000Y-159994000D02*
X96618000Y-159994000D01*
X98218000Y-163194000D02*
X96618000Y-163194000D01*
D12*
X107148000Y-109706000D02*
G75*
G03X107148000Y-109706000I-100000J0D01*
G01*
D13*
X107648000Y-113106000D02*
X109248000Y-113106000D01*
X107648000Y-109906000D02*
X109248000Y-109906000D01*
D12*
X113336000Y-124060000D02*
G75*
G03X113336000Y-124060000I-100000J0D01*
G01*
D13*
X113836000Y-127460000D02*
X115436000Y-127460000D01*
X113836000Y-124260000D02*
X115436000Y-124260000D01*
D12*
X96644000Y-109818000D02*
G75*
G03X96644000Y-109818000I-100000J0D01*
G01*
D13*
X97144000Y-113218000D02*
X98744000Y-113218000D01*
X97144000Y-110018000D02*
X98744000Y-110018000D01*
X58340000Y-121980000D02*
X58340000Y-124730000D01*
X58340000Y-124730000D02*
X60840000Y-124730000D01*
X60840000Y-121980000D02*
X60840000Y-129480000D01*
X60840000Y-129480000D02*
X45840000Y-129480000D01*
X45840000Y-129480000D02*
X45840000Y-121980000D01*
X45840000Y-121980000D02*
X60840000Y-121980000D01*
X58340000Y-133410000D02*
X58340000Y-136160000D01*
X58340000Y-136160000D02*
X60840000Y-136160000D01*
X60840000Y-133410000D02*
X60840000Y-140910000D01*
X60840000Y-140910000D02*
X45840000Y-140910000D01*
X45840000Y-140910000D02*
X45840000Y-133410000D01*
X45840000Y-133410000D02*
X60840000Y-133410000D01*
X53973000Y-99372000D02*
X53973000Y-103436000D01*
X52449000Y-99372000D02*
X52449000Y-103436000D01*
X53211000Y-97086000D02*
X54227000Y-97086000D01*
X54227000Y-97086000D02*
X54735000Y-99372000D01*
X54735000Y-99372000D02*
X51687000Y-99372000D01*
X51687000Y-99372000D02*
X52195000Y-97086000D01*
X52195000Y-97086000D02*
X53211000Y-97086000D01*
X49782000Y-103436000D02*
X60450000Y-103436000D01*
X60450000Y-103436000D02*
X60450000Y-114104000D01*
X60450000Y-114104000D02*
X49782000Y-114104000D01*
X49782000Y-114104000D02*
X49782000Y-103436000D01*
D14*
X99146000Y-138503000D02*
X95590000Y-138503000D01*
X95590000Y-138503000D02*
X95590000Y-136725000D01*
X95590000Y-136725000D02*
X99146000Y-136725000D01*
X99146000Y-136725000D02*
X99146000Y-138503000D01*
X78486000Y-136525000D02*
X82042000Y-136525000D01*
X82042000Y-136525000D02*
X82042000Y-138303000D01*
X82042000Y-138303000D02*
X78486000Y-138303000D01*
X78486000Y-138303000D02*
X78486000Y-136525000D01*
X113157000Y-150305000D02*
X113157000Y-146749000D01*
X113157000Y-146749000D02*
X114935000Y-146749000D01*
X114935000Y-146749000D02*
X114935000Y-150305000D01*
X114935000Y-150305000D02*
X113157000Y-150305000D01*
X75692000Y-109347000D02*
X75692000Y-106807000D01*
X75692000Y-106807000D02*
X90932000Y-106807000D01*
X90932000Y-106807000D02*
X90932000Y-111887000D01*
X90932000Y-111887000D02*
X75692000Y-111887000D01*
X75692000Y-111887000D02*
X75692000Y-109347000D01*
D13*
X74117143Y-146552857D02*
X74164762Y-146600476D01*
X74212381Y-146743333D01*
X74212381Y-146838571D01*
X74164762Y-146981429D01*
X74069524Y-147076667D01*
X73974286Y-147124286D01*
X73783810Y-147171905D01*
X73640952Y-147171905D01*
X73450476Y-147124286D01*
X73355238Y-147076667D01*
X73260000Y-146981429D01*
X73212381Y-146838571D01*
X73212381Y-146743333D01*
X73260000Y-146600476D01*
X73307619Y-146552857D01*
X73307619Y-146171905D02*
X73260000Y-146124286D01*
X73212381Y-146029048D01*
X73212381Y-145790952D01*
X73260000Y-145695714D01*
X73307619Y-145648095D01*
X73402857Y-145600476D01*
X73498095Y-145600476D01*
X73640952Y-145648095D01*
X74212381Y-146219524D01*
X74212381Y-145600476D01*
X73212381Y-144695714D02*
X73212381Y-145171905D01*
X73688571Y-145219524D01*
X73640952Y-145171905D01*
X73593333Y-145076667D01*
X73593333Y-144838571D01*
X73640952Y-144743333D01*
X73688571Y-144695714D01*
X73783810Y-144648095D01*
X74021905Y-144648095D01*
X74117143Y-144695714D01*
X74164762Y-144743333D01*
X74212381Y-144838571D01*
X74212381Y-145076667D01*
X74164762Y-145171905D01*
X74117143Y-145219524D01*
X113957143Y-116852381D02*
X113623809Y-116376190D01*
X113385714Y-116852381D02*
X113385714Y-115852381D01*
X113766667Y-115852381D01*
X113861905Y-115900000D01*
X113909524Y-115947619D01*
X113957143Y-116042857D01*
X113957143Y-116185714D01*
X113909524Y-116280952D01*
X113861905Y-116328571D01*
X113766667Y-116376190D01*
X113385714Y-116376190D01*
X114290476Y-115852381D02*
X114909524Y-115852381D01*
X114576190Y-116233333D01*
X114719048Y-116233333D01*
X114814286Y-116280952D01*
X114861905Y-116328571D01*
X114909524Y-116423810D01*
X114909524Y-116661905D01*
X114861905Y-116757143D01*
X114814286Y-116804762D01*
X114719048Y-116852381D01*
X114433333Y-116852381D01*
X114338095Y-116804762D01*
X114290476Y-116757143D01*
X115242857Y-115852381D02*
X115909524Y-115852381D01*
X115480952Y-116852381D01*
X114057143Y-112352381D02*
X113723809Y-111876190D01*
X113485714Y-112352381D02*
X113485714Y-111352381D01*
X113866667Y-111352381D01*
X113961905Y-111400000D01*
X114009524Y-111447619D01*
X114057143Y-111542857D01*
X114057143Y-111685714D01*
X114009524Y-111780952D01*
X113961905Y-111828571D01*
X113866667Y-111876190D01*
X113485714Y-111876190D01*
X114390476Y-111352381D02*
X115009524Y-111352381D01*
X114676190Y-111733333D01*
X114819048Y-111733333D01*
X114914286Y-111780952D01*
X114961905Y-111828571D01*
X115009524Y-111923810D01*
X115009524Y-112161905D01*
X114961905Y-112257143D01*
X114914286Y-112304762D01*
X114819048Y-112352381D01*
X114533333Y-112352381D01*
X114438095Y-112304762D01*
X114390476Y-112257143D01*
X115914286Y-111352381D02*
X115438095Y-111352381D01*
X115390476Y-111828571D01*
X115438095Y-111780952D01*
X115533333Y-111733333D01*
X115771429Y-111733333D01*
X115866667Y-111780952D01*
X115914286Y-111828571D01*
X115961905Y-111923810D01*
X115961905Y-112161905D01*
X115914286Y-112257143D01*
X115866667Y-112304762D01*
X115771429Y-112352381D01*
X115533333Y-112352381D01*
X115438095Y-112304762D01*
X115390476Y-112257143D01*
X90538095Y-130352381D02*
X90538095Y-131161905D01*
X90585714Y-131257143D01*
X90633333Y-131304762D01*
X90728571Y-131352381D01*
X90919048Y-131352381D01*
X91014286Y-131304762D01*
X91061905Y-131257143D01*
X91109524Y-131161905D01*
X91109524Y-130352381D01*
X91490476Y-130352381D02*
X92109524Y-130352381D01*
X91776190Y-130733333D01*
X91919048Y-130733333D01*
X92014286Y-130780952D01*
X92061905Y-130828571D01*
X92109524Y-130923810D01*
X92109524Y-131161905D01*
X92061905Y-131257143D01*
X92014286Y-131304762D01*
X91919048Y-131352381D01*
X91633333Y-131352381D01*
X91538095Y-131304762D01*
X91490476Y-131257143D01*
X85743143Y-119258381D02*
X85409809Y-118782190D01*
X85171714Y-119258381D02*
X85171714Y-118258381D01*
X85552667Y-118258381D01*
X85647905Y-118306000D01*
X85695524Y-118353619D01*
X85743143Y-118448857D01*
X85743143Y-118591714D01*
X85695524Y-118686952D01*
X85647905Y-118734571D01*
X85552667Y-118782190D01*
X85171714Y-118782190D01*
X86124095Y-118353619D02*
X86171714Y-118306000D01*
X86266952Y-118258381D01*
X86505048Y-118258381D01*
X86600286Y-118306000D01*
X86647905Y-118353619D01*
X86695524Y-118448857D01*
X86695524Y-118544095D01*
X86647905Y-118686952D01*
X86076476Y-119258381D01*
X86695524Y-119258381D01*
X87600286Y-118258381D02*
X87124095Y-118258381D01*
X87076476Y-118734571D01*
X87124095Y-118686952D01*
X87219333Y-118639333D01*
X87457429Y-118639333D01*
X87552667Y-118686952D01*
X87600286Y-118734571D01*
X87647905Y-118829810D01*
X87647905Y-119067905D01*
X87600286Y-119163143D01*
X87552667Y-119210762D01*
X87457429Y-119258381D01*
X87219333Y-119258381D01*
X87124095Y-119210762D01*
X87076476Y-119163143D01*
X76837143Y-119702857D02*
X76884762Y-119750476D01*
X76932381Y-119893333D01*
X76932381Y-119988571D01*
X76884762Y-120131429D01*
X76789524Y-120226667D01*
X76694286Y-120274286D01*
X76503810Y-120321905D01*
X76360952Y-120321905D01*
X76170476Y-120274286D01*
X76075238Y-120226667D01*
X75980000Y-120131429D01*
X75932381Y-119988571D01*
X75932381Y-119893333D01*
X75980000Y-119750476D01*
X76027619Y-119702857D01*
X76932381Y-118750476D02*
X76932381Y-119321905D01*
X76932381Y-119036191D02*
X75932381Y-119036191D01*
X76075238Y-119131429D01*
X76170476Y-119226667D01*
X76218095Y-119321905D01*
X75932381Y-118131429D02*
X75932381Y-118036190D01*
X75980000Y-117940952D01*
X76027619Y-117893333D01*
X76122857Y-117845714D01*
X76313333Y-117798095D01*
X76551429Y-117798095D01*
X76741905Y-117845714D01*
X76837143Y-117893333D01*
X76884762Y-117940952D01*
X76932381Y-118036190D01*
X76932381Y-118131429D01*
X76884762Y-118226667D01*
X76837143Y-118274286D01*
X76741905Y-118321905D01*
X76551429Y-118369524D01*
X76313333Y-118369524D01*
X76122857Y-118321905D01*
X76027619Y-118274286D01*
X75980000Y-118226667D01*
X75932381Y-118131429D01*
X85822381Y-122941857D02*
X85346190Y-123275191D01*
X85822381Y-123513286D02*
X84822381Y-123513286D01*
X84822381Y-123132333D01*
X84870000Y-123037095D01*
X84917619Y-122989476D01*
X85012857Y-122941857D01*
X85155714Y-122941857D01*
X85250952Y-122989476D01*
X85298571Y-123037095D01*
X85346190Y-123132333D01*
X85346190Y-123513286D01*
X85822381Y-121989476D02*
X85822381Y-122560905D01*
X85822381Y-122275191D02*
X84822381Y-122275191D01*
X84965238Y-122370429D01*
X85060476Y-122465667D01*
X85108095Y-122560905D01*
X85250952Y-121418048D02*
X85203333Y-121513286D01*
X85155714Y-121560905D01*
X85060476Y-121608524D01*
X85012857Y-121608524D01*
X84917619Y-121560905D01*
X84870000Y-121513286D01*
X84822381Y-121418048D01*
X84822381Y-121227571D01*
X84870000Y-121132333D01*
X84917619Y-121084714D01*
X85012857Y-121037095D01*
X85060476Y-121037095D01*
X85155714Y-121084714D01*
X85203333Y-121132333D01*
X85250952Y-121227571D01*
X85250952Y-121418048D01*
X85298571Y-121513286D01*
X85346190Y-121560905D01*
X85441429Y-121608524D01*
X85631905Y-121608524D01*
X85727143Y-121560905D01*
X85774762Y-121513286D01*
X85822381Y-121418048D01*
X85822381Y-121227571D01*
X85774762Y-121132333D01*
X85727143Y-121084714D01*
X85631905Y-121037095D01*
X85441429Y-121037095D01*
X85346190Y-121084714D01*
X85298571Y-121132333D01*
X85250952Y-121227571D01*
X78258095Y-118794381D02*
X78258095Y-119603905D01*
X78305714Y-119699143D01*
X78353333Y-119746762D01*
X78448571Y-119794381D01*
X78639048Y-119794381D01*
X78734286Y-119746762D01*
X78781905Y-119699143D01*
X78829524Y-119603905D01*
X78829524Y-118794381D01*
X79734286Y-118794381D02*
X79543809Y-118794381D01*
X79448571Y-118842000D01*
X79400952Y-118889619D01*
X79305714Y-119032476D01*
X79258095Y-119222952D01*
X79258095Y-119603905D01*
X79305714Y-119699143D01*
X79353333Y-119746762D01*
X79448571Y-119794381D01*
X79639048Y-119794381D01*
X79734286Y-119746762D01*
X79781905Y-119699143D01*
X79829524Y-119603905D01*
X79829524Y-119365810D01*
X79781905Y-119270571D01*
X79734286Y-119222952D01*
X79639048Y-119175333D01*
X79448571Y-119175333D01*
X79353333Y-119222952D01*
X79305714Y-119270571D01*
X79258095Y-119365810D01*
X77319143Y-155074857D02*
X77366762Y-155122476D01*
X77414381Y-155265333D01*
X77414381Y-155360571D01*
X77366762Y-155503429D01*
X77271524Y-155598667D01*
X77176286Y-155646286D01*
X76985810Y-155693905D01*
X76842952Y-155693905D01*
X76652476Y-155646286D01*
X76557238Y-155598667D01*
X76462000Y-155503429D01*
X76414381Y-155360571D01*
X76414381Y-155265333D01*
X76462000Y-155122476D01*
X76509619Y-155074857D01*
X76509619Y-154693905D02*
X76462000Y-154646286D01*
X76414381Y-154551048D01*
X76414381Y-154312952D01*
X76462000Y-154217714D01*
X76509619Y-154170095D01*
X76604857Y-154122476D01*
X76700095Y-154122476D01*
X76842952Y-154170095D01*
X77414381Y-154741524D01*
X77414381Y-154122476D01*
X76509619Y-153741524D02*
X76462000Y-153693905D01*
X76414381Y-153598667D01*
X76414381Y-153360571D01*
X76462000Y-153265333D01*
X76509619Y-153217714D01*
X76604857Y-153170095D01*
X76700095Y-153170095D01*
X76842952Y-153217714D01*
X77414381Y-153789143D01*
X77414381Y-153170095D01*
X89781143Y-155678143D02*
X89733524Y-155725762D01*
X89590667Y-155773381D01*
X89495429Y-155773381D01*
X89352571Y-155725762D01*
X89257333Y-155630524D01*
X89209714Y-155535286D01*
X89162095Y-155344810D01*
X89162095Y-155201952D01*
X89209714Y-155011476D01*
X89257333Y-154916238D01*
X89352571Y-154821000D01*
X89495429Y-154773381D01*
X89590667Y-154773381D01*
X89733524Y-154821000D01*
X89781143Y-154868619D01*
X90162095Y-154868619D02*
X90209714Y-154821000D01*
X90304952Y-154773381D01*
X90543048Y-154773381D01*
X90638286Y-154821000D01*
X90685905Y-154868619D01*
X90733524Y-154963857D01*
X90733524Y-155059095D01*
X90685905Y-155201952D01*
X90114476Y-155773381D01*
X90733524Y-155773381D01*
X91066857Y-154773381D02*
X91685905Y-154773381D01*
X91352571Y-155154333D01*
X91495429Y-155154333D01*
X91590667Y-155201952D01*
X91638286Y-155249571D01*
X91685905Y-155344810D01*
X91685905Y-155582905D01*
X91638286Y-155678143D01*
X91590667Y-155725762D01*
X91495429Y-155773381D01*
X91209714Y-155773381D01*
X91114476Y-155725762D01*
X91066857Y-155678143D01*
X89368381Y-162528095D02*
X90177905Y-162528095D01*
X90273143Y-162480476D01*
X90320762Y-162432857D01*
X90368381Y-162337619D01*
X90368381Y-162147142D01*
X90320762Y-162051904D01*
X90273143Y-162004285D01*
X90177905Y-161956666D01*
X89368381Y-161956666D01*
X90368381Y-160956666D02*
X90368381Y-161528095D01*
X90368381Y-161242381D02*
X89368381Y-161242381D01*
X89511238Y-161337619D01*
X89606476Y-161432857D01*
X89654095Y-161528095D01*
X89368381Y-160099523D02*
X89368381Y-160290000D01*
X89416000Y-160385238D01*
X89463619Y-160432857D01*
X89606476Y-160528095D01*
X89796952Y-160575714D01*
X90177905Y-160575714D01*
X90273143Y-160528095D01*
X90320762Y-160480476D01*
X90368381Y-160385238D01*
X90368381Y-160194761D01*
X90320762Y-160099523D01*
X90273143Y-160051904D01*
X90177905Y-160004285D01*
X89939810Y-160004285D01*
X89844571Y-160051904D01*
X89796952Y-160099523D01*
X89749333Y-160194761D01*
X89749333Y-160385238D01*
X89796952Y-160480476D01*
X89844571Y-160528095D01*
X89939810Y-160575714D01*
X84701143Y-147804143D02*
X84653524Y-147851762D01*
X84510667Y-147899381D01*
X84415429Y-147899381D01*
X84272571Y-147851762D01*
X84177333Y-147756524D01*
X84129714Y-147661286D01*
X84082095Y-147470810D01*
X84082095Y-147327952D01*
X84129714Y-147137476D01*
X84177333Y-147042238D01*
X84272571Y-146947000D01*
X84415429Y-146899381D01*
X84510667Y-146899381D01*
X84653524Y-146947000D01*
X84701143Y-146994619D01*
X85082095Y-146994619D02*
X85129714Y-146947000D01*
X85224952Y-146899381D01*
X85463048Y-146899381D01*
X85558286Y-146947000D01*
X85605905Y-146994619D01*
X85653524Y-147089857D01*
X85653524Y-147185095D01*
X85605905Y-147327952D01*
X85034476Y-147899381D01*
X85653524Y-147899381D01*
X86605905Y-147899381D02*
X86034476Y-147899381D01*
X86320190Y-147899381D02*
X86320190Y-146899381D01*
X86224952Y-147042238D01*
X86129714Y-147137476D01*
X86034476Y-147185095D01*
X77795381Y-162282095D02*
X76795381Y-162282095D01*
X76795381Y-162044000D01*
X76843000Y-161901142D01*
X76938238Y-161805904D01*
X77033476Y-161758285D01*
X77223952Y-161710666D01*
X77366810Y-161710666D01*
X77557286Y-161758285D01*
X77652524Y-161805904D01*
X77747762Y-161901142D01*
X77795381Y-162044000D01*
X77795381Y-162282095D01*
X77795381Y-161234476D02*
X77795381Y-161044000D01*
X77747762Y-160948761D01*
X77700143Y-160901142D01*
X77557286Y-160805904D01*
X77366810Y-160758285D01*
X76985857Y-160758285D01*
X76890619Y-160805904D01*
X76843000Y-160853523D01*
X76795381Y-160948761D01*
X76795381Y-161139238D01*
X76843000Y-161234476D01*
X76890619Y-161282095D01*
X76985857Y-161329714D01*
X77223952Y-161329714D01*
X77319190Y-161282095D01*
X77366810Y-161234476D01*
X77414429Y-161139238D01*
X77414429Y-160948761D01*
X77366810Y-160853523D01*
X77319190Y-160805904D01*
X77223952Y-160758285D01*
X67794143Y-111545666D02*
X67841762Y-111593285D01*
X67889381Y-111736142D01*
X67889381Y-111831380D01*
X67841762Y-111974238D01*
X67746524Y-112069476D01*
X67651286Y-112117095D01*
X67460810Y-112164714D01*
X67317952Y-112164714D01*
X67127476Y-112117095D01*
X67032238Y-112069476D01*
X66937000Y-111974238D01*
X66889381Y-111831380D01*
X66889381Y-111736142D01*
X66937000Y-111593285D01*
X66984619Y-111545666D01*
X66984619Y-111164714D02*
X66937000Y-111117095D01*
X66889381Y-111021857D01*
X66889381Y-110783761D01*
X66937000Y-110688523D01*
X66984619Y-110640904D01*
X67079857Y-110593285D01*
X67175095Y-110593285D01*
X67317952Y-110640904D01*
X67889381Y-111212333D01*
X67889381Y-110593285D01*
X42648143Y-107989666D02*
X42695762Y-108037285D01*
X42743381Y-108180142D01*
X42743381Y-108275380D01*
X42695762Y-108418238D01*
X42600524Y-108513476D01*
X42505286Y-108561095D01*
X42314810Y-108608714D01*
X42171952Y-108608714D01*
X41981476Y-108561095D01*
X41886238Y-108513476D01*
X41791000Y-108418238D01*
X41743381Y-108275380D01*
X41743381Y-108180142D01*
X41791000Y-108037285D01*
X41838619Y-107989666D01*
X41743381Y-107656333D02*
X41743381Y-107037285D01*
X42124333Y-107370619D01*
X42124333Y-107227761D01*
X42171952Y-107132523D01*
X42219571Y-107084904D01*
X42314810Y-107037285D01*
X42552905Y-107037285D01*
X42648143Y-107084904D01*
X42695762Y-107132523D01*
X42743381Y-107227761D01*
X42743381Y-107513476D01*
X42695762Y-107608714D01*
X42648143Y-107656333D01*
X116533334Y-129957143D02*
X116485715Y-130004762D01*
X116342858Y-130052381D01*
X116247620Y-130052381D01*
X116104762Y-130004762D01*
X116009524Y-129909524D01*
X115961905Y-129814286D01*
X115914286Y-129623810D01*
X115914286Y-129480952D01*
X115961905Y-129290476D01*
X116009524Y-129195238D01*
X116104762Y-129100000D01*
X116247620Y-129052381D01*
X116342858Y-129052381D01*
X116485715Y-129100000D01*
X116533334Y-129147619D01*
X117390477Y-129385714D02*
X117390477Y-130052381D01*
X117152381Y-129004762D02*
X116914286Y-129719048D01*
X117533334Y-129719048D01*
X102447143Y-122998666D02*
X102494762Y-123046285D01*
X102542381Y-123189142D01*
X102542381Y-123284380D01*
X102494762Y-123427238D01*
X102399524Y-123522476D01*
X102304286Y-123570095D01*
X102113810Y-123617714D01*
X101970952Y-123617714D01*
X101780476Y-123570095D01*
X101685238Y-123522476D01*
X101590000Y-123427238D01*
X101542381Y-123284380D01*
X101542381Y-123189142D01*
X101590000Y-123046285D01*
X101637619Y-122998666D01*
X101542381Y-122093904D02*
X101542381Y-122570095D01*
X102018571Y-122617714D01*
X101970952Y-122570095D01*
X101923333Y-122474857D01*
X101923333Y-122236761D01*
X101970952Y-122141523D01*
X102018571Y-122093904D01*
X102113810Y-122046285D01*
X102351905Y-122046285D01*
X102447143Y-122093904D01*
X102494762Y-122141523D01*
X102542381Y-122236761D01*
X102542381Y-122474857D01*
X102494762Y-122570095D01*
X102447143Y-122617714D01*
X109051143Y-122998666D02*
X109098762Y-123046285D01*
X109146381Y-123189142D01*
X109146381Y-123284380D01*
X109098762Y-123427238D01*
X109003524Y-123522476D01*
X108908286Y-123570095D01*
X108717810Y-123617714D01*
X108574952Y-123617714D01*
X108384476Y-123570095D01*
X108289238Y-123522476D01*
X108194000Y-123427238D01*
X108146381Y-123284380D01*
X108146381Y-123189142D01*
X108194000Y-123046285D01*
X108241619Y-122998666D01*
X108146381Y-122141523D02*
X108146381Y-122332000D01*
X108194000Y-122427238D01*
X108241619Y-122474857D01*
X108384476Y-122570095D01*
X108574952Y-122617714D01*
X108955905Y-122617714D01*
X109051143Y-122570095D01*
X109098762Y-122522476D01*
X109146381Y-122427238D01*
X109146381Y-122236761D01*
X109098762Y-122141523D01*
X109051143Y-122093904D01*
X108955905Y-122046285D01*
X108717810Y-122046285D01*
X108622571Y-122093904D01*
X108574952Y-122141523D01*
X108527333Y-122236761D01*
X108527333Y-122427238D01*
X108574952Y-122522476D01*
X108622571Y-122570095D01*
X108717810Y-122617714D01*
X103735143Y-148883666D02*
X103782762Y-148931285D01*
X103830381Y-149074142D01*
X103830381Y-149169380D01*
X103782762Y-149312238D01*
X103687524Y-149407476D01*
X103592286Y-149455095D01*
X103401810Y-149502714D01*
X103258952Y-149502714D01*
X103068476Y-149455095D01*
X102973238Y-149407476D01*
X102878000Y-149312238D01*
X102830381Y-149169380D01*
X102830381Y-149074142D01*
X102878000Y-148931285D01*
X102925619Y-148883666D01*
X102830381Y-148550333D02*
X102830381Y-147883666D01*
X103830381Y-148312238D01*
X110212143Y-149010666D02*
X110259762Y-149058285D01*
X110307381Y-149201142D01*
X110307381Y-149296380D01*
X110259762Y-149439238D01*
X110164524Y-149534476D01*
X110069286Y-149582095D01*
X109878810Y-149629714D01*
X109735952Y-149629714D01*
X109545476Y-149582095D01*
X109450238Y-149534476D01*
X109355000Y-149439238D01*
X109307381Y-149296380D01*
X109307381Y-149201142D01*
X109355000Y-149058285D01*
X109402619Y-149010666D01*
X109735952Y-148439238D02*
X109688333Y-148534476D01*
X109640714Y-148582095D01*
X109545476Y-148629714D01*
X109497857Y-148629714D01*
X109402619Y-148582095D01*
X109355000Y-148534476D01*
X109307381Y-148439238D01*
X109307381Y-148248761D01*
X109355000Y-148153523D01*
X109402619Y-148105904D01*
X109497857Y-148058285D01*
X109545476Y-148058285D01*
X109640714Y-148105904D01*
X109688333Y-148153523D01*
X109735952Y-148248761D01*
X109735952Y-148439238D01*
X109783571Y-148534476D01*
X109831190Y-148582095D01*
X109926429Y-148629714D01*
X110116905Y-148629714D01*
X110212143Y-148582095D01*
X110259762Y-148534476D01*
X110307381Y-148439238D01*
X110307381Y-148248761D01*
X110259762Y-148153523D01*
X110212143Y-148105904D01*
X110116905Y-148058285D01*
X109926429Y-148058285D01*
X109831190Y-148105904D01*
X109783571Y-148153523D01*
X109735952Y-148248761D01*
X77894334Y-126069143D02*
X77846715Y-126116762D01*
X77703858Y-126164381D01*
X77608620Y-126164381D01*
X77465762Y-126116762D01*
X77370524Y-126021524D01*
X77322905Y-125926286D01*
X77275286Y-125735810D01*
X77275286Y-125592952D01*
X77322905Y-125402476D01*
X77370524Y-125307238D01*
X77465762Y-125212000D01*
X77608620Y-125164381D01*
X77703858Y-125164381D01*
X77846715Y-125212000D01*
X77894334Y-125259619D01*
X78370524Y-126164381D02*
X78561000Y-126164381D01*
X78656239Y-126116762D01*
X78703858Y-126069143D01*
X78799096Y-125926286D01*
X78846715Y-125735810D01*
X78846715Y-125354857D01*
X78799096Y-125259619D01*
X78751477Y-125212000D01*
X78656239Y-125164381D01*
X78465762Y-125164381D01*
X78370524Y-125212000D01*
X78322905Y-125259619D01*
X78275286Y-125354857D01*
X78275286Y-125592952D01*
X78322905Y-125688190D01*
X78370524Y-125735810D01*
X78465762Y-125783429D01*
X78656239Y-125783429D01*
X78751477Y-125735810D01*
X78799096Y-125688190D01*
X78846715Y-125592952D01*
X93175143Y-122994857D02*
X93222762Y-123042476D01*
X93270381Y-123185333D01*
X93270381Y-123280571D01*
X93222762Y-123423429D01*
X93127524Y-123518667D01*
X93032286Y-123566286D01*
X92841810Y-123613905D01*
X92698952Y-123613905D01*
X92508476Y-123566286D01*
X92413238Y-123518667D01*
X92318000Y-123423429D01*
X92270381Y-123280571D01*
X92270381Y-123185333D01*
X92318000Y-123042476D01*
X92365619Y-122994857D01*
X93270381Y-122042476D02*
X93270381Y-122613905D01*
X93270381Y-122328191D02*
X92270381Y-122328191D01*
X92413238Y-122423429D01*
X92508476Y-122518667D01*
X92556095Y-122613905D01*
X93270381Y-121090095D02*
X93270381Y-121661524D01*
X93270381Y-121375810D02*
X92270381Y-121375810D01*
X92413238Y-121471048D01*
X92508476Y-121566286D01*
X92556095Y-121661524D01*
X100033143Y-122994857D02*
X100080762Y-123042476D01*
X100128381Y-123185333D01*
X100128381Y-123280571D01*
X100080762Y-123423429D01*
X99985524Y-123518667D01*
X99890286Y-123566286D01*
X99699810Y-123613905D01*
X99556952Y-123613905D01*
X99366476Y-123566286D01*
X99271238Y-123518667D01*
X99176000Y-123423429D01*
X99128381Y-123280571D01*
X99128381Y-123185333D01*
X99176000Y-123042476D01*
X99223619Y-122994857D01*
X100128381Y-122042476D02*
X100128381Y-122613905D01*
X100128381Y-122328191D02*
X99128381Y-122328191D01*
X99271238Y-122423429D01*
X99366476Y-122518667D01*
X99414095Y-122613905D01*
X99223619Y-121661524D02*
X99176000Y-121613905D01*
X99128381Y-121518667D01*
X99128381Y-121280571D01*
X99176000Y-121185333D01*
X99223619Y-121137714D01*
X99318857Y-121090095D01*
X99414095Y-121090095D01*
X99556952Y-121137714D01*
X100128381Y-121709143D01*
X100128381Y-121090095D01*
X101331143Y-165792857D02*
X101378762Y-165840476D01*
X101426381Y-165983333D01*
X101426381Y-166078571D01*
X101378762Y-166221429D01*
X101283524Y-166316667D01*
X101188286Y-166364286D01*
X100997810Y-166411905D01*
X100854952Y-166411905D01*
X100664476Y-166364286D01*
X100569238Y-166316667D01*
X100474000Y-166221429D01*
X100426381Y-166078571D01*
X100426381Y-165983333D01*
X100474000Y-165840476D01*
X100521619Y-165792857D01*
X101426381Y-164840476D02*
X101426381Y-165411905D01*
X101426381Y-165126191D02*
X100426381Y-165126191D01*
X100569238Y-165221429D01*
X100664476Y-165316667D01*
X100712095Y-165411905D01*
X100426381Y-164507143D02*
X100426381Y-163888095D01*
X100807333Y-164221429D01*
X100807333Y-164078571D01*
X100854952Y-163983333D01*
X100902571Y-163935714D01*
X100997810Y-163888095D01*
X101235905Y-163888095D01*
X101331143Y-163935714D01*
X101378762Y-163983333D01*
X101426381Y-164078571D01*
X101426381Y-164364286D01*
X101378762Y-164459524D01*
X101331143Y-164507143D01*
X94219143Y-165792857D02*
X94266762Y-165840476D01*
X94314381Y-165983333D01*
X94314381Y-166078571D01*
X94266762Y-166221429D01*
X94171524Y-166316667D01*
X94076286Y-166364286D01*
X93885810Y-166411905D01*
X93742952Y-166411905D01*
X93552476Y-166364286D01*
X93457238Y-166316667D01*
X93362000Y-166221429D01*
X93314381Y-166078571D01*
X93314381Y-165983333D01*
X93362000Y-165840476D01*
X93409619Y-165792857D01*
X94314381Y-164840476D02*
X94314381Y-165411905D01*
X94314381Y-165126191D02*
X93314381Y-165126191D01*
X93457238Y-165221429D01*
X93552476Y-165316667D01*
X93600095Y-165411905D01*
X93647714Y-163983333D02*
X94314381Y-163983333D01*
X93266762Y-164221429D02*
X93981048Y-164459524D01*
X93981048Y-163840476D01*
X105249143Y-108592857D02*
X105296762Y-108640476D01*
X105344381Y-108783333D01*
X105344381Y-108878571D01*
X105296762Y-109021429D01*
X105201524Y-109116667D01*
X105106286Y-109164286D01*
X104915810Y-109211905D01*
X104772952Y-109211905D01*
X104582476Y-109164286D01*
X104487238Y-109116667D01*
X104392000Y-109021429D01*
X104344381Y-108878571D01*
X104344381Y-108783333D01*
X104392000Y-108640476D01*
X104439619Y-108592857D01*
X105344381Y-107640476D02*
X105344381Y-108211905D01*
X105344381Y-107926191D02*
X104344381Y-107926191D01*
X104487238Y-108021429D01*
X104582476Y-108116667D01*
X104630095Y-108211905D01*
X104344381Y-106735714D02*
X104344381Y-107211905D01*
X104820571Y-107259524D01*
X104772952Y-107211905D01*
X104725333Y-107116667D01*
X104725333Y-106878571D01*
X104772952Y-106783333D01*
X104820571Y-106735714D01*
X104915810Y-106688095D01*
X105153905Y-106688095D01*
X105249143Y-106735714D01*
X105296762Y-106783333D01*
X105344381Y-106878571D01*
X105344381Y-107116667D01*
X105296762Y-107211905D01*
X105249143Y-107259524D01*
X112361143Y-108592857D02*
X112408762Y-108640476D01*
X112456381Y-108783333D01*
X112456381Y-108878571D01*
X112408762Y-109021429D01*
X112313524Y-109116667D01*
X112218286Y-109164286D01*
X112027810Y-109211905D01*
X111884952Y-109211905D01*
X111694476Y-109164286D01*
X111599238Y-109116667D01*
X111504000Y-109021429D01*
X111456381Y-108878571D01*
X111456381Y-108783333D01*
X111504000Y-108640476D01*
X111551619Y-108592857D01*
X112456381Y-107640476D02*
X112456381Y-108211905D01*
X112456381Y-107926191D02*
X111456381Y-107926191D01*
X111599238Y-108021429D01*
X111694476Y-108116667D01*
X111742095Y-108211905D01*
X111456381Y-106783333D02*
X111456381Y-106973810D01*
X111504000Y-107069048D01*
X111551619Y-107116667D01*
X111694476Y-107211905D01*
X111884952Y-107259524D01*
X112265905Y-107259524D01*
X112361143Y-107211905D01*
X112408762Y-107164286D01*
X112456381Y-107069048D01*
X112456381Y-106878571D01*
X112408762Y-106783333D01*
X112361143Y-106735714D01*
X112265905Y-106688095D01*
X112027810Y-106688095D01*
X111932571Y-106735714D01*
X111884952Y-106783333D01*
X111837333Y-106878571D01*
X111837333Y-107069048D01*
X111884952Y-107164286D01*
X111932571Y-107211905D01*
X112027810Y-107259524D01*
X111437143Y-122946857D02*
X111484762Y-122994476D01*
X111532381Y-123137333D01*
X111532381Y-123232571D01*
X111484762Y-123375429D01*
X111389524Y-123470667D01*
X111294286Y-123518286D01*
X111103810Y-123565905D01*
X110960952Y-123565905D01*
X110770476Y-123518286D01*
X110675238Y-123470667D01*
X110580000Y-123375429D01*
X110532381Y-123232571D01*
X110532381Y-123137333D01*
X110580000Y-122994476D01*
X110627619Y-122946857D01*
X111532381Y-121994476D02*
X111532381Y-122565905D01*
X111532381Y-122280191D02*
X110532381Y-122280191D01*
X110675238Y-122375429D01*
X110770476Y-122470667D01*
X110818095Y-122565905D01*
X110532381Y-121661143D02*
X110532381Y-120994476D01*
X111532381Y-121423048D01*
X118549143Y-122946857D02*
X118596762Y-122994476D01*
X118644381Y-123137333D01*
X118644381Y-123232571D01*
X118596762Y-123375429D01*
X118501524Y-123470667D01*
X118406286Y-123518286D01*
X118215810Y-123565905D01*
X118072952Y-123565905D01*
X117882476Y-123518286D01*
X117787238Y-123470667D01*
X117692000Y-123375429D01*
X117644381Y-123232571D01*
X117644381Y-123137333D01*
X117692000Y-122994476D01*
X117739619Y-122946857D01*
X118644381Y-121994476D02*
X118644381Y-122565905D01*
X118644381Y-122280191D02*
X117644381Y-122280191D01*
X117787238Y-122375429D01*
X117882476Y-122470667D01*
X117930095Y-122565905D01*
X118072952Y-121423048D02*
X118025333Y-121518286D01*
X117977714Y-121565905D01*
X117882476Y-121613524D01*
X117834857Y-121613524D01*
X117739619Y-121565905D01*
X117692000Y-121518286D01*
X117644381Y-121423048D01*
X117644381Y-121232571D01*
X117692000Y-121137333D01*
X117739619Y-121089714D01*
X117834857Y-121042095D01*
X117882476Y-121042095D01*
X117977714Y-121089714D01*
X118025333Y-121137333D01*
X118072952Y-121232571D01*
X118072952Y-121423048D01*
X118120571Y-121518286D01*
X118168190Y-121565905D01*
X118263429Y-121613524D01*
X118453905Y-121613524D01*
X118549143Y-121565905D01*
X118596762Y-121518286D01*
X118644381Y-121423048D01*
X118644381Y-121232571D01*
X118596762Y-121137333D01*
X118549143Y-121089714D01*
X118453905Y-121042095D01*
X118263429Y-121042095D01*
X118168190Y-121089714D01*
X118120571Y-121137333D01*
X118072952Y-121232571D01*
X94745143Y-108704857D02*
X94792762Y-108752476D01*
X94840381Y-108895333D01*
X94840381Y-108990571D01*
X94792762Y-109133429D01*
X94697524Y-109228667D01*
X94602286Y-109276286D01*
X94411810Y-109323905D01*
X94268952Y-109323905D01*
X94078476Y-109276286D01*
X93983238Y-109228667D01*
X93888000Y-109133429D01*
X93840381Y-108990571D01*
X93840381Y-108895333D01*
X93888000Y-108752476D01*
X93935619Y-108704857D01*
X94840381Y-107752476D02*
X94840381Y-108323905D01*
X94840381Y-108038191D02*
X93840381Y-108038191D01*
X93983238Y-108133429D01*
X94078476Y-108228667D01*
X94126095Y-108323905D01*
X94840381Y-107276286D02*
X94840381Y-107085810D01*
X94792762Y-106990571D01*
X94745143Y-106942952D01*
X94602286Y-106847714D01*
X94411810Y-106800095D01*
X94030857Y-106800095D01*
X93935619Y-106847714D01*
X93888000Y-106895333D01*
X93840381Y-106990571D01*
X93840381Y-107181048D01*
X93888000Y-107276286D01*
X93935619Y-107323905D01*
X94030857Y-107371524D01*
X94268952Y-107371524D01*
X94364190Y-107323905D01*
X94411810Y-107276286D01*
X94459429Y-107181048D01*
X94459429Y-106990571D01*
X94411810Y-106895333D01*
X94364190Y-106847714D01*
X94268952Y-106800095D01*
X101857143Y-108704857D02*
X101904762Y-108752476D01*
X101952381Y-108895333D01*
X101952381Y-108990571D01*
X101904762Y-109133429D01*
X101809524Y-109228667D01*
X101714286Y-109276286D01*
X101523810Y-109323905D01*
X101380952Y-109323905D01*
X101190476Y-109276286D01*
X101095238Y-109228667D01*
X101000000Y-109133429D01*
X100952381Y-108990571D01*
X100952381Y-108895333D01*
X101000000Y-108752476D01*
X101047619Y-108704857D01*
X101047619Y-108323905D02*
X101000000Y-108276286D01*
X100952381Y-108181048D01*
X100952381Y-107942952D01*
X101000000Y-107847714D01*
X101047619Y-107800095D01*
X101142857Y-107752476D01*
X101238095Y-107752476D01*
X101380952Y-107800095D01*
X101952381Y-108371524D01*
X101952381Y-107752476D01*
X100952381Y-107133429D02*
X100952381Y-107038190D01*
X101000000Y-106942952D01*
X101047619Y-106895333D01*
X101142857Y-106847714D01*
X101333333Y-106800095D01*
X101571429Y-106800095D01*
X101761905Y-106847714D01*
X101857143Y-106895333D01*
X101904762Y-106942952D01*
X101952381Y-107038190D01*
X101952381Y-107133429D01*
X101904762Y-107228667D01*
X101857143Y-107276286D01*
X101761905Y-107323905D01*
X101571429Y-107371524D01*
X101333333Y-107371524D01*
X101142857Y-107323905D01*
X101047619Y-107276286D01*
X101000000Y-107228667D01*
X100952381Y-107133429D01*
X55067143Y-144012857D02*
X55114762Y-144060476D01*
X55162381Y-144203333D01*
X55162381Y-144298571D01*
X55114762Y-144441429D01*
X55019524Y-144536667D01*
X54924286Y-144584286D01*
X54733810Y-144631905D01*
X54590952Y-144631905D01*
X54400476Y-144584286D01*
X54305238Y-144536667D01*
X54210000Y-144441429D01*
X54162381Y-144298571D01*
X54162381Y-144203333D01*
X54210000Y-144060476D01*
X54257619Y-144012857D01*
X54257619Y-143631905D02*
X54210000Y-143584286D01*
X54162381Y-143489048D01*
X54162381Y-143250952D01*
X54210000Y-143155714D01*
X54257619Y-143108095D01*
X54352857Y-143060476D01*
X54448095Y-143060476D01*
X54590952Y-143108095D01*
X55162381Y-143679524D01*
X55162381Y-143060476D01*
X54162381Y-142203333D02*
X54162381Y-142393810D01*
X54210000Y-142489048D01*
X54257619Y-142536667D01*
X54400476Y-142631905D01*
X54590952Y-142679524D01*
X54971905Y-142679524D01*
X55067143Y-142631905D01*
X55114762Y-142584286D01*
X55162381Y-142489048D01*
X55162381Y-142298571D01*
X55114762Y-142203333D01*
X55067143Y-142155714D01*
X54971905Y-142108095D01*
X54733810Y-142108095D01*
X54638571Y-142155714D01*
X54590952Y-142203333D01*
X54543333Y-142298571D01*
X54543333Y-142489048D01*
X54590952Y-142584286D01*
X54638571Y-142631905D01*
X54733810Y-142679524D01*
X71572381Y-108688095D02*
X70572381Y-108688095D01*
X70572381Y-108450000D01*
X70620000Y-108307142D01*
X70715238Y-108211904D01*
X70810476Y-108164285D01*
X71000952Y-108116666D01*
X71143810Y-108116666D01*
X71334286Y-108164285D01*
X71429524Y-108211904D01*
X71524762Y-108307142D01*
X71572381Y-108450000D01*
X71572381Y-108688095D01*
X71572381Y-107164285D02*
X71572381Y-107735714D01*
X71572381Y-107450000D02*
X70572381Y-107450000D01*
X70715238Y-107545238D01*
X70810476Y-107640476D01*
X70858095Y-107735714D01*
X123642381Y-162318095D02*
X122642381Y-162318095D01*
X122642381Y-162080000D01*
X122690000Y-161937142D01*
X122785238Y-161841904D01*
X122880476Y-161794285D01*
X123070952Y-161746666D01*
X123213810Y-161746666D01*
X123404286Y-161794285D01*
X123499524Y-161841904D01*
X123594762Y-161937142D01*
X123642381Y-162080000D01*
X123642381Y-162318095D01*
X122737619Y-161365714D02*
X122690000Y-161318095D01*
X122642381Y-161222857D01*
X122642381Y-160984761D01*
X122690000Y-160889523D01*
X122737619Y-160841904D01*
X122832857Y-160794285D01*
X122928095Y-160794285D01*
X123070952Y-160841904D01*
X123642381Y-161413333D01*
X123642381Y-160794285D01*
X119832381Y-162282095D02*
X118832381Y-162282095D01*
X118832381Y-162044000D01*
X118880000Y-161901142D01*
X118975238Y-161805904D01*
X119070476Y-161758285D01*
X119260952Y-161710666D01*
X119403810Y-161710666D01*
X119594286Y-161758285D01*
X119689524Y-161805904D01*
X119784762Y-161901142D01*
X119832381Y-162044000D01*
X119832381Y-162282095D01*
X118832381Y-161377333D02*
X118832381Y-160758285D01*
X119213333Y-161091619D01*
X119213333Y-160948761D01*
X119260952Y-160853523D01*
X119308571Y-160805904D01*
X119403810Y-160758285D01*
X119641905Y-160758285D01*
X119737143Y-160805904D01*
X119784762Y-160853523D01*
X119832381Y-160948761D01*
X119832381Y-161234476D01*
X119784762Y-161329714D01*
X119737143Y-161377333D01*
X116022381Y-162282095D02*
X115022381Y-162282095D01*
X115022381Y-162044000D01*
X115070000Y-161901142D01*
X115165238Y-161805904D01*
X115260476Y-161758285D01*
X115450952Y-161710666D01*
X115593810Y-161710666D01*
X115784286Y-161758285D01*
X115879524Y-161805904D01*
X115974762Y-161901142D01*
X116022381Y-162044000D01*
X116022381Y-162282095D01*
X115355714Y-160853523D02*
X116022381Y-160853523D01*
X114974762Y-161091619D02*
X115689048Y-161329714D01*
X115689048Y-160710666D01*
X69619905Y-122880381D02*
X69619905Y-121880381D01*
X69858000Y-121880381D01*
X70000858Y-121928000D01*
X70096096Y-122023238D01*
X70143715Y-122118476D01*
X70191334Y-122308952D01*
X70191334Y-122451810D01*
X70143715Y-122642286D01*
X70096096Y-122737524D01*
X70000858Y-122832762D01*
X69858000Y-122880381D01*
X69619905Y-122880381D01*
X71096096Y-121880381D02*
X70619905Y-121880381D01*
X70572286Y-122356571D01*
X70619905Y-122308952D01*
X70715143Y-122261333D01*
X70953239Y-122261333D01*
X71048477Y-122308952D01*
X71096096Y-122356571D01*
X71143715Y-122451810D01*
X71143715Y-122689905D01*
X71096096Y-122785143D01*
X71048477Y-122832762D01*
X70953239Y-122880381D01*
X70715143Y-122880381D01*
X70619905Y-122832762D01*
X70572286Y-122785143D01*
X62253905Y-131008381D02*
X62253905Y-130008381D01*
X62492000Y-130008381D01*
X62634858Y-130056000D01*
X62730096Y-130151238D01*
X62777715Y-130246476D01*
X62825334Y-130436952D01*
X62825334Y-130579810D01*
X62777715Y-130770286D01*
X62730096Y-130865524D01*
X62634858Y-130960762D01*
X62492000Y-131008381D01*
X62253905Y-131008381D01*
X63682477Y-130008381D02*
X63492000Y-130008381D01*
X63396762Y-130056000D01*
X63349143Y-130103619D01*
X63253905Y-130246476D01*
X63206286Y-130436952D01*
X63206286Y-130817905D01*
X63253905Y-130913143D01*
X63301524Y-130960762D01*
X63396762Y-131008381D01*
X63587239Y-131008381D01*
X63682477Y-130960762D01*
X63730096Y-130913143D01*
X63777715Y-130817905D01*
X63777715Y-130579810D01*
X63730096Y-130484571D01*
X63682477Y-130436952D01*
X63587239Y-130389333D01*
X63396762Y-130389333D01*
X63301524Y-130436952D01*
X63253905Y-130484571D01*
X63206286Y-130579810D01*
X69619905Y-134818381D02*
X69619905Y-133818381D01*
X69858000Y-133818381D01*
X70000858Y-133866000D01*
X70096096Y-133961238D01*
X70143715Y-134056476D01*
X70191334Y-134246952D01*
X70191334Y-134389810D01*
X70143715Y-134580286D01*
X70096096Y-134675524D01*
X70000858Y-134770762D01*
X69858000Y-134818381D01*
X69619905Y-134818381D01*
X70524667Y-133818381D02*
X71191334Y-133818381D01*
X70762762Y-134818381D01*
X62253905Y-142438381D02*
X62253905Y-141438381D01*
X62492000Y-141438381D01*
X62634858Y-141486000D01*
X62730096Y-141581238D01*
X62777715Y-141676476D01*
X62825334Y-141866952D01*
X62825334Y-142009810D01*
X62777715Y-142200286D01*
X62730096Y-142295524D01*
X62634858Y-142390762D01*
X62492000Y-142438381D01*
X62253905Y-142438381D01*
X63396762Y-141866952D02*
X63301524Y-141819333D01*
X63253905Y-141771714D01*
X63206286Y-141676476D01*
X63206286Y-141628857D01*
X63253905Y-141533619D01*
X63301524Y-141486000D01*
X63396762Y-141438381D01*
X63587239Y-141438381D01*
X63682477Y-141486000D01*
X63730096Y-141533619D01*
X63777715Y-141628857D01*
X63777715Y-141676476D01*
X63730096Y-141771714D01*
X63682477Y-141819333D01*
X63587239Y-141866952D01*
X63396762Y-141866952D01*
X63301524Y-141914571D01*
X63253905Y-141962190D01*
X63206286Y-142057429D01*
X63206286Y-142247905D01*
X63253905Y-142343143D01*
X63301524Y-142390762D01*
X63396762Y-142438381D01*
X63587239Y-142438381D01*
X63682477Y-142390762D01*
X63730096Y-142343143D01*
X63777715Y-142247905D01*
X63777715Y-142057429D01*
X63730096Y-141962190D01*
X63682477Y-141914571D01*
X63587239Y-141866952D01*
X107894381Y-162758286D02*
X106894381Y-162758286D01*
X106894381Y-162520191D01*
X106942000Y-162377333D01*
X107037238Y-162282095D01*
X107132476Y-162234476D01*
X107322952Y-162186857D01*
X107465810Y-162186857D01*
X107656286Y-162234476D01*
X107751524Y-162282095D01*
X107846762Y-162377333D01*
X107894381Y-162520191D01*
X107894381Y-162758286D01*
X107894381Y-161234476D02*
X107894381Y-161805905D01*
X107894381Y-161520191D02*
X106894381Y-161520191D01*
X107037238Y-161615429D01*
X107132476Y-161710667D01*
X107180095Y-161805905D01*
X106894381Y-160615429D02*
X106894381Y-160520190D01*
X106942000Y-160424952D01*
X106989619Y-160377333D01*
X107084857Y-160329714D01*
X107275333Y-160282095D01*
X107513429Y-160282095D01*
X107703905Y-160329714D01*
X107799143Y-160377333D01*
X107846762Y-160424952D01*
X107894381Y-160520190D01*
X107894381Y-160615429D01*
X107846762Y-160710667D01*
X107799143Y-160758286D01*
X107703905Y-160805905D01*
X107513429Y-160853524D01*
X107275333Y-160853524D01*
X107084857Y-160805905D01*
X106989619Y-160758286D01*
X106942000Y-160710667D01*
X106894381Y-160615429D01*
X111958381Y-162758286D02*
X110958381Y-162758286D01*
X110958381Y-162520191D01*
X111006000Y-162377333D01*
X111101238Y-162282095D01*
X111196476Y-162234476D01*
X111386952Y-162186857D01*
X111529810Y-162186857D01*
X111720286Y-162234476D01*
X111815524Y-162282095D01*
X111910762Y-162377333D01*
X111958381Y-162520191D01*
X111958381Y-162758286D01*
X111958381Y-161234476D02*
X111958381Y-161805905D01*
X111958381Y-161520191D02*
X110958381Y-161520191D01*
X111101238Y-161615429D01*
X111196476Y-161710667D01*
X111244095Y-161805905D01*
X111958381Y-160282095D02*
X111958381Y-160853524D01*
X111958381Y-160567810D02*
X110958381Y-160567810D01*
X111101238Y-160663048D01*
X111196476Y-160758286D01*
X111244095Y-160853524D01*
X51485714Y-155352381D02*
X51485714Y-154352381D01*
X51723809Y-154352381D01*
X51866667Y-154400000D01*
X51961905Y-154495238D01*
X52009524Y-154590476D01*
X52057143Y-154780952D01*
X52057143Y-154923810D01*
X52009524Y-155114286D01*
X51961905Y-155209524D01*
X51866667Y-155304762D01*
X51723809Y-155352381D01*
X51485714Y-155352381D01*
X53009524Y-155352381D02*
X52438095Y-155352381D01*
X52723809Y-155352381D02*
X52723809Y-154352381D01*
X52628571Y-154495238D01*
X52533333Y-154590476D01*
X52438095Y-154638095D01*
X53342857Y-154352381D02*
X53961905Y-154352381D01*
X53628571Y-154733333D01*
X53771429Y-154733333D01*
X53866667Y-154780952D01*
X53914286Y-154828571D01*
X53961905Y-154923810D01*
X53961905Y-155161905D01*
X53914286Y-155257143D01*
X53866667Y-155304762D01*
X53771429Y-155352381D01*
X53485714Y-155352381D01*
X53390476Y-155304762D01*
X53342857Y-155257143D01*
X43075714Y-161602381D02*
X43075714Y-160602381D01*
X43313809Y-160602381D01*
X43456667Y-160650000D01*
X43551905Y-160745238D01*
X43599524Y-160840476D01*
X43647143Y-161030952D01*
X43647143Y-161173810D01*
X43599524Y-161364286D01*
X43551905Y-161459524D01*
X43456667Y-161554762D01*
X43313809Y-161602381D01*
X43075714Y-161602381D01*
X44599524Y-161602381D02*
X44028095Y-161602381D01*
X44313809Y-161602381D02*
X44313809Y-160602381D01*
X44218571Y-160745238D01*
X44123333Y-160840476D01*
X44028095Y-160888095D01*
X45456667Y-160935714D02*
X45456667Y-161602381D01*
X45218571Y-160554762D02*
X44980476Y-161269048D01*
X45599524Y-161269048D01*
X122134667Y-125492381D02*
X122134667Y-126206667D01*
X122087047Y-126349524D01*
X121991809Y-126444762D01*
X121848952Y-126492381D01*
X121753714Y-126492381D01*
X122563238Y-125587619D02*
X122610857Y-125540000D01*
X122706095Y-125492381D01*
X122944191Y-125492381D01*
X123039429Y-125540000D01*
X123087048Y-125587619D01*
X123134667Y-125682857D01*
X123134667Y-125778095D01*
X123087048Y-125920952D01*
X122515619Y-126492381D01*
X123134667Y-126492381D01*
X32726667Y-115412381D02*
X32726667Y-116126667D01*
X32679047Y-116269524D01*
X32583809Y-116364762D01*
X32440952Y-116412381D01*
X32345714Y-116412381D01*
X33107619Y-115412381D02*
X33726667Y-115412381D01*
X33393333Y-115793333D01*
X33536191Y-115793333D01*
X33631429Y-115840952D01*
X33679048Y-115888571D01*
X33726667Y-115983810D01*
X33726667Y-116221905D01*
X33679048Y-116317143D01*
X33631429Y-116364762D01*
X33536191Y-116412381D01*
X33250476Y-116412381D01*
X33155238Y-116364762D01*
X33107619Y-116317143D01*
X122134667Y-103648381D02*
X122134667Y-104362667D01*
X122087047Y-104505524D01*
X121991809Y-104600762D01*
X121848952Y-104648381D01*
X121753714Y-104648381D01*
X123039429Y-103981714D02*
X123039429Y-104648381D01*
X122801333Y-103600762D02*
X122563238Y-104315048D01*
X123182286Y-104315048D01*
X40666667Y-138452381D02*
X40666667Y-139166667D01*
X40619047Y-139309524D01*
X40523809Y-139404762D01*
X40380952Y-139452381D01*
X40285714Y-139452381D01*
X41619048Y-138452381D02*
X41142857Y-138452381D01*
X41095238Y-138928571D01*
X41142857Y-138880952D01*
X41238095Y-138833333D01*
X41476191Y-138833333D01*
X41571429Y-138880952D01*
X41619048Y-138928571D01*
X41666667Y-139023810D01*
X41666667Y-139261905D01*
X41619048Y-139357143D01*
X41571429Y-139404762D01*
X41476191Y-139452381D01*
X41238095Y-139452381D01*
X41142857Y-139404762D01*
X41095238Y-139357143D01*
X59633334Y-167352381D02*
X59157143Y-167352381D01*
X59157143Y-166352381D01*
X60490477Y-167352381D02*
X59919048Y-167352381D01*
X60204762Y-167352381D02*
X60204762Y-166352381D01*
X60109524Y-166495238D01*
X60014286Y-166590476D01*
X59919048Y-166638095D01*
X123348762Y-154725619D02*
X123253524Y-154678000D01*
X123158286Y-154582762D01*
X123015429Y-154439905D01*
X122920190Y-154392286D01*
X122824952Y-154392286D01*
X122872571Y-154630381D02*
X122777333Y-154582762D01*
X122682095Y-154487524D01*
X122634476Y-154297048D01*
X122634476Y-153963714D01*
X122682095Y-153773238D01*
X122777333Y-153678000D01*
X122872571Y-153630381D01*
X123063048Y-153630381D01*
X123158286Y-153678000D01*
X123253524Y-153773238D01*
X123301143Y-153963714D01*
X123301143Y-154297048D01*
X123253524Y-154487524D01*
X123158286Y-154582762D01*
X123063048Y-154630381D01*
X122872571Y-154630381D01*
X124253524Y-154630381D02*
X123682095Y-154630381D01*
X123967809Y-154630381D02*
X123967809Y-153630381D01*
X123872571Y-153773238D01*
X123777333Y-153868476D01*
X123682095Y-153916095D01*
X117440762Y-152325619D02*
X117345524Y-152278000D01*
X117250286Y-152182762D01*
X117107429Y-152039905D01*
X117012190Y-151992286D01*
X116916952Y-151992286D01*
X116964571Y-152230381D02*
X116869333Y-152182762D01*
X116774095Y-152087524D01*
X116726476Y-151897048D01*
X116726476Y-151563714D01*
X116774095Y-151373238D01*
X116869333Y-151278000D01*
X116964571Y-151230381D01*
X117155048Y-151230381D01*
X117250286Y-151278000D01*
X117345524Y-151373238D01*
X117393143Y-151563714D01*
X117393143Y-151897048D01*
X117345524Y-152087524D01*
X117250286Y-152182762D01*
X117155048Y-152230381D01*
X116964571Y-152230381D01*
X117774095Y-151325619D02*
X117821714Y-151278000D01*
X117916952Y-151230381D01*
X118155048Y-151230381D01*
X118250286Y-151278000D01*
X118297905Y-151325619D01*
X118345524Y-151420857D01*
X118345524Y-151516095D01*
X118297905Y-151658952D01*
X117726476Y-152230381D01*
X118345524Y-152230381D01*
X115474762Y-155233619D02*
X115379524Y-155186000D01*
X115284286Y-155090762D01*
X115141429Y-154947905D01*
X115046190Y-154900286D01*
X114950952Y-154900286D01*
X114998571Y-155138381D02*
X114903333Y-155090762D01*
X114808095Y-154995524D01*
X114760476Y-154805048D01*
X114760476Y-154471714D01*
X114808095Y-154281238D01*
X114903333Y-154186000D01*
X114998571Y-154138381D01*
X115189048Y-154138381D01*
X115284286Y-154186000D01*
X115379524Y-154281238D01*
X115427143Y-154471714D01*
X115427143Y-154805048D01*
X115379524Y-154995524D01*
X115284286Y-155090762D01*
X115189048Y-155138381D01*
X114998571Y-155138381D01*
X115760476Y-154138381D02*
X116379524Y-154138381D01*
X116046190Y-154519333D01*
X116189048Y-154519333D01*
X116284286Y-154566952D01*
X116331905Y-154614571D01*
X116379524Y-154709810D01*
X116379524Y-154947905D01*
X116331905Y-155043143D01*
X116284286Y-155090762D01*
X116189048Y-155138381D01*
X115903333Y-155138381D01*
X115808095Y-155090762D01*
X115760476Y-155043143D01*
X70304762Y-127447619D02*
X70209524Y-127400000D01*
X70114286Y-127304762D01*
X69971429Y-127161905D01*
X69876190Y-127114286D01*
X69780952Y-127114286D01*
X69828571Y-127352381D02*
X69733333Y-127304762D01*
X69638095Y-127209524D01*
X69590476Y-127019048D01*
X69590476Y-126685714D01*
X69638095Y-126495238D01*
X69733333Y-126400000D01*
X69828571Y-126352381D01*
X70019048Y-126352381D01*
X70114286Y-126400000D01*
X70209524Y-126495238D01*
X70257143Y-126685714D01*
X70257143Y-127019048D01*
X70209524Y-127209524D01*
X70114286Y-127304762D01*
X70019048Y-127352381D01*
X69828571Y-127352381D01*
X71114286Y-126685714D02*
X71114286Y-127352381D01*
X70876190Y-126304762D02*
X70638095Y-127019048D01*
X71257143Y-127019048D01*
X70204762Y-138947619D02*
X70109524Y-138900000D01*
X70014286Y-138804762D01*
X69871429Y-138661905D01*
X69776190Y-138614286D01*
X69680952Y-138614286D01*
X69728571Y-138852381D02*
X69633333Y-138804762D01*
X69538095Y-138709524D01*
X69490476Y-138519048D01*
X69490476Y-138185714D01*
X69538095Y-137995238D01*
X69633333Y-137900000D01*
X69728571Y-137852381D01*
X69919048Y-137852381D01*
X70014286Y-137900000D01*
X70109524Y-137995238D01*
X70157143Y-138185714D01*
X70157143Y-138519048D01*
X70109524Y-138709524D01*
X70014286Y-138804762D01*
X69919048Y-138852381D01*
X69728571Y-138852381D01*
X71061905Y-137852381D02*
X70585714Y-137852381D01*
X70538095Y-138328571D01*
X70585714Y-138280952D01*
X70680952Y-138233333D01*
X70919048Y-138233333D01*
X71014286Y-138280952D01*
X71061905Y-138328571D01*
X71109524Y-138423810D01*
X71109524Y-138661905D01*
X71061905Y-138757143D01*
X71014286Y-138804762D01*
X70919048Y-138852381D01*
X70680952Y-138852381D01*
X70585714Y-138804762D01*
X70538095Y-138757143D01*
X119152381Y-133166666D02*
X118676190Y-133500000D01*
X119152381Y-133738095D02*
X118152381Y-133738095D01*
X118152381Y-133357142D01*
X118200000Y-133261904D01*
X118247619Y-133214285D01*
X118342857Y-133166666D01*
X118485714Y-133166666D01*
X118580952Y-133214285D01*
X118628571Y-133261904D01*
X118676190Y-133357142D01*
X118676190Y-133738095D01*
X119152381Y-132214285D02*
X119152381Y-132785714D01*
X119152381Y-132500000D02*
X118152381Y-132500000D01*
X118295238Y-132595238D01*
X118390476Y-132690476D01*
X118438095Y-132785714D01*
X119252381Y-142866666D02*
X118776190Y-143200000D01*
X119252381Y-143438095D02*
X118252381Y-143438095D01*
X118252381Y-143057142D01*
X118300000Y-142961904D01*
X118347619Y-142914285D01*
X118442857Y-142866666D01*
X118585714Y-142866666D01*
X118680952Y-142914285D01*
X118728571Y-142961904D01*
X118776190Y-143057142D01*
X118776190Y-143438095D01*
X118252381Y-142533333D02*
X118252381Y-141914285D01*
X118633333Y-142247619D01*
X118633333Y-142104761D01*
X118680952Y-142009523D01*
X118728571Y-141961904D01*
X118823810Y-141914285D01*
X119061905Y-141914285D01*
X119157143Y-141961904D01*
X119204762Y-142009523D01*
X119252381Y-142104761D01*
X119252381Y-142390476D01*
X119204762Y-142485714D01*
X119157143Y-142533333D01*
X67762381Y-115482666D02*
X67286190Y-115816000D01*
X67762381Y-116054095D02*
X66762381Y-116054095D01*
X66762381Y-115673142D01*
X66810000Y-115577904D01*
X66857619Y-115530285D01*
X66952857Y-115482666D01*
X67095714Y-115482666D01*
X67190952Y-115530285D01*
X67238571Y-115577904D01*
X67286190Y-115673142D01*
X67286190Y-116054095D01*
X66762381Y-114577904D02*
X66762381Y-115054095D01*
X67238571Y-115101714D01*
X67190952Y-115054095D01*
X67143333Y-114958857D01*
X67143333Y-114720761D01*
X67190952Y-114625523D01*
X67238571Y-114577904D01*
X67333810Y-114530285D01*
X67571905Y-114530285D01*
X67667143Y-114577904D01*
X67714762Y-114625523D01*
X67762381Y-114720761D01*
X67762381Y-114958857D01*
X67714762Y-115054095D01*
X67667143Y-115101714D01*
X81433334Y-114352381D02*
X81100000Y-113876190D01*
X80861905Y-114352381D02*
X80861905Y-113352381D01*
X81242858Y-113352381D01*
X81338096Y-113400000D01*
X81385715Y-113447619D01*
X81433334Y-113542857D01*
X81433334Y-113685714D01*
X81385715Y-113780952D01*
X81338096Y-113828571D01*
X81242858Y-113876190D01*
X80861905Y-113876190D01*
X82290477Y-113352381D02*
X82100000Y-113352381D01*
X82004762Y-113400000D01*
X81957143Y-113447619D01*
X81861905Y-113590476D01*
X81814286Y-113780952D01*
X81814286Y-114161905D01*
X81861905Y-114257143D01*
X81909524Y-114304762D01*
X82004762Y-114352381D01*
X82195239Y-114352381D01*
X82290477Y-114304762D01*
X82338096Y-114257143D01*
X82385715Y-114161905D01*
X82385715Y-113923810D01*
X82338096Y-113828571D01*
X82290477Y-113780952D01*
X82195239Y-113733333D01*
X82004762Y-113733333D01*
X81909524Y-113780952D01*
X81861905Y-113828571D01*
X81814286Y-113923810D01*
X104133334Y-135052381D02*
X103800000Y-134576190D01*
X103561905Y-135052381D02*
X103561905Y-134052381D01*
X103942858Y-134052381D01*
X104038096Y-134100000D01*
X104085715Y-134147619D01*
X104133334Y-134242857D01*
X104133334Y-134385714D01*
X104085715Y-134480952D01*
X104038096Y-134528571D01*
X103942858Y-134576190D01*
X103561905Y-134576190D01*
X104466667Y-134052381D02*
X105133334Y-134052381D01*
X104704762Y-135052381D01*
X104133334Y-137152381D02*
X103800000Y-136676190D01*
X103561905Y-137152381D02*
X103561905Y-136152381D01*
X103942858Y-136152381D01*
X104038096Y-136200000D01*
X104085715Y-136247619D01*
X104133334Y-136342857D01*
X104133334Y-136485714D01*
X104085715Y-136580952D01*
X104038096Y-136628571D01*
X103942858Y-136676190D01*
X103561905Y-136676190D01*
X104704762Y-136580952D02*
X104609524Y-136533333D01*
X104561905Y-136485714D01*
X104514286Y-136390476D01*
X104514286Y-136342857D01*
X104561905Y-136247619D01*
X104609524Y-136200000D01*
X104704762Y-136152381D01*
X104895239Y-136152381D01*
X104990477Y-136200000D01*
X105038096Y-136247619D01*
X105085715Y-136342857D01*
X105085715Y-136390476D01*
X105038096Y-136485714D01*
X104990477Y-136533333D01*
X104895239Y-136580952D01*
X104704762Y-136580952D01*
X104609524Y-136628571D01*
X104561905Y-136676190D01*
X104514286Y-136771429D01*
X104514286Y-136961905D01*
X104561905Y-137057143D01*
X104609524Y-137104762D01*
X104704762Y-137152381D01*
X104895239Y-137152381D01*
X104990477Y-137104762D01*
X105038096Y-137057143D01*
X105085715Y-136961905D01*
X105085715Y-136771429D01*
X105038096Y-136676190D01*
X104990477Y-136628571D01*
X104895239Y-136580952D01*
X104133334Y-139252381D02*
X103800000Y-138776190D01*
X103561905Y-139252381D02*
X103561905Y-138252381D01*
X103942858Y-138252381D01*
X104038096Y-138300000D01*
X104085715Y-138347619D01*
X104133334Y-138442857D01*
X104133334Y-138585714D01*
X104085715Y-138680952D01*
X104038096Y-138728571D01*
X103942858Y-138776190D01*
X103561905Y-138776190D01*
X104609524Y-139252381D02*
X104800000Y-139252381D01*
X104895239Y-139204762D01*
X104942858Y-139157143D01*
X105038096Y-139014286D01*
X105085715Y-138823810D01*
X105085715Y-138442857D01*
X105038096Y-138347619D01*
X104990477Y-138300000D01*
X104895239Y-138252381D01*
X104704762Y-138252381D01*
X104609524Y-138300000D01*
X104561905Y-138347619D01*
X104514286Y-138442857D01*
X104514286Y-138680952D01*
X104561905Y-138776190D01*
X104609524Y-138823810D01*
X104704762Y-138871429D01*
X104895239Y-138871429D01*
X104990477Y-138823810D01*
X105038096Y-138776190D01*
X105085715Y-138680952D01*
X45966143Y-117673381D02*
X45632809Y-117197190D01*
X45394714Y-117673381D02*
X45394714Y-116673381D01*
X45775667Y-116673381D01*
X45870905Y-116721000D01*
X45918524Y-116768619D01*
X45966143Y-116863857D01*
X45966143Y-117006714D01*
X45918524Y-117101952D01*
X45870905Y-117149571D01*
X45775667Y-117197190D01*
X45394714Y-117197190D01*
X46918524Y-117673381D02*
X46347095Y-117673381D01*
X46632809Y-117673381D02*
X46632809Y-116673381D01*
X46537571Y-116816238D01*
X46442333Y-116911476D01*
X46347095Y-116959095D01*
X47537571Y-116673381D02*
X47632810Y-116673381D01*
X47728048Y-116721000D01*
X47775667Y-116768619D01*
X47823286Y-116863857D01*
X47870905Y-117054333D01*
X47870905Y-117292429D01*
X47823286Y-117482905D01*
X47775667Y-117578143D01*
X47728048Y-117625762D01*
X47632810Y-117673381D01*
X47537571Y-117673381D01*
X47442333Y-117625762D01*
X47394714Y-117578143D01*
X47347095Y-117482905D01*
X47299476Y-117292429D01*
X47299476Y-117054333D01*
X47347095Y-116863857D01*
X47394714Y-116768619D01*
X47442333Y-116721000D01*
X47537571Y-116673381D01*
X100027143Y-134002381D02*
X99693809Y-133526190D01*
X99455714Y-134002381D02*
X99455714Y-133002381D01*
X99836667Y-133002381D01*
X99931905Y-133050000D01*
X99979524Y-133097619D01*
X100027143Y-133192857D01*
X100027143Y-133335714D01*
X99979524Y-133430952D01*
X99931905Y-133478571D01*
X99836667Y-133526190D01*
X99455714Y-133526190D01*
X100979524Y-134002381D02*
X100408095Y-134002381D01*
X100693809Y-134002381D02*
X100693809Y-133002381D01*
X100598571Y-133145238D01*
X100503333Y-133240476D01*
X100408095Y-133288095D01*
X101931905Y-134002381D02*
X101360476Y-134002381D01*
X101646190Y-134002381D02*
X101646190Y-133002381D01*
X101550952Y-133145238D01*
X101455714Y-133240476D01*
X101360476Y-133288095D01*
X100027143Y-136034381D02*
X99693809Y-135558190D01*
X99455714Y-136034381D02*
X99455714Y-135034381D01*
X99836667Y-135034381D01*
X99931905Y-135082000D01*
X99979524Y-135129619D01*
X100027143Y-135224857D01*
X100027143Y-135367714D01*
X99979524Y-135462952D01*
X99931905Y-135510571D01*
X99836667Y-135558190D01*
X99455714Y-135558190D01*
X100979524Y-136034381D02*
X100408095Y-136034381D01*
X100693809Y-136034381D02*
X100693809Y-135034381D01*
X100598571Y-135177238D01*
X100503333Y-135272476D01*
X100408095Y-135320095D01*
X101360476Y-135129619D02*
X101408095Y-135082000D01*
X101503333Y-135034381D01*
X101741429Y-135034381D01*
X101836667Y-135082000D01*
X101884286Y-135129619D01*
X101931905Y-135224857D01*
X101931905Y-135320095D01*
X101884286Y-135462952D01*
X101312857Y-136034381D01*
X101931905Y-136034381D01*
X93981143Y-157220381D02*
X93647809Y-156744190D01*
X93409714Y-157220381D02*
X93409714Y-156220381D01*
X93790667Y-156220381D01*
X93885905Y-156268000D01*
X93933524Y-156315619D01*
X93981143Y-156410857D01*
X93981143Y-156553714D01*
X93933524Y-156648952D01*
X93885905Y-156696571D01*
X93790667Y-156744190D01*
X93409714Y-156744190D01*
X94933524Y-157220381D02*
X94362095Y-157220381D01*
X94647809Y-157220381D02*
X94647809Y-156220381D01*
X94552571Y-156363238D01*
X94457333Y-156458476D01*
X94362095Y-156506095D01*
X95266857Y-156220381D02*
X95885905Y-156220381D01*
X95552571Y-156601333D01*
X95695429Y-156601333D01*
X95790667Y-156648952D01*
X95838286Y-156696571D01*
X95885905Y-156791810D01*
X95885905Y-157029905D01*
X95838286Y-157125143D01*
X95790667Y-157172762D01*
X95695429Y-157220381D01*
X95409714Y-157220381D01*
X95314476Y-157172762D01*
X95266857Y-157125143D01*
X106799143Y-142946381D02*
X106465809Y-142470190D01*
X106227714Y-142946381D02*
X106227714Y-141946381D01*
X106608667Y-141946381D01*
X106703905Y-141994000D01*
X106751524Y-142041619D01*
X106799143Y-142136857D01*
X106799143Y-142279714D01*
X106751524Y-142374952D01*
X106703905Y-142422571D01*
X106608667Y-142470190D01*
X106227714Y-142470190D01*
X107751524Y-142946381D02*
X107180095Y-142946381D01*
X107465809Y-142946381D02*
X107465809Y-141946381D01*
X107370571Y-142089238D01*
X107275333Y-142184476D01*
X107180095Y-142232095D01*
X108608667Y-142279714D02*
X108608667Y-142946381D01*
X108370571Y-141898762D02*
X108132476Y-142613048D01*
X108751524Y-142613048D01*
X41727381Y-114688857D02*
X41251190Y-115022191D01*
X41727381Y-115260286D02*
X40727381Y-115260286D01*
X40727381Y-114879333D01*
X40775000Y-114784095D01*
X40822619Y-114736476D01*
X40917857Y-114688857D01*
X41060714Y-114688857D01*
X41155952Y-114736476D01*
X41203571Y-114784095D01*
X41251190Y-114879333D01*
X41251190Y-115260286D01*
X41727381Y-113736476D02*
X41727381Y-114307905D01*
X41727381Y-114022191D02*
X40727381Y-114022191D01*
X40870238Y-114117429D01*
X40965476Y-114212667D01*
X41013095Y-114307905D01*
X40727381Y-112831714D02*
X40727381Y-113307905D01*
X41203571Y-113355524D01*
X41155952Y-113307905D01*
X41108333Y-113212667D01*
X41108333Y-112974571D01*
X41155952Y-112879333D01*
X41203571Y-112831714D01*
X41298810Y-112784095D01*
X41536905Y-112784095D01*
X41632143Y-112831714D01*
X41679762Y-112879333D01*
X41727381Y-112974571D01*
X41727381Y-113212667D01*
X41679762Y-113307905D01*
X41632143Y-113355524D01*
X104749143Y-121506381D02*
X104415809Y-121030190D01*
X104177714Y-121506381D02*
X104177714Y-120506381D01*
X104558667Y-120506381D01*
X104653905Y-120554000D01*
X104701524Y-120601619D01*
X104749143Y-120696857D01*
X104749143Y-120839714D01*
X104701524Y-120934952D01*
X104653905Y-120982571D01*
X104558667Y-121030190D01*
X104177714Y-121030190D01*
X105701524Y-121506381D02*
X105130095Y-121506381D01*
X105415809Y-121506381D02*
X105415809Y-120506381D01*
X105320571Y-120649238D01*
X105225333Y-120744476D01*
X105130095Y-120792095D01*
X106558667Y-120506381D02*
X106368190Y-120506381D01*
X106272952Y-120554000D01*
X106225333Y-120601619D01*
X106130095Y-120744476D01*
X106082476Y-120934952D01*
X106082476Y-121315905D01*
X106130095Y-121411143D01*
X106177714Y-121458762D01*
X106272952Y-121506381D01*
X106463429Y-121506381D01*
X106558667Y-121458762D01*
X106606286Y-121411143D01*
X106653905Y-121315905D01*
X106653905Y-121077810D01*
X106606286Y-120982571D01*
X106558667Y-120934952D01*
X106463429Y-120887333D01*
X106272952Y-120887333D01*
X106177714Y-120934952D01*
X106130095Y-120982571D01*
X106082476Y-121077810D01*
X106037143Y-147518381D02*
X105703809Y-147042190D01*
X105465714Y-147518381D02*
X105465714Y-146518381D01*
X105846667Y-146518381D01*
X105941905Y-146566000D01*
X105989524Y-146613619D01*
X106037143Y-146708857D01*
X106037143Y-146851714D01*
X105989524Y-146946952D01*
X105941905Y-146994571D01*
X105846667Y-147042190D01*
X105465714Y-147042190D01*
X106989524Y-147518381D02*
X106418095Y-147518381D01*
X106703809Y-147518381D02*
X106703809Y-146518381D01*
X106608571Y-146661238D01*
X106513333Y-146756476D01*
X106418095Y-146804095D01*
X107322857Y-146518381D02*
X107989524Y-146518381D01*
X107560952Y-147518381D01*
X123642381Y-157868857D02*
X123166190Y-158202191D01*
X123642381Y-158440286D02*
X122642381Y-158440286D01*
X122642381Y-158059333D01*
X122690000Y-157964095D01*
X122737619Y-157916476D01*
X122832857Y-157868857D01*
X122975714Y-157868857D01*
X123070952Y-157916476D01*
X123118571Y-157964095D01*
X123166190Y-158059333D01*
X123166190Y-158440286D01*
X123642381Y-156916476D02*
X123642381Y-157487905D01*
X123642381Y-157202191D02*
X122642381Y-157202191D01*
X122785238Y-157297429D01*
X122880476Y-157392667D01*
X122928095Y-157487905D01*
X123642381Y-156440286D02*
X123642381Y-156249810D01*
X123594762Y-156154571D01*
X123547143Y-156106952D01*
X123404286Y-156011714D01*
X123213810Y-155964095D01*
X122832857Y-155964095D01*
X122737619Y-156011714D01*
X122690000Y-156059333D01*
X122642381Y-156154571D01*
X122642381Y-156345048D01*
X122690000Y-156440286D01*
X122737619Y-156487905D01*
X122832857Y-156535524D01*
X123070952Y-156535524D01*
X123166190Y-156487905D01*
X123213810Y-156440286D01*
X123261429Y-156345048D01*
X123261429Y-156154571D01*
X123213810Y-156059333D01*
X123166190Y-156011714D01*
X123070952Y-155964095D01*
X119832381Y-157868857D02*
X119356190Y-158202191D01*
X119832381Y-158440286D02*
X118832381Y-158440286D01*
X118832381Y-158059333D01*
X118880000Y-157964095D01*
X118927619Y-157916476D01*
X119022857Y-157868857D01*
X119165714Y-157868857D01*
X119260952Y-157916476D01*
X119308571Y-157964095D01*
X119356190Y-158059333D01*
X119356190Y-158440286D01*
X118927619Y-157487905D02*
X118880000Y-157440286D01*
X118832381Y-157345048D01*
X118832381Y-157106952D01*
X118880000Y-157011714D01*
X118927619Y-156964095D01*
X119022857Y-156916476D01*
X119118095Y-156916476D01*
X119260952Y-156964095D01*
X119832381Y-157535524D01*
X119832381Y-156916476D01*
X118832381Y-156297429D02*
X118832381Y-156202190D01*
X118880000Y-156106952D01*
X118927619Y-156059333D01*
X119022857Y-156011714D01*
X119213333Y-155964095D01*
X119451429Y-155964095D01*
X119641905Y-156011714D01*
X119737143Y-156059333D01*
X119784762Y-156106952D01*
X119832381Y-156202190D01*
X119832381Y-156297429D01*
X119784762Y-156392667D01*
X119737143Y-156440286D01*
X119641905Y-156487905D01*
X119451429Y-156535524D01*
X119213333Y-156535524D01*
X119022857Y-156487905D01*
X118927619Y-156440286D01*
X118880000Y-156392667D01*
X118832381Y-156297429D01*
X116022381Y-157868857D02*
X115546190Y-158202191D01*
X116022381Y-158440286D02*
X115022381Y-158440286D01*
X115022381Y-158059333D01*
X115070000Y-157964095D01*
X115117619Y-157916476D01*
X115212857Y-157868857D01*
X115355714Y-157868857D01*
X115450952Y-157916476D01*
X115498571Y-157964095D01*
X115546190Y-158059333D01*
X115546190Y-158440286D01*
X115117619Y-157487905D02*
X115070000Y-157440286D01*
X115022381Y-157345048D01*
X115022381Y-157106952D01*
X115070000Y-157011714D01*
X115117619Y-156964095D01*
X115212857Y-156916476D01*
X115308095Y-156916476D01*
X115450952Y-156964095D01*
X116022381Y-157535524D01*
X116022381Y-156916476D01*
X116022381Y-155964095D02*
X116022381Y-156535524D01*
X116022381Y-156249810D02*
X115022381Y-156249810D01*
X115165238Y-156345048D01*
X115260476Y-156440286D01*
X115308095Y-156535524D01*
X76065143Y-140406381D02*
X75731809Y-139930190D01*
X75493714Y-140406381D02*
X75493714Y-139406381D01*
X75874667Y-139406381D01*
X75969905Y-139454000D01*
X76017524Y-139501619D01*
X76065143Y-139596857D01*
X76065143Y-139739714D01*
X76017524Y-139834952D01*
X75969905Y-139882571D01*
X75874667Y-139930190D01*
X75493714Y-139930190D01*
X76446095Y-139501619D02*
X76493714Y-139454000D01*
X76588952Y-139406381D01*
X76827048Y-139406381D01*
X76922286Y-139454000D01*
X76969905Y-139501619D01*
X77017524Y-139596857D01*
X77017524Y-139692095D01*
X76969905Y-139834952D01*
X76398476Y-140406381D01*
X77017524Y-140406381D01*
X77398476Y-139501619D02*
X77446095Y-139454000D01*
X77541333Y-139406381D01*
X77779429Y-139406381D01*
X77874667Y-139454000D01*
X77922286Y-139501619D01*
X77969905Y-139596857D01*
X77969905Y-139692095D01*
X77922286Y-139834952D01*
X77350857Y-140406381D01*
X77969905Y-140406381D01*
X75430143Y-137403381D02*
X75096809Y-136927190D01*
X74858714Y-137403381D02*
X74858714Y-136403381D01*
X75239667Y-136403381D01*
X75334905Y-136451000D01*
X75382524Y-136498619D01*
X75430143Y-136593857D01*
X75430143Y-136736714D01*
X75382524Y-136831952D01*
X75334905Y-136879571D01*
X75239667Y-136927190D01*
X74858714Y-136927190D01*
X75811095Y-136498619D02*
X75858714Y-136451000D01*
X75953952Y-136403381D01*
X76192048Y-136403381D01*
X76287286Y-136451000D01*
X76334905Y-136498619D01*
X76382524Y-136593857D01*
X76382524Y-136689095D01*
X76334905Y-136831952D01*
X75763476Y-137403381D01*
X76382524Y-137403381D01*
X76715857Y-136403381D02*
X77334905Y-136403381D01*
X77001571Y-136784333D01*
X77144429Y-136784333D01*
X77239667Y-136831952D01*
X77287286Y-136879571D01*
X77334905Y-136974810D01*
X77334905Y-137212905D01*
X77287286Y-137308143D01*
X77239667Y-137355762D01*
X77144429Y-137403381D01*
X76858714Y-137403381D01*
X76763476Y-137355762D01*
X76715857Y-137308143D01*
X82323381Y-126735857D02*
X81847190Y-127069191D01*
X82323381Y-127307286D02*
X81323381Y-127307286D01*
X81323381Y-126926333D01*
X81371000Y-126831095D01*
X81418619Y-126783476D01*
X81513857Y-126735857D01*
X81656714Y-126735857D01*
X81751952Y-126783476D01*
X81799571Y-126831095D01*
X81847190Y-126926333D01*
X81847190Y-127307286D01*
X81418619Y-126354905D02*
X81371000Y-126307286D01*
X81323381Y-126212048D01*
X81323381Y-125973952D01*
X81371000Y-125878714D01*
X81418619Y-125831095D01*
X81513857Y-125783476D01*
X81609095Y-125783476D01*
X81751952Y-125831095D01*
X82323381Y-126402524D01*
X82323381Y-125783476D01*
X81656714Y-124926333D02*
X82323381Y-124926333D01*
X81275762Y-125164429D02*
X81990048Y-125402524D01*
X81990048Y-124783476D01*
X88003143Y-146248381D02*
X87669809Y-145772190D01*
X87431714Y-146248381D02*
X87431714Y-145248381D01*
X87812667Y-145248381D01*
X87907905Y-145296000D01*
X87955524Y-145343619D01*
X88003143Y-145438857D01*
X88003143Y-145581714D01*
X87955524Y-145676952D01*
X87907905Y-145724571D01*
X87812667Y-145772190D01*
X87431714Y-145772190D01*
X88384095Y-145343619D02*
X88431714Y-145296000D01*
X88526952Y-145248381D01*
X88765048Y-145248381D01*
X88860286Y-145296000D01*
X88907905Y-145343619D01*
X88955524Y-145438857D01*
X88955524Y-145534095D01*
X88907905Y-145676952D01*
X88336476Y-146248381D01*
X88955524Y-146248381D01*
X89812667Y-145248381D02*
X89622190Y-145248381D01*
X89526952Y-145296000D01*
X89479333Y-145343619D01*
X89384095Y-145486476D01*
X89336476Y-145676952D01*
X89336476Y-146057905D01*
X89384095Y-146153143D01*
X89431714Y-146200762D01*
X89526952Y-146248381D01*
X89717429Y-146248381D01*
X89812667Y-146200762D01*
X89860286Y-146153143D01*
X89907905Y-146057905D01*
X89907905Y-145819810D01*
X89860286Y-145724571D01*
X89812667Y-145676952D01*
X89717429Y-145629333D01*
X89526952Y-145629333D01*
X89431714Y-145676952D01*
X89384095Y-145724571D01*
X89336476Y-145819810D01*
X76065143Y-142946381D02*
X75731809Y-142470190D01*
X75493714Y-142946381D02*
X75493714Y-141946381D01*
X75874667Y-141946381D01*
X75969905Y-141994000D01*
X76017524Y-142041619D01*
X76065143Y-142136857D01*
X76065143Y-142279714D01*
X76017524Y-142374952D01*
X75969905Y-142422571D01*
X75874667Y-142470190D01*
X75493714Y-142470190D01*
X76446095Y-142041619D02*
X76493714Y-141994000D01*
X76588952Y-141946381D01*
X76827048Y-141946381D01*
X76922286Y-141994000D01*
X76969905Y-142041619D01*
X77017524Y-142136857D01*
X77017524Y-142232095D01*
X76969905Y-142374952D01*
X76398476Y-142946381D01*
X77017524Y-142946381D01*
X77350857Y-141946381D02*
X78017524Y-141946381D01*
X77588952Y-142946381D01*
X95731143Y-121534381D02*
X95397809Y-121058190D01*
X95159714Y-121534381D02*
X95159714Y-120534381D01*
X95540667Y-120534381D01*
X95635905Y-120582000D01*
X95683524Y-120629619D01*
X95731143Y-120724857D01*
X95731143Y-120867714D01*
X95683524Y-120962952D01*
X95635905Y-121010571D01*
X95540667Y-121058190D01*
X95159714Y-121058190D01*
X96112095Y-120629619D02*
X96159714Y-120582000D01*
X96254952Y-120534381D01*
X96493048Y-120534381D01*
X96588286Y-120582000D01*
X96635905Y-120629619D01*
X96683524Y-120724857D01*
X96683524Y-120820095D01*
X96635905Y-120962952D01*
X96064476Y-121534381D01*
X96683524Y-121534381D01*
X97254952Y-120962952D02*
X97159714Y-120915333D01*
X97112095Y-120867714D01*
X97064476Y-120772476D01*
X97064476Y-120724857D01*
X97112095Y-120629619D01*
X97159714Y-120582000D01*
X97254952Y-120534381D01*
X97445429Y-120534381D01*
X97540667Y-120582000D01*
X97588286Y-120629619D01*
X97635905Y-120724857D01*
X97635905Y-120772476D01*
X97588286Y-120867714D01*
X97540667Y-120915333D01*
X97445429Y-120962952D01*
X97254952Y-120962952D01*
X97159714Y-121010571D01*
X97112095Y-121058190D01*
X97064476Y-121153429D01*
X97064476Y-121343905D01*
X97112095Y-121439143D01*
X97159714Y-121486762D01*
X97254952Y-121534381D01*
X97445429Y-121534381D01*
X97540667Y-121486762D01*
X97588286Y-121439143D01*
X97635905Y-121343905D01*
X97635905Y-121153429D01*
X97588286Y-121058190D01*
X97540667Y-121010571D01*
X97445429Y-120962952D01*
X96775143Y-166872381D02*
X96441809Y-166396190D01*
X96203714Y-166872381D02*
X96203714Y-165872381D01*
X96584667Y-165872381D01*
X96679905Y-165920000D01*
X96727524Y-165967619D01*
X96775143Y-166062857D01*
X96775143Y-166205714D01*
X96727524Y-166300952D01*
X96679905Y-166348571D01*
X96584667Y-166396190D01*
X96203714Y-166396190D01*
X97156095Y-165967619D02*
X97203714Y-165920000D01*
X97298952Y-165872381D01*
X97537048Y-165872381D01*
X97632286Y-165920000D01*
X97679905Y-165967619D01*
X97727524Y-166062857D01*
X97727524Y-166158095D01*
X97679905Y-166300952D01*
X97108476Y-166872381D01*
X97727524Y-166872381D01*
X98203714Y-166872381D02*
X98394190Y-166872381D01*
X98489429Y-166824762D01*
X98537048Y-166777143D01*
X98632286Y-166634286D01*
X98679905Y-166443810D01*
X98679905Y-166062857D01*
X98632286Y-165967619D01*
X98584667Y-165920000D01*
X98489429Y-165872381D01*
X98298952Y-165872381D01*
X98203714Y-165920000D01*
X98156095Y-165967619D01*
X98108476Y-166062857D01*
X98108476Y-166300952D01*
X98156095Y-166396190D01*
X98203714Y-166443810D01*
X98298952Y-166491429D01*
X98489429Y-166491429D01*
X98584667Y-166443810D01*
X98632286Y-166396190D01*
X98679905Y-166300952D01*
X107805143Y-107132381D02*
X107471809Y-106656190D01*
X107233714Y-107132381D02*
X107233714Y-106132381D01*
X107614667Y-106132381D01*
X107709905Y-106180000D01*
X107757524Y-106227619D01*
X107805143Y-106322857D01*
X107805143Y-106465714D01*
X107757524Y-106560952D01*
X107709905Y-106608571D01*
X107614667Y-106656190D01*
X107233714Y-106656190D01*
X108138476Y-106132381D02*
X108757524Y-106132381D01*
X108424190Y-106513333D01*
X108567048Y-106513333D01*
X108662286Y-106560952D01*
X108709905Y-106608571D01*
X108757524Y-106703810D01*
X108757524Y-106941905D01*
X108709905Y-107037143D01*
X108662286Y-107084762D01*
X108567048Y-107132381D01*
X108281333Y-107132381D01*
X108186095Y-107084762D01*
X108138476Y-107037143D01*
X109376571Y-106132381D02*
X109471810Y-106132381D01*
X109567048Y-106180000D01*
X109614667Y-106227619D01*
X109662286Y-106322857D01*
X109709905Y-106513333D01*
X109709905Y-106751429D01*
X109662286Y-106941905D01*
X109614667Y-107037143D01*
X109567048Y-107084762D01*
X109471810Y-107132381D01*
X109376571Y-107132381D01*
X109281333Y-107084762D01*
X109233714Y-107037143D01*
X109186095Y-106941905D01*
X109138476Y-106751429D01*
X109138476Y-106513333D01*
X109186095Y-106322857D01*
X109233714Y-106227619D01*
X109281333Y-106180000D01*
X109376571Y-106132381D01*
X69715143Y-124912381D02*
X69381809Y-124436190D01*
X69143714Y-124912381D02*
X69143714Y-123912381D01*
X69524667Y-123912381D01*
X69619905Y-123960000D01*
X69667524Y-124007619D01*
X69715143Y-124102857D01*
X69715143Y-124245714D01*
X69667524Y-124340952D01*
X69619905Y-124388571D01*
X69524667Y-124436190D01*
X69143714Y-124436190D01*
X70048476Y-123912381D02*
X70667524Y-123912381D01*
X70334190Y-124293333D01*
X70477048Y-124293333D01*
X70572286Y-124340952D01*
X70619905Y-124388571D01*
X70667524Y-124483810D01*
X70667524Y-124721905D01*
X70619905Y-124817143D01*
X70572286Y-124864762D01*
X70477048Y-124912381D01*
X70191333Y-124912381D01*
X70096095Y-124864762D01*
X70048476Y-124817143D01*
X71619905Y-124912381D02*
X71048476Y-124912381D01*
X71334190Y-124912381D02*
X71334190Y-123912381D01*
X71238952Y-124055238D01*
X71143714Y-124150476D01*
X71048476Y-124198095D01*
X70257143Y-131652381D02*
X69923809Y-131176190D01*
X69685714Y-131652381D02*
X69685714Y-130652381D01*
X70066667Y-130652381D01*
X70161905Y-130700000D01*
X70209524Y-130747619D01*
X70257143Y-130842857D01*
X70257143Y-130985714D01*
X70209524Y-131080952D01*
X70161905Y-131128571D01*
X70066667Y-131176190D01*
X69685714Y-131176190D01*
X70590476Y-130652381D02*
X71209524Y-130652381D01*
X70876190Y-131033333D01*
X71019048Y-131033333D01*
X71114286Y-131080952D01*
X71161905Y-131128571D01*
X71209524Y-131223810D01*
X71209524Y-131461905D01*
X71161905Y-131557143D01*
X71114286Y-131604762D01*
X71019048Y-131652381D01*
X70733333Y-131652381D01*
X70638095Y-131604762D01*
X70590476Y-131557143D01*
X71590476Y-130747619D02*
X71638095Y-130700000D01*
X71733333Y-130652381D01*
X71971429Y-130652381D01*
X72066667Y-130700000D01*
X72114286Y-130747619D01*
X72161905Y-130842857D01*
X72161905Y-130938095D01*
X72114286Y-131080952D01*
X71542857Y-131652381D01*
X72161905Y-131652381D01*
X113993143Y-121486381D02*
X113659809Y-121010190D01*
X113421714Y-121486381D02*
X113421714Y-120486381D01*
X113802667Y-120486381D01*
X113897905Y-120534000D01*
X113945524Y-120581619D01*
X113993143Y-120676857D01*
X113993143Y-120819714D01*
X113945524Y-120914952D01*
X113897905Y-120962571D01*
X113802667Y-121010190D01*
X113421714Y-121010190D01*
X114326476Y-120486381D02*
X114945524Y-120486381D01*
X114612190Y-120867333D01*
X114755048Y-120867333D01*
X114850286Y-120914952D01*
X114897905Y-120962571D01*
X114945524Y-121057810D01*
X114945524Y-121295905D01*
X114897905Y-121391143D01*
X114850286Y-121438762D01*
X114755048Y-121486381D01*
X114469333Y-121486381D01*
X114374095Y-121438762D01*
X114326476Y-121391143D01*
X115278857Y-120486381D02*
X115897905Y-120486381D01*
X115564571Y-120867333D01*
X115707429Y-120867333D01*
X115802667Y-120914952D01*
X115850286Y-120962571D01*
X115897905Y-121057810D01*
X115897905Y-121295905D01*
X115850286Y-121391143D01*
X115802667Y-121438762D01*
X115707429Y-121486381D01*
X115421714Y-121486381D01*
X115326476Y-121438762D01*
X115278857Y-121391143D01*
X97301143Y-107244381D02*
X96967809Y-106768190D01*
X96729714Y-107244381D02*
X96729714Y-106244381D01*
X97110667Y-106244381D01*
X97205905Y-106292000D01*
X97253524Y-106339619D01*
X97301143Y-106434857D01*
X97301143Y-106577714D01*
X97253524Y-106672952D01*
X97205905Y-106720571D01*
X97110667Y-106768190D01*
X96729714Y-106768190D01*
X97634476Y-106244381D02*
X98253524Y-106244381D01*
X97920190Y-106625333D01*
X98063048Y-106625333D01*
X98158286Y-106672952D01*
X98205905Y-106720571D01*
X98253524Y-106815810D01*
X98253524Y-107053905D01*
X98205905Y-107149143D01*
X98158286Y-107196762D01*
X98063048Y-107244381D01*
X97777333Y-107244381D01*
X97682095Y-107196762D01*
X97634476Y-107149143D01*
X99110667Y-106577714D02*
X99110667Y-107244381D01*
X98872571Y-106196762D02*
X98634476Y-106911048D01*
X99253524Y-106911048D01*
X113957143Y-114552381D02*
X113623809Y-114076190D01*
X113385714Y-114552381D02*
X113385714Y-113552381D01*
X113766667Y-113552381D01*
X113861905Y-113600000D01*
X113909524Y-113647619D01*
X113957143Y-113742857D01*
X113957143Y-113885714D01*
X113909524Y-113980952D01*
X113861905Y-114028571D01*
X113766667Y-114076190D01*
X113385714Y-114076190D01*
X114290476Y-113552381D02*
X114909524Y-113552381D01*
X114576190Y-113933333D01*
X114719048Y-113933333D01*
X114814286Y-113980952D01*
X114861905Y-114028571D01*
X114909524Y-114123810D01*
X114909524Y-114361905D01*
X114861905Y-114457143D01*
X114814286Y-114504762D01*
X114719048Y-114552381D01*
X114433333Y-114552381D01*
X114338095Y-114504762D01*
X114290476Y-114457143D01*
X115766667Y-113552381D02*
X115576190Y-113552381D01*
X115480952Y-113600000D01*
X115433333Y-113647619D01*
X115338095Y-113790476D01*
X115290476Y-113980952D01*
X115290476Y-114361905D01*
X115338095Y-114457143D01*
X115385714Y-114504762D01*
X115480952Y-114552381D01*
X115671429Y-114552381D01*
X115766667Y-114504762D01*
X115814286Y-114457143D01*
X115861905Y-114361905D01*
X115861905Y-114123810D01*
X115814286Y-114028571D01*
X115766667Y-113980952D01*
X115671429Y-113933333D01*
X115480952Y-113933333D01*
X115385714Y-113980952D01*
X115338095Y-114028571D01*
X115290476Y-114123810D01*
X69715143Y-136596381D02*
X69381809Y-136120190D01*
X69143714Y-136596381D02*
X69143714Y-135596381D01*
X69524667Y-135596381D01*
X69619905Y-135644000D01*
X69667524Y-135691619D01*
X69715143Y-135786857D01*
X69715143Y-135929714D01*
X69667524Y-136024952D01*
X69619905Y-136072571D01*
X69524667Y-136120190D01*
X69143714Y-136120190D01*
X70048476Y-135596381D02*
X70667524Y-135596381D01*
X70334190Y-135977333D01*
X70477048Y-135977333D01*
X70572286Y-136024952D01*
X70619905Y-136072571D01*
X70667524Y-136167810D01*
X70667524Y-136405905D01*
X70619905Y-136501143D01*
X70572286Y-136548762D01*
X70477048Y-136596381D01*
X70191333Y-136596381D01*
X70096095Y-136548762D01*
X70048476Y-136501143D01*
X71238952Y-136024952D02*
X71143714Y-135977333D01*
X71096095Y-135929714D01*
X71048476Y-135834476D01*
X71048476Y-135786857D01*
X71096095Y-135691619D01*
X71143714Y-135644000D01*
X71238952Y-135596381D01*
X71429429Y-135596381D01*
X71524667Y-135644000D01*
X71572286Y-135691619D01*
X71619905Y-135786857D01*
X71619905Y-135834476D01*
X71572286Y-135929714D01*
X71524667Y-135977333D01*
X71429429Y-136024952D01*
X71238952Y-136024952D01*
X71143714Y-136072571D01*
X71096095Y-136120190D01*
X71048476Y-136215429D01*
X71048476Y-136405905D01*
X71096095Y-136501143D01*
X71143714Y-136548762D01*
X71238952Y-136596381D01*
X71429429Y-136596381D01*
X71524667Y-136548762D01*
X71572286Y-136501143D01*
X71619905Y-136405905D01*
X71619905Y-136215429D01*
X71572286Y-136120190D01*
X71524667Y-136072571D01*
X71429429Y-136024952D01*
X71257143Y-143352381D02*
X70923809Y-142876190D01*
X70685714Y-143352381D02*
X70685714Y-142352381D01*
X71066667Y-142352381D01*
X71161905Y-142400000D01*
X71209524Y-142447619D01*
X71257143Y-142542857D01*
X71257143Y-142685714D01*
X71209524Y-142780952D01*
X71161905Y-142828571D01*
X71066667Y-142876190D01*
X70685714Y-142876190D01*
X71590476Y-142352381D02*
X72209524Y-142352381D01*
X71876190Y-142733333D01*
X72019048Y-142733333D01*
X72114286Y-142780952D01*
X72161905Y-142828571D01*
X72209524Y-142923810D01*
X72209524Y-143161905D01*
X72161905Y-143257143D01*
X72114286Y-143304762D01*
X72019048Y-143352381D01*
X71733333Y-143352381D01*
X71638095Y-143304762D01*
X71590476Y-143257143D01*
X72685714Y-143352381D02*
X72876190Y-143352381D01*
X72971429Y-143304762D01*
X73019048Y-143257143D01*
X73114286Y-143114286D01*
X73161905Y-142923810D01*
X73161905Y-142542857D01*
X73114286Y-142447619D01*
X73066667Y-142400000D01*
X72971429Y-142352381D01*
X72780952Y-142352381D01*
X72685714Y-142400000D01*
X72638095Y-142447619D01*
X72590476Y-142542857D01*
X72590476Y-142780952D01*
X72638095Y-142876190D01*
X72685714Y-142923810D01*
X72780952Y-142971429D01*
X72971429Y-142971429D01*
X73066667Y-142923810D01*
X73114286Y-142876190D01*
X73161905Y-142780952D01*
X111958381Y-157868857D02*
X111482190Y-158202191D01*
X111958381Y-158440286D02*
X110958381Y-158440286D01*
X110958381Y-158059333D01*
X111006000Y-157964095D01*
X111053619Y-157916476D01*
X111148857Y-157868857D01*
X111291714Y-157868857D01*
X111386952Y-157916476D01*
X111434571Y-157964095D01*
X111482190Y-158059333D01*
X111482190Y-158440286D01*
X111291714Y-157011714D02*
X111958381Y-157011714D01*
X110910762Y-157249810D02*
X111625048Y-157487905D01*
X111625048Y-156868857D01*
X111958381Y-155964095D02*
X111958381Y-156535524D01*
X111958381Y-156249810D02*
X110958381Y-156249810D01*
X111101238Y-156345048D01*
X111196476Y-156440286D01*
X111244095Y-156535524D01*
X107894381Y-157868857D02*
X107418190Y-158202191D01*
X107894381Y-158440286D02*
X106894381Y-158440286D01*
X106894381Y-158059333D01*
X106942000Y-157964095D01*
X106989619Y-157916476D01*
X107084857Y-157868857D01*
X107227714Y-157868857D01*
X107322952Y-157916476D01*
X107370571Y-157964095D01*
X107418190Y-158059333D01*
X107418190Y-158440286D01*
X107227714Y-157011714D02*
X107894381Y-157011714D01*
X106846762Y-157249810D02*
X107561048Y-157487905D01*
X107561048Y-156868857D01*
X106989619Y-156535524D02*
X106942000Y-156487905D01*
X106894381Y-156392667D01*
X106894381Y-156154571D01*
X106942000Y-156059333D01*
X106989619Y-156011714D01*
X107084857Y-155964095D01*
X107180095Y-155964095D01*
X107322952Y-156011714D01*
X107894381Y-156583143D01*
X107894381Y-155964095D01*
X111379095Y-131024381D02*
X111379095Y-131833905D01*
X111426714Y-131929143D01*
X111474333Y-131976762D01*
X111569571Y-132024381D01*
X111760048Y-132024381D01*
X111855286Y-131976762D01*
X111902905Y-131929143D01*
X111950524Y-131833905D01*
X111950524Y-131024381D01*
X112379095Y-131119619D02*
X112426714Y-131072000D01*
X112521952Y-131024381D01*
X112760048Y-131024381D01*
X112855286Y-131072000D01*
X112902905Y-131119619D01*
X112950524Y-131214857D01*
X112950524Y-131310095D01*
X112902905Y-131452952D01*
X112331476Y-132024381D01*
X112950524Y-132024381D01*
X104630095Y-127872381D02*
X104630095Y-128681905D01*
X104677714Y-128777143D01*
X104725333Y-128824762D01*
X104820571Y-128872381D01*
X105011048Y-128872381D01*
X105106286Y-128824762D01*
X105153905Y-128777143D01*
X105201524Y-128681905D01*
X105201524Y-127872381D01*
X106106286Y-128205714D02*
X106106286Y-128872381D01*
X105868190Y-127824762D02*
X105630095Y-128539048D01*
X106249143Y-128539048D01*
X105537095Y-153884381D02*
X105537095Y-154693905D01*
X105584714Y-154789143D01*
X105632333Y-154836762D01*
X105727571Y-154884381D01*
X105918048Y-154884381D01*
X106013286Y-154836762D01*
X106060905Y-154789143D01*
X106108524Y-154693905D01*
X106108524Y-153884381D01*
X107060905Y-153884381D02*
X106584714Y-153884381D01*
X106537095Y-154360571D01*
X106584714Y-154312952D01*
X106679952Y-154265333D01*
X106918048Y-154265333D01*
X107013286Y-154312952D01*
X107060905Y-154360571D01*
X107108524Y-154455810D01*
X107108524Y-154693905D01*
X107060905Y-154789143D01*
X107013286Y-154836762D01*
X106918048Y-154884381D01*
X106679952Y-154884381D01*
X106584714Y-154836762D01*
X106537095Y-154789143D01*
X74138095Y-127752381D02*
X74138095Y-128561905D01*
X74185714Y-128657143D01*
X74233333Y-128704762D01*
X74328571Y-128752381D01*
X74519048Y-128752381D01*
X74614286Y-128704762D01*
X74661905Y-128657143D01*
X74709524Y-128561905D01*
X74709524Y-127752381D01*
X75090476Y-127752381D02*
X75757143Y-127752381D01*
X75328571Y-128752381D01*
X95358095Y-127900381D02*
X95358095Y-128709905D01*
X95405714Y-128805143D01*
X95453333Y-128852762D01*
X95548571Y-128900381D01*
X95739048Y-128900381D01*
X95834286Y-128852762D01*
X95881905Y-128805143D01*
X95929524Y-128709905D01*
X95929524Y-127900381D01*
X96548571Y-128328952D02*
X96453333Y-128281333D01*
X96405714Y-128233714D01*
X96358095Y-128138476D01*
X96358095Y-128090857D01*
X96405714Y-127995619D01*
X96453333Y-127948000D01*
X96548571Y-127900381D01*
X96739048Y-127900381D01*
X96834286Y-127948000D01*
X96881905Y-127995619D01*
X96929524Y-128090857D01*
X96929524Y-128138476D01*
X96881905Y-128233714D01*
X96834286Y-128281333D01*
X96739048Y-128328952D01*
X96548571Y-128328952D01*
X96453333Y-128376571D01*
X96405714Y-128424190D01*
X96358095Y-128519429D01*
X96358095Y-128709905D01*
X96405714Y-128805143D01*
X96453333Y-128852762D01*
X96548571Y-128900381D01*
X96739048Y-128900381D01*
X96834286Y-128852762D01*
X96881905Y-128805143D01*
X96929524Y-128709905D01*
X96929524Y-128519429D01*
X96881905Y-128424190D01*
X96834286Y-128376571D01*
X96739048Y-128328952D01*
X97164095Y-158506381D02*
X97164095Y-159315905D01*
X97211714Y-159411143D01*
X97259333Y-159458762D01*
X97354571Y-159506381D01*
X97545048Y-159506381D01*
X97640286Y-159458762D01*
X97687905Y-159411143D01*
X97735524Y-159315905D01*
X97735524Y-158506381D01*
X98259333Y-159506381D02*
X98449809Y-159506381D01*
X98545048Y-159458762D01*
X98592667Y-159411143D01*
X98687905Y-159268286D01*
X98735524Y-159077810D01*
X98735524Y-158696857D01*
X98687905Y-158601619D01*
X98640286Y-158554000D01*
X98545048Y-158506381D01*
X98354571Y-158506381D01*
X98259333Y-158554000D01*
X98211714Y-158601619D01*
X98164095Y-158696857D01*
X98164095Y-158934952D01*
X98211714Y-159030190D01*
X98259333Y-159077810D01*
X98354571Y-159125429D01*
X98545048Y-159125429D01*
X98640286Y-159077810D01*
X98687905Y-159030190D01*
X98735524Y-158934952D01*
X107209905Y-113498381D02*
X107209905Y-114307905D01*
X107257524Y-114403143D01*
X107305143Y-114450762D01*
X107400381Y-114498381D01*
X107590858Y-114498381D01*
X107686096Y-114450762D01*
X107733715Y-114403143D01*
X107781334Y-114307905D01*
X107781334Y-113498381D01*
X108781334Y-114498381D02*
X108209905Y-114498381D01*
X108495619Y-114498381D02*
X108495619Y-113498381D01*
X108400381Y-113641238D01*
X108305143Y-113736476D01*
X108209905Y-113784095D01*
X109400381Y-113498381D02*
X109495620Y-113498381D01*
X109590858Y-113546000D01*
X109638477Y-113593619D01*
X109686096Y-113688857D01*
X109733715Y-113879333D01*
X109733715Y-114117429D01*
X109686096Y-114307905D01*
X109638477Y-114403143D01*
X109590858Y-114450762D01*
X109495620Y-114498381D01*
X109400381Y-114498381D01*
X109305143Y-114450762D01*
X109257524Y-114403143D01*
X109209905Y-114307905D01*
X109162286Y-114117429D01*
X109162286Y-113879333D01*
X109209905Y-113688857D01*
X109257524Y-113593619D01*
X109305143Y-113546000D01*
X109400381Y-113498381D01*
X113143905Y-127852381D02*
X113143905Y-128661905D01*
X113191524Y-128757143D01*
X113239143Y-128804762D01*
X113334381Y-128852381D01*
X113524858Y-128852381D01*
X113620096Y-128804762D01*
X113667715Y-128757143D01*
X113715334Y-128661905D01*
X113715334Y-127852381D01*
X114715334Y-128852381D02*
X114143905Y-128852381D01*
X114429619Y-128852381D02*
X114429619Y-127852381D01*
X114334381Y-127995238D01*
X114239143Y-128090476D01*
X114143905Y-128138095D01*
X115667715Y-128852381D02*
X115096286Y-128852381D01*
X115382000Y-128852381D02*
X115382000Y-127852381D01*
X115286762Y-127995238D01*
X115191524Y-128090476D01*
X115096286Y-128138095D01*
X96705905Y-113610381D02*
X96705905Y-114419905D01*
X96753524Y-114515143D01*
X96801143Y-114562762D01*
X96896381Y-114610381D01*
X97086858Y-114610381D01*
X97182096Y-114562762D01*
X97229715Y-114515143D01*
X97277334Y-114419905D01*
X97277334Y-113610381D01*
X98277334Y-114610381D02*
X97705905Y-114610381D01*
X97991619Y-114610381D02*
X97991619Y-113610381D01*
X97896381Y-113753238D01*
X97801143Y-113848476D01*
X97705905Y-113896095D01*
X98658286Y-113705619D02*
X98705905Y-113658000D01*
X98801143Y-113610381D01*
X99039239Y-113610381D01*
X99134477Y-113658000D01*
X99182096Y-113705619D01*
X99229715Y-113800857D01*
X99229715Y-113896095D01*
X99182096Y-114038952D01*
X98610667Y-114610381D01*
X99229715Y-114610381D01*
X57943905Y-120610381D02*
X57943905Y-121419905D01*
X57991524Y-121515143D01*
X58039143Y-121562762D01*
X58134381Y-121610381D01*
X58324858Y-121610381D01*
X58420096Y-121562762D01*
X58467715Y-121515143D01*
X58515334Y-121419905D01*
X58515334Y-120610381D01*
X59515334Y-121610381D02*
X58943905Y-121610381D01*
X59229619Y-121610381D02*
X59229619Y-120610381D01*
X59134381Y-120753238D01*
X59039143Y-120848476D01*
X58943905Y-120896095D01*
X59848667Y-120610381D02*
X60467715Y-120610381D01*
X60134381Y-120991333D01*
X60277239Y-120991333D01*
X60372477Y-121038952D01*
X60420096Y-121086571D01*
X60467715Y-121181810D01*
X60467715Y-121419905D01*
X60420096Y-121515143D01*
X60372477Y-121562762D01*
X60277239Y-121610381D01*
X59991524Y-121610381D01*
X59896286Y-121562762D01*
X59848667Y-121515143D01*
X58197905Y-132040381D02*
X58197905Y-132849905D01*
X58245524Y-132945143D01*
X58293143Y-132992762D01*
X58388381Y-133040381D01*
X58578858Y-133040381D01*
X58674096Y-132992762D01*
X58721715Y-132945143D01*
X58769334Y-132849905D01*
X58769334Y-132040381D01*
X59769334Y-133040381D02*
X59197905Y-133040381D01*
X59483619Y-133040381D02*
X59483619Y-132040381D01*
X59388381Y-132183238D01*
X59293143Y-132278476D01*
X59197905Y-132326095D01*
X60626477Y-132373714D02*
X60626477Y-133040381D01*
X60388381Y-131992762D02*
X60150286Y-132707048D01*
X60769334Y-132707048D01*
X50038095Y-114514381D02*
X50038095Y-115323905D01*
X50085714Y-115419143D01*
X50133333Y-115466762D01*
X50228571Y-115514381D01*
X50419048Y-115514381D01*
X50514286Y-115466762D01*
X50561905Y-115419143D01*
X50609524Y-115323905D01*
X50609524Y-114514381D01*
X51609524Y-115514381D02*
X51038095Y-115514381D01*
X51323809Y-115514381D02*
X51323809Y-114514381D01*
X51228571Y-114657238D01*
X51133333Y-114752476D01*
X51038095Y-114800095D01*
X100027143Y-138066381D02*
X99693809Y-137590190D01*
X99455714Y-138066381D02*
X99455714Y-137066381D01*
X99836667Y-137066381D01*
X99931905Y-137114000D01*
X99979524Y-137161619D01*
X100027143Y-137256857D01*
X100027143Y-137399714D01*
X99979524Y-137494952D01*
X99931905Y-137542571D01*
X99836667Y-137590190D01*
X99455714Y-137590190D01*
X100884286Y-137399714D02*
X100884286Y-138066381D01*
X100646190Y-137018762D02*
X100408095Y-137733048D01*
X101027143Y-137733048D01*
X101836667Y-137066381D02*
X101646190Y-137066381D01*
X101550952Y-137114000D01*
X101503333Y-137161619D01*
X101408095Y-137304476D01*
X101360476Y-137494952D01*
X101360476Y-137875905D01*
X101408095Y-137971143D01*
X101455714Y-138018762D01*
X101550952Y-138066381D01*
X101741429Y-138066381D01*
X101836667Y-138018762D01*
X101884286Y-137971143D01*
X101931905Y-137875905D01*
X101931905Y-137637810D01*
X101884286Y-137542571D01*
X101836667Y-137494952D01*
X101741429Y-137447333D01*
X101550952Y-137447333D01*
X101455714Y-137494952D01*
X101408095Y-137542571D01*
X101360476Y-137637810D01*
X79557143Y-136152381D02*
X79223809Y-135676190D01*
X78985714Y-136152381D02*
X78985714Y-135152381D01*
X79366667Y-135152381D01*
X79461905Y-135200000D01*
X79509524Y-135247619D01*
X79557143Y-135342857D01*
X79557143Y-135485714D01*
X79509524Y-135580952D01*
X79461905Y-135628571D01*
X79366667Y-135676190D01*
X78985714Y-135676190D01*
X80414286Y-135485714D02*
X80414286Y-136152381D01*
X80176190Y-135104762D02*
X79938095Y-135819048D01*
X80557143Y-135819048D01*
X80842857Y-135152381D02*
X81509524Y-135152381D01*
X81080952Y-136152381D01*
X112720381Y-148978857D02*
X112244190Y-149312191D01*
X112720381Y-149550286D02*
X111720381Y-149550286D01*
X111720381Y-149169333D01*
X111768000Y-149074095D01*
X111815619Y-149026476D01*
X111910857Y-148978857D01*
X112053714Y-148978857D01*
X112148952Y-149026476D01*
X112196571Y-149074095D01*
X112244190Y-149169333D01*
X112244190Y-149550286D01*
X112053714Y-148121714D02*
X112720381Y-148121714D01*
X111672762Y-148359810D02*
X112387048Y-148597905D01*
X112387048Y-147978857D01*
X112148952Y-147455048D02*
X112101333Y-147550286D01*
X112053714Y-147597905D01*
X111958476Y-147645524D01*
X111910857Y-147645524D01*
X111815619Y-147597905D01*
X111768000Y-147550286D01*
X111720381Y-147455048D01*
X111720381Y-147264571D01*
X111768000Y-147169333D01*
X111815619Y-147121714D01*
X111910857Y-147074095D01*
X111958476Y-147074095D01*
X112053714Y-147121714D01*
X112101333Y-147169333D01*
X112148952Y-147264571D01*
X112148952Y-147455048D01*
X112196571Y-147550286D01*
X112244190Y-147597905D01*
X112339429Y-147645524D01*
X112529905Y-147645524D01*
X112625143Y-147597905D01*
X112672762Y-147550286D01*
X112720381Y-147455048D01*
X112720381Y-147264571D01*
X112672762Y-147169333D01*
X112625143Y-147121714D01*
X112529905Y-147074095D01*
X112339429Y-147074095D01*
X112244190Y-147121714D01*
X112196571Y-147169333D01*
X112148952Y-147264571D01*
D16*
X75988333Y-104980619D02*
X75988333Y-105706333D01*
X75939953Y-105851476D01*
X75843191Y-105948238D01*
X75698048Y-105996619D01*
X75601286Y-105996619D01*
X77004333Y-105996619D02*
X76423762Y-105996619D01*
X76714048Y-105996619D02*
X76714048Y-104980619D01*
X76617286Y-105125762D01*
X76520524Y-105222524D01*
X76423762Y-105270905D01*
M02*
