G04 #@! TF.FileFunction,Copper,L2,Bot,Signal*
%FSLAX46Y46*%
G04 Gerber Fmt 4.6, Leading zero omitted, Abs format (unit mm)*
G04 Created by KiCad (PCBNEW 4.0.7) date 12/16/17 16:03:18*
%MOMM*%
%LPD*%
G01*
G04 APERTURE LIST*
%ADD10C,0.100000*%
%ADD11R,1.000000X0.950000*%
%ADD12R,1.700000X2.500000*%
%ADD13R,2.500000X2.300000*%
%ADD14R,3.000000X2.000000*%
%ADD15O,3.000000X2.000000*%
%ADD16C,4.000000*%
%ADD17R,0.950000X1.000000*%
%ADD18R,1.150000X1.450000*%
%ADD19C,1.625000*%
%ADD20R,0.600000X1.550000*%
%ADD21R,1.524000X3.048000*%
%ADD22O,1.524000X3.048000*%
%ADD23C,0.600000*%
%ADD24C,0.500000*%
%ADD25C,1.500000*%
%ADD26C,0.200000*%
%ADD27C,2.000000*%
%ADD28C,0.600000*%
%ADD29C,0.254000*%
G04 APERTURE END LIST*
D10*
D11*
X85975000Y-130800000D03*
X87625000Y-130800000D03*
X59881000Y-160020000D03*
X61531000Y-160020000D03*
D12*
X67056000Y-156432000D03*
X67056000Y-152432000D03*
D13*
X48980000Y-154800000D03*
X44680000Y-154800000D03*
X44680000Y-158610000D03*
X48980000Y-158610000D03*
D14*
X124968000Y-129540000D03*
D15*
X124968000Y-134540000D03*
X124968000Y-139540000D03*
X124968000Y-144540000D03*
D14*
X35560000Y-119460000D03*
D15*
X35560000Y-124460000D03*
X35560000Y-129460000D03*
X35560000Y-134460000D03*
D14*
X124968000Y-107696000D03*
D15*
X124968000Y-112696000D03*
X124968000Y-117696000D03*
X124968000Y-122696000D03*
D14*
X35560000Y-140970000D03*
D15*
X35560000Y-145970000D03*
X35560000Y-150970000D03*
X35560000Y-155970000D03*
D16*
X34000000Y-166000000D03*
X124900000Y-164700000D03*
X116600000Y-108000000D03*
X34000000Y-106000000D03*
D17*
X118618000Y-137985000D03*
X118618000Y-136335000D03*
X116078000Y-137985000D03*
X116078000Y-136335000D03*
X60452000Y-149669000D03*
X60452000Y-148019000D03*
X58420000Y-149669000D03*
X58420000Y-148019000D03*
D18*
X49252000Y-161785000D03*
X47202000Y-161785000D03*
D19*
X59690000Y-123190000D03*
X54610000Y-123190000D03*
X52070000Y-123190000D03*
X49530000Y-123190000D03*
X49530000Y-128270000D03*
X52070000Y-128270000D03*
X54610000Y-128270000D03*
X59690000Y-128270000D03*
X59690000Y-134620000D03*
X54610000Y-134620000D03*
X52070000Y-134620000D03*
X49530000Y-134620000D03*
X49530000Y-139700000D03*
X52070000Y-139700000D03*
X54610000Y-139700000D03*
X59690000Y-139700000D03*
D20*
X64135000Y-157640000D03*
X62865000Y-157640000D03*
X61595000Y-157640000D03*
X60325000Y-157640000D03*
X60325000Y-152240000D03*
X61595000Y-152240000D03*
X62865000Y-152240000D03*
X64135000Y-152240000D03*
D18*
X64652000Y-149479000D03*
X62602000Y-149479000D03*
D21*
X76962000Y-109347000D03*
D22*
X79502000Y-109347000D03*
X82042000Y-109347000D03*
X84582000Y-109347000D03*
X87122000Y-109347000D03*
X89662000Y-109347000D03*
D23*
X103300000Y-149500000D03*
X100900000Y-149800000D03*
X86300001Y-127799999D03*
X107600000Y-106300000D03*
X127100000Y-120600000D03*
X120400000Y-120600000D03*
X118600000Y-120600000D03*
X113800000Y-119700000D03*
X113800000Y-121500000D03*
X91900000Y-127500000D03*
X97100000Y-106600000D03*
X86000000Y-132300000D03*
X105800000Y-163900000D03*
X89100000Y-164700000D03*
X89700000Y-164700000D03*
X89700000Y-164100000D03*
X89100000Y-164100000D03*
X66500000Y-149860000D03*
X67100000Y-149860000D03*
X69700000Y-138500000D03*
X45100000Y-144800000D03*
X43900000Y-144800000D03*
X44500000Y-144800000D03*
X45100000Y-145400000D03*
X44500000Y-145400000D03*
X43900000Y-145400000D03*
X90400000Y-151500000D03*
X91000000Y-151500000D03*
X91000000Y-150900000D03*
X90400000Y-150900000D03*
X92600000Y-158500000D03*
X100900000Y-159800000D03*
X111100000Y-127500000D03*
X108700000Y-127600000D03*
X92900000Y-127700000D03*
X102200000Y-127500000D03*
X100000000Y-127500000D03*
X112000000Y-113300000D03*
X104900000Y-113300000D03*
X101500000Y-113400000D03*
X94400000Y-113500000D03*
X43600000Y-112000000D03*
X42600000Y-109600000D03*
X69100000Y-109000000D03*
X80000000Y-119700000D03*
X75200000Y-121500000D03*
X75900000Y-127400000D03*
X69700000Y-127000000D03*
X113300000Y-131300000D03*
X108500000Y-156400000D03*
X104500000Y-156400000D03*
X116600000Y-146400000D03*
X120500000Y-150300000D03*
X108000000Y-142000000D03*
X117100000Y-126300000D03*
X73800000Y-134500000D03*
X112200000Y-150400000D03*
X103400000Y-153800000D03*
X109900000Y-153700000D03*
X93400000Y-131300000D03*
X79248000Y-151765000D03*
X51910000Y-159245000D03*
X51910000Y-157975000D03*
X51910000Y-158610000D03*
X67691000Y-149860000D03*
X56769000Y-147955000D03*
X113400000Y-144300000D03*
X112200000Y-145500000D03*
X102200002Y-120600000D03*
X61426000Y-145500000D03*
X120500000Y-122100000D03*
X118192000Y-122067736D03*
X100100000Y-121900000D03*
X51910000Y-155435000D03*
X51910000Y-154165000D03*
X51910000Y-154800000D03*
X58293000Y-154813000D03*
X58928000Y-154813000D03*
X59563000Y-154813000D03*
X64900000Y-161400000D03*
X64900000Y-162000000D03*
X64900000Y-162600000D03*
X114500000Y-135900000D03*
X120285000Y-136715000D03*
X120200000Y-138875000D03*
X114700000Y-139700000D03*
X97400000Y-148100032D03*
X97400000Y-146500000D03*
X91400000Y-141100000D03*
X86700000Y-141100000D03*
X89600000Y-129000000D03*
X86700000Y-129000000D03*
X95800000Y-117800000D03*
X90200000Y-117900000D03*
X92900000Y-117000000D03*
X90200000Y-117000000D03*
X90300000Y-142100000D03*
X86800000Y-142100000D03*
X118500000Y-128700000D03*
X118500000Y-127500000D03*
X101800000Y-130500000D03*
X98300000Y-130500000D03*
X87800000Y-140300000D03*
X90800000Y-140399992D03*
X96500000Y-146400006D03*
X96500000Y-148600000D03*
X93199996Y-120000000D03*
X89300000Y-120000000D03*
D24*
X100900000Y-149800000D02*
X103000000Y-149800000D01*
X103000000Y-149800000D02*
X103300000Y-149500000D01*
D25*
X127100000Y-104300000D02*
X107900000Y-104300000D01*
X107900000Y-104300000D02*
X98300000Y-104300000D01*
D24*
X107600000Y-106300000D02*
X107900000Y-106000000D01*
X107900000Y-106000000D02*
X107900000Y-104300000D01*
D25*
X128700000Y-166067000D02*
X128700000Y-120500000D01*
X128700000Y-120500000D02*
X128700000Y-105900000D01*
D24*
X127100000Y-120600000D02*
X127524264Y-120600000D01*
X127524264Y-120600000D02*
X127624264Y-120500000D01*
X127624264Y-120500000D02*
X128700000Y-120500000D01*
X118600000Y-120600000D02*
X120400000Y-120600000D01*
X113800000Y-121500000D02*
X113800000Y-119700000D01*
X85300000Y-130100000D02*
X85975000Y-130775000D01*
X85975000Y-130775000D02*
X85975000Y-130800000D01*
X85300000Y-128800000D02*
X85300000Y-130100000D01*
X86300001Y-127799999D02*
X85300000Y-128800000D01*
X91900000Y-127500000D02*
X91600001Y-127799999D01*
X91600001Y-127799999D02*
X86300001Y-127799999D01*
X97100000Y-106600000D02*
X97100000Y-106175736D01*
X97100000Y-106175736D02*
X98300000Y-104975736D01*
X98300000Y-104975736D02*
X98300000Y-104300000D01*
D25*
X106100000Y-168400000D02*
X126367000Y-168400000D01*
X126367000Y-168400000D02*
X128700000Y-166067000D01*
X128700000Y-105900000D02*
X127100000Y-104300000D01*
D26*
X86000000Y-132300000D02*
X86000000Y-130825000D01*
X86000000Y-130825000D02*
X85975000Y-130800000D01*
D25*
X93400000Y-168400000D02*
X106100000Y-168400000D01*
D24*
X105800000Y-163900000D02*
X105800000Y-168100000D01*
X105800000Y-168100000D02*
X106100000Y-168400000D01*
D25*
X91400000Y-166400000D02*
X93400000Y-168400000D01*
X89100000Y-164100000D02*
X91400000Y-166400000D01*
D26*
X67100000Y-149860000D02*
X66500000Y-149860000D01*
X67691000Y-149860000D02*
X67100000Y-149860000D01*
D25*
X49252000Y-161785000D02*
X49252000Y-158882000D01*
X49252000Y-158882000D02*
X48980000Y-158610000D01*
D27*
X48980000Y-158610000D02*
X51910000Y-158610000D01*
D28*
X59881000Y-158084000D02*
X59213000Y-158084000D01*
X59881000Y-160020000D02*
X59881000Y-158084000D01*
X59881000Y-158084000D02*
X60325000Y-157640000D01*
X58420000Y-148019000D02*
X56833000Y-148019000D01*
X56833000Y-148019000D02*
X56769000Y-147955000D01*
D24*
X112200000Y-145500000D02*
X113400000Y-144300000D01*
X101900003Y-120899999D02*
X102200002Y-120600000D01*
X101100000Y-120900000D02*
X101900003Y-120899999D01*
X100100000Y-121900000D02*
X101100000Y-120900000D01*
D28*
X60452000Y-148019000D02*
X60452000Y-146474000D01*
X60452000Y-146474000D02*
X61426000Y-145500000D01*
D24*
X118192000Y-122067736D02*
X120467736Y-122067736D01*
X120467736Y-122067736D02*
X120500000Y-122100000D01*
D28*
X61595000Y-157640000D02*
X61595000Y-159956000D01*
X61595000Y-159956000D02*
X61531000Y-160020000D01*
D27*
X48980000Y-154800000D02*
X51910000Y-154800000D01*
D28*
X59563000Y-154813000D02*
X58293000Y-154813000D01*
X61087000Y-154305000D02*
X60579000Y-154813000D01*
X60579000Y-154813000D02*
X59563000Y-154813000D01*
X62675000Y-149860000D02*
X61595000Y-150940000D01*
X61595000Y-150940000D02*
X61595000Y-152240000D01*
X61595000Y-153797000D02*
X61087000Y-154305000D01*
X61595000Y-152240000D02*
X61595000Y-153797000D01*
X64900000Y-162600000D02*
X64900000Y-159261000D01*
X64900000Y-159261000D02*
X64897000Y-159258000D01*
X63119000Y-159258000D02*
X64897000Y-159258000D01*
X64897000Y-159258000D02*
X66294000Y-159258000D01*
X66294000Y-159258000D02*
X67056000Y-158496000D01*
X67056000Y-158496000D02*
X67056000Y-156432000D01*
X62865000Y-157640000D02*
X62865000Y-159004000D01*
X62865000Y-159004000D02*
X63119000Y-159258000D01*
D27*
X44680000Y-158610000D02*
X41430000Y-158610000D01*
X41430000Y-158610000D02*
X38790000Y-155970000D01*
X38790000Y-155970000D02*
X35560000Y-155970000D01*
D25*
X45205000Y-161785000D02*
X47202000Y-161785000D01*
X44680000Y-158610000D02*
X44680000Y-161260000D01*
X44680000Y-161260000D02*
X45205000Y-161785000D01*
D27*
X44680000Y-154800000D02*
X44680000Y-158610000D01*
X44440000Y-158370000D02*
X44680000Y-158610000D01*
D26*
X114500000Y-135900000D02*
X114935000Y-136335000D01*
X114935000Y-136335000D02*
X116078000Y-136335000D01*
X118618000Y-136335000D02*
X119905000Y-136335000D01*
X119905000Y-136335000D02*
X120285000Y-136715000D01*
X118618000Y-137985000D02*
X119310000Y-137985000D01*
X119310000Y-137985000D02*
X120200000Y-138875000D01*
X114700000Y-138400000D02*
X115115000Y-137985000D01*
X115115000Y-137985000D02*
X116078000Y-137985000D01*
X114700000Y-139700000D02*
X114700000Y-138400000D01*
X97400000Y-146500000D02*
X97400000Y-148100032D01*
X86700000Y-141100000D02*
X91400000Y-141100000D01*
X86700000Y-129000000D02*
X89600000Y-129000000D01*
X95700000Y-117900000D02*
X95800000Y-117800000D01*
X90200000Y-117900000D02*
X95700000Y-117900000D01*
X90200000Y-117000000D02*
X92900000Y-117000000D01*
X86800000Y-142100000D02*
X90300000Y-142100000D01*
X118500000Y-127500000D02*
X118500000Y-128700000D01*
X98300000Y-130500000D02*
X101800000Y-130500000D01*
X87899992Y-140399992D02*
X87800000Y-140300000D01*
X90800000Y-140399992D02*
X87899992Y-140399992D01*
D28*
X64652000Y-149479000D02*
X64652000Y-151723000D01*
X64652000Y-151723000D02*
X64135000Y-152240000D01*
X64135000Y-157640000D02*
X64135000Y-152240000D01*
X64325000Y-152050000D02*
X64135000Y-152240000D01*
X62865000Y-152240000D02*
X64135000Y-152240000D01*
X60325000Y-152240000D02*
X60325000Y-149796000D01*
X60325000Y-149796000D02*
X60452000Y-149669000D01*
X58420000Y-149669000D02*
X60452000Y-149669000D01*
D26*
X96500000Y-148600000D02*
X96500000Y-146400006D01*
X89300000Y-120000000D02*
X93199996Y-120000000D01*
D29*
G36*
X97320657Y-103320657D02*
X97020427Y-103769983D01*
X96915000Y-104300000D01*
X97020427Y-104830017D01*
X97090006Y-104934150D01*
X96474210Y-105549946D01*
X96282367Y-105837061D01*
X96282367Y-105837062D01*
X96214999Y-106175736D01*
X96215000Y-106175741D01*
X96215000Y-106293178D01*
X96165162Y-106413201D01*
X96164838Y-106785167D01*
X96306883Y-107128943D01*
X96569673Y-107392192D01*
X96913201Y-107534838D01*
X97285167Y-107535162D01*
X97377497Y-107497012D01*
X113960881Y-107497012D01*
X113969287Y-108545247D01*
X114354257Y-109474647D01*
X114724978Y-109695416D01*
X116420395Y-108000000D01*
X116779605Y-108000000D01*
X118475022Y-109695416D01*
X118845743Y-109474647D01*
X119239119Y-108502988D01*
X119230713Y-107454753D01*
X118916428Y-106696000D01*
X122820560Y-106696000D01*
X122820560Y-108696000D01*
X122864838Y-108931317D01*
X123003910Y-109147441D01*
X123216110Y-109292431D01*
X123468000Y-109343440D01*
X126468000Y-109343440D01*
X126703317Y-109299162D01*
X126919441Y-109160090D01*
X127064431Y-108947890D01*
X127115440Y-108696000D01*
X127115440Y-106696000D01*
X127071162Y-106460683D01*
X126932090Y-106244559D01*
X126719890Y-106099569D01*
X126468000Y-106048560D01*
X123468000Y-106048560D01*
X123232683Y-106092838D01*
X123016559Y-106231910D01*
X122871569Y-106444110D01*
X122820560Y-106696000D01*
X118916428Y-106696000D01*
X118845743Y-106525353D01*
X118475022Y-106304584D01*
X116779605Y-108000000D01*
X116420395Y-108000000D01*
X114724978Y-106304584D01*
X114354257Y-106525353D01*
X113960881Y-107497012D01*
X97377497Y-107497012D01*
X97628943Y-107393117D01*
X97892192Y-107130327D01*
X98034838Y-106786799D01*
X98035095Y-106492221D01*
X98842315Y-105685000D01*
X106892629Y-105685000D01*
X106807808Y-105769673D01*
X106665162Y-106113201D01*
X106664838Y-106485167D01*
X106806883Y-106828943D01*
X107069673Y-107092192D01*
X107413201Y-107234838D01*
X107785167Y-107235162D01*
X108128943Y-107093117D01*
X108392192Y-106830327D01*
X108442566Y-106709013D01*
X108525787Y-106625792D01*
X108525790Y-106625790D01*
X108717633Y-106338675D01*
X108738870Y-106231910D01*
X108785001Y-106000000D01*
X108785000Y-105999995D01*
X108785000Y-105685000D01*
X115292554Y-105685000D01*
X115125353Y-105754257D01*
X114904584Y-106124978D01*
X116600000Y-107820395D01*
X118295416Y-106124978D01*
X118074647Y-105754257D01*
X117903579Y-105685000D01*
X126526314Y-105685000D01*
X127315000Y-106473686D01*
X127315000Y-119676517D01*
X127314421Y-119676632D01*
X127286799Y-119665162D01*
X126914833Y-119664838D01*
X126571057Y-119806883D01*
X126307808Y-120069673D01*
X126165162Y-120413201D01*
X126164838Y-120785167D01*
X126306883Y-121128943D01*
X126569673Y-121392192D01*
X126913201Y-121534838D01*
X127285167Y-121535162D01*
X127315000Y-121522835D01*
X127315000Y-163633976D01*
X127145743Y-163225353D01*
X126775022Y-163004584D01*
X125079605Y-164700000D01*
X125093748Y-164714142D01*
X124914142Y-164893748D01*
X124900000Y-164879605D01*
X123204584Y-166575022D01*
X123425353Y-166945743D01*
X123596421Y-167015000D01*
X106685000Y-167015000D01*
X106685000Y-164206822D01*
X106689073Y-164197012D01*
X122260881Y-164197012D01*
X122269287Y-165245247D01*
X122654257Y-166174647D01*
X123024978Y-166395416D01*
X124720395Y-164700000D01*
X123024978Y-163004584D01*
X122654257Y-163225353D01*
X122260881Y-164197012D01*
X106689073Y-164197012D01*
X106734838Y-164086799D01*
X106735162Y-163714833D01*
X106593117Y-163371057D01*
X106330327Y-163107808D01*
X105986799Y-162965162D01*
X105614833Y-162964838D01*
X105271057Y-163106883D01*
X105007808Y-163369673D01*
X104865162Y-163713201D01*
X104864838Y-164085167D01*
X104915000Y-164206569D01*
X104915000Y-167015000D01*
X93973686Y-167015000D01*
X90079343Y-163120657D01*
X89636828Y-162824978D01*
X123204584Y-162824978D01*
X124900000Y-164520395D01*
X126595416Y-162824978D01*
X126374647Y-162454257D01*
X125402988Y-162060881D01*
X124354753Y-162069287D01*
X123425353Y-162454257D01*
X123204584Y-162824978D01*
X89636828Y-162824978D01*
X89630016Y-162820427D01*
X89100000Y-162715000D01*
X88569984Y-162820427D01*
X88120657Y-163120657D01*
X87820427Y-163569984D01*
X87715000Y-164100000D01*
X87820427Y-164630016D01*
X88120657Y-165079343D01*
X92331314Y-169290000D01*
X30710000Y-169290000D01*
X30710000Y-167875022D01*
X32304584Y-167875022D01*
X32525353Y-168245743D01*
X33497012Y-168639119D01*
X34545247Y-168630713D01*
X35474647Y-168245743D01*
X35695416Y-167875022D01*
X34000000Y-166179605D01*
X32304584Y-167875022D01*
X30710000Y-167875022D01*
X30710000Y-165497012D01*
X31360881Y-165497012D01*
X31369287Y-166545247D01*
X31754257Y-167474647D01*
X32124978Y-167695416D01*
X33820395Y-166000000D01*
X34179605Y-166000000D01*
X35875022Y-167695416D01*
X36245743Y-167474647D01*
X36639119Y-166502988D01*
X36630713Y-165454753D01*
X36245743Y-164525353D01*
X35875022Y-164304584D01*
X34179605Y-166000000D01*
X33820395Y-166000000D01*
X32124978Y-164304584D01*
X31754257Y-164525353D01*
X31360881Y-165497012D01*
X30710000Y-165497012D01*
X30710000Y-164124978D01*
X32304584Y-164124978D01*
X34000000Y-165820395D01*
X35695416Y-164124978D01*
X35474647Y-163754257D01*
X34502988Y-163360881D01*
X33454753Y-163369287D01*
X32525353Y-163754257D01*
X32304584Y-164124978D01*
X30710000Y-164124978D01*
X30710000Y-155970000D01*
X33383173Y-155970000D01*
X33507630Y-156595687D01*
X33862053Y-157126120D01*
X34392486Y-157480543D01*
X35018173Y-157605000D01*
X38112760Y-157605000D01*
X40273878Y-159766117D01*
X40273880Y-159766120D01*
X40426096Y-159867827D01*
X40804312Y-160120543D01*
X41430000Y-160245001D01*
X41430005Y-160245000D01*
X43015025Y-160245000D01*
X43178110Y-160356431D01*
X43295000Y-160380102D01*
X43295000Y-161260000D01*
X43400427Y-161790017D01*
X43581413Y-162060881D01*
X43700657Y-162239343D01*
X44225657Y-162764343D01*
X44674983Y-163064573D01*
X45205000Y-163170000D01*
X47202000Y-163170000D01*
X47265143Y-163157440D01*
X47777000Y-163157440D01*
X48012317Y-163113162D01*
X48228441Y-162974090D01*
X48234377Y-162965402D01*
X48317302Y-163048327D01*
X48550691Y-163145000D01*
X48966250Y-163145000D01*
X49125000Y-162986250D01*
X49125000Y-161912000D01*
X49379000Y-161912000D01*
X49379000Y-162986250D01*
X49537750Y-163145000D01*
X49953309Y-163145000D01*
X50186698Y-163048327D01*
X50365327Y-162869699D01*
X50462000Y-162636310D01*
X50462000Y-162070750D01*
X50303250Y-161912000D01*
X49379000Y-161912000D01*
X49125000Y-161912000D01*
X49105000Y-161912000D01*
X49105000Y-161658000D01*
X49125000Y-161658000D01*
X49125000Y-160583750D01*
X49379000Y-160583750D01*
X49379000Y-161658000D01*
X50303250Y-161658000D01*
X50462000Y-161499250D01*
X50462000Y-160933690D01*
X50365327Y-160700301D01*
X50186698Y-160521673D01*
X49953309Y-160425000D01*
X49537750Y-160425000D01*
X49379000Y-160583750D01*
X49125000Y-160583750D01*
X48966250Y-160425000D01*
X48550691Y-160425000D01*
X48317302Y-160521673D01*
X48234748Y-160604226D01*
X48028890Y-160463569D01*
X47777000Y-160412560D01*
X47265143Y-160412560D01*
X47202000Y-160400000D01*
X46065000Y-160400000D01*
X46065000Y-160382038D01*
X46165317Y-160363162D01*
X46381441Y-160224090D01*
X46526431Y-160011890D01*
X46577440Y-159760000D01*
X46577440Y-158895750D01*
X47095000Y-158895750D01*
X47095000Y-159886310D01*
X47191673Y-160119699D01*
X47370302Y-160298327D01*
X47603691Y-160395000D01*
X48694250Y-160395000D01*
X48853000Y-160236250D01*
X48853000Y-158737000D01*
X49107000Y-158737000D01*
X49107000Y-160236250D01*
X49265750Y-160395000D01*
X50356309Y-160395000D01*
X50571777Y-160305750D01*
X58746000Y-160305750D01*
X58746000Y-160621310D01*
X58842673Y-160854699D01*
X59021302Y-161033327D01*
X59254691Y-161130000D01*
X59595250Y-161130000D01*
X59754000Y-160971250D01*
X59754000Y-160147000D01*
X58904750Y-160147000D01*
X58746000Y-160305750D01*
X50571777Y-160305750D01*
X50589698Y-160298327D01*
X50768327Y-160119699D01*
X50865000Y-159886310D01*
X50865000Y-158895750D01*
X50706250Y-158737000D01*
X49107000Y-158737000D01*
X48853000Y-158737000D01*
X47253750Y-158737000D01*
X47095000Y-158895750D01*
X46577440Y-158895750D01*
X46577440Y-157460000D01*
X46553674Y-157333690D01*
X47095000Y-157333690D01*
X47095000Y-158324250D01*
X47253750Y-158483000D01*
X48853000Y-158483000D01*
X48853000Y-156983750D01*
X49107000Y-156983750D01*
X49107000Y-158483000D01*
X50706250Y-158483000D01*
X50865000Y-158324250D01*
X50865000Y-157333690D01*
X50768327Y-157100301D01*
X50589698Y-156921673D01*
X50356309Y-156825000D01*
X49265750Y-156825000D01*
X49107000Y-156983750D01*
X48853000Y-156983750D01*
X48694250Y-156825000D01*
X47603691Y-156825000D01*
X47370302Y-156921673D01*
X47191673Y-157100301D01*
X47095000Y-157333690D01*
X46553674Y-157333690D01*
X46533162Y-157224683D01*
X46394090Y-157008559D01*
X46315000Y-156954519D01*
X46315000Y-156738691D01*
X59390000Y-156738691D01*
X59390000Y-157354250D01*
X59548750Y-157513000D01*
X60198000Y-157513000D01*
X60198000Y-156388750D01*
X60039250Y-156230000D01*
X59898690Y-156230000D01*
X59665301Y-156326673D01*
X59486673Y-156505302D01*
X59390000Y-156738691D01*
X46315000Y-156738691D01*
X46315000Y-156456844D01*
X46381441Y-156414090D01*
X46526431Y-156201890D01*
X46577440Y-155950000D01*
X46577440Y-153650000D01*
X47082560Y-153650000D01*
X47082560Y-155950000D01*
X47126838Y-156185317D01*
X47265910Y-156401441D01*
X47478110Y-156546431D01*
X47730000Y-156597440D01*
X50230000Y-156597440D01*
X50465317Y-156553162D01*
X50648946Y-156435000D01*
X51910000Y-156435000D01*
X52535687Y-156310543D01*
X53066120Y-155956120D01*
X53420543Y-155425687D01*
X53545000Y-154800000D01*
X53420543Y-154174313D01*
X53066120Y-153643880D01*
X52535687Y-153289457D01*
X51910000Y-153165000D01*
X50644975Y-153165000D01*
X50481890Y-153053569D01*
X50230000Y-153002560D01*
X47730000Y-153002560D01*
X47494683Y-153046838D01*
X47278559Y-153185910D01*
X47133569Y-153398110D01*
X47082560Y-153650000D01*
X46577440Y-153650000D01*
X46533162Y-153414683D01*
X46394090Y-153198559D01*
X46181890Y-153053569D01*
X45930000Y-153002560D01*
X43430000Y-153002560D01*
X43194683Y-153046838D01*
X42978559Y-153185910D01*
X42833569Y-153398110D01*
X42782560Y-153650000D01*
X42782560Y-155950000D01*
X42826838Y-156185317D01*
X42965910Y-156401441D01*
X43045000Y-156455481D01*
X43045000Y-156953156D01*
X43011054Y-156975000D01*
X42107239Y-156975000D01*
X39946120Y-154813880D01*
X39415688Y-154459457D01*
X38790000Y-154334999D01*
X38789995Y-154335000D01*
X35018173Y-154335000D01*
X34392486Y-154459457D01*
X33862053Y-154813880D01*
X33507630Y-155344313D01*
X33383173Y-155970000D01*
X30710000Y-155970000D01*
X30710000Y-150970000D01*
X33383173Y-150970000D01*
X33507630Y-151595687D01*
X33862053Y-152126120D01*
X34392486Y-152480543D01*
X35018173Y-152605000D01*
X36101827Y-152605000D01*
X36727514Y-152480543D01*
X37257947Y-152126120D01*
X37612370Y-151595687D01*
X37736827Y-150970000D01*
X37612370Y-150344313D01*
X37257947Y-149813880D01*
X36727514Y-149459457D01*
X36101827Y-149335000D01*
X35018173Y-149335000D01*
X34392486Y-149459457D01*
X33862053Y-149813880D01*
X33507630Y-150344313D01*
X33383173Y-150970000D01*
X30710000Y-150970000D01*
X30710000Y-149169000D01*
X57297560Y-149169000D01*
X57297560Y-150169000D01*
X57341838Y-150404317D01*
X57480910Y-150620441D01*
X57693110Y-150765431D01*
X57945000Y-150816440D01*
X58895000Y-150816440D01*
X59130317Y-150772162D01*
X59346441Y-150633090D01*
X59366317Y-150604000D01*
X59390000Y-150604000D01*
X59390000Y-151403569D01*
X59377560Y-151465000D01*
X59377560Y-153015000D01*
X59421838Y-153250317D01*
X59560910Y-153466441D01*
X59773110Y-153611431D01*
X60025000Y-153662440D01*
X60407271Y-153662440D01*
X60191711Y-153878000D01*
X59563816Y-153878000D01*
X59377833Y-153877838D01*
X59377441Y-153878000D01*
X58928816Y-153878000D01*
X58742833Y-153877838D01*
X58742441Y-153878000D01*
X58293816Y-153878000D01*
X58107833Y-153877838D01*
X57764057Y-154019883D01*
X57500808Y-154282673D01*
X57358162Y-154626201D01*
X57357838Y-154998167D01*
X57499883Y-155341943D01*
X57762673Y-155605192D01*
X58106201Y-155747838D01*
X58478167Y-155748162D01*
X58478559Y-155748000D01*
X58927184Y-155748000D01*
X59113167Y-155748162D01*
X59113559Y-155748000D01*
X59562184Y-155748000D01*
X59748167Y-155748162D01*
X59748559Y-155748000D01*
X60579000Y-155748000D01*
X60936809Y-155676827D01*
X61240145Y-155474145D01*
X61748142Y-154966147D01*
X61748145Y-154966145D01*
X62256142Y-154458147D01*
X62256145Y-154458145D01*
X62458827Y-154154809D01*
X62530000Y-153797000D01*
X62530000Y-153655352D01*
X62565000Y-153662440D01*
X63165000Y-153662440D01*
X63200000Y-153655854D01*
X63200000Y-156224648D01*
X63165000Y-156217560D01*
X62565000Y-156217560D01*
X62329683Y-156261838D01*
X62230472Y-156325678D01*
X62146890Y-156268569D01*
X61895000Y-156217560D01*
X61295000Y-156217560D01*
X61059683Y-156261838D01*
X60969020Y-156320178D01*
X60751310Y-156230000D01*
X60610750Y-156230000D01*
X60452000Y-156388750D01*
X60452000Y-157513000D01*
X60472000Y-157513000D01*
X60472000Y-157767000D01*
X60452000Y-157767000D01*
X60452000Y-157787000D01*
X60198000Y-157787000D01*
X60198000Y-157767000D01*
X59548750Y-157767000D01*
X59390000Y-157925750D01*
X59390000Y-158541309D01*
X59486673Y-158774698D01*
X59665301Y-158953327D01*
X59753998Y-158990067D01*
X59753998Y-159068748D01*
X59595250Y-158910000D01*
X59254691Y-158910000D01*
X59021302Y-159006673D01*
X58842673Y-159185301D01*
X58746000Y-159418690D01*
X58746000Y-159734250D01*
X58904750Y-159893000D01*
X59754000Y-159893000D01*
X59754000Y-159873000D01*
X60008000Y-159873000D01*
X60008000Y-159893000D01*
X60028000Y-159893000D01*
X60028000Y-160147000D01*
X60008000Y-160147000D01*
X60008000Y-160971250D01*
X60166750Y-161130000D01*
X60507309Y-161130000D01*
X60711670Y-161045351D01*
X60779110Y-161091431D01*
X61031000Y-161142440D01*
X62031000Y-161142440D01*
X62266317Y-161098162D01*
X62482441Y-160959090D01*
X62627431Y-160746890D01*
X62678440Y-160495000D01*
X62678440Y-160066535D01*
X62761191Y-160121827D01*
X63119000Y-160193000D01*
X63965000Y-160193000D01*
X63965000Y-161399184D01*
X63964838Y-161585167D01*
X63965000Y-161585559D01*
X63965000Y-161999184D01*
X63964838Y-162185167D01*
X63965000Y-162185559D01*
X63965000Y-162599184D01*
X63964838Y-162785167D01*
X64106883Y-163128943D01*
X64369673Y-163392192D01*
X64713201Y-163534838D01*
X65085167Y-163535162D01*
X65428943Y-163393117D01*
X65692192Y-163130327D01*
X65834838Y-162786799D01*
X65835162Y-162414833D01*
X65835000Y-162414441D01*
X65835000Y-162000816D01*
X65835162Y-161814833D01*
X65835000Y-161814441D01*
X65835000Y-161400816D01*
X65835162Y-161214833D01*
X65835000Y-161214441D01*
X65835000Y-160193000D01*
X66294000Y-160193000D01*
X66651809Y-160121827D01*
X66955145Y-159919145D01*
X67717145Y-159157145D01*
X67919827Y-158853809D01*
X67991000Y-158496000D01*
X67991000Y-158313446D01*
X68141317Y-158285162D01*
X68357441Y-158146090D01*
X68502431Y-157933890D01*
X68553440Y-157682000D01*
X68553440Y-155182000D01*
X68509162Y-154946683D01*
X68370090Y-154730559D01*
X68157890Y-154585569D01*
X67906000Y-154534560D01*
X66206000Y-154534560D01*
X65970683Y-154578838D01*
X65754559Y-154717910D01*
X65609569Y-154930110D01*
X65558560Y-155182000D01*
X65558560Y-157682000D01*
X65602838Y-157917317D01*
X65741910Y-158133441D01*
X65952428Y-158277282D01*
X65906710Y-158323000D01*
X65082440Y-158323000D01*
X65082440Y-156865000D01*
X65070000Y-156798887D01*
X65070000Y-153076431D01*
X65082440Y-153015000D01*
X65082440Y-152717750D01*
X65571000Y-152717750D01*
X65571000Y-153808309D01*
X65667673Y-154041698D01*
X65846301Y-154220327D01*
X66079690Y-154317000D01*
X66770250Y-154317000D01*
X66929000Y-154158250D01*
X66929000Y-152559000D01*
X67183000Y-152559000D01*
X67183000Y-154158250D01*
X67341750Y-154317000D01*
X68032310Y-154317000D01*
X68265699Y-154220327D01*
X68444327Y-154041698D01*
X68541000Y-153808309D01*
X68541000Y-152717750D01*
X68382250Y-152559000D01*
X67183000Y-152559000D01*
X66929000Y-152559000D01*
X65729750Y-152559000D01*
X65571000Y-152717750D01*
X65082440Y-152717750D01*
X65082440Y-152614850D01*
X65313145Y-152384145D01*
X65515827Y-152080809D01*
X65571000Y-151803437D01*
X65571000Y-152146250D01*
X65729750Y-152305000D01*
X66929000Y-152305000D01*
X66929000Y-150705750D01*
X67183000Y-150705750D01*
X67183000Y-152305000D01*
X68382250Y-152305000D01*
X68541000Y-152146250D01*
X68541000Y-151055691D01*
X68444327Y-150822302D01*
X68265699Y-150643673D01*
X68032310Y-150547000D01*
X67341750Y-150547000D01*
X67183000Y-150705750D01*
X66929000Y-150705750D01*
X66770250Y-150547000D01*
X66079690Y-150547000D01*
X65846301Y-150643673D01*
X65667673Y-150822302D01*
X65587000Y-151017064D01*
X65587000Y-150726931D01*
X65678441Y-150668090D01*
X65823431Y-150455890D01*
X65874440Y-150204000D01*
X65874440Y-149985167D01*
X99964838Y-149985167D01*
X100106883Y-150328943D01*
X100369673Y-150592192D01*
X100713201Y-150734838D01*
X101085167Y-150735162D01*
X101206569Y-150685000D01*
X102999995Y-150685000D01*
X103000000Y-150685001D01*
X103324558Y-150620441D01*
X103338675Y-150617633D01*
X103625790Y-150425790D01*
X103708835Y-150342744D01*
X103828943Y-150293117D01*
X104092192Y-150030327D01*
X104234838Y-149686799D01*
X104235162Y-149314833D01*
X104093117Y-148971057D01*
X103830327Y-148707808D01*
X103486799Y-148565162D01*
X103114833Y-148564838D01*
X102771057Y-148706883D01*
X102562576Y-148915000D01*
X101206822Y-148915000D01*
X101086799Y-148865162D01*
X100714833Y-148864838D01*
X100371057Y-149006883D01*
X100107808Y-149269673D01*
X99965162Y-149613201D01*
X99964838Y-149985167D01*
X65874440Y-149985167D01*
X65874440Y-148754000D01*
X65830162Y-148518683D01*
X65691090Y-148302559D01*
X65478890Y-148157569D01*
X65227000Y-148106560D01*
X64077000Y-148106560D01*
X63841683Y-148150838D01*
X63625559Y-148289910D01*
X63624610Y-148291299D01*
X63428890Y-148157569D01*
X63177000Y-148106560D01*
X62027000Y-148106560D01*
X61791683Y-148150838D01*
X61575559Y-148289910D01*
X61574440Y-148291548D01*
X61574440Y-147519000D01*
X61530162Y-147283683D01*
X61391090Y-147067559D01*
X61387000Y-147064764D01*
X61387000Y-146861290D01*
X61663117Y-146585173D01*
X95564838Y-146585173D01*
X95706883Y-146928949D01*
X95765000Y-146987168D01*
X95765000Y-148012581D01*
X95707808Y-148069673D01*
X95565162Y-148413201D01*
X95564838Y-148785167D01*
X95706883Y-149128943D01*
X95969673Y-149392192D01*
X96313201Y-149534838D01*
X96685167Y-149535162D01*
X97028943Y-149393117D01*
X97292192Y-149130327D01*
X97331787Y-149034973D01*
X97585167Y-149035194D01*
X97928943Y-148893149D01*
X98192192Y-148630359D01*
X98334838Y-148286831D01*
X98335162Y-147914865D01*
X98193117Y-147571089D01*
X98135000Y-147512870D01*
X98135000Y-147087419D01*
X98192192Y-147030327D01*
X98334838Y-146686799D01*
X98335162Y-146314833D01*
X98193117Y-145971057D01*
X97930327Y-145707808D01*
X97875802Y-145685167D01*
X111264838Y-145685167D01*
X111406883Y-146028943D01*
X111669673Y-146292192D01*
X112013201Y-146434838D01*
X112385167Y-146435162D01*
X112728943Y-146293117D01*
X112992192Y-146030327D01*
X113042566Y-145909014D01*
X113808834Y-145142745D01*
X113928943Y-145093117D01*
X114192192Y-144830327D01*
X114312746Y-144540000D01*
X122791173Y-144540000D01*
X122915630Y-145165687D01*
X123270053Y-145696120D01*
X123800486Y-146050543D01*
X124426173Y-146175000D01*
X125509827Y-146175000D01*
X126135514Y-146050543D01*
X126665947Y-145696120D01*
X127020370Y-145165687D01*
X127144827Y-144540000D01*
X127020370Y-143914313D01*
X126665947Y-143383880D01*
X126135514Y-143029457D01*
X125509827Y-142905000D01*
X124426173Y-142905000D01*
X123800486Y-143029457D01*
X123270053Y-143383880D01*
X122915630Y-143914313D01*
X122791173Y-144540000D01*
X114312746Y-144540000D01*
X114334838Y-144486799D01*
X114335162Y-144114833D01*
X114193117Y-143771057D01*
X113930327Y-143507808D01*
X113586799Y-143365162D01*
X113214833Y-143364838D01*
X112871057Y-143506883D01*
X112607808Y-143769673D01*
X112557434Y-143890987D01*
X111791164Y-144657256D01*
X111671057Y-144706883D01*
X111407808Y-144969673D01*
X111265162Y-145313201D01*
X111264838Y-145685167D01*
X97875802Y-145685167D01*
X97586799Y-145565162D01*
X97214833Y-145564838D01*
X97053833Y-145631361D01*
X97030327Y-145607814D01*
X96686799Y-145465168D01*
X96314833Y-145464844D01*
X95971057Y-145606889D01*
X95707808Y-145869679D01*
X95565162Y-146213207D01*
X95564838Y-146585173D01*
X61663117Y-146585173D01*
X62086854Y-146161436D01*
X62218192Y-146030327D01*
X62360838Y-145686799D01*
X62361162Y-145314833D01*
X62219117Y-144971057D01*
X61956327Y-144707808D01*
X61612799Y-144565162D01*
X61240833Y-144564838D01*
X60897057Y-144706883D01*
X60633808Y-144969673D01*
X60633645Y-144970065D01*
X59790855Y-145812855D01*
X59588173Y-146116191D01*
X59517000Y-146474000D01*
X59517000Y-147067437D01*
X59441217Y-147178349D01*
X59433327Y-147159302D01*
X59254699Y-146980673D01*
X59021310Y-146884000D01*
X58705750Y-146884000D01*
X58547000Y-147042750D01*
X58547000Y-147892000D01*
X58567000Y-147892000D01*
X58567000Y-148146000D01*
X58547000Y-148146000D01*
X58547000Y-148166000D01*
X58293000Y-148166000D01*
X58293000Y-148146000D01*
X57468750Y-148146000D01*
X57310000Y-148304750D01*
X57310000Y-148645309D01*
X57394649Y-148849670D01*
X57348569Y-148917110D01*
X57297560Y-149169000D01*
X30710000Y-149169000D01*
X30710000Y-145970000D01*
X33383173Y-145970000D01*
X33507630Y-146595687D01*
X33862053Y-147126120D01*
X34392486Y-147480543D01*
X35018173Y-147605000D01*
X36101827Y-147605000D01*
X36727514Y-147480543D01*
X36858994Y-147392691D01*
X57310000Y-147392691D01*
X57310000Y-147733250D01*
X57468750Y-147892000D01*
X58293000Y-147892000D01*
X58293000Y-147042750D01*
X58134250Y-146884000D01*
X57818690Y-146884000D01*
X57585301Y-146980673D01*
X57406673Y-147159302D01*
X57310000Y-147392691D01*
X36858994Y-147392691D01*
X37257947Y-147126120D01*
X37612370Y-146595687D01*
X37736827Y-145970000D01*
X37612370Y-145344313D01*
X37257947Y-144813880D01*
X36727514Y-144459457D01*
X36101827Y-144335000D01*
X35018173Y-144335000D01*
X34392486Y-144459457D01*
X33862053Y-144813880D01*
X33507630Y-145344313D01*
X33383173Y-145970000D01*
X30710000Y-145970000D01*
X30710000Y-139970000D01*
X33412560Y-139970000D01*
X33412560Y-141970000D01*
X33456838Y-142205317D01*
X33595910Y-142421441D01*
X33808110Y-142566431D01*
X34060000Y-142617440D01*
X37060000Y-142617440D01*
X37295317Y-142573162D01*
X37511441Y-142434090D01*
X37656431Y-142221890D01*
X37707440Y-141970000D01*
X37707440Y-141285167D01*
X85764838Y-141285167D01*
X85906883Y-141628943D01*
X85960778Y-141682932D01*
X85865162Y-141913201D01*
X85864838Y-142285167D01*
X86006883Y-142628943D01*
X86269673Y-142892192D01*
X86613201Y-143034838D01*
X86985167Y-143035162D01*
X87328943Y-142893117D01*
X87387162Y-142835000D01*
X89712581Y-142835000D01*
X89769673Y-142892192D01*
X90113201Y-143034838D01*
X90485167Y-143035162D01*
X90828943Y-142893117D01*
X91092192Y-142630327D01*
X91234838Y-142286799D01*
X91235057Y-142034857D01*
X91585167Y-142035162D01*
X91928943Y-141893117D01*
X92192192Y-141630327D01*
X92334838Y-141286799D01*
X92335162Y-140914833D01*
X92193117Y-140571057D01*
X91930327Y-140307808D01*
X91735152Y-140226764D01*
X91735162Y-140214825D01*
X91593117Y-139871049D01*
X91330327Y-139607800D01*
X90986799Y-139465154D01*
X90614833Y-139464830D01*
X90271057Y-139606875D01*
X90212838Y-139664992D01*
X88487237Y-139664992D01*
X88330327Y-139507808D01*
X87986799Y-139365162D01*
X87614833Y-139364838D01*
X87271057Y-139506883D01*
X87007808Y-139769673D01*
X86865162Y-140113201D01*
X86865117Y-140165143D01*
X86514833Y-140164838D01*
X86171057Y-140306883D01*
X85907808Y-140569673D01*
X85765162Y-140913201D01*
X85764838Y-141285167D01*
X37707440Y-141285167D01*
X37707440Y-139986662D01*
X48082249Y-139986662D01*
X48302154Y-140518872D01*
X48708987Y-140926415D01*
X49240811Y-141147248D01*
X49816662Y-141147751D01*
X50348872Y-140927846D01*
X50756415Y-140521013D01*
X50799834Y-140416449D01*
X50842154Y-140518872D01*
X51248987Y-140926415D01*
X51780811Y-141147248D01*
X52356662Y-141147751D01*
X52888872Y-140927846D01*
X53296415Y-140521013D01*
X53339834Y-140416449D01*
X53382154Y-140518872D01*
X53788987Y-140926415D01*
X54320811Y-141147248D01*
X54896662Y-141147751D01*
X55428872Y-140927846D01*
X55836415Y-140521013D01*
X56057248Y-139989189D01*
X56057250Y-139986662D01*
X58242249Y-139986662D01*
X58462154Y-140518872D01*
X58868987Y-140926415D01*
X59400811Y-141147248D01*
X59976662Y-141147751D01*
X60508872Y-140927846D01*
X60916415Y-140521013D01*
X61137248Y-139989189D01*
X61137751Y-139413338D01*
X60917846Y-138881128D01*
X60511013Y-138473585D01*
X59979189Y-138252752D01*
X59403338Y-138252249D01*
X58871128Y-138472154D01*
X58463585Y-138878987D01*
X58242752Y-139410811D01*
X58242249Y-139986662D01*
X56057250Y-139986662D01*
X56057751Y-139413338D01*
X55837846Y-138881128D01*
X55431013Y-138473585D01*
X54899189Y-138252752D01*
X54323338Y-138252249D01*
X53791128Y-138472154D01*
X53383585Y-138878987D01*
X53340166Y-138983551D01*
X53297846Y-138881128D01*
X52891013Y-138473585D01*
X52359189Y-138252752D01*
X51783338Y-138252249D01*
X51251128Y-138472154D01*
X50843585Y-138878987D01*
X50800166Y-138983551D01*
X50757846Y-138881128D01*
X50351013Y-138473585D01*
X49819189Y-138252752D01*
X49243338Y-138252249D01*
X48711128Y-138472154D01*
X48303585Y-138878987D01*
X48082752Y-139410811D01*
X48082249Y-139986662D01*
X37707440Y-139986662D01*
X37707440Y-139970000D01*
X37663162Y-139734683D01*
X37524090Y-139518559D01*
X37311890Y-139373569D01*
X37060000Y-139322560D01*
X34060000Y-139322560D01*
X33824683Y-139366838D01*
X33608559Y-139505910D01*
X33463569Y-139718110D01*
X33412560Y-139970000D01*
X30710000Y-139970000D01*
X30710000Y-134460000D01*
X33383173Y-134460000D01*
X33507630Y-135085687D01*
X33862053Y-135616120D01*
X34392486Y-135970543D01*
X35018173Y-136095000D01*
X36101827Y-136095000D01*
X36151260Y-136085167D01*
X113564838Y-136085167D01*
X113706883Y-136428943D01*
X113969673Y-136692192D01*
X114313201Y-136834838D01*
X114395463Y-136834910D01*
X114415277Y-136854724D01*
X114627120Y-136996272D01*
X114653728Y-137014051D01*
X114935000Y-137070000D01*
X114999778Y-137070000D01*
X114999838Y-137070317D01*
X115057051Y-137159228D01*
X115006569Y-137233110D01*
X114998454Y-137273183D01*
X114833728Y-137305949D01*
X114595277Y-137465276D01*
X114180277Y-137880277D01*
X114020949Y-138118728D01*
X113965000Y-138400000D01*
X113965000Y-139112581D01*
X113907808Y-139169673D01*
X113765162Y-139513201D01*
X113764838Y-139885167D01*
X113906883Y-140228943D01*
X114169673Y-140492192D01*
X114513201Y-140634838D01*
X114885167Y-140635162D01*
X115228943Y-140493117D01*
X115492192Y-140230327D01*
X115634838Y-139886799D01*
X115635162Y-139514833D01*
X115493117Y-139171057D01*
X115435000Y-139112838D01*
X115435000Y-139098419D01*
X115603000Y-139132440D01*
X116553000Y-139132440D01*
X116788317Y-139088162D01*
X117004441Y-138949090D01*
X117149431Y-138736890D01*
X117200440Y-138485000D01*
X117200440Y-137485000D01*
X117156162Y-137249683D01*
X117098949Y-137160772D01*
X117149431Y-137086890D01*
X117200440Y-136835000D01*
X117200440Y-135835000D01*
X117495560Y-135835000D01*
X117495560Y-136835000D01*
X117539838Y-137070317D01*
X117597051Y-137159228D01*
X117546569Y-137233110D01*
X117495560Y-137485000D01*
X117495560Y-138485000D01*
X117539838Y-138720317D01*
X117678910Y-138936441D01*
X117891110Y-139081431D01*
X118143000Y-139132440D01*
X119093000Y-139132440D01*
X119280150Y-139097225D01*
X119406883Y-139403943D01*
X119669673Y-139667192D01*
X120013201Y-139809838D01*
X120385167Y-139810162D01*
X120728943Y-139668117D01*
X120857283Y-139540000D01*
X122791173Y-139540000D01*
X122915630Y-140165687D01*
X123270053Y-140696120D01*
X123800486Y-141050543D01*
X124426173Y-141175000D01*
X125509827Y-141175000D01*
X126135514Y-141050543D01*
X126665947Y-140696120D01*
X127020370Y-140165687D01*
X127144827Y-139540000D01*
X127020370Y-138914313D01*
X126665947Y-138383880D01*
X126135514Y-138029457D01*
X125509827Y-137905000D01*
X124426173Y-137905000D01*
X123800486Y-138029457D01*
X123270053Y-138383880D01*
X122915630Y-138914313D01*
X122791173Y-139540000D01*
X120857283Y-139540000D01*
X120992192Y-139405327D01*
X121134838Y-139061799D01*
X121135162Y-138689833D01*
X120993117Y-138346057D01*
X120730327Y-138082808D01*
X120386799Y-137940162D01*
X120304537Y-137940090D01*
X119954695Y-137590249D01*
X120098201Y-137649838D01*
X120470167Y-137650162D01*
X120813943Y-137508117D01*
X121077192Y-137245327D01*
X121219838Y-136901799D01*
X121220162Y-136529833D01*
X121078117Y-136186057D01*
X120815327Y-135922808D01*
X120471799Y-135780162D01*
X120372040Y-135780075D01*
X120186272Y-135655949D01*
X119905000Y-135600000D01*
X119696222Y-135600000D01*
X119696162Y-135599683D01*
X119557090Y-135383559D01*
X119344890Y-135238569D01*
X119093000Y-135187560D01*
X118143000Y-135187560D01*
X117907683Y-135231838D01*
X117691559Y-135370910D01*
X117546569Y-135583110D01*
X117495560Y-135835000D01*
X117200440Y-135835000D01*
X117156162Y-135599683D01*
X117017090Y-135383559D01*
X116804890Y-135238569D01*
X116553000Y-135187560D01*
X115603000Y-135187560D01*
X115367683Y-135231838D01*
X115237661Y-135315505D01*
X115030327Y-135107808D01*
X114686799Y-134965162D01*
X114314833Y-134964838D01*
X113971057Y-135106883D01*
X113707808Y-135369673D01*
X113565162Y-135713201D01*
X113564838Y-136085167D01*
X36151260Y-136085167D01*
X36727514Y-135970543D01*
X37257947Y-135616120D01*
X37612370Y-135085687D01*
X37647980Y-134906662D01*
X48082249Y-134906662D01*
X48302154Y-135438872D01*
X48708987Y-135846415D01*
X49240811Y-136067248D01*
X49816662Y-136067751D01*
X50348872Y-135847846D01*
X50756415Y-135441013D01*
X50799834Y-135336449D01*
X50842154Y-135438872D01*
X51248987Y-135846415D01*
X51780811Y-136067248D01*
X52356662Y-136067751D01*
X52888872Y-135847846D01*
X53296415Y-135441013D01*
X53339834Y-135336449D01*
X53382154Y-135438872D01*
X53788987Y-135846415D01*
X54320811Y-136067248D01*
X54896662Y-136067751D01*
X55428872Y-135847846D01*
X55836415Y-135441013D01*
X56057248Y-134909189D01*
X56057250Y-134906662D01*
X58242249Y-134906662D01*
X58462154Y-135438872D01*
X58868987Y-135846415D01*
X59400811Y-136067248D01*
X59976662Y-136067751D01*
X60508872Y-135847846D01*
X60916415Y-135441013D01*
X61137248Y-134909189D01*
X61137570Y-134540000D01*
X122791173Y-134540000D01*
X122915630Y-135165687D01*
X123270053Y-135696120D01*
X123800486Y-136050543D01*
X124426173Y-136175000D01*
X125509827Y-136175000D01*
X126135514Y-136050543D01*
X126665947Y-135696120D01*
X127020370Y-135165687D01*
X127144827Y-134540000D01*
X127020370Y-133914313D01*
X126665947Y-133383880D01*
X126135514Y-133029457D01*
X125509827Y-132905000D01*
X124426173Y-132905000D01*
X123800486Y-133029457D01*
X123270053Y-133383880D01*
X122915630Y-133914313D01*
X122791173Y-134540000D01*
X61137570Y-134540000D01*
X61137751Y-134333338D01*
X60917846Y-133801128D01*
X60511013Y-133393585D01*
X59979189Y-133172752D01*
X59403338Y-133172249D01*
X58871128Y-133392154D01*
X58463585Y-133798987D01*
X58242752Y-134330811D01*
X58242249Y-134906662D01*
X56057250Y-134906662D01*
X56057751Y-134333338D01*
X55837846Y-133801128D01*
X55431013Y-133393585D01*
X54899189Y-133172752D01*
X54323338Y-133172249D01*
X53791128Y-133392154D01*
X53383585Y-133798987D01*
X53340166Y-133903551D01*
X53297846Y-133801128D01*
X52891013Y-133393585D01*
X52359189Y-133172752D01*
X51783338Y-133172249D01*
X51251128Y-133392154D01*
X50843585Y-133798987D01*
X50800166Y-133903551D01*
X50757846Y-133801128D01*
X50351013Y-133393585D01*
X49819189Y-133172752D01*
X49243338Y-133172249D01*
X48711128Y-133392154D01*
X48303585Y-133798987D01*
X48082752Y-134330811D01*
X48082249Y-134906662D01*
X37647980Y-134906662D01*
X37736827Y-134460000D01*
X37612370Y-133834313D01*
X37257947Y-133303880D01*
X36727514Y-132949457D01*
X36101827Y-132825000D01*
X35018173Y-132825000D01*
X34392486Y-132949457D01*
X33862053Y-133303880D01*
X33507630Y-133834313D01*
X33383173Y-134460000D01*
X30710000Y-134460000D01*
X30710000Y-129460000D01*
X33383173Y-129460000D01*
X33507630Y-130085687D01*
X33862053Y-130616120D01*
X34392486Y-130970543D01*
X35018173Y-131095000D01*
X36101827Y-131095000D01*
X36727514Y-130970543D01*
X37257947Y-130616120D01*
X37612370Y-130085687D01*
X37736827Y-129460000D01*
X37612370Y-128834313D01*
X37426851Y-128556662D01*
X48082249Y-128556662D01*
X48302154Y-129088872D01*
X48708987Y-129496415D01*
X49240811Y-129717248D01*
X49816662Y-129717751D01*
X50348872Y-129497846D01*
X50756415Y-129091013D01*
X50799834Y-128986449D01*
X50842154Y-129088872D01*
X51248987Y-129496415D01*
X51780811Y-129717248D01*
X52356662Y-129717751D01*
X52888872Y-129497846D01*
X53296415Y-129091013D01*
X53339834Y-128986449D01*
X53382154Y-129088872D01*
X53788987Y-129496415D01*
X54320811Y-129717248D01*
X54896662Y-129717751D01*
X55428872Y-129497846D01*
X55836415Y-129091013D01*
X56057248Y-128559189D01*
X56057250Y-128556662D01*
X58242249Y-128556662D01*
X58462154Y-129088872D01*
X58868987Y-129496415D01*
X59400811Y-129717248D01*
X59976662Y-129717751D01*
X60508872Y-129497846D01*
X60916415Y-129091013D01*
X61037254Y-128800000D01*
X84414999Y-128800000D01*
X84415000Y-128800005D01*
X84415000Y-130099995D01*
X84414999Y-130100000D01*
X84471190Y-130382484D01*
X84482367Y-130438675D01*
X84638937Y-130673000D01*
X84674210Y-130725790D01*
X84827560Y-130879140D01*
X84827560Y-131275000D01*
X84871838Y-131510317D01*
X85010910Y-131726441D01*
X85178275Y-131840796D01*
X85065162Y-132113201D01*
X85064838Y-132485167D01*
X85206883Y-132828943D01*
X85469673Y-133092192D01*
X85813201Y-133234838D01*
X86185167Y-133235162D01*
X86528943Y-133093117D01*
X86792192Y-132830327D01*
X86934838Y-132486799D01*
X86935162Y-132114833D01*
X86819933Y-131835956D01*
X86998691Y-131910000D01*
X87339250Y-131910000D01*
X87498000Y-131751250D01*
X87498000Y-130927000D01*
X87752000Y-130927000D01*
X87752000Y-131751250D01*
X87910750Y-131910000D01*
X88251309Y-131910000D01*
X88484698Y-131813327D01*
X88663327Y-131634699D01*
X88760000Y-131401310D01*
X88760000Y-131085750D01*
X88601250Y-130927000D01*
X87752000Y-130927000D01*
X87498000Y-130927000D01*
X87478000Y-130927000D01*
X87478000Y-130685167D01*
X97364838Y-130685167D01*
X97506883Y-131028943D01*
X97769673Y-131292192D01*
X98113201Y-131434838D01*
X98485167Y-131435162D01*
X98828943Y-131293117D01*
X98887162Y-131235000D01*
X101212581Y-131235000D01*
X101269673Y-131292192D01*
X101613201Y-131434838D01*
X101985167Y-131435162D01*
X102328943Y-131293117D01*
X102592192Y-131030327D01*
X102734838Y-130686799D01*
X102735162Y-130314833D01*
X102593117Y-129971057D01*
X102330327Y-129707808D01*
X101986799Y-129565162D01*
X101614833Y-129564838D01*
X101271057Y-129706883D01*
X101212838Y-129765000D01*
X98887419Y-129765000D01*
X98830327Y-129707808D01*
X98486799Y-129565162D01*
X98114833Y-129564838D01*
X97771057Y-129706883D01*
X97507808Y-129969673D01*
X97365162Y-130313201D01*
X97364838Y-130685167D01*
X87478000Y-130685167D01*
X87478000Y-130673000D01*
X87498000Y-130673000D01*
X87498000Y-130653000D01*
X87752000Y-130653000D01*
X87752000Y-130673000D01*
X88601250Y-130673000D01*
X88760000Y-130514250D01*
X88760000Y-130198690D01*
X88663327Y-129965301D01*
X88484698Y-129786673D01*
X88359948Y-129735000D01*
X89012581Y-129735000D01*
X89069673Y-129792192D01*
X89413201Y-129934838D01*
X89785167Y-129935162D01*
X90128943Y-129793117D01*
X90392192Y-129530327D01*
X90534838Y-129186799D01*
X90535162Y-128814833D01*
X90481516Y-128684999D01*
X91599996Y-128684999D01*
X91600001Y-128685000D01*
X91882485Y-128628809D01*
X91938676Y-128617632D01*
X92225791Y-128425789D01*
X92225792Y-128425788D01*
X92308835Y-128342744D01*
X92428943Y-128293117D01*
X92692192Y-128030327D01*
X92834838Y-127686799D01*
X92834839Y-127685167D01*
X117564838Y-127685167D01*
X117706883Y-128028943D01*
X117765000Y-128087162D01*
X117765000Y-128112581D01*
X117707808Y-128169673D01*
X117565162Y-128513201D01*
X117564838Y-128885167D01*
X117706883Y-129228943D01*
X117969673Y-129492192D01*
X118313201Y-129634838D01*
X118685167Y-129635162D01*
X119028943Y-129493117D01*
X119292192Y-129230327D01*
X119434838Y-128886799D01*
X119435140Y-128540000D01*
X122820560Y-128540000D01*
X122820560Y-130540000D01*
X122864838Y-130775317D01*
X123003910Y-130991441D01*
X123216110Y-131136431D01*
X123468000Y-131187440D01*
X126468000Y-131187440D01*
X126703317Y-131143162D01*
X126919441Y-131004090D01*
X127064431Y-130791890D01*
X127115440Y-130540000D01*
X127115440Y-128540000D01*
X127071162Y-128304683D01*
X126932090Y-128088559D01*
X126719890Y-127943569D01*
X126468000Y-127892560D01*
X123468000Y-127892560D01*
X123232683Y-127936838D01*
X123016559Y-128075910D01*
X122871569Y-128288110D01*
X122820560Y-128540000D01*
X119435140Y-128540000D01*
X119435162Y-128514833D01*
X119293117Y-128171057D01*
X119235000Y-128112838D01*
X119235000Y-128087419D01*
X119292192Y-128030327D01*
X119434838Y-127686799D01*
X119435162Y-127314833D01*
X119293117Y-126971057D01*
X119030327Y-126707808D01*
X118686799Y-126565162D01*
X118314833Y-126564838D01*
X117971057Y-126706883D01*
X117707808Y-126969673D01*
X117565162Y-127313201D01*
X117564838Y-127685167D01*
X92834839Y-127685167D01*
X92835162Y-127314833D01*
X92693117Y-126971057D01*
X92430327Y-126707808D01*
X92086799Y-126565162D01*
X91714833Y-126564838D01*
X91371057Y-126706883D01*
X91162577Y-126914999D01*
X86606823Y-126914999D01*
X86486800Y-126865161D01*
X86114834Y-126864837D01*
X85771058Y-127006882D01*
X85507809Y-127269672D01*
X85457435Y-127390986D01*
X84674210Y-128174210D01*
X84482367Y-128461325D01*
X84480431Y-128471057D01*
X84414999Y-128800000D01*
X61037254Y-128800000D01*
X61137248Y-128559189D01*
X61137751Y-127983338D01*
X60917846Y-127451128D01*
X60511013Y-127043585D01*
X59979189Y-126822752D01*
X59403338Y-126822249D01*
X58871128Y-127042154D01*
X58463585Y-127448987D01*
X58242752Y-127980811D01*
X58242249Y-128556662D01*
X56057250Y-128556662D01*
X56057751Y-127983338D01*
X55837846Y-127451128D01*
X55431013Y-127043585D01*
X54899189Y-126822752D01*
X54323338Y-126822249D01*
X53791128Y-127042154D01*
X53383585Y-127448987D01*
X53340166Y-127553551D01*
X53297846Y-127451128D01*
X52891013Y-127043585D01*
X52359189Y-126822752D01*
X51783338Y-126822249D01*
X51251128Y-127042154D01*
X50843585Y-127448987D01*
X50800166Y-127553551D01*
X50757846Y-127451128D01*
X50351013Y-127043585D01*
X49819189Y-126822752D01*
X49243338Y-126822249D01*
X48711128Y-127042154D01*
X48303585Y-127448987D01*
X48082752Y-127980811D01*
X48082249Y-128556662D01*
X37426851Y-128556662D01*
X37257947Y-128303880D01*
X36727514Y-127949457D01*
X36101827Y-127825000D01*
X35018173Y-127825000D01*
X34392486Y-127949457D01*
X33862053Y-128303880D01*
X33507630Y-128834313D01*
X33383173Y-129460000D01*
X30710000Y-129460000D01*
X30710000Y-124460000D01*
X33383173Y-124460000D01*
X33507630Y-125085687D01*
X33862053Y-125616120D01*
X34392486Y-125970543D01*
X35018173Y-126095000D01*
X36101827Y-126095000D01*
X36727514Y-125970543D01*
X37257947Y-125616120D01*
X37612370Y-125085687D01*
X37736827Y-124460000D01*
X37612370Y-123834313D01*
X37373396Y-123476662D01*
X48082249Y-123476662D01*
X48302154Y-124008872D01*
X48708987Y-124416415D01*
X49240811Y-124637248D01*
X49816662Y-124637751D01*
X50348872Y-124417846D01*
X50756415Y-124011013D01*
X50799834Y-123906449D01*
X50842154Y-124008872D01*
X51248987Y-124416415D01*
X51780811Y-124637248D01*
X52356662Y-124637751D01*
X52888872Y-124417846D01*
X53296415Y-124011013D01*
X53339834Y-123906449D01*
X53382154Y-124008872D01*
X53788987Y-124416415D01*
X54320811Y-124637248D01*
X54896662Y-124637751D01*
X55428872Y-124417846D01*
X55836415Y-124011013D01*
X56057248Y-123479189D01*
X56057250Y-123476662D01*
X58242249Y-123476662D01*
X58462154Y-124008872D01*
X58868987Y-124416415D01*
X59400811Y-124637248D01*
X59976662Y-124637751D01*
X60508872Y-124417846D01*
X60916415Y-124011013D01*
X61137248Y-123479189D01*
X61137599Y-123076434D01*
X122877876Y-123076434D01*
X122908856Y-123204355D01*
X123222078Y-123762317D01*
X123724980Y-124157942D01*
X124341000Y-124331000D01*
X124841000Y-124331000D01*
X124841000Y-122823000D01*
X125095000Y-122823000D01*
X125095000Y-124331000D01*
X125595000Y-124331000D01*
X126211020Y-124157942D01*
X126713922Y-123762317D01*
X127027144Y-123204355D01*
X127058124Y-123076434D01*
X126938777Y-122823000D01*
X125095000Y-122823000D01*
X124841000Y-122823000D01*
X122997223Y-122823000D01*
X122877876Y-123076434D01*
X61137599Y-123076434D01*
X61137751Y-122903338D01*
X60917846Y-122371128D01*
X60632384Y-122085167D01*
X99164838Y-122085167D01*
X99306883Y-122428943D01*
X99569673Y-122692192D01*
X99913201Y-122834838D01*
X100285167Y-122835162D01*
X100628943Y-122693117D01*
X100892192Y-122430327D01*
X100942566Y-122309014D01*
X101466580Y-121785000D01*
X101899998Y-121784999D01*
X101900003Y-121785000D01*
X102126297Y-121739986D01*
X102238679Y-121717632D01*
X102525794Y-121525788D01*
X102608837Y-121442744D01*
X102728945Y-121393117D01*
X102992194Y-121130327D01*
X103134840Y-120786799D01*
X103135164Y-120414833D01*
X102993119Y-120071057D01*
X102807554Y-119885167D01*
X112864838Y-119885167D01*
X112915000Y-120006569D01*
X112915000Y-121193178D01*
X112865162Y-121313201D01*
X112864838Y-121685167D01*
X113006883Y-122028943D01*
X113269673Y-122292192D01*
X113613201Y-122434838D01*
X113985167Y-122435162D01*
X114328943Y-122293117D01*
X114369227Y-122252903D01*
X117256838Y-122252903D01*
X117398883Y-122596679D01*
X117661673Y-122859928D01*
X118005201Y-123002574D01*
X118377167Y-123002898D01*
X118498569Y-122952736D01*
X120115478Y-122952736D01*
X120313201Y-123034838D01*
X120685167Y-123035162D01*
X121028943Y-122893117D01*
X121292192Y-122630327D01*
X121422892Y-122315566D01*
X122877876Y-122315566D01*
X122997223Y-122569000D01*
X124841000Y-122569000D01*
X124841000Y-121061000D01*
X125095000Y-121061000D01*
X125095000Y-122569000D01*
X126938777Y-122569000D01*
X127058124Y-122315566D01*
X127027144Y-122187645D01*
X126713922Y-121629683D01*
X126211020Y-121234058D01*
X125595000Y-121061000D01*
X125095000Y-121061000D01*
X124841000Y-121061000D01*
X124341000Y-121061000D01*
X123724980Y-121234058D01*
X123222078Y-121629683D01*
X122908856Y-122187645D01*
X122877876Y-122315566D01*
X121422892Y-122315566D01*
X121434838Y-122286799D01*
X121435162Y-121914833D01*
X121293117Y-121571057D01*
X121030327Y-121307808D01*
X121019080Y-121303138D01*
X121192192Y-121130327D01*
X121334838Y-120786799D01*
X121335162Y-120414833D01*
X121193117Y-120071057D01*
X120930327Y-119807808D01*
X120586799Y-119665162D01*
X120214833Y-119664838D01*
X120093431Y-119715000D01*
X118906822Y-119715000D01*
X118786799Y-119665162D01*
X118414833Y-119664838D01*
X118071057Y-119806883D01*
X117807808Y-120069673D01*
X117665162Y-120413201D01*
X117664838Y-120785167D01*
X117806883Y-121128943D01*
X117867839Y-121190005D01*
X117663057Y-121274619D01*
X117399808Y-121537409D01*
X117257162Y-121880937D01*
X117256838Y-122252903D01*
X114369227Y-122252903D01*
X114592192Y-122030327D01*
X114734838Y-121686799D01*
X114735162Y-121314833D01*
X114685000Y-121193431D01*
X114685000Y-120006822D01*
X114734838Y-119886799D01*
X114735162Y-119514833D01*
X114593117Y-119171057D01*
X114330327Y-118907808D01*
X113986799Y-118765162D01*
X113614833Y-118764838D01*
X113271057Y-118906883D01*
X113007808Y-119169673D01*
X112865162Y-119513201D01*
X112864838Y-119885167D01*
X102807554Y-119885167D01*
X102730329Y-119807808D01*
X102386801Y-119665162D01*
X102014835Y-119664838D01*
X101671059Y-119806883D01*
X101462579Y-120015000D01*
X101100005Y-120015000D01*
X101100000Y-120014999D01*
X100761326Y-120082366D01*
X100761325Y-120082367D01*
X100761324Y-120082367D01*
X100474209Y-120274211D01*
X100474207Y-120274214D01*
X99691165Y-121057256D01*
X99571057Y-121106883D01*
X99307808Y-121369673D01*
X99165162Y-121713201D01*
X99164838Y-122085167D01*
X60632384Y-122085167D01*
X60511013Y-121963585D01*
X59979189Y-121742752D01*
X59403338Y-121742249D01*
X58871128Y-121962154D01*
X58463585Y-122368987D01*
X58242752Y-122900811D01*
X58242249Y-123476662D01*
X56057250Y-123476662D01*
X56057751Y-122903338D01*
X55837846Y-122371128D01*
X55431013Y-121963585D01*
X54899189Y-121742752D01*
X54323338Y-121742249D01*
X53791128Y-121962154D01*
X53383585Y-122368987D01*
X53340166Y-122473551D01*
X53297846Y-122371128D01*
X52891013Y-121963585D01*
X52359189Y-121742752D01*
X51783338Y-121742249D01*
X51251128Y-121962154D01*
X50843585Y-122368987D01*
X50800166Y-122473551D01*
X50757846Y-122371128D01*
X50351013Y-121963585D01*
X49819189Y-121742752D01*
X49243338Y-121742249D01*
X48711128Y-121962154D01*
X48303585Y-122368987D01*
X48082752Y-122900811D01*
X48082249Y-123476662D01*
X37373396Y-123476662D01*
X37257947Y-123303880D01*
X36727514Y-122949457D01*
X36101827Y-122825000D01*
X35018173Y-122825000D01*
X34392486Y-122949457D01*
X33862053Y-123303880D01*
X33507630Y-123834313D01*
X33383173Y-124460000D01*
X30710000Y-124460000D01*
X30710000Y-118460000D01*
X33412560Y-118460000D01*
X33412560Y-120460000D01*
X33456838Y-120695317D01*
X33595910Y-120911441D01*
X33808110Y-121056431D01*
X34060000Y-121107440D01*
X37060000Y-121107440D01*
X37295317Y-121063162D01*
X37511441Y-120924090D01*
X37656431Y-120711890D01*
X37707440Y-120460000D01*
X37707440Y-120185167D01*
X88364838Y-120185167D01*
X88506883Y-120528943D01*
X88769673Y-120792192D01*
X89113201Y-120934838D01*
X89485167Y-120935162D01*
X89828943Y-120793117D01*
X89887162Y-120735000D01*
X92612577Y-120735000D01*
X92669669Y-120792192D01*
X93013197Y-120934838D01*
X93385163Y-120935162D01*
X93728939Y-120793117D01*
X93992188Y-120530327D01*
X94134834Y-120186799D01*
X94135158Y-119814833D01*
X93993113Y-119471057D01*
X93730323Y-119207808D01*
X93386795Y-119065162D01*
X93014829Y-119064838D01*
X92671053Y-119206883D01*
X92612834Y-119265000D01*
X89887419Y-119265000D01*
X89830327Y-119207808D01*
X89486799Y-119065162D01*
X89114833Y-119064838D01*
X88771057Y-119206883D01*
X88507808Y-119469673D01*
X88365162Y-119813201D01*
X88364838Y-120185167D01*
X37707440Y-120185167D01*
X37707440Y-118460000D01*
X37663162Y-118224683D01*
X37524090Y-118008559D01*
X37311890Y-117863569D01*
X37060000Y-117812560D01*
X34060000Y-117812560D01*
X33824683Y-117856838D01*
X33608559Y-117995910D01*
X33463569Y-118208110D01*
X33412560Y-118460000D01*
X30710000Y-118460000D01*
X30710000Y-117185167D01*
X89264838Y-117185167D01*
X89374359Y-117450228D01*
X89265162Y-117713201D01*
X89264838Y-118085167D01*
X89406883Y-118428943D01*
X89669673Y-118692192D01*
X90013201Y-118834838D01*
X90385167Y-118835162D01*
X90728943Y-118693117D01*
X90787162Y-118635000D01*
X95372766Y-118635000D01*
X95613201Y-118734838D01*
X95985167Y-118735162D01*
X96328943Y-118593117D01*
X96592192Y-118330327D01*
X96734838Y-117986799D01*
X96735091Y-117696000D01*
X122791173Y-117696000D01*
X122915630Y-118321687D01*
X123270053Y-118852120D01*
X123800486Y-119206543D01*
X124426173Y-119331000D01*
X125509827Y-119331000D01*
X126135514Y-119206543D01*
X126665947Y-118852120D01*
X127020370Y-118321687D01*
X127144827Y-117696000D01*
X127020370Y-117070313D01*
X126665947Y-116539880D01*
X126135514Y-116185457D01*
X125509827Y-116061000D01*
X124426173Y-116061000D01*
X123800486Y-116185457D01*
X123270053Y-116539880D01*
X122915630Y-117070313D01*
X122791173Y-117696000D01*
X96735091Y-117696000D01*
X96735162Y-117614833D01*
X96593117Y-117271057D01*
X96330327Y-117007808D01*
X95986799Y-116865162D01*
X95614833Y-116864838D01*
X95271057Y-117006883D01*
X95112664Y-117165000D01*
X93834857Y-117165000D01*
X93835162Y-116814833D01*
X93693117Y-116471057D01*
X93430327Y-116207808D01*
X93086799Y-116065162D01*
X92714833Y-116064838D01*
X92371057Y-116206883D01*
X92312838Y-116265000D01*
X90787419Y-116265000D01*
X90730327Y-116207808D01*
X90386799Y-116065162D01*
X90014833Y-116064838D01*
X89671057Y-116206883D01*
X89407808Y-116469673D01*
X89265162Y-116813201D01*
X89264838Y-117185167D01*
X30710000Y-117185167D01*
X30710000Y-112696000D01*
X122791173Y-112696000D01*
X122915630Y-113321687D01*
X123270053Y-113852120D01*
X123800486Y-114206543D01*
X124426173Y-114331000D01*
X125509827Y-114331000D01*
X126135514Y-114206543D01*
X126665947Y-113852120D01*
X127020370Y-113321687D01*
X127144827Y-112696000D01*
X127020370Y-112070313D01*
X126665947Y-111539880D01*
X126135514Y-111185457D01*
X125509827Y-111061000D01*
X124426173Y-111061000D01*
X123800486Y-111185457D01*
X123270053Y-111539880D01*
X122915630Y-112070313D01*
X122791173Y-112696000D01*
X30710000Y-112696000D01*
X30710000Y-107875022D01*
X32304584Y-107875022D01*
X32525353Y-108245743D01*
X33497012Y-108639119D01*
X34545247Y-108630713D01*
X35474647Y-108245743D01*
X35695416Y-107875022D01*
X35643395Y-107823000D01*
X75552560Y-107823000D01*
X75552560Y-110871000D01*
X75596838Y-111106317D01*
X75735910Y-111322441D01*
X75948110Y-111467431D01*
X76200000Y-111518440D01*
X77724000Y-111518440D01*
X77959317Y-111474162D01*
X78175441Y-111335090D01*
X78320431Y-111122890D01*
X78362968Y-110912834D01*
X78514172Y-111139125D01*
X78967391Y-111441957D01*
X79502000Y-111548297D01*
X80036609Y-111441957D01*
X80489828Y-111139125D01*
X80782349Y-110701338D01*
X80799941Y-110760941D01*
X81143974Y-111186630D01*
X81624723Y-111448260D01*
X81698930Y-111463220D01*
X81915000Y-111340720D01*
X81915000Y-109474000D01*
X81895000Y-109474000D01*
X81895000Y-109220000D01*
X81915000Y-109220000D01*
X81915000Y-107353280D01*
X82169000Y-107353280D01*
X82169000Y-109220000D01*
X82189000Y-109220000D01*
X82189000Y-109474000D01*
X82169000Y-109474000D01*
X82169000Y-111340720D01*
X82385070Y-111463220D01*
X82459277Y-111448260D01*
X82940026Y-111186630D01*
X83284059Y-110760941D01*
X83301651Y-110701338D01*
X83594172Y-111139125D01*
X84047391Y-111441957D01*
X84582000Y-111548297D01*
X85116609Y-111441957D01*
X85569828Y-111139125D01*
X85852000Y-110716826D01*
X86134172Y-111139125D01*
X86587391Y-111441957D01*
X87122000Y-111548297D01*
X87656609Y-111441957D01*
X88109828Y-111139125D01*
X88392000Y-110716826D01*
X88674172Y-111139125D01*
X89127391Y-111441957D01*
X89662000Y-111548297D01*
X90196609Y-111441957D01*
X90649828Y-111139125D01*
X90952660Y-110685906D01*
X91059000Y-110151297D01*
X91059000Y-109875022D01*
X114904584Y-109875022D01*
X115125353Y-110245743D01*
X116097012Y-110639119D01*
X117145247Y-110630713D01*
X118074647Y-110245743D01*
X118295416Y-109875022D01*
X116600000Y-108179605D01*
X114904584Y-109875022D01*
X91059000Y-109875022D01*
X91059000Y-108542703D01*
X90952660Y-108008094D01*
X90649828Y-107554875D01*
X90196609Y-107252043D01*
X89662000Y-107145703D01*
X89127391Y-107252043D01*
X88674172Y-107554875D01*
X88392000Y-107977174D01*
X88109828Y-107554875D01*
X87656609Y-107252043D01*
X87122000Y-107145703D01*
X86587391Y-107252043D01*
X86134172Y-107554875D01*
X85852000Y-107977174D01*
X85569828Y-107554875D01*
X85116609Y-107252043D01*
X84582000Y-107145703D01*
X84047391Y-107252043D01*
X83594172Y-107554875D01*
X83301651Y-107992662D01*
X83284059Y-107933059D01*
X82940026Y-107507370D01*
X82459277Y-107245740D01*
X82385070Y-107230780D01*
X82169000Y-107353280D01*
X81915000Y-107353280D01*
X81698930Y-107230780D01*
X81624723Y-107245740D01*
X81143974Y-107507370D01*
X80799941Y-107933059D01*
X80782349Y-107992662D01*
X80489828Y-107554875D01*
X80036609Y-107252043D01*
X79502000Y-107145703D01*
X78967391Y-107252043D01*
X78514172Y-107554875D01*
X78363437Y-107780466D01*
X78327162Y-107587683D01*
X78188090Y-107371559D01*
X77975890Y-107226569D01*
X77724000Y-107175560D01*
X76200000Y-107175560D01*
X75964683Y-107219838D01*
X75748559Y-107358910D01*
X75603569Y-107571110D01*
X75552560Y-107823000D01*
X35643395Y-107823000D01*
X34000000Y-106179605D01*
X32304584Y-107875022D01*
X30710000Y-107875022D01*
X30710000Y-105497012D01*
X31360881Y-105497012D01*
X31369287Y-106545247D01*
X31754257Y-107474647D01*
X32124978Y-107695416D01*
X33820395Y-106000000D01*
X34179605Y-106000000D01*
X35875022Y-107695416D01*
X36245743Y-107474647D01*
X36639119Y-106502988D01*
X36630713Y-105454753D01*
X36245743Y-104525353D01*
X35875022Y-104304584D01*
X34179605Y-106000000D01*
X33820395Y-106000000D01*
X32124978Y-104304584D01*
X31754257Y-104525353D01*
X31360881Y-105497012D01*
X30710000Y-105497012D01*
X30710000Y-104124978D01*
X32304584Y-104124978D01*
X34000000Y-105820395D01*
X35695416Y-104124978D01*
X35474647Y-103754257D01*
X34502988Y-103360881D01*
X33454753Y-103369287D01*
X32525353Y-103754257D01*
X32304584Y-104124978D01*
X30710000Y-104124978D01*
X30710000Y-103210000D01*
X97486267Y-103210000D01*
X97320657Y-103320657D01*
X97320657Y-103320657D01*
G37*
X97320657Y-103320657D02*
X97020427Y-103769983D01*
X96915000Y-104300000D01*
X97020427Y-104830017D01*
X97090006Y-104934150D01*
X96474210Y-105549946D01*
X96282367Y-105837061D01*
X96282367Y-105837062D01*
X96214999Y-106175736D01*
X96215000Y-106175741D01*
X96215000Y-106293178D01*
X96165162Y-106413201D01*
X96164838Y-106785167D01*
X96306883Y-107128943D01*
X96569673Y-107392192D01*
X96913201Y-107534838D01*
X97285167Y-107535162D01*
X97377497Y-107497012D01*
X113960881Y-107497012D01*
X113969287Y-108545247D01*
X114354257Y-109474647D01*
X114724978Y-109695416D01*
X116420395Y-108000000D01*
X116779605Y-108000000D01*
X118475022Y-109695416D01*
X118845743Y-109474647D01*
X119239119Y-108502988D01*
X119230713Y-107454753D01*
X118916428Y-106696000D01*
X122820560Y-106696000D01*
X122820560Y-108696000D01*
X122864838Y-108931317D01*
X123003910Y-109147441D01*
X123216110Y-109292431D01*
X123468000Y-109343440D01*
X126468000Y-109343440D01*
X126703317Y-109299162D01*
X126919441Y-109160090D01*
X127064431Y-108947890D01*
X127115440Y-108696000D01*
X127115440Y-106696000D01*
X127071162Y-106460683D01*
X126932090Y-106244559D01*
X126719890Y-106099569D01*
X126468000Y-106048560D01*
X123468000Y-106048560D01*
X123232683Y-106092838D01*
X123016559Y-106231910D01*
X122871569Y-106444110D01*
X122820560Y-106696000D01*
X118916428Y-106696000D01*
X118845743Y-106525353D01*
X118475022Y-106304584D01*
X116779605Y-108000000D01*
X116420395Y-108000000D01*
X114724978Y-106304584D01*
X114354257Y-106525353D01*
X113960881Y-107497012D01*
X97377497Y-107497012D01*
X97628943Y-107393117D01*
X97892192Y-107130327D01*
X98034838Y-106786799D01*
X98035095Y-106492221D01*
X98842315Y-105685000D01*
X106892629Y-105685000D01*
X106807808Y-105769673D01*
X106665162Y-106113201D01*
X106664838Y-106485167D01*
X106806883Y-106828943D01*
X107069673Y-107092192D01*
X107413201Y-107234838D01*
X107785167Y-107235162D01*
X108128943Y-107093117D01*
X108392192Y-106830327D01*
X108442566Y-106709013D01*
X108525787Y-106625792D01*
X108525790Y-106625790D01*
X108717633Y-106338675D01*
X108738870Y-106231910D01*
X108785001Y-106000000D01*
X108785000Y-105999995D01*
X108785000Y-105685000D01*
X115292554Y-105685000D01*
X115125353Y-105754257D01*
X114904584Y-106124978D01*
X116600000Y-107820395D01*
X118295416Y-106124978D01*
X118074647Y-105754257D01*
X117903579Y-105685000D01*
X126526314Y-105685000D01*
X127315000Y-106473686D01*
X127315000Y-119676517D01*
X127314421Y-119676632D01*
X127286799Y-119665162D01*
X126914833Y-119664838D01*
X126571057Y-119806883D01*
X126307808Y-120069673D01*
X126165162Y-120413201D01*
X126164838Y-120785167D01*
X126306883Y-121128943D01*
X126569673Y-121392192D01*
X126913201Y-121534838D01*
X127285167Y-121535162D01*
X127315000Y-121522835D01*
X127315000Y-163633976D01*
X127145743Y-163225353D01*
X126775022Y-163004584D01*
X125079605Y-164700000D01*
X125093748Y-164714142D01*
X124914142Y-164893748D01*
X124900000Y-164879605D01*
X123204584Y-166575022D01*
X123425353Y-166945743D01*
X123596421Y-167015000D01*
X106685000Y-167015000D01*
X106685000Y-164206822D01*
X106689073Y-164197012D01*
X122260881Y-164197012D01*
X122269287Y-165245247D01*
X122654257Y-166174647D01*
X123024978Y-166395416D01*
X124720395Y-164700000D01*
X123024978Y-163004584D01*
X122654257Y-163225353D01*
X122260881Y-164197012D01*
X106689073Y-164197012D01*
X106734838Y-164086799D01*
X106735162Y-163714833D01*
X106593117Y-163371057D01*
X106330327Y-163107808D01*
X105986799Y-162965162D01*
X105614833Y-162964838D01*
X105271057Y-163106883D01*
X105007808Y-163369673D01*
X104865162Y-163713201D01*
X104864838Y-164085167D01*
X104915000Y-164206569D01*
X104915000Y-167015000D01*
X93973686Y-167015000D01*
X90079343Y-163120657D01*
X89636828Y-162824978D01*
X123204584Y-162824978D01*
X124900000Y-164520395D01*
X126595416Y-162824978D01*
X126374647Y-162454257D01*
X125402988Y-162060881D01*
X124354753Y-162069287D01*
X123425353Y-162454257D01*
X123204584Y-162824978D01*
X89636828Y-162824978D01*
X89630016Y-162820427D01*
X89100000Y-162715000D01*
X88569984Y-162820427D01*
X88120657Y-163120657D01*
X87820427Y-163569984D01*
X87715000Y-164100000D01*
X87820427Y-164630016D01*
X88120657Y-165079343D01*
X92331314Y-169290000D01*
X30710000Y-169290000D01*
X30710000Y-167875022D01*
X32304584Y-167875022D01*
X32525353Y-168245743D01*
X33497012Y-168639119D01*
X34545247Y-168630713D01*
X35474647Y-168245743D01*
X35695416Y-167875022D01*
X34000000Y-166179605D01*
X32304584Y-167875022D01*
X30710000Y-167875022D01*
X30710000Y-165497012D01*
X31360881Y-165497012D01*
X31369287Y-166545247D01*
X31754257Y-167474647D01*
X32124978Y-167695416D01*
X33820395Y-166000000D01*
X34179605Y-166000000D01*
X35875022Y-167695416D01*
X36245743Y-167474647D01*
X36639119Y-166502988D01*
X36630713Y-165454753D01*
X36245743Y-164525353D01*
X35875022Y-164304584D01*
X34179605Y-166000000D01*
X33820395Y-166000000D01*
X32124978Y-164304584D01*
X31754257Y-164525353D01*
X31360881Y-165497012D01*
X30710000Y-165497012D01*
X30710000Y-164124978D01*
X32304584Y-164124978D01*
X34000000Y-165820395D01*
X35695416Y-164124978D01*
X35474647Y-163754257D01*
X34502988Y-163360881D01*
X33454753Y-163369287D01*
X32525353Y-163754257D01*
X32304584Y-164124978D01*
X30710000Y-164124978D01*
X30710000Y-155970000D01*
X33383173Y-155970000D01*
X33507630Y-156595687D01*
X33862053Y-157126120D01*
X34392486Y-157480543D01*
X35018173Y-157605000D01*
X38112760Y-157605000D01*
X40273878Y-159766117D01*
X40273880Y-159766120D01*
X40426096Y-159867827D01*
X40804312Y-160120543D01*
X41430000Y-160245001D01*
X41430005Y-160245000D01*
X43015025Y-160245000D01*
X43178110Y-160356431D01*
X43295000Y-160380102D01*
X43295000Y-161260000D01*
X43400427Y-161790017D01*
X43581413Y-162060881D01*
X43700657Y-162239343D01*
X44225657Y-162764343D01*
X44674983Y-163064573D01*
X45205000Y-163170000D01*
X47202000Y-163170000D01*
X47265143Y-163157440D01*
X47777000Y-163157440D01*
X48012317Y-163113162D01*
X48228441Y-162974090D01*
X48234377Y-162965402D01*
X48317302Y-163048327D01*
X48550691Y-163145000D01*
X48966250Y-163145000D01*
X49125000Y-162986250D01*
X49125000Y-161912000D01*
X49379000Y-161912000D01*
X49379000Y-162986250D01*
X49537750Y-163145000D01*
X49953309Y-163145000D01*
X50186698Y-163048327D01*
X50365327Y-162869699D01*
X50462000Y-162636310D01*
X50462000Y-162070750D01*
X50303250Y-161912000D01*
X49379000Y-161912000D01*
X49125000Y-161912000D01*
X49105000Y-161912000D01*
X49105000Y-161658000D01*
X49125000Y-161658000D01*
X49125000Y-160583750D01*
X49379000Y-160583750D01*
X49379000Y-161658000D01*
X50303250Y-161658000D01*
X50462000Y-161499250D01*
X50462000Y-160933690D01*
X50365327Y-160700301D01*
X50186698Y-160521673D01*
X49953309Y-160425000D01*
X49537750Y-160425000D01*
X49379000Y-160583750D01*
X49125000Y-160583750D01*
X48966250Y-160425000D01*
X48550691Y-160425000D01*
X48317302Y-160521673D01*
X48234748Y-160604226D01*
X48028890Y-160463569D01*
X47777000Y-160412560D01*
X47265143Y-160412560D01*
X47202000Y-160400000D01*
X46065000Y-160400000D01*
X46065000Y-160382038D01*
X46165317Y-160363162D01*
X46381441Y-160224090D01*
X46526431Y-160011890D01*
X46577440Y-159760000D01*
X46577440Y-158895750D01*
X47095000Y-158895750D01*
X47095000Y-159886310D01*
X47191673Y-160119699D01*
X47370302Y-160298327D01*
X47603691Y-160395000D01*
X48694250Y-160395000D01*
X48853000Y-160236250D01*
X48853000Y-158737000D01*
X49107000Y-158737000D01*
X49107000Y-160236250D01*
X49265750Y-160395000D01*
X50356309Y-160395000D01*
X50571777Y-160305750D01*
X58746000Y-160305750D01*
X58746000Y-160621310D01*
X58842673Y-160854699D01*
X59021302Y-161033327D01*
X59254691Y-161130000D01*
X59595250Y-161130000D01*
X59754000Y-160971250D01*
X59754000Y-160147000D01*
X58904750Y-160147000D01*
X58746000Y-160305750D01*
X50571777Y-160305750D01*
X50589698Y-160298327D01*
X50768327Y-160119699D01*
X50865000Y-159886310D01*
X50865000Y-158895750D01*
X50706250Y-158737000D01*
X49107000Y-158737000D01*
X48853000Y-158737000D01*
X47253750Y-158737000D01*
X47095000Y-158895750D01*
X46577440Y-158895750D01*
X46577440Y-157460000D01*
X46553674Y-157333690D01*
X47095000Y-157333690D01*
X47095000Y-158324250D01*
X47253750Y-158483000D01*
X48853000Y-158483000D01*
X48853000Y-156983750D01*
X49107000Y-156983750D01*
X49107000Y-158483000D01*
X50706250Y-158483000D01*
X50865000Y-158324250D01*
X50865000Y-157333690D01*
X50768327Y-157100301D01*
X50589698Y-156921673D01*
X50356309Y-156825000D01*
X49265750Y-156825000D01*
X49107000Y-156983750D01*
X48853000Y-156983750D01*
X48694250Y-156825000D01*
X47603691Y-156825000D01*
X47370302Y-156921673D01*
X47191673Y-157100301D01*
X47095000Y-157333690D01*
X46553674Y-157333690D01*
X46533162Y-157224683D01*
X46394090Y-157008559D01*
X46315000Y-156954519D01*
X46315000Y-156738691D01*
X59390000Y-156738691D01*
X59390000Y-157354250D01*
X59548750Y-157513000D01*
X60198000Y-157513000D01*
X60198000Y-156388750D01*
X60039250Y-156230000D01*
X59898690Y-156230000D01*
X59665301Y-156326673D01*
X59486673Y-156505302D01*
X59390000Y-156738691D01*
X46315000Y-156738691D01*
X46315000Y-156456844D01*
X46381441Y-156414090D01*
X46526431Y-156201890D01*
X46577440Y-155950000D01*
X46577440Y-153650000D01*
X47082560Y-153650000D01*
X47082560Y-155950000D01*
X47126838Y-156185317D01*
X47265910Y-156401441D01*
X47478110Y-156546431D01*
X47730000Y-156597440D01*
X50230000Y-156597440D01*
X50465317Y-156553162D01*
X50648946Y-156435000D01*
X51910000Y-156435000D01*
X52535687Y-156310543D01*
X53066120Y-155956120D01*
X53420543Y-155425687D01*
X53545000Y-154800000D01*
X53420543Y-154174313D01*
X53066120Y-153643880D01*
X52535687Y-153289457D01*
X51910000Y-153165000D01*
X50644975Y-153165000D01*
X50481890Y-153053569D01*
X50230000Y-153002560D01*
X47730000Y-153002560D01*
X47494683Y-153046838D01*
X47278559Y-153185910D01*
X47133569Y-153398110D01*
X47082560Y-153650000D01*
X46577440Y-153650000D01*
X46533162Y-153414683D01*
X46394090Y-153198559D01*
X46181890Y-153053569D01*
X45930000Y-153002560D01*
X43430000Y-153002560D01*
X43194683Y-153046838D01*
X42978559Y-153185910D01*
X42833569Y-153398110D01*
X42782560Y-153650000D01*
X42782560Y-155950000D01*
X42826838Y-156185317D01*
X42965910Y-156401441D01*
X43045000Y-156455481D01*
X43045000Y-156953156D01*
X43011054Y-156975000D01*
X42107239Y-156975000D01*
X39946120Y-154813880D01*
X39415688Y-154459457D01*
X38790000Y-154334999D01*
X38789995Y-154335000D01*
X35018173Y-154335000D01*
X34392486Y-154459457D01*
X33862053Y-154813880D01*
X33507630Y-155344313D01*
X33383173Y-155970000D01*
X30710000Y-155970000D01*
X30710000Y-150970000D01*
X33383173Y-150970000D01*
X33507630Y-151595687D01*
X33862053Y-152126120D01*
X34392486Y-152480543D01*
X35018173Y-152605000D01*
X36101827Y-152605000D01*
X36727514Y-152480543D01*
X37257947Y-152126120D01*
X37612370Y-151595687D01*
X37736827Y-150970000D01*
X37612370Y-150344313D01*
X37257947Y-149813880D01*
X36727514Y-149459457D01*
X36101827Y-149335000D01*
X35018173Y-149335000D01*
X34392486Y-149459457D01*
X33862053Y-149813880D01*
X33507630Y-150344313D01*
X33383173Y-150970000D01*
X30710000Y-150970000D01*
X30710000Y-149169000D01*
X57297560Y-149169000D01*
X57297560Y-150169000D01*
X57341838Y-150404317D01*
X57480910Y-150620441D01*
X57693110Y-150765431D01*
X57945000Y-150816440D01*
X58895000Y-150816440D01*
X59130317Y-150772162D01*
X59346441Y-150633090D01*
X59366317Y-150604000D01*
X59390000Y-150604000D01*
X59390000Y-151403569D01*
X59377560Y-151465000D01*
X59377560Y-153015000D01*
X59421838Y-153250317D01*
X59560910Y-153466441D01*
X59773110Y-153611431D01*
X60025000Y-153662440D01*
X60407271Y-153662440D01*
X60191711Y-153878000D01*
X59563816Y-153878000D01*
X59377833Y-153877838D01*
X59377441Y-153878000D01*
X58928816Y-153878000D01*
X58742833Y-153877838D01*
X58742441Y-153878000D01*
X58293816Y-153878000D01*
X58107833Y-153877838D01*
X57764057Y-154019883D01*
X57500808Y-154282673D01*
X57358162Y-154626201D01*
X57357838Y-154998167D01*
X57499883Y-155341943D01*
X57762673Y-155605192D01*
X58106201Y-155747838D01*
X58478167Y-155748162D01*
X58478559Y-155748000D01*
X58927184Y-155748000D01*
X59113167Y-155748162D01*
X59113559Y-155748000D01*
X59562184Y-155748000D01*
X59748167Y-155748162D01*
X59748559Y-155748000D01*
X60579000Y-155748000D01*
X60936809Y-155676827D01*
X61240145Y-155474145D01*
X61748142Y-154966147D01*
X61748145Y-154966145D01*
X62256142Y-154458147D01*
X62256145Y-154458145D01*
X62458827Y-154154809D01*
X62530000Y-153797000D01*
X62530000Y-153655352D01*
X62565000Y-153662440D01*
X63165000Y-153662440D01*
X63200000Y-153655854D01*
X63200000Y-156224648D01*
X63165000Y-156217560D01*
X62565000Y-156217560D01*
X62329683Y-156261838D01*
X62230472Y-156325678D01*
X62146890Y-156268569D01*
X61895000Y-156217560D01*
X61295000Y-156217560D01*
X61059683Y-156261838D01*
X60969020Y-156320178D01*
X60751310Y-156230000D01*
X60610750Y-156230000D01*
X60452000Y-156388750D01*
X60452000Y-157513000D01*
X60472000Y-157513000D01*
X60472000Y-157767000D01*
X60452000Y-157767000D01*
X60452000Y-157787000D01*
X60198000Y-157787000D01*
X60198000Y-157767000D01*
X59548750Y-157767000D01*
X59390000Y-157925750D01*
X59390000Y-158541309D01*
X59486673Y-158774698D01*
X59665301Y-158953327D01*
X59753998Y-158990067D01*
X59753998Y-159068748D01*
X59595250Y-158910000D01*
X59254691Y-158910000D01*
X59021302Y-159006673D01*
X58842673Y-159185301D01*
X58746000Y-159418690D01*
X58746000Y-159734250D01*
X58904750Y-159893000D01*
X59754000Y-159893000D01*
X59754000Y-159873000D01*
X60008000Y-159873000D01*
X60008000Y-159893000D01*
X60028000Y-159893000D01*
X60028000Y-160147000D01*
X60008000Y-160147000D01*
X60008000Y-160971250D01*
X60166750Y-161130000D01*
X60507309Y-161130000D01*
X60711670Y-161045351D01*
X60779110Y-161091431D01*
X61031000Y-161142440D01*
X62031000Y-161142440D01*
X62266317Y-161098162D01*
X62482441Y-160959090D01*
X62627431Y-160746890D01*
X62678440Y-160495000D01*
X62678440Y-160066535D01*
X62761191Y-160121827D01*
X63119000Y-160193000D01*
X63965000Y-160193000D01*
X63965000Y-161399184D01*
X63964838Y-161585167D01*
X63965000Y-161585559D01*
X63965000Y-161999184D01*
X63964838Y-162185167D01*
X63965000Y-162185559D01*
X63965000Y-162599184D01*
X63964838Y-162785167D01*
X64106883Y-163128943D01*
X64369673Y-163392192D01*
X64713201Y-163534838D01*
X65085167Y-163535162D01*
X65428943Y-163393117D01*
X65692192Y-163130327D01*
X65834838Y-162786799D01*
X65835162Y-162414833D01*
X65835000Y-162414441D01*
X65835000Y-162000816D01*
X65835162Y-161814833D01*
X65835000Y-161814441D01*
X65835000Y-161400816D01*
X65835162Y-161214833D01*
X65835000Y-161214441D01*
X65835000Y-160193000D01*
X66294000Y-160193000D01*
X66651809Y-160121827D01*
X66955145Y-159919145D01*
X67717145Y-159157145D01*
X67919827Y-158853809D01*
X67991000Y-158496000D01*
X67991000Y-158313446D01*
X68141317Y-158285162D01*
X68357441Y-158146090D01*
X68502431Y-157933890D01*
X68553440Y-157682000D01*
X68553440Y-155182000D01*
X68509162Y-154946683D01*
X68370090Y-154730559D01*
X68157890Y-154585569D01*
X67906000Y-154534560D01*
X66206000Y-154534560D01*
X65970683Y-154578838D01*
X65754559Y-154717910D01*
X65609569Y-154930110D01*
X65558560Y-155182000D01*
X65558560Y-157682000D01*
X65602838Y-157917317D01*
X65741910Y-158133441D01*
X65952428Y-158277282D01*
X65906710Y-158323000D01*
X65082440Y-158323000D01*
X65082440Y-156865000D01*
X65070000Y-156798887D01*
X65070000Y-153076431D01*
X65082440Y-153015000D01*
X65082440Y-152717750D01*
X65571000Y-152717750D01*
X65571000Y-153808309D01*
X65667673Y-154041698D01*
X65846301Y-154220327D01*
X66079690Y-154317000D01*
X66770250Y-154317000D01*
X66929000Y-154158250D01*
X66929000Y-152559000D01*
X67183000Y-152559000D01*
X67183000Y-154158250D01*
X67341750Y-154317000D01*
X68032310Y-154317000D01*
X68265699Y-154220327D01*
X68444327Y-154041698D01*
X68541000Y-153808309D01*
X68541000Y-152717750D01*
X68382250Y-152559000D01*
X67183000Y-152559000D01*
X66929000Y-152559000D01*
X65729750Y-152559000D01*
X65571000Y-152717750D01*
X65082440Y-152717750D01*
X65082440Y-152614850D01*
X65313145Y-152384145D01*
X65515827Y-152080809D01*
X65571000Y-151803437D01*
X65571000Y-152146250D01*
X65729750Y-152305000D01*
X66929000Y-152305000D01*
X66929000Y-150705750D01*
X67183000Y-150705750D01*
X67183000Y-152305000D01*
X68382250Y-152305000D01*
X68541000Y-152146250D01*
X68541000Y-151055691D01*
X68444327Y-150822302D01*
X68265699Y-150643673D01*
X68032310Y-150547000D01*
X67341750Y-150547000D01*
X67183000Y-150705750D01*
X66929000Y-150705750D01*
X66770250Y-150547000D01*
X66079690Y-150547000D01*
X65846301Y-150643673D01*
X65667673Y-150822302D01*
X65587000Y-151017064D01*
X65587000Y-150726931D01*
X65678441Y-150668090D01*
X65823431Y-150455890D01*
X65874440Y-150204000D01*
X65874440Y-149985167D01*
X99964838Y-149985167D01*
X100106883Y-150328943D01*
X100369673Y-150592192D01*
X100713201Y-150734838D01*
X101085167Y-150735162D01*
X101206569Y-150685000D01*
X102999995Y-150685000D01*
X103000000Y-150685001D01*
X103324558Y-150620441D01*
X103338675Y-150617633D01*
X103625790Y-150425790D01*
X103708835Y-150342744D01*
X103828943Y-150293117D01*
X104092192Y-150030327D01*
X104234838Y-149686799D01*
X104235162Y-149314833D01*
X104093117Y-148971057D01*
X103830327Y-148707808D01*
X103486799Y-148565162D01*
X103114833Y-148564838D01*
X102771057Y-148706883D01*
X102562576Y-148915000D01*
X101206822Y-148915000D01*
X101086799Y-148865162D01*
X100714833Y-148864838D01*
X100371057Y-149006883D01*
X100107808Y-149269673D01*
X99965162Y-149613201D01*
X99964838Y-149985167D01*
X65874440Y-149985167D01*
X65874440Y-148754000D01*
X65830162Y-148518683D01*
X65691090Y-148302559D01*
X65478890Y-148157569D01*
X65227000Y-148106560D01*
X64077000Y-148106560D01*
X63841683Y-148150838D01*
X63625559Y-148289910D01*
X63624610Y-148291299D01*
X63428890Y-148157569D01*
X63177000Y-148106560D01*
X62027000Y-148106560D01*
X61791683Y-148150838D01*
X61575559Y-148289910D01*
X61574440Y-148291548D01*
X61574440Y-147519000D01*
X61530162Y-147283683D01*
X61391090Y-147067559D01*
X61387000Y-147064764D01*
X61387000Y-146861290D01*
X61663117Y-146585173D01*
X95564838Y-146585173D01*
X95706883Y-146928949D01*
X95765000Y-146987168D01*
X95765000Y-148012581D01*
X95707808Y-148069673D01*
X95565162Y-148413201D01*
X95564838Y-148785167D01*
X95706883Y-149128943D01*
X95969673Y-149392192D01*
X96313201Y-149534838D01*
X96685167Y-149535162D01*
X97028943Y-149393117D01*
X97292192Y-149130327D01*
X97331787Y-149034973D01*
X97585167Y-149035194D01*
X97928943Y-148893149D01*
X98192192Y-148630359D01*
X98334838Y-148286831D01*
X98335162Y-147914865D01*
X98193117Y-147571089D01*
X98135000Y-147512870D01*
X98135000Y-147087419D01*
X98192192Y-147030327D01*
X98334838Y-146686799D01*
X98335162Y-146314833D01*
X98193117Y-145971057D01*
X97930327Y-145707808D01*
X97875802Y-145685167D01*
X111264838Y-145685167D01*
X111406883Y-146028943D01*
X111669673Y-146292192D01*
X112013201Y-146434838D01*
X112385167Y-146435162D01*
X112728943Y-146293117D01*
X112992192Y-146030327D01*
X113042566Y-145909014D01*
X113808834Y-145142745D01*
X113928943Y-145093117D01*
X114192192Y-144830327D01*
X114312746Y-144540000D01*
X122791173Y-144540000D01*
X122915630Y-145165687D01*
X123270053Y-145696120D01*
X123800486Y-146050543D01*
X124426173Y-146175000D01*
X125509827Y-146175000D01*
X126135514Y-146050543D01*
X126665947Y-145696120D01*
X127020370Y-145165687D01*
X127144827Y-144540000D01*
X127020370Y-143914313D01*
X126665947Y-143383880D01*
X126135514Y-143029457D01*
X125509827Y-142905000D01*
X124426173Y-142905000D01*
X123800486Y-143029457D01*
X123270053Y-143383880D01*
X122915630Y-143914313D01*
X122791173Y-144540000D01*
X114312746Y-144540000D01*
X114334838Y-144486799D01*
X114335162Y-144114833D01*
X114193117Y-143771057D01*
X113930327Y-143507808D01*
X113586799Y-143365162D01*
X113214833Y-143364838D01*
X112871057Y-143506883D01*
X112607808Y-143769673D01*
X112557434Y-143890987D01*
X111791164Y-144657256D01*
X111671057Y-144706883D01*
X111407808Y-144969673D01*
X111265162Y-145313201D01*
X111264838Y-145685167D01*
X97875802Y-145685167D01*
X97586799Y-145565162D01*
X97214833Y-145564838D01*
X97053833Y-145631361D01*
X97030327Y-145607814D01*
X96686799Y-145465168D01*
X96314833Y-145464844D01*
X95971057Y-145606889D01*
X95707808Y-145869679D01*
X95565162Y-146213207D01*
X95564838Y-146585173D01*
X61663117Y-146585173D01*
X62086854Y-146161436D01*
X62218192Y-146030327D01*
X62360838Y-145686799D01*
X62361162Y-145314833D01*
X62219117Y-144971057D01*
X61956327Y-144707808D01*
X61612799Y-144565162D01*
X61240833Y-144564838D01*
X60897057Y-144706883D01*
X60633808Y-144969673D01*
X60633645Y-144970065D01*
X59790855Y-145812855D01*
X59588173Y-146116191D01*
X59517000Y-146474000D01*
X59517000Y-147067437D01*
X59441217Y-147178349D01*
X59433327Y-147159302D01*
X59254699Y-146980673D01*
X59021310Y-146884000D01*
X58705750Y-146884000D01*
X58547000Y-147042750D01*
X58547000Y-147892000D01*
X58567000Y-147892000D01*
X58567000Y-148146000D01*
X58547000Y-148146000D01*
X58547000Y-148166000D01*
X58293000Y-148166000D01*
X58293000Y-148146000D01*
X57468750Y-148146000D01*
X57310000Y-148304750D01*
X57310000Y-148645309D01*
X57394649Y-148849670D01*
X57348569Y-148917110D01*
X57297560Y-149169000D01*
X30710000Y-149169000D01*
X30710000Y-145970000D01*
X33383173Y-145970000D01*
X33507630Y-146595687D01*
X33862053Y-147126120D01*
X34392486Y-147480543D01*
X35018173Y-147605000D01*
X36101827Y-147605000D01*
X36727514Y-147480543D01*
X36858994Y-147392691D01*
X57310000Y-147392691D01*
X57310000Y-147733250D01*
X57468750Y-147892000D01*
X58293000Y-147892000D01*
X58293000Y-147042750D01*
X58134250Y-146884000D01*
X57818690Y-146884000D01*
X57585301Y-146980673D01*
X57406673Y-147159302D01*
X57310000Y-147392691D01*
X36858994Y-147392691D01*
X37257947Y-147126120D01*
X37612370Y-146595687D01*
X37736827Y-145970000D01*
X37612370Y-145344313D01*
X37257947Y-144813880D01*
X36727514Y-144459457D01*
X36101827Y-144335000D01*
X35018173Y-144335000D01*
X34392486Y-144459457D01*
X33862053Y-144813880D01*
X33507630Y-145344313D01*
X33383173Y-145970000D01*
X30710000Y-145970000D01*
X30710000Y-139970000D01*
X33412560Y-139970000D01*
X33412560Y-141970000D01*
X33456838Y-142205317D01*
X33595910Y-142421441D01*
X33808110Y-142566431D01*
X34060000Y-142617440D01*
X37060000Y-142617440D01*
X37295317Y-142573162D01*
X37511441Y-142434090D01*
X37656431Y-142221890D01*
X37707440Y-141970000D01*
X37707440Y-141285167D01*
X85764838Y-141285167D01*
X85906883Y-141628943D01*
X85960778Y-141682932D01*
X85865162Y-141913201D01*
X85864838Y-142285167D01*
X86006883Y-142628943D01*
X86269673Y-142892192D01*
X86613201Y-143034838D01*
X86985167Y-143035162D01*
X87328943Y-142893117D01*
X87387162Y-142835000D01*
X89712581Y-142835000D01*
X89769673Y-142892192D01*
X90113201Y-143034838D01*
X90485167Y-143035162D01*
X90828943Y-142893117D01*
X91092192Y-142630327D01*
X91234838Y-142286799D01*
X91235057Y-142034857D01*
X91585167Y-142035162D01*
X91928943Y-141893117D01*
X92192192Y-141630327D01*
X92334838Y-141286799D01*
X92335162Y-140914833D01*
X92193117Y-140571057D01*
X91930327Y-140307808D01*
X91735152Y-140226764D01*
X91735162Y-140214825D01*
X91593117Y-139871049D01*
X91330327Y-139607800D01*
X90986799Y-139465154D01*
X90614833Y-139464830D01*
X90271057Y-139606875D01*
X90212838Y-139664992D01*
X88487237Y-139664992D01*
X88330327Y-139507808D01*
X87986799Y-139365162D01*
X87614833Y-139364838D01*
X87271057Y-139506883D01*
X87007808Y-139769673D01*
X86865162Y-140113201D01*
X86865117Y-140165143D01*
X86514833Y-140164838D01*
X86171057Y-140306883D01*
X85907808Y-140569673D01*
X85765162Y-140913201D01*
X85764838Y-141285167D01*
X37707440Y-141285167D01*
X37707440Y-139986662D01*
X48082249Y-139986662D01*
X48302154Y-140518872D01*
X48708987Y-140926415D01*
X49240811Y-141147248D01*
X49816662Y-141147751D01*
X50348872Y-140927846D01*
X50756415Y-140521013D01*
X50799834Y-140416449D01*
X50842154Y-140518872D01*
X51248987Y-140926415D01*
X51780811Y-141147248D01*
X52356662Y-141147751D01*
X52888872Y-140927846D01*
X53296415Y-140521013D01*
X53339834Y-140416449D01*
X53382154Y-140518872D01*
X53788987Y-140926415D01*
X54320811Y-141147248D01*
X54896662Y-141147751D01*
X55428872Y-140927846D01*
X55836415Y-140521013D01*
X56057248Y-139989189D01*
X56057250Y-139986662D01*
X58242249Y-139986662D01*
X58462154Y-140518872D01*
X58868987Y-140926415D01*
X59400811Y-141147248D01*
X59976662Y-141147751D01*
X60508872Y-140927846D01*
X60916415Y-140521013D01*
X61137248Y-139989189D01*
X61137751Y-139413338D01*
X60917846Y-138881128D01*
X60511013Y-138473585D01*
X59979189Y-138252752D01*
X59403338Y-138252249D01*
X58871128Y-138472154D01*
X58463585Y-138878987D01*
X58242752Y-139410811D01*
X58242249Y-139986662D01*
X56057250Y-139986662D01*
X56057751Y-139413338D01*
X55837846Y-138881128D01*
X55431013Y-138473585D01*
X54899189Y-138252752D01*
X54323338Y-138252249D01*
X53791128Y-138472154D01*
X53383585Y-138878987D01*
X53340166Y-138983551D01*
X53297846Y-138881128D01*
X52891013Y-138473585D01*
X52359189Y-138252752D01*
X51783338Y-138252249D01*
X51251128Y-138472154D01*
X50843585Y-138878987D01*
X50800166Y-138983551D01*
X50757846Y-138881128D01*
X50351013Y-138473585D01*
X49819189Y-138252752D01*
X49243338Y-138252249D01*
X48711128Y-138472154D01*
X48303585Y-138878987D01*
X48082752Y-139410811D01*
X48082249Y-139986662D01*
X37707440Y-139986662D01*
X37707440Y-139970000D01*
X37663162Y-139734683D01*
X37524090Y-139518559D01*
X37311890Y-139373569D01*
X37060000Y-139322560D01*
X34060000Y-139322560D01*
X33824683Y-139366838D01*
X33608559Y-139505910D01*
X33463569Y-139718110D01*
X33412560Y-139970000D01*
X30710000Y-139970000D01*
X30710000Y-134460000D01*
X33383173Y-134460000D01*
X33507630Y-135085687D01*
X33862053Y-135616120D01*
X34392486Y-135970543D01*
X35018173Y-136095000D01*
X36101827Y-136095000D01*
X36151260Y-136085167D01*
X113564838Y-136085167D01*
X113706883Y-136428943D01*
X113969673Y-136692192D01*
X114313201Y-136834838D01*
X114395463Y-136834910D01*
X114415277Y-136854724D01*
X114627120Y-136996272D01*
X114653728Y-137014051D01*
X114935000Y-137070000D01*
X114999778Y-137070000D01*
X114999838Y-137070317D01*
X115057051Y-137159228D01*
X115006569Y-137233110D01*
X114998454Y-137273183D01*
X114833728Y-137305949D01*
X114595277Y-137465276D01*
X114180277Y-137880277D01*
X114020949Y-138118728D01*
X113965000Y-138400000D01*
X113965000Y-139112581D01*
X113907808Y-139169673D01*
X113765162Y-139513201D01*
X113764838Y-139885167D01*
X113906883Y-140228943D01*
X114169673Y-140492192D01*
X114513201Y-140634838D01*
X114885167Y-140635162D01*
X115228943Y-140493117D01*
X115492192Y-140230327D01*
X115634838Y-139886799D01*
X115635162Y-139514833D01*
X115493117Y-139171057D01*
X115435000Y-139112838D01*
X115435000Y-139098419D01*
X115603000Y-139132440D01*
X116553000Y-139132440D01*
X116788317Y-139088162D01*
X117004441Y-138949090D01*
X117149431Y-138736890D01*
X117200440Y-138485000D01*
X117200440Y-137485000D01*
X117156162Y-137249683D01*
X117098949Y-137160772D01*
X117149431Y-137086890D01*
X117200440Y-136835000D01*
X117200440Y-135835000D01*
X117495560Y-135835000D01*
X117495560Y-136835000D01*
X117539838Y-137070317D01*
X117597051Y-137159228D01*
X117546569Y-137233110D01*
X117495560Y-137485000D01*
X117495560Y-138485000D01*
X117539838Y-138720317D01*
X117678910Y-138936441D01*
X117891110Y-139081431D01*
X118143000Y-139132440D01*
X119093000Y-139132440D01*
X119280150Y-139097225D01*
X119406883Y-139403943D01*
X119669673Y-139667192D01*
X120013201Y-139809838D01*
X120385167Y-139810162D01*
X120728943Y-139668117D01*
X120857283Y-139540000D01*
X122791173Y-139540000D01*
X122915630Y-140165687D01*
X123270053Y-140696120D01*
X123800486Y-141050543D01*
X124426173Y-141175000D01*
X125509827Y-141175000D01*
X126135514Y-141050543D01*
X126665947Y-140696120D01*
X127020370Y-140165687D01*
X127144827Y-139540000D01*
X127020370Y-138914313D01*
X126665947Y-138383880D01*
X126135514Y-138029457D01*
X125509827Y-137905000D01*
X124426173Y-137905000D01*
X123800486Y-138029457D01*
X123270053Y-138383880D01*
X122915630Y-138914313D01*
X122791173Y-139540000D01*
X120857283Y-139540000D01*
X120992192Y-139405327D01*
X121134838Y-139061799D01*
X121135162Y-138689833D01*
X120993117Y-138346057D01*
X120730327Y-138082808D01*
X120386799Y-137940162D01*
X120304537Y-137940090D01*
X119954695Y-137590249D01*
X120098201Y-137649838D01*
X120470167Y-137650162D01*
X120813943Y-137508117D01*
X121077192Y-137245327D01*
X121219838Y-136901799D01*
X121220162Y-136529833D01*
X121078117Y-136186057D01*
X120815327Y-135922808D01*
X120471799Y-135780162D01*
X120372040Y-135780075D01*
X120186272Y-135655949D01*
X119905000Y-135600000D01*
X119696222Y-135600000D01*
X119696162Y-135599683D01*
X119557090Y-135383559D01*
X119344890Y-135238569D01*
X119093000Y-135187560D01*
X118143000Y-135187560D01*
X117907683Y-135231838D01*
X117691559Y-135370910D01*
X117546569Y-135583110D01*
X117495560Y-135835000D01*
X117200440Y-135835000D01*
X117156162Y-135599683D01*
X117017090Y-135383559D01*
X116804890Y-135238569D01*
X116553000Y-135187560D01*
X115603000Y-135187560D01*
X115367683Y-135231838D01*
X115237661Y-135315505D01*
X115030327Y-135107808D01*
X114686799Y-134965162D01*
X114314833Y-134964838D01*
X113971057Y-135106883D01*
X113707808Y-135369673D01*
X113565162Y-135713201D01*
X113564838Y-136085167D01*
X36151260Y-136085167D01*
X36727514Y-135970543D01*
X37257947Y-135616120D01*
X37612370Y-135085687D01*
X37647980Y-134906662D01*
X48082249Y-134906662D01*
X48302154Y-135438872D01*
X48708987Y-135846415D01*
X49240811Y-136067248D01*
X49816662Y-136067751D01*
X50348872Y-135847846D01*
X50756415Y-135441013D01*
X50799834Y-135336449D01*
X50842154Y-135438872D01*
X51248987Y-135846415D01*
X51780811Y-136067248D01*
X52356662Y-136067751D01*
X52888872Y-135847846D01*
X53296415Y-135441013D01*
X53339834Y-135336449D01*
X53382154Y-135438872D01*
X53788987Y-135846415D01*
X54320811Y-136067248D01*
X54896662Y-136067751D01*
X55428872Y-135847846D01*
X55836415Y-135441013D01*
X56057248Y-134909189D01*
X56057250Y-134906662D01*
X58242249Y-134906662D01*
X58462154Y-135438872D01*
X58868987Y-135846415D01*
X59400811Y-136067248D01*
X59976662Y-136067751D01*
X60508872Y-135847846D01*
X60916415Y-135441013D01*
X61137248Y-134909189D01*
X61137570Y-134540000D01*
X122791173Y-134540000D01*
X122915630Y-135165687D01*
X123270053Y-135696120D01*
X123800486Y-136050543D01*
X124426173Y-136175000D01*
X125509827Y-136175000D01*
X126135514Y-136050543D01*
X126665947Y-135696120D01*
X127020370Y-135165687D01*
X127144827Y-134540000D01*
X127020370Y-133914313D01*
X126665947Y-133383880D01*
X126135514Y-133029457D01*
X125509827Y-132905000D01*
X124426173Y-132905000D01*
X123800486Y-133029457D01*
X123270053Y-133383880D01*
X122915630Y-133914313D01*
X122791173Y-134540000D01*
X61137570Y-134540000D01*
X61137751Y-134333338D01*
X60917846Y-133801128D01*
X60511013Y-133393585D01*
X59979189Y-133172752D01*
X59403338Y-133172249D01*
X58871128Y-133392154D01*
X58463585Y-133798987D01*
X58242752Y-134330811D01*
X58242249Y-134906662D01*
X56057250Y-134906662D01*
X56057751Y-134333338D01*
X55837846Y-133801128D01*
X55431013Y-133393585D01*
X54899189Y-133172752D01*
X54323338Y-133172249D01*
X53791128Y-133392154D01*
X53383585Y-133798987D01*
X53340166Y-133903551D01*
X53297846Y-133801128D01*
X52891013Y-133393585D01*
X52359189Y-133172752D01*
X51783338Y-133172249D01*
X51251128Y-133392154D01*
X50843585Y-133798987D01*
X50800166Y-133903551D01*
X50757846Y-133801128D01*
X50351013Y-133393585D01*
X49819189Y-133172752D01*
X49243338Y-133172249D01*
X48711128Y-133392154D01*
X48303585Y-133798987D01*
X48082752Y-134330811D01*
X48082249Y-134906662D01*
X37647980Y-134906662D01*
X37736827Y-134460000D01*
X37612370Y-133834313D01*
X37257947Y-133303880D01*
X36727514Y-132949457D01*
X36101827Y-132825000D01*
X35018173Y-132825000D01*
X34392486Y-132949457D01*
X33862053Y-133303880D01*
X33507630Y-133834313D01*
X33383173Y-134460000D01*
X30710000Y-134460000D01*
X30710000Y-129460000D01*
X33383173Y-129460000D01*
X33507630Y-130085687D01*
X33862053Y-130616120D01*
X34392486Y-130970543D01*
X35018173Y-131095000D01*
X36101827Y-131095000D01*
X36727514Y-130970543D01*
X37257947Y-130616120D01*
X37612370Y-130085687D01*
X37736827Y-129460000D01*
X37612370Y-128834313D01*
X37426851Y-128556662D01*
X48082249Y-128556662D01*
X48302154Y-129088872D01*
X48708987Y-129496415D01*
X49240811Y-129717248D01*
X49816662Y-129717751D01*
X50348872Y-129497846D01*
X50756415Y-129091013D01*
X50799834Y-128986449D01*
X50842154Y-129088872D01*
X51248987Y-129496415D01*
X51780811Y-129717248D01*
X52356662Y-129717751D01*
X52888872Y-129497846D01*
X53296415Y-129091013D01*
X53339834Y-128986449D01*
X53382154Y-129088872D01*
X53788987Y-129496415D01*
X54320811Y-129717248D01*
X54896662Y-129717751D01*
X55428872Y-129497846D01*
X55836415Y-129091013D01*
X56057248Y-128559189D01*
X56057250Y-128556662D01*
X58242249Y-128556662D01*
X58462154Y-129088872D01*
X58868987Y-129496415D01*
X59400811Y-129717248D01*
X59976662Y-129717751D01*
X60508872Y-129497846D01*
X60916415Y-129091013D01*
X61037254Y-128800000D01*
X84414999Y-128800000D01*
X84415000Y-128800005D01*
X84415000Y-130099995D01*
X84414999Y-130100000D01*
X84471190Y-130382484D01*
X84482367Y-130438675D01*
X84638937Y-130673000D01*
X84674210Y-130725790D01*
X84827560Y-130879140D01*
X84827560Y-131275000D01*
X84871838Y-131510317D01*
X85010910Y-131726441D01*
X85178275Y-131840796D01*
X85065162Y-132113201D01*
X85064838Y-132485167D01*
X85206883Y-132828943D01*
X85469673Y-133092192D01*
X85813201Y-133234838D01*
X86185167Y-133235162D01*
X86528943Y-133093117D01*
X86792192Y-132830327D01*
X86934838Y-132486799D01*
X86935162Y-132114833D01*
X86819933Y-131835956D01*
X86998691Y-131910000D01*
X87339250Y-131910000D01*
X87498000Y-131751250D01*
X87498000Y-130927000D01*
X87752000Y-130927000D01*
X87752000Y-131751250D01*
X87910750Y-131910000D01*
X88251309Y-131910000D01*
X88484698Y-131813327D01*
X88663327Y-131634699D01*
X88760000Y-131401310D01*
X88760000Y-131085750D01*
X88601250Y-130927000D01*
X87752000Y-130927000D01*
X87498000Y-130927000D01*
X87478000Y-130927000D01*
X87478000Y-130685167D01*
X97364838Y-130685167D01*
X97506883Y-131028943D01*
X97769673Y-131292192D01*
X98113201Y-131434838D01*
X98485167Y-131435162D01*
X98828943Y-131293117D01*
X98887162Y-131235000D01*
X101212581Y-131235000D01*
X101269673Y-131292192D01*
X101613201Y-131434838D01*
X101985167Y-131435162D01*
X102328943Y-131293117D01*
X102592192Y-131030327D01*
X102734838Y-130686799D01*
X102735162Y-130314833D01*
X102593117Y-129971057D01*
X102330327Y-129707808D01*
X101986799Y-129565162D01*
X101614833Y-129564838D01*
X101271057Y-129706883D01*
X101212838Y-129765000D01*
X98887419Y-129765000D01*
X98830327Y-129707808D01*
X98486799Y-129565162D01*
X98114833Y-129564838D01*
X97771057Y-129706883D01*
X97507808Y-129969673D01*
X97365162Y-130313201D01*
X97364838Y-130685167D01*
X87478000Y-130685167D01*
X87478000Y-130673000D01*
X87498000Y-130673000D01*
X87498000Y-130653000D01*
X87752000Y-130653000D01*
X87752000Y-130673000D01*
X88601250Y-130673000D01*
X88760000Y-130514250D01*
X88760000Y-130198690D01*
X88663327Y-129965301D01*
X88484698Y-129786673D01*
X88359948Y-129735000D01*
X89012581Y-129735000D01*
X89069673Y-129792192D01*
X89413201Y-129934838D01*
X89785167Y-129935162D01*
X90128943Y-129793117D01*
X90392192Y-129530327D01*
X90534838Y-129186799D01*
X90535162Y-128814833D01*
X90481516Y-128684999D01*
X91599996Y-128684999D01*
X91600001Y-128685000D01*
X91882485Y-128628809D01*
X91938676Y-128617632D01*
X92225791Y-128425789D01*
X92225792Y-128425788D01*
X92308835Y-128342744D01*
X92428943Y-128293117D01*
X92692192Y-128030327D01*
X92834838Y-127686799D01*
X92834839Y-127685167D01*
X117564838Y-127685167D01*
X117706883Y-128028943D01*
X117765000Y-128087162D01*
X117765000Y-128112581D01*
X117707808Y-128169673D01*
X117565162Y-128513201D01*
X117564838Y-128885167D01*
X117706883Y-129228943D01*
X117969673Y-129492192D01*
X118313201Y-129634838D01*
X118685167Y-129635162D01*
X119028943Y-129493117D01*
X119292192Y-129230327D01*
X119434838Y-128886799D01*
X119435140Y-128540000D01*
X122820560Y-128540000D01*
X122820560Y-130540000D01*
X122864838Y-130775317D01*
X123003910Y-130991441D01*
X123216110Y-131136431D01*
X123468000Y-131187440D01*
X126468000Y-131187440D01*
X126703317Y-131143162D01*
X126919441Y-131004090D01*
X127064431Y-130791890D01*
X127115440Y-130540000D01*
X127115440Y-128540000D01*
X127071162Y-128304683D01*
X126932090Y-128088559D01*
X126719890Y-127943569D01*
X126468000Y-127892560D01*
X123468000Y-127892560D01*
X123232683Y-127936838D01*
X123016559Y-128075910D01*
X122871569Y-128288110D01*
X122820560Y-128540000D01*
X119435140Y-128540000D01*
X119435162Y-128514833D01*
X119293117Y-128171057D01*
X119235000Y-128112838D01*
X119235000Y-128087419D01*
X119292192Y-128030327D01*
X119434838Y-127686799D01*
X119435162Y-127314833D01*
X119293117Y-126971057D01*
X119030327Y-126707808D01*
X118686799Y-126565162D01*
X118314833Y-126564838D01*
X117971057Y-126706883D01*
X117707808Y-126969673D01*
X117565162Y-127313201D01*
X117564838Y-127685167D01*
X92834839Y-127685167D01*
X92835162Y-127314833D01*
X92693117Y-126971057D01*
X92430327Y-126707808D01*
X92086799Y-126565162D01*
X91714833Y-126564838D01*
X91371057Y-126706883D01*
X91162577Y-126914999D01*
X86606823Y-126914999D01*
X86486800Y-126865161D01*
X86114834Y-126864837D01*
X85771058Y-127006882D01*
X85507809Y-127269672D01*
X85457435Y-127390986D01*
X84674210Y-128174210D01*
X84482367Y-128461325D01*
X84480431Y-128471057D01*
X84414999Y-128800000D01*
X61037254Y-128800000D01*
X61137248Y-128559189D01*
X61137751Y-127983338D01*
X60917846Y-127451128D01*
X60511013Y-127043585D01*
X59979189Y-126822752D01*
X59403338Y-126822249D01*
X58871128Y-127042154D01*
X58463585Y-127448987D01*
X58242752Y-127980811D01*
X58242249Y-128556662D01*
X56057250Y-128556662D01*
X56057751Y-127983338D01*
X55837846Y-127451128D01*
X55431013Y-127043585D01*
X54899189Y-126822752D01*
X54323338Y-126822249D01*
X53791128Y-127042154D01*
X53383585Y-127448987D01*
X53340166Y-127553551D01*
X53297846Y-127451128D01*
X52891013Y-127043585D01*
X52359189Y-126822752D01*
X51783338Y-126822249D01*
X51251128Y-127042154D01*
X50843585Y-127448987D01*
X50800166Y-127553551D01*
X50757846Y-127451128D01*
X50351013Y-127043585D01*
X49819189Y-126822752D01*
X49243338Y-126822249D01*
X48711128Y-127042154D01*
X48303585Y-127448987D01*
X48082752Y-127980811D01*
X48082249Y-128556662D01*
X37426851Y-128556662D01*
X37257947Y-128303880D01*
X36727514Y-127949457D01*
X36101827Y-127825000D01*
X35018173Y-127825000D01*
X34392486Y-127949457D01*
X33862053Y-128303880D01*
X33507630Y-128834313D01*
X33383173Y-129460000D01*
X30710000Y-129460000D01*
X30710000Y-124460000D01*
X33383173Y-124460000D01*
X33507630Y-125085687D01*
X33862053Y-125616120D01*
X34392486Y-125970543D01*
X35018173Y-126095000D01*
X36101827Y-126095000D01*
X36727514Y-125970543D01*
X37257947Y-125616120D01*
X37612370Y-125085687D01*
X37736827Y-124460000D01*
X37612370Y-123834313D01*
X37373396Y-123476662D01*
X48082249Y-123476662D01*
X48302154Y-124008872D01*
X48708987Y-124416415D01*
X49240811Y-124637248D01*
X49816662Y-124637751D01*
X50348872Y-124417846D01*
X50756415Y-124011013D01*
X50799834Y-123906449D01*
X50842154Y-124008872D01*
X51248987Y-124416415D01*
X51780811Y-124637248D01*
X52356662Y-124637751D01*
X52888872Y-124417846D01*
X53296415Y-124011013D01*
X53339834Y-123906449D01*
X53382154Y-124008872D01*
X53788987Y-124416415D01*
X54320811Y-124637248D01*
X54896662Y-124637751D01*
X55428872Y-124417846D01*
X55836415Y-124011013D01*
X56057248Y-123479189D01*
X56057250Y-123476662D01*
X58242249Y-123476662D01*
X58462154Y-124008872D01*
X58868987Y-124416415D01*
X59400811Y-124637248D01*
X59976662Y-124637751D01*
X60508872Y-124417846D01*
X60916415Y-124011013D01*
X61137248Y-123479189D01*
X61137599Y-123076434D01*
X122877876Y-123076434D01*
X122908856Y-123204355D01*
X123222078Y-123762317D01*
X123724980Y-124157942D01*
X124341000Y-124331000D01*
X124841000Y-124331000D01*
X124841000Y-122823000D01*
X125095000Y-122823000D01*
X125095000Y-124331000D01*
X125595000Y-124331000D01*
X126211020Y-124157942D01*
X126713922Y-123762317D01*
X127027144Y-123204355D01*
X127058124Y-123076434D01*
X126938777Y-122823000D01*
X125095000Y-122823000D01*
X124841000Y-122823000D01*
X122997223Y-122823000D01*
X122877876Y-123076434D01*
X61137599Y-123076434D01*
X61137751Y-122903338D01*
X60917846Y-122371128D01*
X60632384Y-122085167D01*
X99164838Y-122085167D01*
X99306883Y-122428943D01*
X99569673Y-122692192D01*
X99913201Y-122834838D01*
X100285167Y-122835162D01*
X100628943Y-122693117D01*
X100892192Y-122430327D01*
X100942566Y-122309014D01*
X101466580Y-121785000D01*
X101899998Y-121784999D01*
X101900003Y-121785000D01*
X102126297Y-121739986D01*
X102238679Y-121717632D01*
X102525794Y-121525788D01*
X102608837Y-121442744D01*
X102728945Y-121393117D01*
X102992194Y-121130327D01*
X103134840Y-120786799D01*
X103135164Y-120414833D01*
X102993119Y-120071057D01*
X102807554Y-119885167D01*
X112864838Y-119885167D01*
X112915000Y-120006569D01*
X112915000Y-121193178D01*
X112865162Y-121313201D01*
X112864838Y-121685167D01*
X113006883Y-122028943D01*
X113269673Y-122292192D01*
X113613201Y-122434838D01*
X113985167Y-122435162D01*
X114328943Y-122293117D01*
X114369227Y-122252903D01*
X117256838Y-122252903D01*
X117398883Y-122596679D01*
X117661673Y-122859928D01*
X118005201Y-123002574D01*
X118377167Y-123002898D01*
X118498569Y-122952736D01*
X120115478Y-122952736D01*
X120313201Y-123034838D01*
X120685167Y-123035162D01*
X121028943Y-122893117D01*
X121292192Y-122630327D01*
X121422892Y-122315566D01*
X122877876Y-122315566D01*
X122997223Y-122569000D01*
X124841000Y-122569000D01*
X124841000Y-121061000D01*
X125095000Y-121061000D01*
X125095000Y-122569000D01*
X126938777Y-122569000D01*
X127058124Y-122315566D01*
X127027144Y-122187645D01*
X126713922Y-121629683D01*
X126211020Y-121234058D01*
X125595000Y-121061000D01*
X125095000Y-121061000D01*
X124841000Y-121061000D01*
X124341000Y-121061000D01*
X123724980Y-121234058D01*
X123222078Y-121629683D01*
X122908856Y-122187645D01*
X122877876Y-122315566D01*
X121422892Y-122315566D01*
X121434838Y-122286799D01*
X121435162Y-121914833D01*
X121293117Y-121571057D01*
X121030327Y-121307808D01*
X121019080Y-121303138D01*
X121192192Y-121130327D01*
X121334838Y-120786799D01*
X121335162Y-120414833D01*
X121193117Y-120071057D01*
X120930327Y-119807808D01*
X120586799Y-119665162D01*
X120214833Y-119664838D01*
X120093431Y-119715000D01*
X118906822Y-119715000D01*
X118786799Y-119665162D01*
X118414833Y-119664838D01*
X118071057Y-119806883D01*
X117807808Y-120069673D01*
X117665162Y-120413201D01*
X117664838Y-120785167D01*
X117806883Y-121128943D01*
X117867839Y-121190005D01*
X117663057Y-121274619D01*
X117399808Y-121537409D01*
X117257162Y-121880937D01*
X117256838Y-122252903D01*
X114369227Y-122252903D01*
X114592192Y-122030327D01*
X114734838Y-121686799D01*
X114735162Y-121314833D01*
X114685000Y-121193431D01*
X114685000Y-120006822D01*
X114734838Y-119886799D01*
X114735162Y-119514833D01*
X114593117Y-119171057D01*
X114330327Y-118907808D01*
X113986799Y-118765162D01*
X113614833Y-118764838D01*
X113271057Y-118906883D01*
X113007808Y-119169673D01*
X112865162Y-119513201D01*
X112864838Y-119885167D01*
X102807554Y-119885167D01*
X102730329Y-119807808D01*
X102386801Y-119665162D01*
X102014835Y-119664838D01*
X101671059Y-119806883D01*
X101462579Y-120015000D01*
X101100005Y-120015000D01*
X101100000Y-120014999D01*
X100761326Y-120082366D01*
X100761325Y-120082367D01*
X100761324Y-120082367D01*
X100474209Y-120274211D01*
X100474207Y-120274214D01*
X99691165Y-121057256D01*
X99571057Y-121106883D01*
X99307808Y-121369673D01*
X99165162Y-121713201D01*
X99164838Y-122085167D01*
X60632384Y-122085167D01*
X60511013Y-121963585D01*
X59979189Y-121742752D01*
X59403338Y-121742249D01*
X58871128Y-121962154D01*
X58463585Y-122368987D01*
X58242752Y-122900811D01*
X58242249Y-123476662D01*
X56057250Y-123476662D01*
X56057751Y-122903338D01*
X55837846Y-122371128D01*
X55431013Y-121963585D01*
X54899189Y-121742752D01*
X54323338Y-121742249D01*
X53791128Y-121962154D01*
X53383585Y-122368987D01*
X53340166Y-122473551D01*
X53297846Y-122371128D01*
X52891013Y-121963585D01*
X52359189Y-121742752D01*
X51783338Y-121742249D01*
X51251128Y-121962154D01*
X50843585Y-122368987D01*
X50800166Y-122473551D01*
X50757846Y-122371128D01*
X50351013Y-121963585D01*
X49819189Y-121742752D01*
X49243338Y-121742249D01*
X48711128Y-121962154D01*
X48303585Y-122368987D01*
X48082752Y-122900811D01*
X48082249Y-123476662D01*
X37373396Y-123476662D01*
X37257947Y-123303880D01*
X36727514Y-122949457D01*
X36101827Y-122825000D01*
X35018173Y-122825000D01*
X34392486Y-122949457D01*
X33862053Y-123303880D01*
X33507630Y-123834313D01*
X33383173Y-124460000D01*
X30710000Y-124460000D01*
X30710000Y-118460000D01*
X33412560Y-118460000D01*
X33412560Y-120460000D01*
X33456838Y-120695317D01*
X33595910Y-120911441D01*
X33808110Y-121056431D01*
X34060000Y-121107440D01*
X37060000Y-121107440D01*
X37295317Y-121063162D01*
X37511441Y-120924090D01*
X37656431Y-120711890D01*
X37707440Y-120460000D01*
X37707440Y-120185167D01*
X88364838Y-120185167D01*
X88506883Y-120528943D01*
X88769673Y-120792192D01*
X89113201Y-120934838D01*
X89485167Y-120935162D01*
X89828943Y-120793117D01*
X89887162Y-120735000D01*
X92612577Y-120735000D01*
X92669669Y-120792192D01*
X93013197Y-120934838D01*
X93385163Y-120935162D01*
X93728939Y-120793117D01*
X93992188Y-120530327D01*
X94134834Y-120186799D01*
X94135158Y-119814833D01*
X93993113Y-119471057D01*
X93730323Y-119207808D01*
X93386795Y-119065162D01*
X93014829Y-119064838D01*
X92671053Y-119206883D01*
X92612834Y-119265000D01*
X89887419Y-119265000D01*
X89830327Y-119207808D01*
X89486799Y-119065162D01*
X89114833Y-119064838D01*
X88771057Y-119206883D01*
X88507808Y-119469673D01*
X88365162Y-119813201D01*
X88364838Y-120185167D01*
X37707440Y-120185167D01*
X37707440Y-118460000D01*
X37663162Y-118224683D01*
X37524090Y-118008559D01*
X37311890Y-117863569D01*
X37060000Y-117812560D01*
X34060000Y-117812560D01*
X33824683Y-117856838D01*
X33608559Y-117995910D01*
X33463569Y-118208110D01*
X33412560Y-118460000D01*
X30710000Y-118460000D01*
X30710000Y-117185167D01*
X89264838Y-117185167D01*
X89374359Y-117450228D01*
X89265162Y-117713201D01*
X89264838Y-118085167D01*
X89406883Y-118428943D01*
X89669673Y-118692192D01*
X90013201Y-118834838D01*
X90385167Y-118835162D01*
X90728943Y-118693117D01*
X90787162Y-118635000D01*
X95372766Y-118635000D01*
X95613201Y-118734838D01*
X95985167Y-118735162D01*
X96328943Y-118593117D01*
X96592192Y-118330327D01*
X96734838Y-117986799D01*
X96735091Y-117696000D01*
X122791173Y-117696000D01*
X122915630Y-118321687D01*
X123270053Y-118852120D01*
X123800486Y-119206543D01*
X124426173Y-119331000D01*
X125509827Y-119331000D01*
X126135514Y-119206543D01*
X126665947Y-118852120D01*
X127020370Y-118321687D01*
X127144827Y-117696000D01*
X127020370Y-117070313D01*
X126665947Y-116539880D01*
X126135514Y-116185457D01*
X125509827Y-116061000D01*
X124426173Y-116061000D01*
X123800486Y-116185457D01*
X123270053Y-116539880D01*
X122915630Y-117070313D01*
X122791173Y-117696000D01*
X96735091Y-117696000D01*
X96735162Y-117614833D01*
X96593117Y-117271057D01*
X96330327Y-117007808D01*
X95986799Y-116865162D01*
X95614833Y-116864838D01*
X95271057Y-117006883D01*
X95112664Y-117165000D01*
X93834857Y-117165000D01*
X93835162Y-116814833D01*
X93693117Y-116471057D01*
X93430327Y-116207808D01*
X93086799Y-116065162D01*
X92714833Y-116064838D01*
X92371057Y-116206883D01*
X92312838Y-116265000D01*
X90787419Y-116265000D01*
X90730327Y-116207808D01*
X90386799Y-116065162D01*
X90014833Y-116064838D01*
X89671057Y-116206883D01*
X89407808Y-116469673D01*
X89265162Y-116813201D01*
X89264838Y-117185167D01*
X30710000Y-117185167D01*
X30710000Y-112696000D01*
X122791173Y-112696000D01*
X122915630Y-113321687D01*
X123270053Y-113852120D01*
X123800486Y-114206543D01*
X124426173Y-114331000D01*
X125509827Y-114331000D01*
X126135514Y-114206543D01*
X126665947Y-113852120D01*
X127020370Y-113321687D01*
X127144827Y-112696000D01*
X127020370Y-112070313D01*
X126665947Y-111539880D01*
X126135514Y-111185457D01*
X125509827Y-111061000D01*
X124426173Y-111061000D01*
X123800486Y-111185457D01*
X123270053Y-111539880D01*
X122915630Y-112070313D01*
X122791173Y-112696000D01*
X30710000Y-112696000D01*
X30710000Y-107875022D01*
X32304584Y-107875022D01*
X32525353Y-108245743D01*
X33497012Y-108639119D01*
X34545247Y-108630713D01*
X35474647Y-108245743D01*
X35695416Y-107875022D01*
X35643395Y-107823000D01*
X75552560Y-107823000D01*
X75552560Y-110871000D01*
X75596838Y-111106317D01*
X75735910Y-111322441D01*
X75948110Y-111467431D01*
X76200000Y-111518440D01*
X77724000Y-111518440D01*
X77959317Y-111474162D01*
X78175441Y-111335090D01*
X78320431Y-111122890D01*
X78362968Y-110912834D01*
X78514172Y-111139125D01*
X78967391Y-111441957D01*
X79502000Y-111548297D01*
X80036609Y-111441957D01*
X80489828Y-111139125D01*
X80782349Y-110701338D01*
X80799941Y-110760941D01*
X81143974Y-111186630D01*
X81624723Y-111448260D01*
X81698930Y-111463220D01*
X81915000Y-111340720D01*
X81915000Y-109474000D01*
X81895000Y-109474000D01*
X81895000Y-109220000D01*
X81915000Y-109220000D01*
X81915000Y-107353280D01*
X82169000Y-107353280D01*
X82169000Y-109220000D01*
X82189000Y-109220000D01*
X82189000Y-109474000D01*
X82169000Y-109474000D01*
X82169000Y-111340720D01*
X82385070Y-111463220D01*
X82459277Y-111448260D01*
X82940026Y-111186630D01*
X83284059Y-110760941D01*
X83301651Y-110701338D01*
X83594172Y-111139125D01*
X84047391Y-111441957D01*
X84582000Y-111548297D01*
X85116609Y-111441957D01*
X85569828Y-111139125D01*
X85852000Y-110716826D01*
X86134172Y-111139125D01*
X86587391Y-111441957D01*
X87122000Y-111548297D01*
X87656609Y-111441957D01*
X88109828Y-111139125D01*
X88392000Y-110716826D01*
X88674172Y-111139125D01*
X89127391Y-111441957D01*
X89662000Y-111548297D01*
X90196609Y-111441957D01*
X90649828Y-111139125D01*
X90952660Y-110685906D01*
X91059000Y-110151297D01*
X91059000Y-109875022D01*
X114904584Y-109875022D01*
X115125353Y-110245743D01*
X116097012Y-110639119D01*
X117145247Y-110630713D01*
X118074647Y-110245743D01*
X118295416Y-109875022D01*
X116600000Y-108179605D01*
X114904584Y-109875022D01*
X91059000Y-109875022D01*
X91059000Y-108542703D01*
X90952660Y-108008094D01*
X90649828Y-107554875D01*
X90196609Y-107252043D01*
X89662000Y-107145703D01*
X89127391Y-107252043D01*
X88674172Y-107554875D01*
X88392000Y-107977174D01*
X88109828Y-107554875D01*
X87656609Y-107252043D01*
X87122000Y-107145703D01*
X86587391Y-107252043D01*
X86134172Y-107554875D01*
X85852000Y-107977174D01*
X85569828Y-107554875D01*
X85116609Y-107252043D01*
X84582000Y-107145703D01*
X84047391Y-107252043D01*
X83594172Y-107554875D01*
X83301651Y-107992662D01*
X83284059Y-107933059D01*
X82940026Y-107507370D01*
X82459277Y-107245740D01*
X82385070Y-107230780D01*
X82169000Y-107353280D01*
X81915000Y-107353280D01*
X81698930Y-107230780D01*
X81624723Y-107245740D01*
X81143974Y-107507370D01*
X80799941Y-107933059D01*
X80782349Y-107992662D01*
X80489828Y-107554875D01*
X80036609Y-107252043D01*
X79502000Y-107145703D01*
X78967391Y-107252043D01*
X78514172Y-107554875D01*
X78363437Y-107780466D01*
X78327162Y-107587683D01*
X78188090Y-107371559D01*
X77975890Y-107226569D01*
X77724000Y-107175560D01*
X76200000Y-107175560D01*
X75964683Y-107219838D01*
X75748559Y-107358910D01*
X75603569Y-107571110D01*
X75552560Y-107823000D01*
X35643395Y-107823000D01*
X34000000Y-106179605D01*
X32304584Y-107875022D01*
X30710000Y-107875022D01*
X30710000Y-105497012D01*
X31360881Y-105497012D01*
X31369287Y-106545247D01*
X31754257Y-107474647D01*
X32124978Y-107695416D01*
X33820395Y-106000000D01*
X34179605Y-106000000D01*
X35875022Y-107695416D01*
X36245743Y-107474647D01*
X36639119Y-106502988D01*
X36630713Y-105454753D01*
X36245743Y-104525353D01*
X35875022Y-104304584D01*
X34179605Y-106000000D01*
X33820395Y-106000000D01*
X32124978Y-104304584D01*
X31754257Y-104525353D01*
X31360881Y-105497012D01*
X30710000Y-105497012D01*
X30710000Y-104124978D01*
X32304584Y-104124978D01*
X34000000Y-105820395D01*
X35695416Y-104124978D01*
X35474647Y-103754257D01*
X34502988Y-103360881D01*
X33454753Y-103369287D01*
X32525353Y-103754257D01*
X32304584Y-104124978D01*
X30710000Y-104124978D01*
X30710000Y-103210000D01*
X97486267Y-103210000D01*
X97320657Y-103320657D01*
M02*
