M48
;DRILL file {KiCad 4.0.7} date 12/16/17 16:03:25
;FORMAT={-:-/ absolute / inch / decimal}
FMAT,2
INCH,TZ
T1C0.012
T2C0.039
T3C0.040
T4C0.051
T5C0.118
%
G90
G05
M72
T1
X1.6772Y-4.315
X1.7165Y-4.4094
X1.7283Y-5.7008
X1.7283Y-5.7244
X1.752Y-5.7008
X1.752Y-5.7244
X1.7756Y-5.7008
X1.7756Y-5.7244
X2.0437Y-6.0695
X2.0437Y-6.0945
X2.0437Y-6.1195
X2.0437Y-6.2195
X2.0437Y-6.2445
X2.0437Y-6.2695
X2.235Y-5.825
X2.295Y-6.095
X2.32Y-6.095
X2.345Y-6.095
X2.4183Y-5.7283
X2.5551Y-6.3543
X2.5551Y-6.378
X2.5551Y-6.4016
X2.6181Y-5.9
X2.6417Y-5.9
X2.665Y-5.9
X2.7205Y-4.2913
X2.7441Y-5.
X2.7441Y-5.4528
X2.9055Y-5.2953
X2.9606Y-4.7835
X2.9882Y-5.0157
X3.12Y-5.975
X3.1496Y-4.7126
X3.3858Y-5.2087
X3.3976Y-5.0315
X3.4134Y-5.0787
X3.4134Y-5.5551
X3.4173Y-5.5945
X3.4567Y-5.5236
X3.5079Y-6.4606
X3.5079Y-6.4843
X3.5157Y-4.7244
X3.5276Y-5.0787
X3.5315Y-6.4606
X3.5315Y-6.4843
X3.5512Y-4.6063
X3.5512Y-4.6417
X3.5551Y-5.5945
X3.5591Y-5.9409
X3.5591Y-5.9646
X3.5748Y-5.5276
X3.5827Y-5.9409
X3.5827Y-5.9646
X3.5984Y-5.5551
X3.6181Y-5.0197
X3.6457Y-6.2402
X3.6575Y-4.6063
X3.6575Y-5.0276
X3.6693Y-4.7244
X3.6772Y-5.1693
X3.7165Y-4.4685
X3.7717Y-4.6378
X3.7992Y-5.7638
X3.7992Y-5.8504
X3.8228Y-4.1969
X3.8346Y-5.7677
X3.8346Y-5.8307
X3.8701Y-5.1378
X3.937Y-5.0197
X3.9409Y-4.7992
X3.9724Y-5.8976
X3.9724Y-6.2913
X3.9961Y-4.4646
X4.0079Y-5.1378
X4.0236Y-5.0197
X4.0236Y-4.748
X4.0669Y-5.8858
X4.0709Y-6.0551
X4.1142Y-6.1575
X4.1299Y-4.4606
X4.1654Y-6.4528
X4.2362Y-4.185
X4.252Y-5.5906
X4.2717Y-6.1575
X4.2795Y-5.0236
X4.3268Y-6.0512
X4.374Y-5.0197
X4.4094Y-4.4606
X4.4173Y-5.7283
X4.4173Y-5.9213
X4.4606Y-5.1693
X4.4646Y-5.6811
X4.4803Y-4.7126
X4.4803Y-4.7835
X4.5079Y-5.3504
X4.5157Y-5.5
X4.5906Y-5.7638
X4.6102Y-4.9724
X4.6532Y-4.8058
X4.6654Y-5.0197
X4.6654Y-5.0669
X4.6693Y-4.748
X4.7323Y-5.4675
X4.7356Y-5.3825
X4.7402Y-4.748
X4.7441Y-4.8071
X4.7441Y-5.9173
X5.0039Y-4.748
T2
X1.95Y-4.85
X1.95Y-5.05
X1.95Y-5.3
X1.95Y-5.5
X2.05Y-4.85
X2.05Y-5.05
X2.05Y-5.3
X2.05Y-5.5
X2.15Y-4.85
X2.15Y-5.05
X2.15Y-5.3
X2.15Y-5.5
X2.35Y-4.85
X2.35Y-5.05
X2.35Y-5.3
X2.35Y-5.5
T3
X3.03Y-4.305
X3.13Y-4.305
X3.23Y-4.305
X3.33Y-4.305
X3.43Y-4.305
X3.53Y-4.305
T4
X1.4Y-4.7031
X1.4Y-4.9
X1.4Y-5.0969
X1.4Y-5.2937
X1.4Y-5.55
X1.4Y-5.7469
X1.4Y-5.9437
X1.4Y-6.1406
X4.92Y-4.24
X4.92Y-4.4369
X4.92Y-4.6337
X4.92Y-4.8306
X4.92Y-5.1
X4.92Y-5.2969
X4.92Y-5.4937
X4.92Y-5.6906
T5
X1.3386Y-4.1732
X1.3386Y-6.5354
X4.5906Y-4.252
X4.9173Y-6.4843
T0
M30
