G04 #@! TF.FileFunction,Soldermask,Top*
%FSLAX46Y46*%
G04 Gerber Fmt 4.6, Leading zero omitted, Abs format (unit mm)*
G04 Created by KiCad (PCBNEW 4.0.7) date 12/16/17 16:03:18*
%MOMM*%
%LPD*%
G01*
G04 APERTURE LIST*
%ADD10C,0.100000*%
%ADD11R,5.000000X2.400000*%
%ADD12R,1.400000X1.350000*%
%ADD13R,2.350000X1.000000*%
%ADD14R,1.350000X1.400000*%
%ADD15R,1.400000X1.800000*%
%ADD16R,1.850000X1.550000*%
%ADD17R,1.550000X1.850000*%
%ADD18R,1.350000X2.550000*%
%ADD19R,3.650000X2.550000*%
%ADD20R,3.400000X1.900000*%
%ADD21R,2.700000X2.900000*%
%ADD22R,2.100000X2.900000*%
%ADD23R,2.900000X2.700000*%
%ADD24R,3.400000X2.400000*%
%ADD25O,3.400000X2.400000*%
%ADD26R,3.300000X5.800000*%
%ADD27C,4.400000*%
%ADD28R,1.800000X1.400000*%
%ADD29R,1.950000X1.000000*%
%ADD30R,1.400000X1.100000*%
%ADD31C,2.025000*%
%ADD32R,2.940000X1.920000*%
%ADD33R,1.924000X3.448000*%
%ADD34O,1.924000X3.448000*%
G04 APERTURE END LIST*
D10*
D11*
X71660000Y-149860000D03*
X62960000Y-149860000D03*
D12*
X118925000Y-116300000D03*
X117275000Y-116300000D03*
X118925000Y-111900000D03*
X117275000Y-111900000D03*
D13*
X93474000Y-132334000D03*
X93474000Y-134874000D03*
X93474000Y-136144000D03*
X93474000Y-133604000D03*
X93474000Y-137414000D03*
X93474000Y-143764000D03*
X93474000Y-139954000D03*
X93474000Y-142494000D03*
X93474000Y-141224000D03*
X93474000Y-138684000D03*
X84074000Y-138684000D03*
X84074000Y-141224000D03*
X84074000Y-142494000D03*
X84074000Y-139954000D03*
X84074000Y-143764000D03*
X84074000Y-137414000D03*
X84074000Y-133604000D03*
X84074000Y-136144000D03*
X84074000Y-134874000D03*
X84074000Y-132334000D03*
D12*
X82005000Y-118806000D03*
X83655000Y-118806000D03*
D14*
X76480000Y-123187000D03*
X76480000Y-121537000D03*
X83592000Y-123124000D03*
X83592000Y-121474000D03*
D15*
X79086000Y-123292000D03*
X80986000Y-123292000D03*
X80036000Y-121092000D03*
D16*
X79248000Y-153407000D03*
X79248000Y-155457000D03*
D17*
X87639000Y-155194000D03*
X85589000Y-155194000D03*
D18*
X87898000Y-158284000D03*
X85598000Y-158284000D03*
X83298000Y-158284000D03*
D19*
X85598000Y-164084000D03*
D20*
X83852000Y-150876000D03*
X87852000Y-150876000D03*
D21*
X79756000Y-159394000D03*
X79756000Y-163694000D03*
D14*
X69088000Y-110427000D03*
X69088000Y-112077000D03*
X44069000Y-108014000D03*
X44069000Y-109664000D03*
D12*
X116268000Y-131318000D03*
X114618000Y-131318000D03*
D14*
X102090000Y-126451000D03*
X102090000Y-124801000D03*
X108694000Y-124801000D03*
X108694000Y-126451000D03*
X103378000Y-152463000D03*
X103378000Y-150813000D03*
X109982000Y-150813000D03*
X109982000Y-152463000D03*
D12*
X78886000Y-127363000D03*
X77236000Y-127363000D03*
D14*
X92818000Y-126479000D03*
X92818000Y-124829000D03*
X99676000Y-124829000D03*
X99676000Y-126479000D03*
X100974000Y-161023000D03*
X100974000Y-162673000D03*
X93862000Y-162673000D03*
X93862000Y-161023000D03*
X104892000Y-112077000D03*
X104892000Y-110427000D03*
X112004000Y-110490000D03*
X112004000Y-112140000D03*
X111080000Y-126431000D03*
X111080000Y-124781000D03*
X118192000Y-124781000D03*
X118192000Y-126431000D03*
X94388000Y-112252000D03*
X94388000Y-110602000D03*
X101500000Y-110539000D03*
X101500000Y-112189000D03*
D11*
X52610000Y-147320000D03*
X43910000Y-147320000D03*
D22*
X73152000Y-109125000D03*
X73152000Y-113125000D03*
D14*
X121412000Y-160719000D03*
X121412000Y-162369000D03*
X117602000Y-160719000D03*
X117602000Y-162369000D03*
X113792000Y-160719000D03*
X113792000Y-162369000D03*
D12*
X67881000Y-122428000D03*
X66231000Y-122428000D03*
D22*
X62992000Y-123730000D03*
X62992000Y-127730000D03*
D12*
X67881000Y-134112000D03*
X66231000Y-134112000D03*
D22*
X62992000Y-135414000D03*
X62992000Y-139414000D03*
D14*
X105791000Y-160719000D03*
X105791000Y-162369000D03*
X109728000Y-160719000D03*
X109728000Y-162369000D03*
D23*
X48980000Y-154800000D03*
X44680000Y-154800000D03*
X44680000Y-158610000D03*
X48980000Y-158610000D03*
D24*
X124968000Y-129540000D03*
D25*
X124968000Y-134540000D03*
X124968000Y-139540000D03*
X124968000Y-144540000D03*
D24*
X35560000Y-119460000D03*
D25*
X35560000Y-124460000D03*
X35560000Y-129460000D03*
X35560000Y-134460000D03*
D24*
X124968000Y-107696000D03*
D25*
X124968000Y-112696000D03*
X124968000Y-117696000D03*
X124968000Y-122696000D03*
D24*
X35560000Y-140970000D03*
D25*
X35560000Y-145970000D03*
X35560000Y-150970000D03*
X35560000Y-155970000D03*
D26*
X62460000Y-162560000D03*
X72160000Y-162560000D03*
D27*
X34000000Y-166000000D03*
X124900000Y-164700000D03*
X116600000Y-108000000D03*
X34000000Y-106000000D03*
D15*
X122428000Y-151638000D03*
X120528000Y-151638000D03*
X121478000Y-153838000D03*
X118486000Y-147828000D03*
X116586000Y-147828000D03*
X117536000Y-150028000D03*
X114676000Y-151892000D03*
X112776000Y-151892000D03*
X113726000Y-154092000D03*
D28*
X68326000Y-128900000D03*
X68326000Y-127000000D03*
X66126000Y-127950000D03*
X68240000Y-140396000D03*
X68240000Y-138496000D03*
X66040000Y-139446000D03*
D14*
X118618000Y-135065000D03*
X118618000Y-136715000D03*
X118618000Y-140525000D03*
X118618000Y-138875000D03*
X69088000Y-116014000D03*
X69088000Y-114364000D03*
D12*
X79501000Y-113792000D03*
X77851000Y-113792000D03*
X108013000Y-134620000D03*
X106363000Y-134620000D03*
X106363000Y-136652000D03*
X108013000Y-136652000D03*
X108013000Y-138684000D03*
X106363000Y-138684000D03*
X45784000Y-114935000D03*
X47434000Y-114935000D03*
X98193000Y-133550000D03*
X96543000Y-133550000D03*
X98193000Y-135582000D03*
X96543000Y-135582000D03*
X93799000Y-158546000D03*
X95449000Y-158546000D03*
X108013000Y-140716000D03*
X106363000Y-140716000D03*
D14*
X43561000Y-113221000D03*
X43561000Y-114871000D03*
D12*
X104567000Y-122832000D03*
X106217000Y-122832000D03*
X105855000Y-148844000D03*
X107505000Y-148844000D03*
D14*
X121412000Y-156401000D03*
X121412000Y-158051000D03*
X117602000Y-156401000D03*
X117602000Y-158051000D03*
X113792000Y-156401000D03*
X113792000Y-158051000D03*
D12*
X79439000Y-139954000D03*
X81089000Y-139954000D03*
X75375000Y-135300000D03*
X77025000Y-135300000D03*
D14*
X81998000Y-128570000D03*
X81998000Y-130220000D03*
D12*
X93027000Y-145796000D03*
X91377000Y-145796000D03*
X81089000Y-142494000D03*
X79439000Y-142494000D03*
X95549000Y-122860000D03*
X97199000Y-122860000D03*
X98243000Y-164642000D03*
X96593000Y-164642000D03*
X107623000Y-108458000D03*
X109273000Y-108458000D03*
X67881000Y-124460000D03*
X66231000Y-124460000D03*
X68325000Y-131200000D03*
X66675000Y-131200000D03*
X113811000Y-122812000D03*
X115461000Y-122812000D03*
X97119000Y-108570000D03*
X98769000Y-108570000D03*
X118925000Y-114100000D03*
X117275000Y-114100000D03*
X67881000Y-136144000D03*
X66231000Y-136144000D03*
X69125000Y-142800000D03*
X67475000Y-142800000D03*
D14*
X109728000Y-158051000D03*
X109728000Y-156401000D03*
X105791000Y-158051000D03*
X105791000Y-156401000D03*
D29*
X110838000Y-133350000D03*
X110838000Y-134620000D03*
X110838000Y-135890000D03*
X110838000Y-137160000D03*
X110838000Y-138430000D03*
X110838000Y-139700000D03*
X110838000Y-140970000D03*
X116238000Y-140970000D03*
X116238000Y-139700000D03*
X116238000Y-138430000D03*
X116238000Y-137160000D03*
X116238000Y-135890000D03*
X116238000Y-134620000D03*
X116238000Y-133350000D03*
D30*
X104192000Y-124930000D03*
X104192000Y-125880000D03*
X104192000Y-126830000D03*
X106592000Y-126830000D03*
X106592000Y-125880000D03*
X106592000Y-124930000D03*
X105480000Y-150942000D03*
X105480000Y-151892000D03*
X105480000Y-152842000D03*
X107880000Y-152842000D03*
X107880000Y-151892000D03*
X107880000Y-150942000D03*
D29*
X73837000Y-129649000D03*
X73837000Y-130919000D03*
X73837000Y-132189000D03*
X73837000Y-133459000D03*
X79237000Y-133459000D03*
X79237000Y-132189000D03*
X79237000Y-130919000D03*
X79237000Y-129649000D03*
D30*
X95047000Y-124958000D03*
X95047000Y-125908000D03*
X95047000Y-126858000D03*
X97447000Y-126858000D03*
X97447000Y-125908000D03*
X97447000Y-124958000D03*
X98618000Y-162544000D03*
X98618000Y-161594000D03*
X98618000Y-160644000D03*
X96218000Y-160644000D03*
X96218000Y-161594000D03*
X96218000Y-162544000D03*
X107248000Y-110556000D03*
X107248000Y-111506000D03*
X107248000Y-112456000D03*
X109648000Y-112456000D03*
X109648000Y-111506000D03*
X109648000Y-110556000D03*
X113436000Y-124910000D03*
X113436000Y-125860000D03*
X113436000Y-126810000D03*
X115836000Y-126810000D03*
X115836000Y-125860000D03*
X115836000Y-124910000D03*
X96744000Y-110668000D03*
X96744000Y-111618000D03*
X96744000Y-112568000D03*
X99144000Y-112568000D03*
X99144000Y-111618000D03*
X99144000Y-110668000D03*
D31*
X59690000Y-123190000D03*
X54610000Y-123190000D03*
X52070000Y-123190000D03*
X49530000Y-123190000D03*
X49530000Y-128270000D03*
X52070000Y-128270000D03*
X54610000Y-128270000D03*
X59690000Y-128270000D03*
X59690000Y-134620000D03*
X54610000Y-134620000D03*
X52070000Y-134620000D03*
X49530000Y-134620000D03*
X49530000Y-139700000D03*
X52070000Y-139700000D03*
X54610000Y-139700000D03*
X59690000Y-139700000D03*
D32*
X46736000Y-104960000D03*
X46736000Y-107500000D03*
X46736000Y-110040000D03*
X46736000Y-112580000D03*
X63496000Y-104960000D03*
X63496000Y-107500000D03*
X63496000Y-110040000D03*
X63496000Y-112580000D03*
D12*
X96543000Y-137614000D03*
X98193000Y-137614000D03*
X81089000Y-137414000D03*
X79439000Y-137414000D03*
D14*
X114046000Y-147702000D03*
X114046000Y-149352000D03*
D33*
X76962000Y-109347000D03*
D34*
X79502000Y-109347000D03*
X82042000Y-109347000D03*
X84582000Y-109347000D03*
X87122000Y-109347000D03*
X89662000Y-109347000D03*
M02*
