G04 #@! TF.GenerationSoftware,KiCad,Pcbnew,5.0.0-fee4fd1~66~ubuntu18.04.1*
G04 #@! TF.CreationDate,2018-12-28T16:36:32-07:00*
G04 #@! TF.ProjectId,transceiver_test,7472616E736365697665725F74657374,rev?*
G04 #@! TF.SameCoordinates,Original*
G04 #@! TF.FileFunction,Copper,L1,Top,Signal*
G04 #@! TF.FilePolarity,Positive*
%FSLAX46Y46*%
G04 Gerber Fmt 4.6, Leading zero omitted, Abs format (unit mm)*
G04 Created by KiCad (PCBNEW 5.0.0-fee4fd1~66~ubuntu18.04.1) date Fri Dec 28 16:36:32 2018*
%MOMM*%
%LPD*%
G01*
G04 APERTURE LIST*
G04 #@! TA.AperFunction,SMDPad,CuDef*
%ADD10R,0.950000X1.000000*%
G04 #@! TD*
G04 #@! TA.AperFunction,SMDPad,CuDef*
%ADD11R,1.000000X0.950000*%
G04 #@! TD*
G04 #@! TA.AperFunction,SMDPad,CuDef*
%ADD12R,4.600000X2.000000*%
G04 #@! TD*
G04 #@! TA.AperFunction,SMDPad,CuDef*
%ADD13R,1.450000X1.150000*%
G04 #@! TD*
G04 #@! TA.AperFunction,SMDPad,CuDef*
%ADD14R,1.500000X3.000000*%
G04 #@! TD*
G04 #@! TA.AperFunction,SMDPad,CuDef*
%ADD15R,1.150000X1.450000*%
G04 #@! TD*
G04 #@! TA.AperFunction,SMDPad,CuDef*
%ADD16R,1.700000X2.500000*%
G04 #@! TD*
G04 #@! TA.AperFunction,SMDPad,CuDef*
%ADD17R,2.500000X1.700000*%
G04 #@! TD*
G04 #@! TA.AperFunction,SMDPad,CuDef*
%ADD18R,2.500000X2.300000*%
G04 #@! TD*
G04 #@! TA.AperFunction,ComponentPad*
%ADD19R,3.000000X2.000000*%
G04 #@! TD*
G04 #@! TA.AperFunction,ComponentPad*
%ADD20O,3.000000X2.000000*%
G04 #@! TD*
G04 #@! TA.AperFunction,ComponentPad*
%ADD21R,1.524000X3.048000*%
G04 #@! TD*
G04 #@! TA.AperFunction,ComponentPad*
%ADD22O,1.524000X3.048000*%
G04 #@! TD*
G04 #@! TA.AperFunction,SMDPad,CuDef*
%ADD23R,5.400000X2.900000*%
G04 #@! TD*
G04 #@! TA.AperFunction,SMDPad,CuDef*
%ADD24R,1.000000X1.400000*%
G04 #@! TD*
G04 #@! TA.AperFunction,SMDPad,CuDef*
%ADD25R,1.400000X1.000000*%
G04 #@! TD*
G04 #@! TA.AperFunction,ComponentPad*
%ADD26C,1.625000*%
G04 #@! TD*
G04 #@! TA.AperFunction,SMDPad,CuDef*
%ADD27R,1.000000X0.700000*%
G04 #@! TD*
G04 #@! TA.AperFunction,SMDPad,CuDef*
%ADD28R,1.950000X0.600000*%
G04 #@! TD*
G04 #@! TA.AperFunction,SMDPad,CuDef*
%ADD29R,2.540000X1.520000*%
G04 #@! TD*
G04 #@! TA.AperFunction,SMDPad,CuDef*
%ADD30R,1.550000X0.600000*%
G04 #@! TD*
G04 #@! TA.AperFunction,SMDPad,CuDef*
%ADD31R,0.950000X2.150000*%
G04 #@! TD*
G04 #@! TA.AperFunction,SMDPad,CuDef*
%ADD32R,3.250000X2.150000*%
G04 #@! TD*
G04 #@! TA.AperFunction,ComponentPad*
%ADD33C,4.000000*%
G04 #@! TD*
G04 #@! TA.AperFunction,ViaPad*
%ADD34C,0.609600*%
G04 #@! TD*
G04 #@! TA.AperFunction,Conductor*
%ADD35C,0.254000*%
G04 #@! TD*
G04 #@! TA.AperFunction,Conductor*
%ADD36C,0.508000*%
G04 #@! TD*
G04 #@! TA.AperFunction,Conductor*
%ADD37C,1.270000*%
G04 #@! TD*
G04 APERTURE END LIST*
D10*
G04 #@! TO.P,C1,1*
G04 #@! TO.N,/RF_IN*
X27686000Y-57721000D03*
G04 #@! TO.P,C1,2*
G04 #@! TO.N,Net-(C1-Pad2)*
X27686000Y-56071000D03*
G04 #@! TD*
G04 #@! TO.P,C2,2*
G04 #@! TO.N,GND*
X38100000Y-52769000D03*
G04 #@! TO.P,C2,1*
G04 #@! TO.N,Net-(C2-Pad1)*
X38100000Y-54419000D03*
G04 #@! TD*
D11*
G04 #@! TO.P,C3,1*
G04 #@! TO.N,Net-(C3-Pad1)*
X26225000Y-62738000D03*
G04 #@! TO.P,C3,2*
G04 #@! TO.N,/RF_OUT*
X24575000Y-62738000D03*
G04 #@! TD*
D10*
G04 #@! TO.P,C4,1*
G04 #@! TO.N,Net-(C2-Pad1)*
X42672000Y-54419000D03*
G04 #@! TO.P,C4,2*
G04 #@! TO.N,Net-(C4-Pad2)*
X42672000Y-52769000D03*
G04 #@! TD*
D11*
G04 #@! TO.P,C5,2*
G04 #@! TO.N,GND*
X34861000Y-63246000D03*
G04 #@! TO.P,C5,1*
G04 #@! TO.N,+5V*
X33211000Y-63246000D03*
G04 #@! TD*
D10*
G04 #@! TO.P,C6,2*
G04 #@! TO.N,GND*
X47244000Y-54801000D03*
G04 #@! TO.P,C6,1*
G04 #@! TO.N,Net-(C6-Pad1)*
X47244000Y-56451000D03*
G04 #@! TD*
D11*
G04 #@! TO.P,C7,2*
G04 #@! TO.N,+3V3*
X79439000Y-48768000D03*
G04 #@! TO.P,C7,1*
G04 #@! TO.N,GND*
X81089000Y-48768000D03*
G04 #@! TD*
D10*
G04 #@! TO.P,C8,1*
G04 #@! TO.N,GND*
X74676000Y-65215000D03*
G04 #@! TO.P,C8,2*
G04 #@! TO.N,+5V*
X74676000Y-66865000D03*
G04 #@! TD*
D11*
G04 #@! TO.P,C9,1*
G04 #@! TO.N,Net-(C9-Pad1)*
X85153000Y-48768000D03*
G04 #@! TO.P,C9,2*
G04 #@! TO.N,GND*
X83503000Y-48768000D03*
G04 #@! TD*
D10*
G04 #@! TO.P,C10,2*
G04 #@! TO.N,+5V*
X46482000Y-38291000D03*
G04 #@! TO.P,C10,1*
G04 #@! TO.N,GND*
X46482000Y-39941000D03*
G04 #@! TD*
D12*
G04 #@! TO.P,C11,2*
G04 #@! TO.N,GND*
X27400000Y-69850000D03*
G04 #@! TO.P,C11,1*
G04 #@! TO.N,/Power/VIN*
X36100000Y-69850000D03*
G04 #@! TD*
D11*
G04 #@! TO.P,C12,2*
G04 #@! TO.N,GND*
X45275000Y-74930000D03*
G04 #@! TO.P,C12,1*
G04 #@! TO.N,Net-(C12-Pad1)*
X43625000Y-74930000D03*
G04 #@! TD*
D12*
G04 #@! TO.P,C13,1*
G04 #@! TO.N,+5V*
X51340000Y-65786000D03*
G04 #@! TO.P,C13,2*
G04 #@! TO.N,GND*
X42640000Y-65786000D03*
G04 #@! TD*
D13*
G04 #@! TO.P,C14,2*
G04 #@! TO.N,GND*
X59944000Y-69859000D03*
G04 #@! TO.P,C14,1*
G04 #@! TO.N,+5V*
X59944000Y-67809000D03*
G04 #@! TD*
D14*
G04 #@! TO.P,C15,1*
G04 #@! TO.N,+3V3*
X65024000Y-78772000D03*
G04 #@! TO.P,C15,2*
G04 #@! TO.N,GND*
X65024000Y-82772000D03*
G04 #@! TD*
D15*
G04 #@! TO.P,C16,1*
G04 #@! TO.N,+3V3*
X65015000Y-64770000D03*
G04 #@! TO.P,C16,2*
G04 #@! TO.N,GND*
X67065000Y-64770000D03*
G04 #@! TD*
D16*
G04 #@! TO.P,D1,A*
G04 #@! TO.N,GND*
X24892000Y-52610000D03*
G04 #@! TO.P,D1,C*
G04 #@! TO.N,Net-(C1-Pad2)*
X24892000Y-56610000D03*
G04 #@! TD*
D10*
G04 #@! TO.P,D2,A*
G04 #@! TO.N,+5V*
X44196000Y-40323000D03*
G04 #@! TO.P,D2,C*
G04 #@! TO.N,Net-(D2-PadC)*
X44196000Y-41973000D03*
G04 #@! TD*
D16*
G04 #@! TO.P,D3,A*
G04 #@! TO.N,Net-(D3-PadA)*
X41402000Y-45434000D03*
G04 #@! TO.P,D3,C*
G04 #@! TO.N,+5V*
X41402000Y-41434000D03*
G04 #@! TD*
D17*
G04 #@! TO.P,D4,C*
G04 #@! TO.N,Net-(C2-Pad1)*
X39084000Y-56896000D03*
G04 #@! TO.P,D4,A*
G04 #@! TO.N,Net-(D4-PadA)*
X35084000Y-56896000D03*
G04 #@! TD*
G04 #@! TO.P,D5,C*
G04 #@! TO.N,Net-(C4-Pad2)*
X46260000Y-52070000D03*
G04 #@! TO.P,D5,A*
G04 #@! TO.N,GND*
X50260000Y-52070000D03*
G04 #@! TD*
D10*
G04 #@! TO.P,D6,A*
G04 #@! TO.N,+5V*
X74930000Y-76645000D03*
G04 #@! TO.P,D6,C*
G04 #@! TO.N,Net-(D6-PadC)*
X74930000Y-78295000D03*
G04 #@! TD*
G04 #@! TO.P,D7,C*
G04 #@! TO.N,Net-(D7-PadC)*
X77216000Y-78295000D03*
G04 #@! TO.P,D7,A*
G04 #@! TO.N,+5V*
X77216000Y-76645000D03*
G04 #@! TD*
G04 #@! TO.P,D8,A*
G04 #@! TO.N,+5V*
X79502000Y-76645000D03*
G04 #@! TO.P,D8,C*
G04 #@! TO.N,Net-(D8-PadC)*
X79502000Y-78295000D03*
G04 #@! TD*
D17*
G04 #@! TO.P,D9,A*
G04 #@! TO.N,Net-(C9-Pad1)*
X84106000Y-46228000D03*
G04 #@! TO.P,D9,C*
G04 #@! TO.N,/MCLR*
X88106000Y-46228000D03*
G04 #@! TD*
D18*
G04 #@! TO.P,D10,A*
G04 #@! TO.N,GND*
X31360000Y-77470000D03*
G04 #@! TO.P,D10,C*
G04 #@! TO.N,/VIN_AC*
X27060000Y-77470000D03*
G04 #@! TD*
G04 #@! TO.P,D13,A*
G04 #@! TO.N,/VIN_GND*
X27060000Y-81026000D03*
G04 #@! TO.P,D13,C*
G04 #@! TO.N,/Power/VIN*
X31360000Y-81026000D03*
G04 #@! TD*
D17*
G04 #@! TO.P,D14,C*
G04 #@! TO.N,Net-(D14-PadC)*
X44418000Y-83058000D03*
G04 #@! TO.P,D14,A*
G04 #@! TO.N,GND*
X40418000Y-83058000D03*
G04 #@! TD*
D10*
G04 #@! TO.P,D15,C*
G04 #@! TO.N,Net-(D15-PadC)*
X72644000Y-78295000D03*
G04 #@! TO.P,D15,A*
G04 #@! TO.N,+5V*
X72644000Y-76645000D03*
G04 #@! TD*
D18*
G04 #@! TO.P,D16,C*
G04 #@! TO.N,+5V*
X62112000Y-61976000D03*
G04 #@! TO.P,D16,A*
G04 #@! TO.N,+3V3*
X66412000Y-61976000D03*
G04 #@! TD*
D10*
G04 #@! TO.P,D17,C*
G04 #@! TO.N,Net-(D17-PadC)*
X70358000Y-78295000D03*
G04 #@! TO.P,D17,A*
G04 #@! TO.N,+3V3*
X70358000Y-76645000D03*
G04 #@! TD*
D19*
G04 #@! TO.P,J1,1*
G04 #@! TO.N,/RF_IN*
X17780000Y-63500000D03*
D20*
G04 #@! TO.P,J1,2*
G04 #@! TO.N,/RF_OUT*
X17780000Y-68500000D03*
G04 #@! TO.P,J1,3*
G04 #@! TO.N,/VIN_AC*
X17780000Y-73500000D03*
G04 #@! TO.P,J1,4*
G04 #@! TO.N,/VIN_GND*
X17780000Y-78500000D03*
G04 #@! TD*
G04 #@! TO.P,J2,4*
G04 #@! TO.N,/VIN_GND*
X17780000Y-57164000D03*
G04 #@! TO.P,J2,3*
G04 #@! TO.N,/SW_24V_2*
X17780000Y-52164000D03*
G04 #@! TO.P,J2,2*
G04 #@! TO.N,/VIN_GND*
X17780000Y-47164000D03*
D19*
G04 #@! TO.P,J2,1*
G04 #@! TO.N,/SW_24V_1*
X17780000Y-42164000D03*
G04 #@! TD*
D21*
G04 #@! TO.P,J3,1*
G04 #@! TO.N,/MCLR*
X74422000Y-37846000D03*
D22*
G04 #@! TO.P,J3,2*
G04 #@! TO.N,Net-(J3-Pad2)*
X76962000Y-37846000D03*
G04 #@! TO.P,J3,3*
G04 #@! TO.N,GND*
X79502000Y-37846000D03*
G04 #@! TO.P,J3,4*
G04 #@! TO.N,/ICSPDAT*
X82042000Y-37846000D03*
G04 #@! TO.P,J3,5*
G04 #@! TO.N,/ICSPCLK*
X84582000Y-37846000D03*
G04 #@! TO.P,J3,6*
G04 #@! TO.N,Net-(J3-Pad6)*
X87122000Y-37846000D03*
G04 #@! TD*
D23*
G04 #@! TO.P,L1,1*
G04 #@! TO.N,Net-(D14-PadC)*
X53594000Y-82828000D03*
G04 #@! TO.P,L1,2*
G04 #@! TO.N,+5V*
X53594000Y-73128000D03*
G04 #@! TD*
D24*
G04 #@! TO.P,Q1,3*
G04 #@! TO.N,+5V*
X33528000Y-51562000D03*
G04 #@! TO.P,Q1,2*
G04 #@! TO.N,Net-(D4-PadA)*
X34478000Y-53762000D03*
G04 #@! TO.P,Q1,1*
G04 #@! TO.N,Net-(C1-Pad2)*
X32578000Y-53762000D03*
G04 #@! TD*
G04 #@! TO.P,Q2,D*
G04 #@! TO.N,Net-(D3-PadA)*
X38608000Y-48260000D03*
G04 #@! TO.P,Q2,S*
G04 #@! TO.N,GND*
X39558000Y-50460000D03*
G04 #@! TO.P,Q2,G*
G04 #@! TO.N,Net-(Q2-PadG)*
X37658000Y-50460000D03*
G04 #@! TD*
G04 #@! TO.P,Q3,G*
G04 #@! TO.N,Net-(Q3-PadG)*
X92644000Y-75524000D03*
G04 #@! TO.P,Q3,S*
G04 #@! TO.N,GND*
X90744000Y-75524000D03*
G04 #@! TO.P,Q3,D*
G04 #@! TO.N,Net-(Q3-PadD)*
X91694000Y-77724000D03*
G04 #@! TD*
D25*
G04 #@! TO.P,Q4,3*
G04 #@! TO.N,Net-(Q4-Pad3)*
X51562000Y-55880000D03*
G04 #@! TO.P,Q4,2*
G04 #@! TO.N,GND*
X49362000Y-56830000D03*
G04 #@! TO.P,Q4,1*
G04 #@! TO.N,Net-(C6-Pad1)*
X49362000Y-54930000D03*
G04 #@! TD*
G04 #@! TO.P,Q5,1*
G04 #@! TO.N,Net-(Q5-Pad1)*
X69510000Y-58608000D03*
G04 #@! TO.P,Q5,2*
G04 #@! TO.N,GND*
X69510000Y-56708000D03*
G04 #@! TO.P,Q5,3*
G04 #@! TO.N,Net-(Q5-Pad3)*
X67310000Y-57658000D03*
G04 #@! TD*
D24*
G04 #@! TO.P,Q6,D*
G04 #@! TO.N,Net-(Q6-PadD)*
X87376000Y-77724000D03*
G04 #@! TO.P,Q6,S*
G04 #@! TO.N,GND*
X86426000Y-75524000D03*
G04 #@! TO.P,Q6,G*
G04 #@! TO.N,Net-(Q6-PadG)*
X88326000Y-75524000D03*
G04 #@! TD*
D25*
G04 #@! TO.P,Q7,1*
G04 #@! TO.N,Net-(Q7-Pad1)*
X57998000Y-54676000D03*
G04 #@! TO.P,Q7,2*
G04 #@! TO.N,+3V3*
X57998000Y-56576000D03*
G04 #@! TO.P,Q7,3*
G04 #@! TO.N,Net-(Q7-Pad3)*
X60198000Y-55626000D03*
G04 #@! TD*
D24*
G04 #@! TO.P,Q8,G*
G04 #@! TO.N,Net-(Q8-PadG)*
X84008000Y-75524000D03*
G04 #@! TO.P,Q8,S*
G04 #@! TO.N,GND*
X82108000Y-75524000D03*
G04 #@! TO.P,Q8,D*
G04 #@! TO.N,Net-(Q8-PadD)*
X83058000Y-77724000D03*
G04 #@! TD*
D10*
G04 #@! TO.P,R1,2*
G04 #@! TO.N,GND*
X29972000Y-57721000D03*
G04 #@! TO.P,R1,1*
G04 #@! TO.N,Net-(C1-Pad2)*
X29972000Y-56071000D03*
G04 #@! TD*
G04 #@! TO.P,R2,1*
G04 #@! TO.N,+5V*
X29972000Y-52007000D03*
G04 #@! TO.P,R2,2*
G04 #@! TO.N,Net-(C1-Pad2)*
X29972000Y-53657000D03*
G04 #@! TD*
G04 #@! TO.P,R3,1*
G04 #@! TO.N,Net-(D4-PadA)*
X32258000Y-56071000D03*
G04 #@! TO.P,R3,2*
G04 #@! TO.N,GND*
X32258000Y-57721000D03*
G04 #@! TD*
G04 #@! TO.P,R4,2*
G04 #@! TO.N,Net-(D2-PadC)*
X44196000Y-44641000D03*
G04 #@! TO.P,R4,1*
G04 #@! TO.N,Net-(D3-PadA)*
X44196000Y-46291000D03*
G04 #@! TD*
D11*
G04 #@! TO.P,R5,1*
G04 #@! TO.N,Net-(Q2-PadG)*
X42101000Y-49276000D03*
G04 #@! TO.P,R5,2*
G04 #@! TO.N,/SW_1*
X43751000Y-49276000D03*
G04 #@! TD*
D10*
G04 #@! TO.P,R6,2*
G04 #@! TO.N,GND*
X40386000Y-52769000D03*
G04 #@! TO.P,R6,1*
G04 #@! TO.N,Net-(C2-Pad1)*
X40386000Y-54419000D03*
G04 #@! TD*
D11*
G04 #@! TO.P,R7,1*
G04 #@! TO.N,Net-(C3-Pad1)*
X28639000Y-62738000D03*
G04 #@! TO.P,R7,2*
G04 #@! TO.N,Net-(R7-Pad2)*
X30289000Y-62738000D03*
G04 #@! TD*
D10*
G04 #@! TO.P,R8,1*
G04 #@! TO.N,Net-(C6-Pad1)*
X44958000Y-56451000D03*
G04 #@! TO.P,R8,2*
G04 #@! TO.N,Net-(C4-Pad2)*
X44958000Y-54801000D03*
G04 #@! TD*
G04 #@! TO.P,R9,1*
G04 #@! TO.N,Net-(Q3-PadG)*
X92710000Y-73215000D03*
G04 #@! TO.P,R9,2*
G04 #@! TO.N,/GPIO1*
X92710000Y-71565000D03*
G04 #@! TD*
G04 #@! TO.P,R10,2*
G04 #@! TO.N,Net-(Q3-PadD)*
X74930000Y-82613000D03*
G04 #@! TO.P,R10,1*
G04 #@! TO.N,Net-(D6-PadC)*
X74930000Y-80963000D03*
G04 #@! TD*
D11*
G04 #@! TO.P,R11,2*
G04 #@! TO.N,Net-(Q4-Pad3)*
X54039000Y-56896000D03*
G04 #@! TO.P,R11,1*
G04 #@! TO.N,+3V3*
X55689000Y-56896000D03*
G04 #@! TD*
D10*
G04 #@! TO.P,R12,1*
G04 #@! TO.N,Net-(Q6-PadG)*
X88392000Y-73215000D03*
G04 #@! TO.P,R12,2*
G04 #@! TO.N,/GPIO2*
X88392000Y-71565000D03*
G04 #@! TD*
D11*
G04 #@! TO.P,R13,1*
G04 #@! TO.N,Net-(Q7-Pad1)*
X55689000Y-54610000D03*
G04 #@! TO.P,R13,2*
G04 #@! TO.N,Net-(Q4-Pad3)*
X54039000Y-54610000D03*
G04 #@! TD*
G04 #@! TO.P,R14,2*
G04 #@! TO.N,Net-(Q5-Pad3)*
X64833000Y-59182000D03*
G04 #@! TO.P,R14,1*
G04 #@! TO.N,+5V*
X63183000Y-59182000D03*
G04 #@! TD*
D10*
G04 #@! TO.P,R15,2*
G04 #@! TO.N,Net-(Q6-PadD)*
X77216000Y-82613000D03*
G04 #@! TO.P,R15,1*
G04 #@! TO.N,Net-(D7-PadC)*
X77216000Y-80963000D03*
G04 #@! TD*
D11*
G04 #@! TO.P,R16,1*
G04 #@! TO.N,Net-(Q5-Pad3)*
X72073000Y-56642000D03*
G04 #@! TO.P,R16,2*
G04 #@! TO.N,/UART_TX*
X73723000Y-56642000D03*
G04 #@! TD*
D10*
G04 #@! TO.P,R17,2*
G04 #@! TO.N,/GPIO3*
X84074000Y-71565000D03*
G04 #@! TO.P,R17,1*
G04 #@! TO.N,Net-(Q8-PadG)*
X84074000Y-73215000D03*
G04 #@! TD*
D11*
G04 #@! TO.P,R18,1*
G04 #@! TO.N,Net-(Q5-Pad1)*
X72073000Y-58928000D03*
G04 #@! TO.P,R18,2*
G04 #@! TO.N,/UART_TX*
X73723000Y-58928000D03*
G04 #@! TD*
G04 #@! TO.P,R19,2*
G04 #@! TO.N,GND*
X57341000Y-52070000D03*
G04 #@! TO.P,R19,1*
G04 #@! TO.N,Net-(Q7-Pad3)*
X58991000Y-52070000D03*
G04 #@! TD*
D10*
G04 #@! TO.P,R20,1*
G04 #@! TO.N,Net-(D8-PadC)*
X79502000Y-80963000D03*
G04 #@! TO.P,R20,2*
G04 #@! TO.N,Net-(Q8-PadD)*
X79502000Y-82613000D03*
G04 #@! TD*
D11*
G04 #@! TO.P,R21,1*
G04 #@! TO.N,/UART_RX*
X63055000Y-52070000D03*
G04 #@! TO.P,R21,2*
G04 #@! TO.N,Net-(Q7-Pad3)*
X61405000Y-52070000D03*
G04 #@! TD*
G04 #@! TO.P,R22,2*
G04 #@! TO.N,+3V3*
X79439000Y-46482000D03*
G04 #@! TO.P,R22,1*
G04 #@! TO.N,Net-(C9-Pad1)*
X81089000Y-46482000D03*
G04 #@! TD*
D10*
G04 #@! TO.P,R23,2*
G04 #@! TO.N,GND*
X84074000Y-67373000D03*
G04 #@! TO.P,R23,1*
G04 #@! TO.N,/V_Temp*
X84074000Y-65723000D03*
G04 #@! TD*
G04 #@! TO.P,R24,1*
G04 #@! TO.N,/V_Temp*
X81788000Y-65723000D03*
G04 #@! TO.P,R24,2*
G04 #@! TO.N,Net-(R24-Pad2)*
X81788000Y-67373000D03*
G04 #@! TD*
D11*
G04 #@! TO.P,R25,2*
G04 #@! TO.N,Net-(J3-Pad2)*
X81089000Y-44196000D03*
G04 #@! TO.P,R25,1*
G04 #@! TO.N,+3V3*
X79439000Y-44196000D03*
G04 #@! TD*
G04 #@! TO.P,R26,1*
G04 #@! TO.N,Net-(R26-Pad1)*
X53785000Y-48768000D03*
G04 #@! TO.P,R26,2*
G04 #@! TO.N,/AN4*
X55435000Y-48768000D03*
G04 #@! TD*
G04 #@! TO.P,R27,2*
G04 #@! TO.N,GND*
X53785000Y-46482000D03*
G04 #@! TO.P,R27,1*
G04 #@! TO.N,/AN4*
X55435000Y-46482000D03*
G04 #@! TD*
D10*
G04 #@! TO.P,R28,2*
G04 #@! TO.N,/ICSPDAT*
X91948000Y-45911000D03*
G04 #@! TO.P,R28,1*
G04 #@! TO.N,Net-(R28-Pad1)*
X91948000Y-47561000D03*
G04 #@! TD*
G04 #@! TO.P,R29,2*
G04 #@! TO.N,/ICSPCLK*
X94234000Y-45911000D03*
G04 #@! TO.P,R29,1*
G04 #@! TO.N,Net-(R29-Pad1)*
X94234000Y-47561000D03*
G04 #@! TD*
D15*
G04 #@! TO.P,R30,1*
G04 #@! TO.N,/VIN_GND*
X25899000Y-84074000D03*
G04 #@! TO.P,R30,2*
G04 #@! TO.N,GND*
X27949000Y-84074000D03*
G04 #@! TD*
D11*
G04 #@! TO.P,R31,2*
G04 #@! TO.N,Net-(R31-Pad2)*
X39815000Y-74930000D03*
G04 #@! TO.P,R31,1*
G04 #@! TO.N,+5V*
X41465000Y-74930000D03*
G04 #@! TD*
G04 #@! TO.P,R32,1*
G04 #@! TO.N,GND*
X41465000Y-72898000D03*
G04 #@! TO.P,R32,2*
G04 #@! TO.N,Net-(R31-Pad2)*
X39815000Y-72898000D03*
G04 #@! TD*
D13*
G04 #@! TO.P,R33,2*
G04 #@! TO.N,Net-(R33-Pad2)*
X36830000Y-80273000D03*
G04 #@! TO.P,R33,1*
G04 #@! TO.N,/Power/VIN*
X36830000Y-78223000D03*
G04 #@! TD*
D10*
G04 #@! TO.P,R34,1*
G04 #@! TO.N,GND*
X72644000Y-82613000D03*
G04 #@! TO.P,R34,2*
G04 #@! TO.N,Net-(D15-PadC)*
X72644000Y-80963000D03*
G04 #@! TD*
G04 #@! TO.P,R35,2*
G04 #@! TO.N,Net-(D17-PadC)*
X70358000Y-80963000D03*
G04 #@! TO.P,R35,1*
G04 #@! TO.N,GND*
X70358000Y-82613000D03*
G04 #@! TD*
D26*
G04 #@! TO.P,U1,1*
G04 #@! TO.N,+5V*
X38608000Y-40640000D03*
G04 #@! TO.P,U1,3*
G04 #@! TO.N,Net-(U1-Pad3)*
X33528000Y-40640000D03*
G04 #@! TO.P,U1,4*
G04 #@! TO.N,/VIN_AC*
X30988000Y-40640000D03*
G04 #@! TO.P,U1,5*
G04 #@! TO.N,/SW_24V_1*
X28448000Y-40640000D03*
G04 #@! TO.P,U1,8*
G04 #@! TO.N,/SW_24V_2*
X28448000Y-45720000D03*
G04 #@! TO.P,U1,9*
G04 #@! TO.N,/VIN_AC*
X30988000Y-45720000D03*
G04 #@! TO.P,U1,10*
G04 #@! TO.N,Net-(U1-Pad10)*
X33528000Y-45720000D03*
G04 #@! TO.P,U1,12*
G04 #@! TO.N,Net-(D3-PadA)*
X38608000Y-45720000D03*
G04 #@! TD*
D27*
G04 #@! TO.P,U2,1*
G04 #@! TO.N,Net-(Q5-Pad3)*
X35490000Y-61148000D03*
G04 #@! TO.P,U2,2*
G04 #@! TO.N,/CLKOUT*
X35490000Y-60198000D03*
G04 #@! TO.P,U2,3*
G04 #@! TO.N,GND*
X35490000Y-59248000D03*
G04 #@! TO.P,U2,4*
G04 #@! TO.N,Net-(R7-Pad2)*
X33090000Y-59248000D03*
G04 #@! TO.P,U2,5*
G04 #@! TO.N,+5V*
X33090000Y-61148000D03*
G04 #@! TD*
D28*
G04 #@! TO.P,U3,20*
G04 #@! TO.N,GND*
X88902000Y-51308000D03*
G04 #@! TO.P,U3,18*
G04 #@! TO.N,Net-(R29-Pad1)*
X88902000Y-53848000D03*
G04 #@! TO.P,U3,17*
G04 #@! TO.N,/V_Temp*
X88902000Y-55118000D03*
G04 #@! TO.P,U3,19*
G04 #@! TO.N,Net-(R28-Pad1)*
X88902000Y-52578000D03*
G04 #@! TO.P,U3,16*
G04 #@! TO.N,/AN4*
X88902000Y-56388000D03*
G04 #@! TO.P,U3,11*
G04 #@! TO.N,/SPI_SCLK*
X88902000Y-62738000D03*
G04 #@! TO.P,U3,14*
G04 #@! TO.N,/GPIO2*
X88902000Y-58928000D03*
G04 #@! TO.P,U3,12*
G04 #@! TO.N,/I2C_SDA*
X88902000Y-61468000D03*
G04 #@! TO.P,U3,13*
G04 #@! TO.N,/SPI_MISO*
X88902000Y-60198000D03*
G04 #@! TO.P,U3,15*
G04 #@! TO.N,/GPIO1*
X88902000Y-57658000D03*
G04 #@! TO.P,U3,6*
G04 #@! TO.N,/UART_TX*
X79502000Y-57658000D03*
G04 #@! TO.P,U3,8*
G04 #@! TO.N,/SPI_nCS*
X79502000Y-60198000D03*
G04 #@! TO.P,U3,9*
G04 #@! TO.N,/SPI_MOSI*
X79502000Y-61468000D03*
G04 #@! TO.P,U3,7*
G04 #@! TO.N,/SW_1*
X79502000Y-58928000D03*
G04 #@! TO.P,U3,10*
G04 #@! TO.N,/I2C_SCL*
X79502000Y-62738000D03*
G04 #@! TO.P,U3,5*
G04 #@! TO.N,/UART_RX*
X79502000Y-56388000D03*
G04 #@! TO.P,U3,2*
G04 #@! TO.N,/GPIO3*
X79502000Y-52578000D03*
G04 #@! TO.P,U3,4*
G04 #@! TO.N,/MCLR*
X79502000Y-55118000D03*
G04 #@! TO.P,U3,3*
G04 #@! TO.N,/CLKOUT*
X79502000Y-53848000D03*
G04 #@! TO.P,U3,1*
G04 #@! TO.N,+3V3*
X79502000Y-51308000D03*
G04 #@! TD*
D24*
G04 #@! TO.P,U4,1*
G04 #@! TO.N,+5V*
X77282000Y-67478000D03*
G04 #@! TO.P,U4,2*
G04 #@! TO.N,Net-(R24-Pad2)*
X79182000Y-67478000D03*
G04 #@! TO.P,U4,3*
G04 #@! TO.N,GND*
X78232000Y-65278000D03*
G04 #@! TD*
D29*
G04 #@! TO.P,U5,1*
G04 #@! TO.N,Net-(U5-Pad1)*
X49530000Y-35560000D03*
G04 #@! TO.P,U5,2*
G04 #@! TO.N,+5V*
X49530000Y-38100000D03*
G04 #@! TO.P,U5,3*
G04 #@! TO.N,GND*
X49530000Y-40640000D03*
G04 #@! TO.P,U5,4*
G04 #@! TO.N,Net-(R26-Pad1)*
X49530000Y-43180000D03*
G04 #@! TO.P,U5,8*
G04 #@! TO.N,Net-(U5-Pad8)*
X66290000Y-35560000D03*
G04 #@! TO.P,U5,7*
G04 #@! TO.N,Net-(U5-Pad7)*
X66290000Y-38100000D03*
G04 #@! TO.P,U5,6*
G04 #@! TO.N,Net-(U5-Pad6)*
X66290000Y-40640000D03*
G04 #@! TO.P,U5,5*
G04 #@! TO.N,Net-(U5-Pad5)*
X66290000Y-43180000D03*
G04 #@! TD*
D30*
G04 #@! TO.P,U6,1*
G04 #@! TO.N,Net-(R33-Pad2)*
X45118000Y-80645000D03*
G04 #@! TO.P,U6,2*
G04 #@! TO.N,Net-(D14-PadC)*
X45118000Y-79375000D03*
G04 #@! TO.P,U6,3*
G04 #@! TO.N,Net-(C12-Pad1)*
X45118000Y-78105000D03*
G04 #@! TO.P,U6,4*
G04 #@! TO.N,GND*
X45118000Y-76835000D03*
G04 #@! TO.P,U6,5*
G04 #@! TO.N,Net-(R31-Pad2)*
X39718000Y-76835000D03*
G04 #@! TO.P,U6,6*
G04 #@! TO.N,/Power/VIN*
X39718000Y-78105000D03*
G04 #@! TO.P,U6,7*
G04 #@! TO.N,Net-(R33-Pad2)*
X39718000Y-79375000D03*
G04 #@! TO.P,U6,8*
X39718000Y-80645000D03*
G04 #@! TD*
D31*
G04 #@! TO.P,U7,1*
G04 #@! TO.N,GND*
X67324000Y-68072000D03*
G04 #@! TO.P,U7,2*
G04 #@! TO.N,+3V3*
X65024000Y-68072000D03*
G04 #@! TO.P,U7,3*
G04 #@! TO.N,+5V*
X62724000Y-68072000D03*
D32*
G04 #@! TO.P,U7,4*
G04 #@! TO.N,+3V3*
X65024000Y-73872000D03*
G04 #@! TD*
D33*
G04 #@! TO.P,M1,1*
G04 #@! TO.N,GND*
X93980000Y-83820000D03*
G04 #@! TD*
G04 #@! TO.P,M2,1*
G04 #@! TO.N,GND*
X15240000Y-83820000D03*
G04 #@! TD*
G04 #@! TO.P,M3,1*
G04 #@! TO.N,GND*
X93980000Y-35560000D03*
G04 #@! TD*
G04 #@! TO.P,M4,1*
G04 #@! TO.N,GND*
X15240000Y-35560000D03*
G04 #@! TD*
D17*
G04 #@! TO.P,D18,C*
G04 #@! TO.N,Net-(C3-Pad1)*
X25686000Y-60198000D03*
G04 #@! TO.P,D18,A*
G04 #@! TO.N,GND*
X29686000Y-60198000D03*
G04 #@! TD*
D34*
G04 #@! TO.N,GND*
X31496000Y-74676000D03*
X31496000Y-75438000D03*
X29464000Y-84074000D03*
X31470600Y-58902600D03*
X34442400Y-62179200D03*
X36753800Y-59283600D03*
X59944000Y-71678800D03*
X67310000Y-66294000D03*
X42646600Y-63779400D03*
X43611800Y-63779400D03*
X69519800Y-55727600D03*
X39192200Y-51866800D03*
X46482000Y-41706800D03*
X76581000Y-65252600D03*
X67716400Y-82753200D03*
X52578000Y-46482000D03*
X55956200Y-52070000D03*
X52451000Y-52070000D03*
X49326800Y-58013600D03*
X81635600Y-50266600D03*
X88925400Y-50139600D03*
X82118200Y-74193400D03*
X86436200Y-74066400D03*
X90728800Y-74117200D03*
X84023200Y-68529200D03*
X38074600Y-83058000D03*
X45135800Y-76022200D03*
X41478200Y-71602600D03*
X26771600Y-52628800D03*
G04 #@! TO.N,+5V*
X66725800Y-71120000D03*
X62814200Y-71120000D03*
X23977600Y-65836800D03*
G04 #@! TO.N,+3V3*
X78181200Y-46482000D03*
X76276200Y-58648600D03*
X76276200Y-52552600D03*
X64262000Y-60553600D03*
X58572400Y-58572400D03*
G04 #@! TO.N,/Power/VIN*
X34493200Y-77470000D03*
G04 #@! TO.N,/GPIO3*
X83007200Y-54229000D03*
X85521800Y-56591200D03*
G04 #@! TO.N,/UART_RX*
X71653400Y-53060600D03*
X72059800Y-54914800D03*
G04 #@! TO.N,/SW_1*
X75057000Y-53187600D03*
X75387200Y-57734200D03*
G04 #@! TD*
D35*
G04 #@! TO.N,/RF_IN*
X17780000Y-63500000D02*
X18389600Y-63500000D01*
X26834600Y-58572400D02*
X27686000Y-57721000D01*
X23317200Y-58572400D02*
X26834600Y-58572400D01*
X18389600Y-63500000D02*
X23317200Y-58572400D01*
G04 #@! TO.N,Net-(C1-Pad2)*
X24892000Y-56610000D02*
X25431000Y-56071000D01*
X25431000Y-56071000D02*
X29972000Y-56071000D01*
X29972000Y-56071000D02*
X29972000Y-53657000D01*
X29972000Y-53657000D02*
X32473000Y-53657000D01*
X32473000Y-53657000D02*
X32578000Y-53762000D01*
D36*
G04 #@! TO.N,GND*
X31360000Y-77470000D02*
X31360000Y-74812000D01*
D37*
X31496000Y-74676000D02*
X30175200Y-74676000D01*
X27400000Y-71900800D02*
X30175200Y-74676000D01*
X27400000Y-71900800D02*
X27400000Y-69850000D01*
D36*
X31360000Y-74812000D02*
X31496000Y-74676000D01*
X31360000Y-77470000D02*
X31360000Y-75574000D01*
X31360000Y-75574000D02*
X31496000Y-75438000D01*
X27949000Y-84074000D02*
X29464000Y-84074000D01*
D35*
X29686000Y-60198000D02*
X30175200Y-60198000D01*
X31470600Y-58508400D02*
X32258000Y-57721000D01*
X31470600Y-58902600D02*
X31470600Y-58508400D01*
X30175200Y-60198000D02*
X31470600Y-58902600D01*
X29972000Y-57721000D02*
X30683200Y-57721000D01*
X30683200Y-57721000D02*
X31470600Y-58508400D01*
X34861000Y-63246000D02*
X34861000Y-62597800D01*
X34861000Y-62597800D02*
X34442400Y-62179200D01*
X35490000Y-59248000D02*
X36718200Y-59248000D01*
X36718200Y-59248000D02*
X36753800Y-59283600D01*
D37*
X59944000Y-69859000D02*
X59944000Y-71678800D01*
D36*
X67324000Y-68072000D02*
X67324000Y-66308000D01*
X67065000Y-66049000D02*
X67310000Y-66294000D01*
X67065000Y-66049000D02*
X67065000Y-64770000D01*
X67324000Y-66308000D02*
X67310000Y-66294000D01*
X42640000Y-65786000D02*
X42640000Y-63786000D01*
X42640000Y-63786000D02*
X42646600Y-63779400D01*
X42640000Y-65786000D02*
X43611800Y-64814200D01*
X43611800Y-64814200D02*
X43611800Y-63779400D01*
D35*
X69510000Y-56708000D02*
X69510000Y-55737400D01*
X69510000Y-55737400D02*
X69519800Y-55727600D01*
X38100000Y-52769000D02*
X39002200Y-51866800D01*
X39192200Y-50825800D02*
X39192200Y-51866800D01*
X39192200Y-50825800D02*
X39558000Y-50460000D01*
X39002200Y-51866800D02*
X39192200Y-51866800D01*
X39192200Y-51866800D02*
X39483800Y-51866800D01*
X39483800Y-51866800D02*
X40386000Y-52769000D01*
X46482000Y-39941000D02*
X46482000Y-41706800D01*
X49530000Y-40640000D02*
X47181000Y-40640000D01*
X47181000Y-40640000D02*
X46482000Y-39941000D01*
X78232000Y-65278000D02*
X76606400Y-65278000D01*
X76543400Y-65215000D02*
X76581000Y-65252600D01*
X76543400Y-65215000D02*
X74676000Y-65215000D01*
X76606400Y-65278000D02*
X76581000Y-65252600D01*
D37*
X31496000Y-74676000D02*
X31360000Y-74812000D01*
X31360000Y-74812000D02*
X31360000Y-77470000D01*
X65024000Y-82772000D02*
X67697600Y-82772000D01*
D36*
X70217800Y-82753200D02*
X70358000Y-82613000D01*
X67716400Y-82753200D02*
X70217800Y-82753200D01*
D37*
X67697600Y-82772000D02*
X67716400Y-82753200D01*
D36*
X70358000Y-82613000D02*
X72644000Y-82613000D01*
X53785000Y-46482000D02*
X52578000Y-46482000D01*
X57341000Y-52070000D02*
X55956200Y-52070000D01*
X47244000Y-54801000D02*
X47244000Y-54711600D01*
X47244000Y-54711600D02*
X49885600Y-52070000D01*
X49885600Y-52070000D02*
X52451000Y-52070000D01*
X49362000Y-56830000D02*
X49362000Y-57978400D01*
X49362000Y-57978400D02*
X49326800Y-58013600D01*
X81089000Y-48768000D02*
X81089000Y-49720000D01*
X83134200Y-48768000D02*
X81635600Y-50266600D01*
X83134200Y-48768000D02*
X83503000Y-48768000D01*
X81089000Y-49720000D02*
X81635600Y-50266600D01*
X88902000Y-51308000D02*
X88925400Y-51284600D01*
X88925400Y-51284600D02*
X88925400Y-50139600D01*
X82108000Y-75524000D02*
X82108000Y-74203600D01*
X82108000Y-74203600D02*
X82118200Y-74193400D01*
X86426000Y-75524000D02*
X86426000Y-74076600D01*
X86426000Y-74076600D02*
X86436200Y-74066400D01*
X90744000Y-75524000D02*
X90744000Y-74132400D01*
X90744000Y-74132400D02*
X90728800Y-74117200D01*
X84074000Y-67373000D02*
X84074000Y-68478400D01*
X84074000Y-68478400D02*
X84023200Y-68529200D01*
X40418000Y-83058000D02*
X38074600Y-83058000D01*
X45118000Y-76835000D02*
X45118000Y-76040000D01*
X45275000Y-75883000D02*
X45135800Y-76022200D01*
X45275000Y-75883000D02*
X45275000Y-74930000D01*
X45118000Y-76040000D02*
X45135800Y-76022200D01*
X41465000Y-72898000D02*
X41465000Y-71615800D01*
X41465000Y-71615800D02*
X41478200Y-71602600D01*
X24892000Y-52610000D02*
X26752800Y-52610000D01*
X26752800Y-52610000D02*
X26771600Y-52628800D01*
D35*
G04 #@! TO.N,Net-(C2-Pad1)*
X39084000Y-56896000D02*
X38100000Y-55912000D01*
X38100000Y-55912000D02*
X38100000Y-54419000D01*
X38100000Y-54419000D02*
X42672000Y-54419000D01*
G04 #@! TO.N,Net-(C3-Pad1)*
X25686000Y-60198000D02*
X26225000Y-60737000D01*
X26225000Y-60737000D02*
X26225000Y-62738000D01*
X26225000Y-62738000D02*
X28639000Y-62738000D01*
G04 #@! TO.N,/RF_OUT*
X24575000Y-62738000D02*
X18813000Y-68500000D01*
X18813000Y-68500000D02*
X17780000Y-68500000D01*
G04 #@! TO.N,Net-(C4-Pad2)*
X42672000Y-52769000D02*
X42926000Y-52769000D01*
X42926000Y-52769000D02*
X44958000Y-54801000D01*
X44958000Y-54801000D02*
X44958000Y-53372000D01*
X44958000Y-53372000D02*
X46260000Y-52070000D01*
G04 #@! TO.N,+5V*
X33090000Y-61148000D02*
X33090000Y-63125000D01*
X33090000Y-63125000D02*
X33211000Y-63246000D01*
X41465000Y-74930000D02*
X43267000Y-73128000D01*
X43267000Y-73128000D02*
X53594000Y-73128000D01*
D37*
X62724000Y-68072000D02*
X62461000Y-67809000D01*
X62461000Y-67809000D02*
X59944000Y-67809000D01*
X51340000Y-65786000D02*
X53448200Y-67894200D01*
X53448200Y-67894200D02*
X53594000Y-68040000D01*
X53594000Y-68040000D02*
X53594000Y-73128000D01*
X59944000Y-67809000D02*
X59858800Y-67894200D01*
X59858800Y-67894200D02*
X53448200Y-67894200D01*
X62724000Y-68072000D02*
X62112000Y-67460000D01*
X62112000Y-67460000D02*
X62112000Y-61976000D01*
D36*
X63183000Y-59182000D02*
X62112000Y-60253000D01*
X62112000Y-60253000D02*
X62112000Y-61976000D01*
D35*
X41402000Y-41434000D02*
X40608000Y-40640000D01*
X40608000Y-40640000D02*
X38608000Y-40640000D01*
X41402000Y-41434000D02*
X42513000Y-40323000D01*
X42513000Y-40323000D02*
X44196000Y-40323000D01*
X46482000Y-38291000D02*
X46673000Y-38100000D01*
X46673000Y-38100000D02*
X49530000Y-38100000D01*
X46482000Y-38291000D02*
X46443400Y-38252400D01*
X45186600Y-38252400D02*
X45135800Y-38252400D01*
D36*
X29972000Y-52007000D02*
X30417000Y-51562000D01*
X30417000Y-51562000D02*
X33528000Y-51562000D01*
X33528000Y-51562000D02*
X35915600Y-49174400D01*
X35915600Y-43332400D02*
X38608000Y-40640000D01*
X35915600Y-49174400D02*
X35915600Y-43332400D01*
X72644000Y-76645000D02*
X79502000Y-76645000D01*
X62724000Y-68072000D02*
X62724000Y-71029800D01*
X70421000Y-71120000D02*
X74676000Y-66865000D01*
X66725800Y-71120000D02*
X70421000Y-71120000D01*
X62724000Y-71029800D02*
X62814200Y-71120000D01*
X77282000Y-67478000D02*
X75289000Y-67478000D01*
X75289000Y-67478000D02*
X74676000Y-66865000D01*
X77282000Y-67478000D02*
X77282000Y-76579000D01*
X77282000Y-76579000D02*
X77216000Y-76645000D01*
D37*
X53594000Y-73128000D02*
X45670600Y-73128000D01*
X45670600Y-73128000D02*
X40741600Y-68199000D01*
X40741600Y-68199000D02*
X39700200Y-68199000D01*
X39700200Y-68199000D02*
X37363400Y-65862200D01*
X37363400Y-65862200D02*
X33172400Y-65862200D01*
X33172400Y-65862200D02*
X24003000Y-65862200D01*
X24003000Y-65862200D02*
X23977600Y-65836800D01*
D36*
X45186600Y-38252400D02*
X42316400Y-38252400D01*
X41402000Y-39166800D02*
X41402000Y-41434000D01*
X42316400Y-38252400D02*
X41402000Y-39166800D01*
X45186600Y-38252400D02*
X46443400Y-38252400D01*
X46443400Y-38252400D02*
X46482000Y-38291000D01*
X33211000Y-63246000D02*
X33211000Y-65862200D01*
X33172400Y-65760600D02*
X33172400Y-65862200D01*
X33172400Y-65823600D02*
X33172400Y-65760600D01*
X33211000Y-65862200D02*
X33172400Y-65823600D01*
D35*
G04 #@! TO.N,Net-(C6-Pad1)*
X44958000Y-56451000D02*
X47244000Y-56451000D01*
X47244000Y-56451000D02*
X48765000Y-54930000D01*
X48765000Y-54930000D02*
X49362000Y-54930000D01*
D37*
G04 #@! TO.N,+3V3*
X65024000Y-73872000D02*
X65024000Y-78772000D01*
X65024000Y-68072000D02*
X65024000Y-73872000D01*
D36*
X65024000Y-68072000D02*
X65015000Y-68063000D01*
X65015000Y-68063000D02*
X65015000Y-64770000D01*
X65015000Y-64770000D02*
X65015000Y-63373000D01*
X65015000Y-63373000D02*
X66412000Y-61976000D01*
D35*
X55689000Y-56896000D02*
X57678000Y-56896000D01*
X57678000Y-56896000D02*
X57998000Y-56576000D01*
X79439000Y-44196000D02*
X79439000Y-48768000D01*
X79439000Y-46482000D02*
X78181200Y-46482000D01*
D36*
X79439000Y-48768000D02*
X79439000Y-51245000D01*
X79439000Y-51245000D02*
X79502000Y-51308000D01*
X66412000Y-61976000D02*
X74803000Y-61976000D01*
X74803000Y-61976000D02*
X76276200Y-60502800D01*
X76276200Y-60502800D02*
X76276200Y-58648600D01*
X76276200Y-52552600D02*
X77520800Y-51308000D01*
X77520800Y-51308000D02*
X79502000Y-51308000D01*
X65024000Y-78772000D02*
X66744600Y-78772000D01*
X68871600Y-76645000D02*
X70358000Y-76645000D01*
X66744600Y-78772000D02*
X68871600Y-76645000D01*
X57998000Y-56576000D02*
X57998000Y-57998000D01*
X65684400Y-61976000D02*
X66412000Y-61976000D01*
X64262000Y-60553600D02*
X65684400Y-61976000D01*
X57998000Y-57998000D02*
X58572400Y-58572400D01*
D35*
G04 #@! TO.N,Net-(C9-Pad1)*
X81089000Y-46482000D02*
X83852000Y-46482000D01*
X83852000Y-46482000D02*
X84106000Y-46228000D01*
D36*
X84106000Y-46228000D02*
X85153000Y-47275000D01*
X85153000Y-47275000D02*
X85153000Y-48768000D01*
D37*
G04 #@! TO.N,/Power/VIN*
X31360000Y-81026000D02*
X33528000Y-81026000D01*
X34544000Y-71406000D02*
X36100000Y-69850000D01*
X34544000Y-80010000D02*
X34544000Y-78232000D01*
X34544000Y-78232000D02*
X34544000Y-77470000D01*
X34544000Y-77470000D02*
X34544000Y-71406000D01*
X33528000Y-81026000D02*
X34544000Y-80010000D01*
X36830000Y-78223000D02*
X34544000Y-78223000D01*
X34798000Y-78232000D02*
X34544000Y-78232000D01*
X34553000Y-78232000D02*
X34798000Y-78232000D01*
X34544000Y-78223000D02*
X34553000Y-78232000D01*
D36*
X39718000Y-78105000D02*
X36948000Y-78105000D01*
X36948000Y-78105000D02*
X36830000Y-78223000D01*
D37*
X34493200Y-77470000D02*
X34544000Y-77470000D01*
D35*
G04 #@! TO.N,Net-(C12-Pad1)*
X45118000Y-78105000D02*
X44043600Y-78105000D01*
X43625000Y-77686400D02*
X43625000Y-74930000D01*
X44043600Y-78105000D02*
X43625000Y-77686400D01*
G04 #@! TO.N,Net-(D2-PadC)*
X44196000Y-44641000D02*
X44196000Y-41973000D01*
G04 #@! TO.N,Net-(D3-PadA)*
X38608000Y-48260000D02*
X38608000Y-45720000D01*
X38608000Y-45720000D02*
X38894000Y-45434000D01*
X38894000Y-45434000D02*
X41402000Y-45434000D01*
X41402000Y-45434000D02*
X42259000Y-46291000D01*
X42259000Y-46291000D02*
X44196000Y-46291000D01*
G04 #@! TO.N,Net-(D4-PadA)*
X32258000Y-56071000D02*
X34259000Y-56071000D01*
X34259000Y-56071000D02*
X35084000Y-56896000D01*
X35084000Y-56896000D02*
X35084000Y-54368000D01*
X35084000Y-54368000D02*
X34478000Y-53762000D01*
G04 #@! TO.N,Net-(D6-PadC)*
X74930000Y-78295000D02*
X74930000Y-80963000D01*
G04 #@! TO.N,Net-(D7-PadC)*
X77216000Y-78295000D02*
X77216000Y-80963000D01*
G04 #@! TO.N,Net-(D8-PadC)*
X79502000Y-78295000D02*
X79502000Y-80963000D01*
G04 #@! TO.N,/MCLR*
X79502000Y-55118000D02*
X83362800Y-55118000D01*
X74422000Y-40563800D02*
X74422000Y-37846000D01*
X75615800Y-41757600D02*
X74422000Y-40563800D01*
X85064600Y-41757600D02*
X75615800Y-41757600D01*
X88106000Y-44799000D02*
X85064600Y-41757600D01*
X88106000Y-48850800D02*
X88106000Y-44799000D01*
X84810600Y-52146200D02*
X88106000Y-48850800D01*
X84810600Y-53670200D02*
X84810600Y-52146200D01*
X83362800Y-55118000D02*
X84810600Y-53670200D01*
D37*
G04 #@! TO.N,/VIN_AC*
X17780000Y-73500000D02*
X15588000Y-73500000D01*
X30988000Y-47498000D02*
X30988000Y-40640000D01*
X29718000Y-48768000D02*
X30988000Y-47498000D01*
X24638000Y-48768000D02*
X29718000Y-48768000D01*
X22098000Y-51308000D02*
X24638000Y-48768000D01*
X22098000Y-57150000D02*
X22098000Y-51308000D01*
X19558000Y-59690000D02*
X22098000Y-57150000D01*
X16256000Y-59690000D02*
X19558000Y-59690000D01*
X14478000Y-61468000D02*
X16256000Y-59690000D01*
X14478000Y-72390000D02*
X14478000Y-61468000D01*
X15588000Y-73500000D02*
X14478000Y-72390000D01*
X17780000Y-73500000D02*
X23090000Y-73500000D01*
X23090000Y-73500000D02*
X27060000Y-77470000D01*
G04 #@! TO.N,/VIN_GND*
X17780000Y-78500000D02*
X20842000Y-78500000D01*
X23368000Y-81026000D02*
X27060000Y-81026000D01*
X20842000Y-78500000D02*
X23368000Y-81026000D01*
D36*
X25899000Y-84074000D02*
X25899000Y-82187000D01*
X25899000Y-82187000D02*
X27060000Y-81026000D01*
G04 #@! TO.N,Net-(D14-PadC)*
X45118000Y-79375000D02*
X46355000Y-79375000D01*
X46228000Y-83058000D02*
X44418000Y-83058000D01*
X46990000Y-82296000D02*
X46228000Y-83058000D01*
X46990000Y-80010000D02*
X46990000Y-82296000D01*
X46355000Y-79375000D02*
X46990000Y-80010000D01*
X46990000Y-82296000D02*
X47522000Y-82828000D01*
X47522000Y-82828000D02*
X53594000Y-82828000D01*
D35*
G04 #@! TO.N,Net-(D15-PadC)*
X72644000Y-78295000D02*
X72644000Y-80963000D01*
G04 #@! TO.N,Net-(D17-PadC)*
X70358000Y-78295000D02*
X70358000Y-80963000D01*
D37*
G04 #@! TO.N,/SW_24V_2*
X17780000Y-52164000D02*
X17940000Y-52164000D01*
X24384000Y-45720000D02*
X28448000Y-45720000D01*
X17940000Y-52164000D02*
X24384000Y-45720000D01*
G04 #@! TO.N,/SW_24V_1*
X17780000Y-42164000D02*
X26924000Y-42164000D01*
X26924000Y-42164000D02*
X28448000Y-40640000D01*
D35*
G04 #@! TO.N,Net-(J3-Pad2)*
X81089000Y-44196000D02*
X81089000Y-43166800D01*
X76962000Y-35407600D02*
X76962000Y-37846000D01*
X76250800Y-34696400D02*
X76962000Y-35407600D01*
X73710800Y-34696400D02*
X76250800Y-34696400D01*
X72593200Y-35814000D02*
X73710800Y-34696400D01*
X72593200Y-40741600D02*
X72593200Y-35814000D01*
X74320400Y-42468800D02*
X72593200Y-40741600D01*
X80391000Y-42468800D02*
X74320400Y-42468800D01*
X81089000Y-43166800D02*
X80391000Y-42468800D01*
G04 #@! TO.N,/ICSPDAT*
X82042000Y-37846000D02*
X82042000Y-40157400D01*
X91948000Y-44907200D02*
X91948000Y-45911000D01*
X88239600Y-41198800D02*
X91948000Y-44907200D01*
X83083400Y-41198800D02*
X88239600Y-41198800D01*
X82042000Y-40157400D02*
X83083400Y-41198800D01*
G04 #@! TO.N,/ICSPCLK*
X84582000Y-37846000D02*
X84582000Y-39624000D01*
X94234000Y-44450000D02*
X94234000Y-45911000D01*
X90500200Y-40716200D02*
X94234000Y-44450000D01*
X85674200Y-40716200D02*
X90500200Y-40716200D01*
X84582000Y-39624000D02*
X85674200Y-40716200D01*
G04 #@! TO.N,Net-(Q2-PadG)*
X37658000Y-50460000D02*
X38740400Y-49377600D01*
X41999400Y-49377600D02*
X42101000Y-49276000D01*
X38740400Y-49377600D02*
X41999400Y-49377600D01*
G04 #@! TO.N,Net-(Q3-PadG)*
X92644000Y-75524000D02*
X92644000Y-73281000D01*
X92644000Y-73281000D02*
X92710000Y-73215000D01*
G04 #@! TO.N,Net-(Q3-PadD)*
X74930000Y-82613000D02*
X74930000Y-83312000D01*
X91694000Y-79502000D02*
X91694000Y-77724000D01*
X88188798Y-83007202D02*
X91694000Y-79502000D01*
X83820000Y-83007202D02*
X88188798Y-83007202D01*
X74930000Y-83312000D02*
X75946000Y-84328000D01*
X75946000Y-84328000D02*
X82042000Y-84328000D01*
X82042000Y-84328000D02*
X83362798Y-83007202D01*
X83362798Y-83007202D02*
X83820000Y-83007202D01*
G04 #@! TO.N,Net-(Q4-Pad3)*
X51562000Y-55880000D02*
X53023000Y-55880000D01*
X53023000Y-55880000D02*
X54039000Y-56896000D01*
X54039000Y-56896000D02*
X54039000Y-54610000D01*
G04 #@! TO.N,Net-(Q5-Pad1)*
X69510000Y-58608000D02*
X71753000Y-58608000D01*
X71753000Y-58608000D02*
X72073000Y-58928000D01*
G04 #@! TO.N,Net-(Q5-Pad3)*
X35490000Y-61148000D02*
X39842400Y-61148000D01*
X61417200Y-57658000D02*
X64820800Y-57658000D01*
X64820800Y-57658000D02*
X67310000Y-57658000D01*
X58978800Y-60096400D02*
X61417200Y-57658000D01*
X40894000Y-60096400D02*
X58978800Y-60096400D01*
X39842400Y-61148000D02*
X40894000Y-60096400D01*
X64833000Y-59182000D02*
X64833000Y-57658000D01*
X64820800Y-57708800D02*
X64820800Y-57658000D01*
X64820800Y-57670200D02*
X64820800Y-57708800D01*
X64833000Y-57658000D02*
X64820800Y-57670200D01*
X67310000Y-57658000D02*
X67310000Y-55397400D01*
X70345800Y-54914800D02*
X72073000Y-56642000D01*
X67792600Y-54914800D02*
X70345800Y-54914800D01*
X67310000Y-55397400D02*
X67792600Y-54914800D01*
G04 #@! TO.N,Net-(Q6-PadD)*
X77216000Y-82613000D02*
X77279000Y-82613000D01*
X81788000Y-83820000D02*
X83058000Y-82550000D01*
X78486000Y-83820000D02*
X81788000Y-83820000D01*
X77279000Y-82613000D02*
X78486000Y-83820000D01*
X83058000Y-82550000D02*
X85166200Y-80441800D01*
X86207600Y-77724000D02*
X87376000Y-77724000D01*
X85166200Y-78765400D02*
X86207600Y-77724000D01*
X85166200Y-80441800D02*
X85166200Y-78765400D01*
G04 #@! TO.N,Net-(Q6-PadG)*
X88392000Y-73215000D02*
X88392000Y-75458000D01*
X88392000Y-75458000D02*
X88326000Y-75524000D01*
G04 #@! TO.N,Net-(Q7-Pad1)*
X55689000Y-54610000D02*
X57932000Y-54610000D01*
X57932000Y-54610000D02*
X57998000Y-54676000D01*
G04 #@! TO.N,Net-(Q7-Pad3)*
X60198000Y-55626000D02*
X60198000Y-53277000D01*
X60198000Y-53277000D02*
X58991000Y-52070000D01*
X58991000Y-52070000D02*
X61405000Y-52070000D01*
G04 #@! TO.N,Net-(Q8-PadG)*
X84074000Y-73215000D02*
X84074000Y-75458000D01*
X84074000Y-75458000D02*
X84008000Y-75524000D01*
G04 #@! TO.N,Net-(Q8-PadD)*
X79502000Y-82613000D02*
X81039200Y-82613000D01*
X83058000Y-80594200D02*
X83058000Y-77724000D01*
X81039200Y-82613000D02*
X83058000Y-80594200D01*
G04 #@! TO.N,Net-(R7-Pad2)*
X30289000Y-62738000D02*
X31750000Y-61277000D01*
X32217400Y-59248000D02*
X33090000Y-59248000D01*
X31750000Y-59715400D02*
X32217400Y-59248000D01*
X31750000Y-61277000D02*
X31750000Y-59715400D01*
G04 #@! TO.N,/GPIO1*
X88902000Y-57658000D02*
X91338400Y-57658000D01*
X92710000Y-59029600D02*
X92710000Y-71565000D01*
X91338400Y-57658000D02*
X92710000Y-59029600D01*
G04 #@! TO.N,/GPIO2*
X88902000Y-58928000D02*
X90703400Y-58928000D01*
X91490800Y-68466200D02*
X88392000Y-71565000D01*
X91490800Y-59715400D02*
X91490800Y-68466200D01*
X90703400Y-58928000D02*
X91490800Y-59715400D01*
G04 #@! TO.N,/UART_TX*
X73723000Y-58928000D02*
X73723000Y-56642000D01*
X73723000Y-56642000D02*
X76657200Y-56642000D01*
X78689200Y-57658000D02*
X79502000Y-57658000D01*
X78206600Y-57175400D02*
X78689200Y-57658000D01*
X77190600Y-57175400D02*
X78206600Y-57175400D01*
X76657200Y-56642000D02*
X77190600Y-57175400D01*
G04 #@! TO.N,/GPIO3*
X84074000Y-71565000D02*
X86156800Y-69482200D01*
X81356200Y-52578000D02*
X79502000Y-52578000D01*
X83007200Y-54229000D02*
X81356200Y-52578000D01*
X86156800Y-57226200D02*
X85521800Y-56591200D01*
X86156800Y-69482200D02*
X86156800Y-57226200D01*
G04 #@! TO.N,/UART_RX*
X79502000Y-56388000D02*
X77393800Y-56388000D01*
X70662800Y-52070000D02*
X63055000Y-52070000D01*
X71653400Y-53060600D02*
X70662800Y-52070000D01*
X75920600Y-54914800D02*
X72059800Y-54914800D01*
X77393800Y-56388000D02*
X75920600Y-54914800D01*
G04 #@! TO.N,/V_Temp*
X84074000Y-65723000D02*
X84074000Y-56591200D01*
X85547200Y-55118000D02*
X88902000Y-55118000D01*
X84074000Y-56591200D02*
X85547200Y-55118000D01*
X81788000Y-65723000D02*
X84074000Y-65723000D01*
G04 #@! TO.N,Net-(R24-Pad2)*
X81788000Y-67373000D02*
X79287000Y-67373000D01*
X79287000Y-67373000D02*
X79182000Y-67478000D01*
G04 #@! TO.N,Net-(R26-Pad1)*
X49530000Y-43180000D02*
X49530000Y-47345600D01*
X50952400Y-48768000D02*
X53785000Y-48768000D01*
X49530000Y-47345600D02*
X50952400Y-48768000D01*
G04 #@! TO.N,/AN4*
X55435000Y-48768000D02*
X55435000Y-46482000D01*
X55435000Y-48768000D02*
X65278000Y-48768000D01*
X88902000Y-56388000D02*
X93065600Y-56388000D01*
X66548000Y-48768000D02*
X65278000Y-48768000D01*
X70231000Y-45085000D02*
X66548000Y-48768000D01*
X70231000Y-35915600D02*
X70231000Y-45085000D01*
X72263000Y-33883600D02*
X70231000Y-35915600D01*
X88290400Y-33883600D02*
X72263000Y-33883600D01*
X89966800Y-35560000D02*
X88290400Y-33883600D01*
X89966800Y-37414200D02*
X89966800Y-35560000D01*
X95580200Y-43027600D02*
X89966800Y-37414200D01*
X95580200Y-53873400D02*
X95580200Y-43027600D01*
X93065600Y-56388000D02*
X95580200Y-53873400D01*
G04 #@! TO.N,Net-(R28-Pad1)*
X88902000Y-52578000D02*
X91084400Y-52578000D01*
X91948000Y-51714400D02*
X91948000Y-47561000D01*
X91084400Y-52578000D02*
X91948000Y-51714400D01*
G04 #@! TO.N,Net-(R29-Pad1)*
X88902000Y-53848000D02*
X92913200Y-53848000D01*
X94234000Y-52527200D02*
X94234000Y-47561000D01*
X92913200Y-53848000D02*
X94234000Y-52527200D01*
G04 #@! TO.N,Net-(R31-Pad2)*
X39718000Y-76835000D02*
X39718000Y-75027000D01*
X39718000Y-75027000D02*
X39815000Y-74930000D01*
X39815000Y-72898000D02*
X39815000Y-74930000D01*
D36*
G04 #@! TO.N,Net-(R33-Pad2)*
X36830000Y-80273000D02*
X37202000Y-80645000D01*
X37202000Y-80645000D02*
X39718000Y-80645000D01*
X39718000Y-79375000D02*
X39718000Y-80645000D01*
X39718000Y-80645000D02*
X45118000Y-80645000D01*
D35*
G04 #@! TO.N,/CLKOUT*
X35490000Y-60198000D02*
X39624000Y-60198000D01*
X67945000Y-53848000D02*
X79502000Y-53848000D01*
X64795400Y-56997600D02*
X67945000Y-53848000D01*
X61290200Y-56997600D02*
X64795400Y-56997600D01*
X58953400Y-59334400D02*
X61290200Y-56997600D01*
X40487600Y-59334400D02*
X58953400Y-59334400D01*
X39624000Y-60198000D02*
X40487600Y-59334400D01*
G04 #@! TO.N,/SW_1*
X79502000Y-58928000D02*
X78232000Y-58928000D01*
X48310800Y-49276000D02*
X43751000Y-49276000D01*
X49301400Y-50266600D02*
X48310800Y-49276000D01*
X72136000Y-50266600D02*
X49301400Y-50266600D01*
X75057000Y-53187600D02*
X72136000Y-50266600D01*
X77038200Y-57734200D02*
X75387200Y-57734200D01*
X78232000Y-58928000D02*
X77038200Y-57734200D01*
G04 #@! TD*
M02*
