M48
;DRILL file {KiCad 5.0.0-fee4fd1~66~ubuntu18.04.1} date Fri Dec 28 16:36:55 2018
;FORMAT={-:-/ absolute / inch / decimal}
FMAT,2
INCH,TZ
T1C0.0120
T2C0.0394
T3C0.0400
T4C0.0512
T5C0.1181
%
G90
G05
M72
T1
X0.944Y-2.592
X1.054Y-2.072
X1.16Y-3.31
X1.239Y-2.319
X1.24Y-2.94
X1.24Y-2.97
X1.356Y-2.448
X1.358Y-3.05
X1.447Y-2.334
X1.499Y-3.27
X1.543Y-2.042
X1.633Y-2.819
X1.679Y-2.511
X1.717Y-2.511
X1.777Y-2.993
X1.83Y-1.642
X1.942Y-2.284
X2.065Y-2.05
X2.07Y-1.83
X2.203Y-2.05
X2.306Y-2.306
X2.36Y-2.822
X2.473Y-2.8
X2.53Y-2.384
X2.627Y-2.8
X2.65Y-2.61
X2.666Y-3.258
X2.737Y-2.194
X2.821Y-2.089
X2.837Y-2.162
X2.955Y-2.094
X2.968Y-2.273
X3.003Y-2.069
X3.003Y-2.309
X3.015Y-2.569
X3.078Y-1.83
X3.214Y-1.979
X3.233Y-2.921
X3.268Y-2.135
X3.308Y-2.698
X3.367Y-2.228
X3.403Y-2.916
X3.501Y-1.974
X3.572Y-2.918
T2
X1.12Y-1.6
X1.12Y-1.8
X1.22Y-1.6
X1.22Y-1.8
X1.32Y-1.6
X1.32Y-1.8
X1.52Y-1.6
X1.52Y-1.8
T3
X2.93Y-1.49
X3.03Y-1.49
X3.13Y-1.49
X3.23Y-1.49
X3.33Y-1.49
X3.43Y-1.49
T4
X0.7Y-2.5
X0.7Y-2.6969
X0.7Y-2.8937
X0.7Y-3.0906
X0.7Y-1.66
X0.7Y-1.8569
X0.7Y-2.0537
X0.7Y-2.2506
T5
X3.7Y-3.3
X0.6Y-3.3
X3.7Y-1.4
X0.6Y-1.4
T0
M30
