G04 #@! TF.GenerationSoftware,KiCad,Pcbnew,5.0.0-fee4fd1~66~ubuntu18.04.1*
G04 #@! TF.CreationDate,2018-12-28T16:36:32-07:00*
G04 #@! TF.ProjectId,transceiver_test,7472616E736365697665725F74657374,rev?*
G04 #@! TF.SameCoordinates,Original*
G04 #@! TF.FileFunction,Legend,Bot*
G04 #@! TF.FilePolarity,Positive*
%FSLAX46Y46*%
G04 Gerber Fmt 4.6, Leading zero omitted, Abs format (unit mm)*
G04 Created by KiCad (PCBNEW 5.0.0-fee4fd1~66~ubuntu18.04.1) date Fri Dec 28 16:36:32 2018*
%MOMM*%
%LPD*%
G01*
G04 APERTURE LIST*
%ADD10C,0.203200*%
%ADD11C,0.150000*%
G04 APERTURE END LIST*
D10*
G04 #@! TO.C,D11*
X25400000Y-78994000D02*
X33401000Y-78994000D01*
X33401000Y-78994000D02*
X33401000Y-75946000D01*
X33401000Y-75946000D02*
X25400000Y-75946000D01*
X33020000Y-78994000D02*
X33020000Y-75946000D01*
X25400000Y-78994000D02*
X25400000Y-75946000D01*
G04 #@! TO.C,D12*
X33020000Y-79502000D02*
X25019000Y-79502000D01*
X25019000Y-79502000D02*
X25019000Y-82550000D01*
X25019000Y-82550000D02*
X33020000Y-82550000D01*
X25400000Y-79502000D02*
X25400000Y-82550000D01*
X33020000Y-79502000D02*
X33020000Y-82550000D01*
G04 #@! TO.C,D11*
D11*
X30424285Y-75382380D02*
X30424285Y-74382380D01*
X30186190Y-74382380D01*
X30043333Y-74430000D01*
X29948095Y-74525238D01*
X29900476Y-74620476D01*
X29852857Y-74810952D01*
X29852857Y-74953809D01*
X29900476Y-75144285D01*
X29948095Y-75239523D01*
X30043333Y-75334761D01*
X30186190Y-75382380D01*
X30424285Y-75382380D01*
X28900476Y-75382380D02*
X29471904Y-75382380D01*
X29186190Y-75382380D02*
X29186190Y-74382380D01*
X29281428Y-74525238D01*
X29376666Y-74620476D01*
X29471904Y-74668095D01*
X27948095Y-75382380D02*
X28519523Y-75382380D01*
X28233809Y-75382380D02*
X28233809Y-74382380D01*
X28329047Y-74525238D01*
X28424285Y-74620476D01*
X28519523Y-74668095D01*
G04 #@! TO.C,D12*
X30424285Y-84018380D02*
X30424285Y-83018380D01*
X30186190Y-83018380D01*
X30043333Y-83066000D01*
X29948095Y-83161238D01*
X29900476Y-83256476D01*
X29852857Y-83446952D01*
X29852857Y-83589809D01*
X29900476Y-83780285D01*
X29948095Y-83875523D01*
X30043333Y-83970761D01*
X30186190Y-84018380D01*
X30424285Y-84018380D01*
X28900476Y-84018380D02*
X29471904Y-84018380D01*
X29186190Y-84018380D02*
X29186190Y-83018380D01*
X29281428Y-83161238D01*
X29376666Y-83256476D01*
X29471904Y-83304095D01*
X28519523Y-83113619D02*
X28471904Y-83066000D01*
X28376666Y-83018380D01*
X28138571Y-83018380D01*
X28043333Y-83066000D01*
X27995714Y-83113619D01*
X27948095Y-83208857D01*
X27948095Y-83304095D01*
X27995714Y-83446952D01*
X28567142Y-84018380D01*
X27948095Y-84018380D01*
G04 #@! TD*
M02*
