G04 #@! TF.GenerationSoftware,KiCad,Pcbnew,5.0.0-fee4fd1~66~ubuntu18.04.1*
G04 #@! TF.CreationDate,2018-12-28T16:36:32-07:00*
G04 #@! TF.ProjectId,transceiver_test,7472616E736365697665725F74657374,rev?*
G04 #@! TF.SameCoordinates,Original*
G04 #@! TF.FileFunction,Copper,L2,Bot,Signal*
G04 #@! TF.FilePolarity,Positive*
%FSLAX46Y46*%
G04 Gerber Fmt 4.6, Leading zero omitted, Abs format (unit mm)*
G04 Created by KiCad (PCBNEW 5.0.0-fee4fd1~66~ubuntu18.04.1) date Fri Dec 28 16:36:32 2018*
%MOMM*%
%LPD*%
G01*
G04 APERTURE LIST*
G04 #@! TA.AperFunction,SMDPad,CuDef*
%ADD10R,2.500000X2.300000*%
G04 #@! TD*
G04 #@! TA.AperFunction,ComponentPad*
%ADD11R,3.000000X2.000000*%
G04 #@! TD*
G04 #@! TA.AperFunction,ComponentPad*
%ADD12O,3.000000X2.000000*%
G04 #@! TD*
G04 #@! TA.AperFunction,ComponentPad*
%ADD13R,1.524000X3.048000*%
G04 #@! TD*
G04 #@! TA.AperFunction,ComponentPad*
%ADD14O,1.524000X3.048000*%
G04 #@! TD*
G04 #@! TA.AperFunction,ComponentPad*
%ADD15C,1.625000*%
G04 #@! TD*
G04 #@! TA.AperFunction,ComponentPad*
%ADD16C,4.000000*%
G04 #@! TD*
G04 #@! TA.AperFunction,ViaPad*
%ADD17C,0.609600*%
G04 #@! TD*
G04 #@! TA.AperFunction,Conductor*
%ADD18C,0.508000*%
G04 #@! TD*
G04 #@! TA.AperFunction,Conductor*
%ADD19C,1.270000*%
G04 #@! TD*
G04 #@! TA.AperFunction,Conductor*
%ADD20C,0.254000*%
G04 #@! TD*
G04 APERTURE END LIST*
D10*
G04 #@! TO.P,D11,C*
G04 #@! TO.N,/Power/VIN*
X31360000Y-77470000D03*
G04 #@! TO.P,D11,A*
G04 #@! TO.N,/VIN_AC*
X27060000Y-77470000D03*
G04 #@! TD*
G04 #@! TO.P,D12,C*
G04 #@! TO.N,/VIN_GND*
X27060000Y-81026000D03*
G04 #@! TO.P,D12,A*
G04 #@! TO.N,GND*
X31360000Y-81026000D03*
G04 #@! TD*
D11*
G04 #@! TO.P,J1,1*
G04 #@! TO.N,/RF_IN*
X17780000Y-63500000D03*
D12*
G04 #@! TO.P,J1,2*
G04 #@! TO.N,/RF_OUT*
X17780000Y-68500000D03*
G04 #@! TO.P,J1,3*
G04 #@! TO.N,/VIN_AC*
X17780000Y-73500000D03*
G04 #@! TO.P,J1,4*
G04 #@! TO.N,/VIN_GND*
X17780000Y-78500000D03*
G04 #@! TD*
G04 #@! TO.P,J2,4*
G04 #@! TO.N,/VIN_GND*
X17780000Y-57164000D03*
G04 #@! TO.P,J2,3*
G04 #@! TO.N,/SW_24V_2*
X17780000Y-52164000D03*
G04 #@! TO.P,J2,2*
G04 #@! TO.N,/VIN_GND*
X17780000Y-47164000D03*
D11*
G04 #@! TO.P,J2,1*
G04 #@! TO.N,/SW_24V_1*
X17780000Y-42164000D03*
G04 #@! TD*
D13*
G04 #@! TO.P,J3,1*
G04 #@! TO.N,/MCLR*
X74422000Y-37846000D03*
D14*
G04 #@! TO.P,J3,2*
G04 #@! TO.N,Net-(J3-Pad2)*
X76962000Y-37846000D03*
G04 #@! TO.P,J3,3*
G04 #@! TO.N,GND*
X79502000Y-37846000D03*
G04 #@! TO.P,J3,4*
G04 #@! TO.N,/ICSPDAT*
X82042000Y-37846000D03*
G04 #@! TO.P,J3,5*
G04 #@! TO.N,/ICSPCLK*
X84582000Y-37846000D03*
G04 #@! TO.P,J3,6*
G04 #@! TO.N,Net-(J3-Pad6)*
X87122000Y-37846000D03*
G04 #@! TD*
D15*
G04 #@! TO.P,U1,1*
G04 #@! TO.N,+5V*
X38608000Y-40640000D03*
G04 #@! TO.P,U1,3*
G04 #@! TO.N,Net-(U1-Pad3)*
X33528000Y-40640000D03*
G04 #@! TO.P,U1,4*
G04 #@! TO.N,/VIN_AC*
X30988000Y-40640000D03*
G04 #@! TO.P,U1,5*
G04 #@! TO.N,/SW_24V_1*
X28448000Y-40640000D03*
G04 #@! TO.P,U1,8*
G04 #@! TO.N,/SW_24V_2*
X28448000Y-45720000D03*
G04 #@! TO.P,U1,9*
G04 #@! TO.N,/VIN_AC*
X30988000Y-45720000D03*
G04 #@! TO.P,U1,10*
G04 #@! TO.N,Net-(U1-Pad10)*
X33528000Y-45720000D03*
G04 #@! TO.P,U1,12*
G04 #@! TO.N,Net-(D3-PadA)*
X38608000Y-45720000D03*
G04 #@! TD*
D16*
G04 #@! TO.P,M1,1*
G04 #@! TO.N,GND*
X93980000Y-83820000D03*
G04 #@! TD*
G04 #@! TO.P,M2,1*
G04 #@! TO.N,GND*
X15240000Y-83820000D03*
G04 #@! TD*
G04 #@! TO.P,M3,1*
G04 #@! TO.N,GND*
X93980000Y-35560000D03*
G04 #@! TD*
G04 #@! TO.P,M4,1*
G04 #@! TO.N,GND*
X15240000Y-35560000D03*
G04 #@! TD*
D17*
G04 #@! TO.N,GND*
X31496000Y-74676000D03*
X31496000Y-75438000D03*
X29464000Y-84074000D03*
X31470600Y-58902600D03*
X34442400Y-62179200D03*
X36753800Y-59283600D03*
X59944000Y-71678800D03*
X67310000Y-66294000D03*
X42646600Y-63779400D03*
X43611800Y-63779400D03*
X69519800Y-55727600D03*
X39192200Y-51866800D03*
X46482000Y-41706800D03*
X76581000Y-65252600D03*
X67716400Y-82753200D03*
X52578000Y-46482000D03*
X55956200Y-52070000D03*
X52451000Y-52070000D03*
X49326800Y-58013600D03*
X81635600Y-50266600D03*
X88925400Y-50139600D03*
X82118200Y-74193400D03*
X86436200Y-74066400D03*
X90728800Y-74117200D03*
X84023200Y-68529200D03*
X38074600Y-83058000D03*
X45135800Y-76022200D03*
X41478200Y-71602600D03*
X26771600Y-52628800D03*
G04 #@! TO.N,+5V*
X66725800Y-71120000D03*
X62814200Y-71120000D03*
X23977600Y-65836800D03*
G04 #@! TO.N,+3V3*
X78181200Y-46482000D03*
X76276200Y-58648600D03*
X76276200Y-52552600D03*
X64262000Y-60553600D03*
X58572400Y-58572400D03*
G04 #@! TO.N,/Power/VIN*
X34493200Y-77470000D03*
G04 #@! TO.N,/GPIO3*
X83007200Y-54229000D03*
X85521800Y-56591200D03*
G04 #@! TO.N,/UART_RX*
X71653400Y-53060600D03*
X72059800Y-54914800D03*
G04 #@! TO.N,/SW_1*
X75057000Y-53187600D03*
X75387200Y-57734200D03*
G04 #@! TD*
D18*
G04 #@! TO.N,GND*
X52451000Y-52070000D02*
X52425600Y-52070000D01*
X88925400Y-50139600D02*
X88925400Y-50241200D01*
G04 #@! TO.N,+5V*
X62814200Y-71120000D02*
X66725800Y-71120000D01*
D19*
X38608000Y-38404800D02*
X38608000Y-40640000D01*
X23977600Y-65836800D02*
X21945600Y-63804800D01*
X21945600Y-63804800D02*
X21945600Y-39319200D01*
X21945600Y-39319200D02*
X24815800Y-36449000D01*
X24815800Y-36449000D02*
X36652200Y-36449000D01*
X36652200Y-36449000D02*
X38608000Y-38404800D01*
D18*
G04 #@! TO.N,+3V3*
X76276200Y-58648600D02*
X76276200Y-52552600D01*
X60553600Y-60553600D02*
X64262000Y-60553600D01*
X58572400Y-58572400D02*
X60553600Y-60553600D01*
D19*
G04 #@! TO.N,/Power/VIN*
X31360000Y-77470000D02*
X34493200Y-77470000D01*
G04 #@! TO.N,/VIN_AC*
X17780000Y-73500000D02*
X23090000Y-73500000D01*
X23090000Y-73500000D02*
X27060000Y-77470000D01*
G04 #@! TO.N,/VIN_GND*
X17780000Y-78500000D02*
X17780000Y-80010000D01*
X18796000Y-81026000D02*
X27060000Y-81026000D01*
X17780000Y-80010000D02*
X18796000Y-81026000D01*
X17780000Y-78500000D02*
X15762000Y-78500000D01*
X14478000Y-50466000D02*
X17780000Y-47164000D01*
X14478000Y-77216000D02*
X14478000Y-57150000D01*
X14478000Y-57150000D02*
X14478000Y-50466000D01*
X15762000Y-78500000D02*
X14478000Y-77216000D01*
X17780000Y-57164000D02*
X14478000Y-57164000D01*
X14478000Y-57164000D02*
X14478000Y-57150000D01*
D20*
G04 #@! TO.N,/GPIO3*
X83159600Y-54229000D02*
X83007200Y-54229000D01*
X85521800Y-56591200D02*
X83159600Y-54229000D01*
G04 #@! TO.N,/UART_RX*
X72059800Y-53467000D02*
X71653400Y-53060600D01*
X72059800Y-54914800D02*
X72059800Y-53467000D01*
G04 #@! TO.N,/SW_1*
X75057000Y-57404000D02*
X75057000Y-53187600D01*
X75387200Y-57734200D02*
X75057000Y-57404000D01*
G04 #@! TD*
G04 #@! TO.N,GND*
G36*
X91992226Y-33751834D02*
X92104977Y-33864585D01*
X91734257Y-34085353D01*
X91340881Y-35057012D01*
X91349287Y-36105247D01*
X91734257Y-37034647D01*
X92104978Y-37255416D01*
X93800395Y-35560000D01*
X93786252Y-35545858D01*
X93965858Y-35366252D01*
X93980000Y-35380395D01*
X93994142Y-35366252D01*
X94173748Y-35545858D01*
X94159605Y-35560000D01*
X94173748Y-35574142D01*
X93994142Y-35753748D01*
X93980000Y-35739605D01*
X92284584Y-37435022D01*
X92505353Y-37805743D01*
X93477012Y-38199119D01*
X94525247Y-38190713D01*
X95454647Y-37805743D01*
X95675415Y-37435023D01*
X95788166Y-37547774D01*
X95810001Y-37525939D01*
X95810000Y-81854060D01*
X95788166Y-81832226D01*
X95675415Y-81944977D01*
X95454647Y-81574257D01*
X94482988Y-81180881D01*
X93434753Y-81189287D01*
X92505353Y-81574257D01*
X92284584Y-81944978D01*
X93980000Y-83640395D01*
X93994142Y-83626252D01*
X94173748Y-83805858D01*
X94159605Y-83820000D01*
X94173748Y-83834142D01*
X93994142Y-84013748D01*
X93980000Y-83999605D01*
X93965858Y-84013748D01*
X93786252Y-83834142D01*
X93800395Y-83820000D01*
X92104978Y-82124584D01*
X91734257Y-82345353D01*
X91340881Y-83317012D01*
X91349287Y-84365247D01*
X91734257Y-85294647D01*
X92104977Y-85515415D01*
X91992226Y-85628166D01*
X92014060Y-85650000D01*
X17205940Y-85650000D01*
X17227774Y-85628166D01*
X17115023Y-85515415D01*
X17485743Y-85294647D01*
X17879119Y-84322988D01*
X17870713Y-83274753D01*
X17485743Y-82345353D01*
X17115022Y-82124584D01*
X15419605Y-83820000D01*
X15433748Y-83834142D01*
X15254142Y-84013748D01*
X15240000Y-83999605D01*
X15225858Y-84013748D01*
X15046252Y-83834142D01*
X15060395Y-83820000D01*
X15046252Y-83805858D01*
X15225858Y-83626252D01*
X15240000Y-83640395D01*
X16935416Y-81944978D01*
X16714647Y-81574257D01*
X15742988Y-81180881D01*
X14694753Y-81189287D01*
X13765353Y-81574257D01*
X13544585Y-81944977D01*
X13431834Y-81832226D01*
X13410000Y-81854060D01*
X13410000Y-77903562D01*
X13562382Y-78131618D01*
X13668421Y-78202471D01*
X14775530Y-79309581D01*
X14846382Y-79415618D01*
X14952418Y-79486469D01*
X14952419Y-79486470D01*
X14997064Y-79516301D01*
X15266471Y-79696313D01*
X15636920Y-79770000D01*
X15636924Y-79770000D01*
X15761999Y-79794879D01*
X15887074Y-79770000D01*
X16237768Y-79770000D01*
X16498241Y-79944042D01*
X16485121Y-80010000D01*
X16510000Y-80135075D01*
X16510000Y-80135080D01*
X16526180Y-80216419D01*
X16583688Y-80505529D01*
X16793530Y-80819580D01*
X16793532Y-80819582D01*
X16864383Y-80925618D01*
X16970419Y-80996469D01*
X17809530Y-81835581D01*
X17880382Y-81941618D01*
X18300471Y-82222313D01*
X18670920Y-82296000D01*
X18670925Y-82296000D01*
X18796000Y-82320879D01*
X18921075Y-82296000D01*
X25186429Y-82296000D01*
X25211843Y-82423765D01*
X25352191Y-82633809D01*
X25562235Y-82774157D01*
X25810000Y-82823440D01*
X28310000Y-82823440D01*
X28557765Y-82774157D01*
X28767809Y-82633809D01*
X28908157Y-82423765D01*
X28957440Y-82176000D01*
X28957440Y-81311750D01*
X29475000Y-81311750D01*
X29475000Y-82302310D01*
X29571673Y-82535699D01*
X29750302Y-82714327D01*
X29983691Y-82811000D01*
X31074250Y-82811000D01*
X31233000Y-82652250D01*
X31233000Y-81153000D01*
X31487000Y-81153000D01*
X31487000Y-82652250D01*
X31645750Y-82811000D01*
X32736309Y-82811000D01*
X32969698Y-82714327D01*
X33148327Y-82535699D01*
X33245000Y-82302310D01*
X33245000Y-81311750D01*
X33086250Y-81153000D01*
X31487000Y-81153000D01*
X31233000Y-81153000D01*
X29633750Y-81153000D01*
X29475000Y-81311750D01*
X28957440Y-81311750D01*
X28957440Y-79876000D01*
X28908157Y-79628235D01*
X28767809Y-79418191D01*
X28557765Y-79277843D01*
X28407733Y-79248000D01*
X28557765Y-79218157D01*
X28767809Y-79077809D01*
X28908157Y-78867765D01*
X28957440Y-78620000D01*
X28957440Y-76320000D01*
X29462560Y-76320000D01*
X29462560Y-78620000D01*
X29511843Y-78867765D01*
X29652191Y-79077809D01*
X29862235Y-79218157D01*
X29981545Y-79241889D01*
X29750302Y-79337673D01*
X29571673Y-79516301D01*
X29475000Y-79749690D01*
X29475000Y-80740250D01*
X29633750Y-80899000D01*
X31233000Y-80899000D01*
X31233000Y-80879000D01*
X31487000Y-80879000D01*
X31487000Y-80899000D01*
X33086250Y-80899000D01*
X33245000Y-80740250D01*
X33245000Y-79749690D01*
X33148327Y-79516301D01*
X32969698Y-79337673D01*
X32738455Y-79241889D01*
X32857765Y-79218157D01*
X33067809Y-79077809D01*
X33208157Y-78867765D01*
X33233571Y-78740000D01*
X34618280Y-78740000D01*
X34988729Y-78666313D01*
X35408818Y-78385618D01*
X35689513Y-77965529D01*
X35788080Y-77470000D01*
X35689513Y-76974471D01*
X35408818Y-76554382D01*
X34988729Y-76273687D01*
X34618280Y-76200000D01*
X33233571Y-76200000D01*
X33208157Y-76072235D01*
X33067809Y-75862191D01*
X32857765Y-75721843D01*
X32610000Y-75672560D01*
X30110000Y-75672560D01*
X29862235Y-75721843D01*
X29652191Y-75862191D01*
X29511843Y-76072235D01*
X29462560Y-76320000D01*
X28957440Y-76320000D01*
X28908157Y-76072235D01*
X28767809Y-75862191D01*
X28557765Y-75721843D01*
X28310000Y-75672560D01*
X27058611Y-75672560D01*
X24076471Y-72690421D01*
X24005618Y-72584382D01*
X23585529Y-72303687D01*
X23215080Y-72230000D01*
X23215075Y-72230000D01*
X23090000Y-72205121D01*
X22964925Y-72230000D01*
X19322232Y-72230000D01*
X18917945Y-71959864D01*
X18441031Y-71865000D01*
X17118969Y-71865000D01*
X16642055Y-71959864D01*
X16101231Y-72321231D01*
X15748000Y-72849879D01*
X15748000Y-70933062D01*
X61874400Y-70933062D01*
X61874400Y-71306938D01*
X62017476Y-71652354D01*
X62281846Y-71916724D01*
X62627262Y-72059800D01*
X63001138Y-72059800D01*
X63123780Y-72009000D01*
X66416220Y-72009000D01*
X66538862Y-72059800D01*
X66912738Y-72059800D01*
X67258154Y-71916724D01*
X67522524Y-71652354D01*
X67665600Y-71306938D01*
X67665600Y-70933062D01*
X67522524Y-70587646D01*
X67258154Y-70323276D01*
X66912738Y-70180200D01*
X66538862Y-70180200D01*
X66416220Y-70231000D01*
X63123780Y-70231000D01*
X63001138Y-70180200D01*
X62627262Y-70180200D01*
X62281846Y-70323276D01*
X62017476Y-70587646D01*
X61874400Y-70933062D01*
X15748000Y-70933062D01*
X15748000Y-69150121D01*
X16101231Y-69678769D01*
X16642055Y-70040136D01*
X17118969Y-70135000D01*
X18441031Y-70135000D01*
X18917945Y-70040136D01*
X19458769Y-69678769D01*
X19820136Y-69137945D01*
X19947031Y-68500000D01*
X19820136Y-67862055D01*
X19458769Y-67321231D01*
X18917945Y-66959864D01*
X18441031Y-66865000D01*
X17118969Y-66865000D01*
X16642055Y-66959864D01*
X16101231Y-67321231D01*
X15748000Y-67849879D01*
X15748000Y-64846775D01*
X15822191Y-64957809D01*
X16032235Y-65098157D01*
X16280000Y-65147440D01*
X19280000Y-65147440D01*
X19527765Y-65098157D01*
X19737809Y-64957809D01*
X19878157Y-64747765D01*
X19927440Y-64500000D01*
X19927440Y-62500000D01*
X19878157Y-62252235D01*
X19737809Y-62042191D01*
X19527765Y-61901843D01*
X19280000Y-61852560D01*
X16280000Y-61852560D01*
X16032235Y-61901843D01*
X15822191Y-62042191D01*
X15748000Y-62153225D01*
X15748000Y-58434000D01*
X16237768Y-58434000D01*
X16642055Y-58704136D01*
X17118969Y-58799000D01*
X18441031Y-58799000D01*
X18917945Y-58704136D01*
X19458769Y-58342769D01*
X19820136Y-57801945D01*
X19947031Y-57164000D01*
X19820136Y-56526055D01*
X19458769Y-55985231D01*
X18917945Y-55623864D01*
X18441031Y-55529000D01*
X17118969Y-55529000D01*
X16642055Y-55623864D01*
X16237768Y-55894000D01*
X15748000Y-55894000D01*
X15748000Y-52814121D01*
X16101231Y-53342769D01*
X16642055Y-53704136D01*
X17118969Y-53799000D01*
X18441031Y-53799000D01*
X18917945Y-53704136D01*
X19458769Y-53342769D01*
X19820136Y-52801945D01*
X19947031Y-52164000D01*
X19820136Y-51526055D01*
X19458769Y-50985231D01*
X18917945Y-50623864D01*
X18441031Y-50529000D01*
X17118969Y-50529000D01*
X16642055Y-50623864D01*
X16101231Y-50985231D01*
X15748000Y-51513879D01*
X15748000Y-50992050D01*
X17941051Y-48799000D01*
X18441031Y-48799000D01*
X18917945Y-48704136D01*
X19458769Y-48342769D01*
X19820136Y-47801945D01*
X19947031Y-47164000D01*
X19820136Y-46526055D01*
X19458769Y-45985231D01*
X18917945Y-45623864D01*
X18441031Y-45529000D01*
X17118969Y-45529000D01*
X16642055Y-45623864D01*
X16101231Y-45985231D01*
X15739864Y-46526055D01*
X15612969Y-47164000D01*
X15674519Y-47473431D01*
X13668419Y-49479531D01*
X13562383Y-49550382D01*
X13491532Y-49656418D01*
X13491530Y-49656420D01*
X13410000Y-49778438D01*
X13410000Y-41164000D01*
X15632560Y-41164000D01*
X15632560Y-43164000D01*
X15681843Y-43411765D01*
X15822191Y-43621809D01*
X16032235Y-43762157D01*
X16280000Y-43811440D01*
X19280000Y-43811440D01*
X19527765Y-43762157D01*
X19737809Y-43621809D01*
X19878157Y-43411765D01*
X19927440Y-43164000D01*
X19927440Y-41164000D01*
X19878157Y-40916235D01*
X19737809Y-40706191D01*
X19527765Y-40565843D01*
X19280000Y-40516560D01*
X16280000Y-40516560D01*
X16032235Y-40565843D01*
X15822191Y-40706191D01*
X15681843Y-40916235D01*
X15632560Y-41164000D01*
X13410000Y-41164000D01*
X13410000Y-39319200D01*
X20650721Y-39319200D01*
X20675601Y-39444280D01*
X20675600Y-63679725D01*
X20650721Y-63804800D01*
X20675600Y-63929875D01*
X20675600Y-63929879D01*
X20749287Y-64300328D01*
X21029982Y-64720418D01*
X21136021Y-64791271D01*
X23168019Y-66823270D01*
X23482070Y-67033112D01*
X23977600Y-67131679D01*
X24473129Y-67033112D01*
X24893218Y-66752418D01*
X25173912Y-66332329D01*
X25272479Y-65836800D01*
X25173912Y-65341270D01*
X24964070Y-65027219D01*
X23215600Y-63278750D01*
X23215600Y-58385462D01*
X57632600Y-58385462D01*
X57632600Y-58759338D01*
X57775676Y-59104754D01*
X58040046Y-59369124D01*
X58162689Y-59419925D01*
X59863071Y-61120307D01*
X59912667Y-61194533D01*
X60206730Y-61391019D01*
X60466044Y-61442600D01*
X60466045Y-61442600D01*
X60553600Y-61460016D01*
X60641155Y-61442600D01*
X63952420Y-61442600D01*
X64075062Y-61493400D01*
X64448938Y-61493400D01*
X64794354Y-61350324D01*
X65058724Y-61085954D01*
X65201800Y-60740538D01*
X65201800Y-60366662D01*
X65058724Y-60021246D01*
X64794354Y-59756876D01*
X64448938Y-59613800D01*
X64075062Y-59613800D01*
X63952420Y-59664600D01*
X60921836Y-59664600D01*
X59419925Y-58162689D01*
X59369124Y-58040046D01*
X59104754Y-57775676D01*
X58759338Y-57632600D01*
X58385462Y-57632600D01*
X58040046Y-57775676D01*
X57775676Y-58040046D01*
X57632600Y-58385462D01*
X23215600Y-58385462D01*
X23215600Y-52873662D01*
X70713600Y-52873662D01*
X70713600Y-53247538D01*
X70856676Y-53592954D01*
X71121046Y-53857324D01*
X71297801Y-53930538D01*
X71297800Y-54347722D01*
X71263076Y-54382446D01*
X71120000Y-54727862D01*
X71120000Y-55101738D01*
X71263076Y-55447154D01*
X71527446Y-55711524D01*
X71872862Y-55854600D01*
X72246738Y-55854600D01*
X72592154Y-55711524D01*
X72856524Y-55447154D01*
X72999600Y-55101738D01*
X72999600Y-54727862D01*
X72856524Y-54382446D01*
X72821800Y-54347722D01*
X72821800Y-53542042D01*
X72836727Y-53466999D01*
X72821800Y-53391956D01*
X72821800Y-53391952D01*
X72777588Y-53169683D01*
X72664652Y-53000662D01*
X74117200Y-53000662D01*
X74117200Y-53374538D01*
X74260276Y-53719954D01*
X74295001Y-53754679D01*
X74295000Y-57328957D01*
X74280073Y-57404000D01*
X74295000Y-57479043D01*
X74295000Y-57479047D01*
X74339212Y-57701316D01*
X74447400Y-57863232D01*
X74447400Y-57921138D01*
X74590476Y-58266554D01*
X74854846Y-58530924D01*
X75200262Y-58674000D01*
X75336400Y-58674000D01*
X75336400Y-58835538D01*
X75479476Y-59180954D01*
X75743846Y-59445324D01*
X76089262Y-59588400D01*
X76463138Y-59588400D01*
X76808554Y-59445324D01*
X77072924Y-59180954D01*
X77216000Y-58835538D01*
X77216000Y-58461662D01*
X77165200Y-58339020D01*
X77165200Y-54042062D01*
X82067400Y-54042062D01*
X82067400Y-54415938D01*
X82210476Y-54761354D01*
X82474846Y-55025724D01*
X82820262Y-55168800D01*
X83021770Y-55168800D01*
X84582000Y-56729031D01*
X84582000Y-56778138D01*
X84725076Y-57123554D01*
X84989446Y-57387924D01*
X85334862Y-57531000D01*
X85708738Y-57531000D01*
X86054154Y-57387924D01*
X86318524Y-57123554D01*
X86461600Y-56778138D01*
X86461600Y-56404262D01*
X86318524Y-56058846D01*
X86054154Y-55794476D01*
X85708738Y-55651400D01*
X85659631Y-55651400D01*
X83873961Y-53865731D01*
X83803924Y-53696646D01*
X83539554Y-53432276D01*
X83194138Y-53289200D01*
X82820262Y-53289200D01*
X82474846Y-53432276D01*
X82210476Y-53696646D01*
X82067400Y-54042062D01*
X77165200Y-54042062D01*
X77165200Y-52862180D01*
X77216000Y-52739538D01*
X77216000Y-52365662D01*
X77072924Y-52020246D01*
X76808554Y-51755876D01*
X76463138Y-51612800D01*
X76089262Y-51612800D01*
X75743846Y-51755876D01*
X75479476Y-52020246D01*
X75364530Y-52297751D01*
X75243938Y-52247800D01*
X74870062Y-52247800D01*
X74524646Y-52390876D01*
X74260276Y-52655246D01*
X74117200Y-53000662D01*
X72664652Y-53000662D01*
X72609171Y-52917629D01*
X72593200Y-52906958D01*
X72593200Y-52873662D01*
X72450124Y-52528246D01*
X72185754Y-52263876D01*
X71840338Y-52120800D01*
X71466462Y-52120800D01*
X71121046Y-52263876D01*
X70856676Y-52528246D01*
X70713600Y-52873662D01*
X23215600Y-52873662D01*
X23215600Y-45432074D01*
X27000500Y-45432074D01*
X27000500Y-46007926D01*
X27220869Y-46539943D01*
X27628057Y-46947131D01*
X28160074Y-47167500D01*
X28735926Y-47167500D01*
X29267943Y-46947131D01*
X29675131Y-46539943D01*
X29718000Y-46436448D01*
X29760869Y-46539943D01*
X30168057Y-46947131D01*
X30700074Y-47167500D01*
X31275926Y-47167500D01*
X31807943Y-46947131D01*
X32215131Y-46539943D01*
X32258000Y-46436448D01*
X32300869Y-46539943D01*
X32708057Y-46947131D01*
X33240074Y-47167500D01*
X33815926Y-47167500D01*
X34347943Y-46947131D01*
X34755131Y-46539943D01*
X34975500Y-46007926D01*
X34975500Y-45432074D01*
X37160500Y-45432074D01*
X37160500Y-46007926D01*
X37380869Y-46539943D01*
X37788057Y-46947131D01*
X38320074Y-47167500D01*
X38895926Y-47167500D01*
X39427943Y-46947131D01*
X39835131Y-46539943D01*
X39936564Y-46295062D01*
X77241400Y-46295062D01*
X77241400Y-46668938D01*
X77384476Y-47014354D01*
X77648846Y-47278724D01*
X77994262Y-47421800D01*
X78368138Y-47421800D01*
X78713554Y-47278724D01*
X78977924Y-47014354D01*
X79121000Y-46668938D01*
X79121000Y-46295062D01*
X78977924Y-45949646D01*
X78713554Y-45685276D01*
X78368138Y-45542200D01*
X77994262Y-45542200D01*
X77648846Y-45685276D01*
X77384476Y-45949646D01*
X77241400Y-46295062D01*
X39936564Y-46295062D01*
X40055500Y-46007926D01*
X40055500Y-45432074D01*
X39835131Y-44900057D01*
X39427943Y-44492869D01*
X38895926Y-44272500D01*
X38320074Y-44272500D01*
X37788057Y-44492869D01*
X37380869Y-44900057D01*
X37160500Y-45432074D01*
X34975500Y-45432074D01*
X34755131Y-44900057D01*
X34347943Y-44492869D01*
X33815926Y-44272500D01*
X33240074Y-44272500D01*
X32708057Y-44492869D01*
X32300869Y-44900057D01*
X32258000Y-45003552D01*
X32215131Y-44900057D01*
X31807943Y-44492869D01*
X31275926Y-44272500D01*
X30700074Y-44272500D01*
X30168057Y-44492869D01*
X29760869Y-44900057D01*
X29718000Y-45003552D01*
X29675131Y-44900057D01*
X29267943Y-44492869D01*
X28735926Y-44272500D01*
X28160074Y-44272500D01*
X27628057Y-44492869D01*
X27220869Y-44900057D01*
X27000500Y-45432074D01*
X23215600Y-45432074D01*
X23215600Y-40352074D01*
X27000500Y-40352074D01*
X27000500Y-40927926D01*
X27220869Y-41459943D01*
X27628057Y-41867131D01*
X28160074Y-42087500D01*
X28735926Y-42087500D01*
X29267943Y-41867131D01*
X29675131Y-41459943D01*
X29718000Y-41356448D01*
X29760869Y-41459943D01*
X30168057Y-41867131D01*
X30700074Y-42087500D01*
X31275926Y-42087500D01*
X31807943Y-41867131D01*
X32215131Y-41459943D01*
X32258000Y-41356448D01*
X32300869Y-41459943D01*
X32708057Y-41867131D01*
X33240074Y-42087500D01*
X33815926Y-42087500D01*
X34347943Y-41867131D01*
X34755131Y-41459943D01*
X34975500Y-40927926D01*
X34975500Y-40352074D01*
X34755131Y-39820057D01*
X34347943Y-39412869D01*
X33815926Y-39192500D01*
X33240074Y-39192500D01*
X32708057Y-39412869D01*
X32300869Y-39820057D01*
X32258000Y-39923552D01*
X32215131Y-39820057D01*
X31807943Y-39412869D01*
X31275926Y-39192500D01*
X30700074Y-39192500D01*
X30168057Y-39412869D01*
X29760869Y-39820057D01*
X29718000Y-39923552D01*
X29675131Y-39820057D01*
X29267943Y-39412869D01*
X28735926Y-39192500D01*
X28160074Y-39192500D01*
X27628057Y-39412869D01*
X27220869Y-39820057D01*
X27000500Y-40352074D01*
X23215600Y-40352074D01*
X23215600Y-39845250D01*
X25341851Y-37719000D01*
X36126150Y-37719000D01*
X37338000Y-38930851D01*
X37338001Y-39923550D01*
X37160500Y-40352074D01*
X37160500Y-40927926D01*
X37380869Y-41459943D01*
X37788057Y-41867131D01*
X38320074Y-42087500D01*
X38895926Y-42087500D01*
X39427943Y-41867131D01*
X39835131Y-41459943D01*
X40055500Y-40927926D01*
X40055500Y-40352074D01*
X39878000Y-39923552D01*
X39878000Y-38529876D01*
X39902879Y-38404800D01*
X39878000Y-38279721D01*
X39878000Y-38279720D01*
X39804313Y-37909271D01*
X39804313Y-37909270D01*
X39594470Y-37595219D01*
X39594469Y-37595218D01*
X39523618Y-37489182D01*
X39417582Y-37418331D01*
X38321251Y-36322000D01*
X73012560Y-36322000D01*
X73012560Y-39370000D01*
X73061843Y-39617765D01*
X73202191Y-39827809D01*
X73412235Y-39968157D01*
X73660000Y-40017440D01*
X75184000Y-40017440D01*
X75431765Y-39968157D01*
X75641809Y-39827809D01*
X75782157Y-39617765D01*
X75822162Y-39416642D01*
X75954821Y-39615180D01*
X76416919Y-39923944D01*
X76962000Y-40032368D01*
X77507082Y-39923944D01*
X77969180Y-39615180D01*
X78243580Y-39204511D01*
X78259941Y-39259941D01*
X78603974Y-39685630D01*
X79084723Y-39947260D01*
X79158930Y-39962220D01*
X79375000Y-39839720D01*
X79375000Y-37973000D01*
X79355000Y-37973000D01*
X79355000Y-37719000D01*
X79375000Y-37719000D01*
X79375000Y-35852280D01*
X79629000Y-35852280D01*
X79629000Y-37719000D01*
X79649000Y-37719000D01*
X79649000Y-37973000D01*
X79629000Y-37973000D01*
X79629000Y-39839720D01*
X79845070Y-39962220D01*
X79919277Y-39947260D01*
X80400026Y-39685630D01*
X80744059Y-39259941D01*
X80760420Y-39204510D01*
X81034821Y-39615180D01*
X81496919Y-39923944D01*
X82042000Y-40032368D01*
X82587082Y-39923944D01*
X83049180Y-39615180D01*
X83312001Y-39221841D01*
X83574821Y-39615180D01*
X84036919Y-39923944D01*
X84582000Y-40032368D01*
X85127082Y-39923944D01*
X85589180Y-39615180D01*
X85852001Y-39221841D01*
X86114821Y-39615180D01*
X86576919Y-39923944D01*
X87122000Y-40032368D01*
X87667082Y-39923944D01*
X88129180Y-39615180D01*
X88437944Y-39153082D01*
X88519000Y-38745588D01*
X88519000Y-36946412D01*
X88437944Y-36538918D01*
X88129179Y-36076820D01*
X87667081Y-35768056D01*
X87122000Y-35659632D01*
X86576918Y-35768056D01*
X86114820Y-36076821D01*
X85852000Y-36470159D01*
X85589179Y-36076820D01*
X85127081Y-35768056D01*
X84582000Y-35659632D01*
X84036918Y-35768056D01*
X83574820Y-36076821D01*
X83312000Y-36470159D01*
X83049179Y-36076820D01*
X82587081Y-35768056D01*
X82042000Y-35659632D01*
X81496918Y-35768056D01*
X81034820Y-36076821D01*
X80760420Y-36487490D01*
X80744059Y-36432059D01*
X80400026Y-36006370D01*
X79919277Y-35744740D01*
X79845070Y-35729780D01*
X79629000Y-35852280D01*
X79375000Y-35852280D01*
X79158930Y-35729780D01*
X79084723Y-35744740D01*
X78603974Y-36006370D01*
X78259941Y-36432059D01*
X78243580Y-36487489D01*
X77969179Y-36076820D01*
X77507081Y-35768056D01*
X76962000Y-35659632D01*
X76416918Y-35768056D01*
X75954820Y-36076821D01*
X75822162Y-36275357D01*
X75782157Y-36074235D01*
X75641809Y-35864191D01*
X75431765Y-35723843D01*
X75184000Y-35674560D01*
X73660000Y-35674560D01*
X73412235Y-35723843D01*
X73202191Y-35864191D01*
X73061843Y-36074235D01*
X73012560Y-36322000D01*
X38321251Y-36322000D01*
X37638671Y-35639421D01*
X37567818Y-35533382D01*
X37147729Y-35252687D01*
X36777280Y-35179000D01*
X36777275Y-35179000D01*
X36652200Y-35154121D01*
X36527125Y-35179000D01*
X24940876Y-35179000D01*
X24815800Y-35154121D01*
X24690724Y-35179000D01*
X24690720Y-35179000D01*
X24320271Y-35252687D01*
X23900182Y-35533382D01*
X23829331Y-35639419D01*
X21136019Y-38332731D01*
X21029983Y-38403582D01*
X20959132Y-38509618D01*
X20959130Y-38509620D01*
X20749288Y-38823671D01*
X20650721Y-39319200D01*
X13410000Y-39319200D01*
X13410000Y-37525940D01*
X13431834Y-37547774D01*
X13544585Y-37435023D01*
X13765353Y-37805743D01*
X14737012Y-38199119D01*
X15785247Y-38190713D01*
X16714647Y-37805743D01*
X16935416Y-37435022D01*
X15240000Y-35739605D01*
X15225858Y-35753748D01*
X15046252Y-35574142D01*
X15060395Y-35560000D01*
X15046252Y-35545858D01*
X15225858Y-35366252D01*
X15240000Y-35380395D01*
X15254142Y-35366252D01*
X15433748Y-35545858D01*
X15419605Y-35560000D01*
X17115022Y-37255416D01*
X17485743Y-37034647D01*
X17879119Y-36062988D01*
X17870713Y-35014753D01*
X17485743Y-34085353D01*
X17115023Y-33864585D01*
X17227774Y-33751834D01*
X17205940Y-33730000D01*
X92014060Y-33730000D01*
X91992226Y-33751834D01*
X91992226Y-33751834D01*
G37*
X91992226Y-33751834D02*
X92104977Y-33864585D01*
X91734257Y-34085353D01*
X91340881Y-35057012D01*
X91349287Y-36105247D01*
X91734257Y-37034647D01*
X92104978Y-37255416D01*
X93800395Y-35560000D01*
X93786252Y-35545858D01*
X93965858Y-35366252D01*
X93980000Y-35380395D01*
X93994142Y-35366252D01*
X94173748Y-35545858D01*
X94159605Y-35560000D01*
X94173748Y-35574142D01*
X93994142Y-35753748D01*
X93980000Y-35739605D01*
X92284584Y-37435022D01*
X92505353Y-37805743D01*
X93477012Y-38199119D01*
X94525247Y-38190713D01*
X95454647Y-37805743D01*
X95675415Y-37435023D01*
X95788166Y-37547774D01*
X95810001Y-37525939D01*
X95810000Y-81854060D01*
X95788166Y-81832226D01*
X95675415Y-81944977D01*
X95454647Y-81574257D01*
X94482988Y-81180881D01*
X93434753Y-81189287D01*
X92505353Y-81574257D01*
X92284584Y-81944978D01*
X93980000Y-83640395D01*
X93994142Y-83626252D01*
X94173748Y-83805858D01*
X94159605Y-83820000D01*
X94173748Y-83834142D01*
X93994142Y-84013748D01*
X93980000Y-83999605D01*
X93965858Y-84013748D01*
X93786252Y-83834142D01*
X93800395Y-83820000D01*
X92104978Y-82124584D01*
X91734257Y-82345353D01*
X91340881Y-83317012D01*
X91349287Y-84365247D01*
X91734257Y-85294647D01*
X92104977Y-85515415D01*
X91992226Y-85628166D01*
X92014060Y-85650000D01*
X17205940Y-85650000D01*
X17227774Y-85628166D01*
X17115023Y-85515415D01*
X17485743Y-85294647D01*
X17879119Y-84322988D01*
X17870713Y-83274753D01*
X17485743Y-82345353D01*
X17115022Y-82124584D01*
X15419605Y-83820000D01*
X15433748Y-83834142D01*
X15254142Y-84013748D01*
X15240000Y-83999605D01*
X15225858Y-84013748D01*
X15046252Y-83834142D01*
X15060395Y-83820000D01*
X15046252Y-83805858D01*
X15225858Y-83626252D01*
X15240000Y-83640395D01*
X16935416Y-81944978D01*
X16714647Y-81574257D01*
X15742988Y-81180881D01*
X14694753Y-81189287D01*
X13765353Y-81574257D01*
X13544585Y-81944977D01*
X13431834Y-81832226D01*
X13410000Y-81854060D01*
X13410000Y-77903562D01*
X13562382Y-78131618D01*
X13668421Y-78202471D01*
X14775530Y-79309581D01*
X14846382Y-79415618D01*
X14952418Y-79486469D01*
X14952419Y-79486470D01*
X14997064Y-79516301D01*
X15266471Y-79696313D01*
X15636920Y-79770000D01*
X15636924Y-79770000D01*
X15761999Y-79794879D01*
X15887074Y-79770000D01*
X16237768Y-79770000D01*
X16498241Y-79944042D01*
X16485121Y-80010000D01*
X16510000Y-80135075D01*
X16510000Y-80135080D01*
X16526180Y-80216419D01*
X16583688Y-80505529D01*
X16793530Y-80819580D01*
X16793532Y-80819582D01*
X16864383Y-80925618D01*
X16970419Y-80996469D01*
X17809530Y-81835581D01*
X17880382Y-81941618D01*
X18300471Y-82222313D01*
X18670920Y-82296000D01*
X18670925Y-82296000D01*
X18796000Y-82320879D01*
X18921075Y-82296000D01*
X25186429Y-82296000D01*
X25211843Y-82423765D01*
X25352191Y-82633809D01*
X25562235Y-82774157D01*
X25810000Y-82823440D01*
X28310000Y-82823440D01*
X28557765Y-82774157D01*
X28767809Y-82633809D01*
X28908157Y-82423765D01*
X28957440Y-82176000D01*
X28957440Y-81311750D01*
X29475000Y-81311750D01*
X29475000Y-82302310D01*
X29571673Y-82535699D01*
X29750302Y-82714327D01*
X29983691Y-82811000D01*
X31074250Y-82811000D01*
X31233000Y-82652250D01*
X31233000Y-81153000D01*
X31487000Y-81153000D01*
X31487000Y-82652250D01*
X31645750Y-82811000D01*
X32736309Y-82811000D01*
X32969698Y-82714327D01*
X33148327Y-82535699D01*
X33245000Y-82302310D01*
X33245000Y-81311750D01*
X33086250Y-81153000D01*
X31487000Y-81153000D01*
X31233000Y-81153000D01*
X29633750Y-81153000D01*
X29475000Y-81311750D01*
X28957440Y-81311750D01*
X28957440Y-79876000D01*
X28908157Y-79628235D01*
X28767809Y-79418191D01*
X28557765Y-79277843D01*
X28407733Y-79248000D01*
X28557765Y-79218157D01*
X28767809Y-79077809D01*
X28908157Y-78867765D01*
X28957440Y-78620000D01*
X28957440Y-76320000D01*
X29462560Y-76320000D01*
X29462560Y-78620000D01*
X29511843Y-78867765D01*
X29652191Y-79077809D01*
X29862235Y-79218157D01*
X29981545Y-79241889D01*
X29750302Y-79337673D01*
X29571673Y-79516301D01*
X29475000Y-79749690D01*
X29475000Y-80740250D01*
X29633750Y-80899000D01*
X31233000Y-80899000D01*
X31233000Y-80879000D01*
X31487000Y-80879000D01*
X31487000Y-80899000D01*
X33086250Y-80899000D01*
X33245000Y-80740250D01*
X33245000Y-79749690D01*
X33148327Y-79516301D01*
X32969698Y-79337673D01*
X32738455Y-79241889D01*
X32857765Y-79218157D01*
X33067809Y-79077809D01*
X33208157Y-78867765D01*
X33233571Y-78740000D01*
X34618280Y-78740000D01*
X34988729Y-78666313D01*
X35408818Y-78385618D01*
X35689513Y-77965529D01*
X35788080Y-77470000D01*
X35689513Y-76974471D01*
X35408818Y-76554382D01*
X34988729Y-76273687D01*
X34618280Y-76200000D01*
X33233571Y-76200000D01*
X33208157Y-76072235D01*
X33067809Y-75862191D01*
X32857765Y-75721843D01*
X32610000Y-75672560D01*
X30110000Y-75672560D01*
X29862235Y-75721843D01*
X29652191Y-75862191D01*
X29511843Y-76072235D01*
X29462560Y-76320000D01*
X28957440Y-76320000D01*
X28908157Y-76072235D01*
X28767809Y-75862191D01*
X28557765Y-75721843D01*
X28310000Y-75672560D01*
X27058611Y-75672560D01*
X24076471Y-72690421D01*
X24005618Y-72584382D01*
X23585529Y-72303687D01*
X23215080Y-72230000D01*
X23215075Y-72230000D01*
X23090000Y-72205121D01*
X22964925Y-72230000D01*
X19322232Y-72230000D01*
X18917945Y-71959864D01*
X18441031Y-71865000D01*
X17118969Y-71865000D01*
X16642055Y-71959864D01*
X16101231Y-72321231D01*
X15748000Y-72849879D01*
X15748000Y-70933062D01*
X61874400Y-70933062D01*
X61874400Y-71306938D01*
X62017476Y-71652354D01*
X62281846Y-71916724D01*
X62627262Y-72059800D01*
X63001138Y-72059800D01*
X63123780Y-72009000D01*
X66416220Y-72009000D01*
X66538862Y-72059800D01*
X66912738Y-72059800D01*
X67258154Y-71916724D01*
X67522524Y-71652354D01*
X67665600Y-71306938D01*
X67665600Y-70933062D01*
X67522524Y-70587646D01*
X67258154Y-70323276D01*
X66912738Y-70180200D01*
X66538862Y-70180200D01*
X66416220Y-70231000D01*
X63123780Y-70231000D01*
X63001138Y-70180200D01*
X62627262Y-70180200D01*
X62281846Y-70323276D01*
X62017476Y-70587646D01*
X61874400Y-70933062D01*
X15748000Y-70933062D01*
X15748000Y-69150121D01*
X16101231Y-69678769D01*
X16642055Y-70040136D01*
X17118969Y-70135000D01*
X18441031Y-70135000D01*
X18917945Y-70040136D01*
X19458769Y-69678769D01*
X19820136Y-69137945D01*
X19947031Y-68500000D01*
X19820136Y-67862055D01*
X19458769Y-67321231D01*
X18917945Y-66959864D01*
X18441031Y-66865000D01*
X17118969Y-66865000D01*
X16642055Y-66959864D01*
X16101231Y-67321231D01*
X15748000Y-67849879D01*
X15748000Y-64846775D01*
X15822191Y-64957809D01*
X16032235Y-65098157D01*
X16280000Y-65147440D01*
X19280000Y-65147440D01*
X19527765Y-65098157D01*
X19737809Y-64957809D01*
X19878157Y-64747765D01*
X19927440Y-64500000D01*
X19927440Y-62500000D01*
X19878157Y-62252235D01*
X19737809Y-62042191D01*
X19527765Y-61901843D01*
X19280000Y-61852560D01*
X16280000Y-61852560D01*
X16032235Y-61901843D01*
X15822191Y-62042191D01*
X15748000Y-62153225D01*
X15748000Y-58434000D01*
X16237768Y-58434000D01*
X16642055Y-58704136D01*
X17118969Y-58799000D01*
X18441031Y-58799000D01*
X18917945Y-58704136D01*
X19458769Y-58342769D01*
X19820136Y-57801945D01*
X19947031Y-57164000D01*
X19820136Y-56526055D01*
X19458769Y-55985231D01*
X18917945Y-55623864D01*
X18441031Y-55529000D01*
X17118969Y-55529000D01*
X16642055Y-55623864D01*
X16237768Y-55894000D01*
X15748000Y-55894000D01*
X15748000Y-52814121D01*
X16101231Y-53342769D01*
X16642055Y-53704136D01*
X17118969Y-53799000D01*
X18441031Y-53799000D01*
X18917945Y-53704136D01*
X19458769Y-53342769D01*
X19820136Y-52801945D01*
X19947031Y-52164000D01*
X19820136Y-51526055D01*
X19458769Y-50985231D01*
X18917945Y-50623864D01*
X18441031Y-50529000D01*
X17118969Y-50529000D01*
X16642055Y-50623864D01*
X16101231Y-50985231D01*
X15748000Y-51513879D01*
X15748000Y-50992050D01*
X17941051Y-48799000D01*
X18441031Y-48799000D01*
X18917945Y-48704136D01*
X19458769Y-48342769D01*
X19820136Y-47801945D01*
X19947031Y-47164000D01*
X19820136Y-46526055D01*
X19458769Y-45985231D01*
X18917945Y-45623864D01*
X18441031Y-45529000D01*
X17118969Y-45529000D01*
X16642055Y-45623864D01*
X16101231Y-45985231D01*
X15739864Y-46526055D01*
X15612969Y-47164000D01*
X15674519Y-47473431D01*
X13668419Y-49479531D01*
X13562383Y-49550382D01*
X13491532Y-49656418D01*
X13491530Y-49656420D01*
X13410000Y-49778438D01*
X13410000Y-41164000D01*
X15632560Y-41164000D01*
X15632560Y-43164000D01*
X15681843Y-43411765D01*
X15822191Y-43621809D01*
X16032235Y-43762157D01*
X16280000Y-43811440D01*
X19280000Y-43811440D01*
X19527765Y-43762157D01*
X19737809Y-43621809D01*
X19878157Y-43411765D01*
X19927440Y-43164000D01*
X19927440Y-41164000D01*
X19878157Y-40916235D01*
X19737809Y-40706191D01*
X19527765Y-40565843D01*
X19280000Y-40516560D01*
X16280000Y-40516560D01*
X16032235Y-40565843D01*
X15822191Y-40706191D01*
X15681843Y-40916235D01*
X15632560Y-41164000D01*
X13410000Y-41164000D01*
X13410000Y-39319200D01*
X20650721Y-39319200D01*
X20675601Y-39444280D01*
X20675600Y-63679725D01*
X20650721Y-63804800D01*
X20675600Y-63929875D01*
X20675600Y-63929879D01*
X20749287Y-64300328D01*
X21029982Y-64720418D01*
X21136021Y-64791271D01*
X23168019Y-66823270D01*
X23482070Y-67033112D01*
X23977600Y-67131679D01*
X24473129Y-67033112D01*
X24893218Y-66752418D01*
X25173912Y-66332329D01*
X25272479Y-65836800D01*
X25173912Y-65341270D01*
X24964070Y-65027219D01*
X23215600Y-63278750D01*
X23215600Y-58385462D01*
X57632600Y-58385462D01*
X57632600Y-58759338D01*
X57775676Y-59104754D01*
X58040046Y-59369124D01*
X58162689Y-59419925D01*
X59863071Y-61120307D01*
X59912667Y-61194533D01*
X60206730Y-61391019D01*
X60466044Y-61442600D01*
X60466045Y-61442600D01*
X60553600Y-61460016D01*
X60641155Y-61442600D01*
X63952420Y-61442600D01*
X64075062Y-61493400D01*
X64448938Y-61493400D01*
X64794354Y-61350324D01*
X65058724Y-61085954D01*
X65201800Y-60740538D01*
X65201800Y-60366662D01*
X65058724Y-60021246D01*
X64794354Y-59756876D01*
X64448938Y-59613800D01*
X64075062Y-59613800D01*
X63952420Y-59664600D01*
X60921836Y-59664600D01*
X59419925Y-58162689D01*
X59369124Y-58040046D01*
X59104754Y-57775676D01*
X58759338Y-57632600D01*
X58385462Y-57632600D01*
X58040046Y-57775676D01*
X57775676Y-58040046D01*
X57632600Y-58385462D01*
X23215600Y-58385462D01*
X23215600Y-52873662D01*
X70713600Y-52873662D01*
X70713600Y-53247538D01*
X70856676Y-53592954D01*
X71121046Y-53857324D01*
X71297801Y-53930538D01*
X71297800Y-54347722D01*
X71263076Y-54382446D01*
X71120000Y-54727862D01*
X71120000Y-55101738D01*
X71263076Y-55447154D01*
X71527446Y-55711524D01*
X71872862Y-55854600D01*
X72246738Y-55854600D01*
X72592154Y-55711524D01*
X72856524Y-55447154D01*
X72999600Y-55101738D01*
X72999600Y-54727862D01*
X72856524Y-54382446D01*
X72821800Y-54347722D01*
X72821800Y-53542042D01*
X72836727Y-53466999D01*
X72821800Y-53391956D01*
X72821800Y-53391952D01*
X72777588Y-53169683D01*
X72664652Y-53000662D01*
X74117200Y-53000662D01*
X74117200Y-53374538D01*
X74260276Y-53719954D01*
X74295001Y-53754679D01*
X74295000Y-57328957D01*
X74280073Y-57404000D01*
X74295000Y-57479043D01*
X74295000Y-57479047D01*
X74339212Y-57701316D01*
X74447400Y-57863232D01*
X74447400Y-57921138D01*
X74590476Y-58266554D01*
X74854846Y-58530924D01*
X75200262Y-58674000D01*
X75336400Y-58674000D01*
X75336400Y-58835538D01*
X75479476Y-59180954D01*
X75743846Y-59445324D01*
X76089262Y-59588400D01*
X76463138Y-59588400D01*
X76808554Y-59445324D01*
X77072924Y-59180954D01*
X77216000Y-58835538D01*
X77216000Y-58461662D01*
X77165200Y-58339020D01*
X77165200Y-54042062D01*
X82067400Y-54042062D01*
X82067400Y-54415938D01*
X82210476Y-54761354D01*
X82474846Y-55025724D01*
X82820262Y-55168800D01*
X83021770Y-55168800D01*
X84582000Y-56729031D01*
X84582000Y-56778138D01*
X84725076Y-57123554D01*
X84989446Y-57387924D01*
X85334862Y-57531000D01*
X85708738Y-57531000D01*
X86054154Y-57387924D01*
X86318524Y-57123554D01*
X86461600Y-56778138D01*
X86461600Y-56404262D01*
X86318524Y-56058846D01*
X86054154Y-55794476D01*
X85708738Y-55651400D01*
X85659631Y-55651400D01*
X83873961Y-53865731D01*
X83803924Y-53696646D01*
X83539554Y-53432276D01*
X83194138Y-53289200D01*
X82820262Y-53289200D01*
X82474846Y-53432276D01*
X82210476Y-53696646D01*
X82067400Y-54042062D01*
X77165200Y-54042062D01*
X77165200Y-52862180D01*
X77216000Y-52739538D01*
X77216000Y-52365662D01*
X77072924Y-52020246D01*
X76808554Y-51755876D01*
X76463138Y-51612800D01*
X76089262Y-51612800D01*
X75743846Y-51755876D01*
X75479476Y-52020246D01*
X75364530Y-52297751D01*
X75243938Y-52247800D01*
X74870062Y-52247800D01*
X74524646Y-52390876D01*
X74260276Y-52655246D01*
X74117200Y-53000662D01*
X72664652Y-53000662D01*
X72609171Y-52917629D01*
X72593200Y-52906958D01*
X72593200Y-52873662D01*
X72450124Y-52528246D01*
X72185754Y-52263876D01*
X71840338Y-52120800D01*
X71466462Y-52120800D01*
X71121046Y-52263876D01*
X70856676Y-52528246D01*
X70713600Y-52873662D01*
X23215600Y-52873662D01*
X23215600Y-45432074D01*
X27000500Y-45432074D01*
X27000500Y-46007926D01*
X27220869Y-46539943D01*
X27628057Y-46947131D01*
X28160074Y-47167500D01*
X28735926Y-47167500D01*
X29267943Y-46947131D01*
X29675131Y-46539943D01*
X29718000Y-46436448D01*
X29760869Y-46539943D01*
X30168057Y-46947131D01*
X30700074Y-47167500D01*
X31275926Y-47167500D01*
X31807943Y-46947131D01*
X32215131Y-46539943D01*
X32258000Y-46436448D01*
X32300869Y-46539943D01*
X32708057Y-46947131D01*
X33240074Y-47167500D01*
X33815926Y-47167500D01*
X34347943Y-46947131D01*
X34755131Y-46539943D01*
X34975500Y-46007926D01*
X34975500Y-45432074D01*
X37160500Y-45432074D01*
X37160500Y-46007926D01*
X37380869Y-46539943D01*
X37788057Y-46947131D01*
X38320074Y-47167500D01*
X38895926Y-47167500D01*
X39427943Y-46947131D01*
X39835131Y-46539943D01*
X39936564Y-46295062D01*
X77241400Y-46295062D01*
X77241400Y-46668938D01*
X77384476Y-47014354D01*
X77648846Y-47278724D01*
X77994262Y-47421800D01*
X78368138Y-47421800D01*
X78713554Y-47278724D01*
X78977924Y-47014354D01*
X79121000Y-46668938D01*
X79121000Y-46295062D01*
X78977924Y-45949646D01*
X78713554Y-45685276D01*
X78368138Y-45542200D01*
X77994262Y-45542200D01*
X77648846Y-45685276D01*
X77384476Y-45949646D01*
X77241400Y-46295062D01*
X39936564Y-46295062D01*
X40055500Y-46007926D01*
X40055500Y-45432074D01*
X39835131Y-44900057D01*
X39427943Y-44492869D01*
X38895926Y-44272500D01*
X38320074Y-44272500D01*
X37788057Y-44492869D01*
X37380869Y-44900057D01*
X37160500Y-45432074D01*
X34975500Y-45432074D01*
X34755131Y-44900057D01*
X34347943Y-44492869D01*
X33815926Y-44272500D01*
X33240074Y-44272500D01*
X32708057Y-44492869D01*
X32300869Y-44900057D01*
X32258000Y-45003552D01*
X32215131Y-44900057D01*
X31807943Y-44492869D01*
X31275926Y-44272500D01*
X30700074Y-44272500D01*
X30168057Y-44492869D01*
X29760869Y-44900057D01*
X29718000Y-45003552D01*
X29675131Y-44900057D01*
X29267943Y-44492869D01*
X28735926Y-44272500D01*
X28160074Y-44272500D01*
X27628057Y-44492869D01*
X27220869Y-44900057D01*
X27000500Y-45432074D01*
X23215600Y-45432074D01*
X23215600Y-40352074D01*
X27000500Y-40352074D01*
X27000500Y-40927926D01*
X27220869Y-41459943D01*
X27628057Y-41867131D01*
X28160074Y-42087500D01*
X28735926Y-42087500D01*
X29267943Y-41867131D01*
X29675131Y-41459943D01*
X29718000Y-41356448D01*
X29760869Y-41459943D01*
X30168057Y-41867131D01*
X30700074Y-42087500D01*
X31275926Y-42087500D01*
X31807943Y-41867131D01*
X32215131Y-41459943D01*
X32258000Y-41356448D01*
X32300869Y-41459943D01*
X32708057Y-41867131D01*
X33240074Y-42087500D01*
X33815926Y-42087500D01*
X34347943Y-41867131D01*
X34755131Y-41459943D01*
X34975500Y-40927926D01*
X34975500Y-40352074D01*
X34755131Y-39820057D01*
X34347943Y-39412869D01*
X33815926Y-39192500D01*
X33240074Y-39192500D01*
X32708057Y-39412869D01*
X32300869Y-39820057D01*
X32258000Y-39923552D01*
X32215131Y-39820057D01*
X31807943Y-39412869D01*
X31275926Y-39192500D01*
X30700074Y-39192500D01*
X30168057Y-39412869D01*
X29760869Y-39820057D01*
X29718000Y-39923552D01*
X29675131Y-39820057D01*
X29267943Y-39412869D01*
X28735926Y-39192500D01*
X28160074Y-39192500D01*
X27628057Y-39412869D01*
X27220869Y-39820057D01*
X27000500Y-40352074D01*
X23215600Y-40352074D01*
X23215600Y-39845250D01*
X25341851Y-37719000D01*
X36126150Y-37719000D01*
X37338000Y-38930851D01*
X37338001Y-39923550D01*
X37160500Y-40352074D01*
X37160500Y-40927926D01*
X37380869Y-41459943D01*
X37788057Y-41867131D01*
X38320074Y-42087500D01*
X38895926Y-42087500D01*
X39427943Y-41867131D01*
X39835131Y-41459943D01*
X40055500Y-40927926D01*
X40055500Y-40352074D01*
X39878000Y-39923552D01*
X39878000Y-38529876D01*
X39902879Y-38404800D01*
X39878000Y-38279721D01*
X39878000Y-38279720D01*
X39804313Y-37909271D01*
X39804313Y-37909270D01*
X39594470Y-37595219D01*
X39594469Y-37595218D01*
X39523618Y-37489182D01*
X39417582Y-37418331D01*
X38321251Y-36322000D01*
X73012560Y-36322000D01*
X73012560Y-39370000D01*
X73061843Y-39617765D01*
X73202191Y-39827809D01*
X73412235Y-39968157D01*
X73660000Y-40017440D01*
X75184000Y-40017440D01*
X75431765Y-39968157D01*
X75641809Y-39827809D01*
X75782157Y-39617765D01*
X75822162Y-39416642D01*
X75954821Y-39615180D01*
X76416919Y-39923944D01*
X76962000Y-40032368D01*
X77507082Y-39923944D01*
X77969180Y-39615180D01*
X78243580Y-39204511D01*
X78259941Y-39259941D01*
X78603974Y-39685630D01*
X79084723Y-39947260D01*
X79158930Y-39962220D01*
X79375000Y-39839720D01*
X79375000Y-37973000D01*
X79355000Y-37973000D01*
X79355000Y-37719000D01*
X79375000Y-37719000D01*
X79375000Y-35852280D01*
X79629000Y-35852280D01*
X79629000Y-37719000D01*
X79649000Y-37719000D01*
X79649000Y-37973000D01*
X79629000Y-37973000D01*
X79629000Y-39839720D01*
X79845070Y-39962220D01*
X79919277Y-39947260D01*
X80400026Y-39685630D01*
X80744059Y-39259941D01*
X80760420Y-39204510D01*
X81034821Y-39615180D01*
X81496919Y-39923944D01*
X82042000Y-40032368D01*
X82587082Y-39923944D01*
X83049180Y-39615180D01*
X83312001Y-39221841D01*
X83574821Y-39615180D01*
X84036919Y-39923944D01*
X84582000Y-40032368D01*
X85127082Y-39923944D01*
X85589180Y-39615180D01*
X85852001Y-39221841D01*
X86114821Y-39615180D01*
X86576919Y-39923944D01*
X87122000Y-40032368D01*
X87667082Y-39923944D01*
X88129180Y-39615180D01*
X88437944Y-39153082D01*
X88519000Y-38745588D01*
X88519000Y-36946412D01*
X88437944Y-36538918D01*
X88129179Y-36076820D01*
X87667081Y-35768056D01*
X87122000Y-35659632D01*
X86576918Y-35768056D01*
X86114820Y-36076821D01*
X85852000Y-36470159D01*
X85589179Y-36076820D01*
X85127081Y-35768056D01*
X84582000Y-35659632D01*
X84036918Y-35768056D01*
X83574820Y-36076821D01*
X83312000Y-36470159D01*
X83049179Y-36076820D01*
X82587081Y-35768056D01*
X82042000Y-35659632D01*
X81496918Y-35768056D01*
X81034820Y-36076821D01*
X80760420Y-36487490D01*
X80744059Y-36432059D01*
X80400026Y-36006370D01*
X79919277Y-35744740D01*
X79845070Y-35729780D01*
X79629000Y-35852280D01*
X79375000Y-35852280D01*
X79158930Y-35729780D01*
X79084723Y-35744740D01*
X78603974Y-36006370D01*
X78259941Y-36432059D01*
X78243580Y-36487489D01*
X77969179Y-36076820D01*
X77507081Y-35768056D01*
X76962000Y-35659632D01*
X76416918Y-35768056D01*
X75954820Y-36076821D01*
X75822162Y-36275357D01*
X75782157Y-36074235D01*
X75641809Y-35864191D01*
X75431765Y-35723843D01*
X75184000Y-35674560D01*
X73660000Y-35674560D01*
X73412235Y-35723843D01*
X73202191Y-35864191D01*
X73061843Y-36074235D01*
X73012560Y-36322000D01*
X38321251Y-36322000D01*
X37638671Y-35639421D01*
X37567818Y-35533382D01*
X37147729Y-35252687D01*
X36777280Y-35179000D01*
X36777275Y-35179000D01*
X36652200Y-35154121D01*
X36527125Y-35179000D01*
X24940876Y-35179000D01*
X24815800Y-35154121D01*
X24690724Y-35179000D01*
X24690720Y-35179000D01*
X24320271Y-35252687D01*
X23900182Y-35533382D01*
X23829331Y-35639419D01*
X21136019Y-38332731D01*
X21029983Y-38403582D01*
X20959132Y-38509618D01*
X20959130Y-38509620D01*
X20749288Y-38823671D01*
X20650721Y-39319200D01*
X13410000Y-39319200D01*
X13410000Y-37525940D01*
X13431834Y-37547774D01*
X13544585Y-37435023D01*
X13765353Y-37805743D01*
X14737012Y-38199119D01*
X15785247Y-38190713D01*
X16714647Y-37805743D01*
X16935416Y-37435022D01*
X15240000Y-35739605D01*
X15225858Y-35753748D01*
X15046252Y-35574142D01*
X15060395Y-35560000D01*
X15046252Y-35545858D01*
X15225858Y-35366252D01*
X15240000Y-35380395D01*
X15254142Y-35366252D01*
X15433748Y-35545858D01*
X15419605Y-35560000D01*
X17115022Y-37255416D01*
X17485743Y-37034647D01*
X17879119Y-36062988D01*
X17870713Y-35014753D01*
X17485743Y-34085353D01*
X17115023Y-33864585D01*
X17227774Y-33751834D01*
X17205940Y-33730000D01*
X92014060Y-33730000D01*
X91992226Y-33751834D01*
G04 #@! TD*
M02*
