G04 #@! TF.GenerationSoftware,KiCad,Pcbnew,5.0.0-fee4fd1~66~ubuntu18.04.1*
G04 #@! TF.CreationDate,2019-04-10T22:53:07-06:00*
G04 #@! TF.ProjectId,sprinkler_nodes,737072696E6B6C65725F6E6F6465732E,rev?*
G04 #@! TF.SameCoordinates,Original*
G04 #@! TF.FileFunction,Paste,Top*
G04 #@! TF.FilePolarity,Positive*
%FSLAX46Y46*%
G04 Gerber Fmt 4.6, Leading zero omitted, Abs format (unit mm)*
G04 Created by KiCad (PCBNEW 5.0.0-fee4fd1~66~ubuntu18.04.1) date Wed Apr 10 22:53:07 2019*
%MOMM*%
%LPD*%
G01*
G04 APERTURE LIST*
%ADD10R,1.500000X0.800000*%
%ADD11R,1.000000X1.100000*%
%ADD12R,2.500000X2.000000*%
%ADD13R,2.032000X1.524000*%
%ADD14R,1.000000X0.950000*%
%ADD15R,0.950000X1.000000*%
%ADD16R,1.150000X1.450000*%
%ADD17R,1.450000X1.150000*%
%ADD18R,0.700000X0.600000*%
%ADD19R,0.600000X0.700000*%
%ADD20R,3.048000X1.524000*%
%ADD21O,3.048000X1.524000*%
%ADD22R,1.000000X1.400000*%
%ADD23R,1.400000X1.000000*%
%ADD24R,1.950000X0.600000*%
%ADD25R,0.700000X1.000000*%
%ADD26R,0.950000X2.150000*%
%ADD27R,3.250000X2.150000*%
%ADD28R,1.000000X0.700000*%
%ADD29R,1.500000X3.000000*%
%ADD30R,1.520000X2.540000*%
%ADD31R,1.000000X2.000000*%
%ADD32R,2.800000X2.000000*%
G04 APERTURE END LIST*
D10*
G04 #@! TO.C,OT1*
X74474000Y-59436000D03*
X74474000Y-56896000D03*
X80974000Y-56896000D03*
X80974000Y-59436000D03*
G04 #@! TD*
D11*
G04 #@! TO.C,D3*
X89154000Y-71425000D03*
X89154000Y-68275000D03*
G04 #@! TD*
G04 #@! TO.C,D2*
X104394000Y-59487000D03*
X104394000Y-56337000D03*
G04 #@! TD*
D12*
G04 #@! TO.C,L1*
X89190000Y-64770000D03*
X93690000Y-64770000D03*
G04 #@! TD*
D13*
G04 #@! TO.C,BR1*
X74295000Y-68834000D03*
X74295000Y-71374000D03*
X80010000Y-68834000D03*
X80010000Y-71374000D03*
G04 #@! TD*
D14*
G04 #@! TO.C,C1*
X91503000Y-42672000D03*
X89853000Y-42672000D03*
G04 #@! TD*
G04 #@! TO.C,C2*
X84773000Y-58166000D03*
X86423000Y-58166000D03*
G04 #@! TD*
D15*
G04 #@! TO.C,C6*
X86614000Y-66357000D03*
X86614000Y-64707000D03*
G04 #@! TD*
D16*
G04 #@! TO.C,C7*
X86877000Y-68834000D03*
X84827000Y-68834000D03*
G04 #@! TD*
D17*
G04 #@! TO.C,C8*
X91440000Y-68571000D03*
X91440000Y-70621000D03*
G04 #@! TD*
D16*
G04 #@! TO.C,C9*
X93463000Y-59436000D03*
X95513000Y-59436000D03*
G04 #@! TD*
G04 #@! TO.C,C10*
X99305000Y-61468000D03*
X101355000Y-61468000D03*
G04 #@! TD*
D14*
G04 #@! TO.C,C11*
X75501000Y-35052000D03*
X73851000Y-35052000D03*
G04 #@! TD*
G04 #@! TO.C,C12*
X73851000Y-41148000D03*
X75501000Y-41148000D03*
G04 #@! TD*
G04 #@! TO.C,C13*
X73851000Y-45720000D03*
X75501000Y-45720000D03*
G04 #@! TD*
G04 #@! TO.C,C14*
X73851000Y-50038000D03*
X75501000Y-50038000D03*
G04 #@! TD*
D15*
G04 #@! TO.C,C15*
X79502000Y-47943000D03*
X79502000Y-49593000D03*
G04 #@! TD*
G04 #@! TO.C,C16*
X83820000Y-38671000D03*
X83820000Y-37021000D03*
G04 #@! TD*
D14*
G04 #@! TO.C,C17*
X87693000Y-34798000D03*
X86043000Y-34798000D03*
G04 #@! TD*
D15*
G04 #@! TO.C,C18*
X89916000Y-37021000D03*
X89916000Y-38671000D03*
G04 #@! TD*
D14*
G04 #@! TO.C,D1*
X77661000Y-65532000D03*
X79311000Y-65532000D03*
G04 #@! TD*
D15*
G04 #@! TO.C,D4*
X93726000Y-70167000D03*
X93726000Y-68517000D03*
G04 #@! TD*
D18*
G04 #@! TO.C,D5*
X95211000Y-61468000D03*
X97321000Y-61468000D03*
G04 #@! TD*
D15*
G04 #@! TO.C,D6*
X103886000Y-70167000D03*
X103886000Y-68517000D03*
G04 #@! TD*
D19*
G04 #@! TO.C,D7*
X75692000Y-38901000D03*
X75692000Y-36791000D03*
G04 #@! TD*
G04 #@! TO.C,D8*
X77470000Y-38901000D03*
X77470000Y-36791000D03*
G04 #@! TD*
G04 #@! TO.C,D9*
X77470000Y-47967000D03*
X77470000Y-50077000D03*
G04 #@! TD*
G04 #@! TO.C,D10*
X84074000Y-35345000D03*
X84074000Y-33235000D03*
G04 #@! TD*
G04 #@! TO.C,D11*
X87884000Y-38901000D03*
X87884000Y-36791000D03*
G04 #@! TD*
D20*
G04 #@! TO.C,J3*
X108204000Y-65532000D03*
D21*
X108204000Y-62992000D03*
X108204000Y-60452000D03*
X108204000Y-57912000D03*
X108204000Y-55372000D03*
X108204000Y-52832000D03*
G04 #@! TD*
D22*
G04 #@! TO.C,Q1*
X81026000Y-32766000D03*
X81976000Y-34966000D03*
X80076000Y-34966000D03*
G04 #@! TD*
D23*
G04 #@! TO.C,Q2*
X91780000Y-36896000D03*
X91780000Y-38796000D03*
X93980000Y-37846000D03*
G04 #@! TD*
D14*
G04 #@! TO.C,R1*
X77661000Y-61468000D03*
X79311000Y-61468000D03*
G04 #@! TD*
G04 #@! TO.C,R2*
X79311000Y-63500000D03*
X77661000Y-63500000D03*
G04 #@! TD*
D15*
G04 #@! TO.C,R5*
X104394000Y-61659000D03*
X104394000Y-63309000D03*
G04 #@! TD*
D14*
G04 #@! TO.C,R9*
X84773000Y-60198000D03*
X86423000Y-60198000D03*
G04 #@! TD*
G04 #@! TO.C,R10*
X84773000Y-62230000D03*
X86423000Y-62230000D03*
G04 #@! TD*
D15*
G04 #@! TO.C,R11*
X93726000Y-74485000D03*
X93726000Y-72835000D03*
G04 #@! TD*
G04 #@! TO.C,R12*
X103886000Y-72835000D03*
X103886000Y-74485000D03*
G04 #@! TD*
G04 #@! TO.C,R13*
X79756000Y-38671000D03*
X79756000Y-37021000D03*
G04 #@! TD*
G04 #@! TO.C,R14*
X77724000Y-33211000D03*
X77724000Y-34861000D03*
G04 #@! TD*
D14*
G04 #@! TO.C,R15*
X77661000Y-45720000D03*
X79311000Y-45720000D03*
G04 #@! TD*
D15*
G04 #@! TO.C,R16*
X81788000Y-37021000D03*
X81788000Y-38671000D03*
G04 #@! TD*
G04 #@! TO.C,R17*
X85852000Y-38671000D03*
X85852000Y-37021000D03*
G04 #@! TD*
D14*
G04 #@! TO.C,R18*
X81725000Y-49530000D03*
X83375000Y-49530000D03*
G04 #@! TD*
D15*
G04 #@! TO.C,R19*
X85598000Y-51117000D03*
X85598000Y-49467000D03*
G04 #@! TD*
D14*
G04 #@! TO.C,R20*
X91503000Y-34798000D03*
X89853000Y-34798000D03*
G04 #@! TD*
D15*
G04 #@! TO.C,R21*
X93726000Y-34607000D03*
X93726000Y-32957000D03*
G04 #@! TD*
G04 #@! TO.C,R22*
X95758000Y-32957000D03*
X95758000Y-34607000D03*
G04 #@! TD*
D24*
G04 #@! TO.C,U1*
X97538000Y-44704000D03*
X97538000Y-47244000D03*
X97538000Y-48514000D03*
X97538000Y-45974000D03*
X97538000Y-49784000D03*
X97538000Y-56134000D03*
X97538000Y-52324000D03*
X97538000Y-54864000D03*
X97538000Y-53594000D03*
X97538000Y-51054000D03*
X88138000Y-51054000D03*
X88138000Y-53594000D03*
X88138000Y-54864000D03*
X88138000Y-52324000D03*
X88138000Y-56134000D03*
X88138000Y-49784000D03*
X88138000Y-45974000D03*
X88138000Y-48514000D03*
X88138000Y-47244000D03*
X88138000Y-44704000D03*
G04 #@! TD*
D23*
G04 #@! TO.C,U2*
X85004000Y-55560000D03*
X85004000Y-53660000D03*
X82804000Y-54610000D03*
G04 #@! TD*
D25*
G04 #@! TO.C,U3*
X84516000Y-64332000D03*
X83566000Y-64332000D03*
X82616000Y-64332000D03*
X82616000Y-66732000D03*
X83566000Y-66732000D03*
X84516000Y-66732000D03*
G04 #@! TD*
D26*
G04 #@! TO.C,U4*
X101360000Y-64262000D03*
X99060000Y-64262000D03*
X96760000Y-64262000D03*
D27*
X99060000Y-70062000D03*
G04 #@! TD*
D28*
G04 #@! TO.C,U5*
X83750000Y-47432000D03*
X83750000Y-46482000D03*
X83750000Y-45532000D03*
X81350000Y-45532000D03*
X81350000Y-47432000D03*
G04 #@! TD*
D15*
G04 #@! TO.C,R23*
X82550000Y-68517000D03*
X82550000Y-70167000D03*
G04 #@! TD*
G04 #@! TO.C,D12*
X109982000Y-70167000D03*
X109982000Y-68517000D03*
G04 #@! TD*
G04 #@! TO.C,D13*
X107950000Y-68517000D03*
X107950000Y-70167000D03*
G04 #@! TD*
G04 #@! TO.C,D14*
X105918000Y-70167000D03*
X105918000Y-68517000D03*
G04 #@! TD*
G04 #@! TO.C,R6*
X109982000Y-74485000D03*
X109982000Y-72835000D03*
G04 #@! TD*
G04 #@! TO.C,R7*
X107950000Y-72835000D03*
X107950000Y-74485000D03*
G04 #@! TD*
G04 #@! TO.C,R8*
X105918000Y-74485000D03*
X105918000Y-72835000D03*
G04 #@! TD*
G04 #@! TO.C,C4*
X102362000Y-57975000D03*
X102362000Y-56325000D03*
G04 #@! TD*
D29*
G04 #@! TO.C,C5*
X85344000Y-71914000D03*
X85344000Y-75914000D03*
G04 #@! TD*
D15*
G04 #@! TO.C,C3*
X99568000Y-32575000D03*
X99568000Y-30925000D03*
G04 #@! TD*
D30*
G04 #@! TO.C,U6*
X109474000Y-32004000D03*
X106934000Y-32004000D03*
X104394000Y-32004000D03*
X101854000Y-32004000D03*
X109474000Y-48764000D03*
X106934000Y-48764000D03*
X104394000Y-48764000D03*
X101854000Y-48764000D03*
G04 #@! TD*
D14*
G04 #@! TO.C,C19*
X66611000Y-61976000D03*
X64961000Y-61976000D03*
G04 #@! TD*
G04 #@! TO.C,C20*
X64961000Y-64008000D03*
X66611000Y-64008000D03*
G04 #@! TD*
G04 #@! TO.C,R3*
X64961000Y-55880000D03*
X66611000Y-55880000D03*
G04 #@! TD*
G04 #@! TO.C,R4*
X66611000Y-53848000D03*
X64961000Y-53848000D03*
G04 #@! TD*
G04 #@! TO.C,R24*
X64961000Y-66040000D03*
X66611000Y-66040000D03*
G04 #@! TD*
G04 #@! TO.C,R25*
X64961000Y-68072000D03*
X66611000Y-68072000D03*
G04 #@! TD*
G04 #@! TO.C,R26*
X64961000Y-57912000D03*
X66611000Y-57912000D03*
G04 #@! TD*
D15*
G04 #@! TO.C,R27*
X68834000Y-66993000D03*
X68834000Y-68643000D03*
G04 #@! TD*
D14*
G04 #@! TO.C,R28*
X64961000Y-59944000D03*
X66611000Y-59944000D03*
G04 #@! TD*
D15*
G04 #@! TO.C,R29*
X70866000Y-66993000D03*
X70866000Y-68643000D03*
G04 #@! TD*
D14*
G04 #@! TO.C,R30*
X69533000Y-55626000D03*
X71183000Y-55626000D03*
G04 #@! TD*
G04 #@! TO.C,R31*
X69533000Y-57658000D03*
X71183000Y-57658000D03*
G04 #@! TD*
D15*
G04 #@! TO.C,R32*
X73914000Y-63055000D03*
X73914000Y-61405000D03*
G04 #@! TD*
D31*
G04 #@! TO.C,Q3*
X71512000Y-64230000D03*
X69712000Y-64230000D03*
D32*
X70612000Y-60230000D03*
G04 #@! TD*
M02*
