G04 #@! TF.GenerationSoftware,KiCad,Pcbnew,5.0.0-fee4fd1~66~ubuntu18.04.1*
G04 #@! TF.CreationDate,2019-04-10T22:53:07-06:00*
G04 #@! TF.ProjectId,sprinkler_nodes,737072696E6B6C65725F6E6F6465732E,rev?*
G04 #@! TF.SameCoordinates,Original*
G04 #@! TF.FileFunction,Legend,Top*
G04 #@! TF.FilePolarity,Positive*
%FSLAX46Y46*%
G04 Gerber Fmt 4.6, Leading zero omitted, Abs format (unit mm)*
G04 Created by KiCad (PCBNEW 5.0.0-fee4fd1~66~ubuntu18.04.1) date Wed Apr 10 22:53:07 2019*
%MOMM*%
%LPD*%
G01*
G04 APERTURE LIST*
%ADD10C,0.762000*%
%ADD11C,0.508000*%
%ADD12C,0.300000*%
%ADD13C,0.200000*%
%ADD14C,0.381000*%
%ADD15C,0.203200*%
%ADD16C,0.150000*%
%ADD17C,0.254000*%
%ADD18C,0.088900*%
G04 APERTURE END LIST*
D10*
X22406428Y-32203571D02*
X22406428Y-28393571D01*
X24583571Y-32203571D01*
X24583571Y-28393571D01*
X26942142Y-32203571D02*
X26579285Y-32022142D01*
X26397857Y-31840714D01*
X26216428Y-31477857D01*
X26216428Y-30389285D01*
X26397857Y-30026428D01*
X26579285Y-29845000D01*
X26942142Y-29663571D01*
X27486428Y-29663571D01*
X27849285Y-29845000D01*
X28030714Y-30026428D01*
X28212142Y-30389285D01*
X28212142Y-31477857D01*
X28030714Y-31840714D01*
X27849285Y-32022142D01*
X27486428Y-32203571D01*
X26942142Y-32203571D01*
X31477857Y-32203571D02*
X31477857Y-28393571D01*
X31477857Y-32022142D02*
X31115000Y-32203571D01*
X30389285Y-32203571D01*
X30026428Y-32022142D01*
X29845000Y-31840714D01*
X29663571Y-31477857D01*
X29663571Y-30389285D01*
X29845000Y-30026428D01*
X30026428Y-29845000D01*
X30389285Y-29663571D01*
X31115000Y-29663571D01*
X31477857Y-29845000D01*
X34743571Y-32022142D02*
X34380714Y-32203571D01*
X33655000Y-32203571D01*
X33292142Y-32022142D01*
X33110714Y-31659285D01*
X33110714Y-30207857D01*
X33292142Y-29845000D01*
X33655000Y-29663571D01*
X34380714Y-29663571D01*
X34743571Y-29845000D01*
X34925000Y-30207857D01*
X34925000Y-30570714D01*
X33110714Y-30933571D01*
X38916428Y-28393571D02*
X40186428Y-32203571D01*
X41456428Y-28393571D01*
X44722142Y-32203571D02*
X42545000Y-32203571D01*
X43633571Y-32203571D02*
X43633571Y-28393571D01*
X43270714Y-28937857D01*
X42907857Y-29300714D01*
X42545000Y-29482142D01*
X46355000Y-31840714D02*
X46536428Y-32022142D01*
X46355000Y-32203571D01*
X46173571Y-32022142D01*
X46355000Y-31840714D01*
X46355000Y-32203571D01*
X50165000Y-32203571D02*
X47987857Y-32203571D01*
X49076428Y-32203571D02*
X49076428Y-28393571D01*
X48713571Y-28937857D01*
X48350714Y-29300714D01*
X47987857Y-29482142D01*
D11*
X57059285Y-35947047D02*
X56212619Y-34737523D01*
X55607857Y-35947047D02*
X55607857Y-33407047D01*
X56575476Y-33407047D01*
X56817380Y-33528000D01*
X56938333Y-33648952D01*
X57059285Y-33890857D01*
X57059285Y-34253714D01*
X56938333Y-34495619D01*
X56817380Y-34616571D01*
X56575476Y-34737523D01*
X55607857Y-34737523D01*
X57905952Y-33407047D02*
X59599285Y-35947047D01*
X59599285Y-33407047D02*
X57905952Y-35947047D01*
X60566904Y-34979428D02*
X62502142Y-34979428D01*
X61534523Y-35947047D02*
X61534523Y-34011809D01*
X57059285Y-41027047D02*
X56212619Y-39817523D01*
X55607857Y-41027047D02*
X55607857Y-38487047D01*
X56575476Y-38487047D01*
X56817380Y-38608000D01*
X56938333Y-38728952D01*
X57059285Y-38970857D01*
X57059285Y-39333714D01*
X56938333Y-39575619D01*
X56817380Y-39696571D01*
X56575476Y-39817523D01*
X55607857Y-39817523D01*
X57905952Y-38487047D02*
X59599285Y-41027047D01*
X59599285Y-38487047D02*
X57905952Y-41027047D01*
X60566904Y-40059428D02*
X62502142Y-40059428D01*
X55420380Y-43567047D02*
X56871809Y-43567047D01*
X56146095Y-46107047D02*
X56146095Y-43567047D01*
X57476571Y-43567047D02*
X59169904Y-46107047D01*
X59169904Y-43567047D02*
X57476571Y-46107047D01*
X60137523Y-45139428D02*
X62072761Y-45139428D01*
X61105142Y-46107047D02*
X61105142Y-44171809D01*
X55547380Y-48774047D02*
X56998809Y-48774047D01*
X56273095Y-51314047D02*
X56273095Y-48774047D01*
X57603571Y-48774047D02*
X59296904Y-51314047D01*
X59296904Y-48774047D02*
X57603571Y-51314047D01*
X60264523Y-50346428D02*
X62199761Y-50346428D01*
X45526476Y-56781095D02*
X45889333Y-56902047D01*
X46494095Y-56902047D01*
X46736000Y-56781095D01*
X46856952Y-56660142D01*
X46977904Y-56418238D01*
X46977904Y-56176333D01*
X46856952Y-55934428D01*
X46736000Y-55813476D01*
X46494095Y-55692523D01*
X46010285Y-55571571D01*
X45768380Y-55450619D01*
X45647428Y-55329666D01*
X45526476Y-55087761D01*
X45526476Y-54845857D01*
X45647428Y-54603952D01*
X45768380Y-54483000D01*
X46010285Y-54362047D01*
X46615047Y-54362047D01*
X46977904Y-54483000D01*
X47824571Y-54362047D02*
X48429333Y-56902047D01*
X48913142Y-55087761D01*
X49396952Y-56902047D01*
X50001714Y-54362047D01*
X50969333Y-55934428D02*
X52904571Y-55934428D01*
X51936952Y-56902047D02*
X51936952Y-54966809D01*
X45526476Y-61861095D02*
X45889333Y-61982047D01*
X46494095Y-61982047D01*
X46736000Y-61861095D01*
X46856952Y-61740142D01*
X46977904Y-61498238D01*
X46977904Y-61256333D01*
X46856952Y-61014428D01*
X46736000Y-60893476D01*
X46494095Y-60772523D01*
X46010285Y-60651571D01*
X45768380Y-60530619D01*
X45647428Y-60409666D01*
X45526476Y-60167761D01*
X45526476Y-59925857D01*
X45647428Y-59683952D01*
X45768380Y-59563000D01*
X46010285Y-59442047D01*
X46615047Y-59442047D01*
X46977904Y-59563000D01*
X47824571Y-59442047D02*
X48429333Y-61982047D01*
X48913142Y-60167761D01*
X49396952Y-61982047D01*
X50001714Y-59442047D01*
X50969333Y-61014428D02*
X52904571Y-61014428D01*
X45484142Y-64395047D02*
X46330809Y-66935047D01*
X47177476Y-64395047D01*
X48024142Y-66935047D02*
X48024142Y-65241714D01*
X48024142Y-64395047D02*
X47903190Y-64516000D01*
X48024142Y-64636952D01*
X48145095Y-64516000D01*
X48024142Y-64395047D01*
X48024142Y-64636952D01*
X49233666Y-65241714D02*
X49233666Y-66935047D01*
X49233666Y-65483619D02*
X49354619Y-65362666D01*
X49596523Y-65241714D01*
X49959380Y-65241714D01*
X50201285Y-65362666D01*
X50322238Y-65604571D01*
X50322238Y-66935047D01*
X51531761Y-65967428D02*
X53467000Y-65967428D01*
X45738142Y-69221047D02*
X46584809Y-71761047D01*
X47431476Y-69221047D01*
X48278142Y-71761047D02*
X48278142Y-70067714D01*
X48278142Y-69221047D02*
X48157190Y-69342000D01*
X48278142Y-69462952D01*
X48399095Y-69342000D01*
X48278142Y-69221047D01*
X48278142Y-69462952D01*
X49487666Y-70067714D02*
X49487666Y-71761047D01*
X49487666Y-70309619D02*
X49608619Y-70188666D01*
X49850523Y-70067714D01*
X50213380Y-70067714D01*
X50455285Y-70188666D01*
X50576238Y-70430571D01*
X50576238Y-71761047D01*
X51785761Y-70793428D02*
X53721000Y-70793428D01*
X52753380Y-71761047D02*
X52753380Y-69825809D01*
D12*
X105101971Y-66464571D02*
X104244828Y-66464571D01*
X104673400Y-66464571D02*
X104673400Y-64964571D01*
X104530542Y-65178857D01*
X104387685Y-65321714D01*
X104244828Y-65393142D01*
X100778571Y-75231428D02*
X100778571Y-74302857D01*
X101350000Y-74802857D01*
X101350000Y-74588571D01*
X101421428Y-74445714D01*
X101492857Y-74374285D01*
X101635714Y-74302857D01*
X101992857Y-74302857D01*
X102135714Y-74374285D01*
X102207142Y-74445714D01*
X102278571Y-74588571D01*
X102278571Y-75017142D01*
X102207142Y-75160000D01*
X102135714Y-75231428D01*
X102135714Y-73660000D02*
X102207142Y-73588571D01*
X102278571Y-73660000D01*
X102207142Y-73731428D01*
X102135714Y-73660000D01*
X102278571Y-73660000D01*
X100778571Y-73088571D02*
X100778571Y-72160000D01*
X101350000Y-72660000D01*
X101350000Y-72445714D01*
X101421428Y-72302857D01*
X101492857Y-72231428D01*
X101635714Y-72160000D01*
X101992857Y-72160000D01*
X102135714Y-72231428D01*
X102207142Y-72302857D01*
X102278571Y-72445714D01*
X102278571Y-72874285D01*
X102207142Y-73017142D01*
X102135714Y-73088571D01*
X96119142Y-75334571D02*
X96119142Y-74191714D01*
X96690571Y-74763142D02*
X95547714Y-74763142D01*
X95190571Y-72763142D02*
X95190571Y-73477428D01*
X95904857Y-73548857D01*
X95833428Y-73477428D01*
X95762000Y-73334571D01*
X95762000Y-72977428D01*
X95833428Y-72834571D01*
X95904857Y-72763142D01*
X96047714Y-72691714D01*
X96404857Y-72691714D01*
X96547714Y-72763142D01*
X96619142Y-72834571D01*
X96690571Y-72977428D01*
X96690571Y-73334571D01*
X96619142Y-73477428D01*
X96547714Y-73548857D01*
X95190571Y-72263142D02*
X96690571Y-71763142D01*
X95190571Y-71263142D01*
D13*
X88138000Y-61976000D02*
X87630000Y-63500000D01*
X81788000Y-72136000D02*
X81788000Y-71374000D01*
D14*
G04 #@! TO.C,OT1*
X81327553Y-60916000D02*
G75*
G03X81327553Y-60916000I-353553J0D01*
G01*
D15*
X79974000Y-59666000D02*
X79474000Y-60166000D01*
X79974000Y-58166000D02*
X79974000Y-60166000D01*
X79974000Y-60166000D02*
X75474000Y-60166000D01*
X75474000Y-60166000D02*
X75474000Y-56166000D01*
X75474000Y-56166000D02*
X79974000Y-56166000D01*
X79974000Y-56166000D02*
X79974000Y-58166000D01*
G04 #@! TO.C,D3*
X88254000Y-69215000D02*
X90054000Y-69215000D01*
X90054000Y-71250000D02*
X90054000Y-68450000D01*
X88254000Y-71250000D02*
X88254000Y-68450000D01*
G04 #@! TO.C,D2*
X103494000Y-57277000D02*
X105294000Y-57277000D01*
X105294000Y-59312000D02*
X105294000Y-56512000D01*
X103494000Y-59312000D02*
X103494000Y-56512000D01*
G04 #@! TO.C,L1*
X88740000Y-67270000D02*
X88740000Y-66270000D01*
X94140000Y-67270000D02*
X94140000Y-66270000D01*
X94140000Y-63270000D02*
X94140000Y-62270000D01*
X88740000Y-63270000D02*
X88740000Y-62270000D01*
X94140000Y-62270000D02*
X88740000Y-62270000D01*
X94140000Y-67270000D02*
X88740000Y-67270000D01*
G04 #@! TO.C,BR1*
X79375000Y-72644000D02*
X74930000Y-72644000D01*
X79375000Y-67564000D02*
X74930000Y-67564000D01*
D16*
X80645000Y-66929000D02*
X79375000Y-66929000D01*
X80645000Y-73279000D02*
X79375000Y-73279000D01*
X80010000Y-72644000D02*
X80010000Y-73914000D01*
D15*
G04 #@! TO.C,C1*
X92456000Y-41783000D02*
X92456000Y-43561000D01*
X88900000Y-41783000D02*
X92456000Y-41783000D01*
X88900000Y-43561000D02*
X88900000Y-41783000D01*
X92456000Y-43561000D02*
X88900000Y-43561000D01*
G04 #@! TO.C,C2*
X83820000Y-59055000D02*
X83820000Y-57277000D01*
X87376000Y-59055000D02*
X83820000Y-59055000D01*
X87376000Y-57277000D02*
X87376000Y-59055000D01*
X83820000Y-57277000D02*
X87376000Y-57277000D01*
G04 #@! TO.C,C6*
X87503000Y-63754000D02*
X87503000Y-67310000D01*
X87503000Y-67310000D02*
X85725000Y-67310000D01*
X85725000Y-67310000D02*
X85725000Y-63754000D01*
X85725000Y-63754000D02*
X87503000Y-63754000D01*
G04 #@! TO.C,C7*
X83820000Y-67691000D02*
X87884000Y-67691000D01*
X87884000Y-67691000D02*
X87884000Y-69977000D01*
X87884000Y-69977000D02*
X83820000Y-69977000D01*
X83820000Y-69977000D02*
X83820000Y-67691000D01*
G04 #@! TO.C,C8*
X90297000Y-67564000D02*
X92583000Y-67564000D01*
X90297000Y-71628000D02*
X90297000Y-67564000D01*
X92583000Y-71628000D02*
X90297000Y-71628000D01*
X92583000Y-67564000D02*
X92583000Y-71628000D01*
G04 #@! TO.C,C9*
X96520000Y-60579000D02*
X92456000Y-60579000D01*
X92456000Y-60579000D02*
X92456000Y-58293000D01*
X92456000Y-58293000D02*
X96520000Y-58293000D01*
X96520000Y-58293000D02*
X96520000Y-60579000D01*
G04 #@! TO.C,C10*
X98298000Y-62611000D02*
X98298000Y-60325000D01*
X102362000Y-62611000D02*
X98298000Y-62611000D01*
X102362000Y-60325000D02*
X102362000Y-62611000D01*
X98298000Y-60325000D02*
X102362000Y-60325000D01*
G04 #@! TO.C,C11*
X72898000Y-34163000D02*
X76454000Y-34163000D01*
X76454000Y-34163000D02*
X76454000Y-35941000D01*
X76454000Y-35941000D02*
X72898000Y-35941000D01*
X72898000Y-35941000D02*
X72898000Y-34163000D01*
G04 #@! TO.C,C12*
X72898000Y-42037000D02*
X72898000Y-40259000D01*
X76454000Y-42037000D02*
X72898000Y-42037000D01*
X76454000Y-40259000D02*
X76454000Y-42037000D01*
X72898000Y-40259000D02*
X76454000Y-40259000D01*
G04 #@! TO.C,C13*
X76454000Y-46609000D02*
X72898000Y-46609000D01*
X72898000Y-46609000D02*
X72898000Y-44831000D01*
X72898000Y-44831000D02*
X76454000Y-44831000D01*
X76454000Y-44831000D02*
X76454000Y-46609000D01*
G04 #@! TO.C,C14*
X76454000Y-50927000D02*
X72898000Y-50927000D01*
X72898000Y-50927000D02*
X72898000Y-49149000D01*
X72898000Y-49149000D02*
X76454000Y-49149000D01*
X76454000Y-49149000D02*
X76454000Y-50927000D01*
G04 #@! TO.C,C15*
X78613000Y-46990000D02*
X80391000Y-46990000D01*
X78613000Y-50546000D02*
X78613000Y-46990000D01*
X80391000Y-50546000D02*
X78613000Y-50546000D01*
X80391000Y-46990000D02*
X80391000Y-50546000D01*
G04 #@! TO.C,C16*
X84709000Y-36068000D02*
X84709000Y-39624000D01*
X84709000Y-39624000D02*
X82931000Y-39624000D01*
X82931000Y-39624000D02*
X82931000Y-36068000D01*
X82931000Y-36068000D02*
X84709000Y-36068000D01*
G04 #@! TO.C,C17*
X85090000Y-33909000D02*
X88646000Y-33909000D01*
X88646000Y-33909000D02*
X88646000Y-35687000D01*
X88646000Y-35687000D02*
X85090000Y-35687000D01*
X85090000Y-35687000D02*
X85090000Y-33909000D01*
G04 #@! TO.C,C18*
X89027000Y-36068000D02*
X90805000Y-36068000D01*
X89027000Y-39624000D02*
X89027000Y-36068000D01*
X90805000Y-39624000D02*
X89027000Y-39624000D01*
X90805000Y-36068000D02*
X90805000Y-39624000D01*
G04 #@! TO.C,D1*
X76708000Y-66421000D02*
X76708000Y-64643000D01*
X80264000Y-66421000D02*
X76708000Y-66421000D01*
X80264000Y-64643000D02*
X80264000Y-66421000D01*
X76708000Y-64643000D02*
X80264000Y-64643000D01*
X80645000Y-66421000D02*
X80264000Y-66421000D01*
X80645000Y-64643000D02*
X80645000Y-66421000D01*
X80264000Y-64643000D02*
X80645000Y-64643000D01*
G04 #@! TO.C,D4*
X94615000Y-71120000D02*
X94615000Y-71501000D01*
X94615000Y-71501000D02*
X92837000Y-71501000D01*
X92837000Y-71501000D02*
X92837000Y-71120000D01*
X94615000Y-67564000D02*
X94615000Y-71120000D01*
X94615000Y-71120000D02*
X92837000Y-71120000D01*
X92837000Y-71120000D02*
X92837000Y-67564000D01*
X92837000Y-67564000D02*
X94615000Y-67564000D01*
G04 #@! TO.C,D5*
X95766000Y-62168000D02*
X95766000Y-60768000D01*
X97266000Y-60768000D02*
X95266000Y-60768000D01*
X97266000Y-62168000D02*
X95266000Y-62168000D01*
G04 #@! TO.C,D6*
X104775000Y-71120000D02*
X104775000Y-71501000D01*
X104775000Y-71501000D02*
X102997000Y-71501000D01*
X102997000Y-71501000D02*
X102997000Y-71120000D01*
X104775000Y-67564000D02*
X104775000Y-71120000D01*
X104775000Y-71120000D02*
X102997000Y-71120000D01*
X102997000Y-71120000D02*
X102997000Y-67564000D01*
X102997000Y-67564000D02*
X104775000Y-67564000D01*
G04 #@! TO.C,D7*
X74992000Y-38846000D02*
X74992000Y-36846000D01*
X76392000Y-38846000D02*
X76392000Y-36846000D01*
X74992000Y-37346000D02*
X76392000Y-37346000D01*
G04 #@! TO.C,D8*
X76770000Y-38846000D02*
X76770000Y-36846000D01*
X78170000Y-38846000D02*
X78170000Y-36846000D01*
X76770000Y-37346000D02*
X78170000Y-37346000D01*
G04 #@! TO.C,D9*
X76770000Y-48522000D02*
X78170000Y-48522000D01*
X78170000Y-50022000D02*
X78170000Y-48022000D01*
X76770000Y-50022000D02*
X76770000Y-48022000D01*
G04 #@! TO.C,D10*
X84774000Y-34790000D02*
X83374000Y-34790000D01*
X83374000Y-33290000D02*
X83374000Y-35290000D01*
X84774000Y-33290000D02*
X84774000Y-35290000D01*
G04 #@! TO.C,D11*
X87184000Y-38846000D02*
X87184000Y-36846000D01*
X88584000Y-38846000D02*
X88584000Y-36846000D01*
X87184000Y-37346000D02*
X88584000Y-37346000D01*
D16*
G04 #@! TO.C,J1*
X63428000Y-73380000D02*
X63428000Y-53380000D01*
X54428000Y-73380000D02*
X63428000Y-73380000D01*
X54428000Y-53380000D02*
X54428000Y-73380000D01*
X63428000Y-53380000D02*
X54428000Y-53380000D01*
X53428000Y-54380000D02*
X54428000Y-55380000D01*
X54428000Y-53380000D02*
X53428000Y-54380000D01*
G04 #@! TO.C,J2*
X63318000Y-32552000D02*
X62318000Y-33552000D01*
X62318000Y-33552000D02*
X63318000Y-34552000D01*
X72318000Y-32552000D02*
X63318000Y-32552000D01*
X63318000Y-32552000D02*
X63318000Y-52552000D01*
X63318000Y-52552000D02*
X72318000Y-52552000D01*
X72318000Y-52552000D02*
X72318000Y-32552000D01*
D15*
G04 #@! TO.C,J3*
X108204000Y-66802000D02*
X105664000Y-66802000D01*
X105664000Y-66802000D02*
X105664000Y-51562000D01*
X105664000Y-51562000D02*
X110744000Y-51562000D01*
X110744000Y-51562000D02*
X110744000Y-66802000D01*
X110744000Y-66802000D02*
X108204000Y-66802000D01*
G04 #@! TO.C,Q1*
X83026000Y-33266000D02*
X83026000Y-34516000D01*
X82026000Y-33266000D02*
X83026000Y-33266000D01*
X79026000Y-33266000D02*
X79026000Y-34516000D01*
X80026000Y-33266000D02*
X79026000Y-33266000D01*
G04 #@! TO.C,Q2*
X93480000Y-36846000D02*
X93480000Y-35846000D01*
X93480000Y-35846000D02*
X92230000Y-35846000D01*
X93480000Y-38846000D02*
X93480000Y-39846000D01*
X93480000Y-39846000D02*
X92230000Y-39846000D01*
G04 #@! TO.C,R1*
X76708000Y-62357000D02*
X76708000Y-60579000D01*
X80264000Y-62357000D02*
X76708000Y-62357000D01*
X80264000Y-60579000D02*
X80264000Y-62357000D01*
X76708000Y-60579000D02*
X80264000Y-60579000D01*
G04 #@! TO.C,R2*
X76708000Y-62611000D02*
X80264000Y-62611000D01*
X80264000Y-62611000D02*
X80264000Y-64389000D01*
X80264000Y-64389000D02*
X76708000Y-64389000D01*
X76708000Y-64389000D02*
X76708000Y-62611000D01*
G04 #@! TO.C,R5*
X103505000Y-60706000D02*
X105283000Y-60706000D01*
X103505000Y-64262000D02*
X103505000Y-60706000D01*
X105283000Y-64262000D02*
X103505000Y-64262000D01*
X105283000Y-60706000D02*
X105283000Y-64262000D01*
G04 #@! TO.C,R9*
X87376000Y-61087000D02*
X83820000Y-61087000D01*
X83820000Y-61087000D02*
X83820000Y-59309000D01*
X83820000Y-59309000D02*
X87376000Y-59309000D01*
X87376000Y-59309000D02*
X87376000Y-61087000D01*
G04 #@! TO.C,R10*
X83820000Y-63119000D02*
X83820000Y-61341000D01*
X87376000Y-63119000D02*
X83820000Y-63119000D01*
X87376000Y-61341000D02*
X87376000Y-63119000D01*
X83820000Y-61341000D02*
X87376000Y-61341000D01*
G04 #@! TO.C,R11*
X94615000Y-75438000D02*
X92837000Y-75438000D01*
X94615000Y-71882000D02*
X94615000Y-75438000D01*
X92837000Y-71882000D02*
X94615000Y-71882000D01*
X92837000Y-75438000D02*
X92837000Y-71882000D01*
G04 #@! TO.C,R12*
X102997000Y-75438000D02*
X102997000Y-71882000D01*
X102997000Y-71882000D02*
X104775000Y-71882000D01*
X104775000Y-71882000D02*
X104775000Y-75438000D01*
X104775000Y-75438000D02*
X102997000Y-75438000D01*
G04 #@! TO.C,R13*
X80645000Y-36068000D02*
X80645000Y-39624000D01*
X80645000Y-39624000D02*
X78867000Y-39624000D01*
X78867000Y-39624000D02*
X78867000Y-36068000D01*
X78867000Y-36068000D02*
X80645000Y-36068000D01*
G04 #@! TO.C,R14*
X76835000Y-32258000D02*
X78613000Y-32258000D01*
X76835000Y-35814000D02*
X76835000Y-32258000D01*
X78613000Y-35814000D02*
X76835000Y-35814000D01*
X78613000Y-32258000D02*
X78613000Y-35814000D01*
G04 #@! TO.C,R15*
X76708000Y-46609000D02*
X76708000Y-44831000D01*
X80264000Y-46609000D02*
X76708000Y-46609000D01*
X80264000Y-44831000D02*
X80264000Y-46609000D01*
X76708000Y-44831000D02*
X80264000Y-44831000D01*
G04 #@! TO.C,R16*
X80899000Y-36068000D02*
X82677000Y-36068000D01*
X80899000Y-39624000D02*
X80899000Y-36068000D01*
X82677000Y-39624000D02*
X80899000Y-39624000D01*
X82677000Y-36068000D02*
X82677000Y-39624000D01*
G04 #@! TO.C,R17*
X86741000Y-36068000D02*
X86741000Y-39624000D01*
X86741000Y-39624000D02*
X84963000Y-39624000D01*
X84963000Y-39624000D02*
X84963000Y-36068000D01*
X84963000Y-36068000D02*
X86741000Y-36068000D01*
G04 #@! TO.C,R18*
X80772000Y-50419000D02*
X80772000Y-48641000D01*
X84328000Y-50419000D02*
X80772000Y-50419000D01*
X84328000Y-48641000D02*
X84328000Y-50419000D01*
X80772000Y-48641000D02*
X84328000Y-48641000D01*
G04 #@! TO.C,R19*
X86487000Y-48514000D02*
X86487000Y-52070000D01*
X86487000Y-52070000D02*
X84709000Y-52070000D01*
X84709000Y-52070000D02*
X84709000Y-48514000D01*
X84709000Y-48514000D02*
X86487000Y-48514000D01*
G04 #@! TO.C,R20*
X92456000Y-33909000D02*
X92456000Y-35687000D01*
X88900000Y-33909000D02*
X92456000Y-33909000D01*
X88900000Y-35687000D02*
X88900000Y-33909000D01*
X92456000Y-35687000D02*
X88900000Y-35687000D01*
G04 #@! TO.C,R21*
X94615000Y-32004000D02*
X94615000Y-35560000D01*
X94615000Y-35560000D02*
X92837000Y-35560000D01*
X92837000Y-35560000D02*
X92837000Y-32004000D01*
X92837000Y-32004000D02*
X94615000Y-32004000D01*
G04 #@! TO.C,R22*
X94869000Y-32004000D02*
X96647000Y-32004000D01*
X94869000Y-35560000D02*
X94869000Y-32004000D01*
X96647000Y-35560000D02*
X94869000Y-35560000D01*
X96647000Y-32004000D02*
X96647000Y-35560000D01*
G04 #@! TO.C,U1*
X88361607Y-43604000D02*
G75*
G03X88361607Y-43604000I-223607J0D01*
G01*
X93538000Y-44004000D02*
X96138000Y-44004000D01*
X92138000Y-44004000D02*
X89538000Y-44004000D01*
X92138000Y-44004000D02*
G75*
G03X93538000Y-44004000I700000J0D01*
G01*
X96138000Y-44004000D02*
X96138000Y-56804000D01*
X96138000Y-56804000D02*
X89538000Y-56804000D01*
X89538000Y-56804000D02*
X89538000Y-44004000D01*
G04 #@! TO.C,U2*
X83304000Y-55610000D02*
X83304000Y-56610000D01*
X83304000Y-56610000D02*
X84554000Y-56610000D01*
X83304000Y-53610000D02*
X83304000Y-52610000D01*
X83304000Y-52610000D02*
X84554000Y-52610000D01*
D12*
G04 #@! TO.C,U3*
X85466000Y-64132000D02*
G75*
G03X85466000Y-64132000I-100000J0D01*
G01*
D16*
X81966000Y-64732000D02*
X81966000Y-66332000D01*
X85166000Y-64732000D02*
X85166000Y-66332000D01*
D15*
G04 #@! TO.C,U4*
X99060000Y-68562000D02*
X95760000Y-68562000D01*
X95760000Y-68562000D02*
X95760000Y-65762000D01*
X95760000Y-65762000D02*
X102360000Y-65762000D01*
X102360000Y-65762000D02*
X102360000Y-68562000D01*
X102360000Y-68562000D02*
X99060000Y-68562000D01*
D12*
G04 #@! TO.C,U5*
X84050000Y-48282000D02*
G75*
G03X84050000Y-48282000I-100000J0D01*
G01*
D16*
X83350000Y-44882000D02*
X81750000Y-44882000D01*
X83350000Y-48082000D02*
X81750000Y-48082000D01*
D15*
G04 #@! TO.C,R23*
X81661000Y-71120000D02*
X81661000Y-67564000D01*
X81661000Y-67564000D02*
X83439000Y-67564000D01*
X83439000Y-67564000D02*
X83439000Y-71120000D01*
X83439000Y-71120000D02*
X81661000Y-71120000D01*
G04 #@! TO.C,D12*
X110871000Y-71120000D02*
X110871000Y-71501000D01*
X110871000Y-71501000D02*
X109093000Y-71501000D01*
X109093000Y-71501000D02*
X109093000Y-71120000D01*
X110871000Y-67564000D02*
X110871000Y-71120000D01*
X110871000Y-71120000D02*
X109093000Y-71120000D01*
X109093000Y-71120000D02*
X109093000Y-67564000D01*
X109093000Y-67564000D02*
X110871000Y-67564000D01*
G04 #@! TO.C,D13*
X107061000Y-67564000D02*
X108839000Y-67564000D01*
X107061000Y-71120000D02*
X107061000Y-67564000D01*
X108839000Y-71120000D02*
X107061000Y-71120000D01*
X108839000Y-67564000D02*
X108839000Y-71120000D01*
X107061000Y-71501000D02*
X107061000Y-71120000D01*
X108839000Y-71501000D02*
X107061000Y-71501000D01*
X108839000Y-71120000D02*
X108839000Y-71501000D01*
G04 #@! TO.C,D14*
X106807000Y-71120000D02*
X106807000Y-71501000D01*
X106807000Y-71501000D02*
X105029000Y-71501000D01*
X105029000Y-71501000D02*
X105029000Y-71120000D01*
X106807000Y-67564000D02*
X106807000Y-71120000D01*
X106807000Y-71120000D02*
X105029000Y-71120000D01*
X105029000Y-71120000D02*
X105029000Y-67564000D01*
X105029000Y-67564000D02*
X106807000Y-67564000D01*
G04 #@! TO.C,R6*
X110871000Y-71882000D02*
X110871000Y-75438000D01*
X110871000Y-75438000D02*
X109093000Y-75438000D01*
X109093000Y-75438000D02*
X109093000Y-71882000D01*
X109093000Y-71882000D02*
X110871000Y-71882000D01*
G04 #@! TO.C,R7*
X107061000Y-71882000D02*
X108839000Y-71882000D01*
X107061000Y-75438000D02*
X107061000Y-71882000D01*
X108839000Y-75438000D02*
X107061000Y-75438000D01*
X108839000Y-71882000D02*
X108839000Y-75438000D01*
G04 #@! TO.C,R8*
X106807000Y-71882000D02*
X106807000Y-75438000D01*
X106807000Y-75438000D02*
X105029000Y-75438000D01*
X105029000Y-75438000D02*
X105029000Y-71882000D01*
X105029000Y-71882000D02*
X106807000Y-71882000D01*
G04 #@! TO.C,C4*
X103251000Y-58928000D02*
X101473000Y-58928000D01*
X103251000Y-55372000D02*
X103251000Y-58928000D01*
X101473000Y-55372000D02*
X103251000Y-55372000D01*
X101473000Y-58928000D02*
X101473000Y-55372000D01*
D16*
G04 #@! TO.C,C5*
X87994000Y-76564000D02*
X86394000Y-76564000D01*
X82694000Y-76564000D02*
X84294000Y-76564000D01*
X82694000Y-76564000D02*
X82694000Y-71914000D01*
X82694000Y-71914000D02*
X83344000Y-71264000D01*
X83344000Y-71264000D02*
X84294000Y-71264000D01*
X87994000Y-76564000D02*
X87994000Y-71914000D01*
X87994000Y-71914000D02*
X87344000Y-71264000D01*
X87344000Y-71264000D02*
X86394000Y-71264000D01*
X86394000Y-71264000D02*
X86444000Y-71264000D01*
D15*
G04 #@! TO.C,C3*
X100457000Y-29972000D02*
X100457000Y-33528000D01*
X100457000Y-33528000D02*
X98679000Y-33528000D01*
X98679000Y-33528000D02*
X98679000Y-29972000D01*
X98679000Y-29972000D02*
X100457000Y-29972000D01*
D16*
G04 #@! TO.C,U6*
X115062000Y-39241000D02*
X110998000Y-39241000D01*
X115062000Y-37717000D02*
X110998000Y-37717000D01*
X117348000Y-38479000D02*
X117348000Y-39495000D01*
X117348000Y-39495000D02*
X115062000Y-40003000D01*
X115062000Y-40003000D02*
X115062000Y-36955000D01*
X115062000Y-36955000D02*
X117348000Y-37463000D01*
X117348000Y-37463000D02*
X117348000Y-38479000D01*
X110998000Y-35050000D02*
X110998000Y-45718000D01*
X110998000Y-45718000D02*
X100330000Y-45718000D01*
X100330000Y-45718000D02*
X100330000Y-35050000D01*
X100330000Y-35050000D02*
X110998000Y-35050000D01*
D15*
G04 #@! TO.C,C19*
X67564000Y-61087000D02*
X67564000Y-62865000D01*
X64008000Y-61087000D02*
X67564000Y-61087000D01*
X64008000Y-62865000D02*
X64008000Y-61087000D01*
X67564000Y-62865000D02*
X64008000Y-62865000D01*
G04 #@! TO.C,C20*
X67564000Y-64897000D02*
X64008000Y-64897000D01*
X64008000Y-64897000D02*
X64008000Y-63119000D01*
X64008000Y-63119000D02*
X67564000Y-63119000D01*
X67564000Y-63119000D02*
X67564000Y-64897000D01*
G04 #@! TO.C,R3*
X64008000Y-56769000D02*
X64008000Y-54991000D01*
X67564000Y-56769000D02*
X64008000Y-56769000D01*
X67564000Y-54991000D02*
X67564000Y-56769000D01*
X64008000Y-54991000D02*
X67564000Y-54991000D01*
G04 #@! TO.C,R4*
X64008000Y-52959000D02*
X67564000Y-52959000D01*
X67564000Y-52959000D02*
X67564000Y-54737000D01*
X67564000Y-54737000D02*
X64008000Y-54737000D01*
X64008000Y-54737000D02*
X64008000Y-52959000D01*
G04 #@! TO.C,R24*
X67564000Y-66929000D02*
X64008000Y-66929000D01*
X64008000Y-66929000D02*
X64008000Y-65151000D01*
X64008000Y-65151000D02*
X67564000Y-65151000D01*
X67564000Y-65151000D02*
X67564000Y-66929000D01*
G04 #@! TO.C,R25*
X67564000Y-68961000D02*
X64008000Y-68961000D01*
X64008000Y-68961000D02*
X64008000Y-67183000D01*
X64008000Y-67183000D02*
X67564000Y-67183000D01*
X67564000Y-67183000D02*
X67564000Y-68961000D01*
G04 #@! TO.C,R26*
X64008000Y-58801000D02*
X64008000Y-57023000D01*
X67564000Y-58801000D02*
X64008000Y-58801000D01*
X67564000Y-57023000D02*
X67564000Y-58801000D01*
X64008000Y-57023000D02*
X67564000Y-57023000D01*
G04 #@! TO.C,R27*
X67945000Y-69596000D02*
X67945000Y-66040000D01*
X67945000Y-66040000D02*
X69723000Y-66040000D01*
X69723000Y-66040000D02*
X69723000Y-69596000D01*
X69723000Y-69596000D02*
X67945000Y-69596000D01*
G04 #@! TO.C,R28*
X64008000Y-60833000D02*
X64008000Y-59055000D01*
X67564000Y-60833000D02*
X64008000Y-60833000D01*
X67564000Y-59055000D02*
X67564000Y-60833000D01*
X64008000Y-59055000D02*
X67564000Y-59055000D01*
G04 #@! TO.C,R29*
X69977000Y-69596000D02*
X69977000Y-66040000D01*
X69977000Y-66040000D02*
X71755000Y-66040000D01*
X71755000Y-66040000D02*
X71755000Y-69596000D01*
X71755000Y-69596000D02*
X69977000Y-69596000D01*
G04 #@! TO.C,R30*
X68580000Y-56515000D02*
X68580000Y-54737000D01*
X72136000Y-56515000D02*
X68580000Y-56515000D01*
X72136000Y-54737000D02*
X72136000Y-56515000D01*
X68580000Y-54737000D02*
X72136000Y-54737000D01*
G04 #@! TO.C,R31*
X72136000Y-58547000D02*
X68580000Y-58547000D01*
X68580000Y-58547000D02*
X68580000Y-56769000D01*
X68580000Y-56769000D02*
X72136000Y-56769000D01*
X72136000Y-56769000D02*
X72136000Y-58547000D01*
G04 #@! TO.C,R32*
X74803000Y-64008000D02*
X73025000Y-64008000D01*
X74803000Y-60452000D02*
X74803000Y-64008000D01*
X73025000Y-60452000D02*
X74803000Y-60452000D01*
X73025000Y-64008000D02*
X73025000Y-60452000D01*
D17*
G04 #@! TO.C,Q3*
X72612000Y-60230000D02*
X72612000Y-64230000D01*
X68612000Y-60230000D02*
X68612000Y-64230000D01*
G04 #@! TO.C,OT1*
D16*
X76492219Y-54748180D02*
X76682695Y-54748180D01*
X76777933Y-54795800D01*
X76873171Y-54891038D01*
X76920790Y-55081514D01*
X76920790Y-55414847D01*
X76873171Y-55605323D01*
X76777933Y-55700561D01*
X76682695Y-55748180D01*
X76492219Y-55748180D01*
X76396980Y-55700561D01*
X76301742Y-55605323D01*
X76254123Y-55414847D01*
X76254123Y-55081514D01*
X76301742Y-54891038D01*
X76396980Y-54795800D01*
X76492219Y-54748180D01*
X77206504Y-54748180D02*
X77777933Y-54748180D01*
X77492219Y-55748180D02*
X77492219Y-54748180D01*
X78635076Y-55748180D02*
X78063647Y-55748180D01*
X78349361Y-55748180D02*
X78349361Y-54748180D01*
X78254123Y-54891038D01*
X78158885Y-54986276D01*
X78063647Y-55033895D01*
G04 #@! TO.C,D3*
X89606380Y-74144095D02*
X88606380Y-74144095D01*
X88606380Y-73906000D01*
X88654000Y-73763142D01*
X88749238Y-73667904D01*
X88844476Y-73620285D01*
X89034952Y-73572666D01*
X89177809Y-73572666D01*
X89368285Y-73620285D01*
X89463523Y-73667904D01*
X89558761Y-73763142D01*
X89606380Y-73906000D01*
X89606380Y-74144095D01*
X88606380Y-73239333D02*
X88606380Y-72620285D01*
X88987333Y-72953619D01*
X88987333Y-72810761D01*
X89034952Y-72715523D01*
X89082571Y-72667904D01*
X89177809Y-72620285D01*
X89415904Y-72620285D01*
X89511142Y-72667904D01*
X89558761Y-72715523D01*
X89606380Y-72810761D01*
X89606380Y-73096476D01*
X89558761Y-73191714D01*
X89511142Y-73239333D01*
G04 #@! TO.C,D2*
X104846380Y-55094095D02*
X103846380Y-55094095D01*
X103846380Y-54856000D01*
X103894000Y-54713142D01*
X103989238Y-54617904D01*
X104084476Y-54570285D01*
X104274952Y-54522666D01*
X104417809Y-54522666D01*
X104608285Y-54570285D01*
X104703523Y-54617904D01*
X104798761Y-54713142D01*
X104846380Y-54856000D01*
X104846380Y-55094095D01*
X103941619Y-54141714D02*
X103894000Y-54094095D01*
X103846380Y-53998857D01*
X103846380Y-53760761D01*
X103894000Y-53665523D01*
X103941619Y-53617904D01*
X104036857Y-53570285D01*
X104132095Y-53570285D01*
X104274952Y-53617904D01*
X104846380Y-54189333D01*
X104846380Y-53570285D01*
G04 #@! TO.C,L1*
X91527333Y-61920380D02*
X91051142Y-61920380D01*
X91051142Y-60920380D01*
X92384476Y-61920380D02*
X91813047Y-61920380D01*
X92098761Y-61920380D02*
X92098761Y-60920380D01*
X92003523Y-61063238D01*
X91908285Y-61158476D01*
X91813047Y-61206095D01*
G04 #@! TO.C,BR1*
X75930238Y-73207571D02*
X76073095Y-73255190D01*
X76120714Y-73302809D01*
X76168333Y-73398047D01*
X76168333Y-73540904D01*
X76120714Y-73636142D01*
X76073095Y-73683761D01*
X75977857Y-73731380D01*
X75596904Y-73731380D01*
X75596904Y-72731380D01*
X75930238Y-72731380D01*
X76025476Y-72779000D01*
X76073095Y-72826619D01*
X76120714Y-72921857D01*
X76120714Y-73017095D01*
X76073095Y-73112333D01*
X76025476Y-73159952D01*
X75930238Y-73207571D01*
X75596904Y-73207571D01*
X77168333Y-73731380D02*
X76835000Y-73255190D01*
X76596904Y-73731380D02*
X76596904Y-72731380D01*
X76977857Y-72731380D01*
X77073095Y-72779000D01*
X77120714Y-72826619D01*
X77168333Y-72921857D01*
X77168333Y-73064714D01*
X77120714Y-73159952D01*
X77073095Y-73207571D01*
X76977857Y-73255190D01*
X76596904Y-73255190D01*
X78120714Y-73731380D02*
X77549285Y-73731380D01*
X77835000Y-73731380D02*
X77835000Y-72731380D01*
X77739761Y-72874238D01*
X77644523Y-72969476D01*
X77549285Y-73017095D01*
G04 #@! TO.C,C1*
X93305333Y-43156142D02*
X93257714Y-43203761D01*
X93114857Y-43251380D01*
X93019619Y-43251380D01*
X92876761Y-43203761D01*
X92781523Y-43108523D01*
X92733904Y-43013285D01*
X92686285Y-42822809D01*
X92686285Y-42679952D01*
X92733904Y-42489476D01*
X92781523Y-42394238D01*
X92876761Y-42299000D01*
X93019619Y-42251380D01*
X93114857Y-42251380D01*
X93257714Y-42299000D01*
X93305333Y-42346619D01*
X94257714Y-43251380D02*
X93686285Y-43251380D01*
X93972000Y-43251380D02*
X93972000Y-42251380D01*
X93876761Y-42394238D01*
X93781523Y-42489476D01*
X93686285Y-42537095D01*
G04 #@! TO.C,C2*
X88479333Y-58523142D02*
X88431714Y-58570761D01*
X88288857Y-58618380D01*
X88193619Y-58618380D01*
X88050761Y-58570761D01*
X87955523Y-58475523D01*
X87907904Y-58380285D01*
X87860285Y-58189809D01*
X87860285Y-58046952D01*
X87907904Y-57856476D01*
X87955523Y-57761238D01*
X88050761Y-57666000D01*
X88193619Y-57618380D01*
X88288857Y-57618380D01*
X88431714Y-57666000D01*
X88479333Y-57713619D01*
X88860285Y-57713619D02*
X88907904Y-57666000D01*
X89003142Y-57618380D01*
X89241238Y-57618380D01*
X89336476Y-57666000D01*
X89384095Y-57713619D01*
X89431714Y-57808857D01*
X89431714Y-57904095D01*
X89384095Y-58046952D01*
X88812666Y-58618380D01*
X89431714Y-58618380D01*
G04 #@! TO.C,C6*
X89003142Y-61126666D02*
X89050761Y-61174285D01*
X89098380Y-61317142D01*
X89098380Y-61412380D01*
X89050761Y-61555238D01*
X88955523Y-61650476D01*
X88860285Y-61698095D01*
X88669809Y-61745714D01*
X88526952Y-61745714D01*
X88336476Y-61698095D01*
X88241238Y-61650476D01*
X88146000Y-61555238D01*
X88098380Y-61412380D01*
X88098380Y-61317142D01*
X88146000Y-61174285D01*
X88193619Y-61126666D01*
X88098380Y-60269523D02*
X88098380Y-60460000D01*
X88146000Y-60555238D01*
X88193619Y-60602857D01*
X88336476Y-60698095D01*
X88526952Y-60745714D01*
X88907904Y-60745714D01*
X89003142Y-60698095D01*
X89050761Y-60650476D01*
X89098380Y-60555238D01*
X89098380Y-60364761D01*
X89050761Y-60269523D01*
X89003142Y-60221904D01*
X88907904Y-60174285D01*
X88669809Y-60174285D01*
X88574571Y-60221904D01*
X88526952Y-60269523D01*
X88479333Y-60364761D01*
X88479333Y-60555238D01*
X88526952Y-60650476D01*
X88574571Y-60698095D01*
X88669809Y-60745714D01*
G04 #@! TO.C,C7*
X86955333Y-70969142D02*
X86907714Y-71016761D01*
X86764857Y-71064380D01*
X86669619Y-71064380D01*
X86526761Y-71016761D01*
X86431523Y-70921523D01*
X86383904Y-70826285D01*
X86336285Y-70635809D01*
X86336285Y-70492952D01*
X86383904Y-70302476D01*
X86431523Y-70207238D01*
X86526761Y-70112000D01*
X86669619Y-70064380D01*
X86764857Y-70064380D01*
X86907714Y-70112000D01*
X86955333Y-70159619D01*
X87288666Y-70064380D02*
X87955333Y-70064380D01*
X87526761Y-71064380D01*
G04 #@! TO.C,C8*
X91035142Y-72810666D02*
X91082761Y-72858285D01*
X91130380Y-73001142D01*
X91130380Y-73096380D01*
X91082761Y-73239238D01*
X90987523Y-73334476D01*
X90892285Y-73382095D01*
X90701809Y-73429714D01*
X90558952Y-73429714D01*
X90368476Y-73382095D01*
X90273238Y-73334476D01*
X90178000Y-73239238D01*
X90130380Y-73096380D01*
X90130380Y-73001142D01*
X90178000Y-72858285D01*
X90225619Y-72810666D01*
X90558952Y-72239238D02*
X90511333Y-72334476D01*
X90463714Y-72382095D01*
X90368476Y-72429714D01*
X90320857Y-72429714D01*
X90225619Y-72382095D01*
X90178000Y-72334476D01*
X90130380Y-72239238D01*
X90130380Y-72048761D01*
X90178000Y-71953523D01*
X90225619Y-71905904D01*
X90320857Y-71858285D01*
X90368476Y-71858285D01*
X90463714Y-71905904D01*
X90511333Y-71953523D01*
X90558952Y-72048761D01*
X90558952Y-72239238D01*
X90606571Y-72334476D01*
X90654190Y-72382095D01*
X90749428Y-72429714D01*
X90939904Y-72429714D01*
X91035142Y-72382095D01*
X91082761Y-72334476D01*
X91130380Y-72239238D01*
X91130380Y-72048761D01*
X91082761Y-71953523D01*
X91035142Y-71905904D01*
X90939904Y-71858285D01*
X90749428Y-71858285D01*
X90654190Y-71905904D01*
X90606571Y-71953523D01*
X90558952Y-72048761D01*
G04 #@! TO.C,C9*
X97623333Y-59793142D02*
X97575714Y-59840761D01*
X97432857Y-59888380D01*
X97337619Y-59888380D01*
X97194761Y-59840761D01*
X97099523Y-59745523D01*
X97051904Y-59650285D01*
X97004285Y-59459809D01*
X97004285Y-59316952D01*
X97051904Y-59126476D01*
X97099523Y-59031238D01*
X97194761Y-58936000D01*
X97337619Y-58888380D01*
X97432857Y-58888380D01*
X97575714Y-58936000D01*
X97623333Y-58983619D01*
X98099523Y-59888380D02*
X98290000Y-59888380D01*
X98385238Y-59840761D01*
X98432857Y-59793142D01*
X98528095Y-59650285D01*
X98575714Y-59459809D01*
X98575714Y-59078857D01*
X98528095Y-58983619D01*
X98480476Y-58936000D01*
X98385238Y-58888380D01*
X98194761Y-58888380D01*
X98099523Y-58936000D01*
X98051904Y-58983619D01*
X98004285Y-59078857D01*
X98004285Y-59316952D01*
X98051904Y-59412190D01*
X98099523Y-59459809D01*
X98194761Y-59507428D01*
X98385238Y-59507428D01*
X98480476Y-59459809D01*
X98528095Y-59412190D01*
X98575714Y-59316952D01*
G04 #@! TO.C,C10*
X100195142Y-59793142D02*
X100147523Y-59840761D01*
X100004666Y-59888380D01*
X99909428Y-59888380D01*
X99766571Y-59840761D01*
X99671333Y-59745523D01*
X99623714Y-59650285D01*
X99576095Y-59459809D01*
X99576095Y-59316952D01*
X99623714Y-59126476D01*
X99671333Y-59031238D01*
X99766571Y-58936000D01*
X99909428Y-58888380D01*
X100004666Y-58888380D01*
X100147523Y-58936000D01*
X100195142Y-58983619D01*
X101147523Y-59888380D02*
X100576095Y-59888380D01*
X100861809Y-59888380D02*
X100861809Y-58888380D01*
X100766571Y-59031238D01*
X100671333Y-59126476D01*
X100576095Y-59174095D01*
X101766571Y-58888380D02*
X101861809Y-58888380D01*
X101957047Y-58936000D01*
X102004666Y-58983619D01*
X102052285Y-59078857D01*
X102099904Y-59269333D01*
X102099904Y-59507428D01*
X102052285Y-59697904D01*
X102004666Y-59793142D01*
X101957047Y-59840761D01*
X101861809Y-59888380D01*
X101766571Y-59888380D01*
X101671333Y-59840761D01*
X101623714Y-59793142D01*
X101576095Y-59697904D01*
X101528476Y-59507428D01*
X101528476Y-59269333D01*
X101576095Y-59078857D01*
X101623714Y-58983619D01*
X101671333Y-58936000D01*
X101766571Y-58888380D01*
G04 #@! TO.C,C11*
X74033142Y-33631142D02*
X73985523Y-33678761D01*
X73842666Y-33726380D01*
X73747428Y-33726380D01*
X73604571Y-33678761D01*
X73509333Y-33583523D01*
X73461714Y-33488285D01*
X73414095Y-33297809D01*
X73414095Y-33154952D01*
X73461714Y-32964476D01*
X73509333Y-32869238D01*
X73604571Y-32774000D01*
X73747428Y-32726380D01*
X73842666Y-32726380D01*
X73985523Y-32774000D01*
X74033142Y-32821619D01*
X74985523Y-33726380D02*
X74414095Y-33726380D01*
X74699809Y-33726380D02*
X74699809Y-32726380D01*
X74604571Y-32869238D01*
X74509333Y-32964476D01*
X74414095Y-33012095D01*
X75937904Y-33726380D02*
X75366476Y-33726380D01*
X75652190Y-33726380D02*
X75652190Y-32726380D01*
X75556952Y-32869238D01*
X75461714Y-32964476D01*
X75366476Y-33012095D01*
G04 #@! TO.C,C12*
X73271142Y-39981142D02*
X73223523Y-40028761D01*
X73080666Y-40076380D01*
X72985428Y-40076380D01*
X72842571Y-40028761D01*
X72747333Y-39933523D01*
X72699714Y-39838285D01*
X72652095Y-39647809D01*
X72652095Y-39504952D01*
X72699714Y-39314476D01*
X72747333Y-39219238D01*
X72842571Y-39124000D01*
X72985428Y-39076380D01*
X73080666Y-39076380D01*
X73223523Y-39124000D01*
X73271142Y-39171619D01*
X74223523Y-40076380D02*
X73652095Y-40076380D01*
X73937809Y-40076380D02*
X73937809Y-39076380D01*
X73842571Y-39219238D01*
X73747333Y-39314476D01*
X73652095Y-39362095D01*
X74604476Y-39171619D02*
X74652095Y-39124000D01*
X74747333Y-39076380D01*
X74985428Y-39076380D01*
X75080666Y-39124000D01*
X75128285Y-39171619D01*
X75175904Y-39266857D01*
X75175904Y-39362095D01*
X75128285Y-39504952D01*
X74556857Y-40076380D01*
X75175904Y-40076380D01*
G04 #@! TO.C,C13*
X74033142Y-44299142D02*
X73985523Y-44346761D01*
X73842666Y-44394380D01*
X73747428Y-44394380D01*
X73604571Y-44346761D01*
X73509333Y-44251523D01*
X73461714Y-44156285D01*
X73414095Y-43965809D01*
X73414095Y-43822952D01*
X73461714Y-43632476D01*
X73509333Y-43537238D01*
X73604571Y-43442000D01*
X73747428Y-43394380D01*
X73842666Y-43394380D01*
X73985523Y-43442000D01*
X74033142Y-43489619D01*
X74985523Y-44394380D02*
X74414095Y-44394380D01*
X74699809Y-44394380D02*
X74699809Y-43394380D01*
X74604571Y-43537238D01*
X74509333Y-43632476D01*
X74414095Y-43680095D01*
X75318857Y-43394380D02*
X75937904Y-43394380D01*
X75604571Y-43775333D01*
X75747428Y-43775333D01*
X75842666Y-43822952D01*
X75890285Y-43870571D01*
X75937904Y-43965809D01*
X75937904Y-44203904D01*
X75890285Y-44299142D01*
X75842666Y-44346761D01*
X75747428Y-44394380D01*
X75461714Y-44394380D01*
X75366476Y-44346761D01*
X75318857Y-44299142D01*
G04 #@! TO.C,C14*
X73906142Y-52173142D02*
X73858523Y-52220761D01*
X73715666Y-52268380D01*
X73620428Y-52268380D01*
X73477571Y-52220761D01*
X73382333Y-52125523D01*
X73334714Y-52030285D01*
X73287095Y-51839809D01*
X73287095Y-51696952D01*
X73334714Y-51506476D01*
X73382333Y-51411238D01*
X73477571Y-51316000D01*
X73620428Y-51268380D01*
X73715666Y-51268380D01*
X73858523Y-51316000D01*
X73906142Y-51363619D01*
X74858523Y-52268380D02*
X74287095Y-52268380D01*
X74572809Y-52268380D02*
X74572809Y-51268380D01*
X74477571Y-51411238D01*
X74382333Y-51506476D01*
X74287095Y-51554095D01*
X75715666Y-51601714D02*
X75715666Y-52268380D01*
X75477571Y-51220761D02*
X75239476Y-51935047D01*
X75858523Y-51935047D01*
G04 #@! TO.C,C15*
X79732142Y-52966857D02*
X79779761Y-53014476D01*
X79827380Y-53157333D01*
X79827380Y-53252571D01*
X79779761Y-53395428D01*
X79684523Y-53490666D01*
X79589285Y-53538285D01*
X79398809Y-53585904D01*
X79255952Y-53585904D01*
X79065476Y-53538285D01*
X78970238Y-53490666D01*
X78875000Y-53395428D01*
X78827380Y-53252571D01*
X78827380Y-53157333D01*
X78875000Y-53014476D01*
X78922619Y-52966857D01*
X79827380Y-52014476D02*
X79827380Y-52585904D01*
X79827380Y-52300190D02*
X78827380Y-52300190D01*
X78970238Y-52395428D01*
X79065476Y-52490666D01*
X79113095Y-52585904D01*
X78827380Y-51109714D02*
X78827380Y-51585904D01*
X79303571Y-51633523D01*
X79255952Y-51585904D01*
X79208333Y-51490666D01*
X79208333Y-51252571D01*
X79255952Y-51157333D01*
X79303571Y-51109714D01*
X79398809Y-51062095D01*
X79636904Y-51062095D01*
X79732142Y-51109714D01*
X79779761Y-51157333D01*
X79827380Y-51252571D01*
X79827380Y-51490666D01*
X79779761Y-51585904D01*
X79732142Y-51633523D01*
G04 #@! TO.C,C16*
X84177142Y-41790857D02*
X84224761Y-41838476D01*
X84272380Y-41981333D01*
X84272380Y-42076571D01*
X84224761Y-42219428D01*
X84129523Y-42314666D01*
X84034285Y-42362285D01*
X83843809Y-42409904D01*
X83700952Y-42409904D01*
X83510476Y-42362285D01*
X83415238Y-42314666D01*
X83320000Y-42219428D01*
X83272380Y-42076571D01*
X83272380Y-41981333D01*
X83320000Y-41838476D01*
X83367619Y-41790857D01*
X84272380Y-40838476D02*
X84272380Y-41409904D01*
X84272380Y-41124190D02*
X83272380Y-41124190D01*
X83415238Y-41219428D01*
X83510476Y-41314666D01*
X83558095Y-41409904D01*
X83272380Y-39981333D02*
X83272380Y-40171809D01*
X83320000Y-40267047D01*
X83367619Y-40314666D01*
X83510476Y-40409904D01*
X83700952Y-40457523D01*
X84081904Y-40457523D01*
X84177142Y-40409904D01*
X84224761Y-40362285D01*
X84272380Y-40267047D01*
X84272380Y-40076571D01*
X84224761Y-39981333D01*
X84177142Y-39933714D01*
X84081904Y-39886095D01*
X83843809Y-39886095D01*
X83748571Y-39933714D01*
X83700952Y-39981333D01*
X83653333Y-40076571D01*
X83653333Y-40267047D01*
X83700952Y-40362285D01*
X83748571Y-40409904D01*
X83843809Y-40457523D01*
G04 #@! TO.C,C17*
X86225142Y-33377142D02*
X86177523Y-33424761D01*
X86034666Y-33472380D01*
X85939428Y-33472380D01*
X85796571Y-33424761D01*
X85701333Y-33329523D01*
X85653714Y-33234285D01*
X85606095Y-33043809D01*
X85606095Y-32900952D01*
X85653714Y-32710476D01*
X85701333Y-32615238D01*
X85796571Y-32520000D01*
X85939428Y-32472380D01*
X86034666Y-32472380D01*
X86177523Y-32520000D01*
X86225142Y-32567619D01*
X87177523Y-33472380D02*
X86606095Y-33472380D01*
X86891809Y-33472380D02*
X86891809Y-32472380D01*
X86796571Y-32615238D01*
X86701333Y-32710476D01*
X86606095Y-32758095D01*
X87510857Y-32472380D02*
X88177523Y-32472380D01*
X87748952Y-33472380D01*
G04 #@! TO.C,C18*
X89527142Y-40743142D02*
X89479523Y-40790761D01*
X89336666Y-40838380D01*
X89241428Y-40838380D01*
X89098571Y-40790761D01*
X89003333Y-40695523D01*
X88955714Y-40600285D01*
X88908095Y-40409809D01*
X88908095Y-40266952D01*
X88955714Y-40076476D01*
X89003333Y-39981238D01*
X89098571Y-39886000D01*
X89241428Y-39838380D01*
X89336666Y-39838380D01*
X89479523Y-39886000D01*
X89527142Y-39933619D01*
X90479523Y-40838380D02*
X89908095Y-40838380D01*
X90193809Y-40838380D02*
X90193809Y-39838380D01*
X90098571Y-39981238D01*
X90003333Y-40076476D01*
X89908095Y-40124095D01*
X91050952Y-40266952D02*
X90955714Y-40219333D01*
X90908095Y-40171714D01*
X90860476Y-40076476D01*
X90860476Y-40028857D01*
X90908095Y-39933619D01*
X90955714Y-39886000D01*
X91050952Y-39838380D01*
X91241428Y-39838380D01*
X91336666Y-39886000D01*
X91384285Y-39933619D01*
X91431904Y-40028857D01*
X91431904Y-40076476D01*
X91384285Y-40171714D01*
X91336666Y-40219333D01*
X91241428Y-40266952D01*
X91050952Y-40266952D01*
X90955714Y-40314571D01*
X90908095Y-40362190D01*
X90860476Y-40457428D01*
X90860476Y-40647904D01*
X90908095Y-40743142D01*
X90955714Y-40790761D01*
X91050952Y-40838380D01*
X91241428Y-40838380D01*
X91336666Y-40790761D01*
X91384285Y-40743142D01*
X91431904Y-40647904D01*
X91431904Y-40457428D01*
X91384285Y-40362190D01*
X91336666Y-40314571D01*
X91241428Y-40266952D01*
G04 #@! TO.C,D1*
X74979304Y-66060580D02*
X74979304Y-65060580D01*
X75217400Y-65060580D01*
X75360257Y-65108200D01*
X75455495Y-65203438D01*
X75503114Y-65298676D01*
X75550733Y-65489152D01*
X75550733Y-65632009D01*
X75503114Y-65822485D01*
X75455495Y-65917723D01*
X75360257Y-66012961D01*
X75217400Y-66060580D01*
X74979304Y-66060580D01*
X76503114Y-66060580D02*
X75931685Y-66060580D01*
X76217400Y-66060580D02*
X76217400Y-65060580D01*
X76122161Y-65203438D01*
X76026923Y-65298676D01*
X75931685Y-65346295D01*
G04 #@! TO.C,D4*
X95956380Y-70334095D02*
X94956380Y-70334095D01*
X94956380Y-70096000D01*
X95004000Y-69953142D01*
X95099238Y-69857904D01*
X95194476Y-69810285D01*
X95384952Y-69762666D01*
X95527809Y-69762666D01*
X95718285Y-69810285D01*
X95813523Y-69857904D01*
X95908761Y-69953142D01*
X95956380Y-70096000D01*
X95956380Y-70334095D01*
X95289714Y-68905523D02*
X95956380Y-68905523D01*
X94908761Y-69143619D02*
X95623047Y-69381714D01*
X95623047Y-68762666D01*
G04 #@! TO.C,D5*
X92987904Y-61666380D02*
X92987904Y-60666380D01*
X93226000Y-60666380D01*
X93368857Y-60714000D01*
X93464095Y-60809238D01*
X93511714Y-60904476D01*
X93559333Y-61094952D01*
X93559333Y-61237809D01*
X93511714Y-61428285D01*
X93464095Y-61523523D01*
X93368857Y-61618761D01*
X93226000Y-61666380D01*
X92987904Y-61666380D01*
X94464095Y-60666380D02*
X93987904Y-60666380D01*
X93940285Y-61142571D01*
X93987904Y-61094952D01*
X94083142Y-61047333D01*
X94321238Y-61047333D01*
X94416476Y-61094952D01*
X94464095Y-61142571D01*
X94511714Y-61237809D01*
X94511714Y-61475904D01*
X94464095Y-61571142D01*
X94416476Y-61618761D01*
X94321238Y-61666380D01*
X94083142Y-61666380D01*
X93987904Y-61618761D01*
X93940285Y-61571142D01*
G04 #@! TO.C,D6*
X102560380Y-71350095D02*
X101560380Y-71350095D01*
X101560380Y-71112000D01*
X101608000Y-70969142D01*
X101703238Y-70873904D01*
X101798476Y-70826285D01*
X101988952Y-70778666D01*
X102131809Y-70778666D01*
X102322285Y-70826285D01*
X102417523Y-70873904D01*
X102512761Y-70969142D01*
X102560380Y-71112000D01*
X102560380Y-71350095D01*
X101560380Y-69921523D02*
X101560380Y-70112000D01*
X101608000Y-70207238D01*
X101655619Y-70254857D01*
X101798476Y-70350095D01*
X101988952Y-70397714D01*
X102369904Y-70397714D01*
X102465142Y-70350095D01*
X102512761Y-70302476D01*
X102560380Y-70207238D01*
X102560380Y-70016761D01*
X102512761Y-69921523D01*
X102465142Y-69873904D01*
X102369904Y-69826285D01*
X102131809Y-69826285D01*
X102036571Y-69873904D01*
X101988952Y-69921523D01*
X101941333Y-70016761D01*
X101941333Y-70207238D01*
X101988952Y-70302476D01*
X102036571Y-70350095D01*
X102131809Y-70397714D01*
G04 #@! TO.C,D7*
X74620380Y-38330095D02*
X73620380Y-38330095D01*
X73620380Y-38092000D01*
X73668000Y-37949142D01*
X73763238Y-37853904D01*
X73858476Y-37806285D01*
X74048952Y-37758666D01*
X74191809Y-37758666D01*
X74382285Y-37806285D01*
X74477523Y-37853904D01*
X74572761Y-37949142D01*
X74620380Y-38092000D01*
X74620380Y-38330095D01*
X73620380Y-37425333D02*
X73620380Y-36758666D01*
X74620380Y-37187238D01*
G04 #@! TO.C,D8*
X78176380Y-41378095D02*
X77176380Y-41378095D01*
X77176380Y-41140000D01*
X77224000Y-40997142D01*
X77319238Y-40901904D01*
X77414476Y-40854285D01*
X77604952Y-40806666D01*
X77747809Y-40806666D01*
X77938285Y-40854285D01*
X78033523Y-40901904D01*
X78128761Y-40997142D01*
X78176380Y-41140000D01*
X78176380Y-41378095D01*
X77604952Y-40235238D02*
X77557333Y-40330476D01*
X77509714Y-40378095D01*
X77414476Y-40425714D01*
X77366857Y-40425714D01*
X77271619Y-40378095D01*
X77224000Y-40330476D01*
X77176380Y-40235238D01*
X77176380Y-40044761D01*
X77224000Y-39949523D01*
X77271619Y-39901904D01*
X77366857Y-39854285D01*
X77414476Y-39854285D01*
X77509714Y-39901904D01*
X77557333Y-39949523D01*
X77604952Y-40044761D01*
X77604952Y-40235238D01*
X77652571Y-40330476D01*
X77700190Y-40378095D01*
X77795428Y-40425714D01*
X77985904Y-40425714D01*
X78081142Y-40378095D01*
X78128761Y-40330476D01*
X78176380Y-40235238D01*
X78176380Y-40044761D01*
X78128761Y-39949523D01*
X78081142Y-39901904D01*
X77985904Y-39854285D01*
X77795428Y-39854285D01*
X77700190Y-39901904D01*
X77652571Y-39949523D01*
X77604952Y-40044761D01*
G04 #@! TO.C,D9*
X77922380Y-52554095D02*
X76922380Y-52554095D01*
X76922380Y-52316000D01*
X76970000Y-52173142D01*
X77065238Y-52077904D01*
X77160476Y-52030285D01*
X77350952Y-51982666D01*
X77493809Y-51982666D01*
X77684285Y-52030285D01*
X77779523Y-52077904D01*
X77874761Y-52173142D01*
X77922380Y-52316000D01*
X77922380Y-52554095D01*
X77922380Y-51506476D02*
X77922380Y-51316000D01*
X77874761Y-51220761D01*
X77827142Y-51173142D01*
X77684285Y-51077904D01*
X77493809Y-51030285D01*
X77112857Y-51030285D01*
X77017619Y-51077904D01*
X76970000Y-51125523D01*
X76922380Y-51220761D01*
X76922380Y-51411238D01*
X76970000Y-51506476D01*
X77017619Y-51554095D01*
X77112857Y-51601714D01*
X77350952Y-51601714D01*
X77446190Y-51554095D01*
X77493809Y-51506476D01*
X77541428Y-51411238D01*
X77541428Y-51220761D01*
X77493809Y-51125523D01*
X77446190Y-51077904D01*
X77350952Y-51030285D01*
G04 #@! TO.C,D10*
X84526380Y-32456285D02*
X83526380Y-32456285D01*
X83526380Y-32218190D01*
X83574000Y-32075333D01*
X83669238Y-31980095D01*
X83764476Y-31932476D01*
X83954952Y-31884857D01*
X84097809Y-31884857D01*
X84288285Y-31932476D01*
X84383523Y-31980095D01*
X84478761Y-32075333D01*
X84526380Y-32218190D01*
X84526380Y-32456285D01*
X84526380Y-30932476D02*
X84526380Y-31503904D01*
X84526380Y-31218190D02*
X83526380Y-31218190D01*
X83669238Y-31313428D01*
X83764476Y-31408666D01*
X83812095Y-31503904D01*
X83526380Y-30313428D02*
X83526380Y-30218190D01*
X83574000Y-30122952D01*
X83621619Y-30075333D01*
X83716857Y-30027714D01*
X83907333Y-29980095D01*
X84145428Y-29980095D01*
X84335904Y-30027714D01*
X84431142Y-30075333D01*
X84478761Y-30122952D01*
X84526380Y-30218190D01*
X84526380Y-30313428D01*
X84478761Y-30408666D01*
X84431142Y-30456285D01*
X84335904Y-30503904D01*
X84145428Y-30551523D01*
X83907333Y-30551523D01*
X83716857Y-30503904D01*
X83621619Y-30456285D01*
X83574000Y-30408666D01*
X83526380Y-30313428D01*
G04 #@! TO.C,D11*
X88336380Y-42362285D02*
X87336380Y-42362285D01*
X87336380Y-42124190D01*
X87384000Y-41981333D01*
X87479238Y-41886095D01*
X87574476Y-41838476D01*
X87764952Y-41790857D01*
X87907809Y-41790857D01*
X88098285Y-41838476D01*
X88193523Y-41886095D01*
X88288761Y-41981333D01*
X88336380Y-42124190D01*
X88336380Y-42362285D01*
X88336380Y-40838476D02*
X88336380Y-41409904D01*
X88336380Y-41124190D02*
X87336380Y-41124190D01*
X87479238Y-41219428D01*
X87574476Y-41314666D01*
X87622095Y-41409904D01*
X88336380Y-39886095D02*
X88336380Y-40457523D01*
X88336380Y-40171809D02*
X87336380Y-40171809D01*
X87479238Y-40267047D01*
X87574476Y-40362285D01*
X87622095Y-40457523D01*
G04 #@! TO.C,J1*
X55191066Y-52157380D02*
X55191066Y-52871666D01*
X55143447Y-53014523D01*
X55048209Y-53109761D01*
X54905352Y-53157380D01*
X54810114Y-53157380D01*
X56191066Y-53157380D02*
X55619638Y-53157380D01*
X55905352Y-53157380D02*
X55905352Y-52157380D01*
X55810114Y-52300238D01*
X55714876Y-52395476D01*
X55619638Y-52443095D01*
G04 #@! TO.C,J2*
X64984666Y-31004380D02*
X64984666Y-31718666D01*
X64937047Y-31861523D01*
X64841809Y-31956761D01*
X64698952Y-32004380D01*
X64603714Y-32004380D01*
X65413238Y-31099619D02*
X65460857Y-31052000D01*
X65556095Y-31004380D01*
X65794190Y-31004380D01*
X65889428Y-31052000D01*
X65937047Y-31099619D01*
X65984666Y-31194857D01*
X65984666Y-31290095D01*
X65937047Y-31432952D01*
X65365619Y-32004380D01*
X65984666Y-32004380D01*
G04 #@! TO.C,J3*
D18*
X104091619Y-52662666D02*
X104817333Y-52662666D01*
X104962476Y-52711047D01*
X105059238Y-52807809D01*
X105107619Y-52952952D01*
X105107619Y-53049714D01*
X104091619Y-52275619D02*
X104091619Y-51646666D01*
X104478666Y-51985333D01*
X104478666Y-51840190D01*
X104527047Y-51743428D01*
X104575428Y-51695047D01*
X104672190Y-51646666D01*
X104914095Y-51646666D01*
X105010857Y-51695047D01*
X105059238Y-51743428D01*
X105107619Y-51840190D01*
X105107619Y-52130476D01*
X105059238Y-52227238D01*
X105010857Y-52275619D01*
G04 #@! TO.C,Q1*
D16*
X80930761Y-31563619D02*
X80835523Y-31516000D01*
X80740285Y-31420761D01*
X80597428Y-31277904D01*
X80502190Y-31230285D01*
X80406952Y-31230285D01*
X80454571Y-31468380D02*
X80359333Y-31420761D01*
X80264095Y-31325523D01*
X80216476Y-31135047D01*
X80216476Y-30801714D01*
X80264095Y-30611238D01*
X80359333Y-30516000D01*
X80454571Y-30468380D01*
X80645047Y-30468380D01*
X80740285Y-30516000D01*
X80835523Y-30611238D01*
X80883142Y-30801714D01*
X80883142Y-31135047D01*
X80835523Y-31325523D01*
X80740285Y-31420761D01*
X80645047Y-31468380D01*
X80454571Y-31468380D01*
X81835523Y-31468380D02*
X81264095Y-31468380D01*
X81549809Y-31468380D02*
X81549809Y-30468380D01*
X81454571Y-30611238D01*
X81359333Y-30706476D01*
X81264095Y-30754095D01*
G04 #@! TO.C,Q2*
X92868761Y-41187619D02*
X92773523Y-41140000D01*
X92678285Y-41044761D01*
X92535428Y-40901904D01*
X92440190Y-40854285D01*
X92344952Y-40854285D01*
X92392571Y-41092380D02*
X92297333Y-41044761D01*
X92202095Y-40949523D01*
X92154476Y-40759047D01*
X92154476Y-40425714D01*
X92202095Y-40235238D01*
X92297333Y-40140000D01*
X92392571Y-40092380D01*
X92583047Y-40092380D01*
X92678285Y-40140000D01*
X92773523Y-40235238D01*
X92821142Y-40425714D01*
X92821142Y-40759047D01*
X92773523Y-40949523D01*
X92678285Y-41044761D01*
X92583047Y-41092380D01*
X92392571Y-41092380D01*
X93202095Y-40187619D02*
X93249714Y-40140000D01*
X93344952Y-40092380D01*
X93583047Y-40092380D01*
X93678285Y-40140000D01*
X93725904Y-40187619D01*
X93773523Y-40282857D01*
X93773523Y-40378095D01*
X93725904Y-40520952D01*
X93154476Y-41092380D01*
X93773523Y-41092380D01*
G04 #@! TO.C,R1*
X75703133Y-61945780D02*
X75369800Y-61469590D01*
X75131704Y-61945780D02*
X75131704Y-60945780D01*
X75512657Y-60945780D01*
X75607895Y-60993400D01*
X75655514Y-61041019D01*
X75703133Y-61136257D01*
X75703133Y-61279114D01*
X75655514Y-61374352D01*
X75607895Y-61421971D01*
X75512657Y-61469590D01*
X75131704Y-61469590D01*
X76655514Y-61945780D02*
X76084085Y-61945780D01*
X76369800Y-61945780D02*
X76369800Y-60945780D01*
X76274561Y-61088638D01*
X76179323Y-61183876D01*
X76084085Y-61231495D01*
G04 #@! TO.C,R2*
X75652333Y-64079380D02*
X75319000Y-63603190D01*
X75080904Y-64079380D02*
X75080904Y-63079380D01*
X75461857Y-63079380D01*
X75557095Y-63127000D01*
X75604714Y-63174619D01*
X75652333Y-63269857D01*
X75652333Y-63412714D01*
X75604714Y-63507952D01*
X75557095Y-63555571D01*
X75461857Y-63603190D01*
X75080904Y-63603190D01*
X76033285Y-63174619D02*
X76080904Y-63127000D01*
X76176142Y-63079380D01*
X76414238Y-63079380D01*
X76509476Y-63127000D01*
X76557095Y-63174619D01*
X76604714Y-63269857D01*
X76604714Y-63365095D01*
X76557095Y-63507952D01*
X75985666Y-64079380D01*
X76604714Y-64079380D01*
G04 #@! TO.C,R5*
X103246180Y-63895266D02*
X102769990Y-64228600D01*
X103246180Y-64466695D02*
X102246180Y-64466695D01*
X102246180Y-64085742D01*
X102293800Y-63990504D01*
X102341419Y-63942885D01*
X102436657Y-63895266D01*
X102579514Y-63895266D01*
X102674752Y-63942885D01*
X102722371Y-63990504D01*
X102769990Y-64085742D01*
X102769990Y-64466695D01*
X102246180Y-62990504D02*
X102246180Y-63466695D01*
X102722371Y-63514314D01*
X102674752Y-63466695D01*
X102627133Y-63371457D01*
X102627133Y-63133361D01*
X102674752Y-63038123D01*
X102722371Y-62990504D01*
X102817609Y-62942885D01*
X103055704Y-62942885D01*
X103150942Y-62990504D01*
X103198561Y-63038123D01*
X103246180Y-63133361D01*
X103246180Y-63371457D01*
X103198561Y-63466695D01*
X103150942Y-63514314D01*
G04 #@! TO.C,R9*
X82637333Y-61158380D02*
X82304000Y-60682190D01*
X82065904Y-61158380D02*
X82065904Y-60158380D01*
X82446857Y-60158380D01*
X82542095Y-60206000D01*
X82589714Y-60253619D01*
X82637333Y-60348857D01*
X82637333Y-60491714D01*
X82589714Y-60586952D01*
X82542095Y-60634571D01*
X82446857Y-60682190D01*
X82065904Y-60682190D01*
X83113523Y-61158380D02*
X83304000Y-61158380D01*
X83399238Y-61110761D01*
X83446857Y-61063142D01*
X83542095Y-60920285D01*
X83589714Y-60729809D01*
X83589714Y-60348857D01*
X83542095Y-60253619D01*
X83494476Y-60206000D01*
X83399238Y-60158380D01*
X83208761Y-60158380D01*
X83113523Y-60206000D01*
X83065904Y-60253619D01*
X83018285Y-60348857D01*
X83018285Y-60586952D01*
X83065904Y-60682190D01*
X83113523Y-60729809D01*
X83208761Y-60777428D01*
X83399238Y-60777428D01*
X83494476Y-60729809D01*
X83542095Y-60682190D01*
X83589714Y-60586952D01*
G04 #@! TO.C,R10*
X81653142Y-62682380D02*
X81319809Y-62206190D01*
X81081714Y-62682380D02*
X81081714Y-61682380D01*
X81462666Y-61682380D01*
X81557904Y-61730000D01*
X81605523Y-61777619D01*
X81653142Y-61872857D01*
X81653142Y-62015714D01*
X81605523Y-62110952D01*
X81557904Y-62158571D01*
X81462666Y-62206190D01*
X81081714Y-62206190D01*
X82605523Y-62682380D02*
X82034095Y-62682380D01*
X82319809Y-62682380D02*
X82319809Y-61682380D01*
X82224571Y-61825238D01*
X82129333Y-61920476D01*
X82034095Y-61968095D01*
X83224571Y-61682380D02*
X83319809Y-61682380D01*
X83415047Y-61730000D01*
X83462666Y-61777619D01*
X83510285Y-61872857D01*
X83557904Y-62063333D01*
X83557904Y-62301428D01*
X83510285Y-62491904D01*
X83462666Y-62587142D01*
X83415047Y-62634761D01*
X83319809Y-62682380D01*
X83224571Y-62682380D01*
X83129333Y-62634761D01*
X83081714Y-62587142D01*
X83034095Y-62491904D01*
X82986476Y-62301428D01*
X82986476Y-62063333D01*
X83034095Y-61872857D01*
X83081714Y-61777619D01*
X83129333Y-61730000D01*
X83224571Y-61682380D01*
G04 #@! TO.C,R11*
X92400380Y-74556857D02*
X91924190Y-74890190D01*
X92400380Y-75128285D02*
X91400380Y-75128285D01*
X91400380Y-74747333D01*
X91448000Y-74652095D01*
X91495619Y-74604476D01*
X91590857Y-74556857D01*
X91733714Y-74556857D01*
X91828952Y-74604476D01*
X91876571Y-74652095D01*
X91924190Y-74747333D01*
X91924190Y-75128285D01*
X92400380Y-73604476D02*
X92400380Y-74175904D01*
X92400380Y-73890190D02*
X91400380Y-73890190D01*
X91543238Y-73985428D01*
X91638476Y-74080666D01*
X91686095Y-74175904D01*
X92400380Y-72652095D02*
X92400380Y-73223523D01*
X92400380Y-72937809D02*
X91400380Y-72937809D01*
X91543238Y-73033047D01*
X91638476Y-73128285D01*
X91686095Y-73223523D01*
G04 #@! TO.C,R12*
X104338380Y-77604857D02*
X103862190Y-77938190D01*
X104338380Y-78176285D02*
X103338380Y-78176285D01*
X103338380Y-77795333D01*
X103386000Y-77700095D01*
X103433619Y-77652476D01*
X103528857Y-77604857D01*
X103671714Y-77604857D01*
X103766952Y-77652476D01*
X103814571Y-77700095D01*
X103862190Y-77795333D01*
X103862190Y-78176285D01*
X104338380Y-76652476D02*
X104338380Y-77223904D01*
X104338380Y-76938190D02*
X103338380Y-76938190D01*
X103481238Y-77033428D01*
X103576476Y-77128666D01*
X103624095Y-77223904D01*
X103433619Y-76271523D02*
X103386000Y-76223904D01*
X103338380Y-76128666D01*
X103338380Y-75890571D01*
X103386000Y-75795333D01*
X103433619Y-75747714D01*
X103528857Y-75700095D01*
X103624095Y-75700095D01*
X103766952Y-75747714D01*
X104338380Y-76319142D01*
X104338380Y-75700095D01*
G04 #@! TO.C,R13*
X80208380Y-41790857D02*
X79732190Y-42124190D01*
X80208380Y-42362285D02*
X79208380Y-42362285D01*
X79208380Y-41981333D01*
X79256000Y-41886095D01*
X79303619Y-41838476D01*
X79398857Y-41790857D01*
X79541714Y-41790857D01*
X79636952Y-41838476D01*
X79684571Y-41886095D01*
X79732190Y-41981333D01*
X79732190Y-42362285D01*
X80208380Y-40838476D02*
X80208380Y-41409904D01*
X80208380Y-41124190D02*
X79208380Y-41124190D01*
X79351238Y-41219428D01*
X79446476Y-41314666D01*
X79494095Y-41409904D01*
X79208380Y-40505142D02*
X79208380Y-39886095D01*
X79589333Y-40219428D01*
X79589333Y-40076571D01*
X79636952Y-39981333D01*
X79684571Y-39933714D01*
X79779809Y-39886095D01*
X80017904Y-39886095D01*
X80113142Y-39933714D01*
X80160761Y-39981333D01*
X80208380Y-40076571D01*
X80208380Y-40362285D01*
X80160761Y-40457523D01*
X80113142Y-40505142D01*
G04 #@! TO.C,R14*
X78176380Y-31376857D02*
X77700190Y-31710190D01*
X78176380Y-31948285D02*
X77176380Y-31948285D01*
X77176380Y-31567333D01*
X77224000Y-31472095D01*
X77271619Y-31424476D01*
X77366857Y-31376857D01*
X77509714Y-31376857D01*
X77604952Y-31424476D01*
X77652571Y-31472095D01*
X77700190Y-31567333D01*
X77700190Y-31948285D01*
X78176380Y-30424476D02*
X78176380Y-30995904D01*
X78176380Y-30710190D02*
X77176380Y-30710190D01*
X77319238Y-30805428D01*
X77414476Y-30900666D01*
X77462095Y-30995904D01*
X77509714Y-29567333D02*
X78176380Y-29567333D01*
X77128761Y-29805428D02*
X77843047Y-30043523D01*
X77843047Y-29424476D01*
G04 #@! TO.C,R15*
X77843142Y-44394380D02*
X77509809Y-43918190D01*
X77271714Y-44394380D02*
X77271714Y-43394380D01*
X77652666Y-43394380D01*
X77747904Y-43442000D01*
X77795523Y-43489619D01*
X77843142Y-43584857D01*
X77843142Y-43727714D01*
X77795523Y-43822952D01*
X77747904Y-43870571D01*
X77652666Y-43918190D01*
X77271714Y-43918190D01*
X78795523Y-44394380D02*
X78224095Y-44394380D01*
X78509809Y-44394380D02*
X78509809Y-43394380D01*
X78414571Y-43537238D01*
X78319333Y-43632476D01*
X78224095Y-43680095D01*
X79700285Y-43394380D02*
X79224095Y-43394380D01*
X79176476Y-43870571D01*
X79224095Y-43822952D01*
X79319333Y-43775333D01*
X79557428Y-43775333D01*
X79652666Y-43822952D01*
X79700285Y-43870571D01*
X79747904Y-43965809D01*
X79747904Y-44203904D01*
X79700285Y-44299142D01*
X79652666Y-44346761D01*
X79557428Y-44394380D01*
X79319333Y-44394380D01*
X79224095Y-44346761D01*
X79176476Y-44299142D01*
G04 #@! TO.C,R16*
X82240380Y-41790857D02*
X81764190Y-42124190D01*
X82240380Y-42362285D02*
X81240380Y-42362285D01*
X81240380Y-41981333D01*
X81288000Y-41886095D01*
X81335619Y-41838476D01*
X81430857Y-41790857D01*
X81573714Y-41790857D01*
X81668952Y-41838476D01*
X81716571Y-41886095D01*
X81764190Y-41981333D01*
X81764190Y-42362285D01*
X82240380Y-40838476D02*
X82240380Y-41409904D01*
X82240380Y-41124190D02*
X81240380Y-41124190D01*
X81383238Y-41219428D01*
X81478476Y-41314666D01*
X81526095Y-41409904D01*
X81240380Y-39981333D02*
X81240380Y-40171809D01*
X81288000Y-40267047D01*
X81335619Y-40314666D01*
X81478476Y-40409904D01*
X81668952Y-40457523D01*
X82049904Y-40457523D01*
X82145142Y-40409904D01*
X82192761Y-40362285D01*
X82240380Y-40267047D01*
X82240380Y-40076571D01*
X82192761Y-39981333D01*
X82145142Y-39933714D01*
X82049904Y-39886095D01*
X81811809Y-39886095D01*
X81716571Y-39933714D01*
X81668952Y-39981333D01*
X81621333Y-40076571D01*
X81621333Y-40267047D01*
X81668952Y-40362285D01*
X81716571Y-40409904D01*
X81811809Y-40457523D01*
G04 #@! TO.C,R17*
X86304380Y-41790857D02*
X85828190Y-42124190D01*
X86304380Y-42362285D02*
X85304380Y-42362285D01*
X85304380Y-41981333D01*
X85352000Y-41886095D01*
X85399619Y-41838476D01*
X85494857Y-41790857D01*
X85637714Y-41790857D01*
X85732952Y-41838476D01*
X85780571Y-41886095D01*
X85828190Y-41981333D01*
X85828190Y-42362285D01*
X86304380Y-40838476D02*
X86304380Y-41409904D01*
X86304380Y-41124190D02*
X85304380Y-41124190D01*
X85447238Y-41219428D01*
X85542476Y-41314666D01*
X85590095Y-41409904D01*
X85304380Y-40505142D02*
X85304380Y-39838476D01*
X86304380Y-40267047D01*
G04 #@! TO.C,R18*
X81907142Y-51760380D02*
X81573809Y-51284190D01*
X81335714Y-51760380D02*
X81335714Y-50760380D01*
X81716666Y-50760380D01*
X81811904Y-50808000D01*
X81859523Y-50855619D01*
X81907142Y-50950857D01*
X81907142Y-51093714D01*
X81859523Y-51188952D01*
X81811904Y-51236571D01*
X81716666Y-51284190D01*
X81335714Y-51284190D01*
X82859523Y-51760380D02*
X82288095Y-51760380D01*
X82573809Y-51760380D02*
X82573809Y-50760380D01*
X82478571Y-50903238D01*
X82383333Y-50998476D01*
X82288095Y-51046095D01*
X83430952Y-51188952D02*
X83335714Y-51141333D01*
X83288095Y-51093714D01*
X83240476Y-50998476D01*
X83240476Y-50950857D01*
X83288095Y-50855619D01*
X83335714Y-50808000D01*
X83430952Y-50760380D01*
X83621428Y-50760380D01*
X83716666Y-50808000D01*
X83764285Y-50855619D01*
X83811904Y-50950857D01*
X83811904Y-50998476D01*
X83764285Y-51093714D01*
X83716666Y-51141333D01*
X83621428Y-51188952D01*
X83430952Y-51188952D01*
X83335714Y-51236571D01*
X83288095Y-51284190D01*
X83240476Y-51379428D01*
X83240476Y-51569904D01*
X83288095Y-51665142D01*
X83335714Y-51712761D01*
X83430952Y-51760380D01*
X83621428Y-51760380D01*
X83716666Y-51712761D01*
X83764285Y-51665142D01*
X83811904Y-51569904D01*
X83811904Y-51379428D01*
X83764285Y-51284190D01*
X83716666Y-51236571D01*
X83621428Y-51188952D01*
G04 #@! TO.C,R19*
X86050380Y-47632857D02*
X85574190Y-47966190D01*
X86050380Y-48204285D02*
X85050380Y-48204285D01*
X85050380Y-47823333D01*
X85098000Y-47728095D01*
X85145619Y-47680476D01*
X85240857Y-47632857D01*
X85383714Y-47632857D01*
X85478952Y-47680476D01*
X85526571Y-47728095D01*
X85574190Y-47823333D01*
X85574190Y-48204285D01*
X86050380Y-46680476D02*
X86050380Y-47251904D01*
X86050380Y-46966190D02*
X85050380Y-46966190D01*
X85193238Y-47061428D01*
X85288476Y-47156666D01*
X85336095Y-47251904D01*
X86050380Y-46204285D02*
X86050380Y-46013809D01*
X86002761Y-45918571D01*
X85955142Y-45870952D01*
X85812285Y-45775714D01*
X85621809Y-45728095D01*
X85240857Y-45728095D01*
X85145619Y-45775714D01*
X85098000Y-45823333D01*
X85050380Y-45918571D01*
X85050380Y-46109047D01*
X85098000Y-46204285D01*
X85145619Y-46251904D01*
X85240857Y-46299523D01*
X85478952Y-46299523D01*
X85574190Y-46251904D01*
X85621809Y-46204285D01*
X85669428Y-46109047D01*
X85669428Y-45918571D01*
X85621809Y-45823333D01*
X85574190Y-45775714D01*
X85478952Y-45728095D01*
G04 #@! TO.C,R20*
X89781142Y-33472380D02*
X89447809Y-32996190D01*
X89209714Y-33472380D02*
X89209714Y-32472380D01*
X89590666Y-32472380D01*
X89685904Y-32520000D01*
X89733523Y-32567619D01*
X89781142Y-32662857D01*
X89781142Y-32805714D01*
X89733523Y-32900952D01*
X89685904Y-32948571D01*
X89590666Y-32996190D01*
X89209714Y-32996190D01*
X90162095Y-32567619D02*
X90209714Y-32520000D01*
X90304952Y-32472380D01*
X90543047Y-32472380D01*
X90638285Y-32520000D01*
X90685904Y-32567619D01*
X90733523Y-32662857D01*
X90733523Y-32758095D01*
X90685904Y-32900952D01*
X90114476Y-33472380D01*
X90733523Y-33472380D01*
X91352571Y-32472380D02*
X91447809Y-32472380D01*
X91543047Y-32520000D01*
X91590666Y-32567619D01*
X91638285Y-32662857D01*
X91685904Y-32853333D01*
X91685904Y-33091428D01*
X91638285Y-33281904D01*
X91590666Y-33377142D01*
X91543047Y-33424761D01*
X91447809Y-33472380D01*
X91352571Y-33472380D01*
X91257333Y-33424761D01*
X91209714Y-33377142D01*
X91162095Y-33281904D01*
X91114476Y-33091428D01*
X91114476Y-32853333D01*
X91162095Y-32662857D01*
X91209714Y-32567619D01*
X91257333Y-32520000D01*
X91352571Y-32472380D01*
G04 #@! TO.C,R21*
X94178380Y-31122857D02*
X93702190Y-31456190D01*
X94178380Y-31694285D02*
X93178380Y-31694285D01*
X93178380Y-31313333D01*
X93226000Y-31218095D01*
X93273619Y-31170476D01*
X93368857Y-31122857D01*
X93511714Y-31122857D01*
X93606952Y-31170476D01*
X93654571Y-31218095D01*
X93702190Y-31313333D01*
X93702190Y-31694285D01*
X93273619Y-30741904D02*
X93226000Y-30694285D01*
X93178380Y-30599047D01*
X93178380Y-30360952D01*
X93226000Y-30265714D01*
X93273619Y-30218095D01*
X93368857Y-30170476D01*
X93464095Y-30170476D01*
X93606952Y-30218095D01*
X94178380Y-30789523D01*
X94178380Y-30170476D01*
X94178380Y-29218095D02*
X94178380Y-29789523D01*
X94178380Y-29503809D02*
X93178380Y-29503809D01*
X93321238Y-29599047D01*
X93416476Y-29694285D01*
X93464095Y-29789523D01*
G04 #@! TO.C,R22*
X96210380Y-31122857D02*
X95734190Y-31456190D01*
X96210380Y-31694285D02*
X95210380Y-31694285D01*
X95210380Y-31313333D01*
X95258000Y-31218095D01*
X95305619Y-31170476D01*
X95400857Y-31122857D01*
X95543714Y-31122857D01*
X95638952Y-31170476D01*
X95686571Y-31218095D01*
X95734190Y-31313333D01*
X95734190Y-31694285D01*
X95305619Y-30741904D02*
X95258000Y-30694285D01*
X95210380Y-30599047D01*
X95210380Y-30360952D01*
X95258000Y-30265714D01*
X95305619Y-30218095D01*
X95400857Y-30170476D01*
X95496095Y-30170476D01*
X95638952Y-30218095D01*
X96210380Y-30789523D01*
X96210380Y-30170476D01*
X95305619Y-29789523D02*
X95258000Y-29741904D01*
X95210380Y-29646666D01*
X95210380Y-29408571D01*
X95258000Y-29313333D01*
X95305619Y-29265714D01*
X95400857Y-29218095D01*
X95496095Y-29218095D01*
X95638952Y-29265714D01*
X96210380Y-29837142D01*
X96210380Y-29218095D01*
G04 #@! TO.C,U1*
X85979095Y-43013380D02*
X85979095Y-43822904D01*
X86026714Y-43918142D01*
X86074333Y-43965761D01*
X86169571Y-44013380D01*
X86360047Y-44013380D01*
X86455285Y-43965761D01*
X86502904Y-43918142D01*
X86550523Y-43822904D01*
X86550523Y-43013380D01*
X87550523Y-44013380D02*
X86979095Y-44013380D01*
X87264809Y-44013380D02*
X87264809Y-43013380D01*
X87169571Y-43156238D01*
X87074333Y-43251476D01*
X86979095Y-43299095D01*
G04 #@! TO.C,U2*
X81280095Y-52538380D02*
X81280095Y-53347904D01*
X81327714Y-53443142D01*
X81375333Y-53490761D01*
X81470571Y-53538380D01*
X81661047Y-53538380D01*
X81756285Y-53490761D01*
X81803904Y-53443142D01*
X81851523Y-53347904D01*
X81851523Y-52538380D01*
X82280095Y-52633619D02*
X82327714Y-52586000D01*
X82422952Y-52538380D01*
X82661047Y-52538380D01*
X82756285Y-52586000D01*
X82803904Y-52633619D01*
X82851523Y-52728857D01*
X82851523Y-52824095D01*
X82803904Y-52966952D01*
X82232476Y-53538380D01*
X82851523Y-53538380D01*
G04 #@! TO.C,U3*
X80732380Y-66293904D02*
X81541904Y-66293904D01*
X81637142Y-66246285D01*
X81684761Y-66198666D01*
X81732380Y-66103428D01*
X81732380Y-65912952D01*
X81684761Y-65817714D01*
X81637142Y-65770095D01*
X81541904Y-65722476D01*
X80732380Y-65722476D01*
X80732380Y-65341523D02*
X80732380Y-64722476D01*
X81113333Y-65055809D01*
X81113333Y-64912952D01*
X81160952Y-64817714D01*
X81208571Y-64770095D01*
X81303809Y-64722476D01*
X81541904Y-64722476D01*
X81637142Y-64770095D01*
X81684761Y-64817714D01*
X81732380Y-64912952D01*
X81732380Y-65198666D01*
X81684761Y-65293904D01*
X81637142Y-65341523D01*
G04 #@! TO.C,U4*
X98298095Y-71842380D02*
X98298095Y-72651904D01*
X98345714Y-72747142D01*
X98393333Y-72794761D01*
X98488571Y-72842380D01*
X98679047Y-72842380D01*
X98774285Y-72794761D01*
X98821904Y-72747142D01*
X98869523Y-72651904D01*
X98869523Y-71842380D01*
X99774285Y-72175714D02*
X99774285Y-72842380D01*
X99536190Y-71794761D02*
X99298095Y-72509047D01*
X99917142Y-72509047D01*
G04 #@! TO.C,U5*
X81788095Y-43648380D02*
X81788095Y-44457904D01*
X81835714Y-44553142D01*
X81883333Y-44600761D01*
X81978571Y-44648380D01*
X82169047Y-44648380D01*
X82264285Y-44600761D01*
X82311904Y-44553142D01*
X82359523Y-44457904D01*
X82359523Y-43648380D01*
X83311904Y-43648380D02*
X82835714Y-43648380D01*
X82788095Y-44124571D01*
X82835714Y-44076952D01*
X82930952Y-44029333D01*
X83169047Y-44029333D01*
X83264285Y-44076952D01*
X83311904Y-44124571D01*
X83359523Y-44219809D01*
X83359523Y-44457904D01*
X83311904Y-44553142D01*
X83264285Y-44600761D01*
X83169047Y-44648380D01*
X82930952Y-44648380D01*
X82835714Y-44600761D01*
X82788095Y-44553142D01*
G04 #@! TO.C,R23*
X81986380Y-74302857D02*
X81510190Y-74636190D01*
X81986380Y-74874285D02*
X80986380Y-74874285D01*
X80986380Y-74493333D01*
X81034000Y-74398095D01*
X81081619Y-74350476D01*
X81176857Y-74302857D01*
X81319714Y-74302857D01*
X81414952Y-74350476D01*
X81462571Y-74398095D01*
X81510190Y-74493333D01*
X81510190Y-74874285D01*
X81081619Y-73921904D02*
X81034000Y-73874285D01*
X80986380Y-73779047D01*
X80986380Y-73540952D01*
X81034000Y-73445714D01*
X81081619Y-73398095D01*
X81176857Y-73350476D01*
X81272095Y-73350476D01*
X81414952Y-73398095D01*
X81986380Y-73969523D01*
X81986380Y-73350476D01*
X80986380Y-73017142D02*
X80986380Y-72398095D01*
X81367333Y-72731428D01*
X81367333Y-72588571D01*
X81414952Y-72493333D01*
X81462571Y-72445714D01*
X81557809Y-72398095D01*
X81795904Y-72398095D01*
X81891142Y-72445714D01*
X81938761Y-72493333D01*
X81986380Y-72588571D01*
X81986380Y-72874285D01*
X81938761Y-72969523D01*
X81891142Y-73017142D01*
G04 #@! TO.C,D12*
X110434380Y-70556285D02*
X109434380Y-70556285D01*
X109434380Y-70318190D01*
X109482000Y-70175333D01*
X109577238Y-70080095D01*
X109672476Y-70032476D01*
X109862952Y-69984857D01*
X110005809Y-69984857D01*
X110196285Y-70032476D01*
X110291523Y-70080095D01*
X110386761Y-70175333D01*
X110434380Y-70318190D01*
X110434380Y-70556285D01*
X110434380Y-69032476D02*
X110434380Y-69603904D01*
X110434380Y-69318190D02*
X109434380Y-69318190D01*
X109577238Y-69413428D01*
X109672476Y-69508666D01*
X109720095Y-69603904D01*
X109529619Y-68651523D02*
X109482000Y-68603904D01*
X109434380Y-68508666D01*
X109434380Y-68270571D01*
X109482000Y-68175333D01*
X109529619Y-68127714D01*
X109624857Y-68080095D01*
X109720095Y-68080095D01*
X109862952Y-68127714D01*
X110434380Y-68699142D01*
X110434380Y-68080095D01*
G04 #@! TO.C,D13*
X108402380Y-70556285D02*
X107402380Y-70556285D01*
X107402380Y-70318190D01*
X107450000Y-70175333D01*
X107545238Y-70080095D01*
X107640476Y-70032476D01*
X107830952Y-69984857D01*
X107973809Y-69984857D01*
X108164285Y-70032476D01*
X108259523Y-70080095D01*
X108354761Y-70175333D01*
X108402380Y-70318190D01*
X108402380Y-70556285D01*
X108402380Y-69032476D02*
X108402380Y-69603904D01*
X108402380Y-69318190D02*
X107402380Y-69318190D01*
X107545238Y-69413428D01*
X107640476Y-69508666D01*
X107688095Y-69603904D01*
X107402380Y-68699142D02*
X107402380Y-68080095D01*
X107783333Y-68413428D01*
X107783333Y-68270571D01*
X107830952Y-68175333D01*
X107878571Y-68127714D01*
X107973809Y-68080095D01*
X108211904Y-68080095D01*
X108307142Y-68127714D01*
X108354761Y-68175333D01*
X108402380Y-68270571D01*
X108402380Y-68556285D01*
X108354761Y-68651523D01*
X108307142Y-68699142D01*
G04 #@! TO.C,D14*
X106370380Y-70556285D02*
X105370380Y-70556285D01*
X105370380Y-70318190D01*
X105418000Y-70175333D01*
X105513238Y-70080095D01*
X105608476Y-70032476D01*
X105798952Y-69984857D01*
X105941809Y-69984857D01*
X106132285Y-70032476D01*
X106227523Y-70080095D01*
X106322761Y-70175333D01*
X106370380Y-70318190D01*
X106370380Y-70556285D01*
X106370380Y-69032476D02*
X106370380Y-69603904D01*
X106370380Y-69318190D02*
X105370380Y-69318190D01*
X105513238Y-69413428D01*
X105608476Y-69508666D01*
X105656095Y-69603904D01*
X105703714Y-68175333D02*
X106370380Y-68175333D01*
X105322761Y-68413428D02*
X106037047Y-68651523D01*
X106037047Y-68032476D01*
G04 #@! TO.C,R6*
X110434380Y-76620666D02*
X109958190Y-76954000D01*
X110434380Y-77192095D02*
X109434380Y-77192095D01*
X109434380Y-76811142D01*
X109482000Y-76715904D01*
X109529619Y-76668285D01*
X109624857Y-76620666D01*
X109767714Y-76620666D01*
X109862952Y-76668285D01*
X109910571Y-76715904D01*
X109958190Y-76811142D01*
X109958190Y-77192095D01*
X109434380Y-75763523D02*
X109434380Y-75954000D01*
X109482000Y-76049238D01*
X109529619Y-76096857D01*
X109672476Y-76192095D01*
X109862952Y-76239714D01*
X110243904Y-76239714D01*
X110339142Y-76192095D01*
X110386761Y-76144476D01*
X110434380Y-76049238D01*
X110434380Y-75858761D01*
X110386761Y-75763523D01*
X110339142Y-75715904D01*
X110243904Y-75668285D01*
X110005809Y-75668285D01*
X109910571Y-75715904D01*
X109862952Y-75763523D01*
X109815333Y-75858761D01*
X109815333Y-76049238D01*
X109862952Y-76144476D01*
X109910571Y-76192095D01*
X110005809Y-76239714D01*
G04 #@! TO.C,R7*
X108402380Y-76620666D02*
X107926190Y-76954000D01*
X108402380Y-77192095D02*
X107402380Y-77192095D01*
X107402380Y-76811142D01*
X107450000Y-76715904D01*
X107497619Y-76668285D01*
X107592857Y-76620666D01*
X107735714Y-76620666D01*
X107830952Y-76668285D01*
X107878571Y-76715904D01*
X107926190Y-76811142D01*
X107926190Y-77192095D01*
X107402380Y-76287333D02*
X107402380Y-75620666D01*
X108402380Y-76049238D01*
G04 #@! TO.C,R8*
X106370380Y-76620666D02*
X105894190Y-76954000D01*
X106370380Y-77192095D02*
X105370380Y-77192095D01*
X105370380Y-76811142D01*
X105418000Y-76715904D01*
X105465619Y-76668285D01*
X105560857Y-76620666D01*
X105703714Y-76620666D01*
X105798952Y-76668285D01*
X105846571Y-76715904D01*
X105894190Y-76811142D01*
X105894190Y-77192095D01*
X105798952Y-76049238D02*
X105751333Y-76144476D01*
X105703714Y-76192095D01*
X105608476Y-76239714D01*
X105560857Y-76239714D01*
X105465619Y-76192095D01*
X105418000Y-76144476D01*
X105370380Y-76049238D01*
X105370380Y-75858761D01*
X105418000Y-75763523D01*
X105465619Y-75715904D01*
X105560857Y-75668285D01*
X105608476Y-75668285D01*
X105703714Y-75715904D01*
X105751333Y-75763523D01*
X105798952Y-75858761D01*
X105798952Y-76049238D01*
X105846571Y-76144476D01*
X105894190Y-76192095D01*
X105989428Y-76239714D01*
X106179904Y-76239714D01*
X106275142Y-76192095D01*
X106322761Y-76144476D01*
X106370380Y-76049238D01*
X106370380Y-75858761D01*
X106322761Y-75763523D01*
X106275142Y-75715904D01*
X106179904Y-75668285D01*
X105989428Y-75668285D01*
X105894190Y-75715904D01*
X105846571Y-75763523D01*
X105798952Y-75858761D01*
G04 #@! TO.C,C4*
X100941142Y-57316666D02*
X100988761Y-57364285D01*
X101036380Y-57507142D01*
X101036380Y-57602380D01*
X100988761Y-57745238D01*
X100893523Y-57840476D01*
X100798285Y-57888095D01*
X100607809Y-57935714D01*
X100464952Y-57935714D01*
X100274476Y-57888095D01*
X100179238Y-57840476D01*
X100084000Y-57745238D01*
X100036380Y-57602380D01*
X100036380Y-57507142D01*
X100084000Y-57364285D01*
X100131619Y-57316666D01*
X100369714Y-56459523D02*
X101036380Y-56459523D01*
X99988761Y-56697619D02*
X100703047Y-56935714D01*
X100703047Y-56316666D01*
G04 #@! TO.C,C5*
X83145333Y-77827142D02*
X83097714Y-77874761D01*
X82954857Y-77922380D01*
X82859619Y-77922380D01*
X82716761Y-77874761D01*
X82621523Y-77779523D01*
X82573904Y-77684285D01*
X82526285Y-77493809D01*
X82526285Y-77350952D01*
X82573904Y-77160476D01*
X82621523Y-77065238D01*
X82716761Y-76970000D01*
X82859619Y-76922380D01*
X82954857Y-76922380D01*
X83097714Y-76970000D01*
X83145333Y-77017619D01*
X84050095Y-76922380D02*
X83573904Y-76922380D01*
X83526285Y-77398571D01*
X83573904Y-77350952D01*
X83669142Y-77303333D01*
X83907238Y-77303333D01*
X84002476Y-77350952D01*
X84050095Y-77398571D01*
X84097714Y-77493809D01*
X84097714Y-77731904D01*
X84050095Y-77827142D01*
X84002476Y-77874761D01*
X83907238Y-77922380D01*
X83669142Y-77922380D01*
X83573904Y-77874761D01*
X83526285Y-77827142D01*
G04 #@! TO.C,C3*
X99671142Y-34710666D02*
X99718761Y-34758285D01*
X99766380Y-34901142D01*
X99766380Y-34996380D01*
X99718761Y-35139238D01*
X99623523Y-35234476D01*
X99528285Y-35282095D01*
X99337809Y-35329714D01*
X99194952Y-35329714D01*
X99004476Y-35282095D01*
X98909238Y-35234476D01*
X98814000Y-35139238D01*
X98766380Y-34996380D01*
X98766380Y-34901142D01*
X98814000Y-34758285D01*
X98861619Y-34710666D01*
X98766380Y-34377333D02*
X98766380Y-33758285D01*
X99147333Y-34091619D01*
X99147333Y-33948761D01*
X99194952Y-33853523D01*
X99242571Y-33805904D01*
X99337809Y-33758285D01*
X99575904Y-33758285D01*
X99671142Y-33805904D01*
X99718761Y-33853523D01*
X99766380Y-33948761D01*
X99766380Y-34234476D01*
X99718761Y-34329714D01*
X99671142Y-34377333D01*
G04 #@! TO.C,U6*
X98893380Y-37591904D02*
X99702904Y-37591904D01*
X99798142Y-37544285D01*
X99845761Y-37496666D01*
X99893380Y-37401428D01*
X99893380Y-37210952D01*
X99845761Y-37115714D01*
X99798142Y-37068095D01*
X99702904Y-37020476D01*
X98893380Y-37020476D01*
X98893380Y-36115714D02*
X98893380Y-36306190D01*
X98941000Y-36401428D01*
X98988619Y-36449047D01*
X99131476Y-36544285D01*
X99321952Y-36591904D01*
X99702904Y-36591904D01*
X99798142Y-36544285D01*
X99845761Y-36496666D01*
X99893380Y-36401428D01*
X99893380Y-36210952D01*
X99845761Y-36115714D01*
X99798142Y-36068095D01*
X99702904Y-36020476D01*
X99464809Y-36020476D01*
X99369571Y-36068095D01*
X99321952Y-36115714D01*
X99274333Y-36210952D01*
X99274333Y-36401428D01*
X99321952Y-36496666D01*
X99369571Y-36544285D01*
X99464809Y-36591904D01*
G04 #@! TO.C,C19*
X64889142Y-73890142D02*
X64841523Y-73937761D01*
X64698666Y-73985380D01*
X64603428Y-73985380D01*
X64460571Y-73937761D01*
X64365333Y-73842523D01*
X64317714Y-73747285D01*
X64270095Y-73556809D01*
X64270095Y-73413952D01*
X64317714Y-73223476D01*
X64365333Y-73128238D01*
X64460571Y-73033000D01*
X64603428Y-72985380D01*
X64698666Y-72985380D01*
X64841523Y-73033000D01*
X64889142Y-73080619D01*
X65841523Y-73985380D02*
X65270095Y-73985380D01*
X65555809Y-73985380D02*
X65555809Y-72985380D01*
X65460571Y-73128238D01*
X65365333Y-73223476D01*
X65270095Y-73271095D01*
X66317714Y-73985380D02*
X66508190Y-73985380D01*
X66603428Y-73937761D01*
X66651047Y-73890142D01*
X66746285Y-73747285D01*
X66793904Y-73556809D01*
X66793904Y-73175857D01*
X66746285Y-73080619D01*
X66698666Y-73033000D01*
X66603428Y-72985380D01*
X66412952Y-72985380D01*
X66317714Y-73033000D01*
X66270095Y-73080619D01*
X66222476Y-73175857D01*
X66222476Y-73413952D01*
X66270095Y-73509190D01*
X66317714Y-73556809D01*
X66412952Y-73604428D01*
X66603428Y-73604428D01*
X66698666Y-73556809D01*
X66746285Y-73509190D01*
X66793904Y-73413952D01*
G04 #@! TO.C,C20*
X64889142Y-75160142D02*
X64841523Y-75207761D01*
X64698666Y-75255380D01*
X64603428Y-75255380D01*
X64460571Y-75207761D01*
X64365333Y-75112523D01*
X64317714Y-75017285D01*
X64270095Y-74826809D01*
X64270095Y-74683952D01*
X64317714Y-74493476D01*
X64365333Y-74398238D01*
X64460571Y-74303000D01*
X64603428Y-74255380D01*
X64698666Y-74255380D01*
X64841523Y-74303000D01*
X64889142Y-74350619D01*
X65270095Y-74350619D02*
X65317714Y-74303000D01*
X65412952Y-74255380D01*
X65651047Y-74255380D01*
X65746285Y-74303000D01*
X65793904Y-74350619D01*
X65841523Y-74445857D01*
X65841523Y-74541095D01*
X65793904Y-74683952D01*
X65222476Y-75255380D01*
X65841523Y-75255380D01*
X66460571Y-74255380D02*
X66555809Y-74255380D01*
X66651047Y-74303000D01*
X66698666Y-74350619D01*
X66746285Y-74445857D01*
X66793904Y-74636333D01*
X66793904Y-74874428D01*
X66746285Y-75064904D01*
X66698666Y-75160142D01*
X66651047Y-75207761D01*
X66555809Y-75255380D01*
X66460571Y-75255380D01*
X66365333Y-75207761D01*
X66317714Y-75160142D01*
X66270095Y-75064904D01*
X66222476Y-74874428D01*
X66222476Y-74636333D01*
X66270095Y-74445857D01*
X66317714Y-74350619D01*
X66365333Y-74303000D01*
X66460571Y-74255380D01*
G04 #@! TO.C,R3*
X64857333Y-70175380D02*
X64524000Y-69699190D01*
X64285904Y-70175380D02*
X64285904Y-69175380D01*
X64666857Y-69175380D01*
X64762095Y-69223000D01*
X64809714Y-69270619D01*
X64857333Y-69365857D01*
X64857333Y-69508714D01*
X64809714Y-69603952D01*
X64762095Y-69651571D01*
X64666857Y-69699190D01*
X64285904Y-69699190D01*
X65190666Y-69175380D02*
X65809714Y-69175380D01*
X65476380Y-69556333D01*
X65619238Y-69556333D01*
X65714476Y-69603952D01*
X65762095Y-69651571D01*
X65809714Y-69746809D01*
X65809714Y-69984904D01*
X65762095Y-70080142D01*
X65714476Y-70127761D01*
X65619238Y-70175380D01*
X65333523Y-70175380D01*
X65238285Y-70127761D01*
X65190666Y-70080142D01*
G04 #@! TO.C,R4*
X68413333Y-53919380D02*
X68080000Y-53443190D01*
X67841904Y-53919380D02*
X67841904Y-52919380D01*
X68222857Y-52919380D01*
X68318095Y-52967000D01*
X68365714Y-53014619D01*
X68413333Y-53109857D01*
X68413333Y-53252714D01*
X68365714Y-53347952D01*
X68318095Y-53395571D01*
X68222857Y-53443190D01*
X67841904Y-53443190D01*
X69270476Y-53252714D02*
X69270476Y-53919380D01*
X69032380Y-52871761D02*
X68794285Y-53586047D01*
X69413333Y-53586047D01*
G04 #@! TO.C,R24*
X64889142Y-76525380D02*
X64555809Y-76049190D01*
X64317714Y-76525380D02*
X64317714Y-75525380D01*
X64698666Y-75525380D01*
X64793904Y-75573000D01*
X64841523Y-75620619D01*
X64889142Y-75715857D01*
X64889142Y-75858714D01*
X64841523Y-75953952D01*
X64793904Y-76001571D01*
X64698666Y-76049190D01*
X64317714Y-76049190D01*
X65270095Y-75620619D02*
X65317714Y-75573000D01*
X65412952Y-75525380D01*
X65651047Y-75525380D01*
X65746285Y-75573000D01*
X65793904Y-75620619D01*
X65841523Y-75715857D01*
X65841523Y-75811095D01*
X65793904Y-75953952D01*
X65222476Y-76525380D01*
X65841523Y-76525380D01*
X66698666Y-75858714D02*
X66698666Y-76525380D01*
X66460571Y-75477761D02*
X66222476Y-76192047D01*
X66841523Y-76192047D01*
G04 #@! TO.C,R25*
X64889142Y-77795380D02*
X64555809Y-77319190D01*
X64317714Y-77795380D02*
X64317714Y-76795380D01*
X64698666Y-76795380D01*
X64793904Y-76843000D01*
X64841523Y-76890619D01*
X64889142Y-76985857D01*
X64889142Y-77128714D01*
X64841523Y-77223952D01*
X64793904Y-77271571D01*
X64698666Y-77319190D01*
X64317714Y-77319190D01*
X65270095Y-76890619D02*
X65317714Y-76843000D01*
X65412952Y-76795380D01*
X65651047Y-76795380D01*
X65746285Y-76843000D01*
X65793904Y-76890619D01*
X65841523Y-76985857D01*
X65841523Y-77081095D01*
X65793904Y-77223952D01*
X65222476Y-77795380D01*
X65841523Y-77795380D01*
X66746285Y-76795380D02*
X66270095Y-76795380D01*
X66222476Y-77271571D01*
X66270095Y-77223952D01*
X66365333Y-77176333D01*
X66603428Y-77176333D01*
X66698666Y-77223952D01*
X66746285Y-77271571D01*
X66793904Y-77366809D01*
X66793904Y-77604904D01*
X66746285Y-77700142D01*
X66698666Y-77747761D01*
X66603428Y-77795380D01*
X66365333Y-77795380D01*
X66270095Y-77747761D01*
X66222476Y-77700142D01*
G04 #@! TO.C,R26*
X64889142Y-71445380D02*
X64555809Y-70969190D01*
X64317714Y-71445380D02*
X64317714Y-70445380D01*
X64698666Y-70445380D01*
X64793904Y-70493000D01*
X64841523Y-70540619D01*
X64889142Y-70635857D01*
X64889142Y-70778714D01*
X64841523Y-70873952D01*
X64793904Y-70921571D01*
X64698666Y-70969190D01*
X64317714Y-70969190D01*
X65270095Y-70540619D02*
X65317714Y-70493000D01*
X65412952Y-70445380D01*
X65651047Y-70445380D01*
X65746285Y-70493000D01*
X65793904Y-70540619D01*
X65841523Y-70635857D01*
X65841523Y-70731095D01*
X65793904Y-70873952D01*
X65222476Y-71445380D01*
X65841523Y-71445380D01*
X66698666Y-70445380D02*
X66508190Y-70445380D01*
X66412952Y-70493000D01*
X66365333Y-70540619D01*
X66270095Y-70683476D01*
X66222476Y-70873952D01*
X66222476Y-71254904D01*
X66270095Y-71350142D01*
X66317714Y-71397761D01*
X66412952Y-71445380D01*
X66603428Y-71445380D01*
X66698666Y-71397761D01*
X66746285Y-71350142D01*
X66793904Y-71254904D01*
X66793904Y-71016809D01*
X66746285Y-70921571D01*
X66698666Y-70873952D01*
X66603428Y-70826333D01*
X66412952Y-70826333D01*
X66317714Y-70873952D01*
X66270095Y-70921571D01*
X66222476Y-71016809D01*
G04 #@! TO.C,R27*
X69438780Y-71839057D02*
X68962590Y-72172390D01*
X69438780Y-72410485D02*
X68438780Y-72410485D01*
X68438780Y-72029533D01*
X68486400Y-71934295D01*
X68534019Y-71886676D01*
X68629257Y-71839057D01*
X68772114Y-71839057D01*
X68867352Y-71886676D01*
X68914971Y-71934295D01*
X68962590Y-72029533D01*
X68962590Y-72410485D01*
X68534019Y-71458104D02*
X68486400Y-71410485D01*
X68438780Y-71315247D01*
X68438780Y-71077152D01*
X68486400Y-70981914D01*
X68534019Y-70934295D01*
X68629257Y-70886676D01*
X68724495Y-70886676D01*
X68867352Y-70934295D01*
X69438780Y-71505723D01*
X69438780Y-70886676D01*
X68438780Y-70553342D02*
X68438780Y-69886676D01*
X69438780Y-70315247D01*
G04 #@! TO.C,R28*
X64889142Y-72715380D02*
X64555809Y-72239190D01*
X64317714Y-72715380D02*
X64317714Y-71715380D01*
X64698666Y-71715380D01*
X64793904Y-71763000D01*
X64841523Y-71810619D01*
X64889142Y-71905857D01*
X64889142Y-72048714D01*
X64841523Y-72143952D01*
X64793904Y-72191571D01*
X64698666Y-72239190D01*
X64317714Y-72239190D01*
X65270095Y-71810619D02*
X65317714Y-71763000D01*
X65412952Y-71715380D01*
X65651047Y-71715380D01*
X65746285Y-71763000D01*
X65793904Y-71810619D01*
X65841523Y-71905857D01*
X65841523Y-72001095D01*
X65793904Y-72143952D01*
X65222476Y-72715380D01*
X65841523Y-72715380D01*
X66412952Y-72143952D02*
X66317714Y-72096333D01*
X66270095Y-72048714D01*
X66222476Y-71953476D01*
X66222476Y-71905857D01*
X66270095Y-71810619D01*
X66317714Y-71763000D01*
X66412952Y-71715380D01*
X66603428Y-71715380D01*
X66698666Y-71763000D01*
X66746285Y-71810619D01*
X66793904Y-71905857D01*
X66793904Y-71953476D01*
X66746285Y-72048714D01*
X66698666Y-72096333D01*
X66603428Y-72143952D01*
X66412952Y-72143952D01*
X66317714Y-72191571D01*
X66270095Y-72239190D01*
X66222476Y-72334428D01*
X66222476Y-72524904D01*
X66270095Y-72620142D01*
X66317714Y-72667761D01*
X66412952Y-72715380D01*
X66603428Y-72715380D01*
X66698666Y-72667761D01*
X66746285Y-72620142D01*
X66793904Y-72524904D01*
X66793904Y-72334428D01*
X66746285Y-72239190D01*
X66698666Y-72191571D01*
X66603428Y-72143952D01*
G04 #@! TO.C,R29*
X71318380Y-71889857D02*
X70842190Y-72223190D01*
X71318380Y-72461285D02*
X70318380Y-72461285D01*
X70318380Y-72080333D01*
X70366000Y-71985095D01*
X70413619Y-71937476D01*
X70508857Y-71889857D01*
X70651714Y-71889857D01*
X70746952Y-71937476D01*
X70794571Y-71985095D01*
X70842190Y-72080333D01*
X70842190Y-72461285D01*
X70413619Y-71508904D02*
X70366000Y-71461285D01*
X70318380Y-71366047D01*
X70318380Y-71127952D01*
X70366000Y-71032714D01*
X70413619Y-70985095D01*
X70508857Y-70937476D01*
X70604095Y-70937476D01*
X70746952Y-70985095D01*
X71318380Y-71556523D01*
X71318380Y-70937476D01*
X71318380Y-70461285D02*
X71318380Y-70270809D01*
X71270761Y-70175571D01*
X71223142Y-70127952D01*
X71080285Y-70032714D01*
X70889809Y-69985095D01*
X70508857Y-69985095D01*
X70413619Y-70032714D01*
X70366000Y-70080333D01*
X70318380Y-70175571D01*
X70318380Y-70366047D01*
X70366000Y-70461285D01*
X70413619Y-70508904D01*
X70508857Y-70556523D01*
X70746952Y-70556523D01*
X70842190Y-70508904D01*
X70889809Y-70461285D01*
X70937428Y-70366047D01*
X70937428Y-70175571D01*
X70889809Y-70080333D01*
X70842190Y-70032714D01*
X70746952Y-69985095D01*
G04 #@! TO.C,R30*
X72966342Y-55900580D02*
X72633009Y-55424390D01*
X72394914Y-55900580D02*
X72394914Y-54900580D01*
X72775866Y-54900580D01*
X72871104Y-54948200D01*
X72918723Y-54995819D01*
X72966342Y-55091057D01*
X72966342Y-55233914D01*
X72918723Y-55329152D01*
X72871104Y-55376771D01*
X72775866Y-55424390D01*
X72394914Y-55424390D01*
X73299676Y-54900580D02*
X73918723Y-54900580D01*
X73585390Y-55281533D01*
X73728247Y-55281533D01*
X73823485Y-55329152D01*
X73871104Y-55376771D01*
X73918723Y-55472009D01*
X73918723Y-55710104D01*
X73871104Y-55805342D01*
X73823485Y-55852961D01*
X73728247Y-55900580D01*
X73442533Y-55900580D01*
X73347295Y-55852961D01*
X73299676Y-55805342D01*
X74537771Y-54900580D02*
X74633009Y-54900580D01*
X74728247Y-54948200D01*
X74775866Y-54995819D01*
X74823485Y-55091057D01*
X74871104Y-55281533D01*
X74871104Y-55519628D01*
X74823485Y-55710104D01*
X74775866Y-55805342D01*
X74728247Y-55852961D01*
X74633009Y-55900580D01*
X74537771Y-55900580D01*
X74442533Y-55852961D01*
X74394914Y-55805342D01*
X74347295Y-55710104D01*
X74299676Y-55519628D01*
X74299676Y-55281533D01*
X74347295Y-55091057D01*
X74394914Y-54995819D01*
X74442533Y-54948200D01*
X74537771Y-54900580D01*
G04 #@! TO.C,R31*
X73017142Y-58643780D02*
X72683809Y-58167590D01*
X72445714Y-58643780D02*
X72445714Y-57643780D01*
X72826666Y-57643780D01*
X72921904Y-57691400D01*
X72969523Y-57739019D01*
X73017142Y-57834257D01*
X73017142Y-57977114D01*
X72969523Y-58072352D01*
X72921904Y-58119971D01*
X72826666Y-58167590D01*
X72445714Y-58167590D01*
X73350476Y-57643780D02*
X73969523Y-57643780D01*
X73636190Y-58024733D01*
X73779047Y-58024733D01*
X73874285Y-58072352D01*
X73921904Y-58119971D01*
X73969523Y-58215209D01*
X73969523Y-58453304D01*
X73921904Y-58548542D01*
X73874285Y-58596161D01*
X73779047Y-58643780D01*
X73493333Y-58643780D01*
X73398095Y-58596161D01*
X73350476Y-58548542D01*
X74921904Y-58643780D02*
X74350476Y-58643780D01*
X74636190Y-58643780D02*
X74636190Y-57643780D01*
X74540952Y-57786638D01*
X74445714Y-57881876D01*
X74350476Y-57929495D01*
G04 #@! TO.C,R32*
X74721980Y-66403457D02*
X74245790Y-66736790D01*
X74721980Y-66974885D02*
X73721980Y-66974885D01*
X73721980Y-66593933D01*
X73769600Y-66498695D01*
X73817219Y-66451076D01*
X73912457Y-66403457D01*
X74055314Y-66403457D01*
X74150552Y-66451076D01*
X74198171Y-66498695D01*
X74245790Y-66593933D01*
X74245790Y-66974885D01*
X73721980Y-66070123D02*
X73721980Y-65451076D01*
X74102933Y-65784409D01*
X74102933Y-65641552D01*
X74150552Y-65546314D01*
X74198171Y-65498695D01*
X74293409Y-65451076D01*
X74531504Y-65451076D01*
X74626742Y-65498695D01*
X74674361Y-65546314D01*
X74721980Y-65641552D01*
X74721980Y-65927266D01*
X74674361Y-66022504D01*
X74626742Y-66070123D01*
X73817219Y-65070123D02*
X73769600Y-65022504D01*
X73721980Y-64927266D01*
X73721980Y-64689171D01*
X73769600Y-64593933D01*
X73817219Y-64546314D01*
X73912457Y-64498695D01*
X74007695Y-64498695D01*
X74150552Y-64546314D01*
X74721980Y-65117742D01*
X74721980Y-64498695D01*
G04 #@! TO.C,Q3*
X73547219Y-65678038D02*
X73499600Y-65773276D01*
X73404361Y-65868514D01*
X73261504Y-66011371D01*
X73213885Y-66106609D01*
X73213885Y-66201847D01*
X73451980Y-66154228D02*
X73404361Y-66249466D01*
X73309123Y-66344704D01*
X73118647Y-66392323D01*
X72785314Y-66392323D01*
X72594838Y-66344704D01*
X72499600Y-66249466D01*
X72451980Y-66154228D01*
X72451980Y-65963752D01*
X72499600Y-65868514D01*
X72594838Y-65773276D01*
X72785314Y-65725657D01*
X73118647Y-65725657D01*
X73309123Y-65773276D01*
X73404361Y-65868514D01*
X73451980Y-65963752D01*
X73451980Y-66154228D01*
X72451980Y-65392323D02*
X72451980Y-64773276D01*
X72832933Y-65106609D01*
X72832933Y-64963752D01*
X72880552Y-64868514D01*
X72928171Y-64820895D01*
X73023409Y-64773276D01*
X73261504Y-64773276D01*
X73356742Y-64820895D01*
X73404361Y-64868514D01*
X73451980Y-64963752D01*
X73451980Y-65249466D01*
X73404361Y-65344704D01*
X73356742Y-65392323D01*
G04 #@! TD*
M02*
