G04 #@! TF.FileFunction,Legend,Top*
%FSLAX46Y46*%
G04 Gerber Fmt 4.6, Leading zero omitted, Abs format (unit mm)*
G04 Created by KiCad (PCBNEW 4.0.7) date 03/28/18 22:17:57*
%MOMM*%
%LPD*%
G01*
G04 APERTURE LIST*
%ADD10C,0.100000*%
%ADD11C,0.203200*%
%ADD12C,0.300000*%
%ADD13C,0.150000*%
%ADD14C,0.088900*%
G04 APERTURE END LIST*
D10*
D11*
X151111000Y-94278000D02*
X151111000Y-90722000D01*
X151111000Y-90722000D02*
X152889000Y-90722000D01*
X152889000Y-90722000D02*
X152889000Y-94278000D01*
X152889000Y-94278000D02*
X151111000Y-94278000D01*
X163972000Y-89611000D02*
X167528000Y-89611000D01*
X167528000Y-89611000D02*
X167528000Y-91389000D01*
X167528000Y-91389000D02*
X163972000Y-91389000D01*
X163972000Y-91389000D02*
X163972000Y-89611000D01*
X158472000Y-89361000D02*
X162028000Y-89361000D01*
X162028000Y-89361000D02*
X162028000Y-91139000D01*
X162028000Y-91139000D02*
X158472000Y-91139000D01*
X158472000Y-91139000D02*
X158472000Y-89361000D01*
X164480000Y-81817000D02*
X164480000Y-81436000D01*
X164480000Y-81436000D02*
X167020000Y-81436000D01*
X167020000Y-81436000D02*
X167020000Y-81817000D01*
X164480000Y-89183000D02*
X164480000Y-81817000D01*
X164480000Y-81817000D02*
X167020000Y-81817000D01*
X167020000Y-81817000D02*
X167020000Y-89183000D01*
X167020000Y-89183000D02*
X164480000Y-89183000D01*
X142889000Y-86278000D02*
X142889000Y-86659000D01*
X142889000Y-86659000D02*
X141111000Y-86659000D01*
X141111000Y-86659000D02*
X141111000Y-86278000D01*
X142889000Y-82722000D02*
X142889000Y-86278000D01*
X142889000Y-86278000D02*
X141111000Y-86278000D01*
X141111000Y-86278000D02*
X141111000Y-82722000D01*
X141111000Y-82722000D02*
X142889000Y-82722000D01*
X146889000Y-86278000D02*
X146889000Y-86659000D01*
X146889000Y-86659000D02*
X145111000Y-86659000D01*
X145111000Y-86659000D02*
X145111000Y-86278000D01*
X146889000Y-82722000D02*
X146889000Y-86278000D01*
X146889000Y-86278000D02*
X145111000Y-86278000D01*
X145111000Y-86278000D02*
X145111000Y-82722000D01*
X145111000Y-82722000D02*
X146889000Y-82722000D01*
X150889000Y-86278000D02*
X150889000Y-86659000D01*
X150889000Y-86659000D02*
X149111000Y-86659000D01*
X149111000Y-86659000D02*
X149111000Y-86278000D01*
X150889000Y-82722000D02*
X150889000Y-86278000D01*
X150889000Y-86278000D02*
X149111000Y-86278000D01*
X149111000Y-86278000D02*
X149111000Y-82722000D01*
X149111000Y-82722000D02*
X150889000Y-82722000D01*
X142889000Y-90278000D02*
X142889000Y-90659000D01*
X142889000Y-90659000D02*
X141111000Y-90659000D01*
X141111000Y-90659000D02*
X141111000Y-90278000D01*
X142889000Y-86722000D02*
X142889000Y-90278000D01*
X142889000Y-90278000D02*
X141111000Y-90278000D01*
X141111000Y-90278000D02*
X141111000Y-86722000D01*
X141111000Y-86722000D02*
X142889000Y-86722000D01*
X146889000Y-90278000D02*
X146889000Y-90659000D01*
X146889000Y-90659000D02*
X145111000Y-90659000D01*
X145111000Y-90659000D02*
X145111000Y-90278000D01*
X146889000Y-86722000D02*
X146889000Y-90278000D01*
X146889000Y-90278000D02*
X145111000Y-90278000D01*
X145111000Y-90278000D02*
X145111000Y-86722000D01*
X145111000Y-86722000D02*
X146889000Y-86722000D01*
X150889000Y-90278000D02*
X150889000Y-90659000D01*
X150889000Y-90659000D02*
X149111000Y-90659000D01*
X149111000Y-90659000D02*
X149111000Y-90278000D01*
X150889000Y-86722000D02*
X150889000Y-90278000D01*
X150889000Y-90278000D02*
X149111000Y-90278000D01*
X149111000Y-90278000D02*
X149111000Y-86722000D01*
X149111000Y-86722000D02*
X150889000Y-86722000D01*
X142889000Y-94278000D02*
X142889000Y-94659000D01*
X142889000Y-94659000D02*
X141111000Y-94659000D01*
X141111000Y-94659000D02*
X141111000Y-94278000D01*
X142889000Y-90722000D02*
X142889000Y-94278000D01*
X142889000Y-94278000D02*
X141111000Y-94278000D01*
X141111000Y-94278000D02*
X141111000Y-90722000D01*
X141111000Y-90722000D02*
X142889000Y-90722000D01*
X146889000Y-94278000D02*
X146889000Y-94659000D01*
X146889000Y-94659000D02*
X145111000Y-94659000D01*
X145111000Y-94659000D02*
X145111000Y-94278000D01*
X146889000Y-90722000D02*
X146889000Y-94278000D01*
X146889000Y-94278000D02*
X145111000Y-94278000D01*
X145111000Y-94278000D02*
X145111000Y-90722000D01*
X145111000Y-90722000D02*
X146889000Y-90722000D01*
X150889000Y-94278000D02*
X150889000Y-94659000D01*
X150889000Y-94659000D02*
X149111000Y-94659000D01*
X149111000Y-94659000D02*
X149111000Y-94278000D01*
X150889000Y-90722000D02*
X150889000Y-94278000D01*
X150889000Y-94278000D02*
X149111000Y-94278000D01*
X149111000Y-94278000D02*
X149111000Y-90722000D01*
X149111000Y-90722000D02*
X150889000Y-90722000D01*
X170500000Y-96370000D02*
X167960000Y-96370000D01*
X167960000Y-96370000D02*
X167960000Y-81130000D01*
X167960000Y-81130000D02*
X173040000Y-81130000D01*
X173040000Y-81130000D02*
X173040000Y-96370000D01*
X173040000Y-96370000D02*
X170500000Y-96370000D01*
X167528000Y-95389000D02*
X163972000Y-95389000D01*
X163972000Y-95389000D02*
X163972000Y-93611000D01*
X163972000Y-93611000D02*
X167528000Y-93611000D01*
X167528000Y-93611000D02*
X167528000Y-95389000D01*
X163972000Y-91611000D02*
X167528000Y-91611000D01*
X167528000Y-91611000D02*
X167528000Y-93389000D01*
X167528000Y-93389000D02*
X163972000Y-93389000D01*
X163972000Y-93389000D02*
X163972000Y-91611000D01*
X143111000Y-86278000D02*
X143111000Y-82722000D01*
X143111000Y-82722000D02*
X144889000Y-82722000D01*
X144889000Y-82722000D02*
X144889000Y-86278000D01*
X144889000Y-86278000D02*
X143111000Y-86278000D01*
X147111000Y-86278000D02*
X147111000Y-82722000D01*
X147111000Y-82722000D02*
X148889000Y-82722000D01*
X148889000Y-82722000D02*
X148889000Y-86278000D01*
X148889000Y-86278000D02*
X147111000Y-86278000D01*
X151111000Y-86278000D02*
X151111000Y-82722000D01*
X151111000Y-82722000D02*
X152889000Y-82722000D01*
X152889000Y-82722000D02*
X152889000Y-86278000D01*
X152889000Y-86278000D02*
X151111000Y-86278000D01*
X143111000Y-90278000D02*
X143111000Y-86722000D01*
X143111000Y-86722000D02*
X144889000Y-86722000D01*
X144889000Y-86722000D02*
X144889000Y-90278000D01*
X144889000Y-90278000D02*
X143111000Y-90278000D01*
X147111000Y-90278000D02*
X147111000Y-86722000D01*
X147111000Y-86722000D02*
X148889000Y-86722000D01*
X148889000Y-86722000D02*
X148889000Y-90278000D01*
X148889000Y-90278000D02*
X147111000Y-90278000D01*
X151111000Y-90278000D02*
X151111000Y-86722000D01*
X151111000Y-86722000D02*
X152889000Y-86722000D01*
X152889000Y-86722000D02*
X152889000Y-90278000D01*
X152889000Y-90278000D02*
X151111000Y-90278000D01*
X143111000Y-94278000D02*
X143111000Y-90722000D01*
X143111000Y-90722000D02*
X144889000Y-90722000D01*
X144889000Y-90722000D02*
X144889000Y-94278000D01*
X144889000Y-94278000D02*
X143111000Y-94278000D01*
X147111000Y-94278000D02*
X147111000Y-90722000D01*
X147111000Y-90722000D02*
X148889000Y-90722000D01*
X148889000Y-90722000D02*
X148889000Y-94278000D01*
X148889000Y-94278000D02*
X147111000Y-94278000D01*
D12*
X158000000Y-92150000D02*
G75*
G03X158000000Y-92150000I-100000J0D01*
G01*
D13*
X161900000Y-91750000D02*
X161300000Y-91750000D01*
X161900000Y-92450000D02*
X161900000Y-91750000D01*
X162000000Y-95250000D02*
X162000000Y-94550000D01*
X161300000Y-95250000D02*
X162000000Y-95250000D01*
X158500000Y-95250000D02*
X159200000Y-95250000D01*
X158500000Y-94550000D02*
X158500000Y-95250000D01*
X158600000Y-92450000D02*
X159200000Y-91850000D01*
D11*
X157139000Y-89647000D02*
X157139000Y-93203000D01*
X157139000Y-93203000D02*
X155361000Y-93203000D01*
X155361000Y-93203000D02*
X155361000Y-89647000D01*
X155361000Y-89647000D02*
X157139000Y-89647000D01*
X156750000Y-83250000D02*
X160750000Y-83250000D01*
X158750000Y-86250000D02*
X158750000Y-87750000D01*
X158750000Y-87750000D02*
X156750000Y-87750000D01*
X156750000Y-87750000D02*
X160750000Y-87750000D01*
X158750000Y-84750000D02*
X159500000Y-86250000D01*
X158750000Y-83250000D02*
X158750000Y-84750000D01*
D13*
X162943334Y-90907143D02*
X162895715Y-90954762D01*
X162752858Y-91002381D01*
X162657620Y-91002381D01*
X162514762Y-90954762D01*
X162419524Y-90859524D01*
X162371905Y-90764286D01*
X162324286Y-90573810D01*
X162324286Y-90430952D01*
X162371905Y-90240476D01*
X162419524Y-90145238D01*
X162514762Y-90050000D01*
X162657620Y-90002381D01*
X162752858Y-90002381D01*
X162895715Y-90050000D01*
X162943334Y-90097619D01*
X163895715Y-91002381D02*
X163324286Y-91002381D01*
X163610000Y-91002381D02*
X163610000Y-90002381D01*
X163514762Y-90145238D01*
X163419524Y-90240476D01*
X163324286Y-90288095D01*
X159083334Y-89107143D02*
X159035715Y-89154762D01*
X158892858Y-89202381D01*
X158797620Y-89202381D01*
X158654762Y-89154762D01*
X158559524Y-89059524D01*
X158511905Y-88964286D01*
X158464286Y-88773810D01*
X158464286Y-88630952D01*
X158511905Y-88440476D01*
X158559524Y-88345238D01*
X158654762Y-88250000D01*
X158797620Y-88202381D01*
X158892858Y-88202381D01*
X159035715Y-88250000D01*
X159083334Y-88297619D01*
X159464286Y-88297619D02*
X159511905Y-88250000D01*
X159607143Y-88202381D01*
X159845239Y-88202381D01*
X159940477Y-88250000D01*
X159988096Y-88297619D01*
X160035715Y-88392857D01*
X160035715Y-88488095D01*
X159988096Y-88630952D01*
X159416667Y-89202381D01*
X160035715Y-89202381D01*
X163916381Y-86238095D02*
X162916381Y-86238095D01*
X162916381Y-86000000D01*
X162964000Y-85857142D01*
X163059238Y-85761904D01*
X163154476Y-85714285D01*
X163344952Y-85666666D01*
X163487810Y-85666666D01*
X163678286Y-85714285D01*
X163773524Y-85761904D01*
X163868762Y-85857142D01*
X163916381Y-86000000D01*
X163916381Y-86238095D01*
X163916381Y-84714285D02*
X163916381Y-85285714D01*
X163916381Y-85000000D02*
X162916381Y-85000000D01*
X163059238Y-85095238D01*
X163154476Y-85190476D01*
X163202095Y-85285714D01*
D14*
X172593619Y-95228667D02*
X173319333Y-95228667D01*
X173464476Y-95277047D01*
X173561238Y-95373809D01*
X173609619Y-95518952D01*
X173609619Y-95615714D01*
X173609619Y-94212667D02*
X173609619Y-94793238D01*
X173609619Y-94502952D02*
X172593619Y-94502952D01*
X172738762Y-94599714D01*
X172835524Y-94696476D01*
X172883905Y-94793238D01*
D13*
X162913334Y-95112381D02*
X162580000Y-94636190D01*
X162341905Y-95112381D02*
X162341905Y-94112381D01*
X162722858Y-94112381D01*
X162818096Y-94160000D01*
X162865715Y-94207619D01*
X162913334Y-94302857D01*
X162913334Y-94445714D01*
X162865715Y-94540952D01*
X162818096Y-94588571D01*
X162722858Y-94636190D01*
X162341905Y-94636190D01*
X163865715Y-95112381D02*
X163294286Y-95112381D01*
X163580000Y-95112381D02*
X163580000Y-94112381D01*
X163484762Y-94255238D01*
X163389524Y-94350476D01*
X163294286Y-94398095D01*
X163003334Y-93062381D02*
X162670000Y-92586190D01*
X162431905Y-93062381D02*
X162431905Y-92062381D01*
X162812858Y-92062381D01*
X162908096Y-92110000D01*
X162955715Y-92157619D01*
X163003334Y-92252857D01*
X163003334Y-92395714D01*
X162955715Y-92490952D01*
X162908096Y-92538571D01*
X162812858Y-92586190D01*
X162431905Y-92586190D01*
X163384286Y-92157619D02*
X163431905Y-92110000D01*
X163527143Y-92062381D01*
X163765239Y-92062381D01*
X163860477Y-92110000D01*
X163908096Y-92157619D01*
X163955715Y-92252857D01*
X163955715Y-92348095D01*
X163908096Y-92490952D01*
X163336667Y-93062381D01*
X163955715Y-93062381D01*
X156538095Y-93952381D02*
X156538095Y-94761905D01*
X156585714Y-94857143D01*
X156633333Y-94904762D01*
X156728571Y-94952381D01*
X156919048Y-94952381D01*
X157014286Y-94904762D01*
X157061905Y-94857143D01*
X157109524Y-94761905D01*
X157109524Y-93952381D01*
X158109524Y-94952381D02*
X157538095Y-94952381D01*
X157823809Y-94952381D02*
X157823809Y-93952381D01*
X157728571Y-94095238D01*
X157633333Y-94190476D01*
X157538095Y-94238095D01*
X154952381Y-92067857D02*
X154476190Y-92401191D01*
X154952381Y-92639286D02*
X153952381Y-92639286D01*
X153952381Y-92258333D01*
X154000000Y-92163095D01*
X154047619Y-92115476D01*
X154142857Y-92067857D01*
X154285714Y-92067857D01*
X154380952Y-92115476D01*
X154428571Y-92163095D01*
X154476190Y-92258333D01*
X154476190Y-92639286D01*
X154952381Y-91115476D02*
X154952381Y-91686905D01*
X154952381Y-91401191D02*
X153952381Y-91401191D01*
X154095238Y-91496429D01*
X154190476Y-91591667D01*
X154238095Y-91686905D01*
X154047619Y-90734524D02*
X154000000Y-90686905D01*
X153952381Y-90591667D01*
X153952381Y-90353571D01*
X154000000Y-90258333D01*
X154047619Y-90210714D01*
X154142857Y-90163095D01*
X154238095Y-90163095D01*
X154380952Y-90210714D01*
X154952381Y-90782143D01*
X154952381Y-90163095D01*
X157486667Y-82674762D02*
X157629524Y-82722381D01*
X157867620Y-82722381D01*
X157962858Y-82674762D01*
X158010477Y-82627143D01*
X158058096Y-82531905D01*
X158058096Y-82436667D01*
X158010477Y-82341429D01*
X157962858Y-82293810D01*
X157867620Y-82246190D01*
X157677143Y-82198571D01*
X157581905Y-82150952D01*
X157534286Y-82103333D01*
X157486667Y-82008095D01*
X157486667Y-81912857D01*
X157534286Y-81817619D01*
X157581905Y-81770000D01*
X157677143Y-81722381D01*
X157915239Y-81722381D01*
X158058096Y-81770000D01*
X158391429Y-81722381D02*
X158629524Y-82722381D01*
X158820001Y-82008095D01*
X159010477Y-82722381D01*
X159248572Y-81722381D01*
X160153334Y-82722381D02*
X159581905Y-82722381D01*
X159867619Y-82722381D02*
X159867619Y-81722381D01*
X159772381Y-81865238D01*
X159677143Y-81960476D01*
X159581905Y-82008095D01*
M02*
