G04 #@! TF.FileFunction,Soldermask,Top*
%FSLAX46Y46*%
G04 Gerber Fmt 4.6, Leading zero omitted, Abs format (unit mm)*
G04 Created by KiCad (PCBNEW 4.0.7) date 03/28/18 22:17:57*
%MOMM*%
%LPD*%
G01*
G04 APERTURE LIST*
%ADD10C,0.100000*%
%ADD11R,1.350000X1.400000*%
%ADD12R,1.400000X1.350000*%
%ADD13R,2.100000X2.900000*%
%ADD14R,3.448000X1.924000*%
%ADD15O,3.448000X1.924000*%
%ADD16O,0.900000X0.400000*%
%ADD17O,0.400000X0.900000*%
%ADD18R,1.300000X1.300000*%
%ADD19C,2.200000*%
G04 APERTURE END LIST*
D10*
D11*
X152000000Y-91675000D03*
X152000000Y-93325000D03*
D12*
X166575000Y-90500000D03*
X164925000Y-90500000D03*
X161075000Y-90250000D03*
X159425000Y-90250000D03*
D13*
X165750000Y-83500000D03*
X165750000Y-87500000D03*
D11*
X142000000Y-85325000D03*
X142000000Y-83675000D03*
X146000000Y-85325000D03*
X146000000Y-83675000D03*
X150000000Y-85325000D03*
X150000000Y-83675000D03*
X142000000Y-89325000D03*
X142000000Y-87675000D03*
X146000000Y-89325000D03*
X146000000Y-87675000D03*
X150000000Y-89325000D03*
X150000000Y-87675000D03*
X142000000Y-93325000D03*
X142000000Y-91675000D03*
X146000000Y-93325000D03*
X146000000Y-91675000D03*
X150000000Y-93325000D03*
X150000000Y-91675000D03*
D14*
X170500000Y-95100000D03*
D15*
X170500000Y-92560000D03*
X170500000Y-90020000D03*
X170500000Y-87480000D03*
X170500000Y-84940000D03*
X170500000Y-82400000D03*
D12*
X164925000Y-94500000D03*
X166575000Y-94500000D03*
X166575000Y-92500000D03*
X164925000Y-92500000D03*
D11*
X144000000Y-83675000D03*
X144000000Y-85325000D03*
X148000000Y-83675000D03*
X148000000Y-85325000D03*
X152000000Y-83675000D03*
X152000000Y-85325000D03*
X144000000Y-87675000D03*
X144000000Y-89325000D03*
X148000000Y-87675000D03*
X148000000Y-89325000D03*
X152000000Y-87675000D03*
X152000000Y-89325000D03*
X144000000Y-91675000D03*
X144000000Y-93325000D03*
X148000000Y-91675000D03*
X148000000Y-93325000D03*
D16*
X158800000Y-92750000D03*
X158800000Y-93250000D03*
X158800000Y-93750000D03*
X158800000Y-94250000D03*
X161700000Y-94250000D03*
X161700000Y-93750000D03*
X161700000Y-93250000D03*
X161700000Y-92750000D03*
D17*
X159500000Y-92050000D03*
X160000000Y-92050000D03*
X160500000Y-92050000D03*
X161000000Y-92050000D03*
X159500000Y-94950000D03*
X160000000Y-94950000D03*
X160500000Y-94950000D03*
X161000000Y-94950000D03*
D18*
X160250000Y-93500000D03*
D11*
X156250000Y-92250000D03*
X156250000Y-90600000D03*
D19*
X155500000Y-83250000D03*
X162000000Y-83250000D03*
X155500000Y-87750000D03*
X162000000Y-87750000D03*
M02*
