M48
;DRILL file {KiCad 4.0.7} date 03/28/18 22:17:59
;FORMAT={-:-/ absolute / inch / decimal}
FMAT,2
INCH,TZ
T1C0.012
T2C0.039
T3C0.040
%
G90
G05
M72
T1
X5.5906Y-3.2559
X5.5906Y-3.4134
X5.5906Y-3.5709
X5.7087Y-3.7165
X5.748Y-3.2559
X5.748Y-3.4134
X5.748Y-3.5709
X5.8661Y-3.7165
X5.9055Y-3.2559
X5.9055Y-3.4134
X5.9055Y-3.5709
X6.2795Y-3.5906
X6.3091Y-3.6811
X6.3386Y-3.5906
X6.374Y-3.7402
X6.4055Y-3.7677
X6.4094Y-3.7323
X6.4646Y-3.6811
T2
X6.122Y-3.2776
X6.122Y-3.4547
X6.378Y-3.2776
X6.378Y-3.4547
T3
X6.7126Y-3.2441
X6.7126Y-3.3441
X6.7126Y-3.4441
X6.7126Y-3.5441
X6.7126Y-3.6441
X6.7126Y-3.7441
T0
M30
