G04 #@! TF.FileFunction,Legend,Bot*
%FSLAX46Y46*%
G04 Gerber Fmt 4.6, Leading zero omitted, Abs format (unit mm)*
G04 Created by KiCad (PCBNEW 4.0.7) date 03/28/18 22:17:57*
%MOMM*%
%LPD*%
G01*
G04 APERTURE LIST*
%ADD10C,0.100000*%
%ADD11C,0.150000*%
G04 APERTURE END LIST*
D10*
D11*
X152452381Y-91839605D02*
X151976190Y-91506271D01*
X152452381Y-91268176D02*
X151452381Y-91268176D01*
X151452381Y-91649129D01*
X151500000Y-91744367D01*
X151547619Y-91791986D01*
X151642857Y-91839605D01*
X151785714Y-91839605D01*
X151880952Y-91791986D01*
X151928571Y-91744367D01*
X151976190Y-91649129D01*
X151976190Y-91268176D01*
X152452381Y-92791986D02*
X152452381Y-92220557D01*
X152452381Y-92506271D02*
X151452381Y-92506271D01*
X151595238Y-92411033D01*
X151690476Y-92315795D01*
X151738095Y-92220557D01*
X152452381Y-93744367D02*
X152452381Y-93172938D01*
X152452381Y-93458652D02*
X151452381Y-93458652D01*
X151595238Y-93363414D01*
X151690476Y-93268176D01*
X151738095Y-93172938D01*
X142452381Y-83787227D02*
X141452381Y-83787227D01*
X141452381Y-84025322D01*
X141500000Y-84168180D01*
X141595238Y-84263418D01*
X141690476Y-84311037D01*
X141880952Y-84358656D01*
X142023810Y-84358656D01*
X142214286Y-84311037D01*
X142309524Y-84263418D01*
X142404762Y-84168180D01*
X142452381Y-84025322D01*
X142452381Y-83787227D01*
X141547619Y-84739608D02*
X141500000Y-84787227D01*
X141452381Y-84882465D01*
X141452381Y-85120561D01*
X141500000Y-85215799D01*
X141547619Y-85263418D01*
X141642857Y-85311037D01*
X141738095Y-85311037D01*
X141880952Y-85263418D01*
X142452381Y-84691989D01*
X142452381Y-85311037D01*
X146452381Y-83787227D02*
X145452381Y-83787227D01*
X145452381Y-84025322D01*
X145500000Y-84168180D01*
X145595238Y-84263418D01*
X145690476Y-84311037D01*
X145880952Y-84358656D01*
X146023810Y-84358656D01*
X146214286Y-84311037D01*
X146309524Y-84263418D01*
X146404762Y-84168180D01*
X146452381Y-84025322D01*
X146452381Y-83787227D01*
X145452381Y-84691989D02*
X145452381Y-85311037D01*
X145833333Y-84977703D01*
X145833333Y-85120561D01*
X145880952Y-85215799D01*
X145928571Y-85263418D01*
X146023810Y-85311037D01*
X146261905Y-85311037D01*
X146357143Y-85263418D01*
X146404762Y-85215799D01*
X146452381Y-85120561D01*
X146452381Y-84834846D01*
X146404762Y-84739608D01*
X146357143Y-84691989D01*
X150452381Y-83787227D02*
X149452381Y-83787227D01*
X149452381Y-84025322D01*
X149500000Y-84168180D01*
X149595238Y-84263418D01*
X149690476Y-84311037D01*
X149880952Y-84358656D01*
X150023810Y-84358656D01*
X150214286Y-84311037D01*
X150309524Y-84263418D01*
X150404762Y-84168180D01*
X150452381Y-84025322D01*
X150452381Y-83787227D01*
X149785714Y-85215799D02*
X150452381Y-85215799D01*
X149404762Y-84977703D02*
X150119048Y-84739608D01*
X150119048Y-85358656D01*
X142452381Y-87867277D02*
X141452381Y-87867277D01*
X141452381Y-88105372D01*
X141500000Y-88248230D01*
X141595238Y-88343468D01*
X141690476Y-88391087D01*
X141880952Y-88438706D01*
X142023810Y-88438706D01*
X142214286Y-88391087D01*
X142309524Y-88343468D01*
X142404762Y-88248230D01*
X142452381Y-88105372D01*
X142452381Y-87867277D01*
X141452381Y-89343468D02*
X141452381Y-88867277D01*
X141928571Y-88819658D01*
X141880952Y-88867277D01*
X141833333Y-88962515D01*
X141833333Y-89200611D01*
X141880952Y-89295849D01*
X141928571Y-89343468D01*
X142023810Y-89391087D01*
X142261905Y-89391087D01*
X142357143Y-89343468D01*
X142404762Y-89295849D01*
X142452381Y-89200611D01*
X142452381Y-88962515D01*
X142404762Y-88867277D01*
X142357143Y-88819658D01*
X146452381Y-87867277D02*
X145452381Y-87867277D01*
X145452381Y-88105372D01*
X145500000Y-88248230D01*
X145595238Y-88343468D01*
X145690476Y-88391087D01*
X145880952Y-88438706D01*
X146023810Y-88438706D01*
X146214286Y-88391087D01*
X146309524Y-88343468D01*
X146404762Y-88248230D01*
X146452381Y-88105372D01*
X146452381Y-87867277D01*
X145452381Y-89295849D02*
X145452381Y-89105372D01*
X145500000Y-89010134D01*
X145547619Y-88962515D01*
X145690476Y-88867277D01*
X145880952Y-88819658D01*
X146261905Y-88819658D01*
X146357143Y-88867277D01*
X146404762Y-88914896D01*
X146452381Y-89010134D01*
X146452381Y-89200611D01*
X146404762Y-89295849D01*
X146357143Y-89343468D01*
X146261905Y-89391087D01*
X146023810Y-89391087D01*
X145928571Y-89343468D01*
X145880952Y-89295849D01*
X145833333Y-89200611D01*
X145833333Y-89010134D01*
X145880952Y-88914896D01*
X145928571Y-88867277D01*
X146023810Y-88819658D01*
X150452381Y-87867277D02*
X149452381Y-87867277D01*
X149452381Y-88105372D01*
X149500000Y-88248230D01*
X149595238Y-88343468D01*
X149690476Y-88391087D01*
X149880952Y-88438706D01*
X150023810Y-88438706D01*
X150214286Y-88391087D01*
X150309524Y-88343468D01*
X150404762Y-88248230D01*
X150452381Y-88105372D01*
X150452381Y-87867277D01*
X149452381Y-88772039D02*
X149452381Y-89438706D01*
X150452381Y-89010134D01*
X142452381Y-91744367D02*
X141452381Y-91744367D01*
X141452381Y-91982462D01*
X141500000Y-92125320D01*
X141595238Y-92220558D01*
X141690476Y-92268177D01*
X141880952Y-92315796D01*
X142023810Y-92315796D01*
X142214286Y-92268177D01*
X142309524Y-92220558D01*
X142404762Y-92125320D01*
X142452381Y-91982462D01*
X142452381Y-91744367D01*
X141880952Y-92887224D02*
X141833333Y-92791986D01*
X141785714Y-92744367D01*
X141690476Y-92696748D01*
X141642857Y-92696748D01*
X141547619Y-92744367D01*
X141500000Y-92791986D01*
X141452381Y-92887224D01*
X141452381Y-93077701D01*
X141500000Y-93172939D01*
X141547619Y-93220558D01*
X141642857Y-93268177D01*
X141690476Y-93268177D01*
X141785714Y-93220558D01*
X141833333Y-93172939D01*
X141880952Y-93077701D01*
X141880952Y-92887224D01*
X141928571Y-92791986D01*
X141976190Y-92744367D01*
X142071429Y-92696748D01*
X142261905Y-92696748D01*
X142357143Y-92744367D01*
X142404762Y-92791986D01*
X142452381Y-92887224D01*
X142452381Y-93077701D01*
X142404762Y-93172939D01*
X142357143Y-93220558D01*
X142261905Y-93268177D01*
X142071429Y-93268177D01*
X141976190Y-93220558D01*
X141928571Y-93172939D01*
X141880952Y-93077701D01*
X146452381Y-91744367D02*
X145452381Y-91744367D01*
X145452381Y-91982462D01*
X145500000Y-92125320D01*
X145595238Y-92220558D01*
X145690476Y-92268177D01*
X145880952Y-92315796D01*
X146023810Y-92315796D01*
X146214286Y-92268177D01*
X146309524Y-92220558D01*
X146404762Y-92125320D01*
X146452381Y-91982462D01*
X146452381Y-91744367D01*
X146452381Y-92791986D02*
X146452381Y-92982462D01*
X146404762Y-93077701D01*
X146357143Y-93125320D01*
X146214286Y-93220558D01*
X146023810Y-93268177D01*
X145642857Y-93268177D01*
X145547619Y-93220558D01*
X145500000Y-93172939D01*
X145452381Y-93077701D01*
X145452381Y-92887224D01*
X145500000Y-92791986D01*
X145547619Y-92744367D01*
X145642857Y-92696748D01*
X145880952Y-92696748D01*
X145976190Y-92744367D01*
X146023810Y-92791986D01*
X146071429Y-92887224D01*
X146071429Y-93077701D01*
X146023810Y-93172939D01*
X145976190Y-93220558D01*
X145880952Y-93268177D01*
X150452381Y-91268176D02*
X149452381Y-91268176D01*
X149452381Y-91506271D01*
X149500000Y-91649129D01*
X149595238Y-91744367D01*
X149690476Y-91791986D01*
X149880952Y-91839605D01*
X150023810Y-91839605D01*
X150214286Y-91791986D01*
X150309524Y-91744367D01*
X150404762Y-91649129D01*
X150452381Y-91506271D01*
X150452381Y-91268176D01*
X150452381Y-92791986D02*
X150452381Y-92220557D01*
X150452381Y-92506271D02*
X149452381Y-92506271D01*
X149595238Y-92411033D01*
X149690476Y-92315795D01*
X149738095Y-92220557D01*
X149452381Y-93411033D02*
X149452381Y-93506272D01*
X149500000Y-93601510D01*
X149547619Y-93649129D01*
X149642857Y-93696748D01*
X149833333Y-93744367D01*
X150071429Y-93744367D01*
X150261905Y-93696748D01*
X150357143Y-93649129D01*
X150404762Y-93601510D01*
X150452381Y-93506272D01*
X150452381Y-93411033D01*
X150404762Y-93315795D01*
X150357143Y-93268176D01*
X150261905Y-93220557D01*
X150071429Y-93172938D01*
X149833333Y-93172938D01*
X149642857Y-93220557D01*
X149547619Y-93268176D01*
X149500000Y-93315795D01*
X149452381Y-93411033D01*
X144452381Y-84358656D02*
X143976190Y-84025322D01*
X144452381Y-83787227D02*
X143452381Y-83787227D01*
X143452381Y-84168180D01*
X143500000Y-84263418D01*
X143547619Y-84311037D01*
X143642857Y-84358656D01*
X143785714Y-84358656D01*
X143880952Y-84311037D01*
X143928571Y-84263418D01*
X143976190Y-84168180D01*
X143976190Y-83787227D01*
X143452381Y-84691989D02*
X143452381Y-85311037D01*
X143833333Y-84977703D01*
X143833333Y-85120561D01*
X143880952Y-85215799D01*
X143928571Y-85263418D01*
X144023810Y-85311037D01*
X144261905Y-85311037D01*
X144357143Y-85263418D01*
X144404762Y-85215799D01*
X144452381Y-85120561D01*
X144452381Y-84834846D01*
X144404762Y-84739608D01*
X144357143Y-84691989D01*
X148452381Y-84358656D02*
X147976190Y-84025322D01*
X148452381Y-83787227D02*
X147452381Y-83787227D01*
X147452381Y-84168180D01*
X147500000Y-84263418D01*
X147547619Y-84311037D01*
X147642857Y-84358656D01*
X147785714Y-84358656D01*
X147880952Y-84311037D01*
X147928571Y-84263418D01*
X147976190Y-84168180D01*
X147976190Y-83787227D01*
X147785714Y-85215799D02*
X148452381Y-85215799D01*
X147404762Y-84977703D02*
X148119048Y-84739608D01*
X148119048Y-85358656D01*
X152452381Y-84358656D02*
X151976190Y-84025322D01*
X152452381Y-83787227D02*
X151452381Y-83787227D01*
X151452381Y-84168180D01*
X151500000Y-84263418D01*
X151547619Y-84311037D01*
X151642857Y-84358656D01*
X151785714Y-84358656D01*
X151880952Y-84311037D01*
X151928571Y-84263418D01*
X151976190Y-84168180D01*
X151976190Y-83787227D01*
X151452381Y-85263418D02*
X151452381Y-84787227D01*
X151928571Y-84739608D01*
X151880952Y-84787227D01*
X151833333Y-84882465D01*
X151833333Y-85120561D01*
X151880952Y-85215799D01*
X151928571Y-85263418D01*
X152023810Y-85311037D01*
X152261905Y-85311037D01*
X152357143Y-85263418D01*
X152404762Y-85215799D01*
X152452381Y-85120561D01*
X152452381Y-84882465D01*
X152404762Y-84787227D01*
X152357143Y-84739608D01*
X144452381Y-88438706D02*
X143976190Y-88105372D01*
X144452381Y-87867277D02*
X143452381Y-87867277D01*
X143452381Y-88248230D01*
X143500000Y-88343468D01*
X143547619Y-88391087D01*
X143642857Y-88438706D01*
X143785714Y-88438706D01*
X143880952Y-88391087D01*
X143928571Y-88343468D01*
X143976190Y-88248230D01*
X143976190Y-87867277D01*
X143452381Y-89295849D02*
X143452381Y-89105372D01*
X143500000Y-89010134D01*
X143547619Y-88962515D01*
X143690476Y-88867277D01*
X143880952Y-88819658D01*
X144261905Y-88819658D01*
X144357143Y-88867277D01*
X144404762Y-88914896D01*
X144452381Y-89010134D01*
X144452381Y-89200611D01*
X144404762Y-89295849D01*
X144357143Y-89343468D01*
X144261905Y-89391087D01*
X144023810Y-89391087D01*
X143928571Y-89343468D01*
X143880952Y-89295849D01*
X143833333Y-89200611D01*
X143833333Y-89010134D01*
X143880952Y-88914896D01*
X143928571Y-88867277D01*
X144023810Y-88819658D01*
X148452381Y-88438706D02*
X147976190Y-88105372D01*
X148452381Y-87867277D02*
X147452381Y-87867277D01*
X147452381Y-88248230D01*
X147500000Y-88343468D01*
X147547619Y-88391087D01*
X147642857Y-88438706D01*
X147785714Y-88438706D01*
X147880952Y-88391087D01*
X147928571Y-88343468D01*
X147976190Y-88248230D01*
X147976190Y-87867277D01*
X147452381Y-88772039D02*
X147452381Y-89438706D01*
X148452381Y-89010134D01*
X152452381Y-88438706D02*
X151976190Y-88105372D01*
X152452381Y-87867277D02*
X151452381Y-87867277D01*
X151452381Y-88248230D01*
X151500000Y-88343468D01*
X151547619Y-88391087D01*
X151642857Y-88438706D01*
X151785714Y-88438706D01*
X151880952Y-88391087D01*
X151928571Y-88343468D01*
X151976190Y-88248230D01*
X151976190Y-87867277D01*
X151880952Y-89010134D02*
X151833333Y-88914896D01*
X151785714Y-88867277D01*
X151690476Y-88819658D01*
X151642857Y-88819658D01*
X151547619Y-88867277D01*
X151500000Y-88914896D01*
X151452381Y-89010134D01*
X151452381Y-89200611D01*
X151500000Y-89295849D01*
X151547619Y-89343468D01*
X151642857Y-89391087D01*
X151690476Y-89391087D01*
X151785714Y-89343468D01*
X151833333Y-89295849D01*
X151880952Y-89200611D01*
X151880952Y-89010134D01*
X151928571Y-88914896D01*
X151976190Y-88867277D01*
X152071429Y-88819658D01*
X152261905Y-88819658D01*
X152357143Y-88867277D01*
X152404762Y-88914896D01*
X152452381Y-89010134D01*
X152452381Y-89200611D01*
X152404762Y-89295849D01*
X152357143Y-89343468D01*
X152261905Y-89391087D01*
X152071429Y-89391087D01*
X151976190Y-89343468D01*
X151928571Y-89295849D01*
X151880952Y-89200611D01*
X144452381Y-92315796D02*
X143976190Y-91982462D01*
X144452381Y-91744367D02*
X143452381Y-91744367D01*
X143452381Y-92125320D01*
X143500000Y-92220558D01*
X143547619Y-92268177D01*
X143642857Y-92315796D01*
X143785714Y-92315796D01*
X143880952Y-92268177D01*
X143928571Y-92220558D01*
X143976190Y-92125320D01*
X143976190Y-91744367D01*
X144452381Y-92791986D02*
X144452381Y-92982462D01*
X144404762Y-93077701D01*
X144357143Y-93125320D01*
X144214286Y-93220558D01*
X144023810Y-93268177D01*
X143642857Y-93268177D01*
X143547619Y-93220558D01*
X143500000Y-93172939D01*
X143452381Y-93077701D01*
X143452381Y-92887224D01*
X143500000Y-92791986D01*
X143547619Y-92744367D01*
X143642857Y-92696748D01*
X143880952Y-92696748D01*
X143976190Y-92744367D01*
X144023810Y-92791986D01*
X144071429Y-92887224D01*
X144071429Y-93077701D01*
X144023810Y-93172939D01*
X143976190Y-93220558D01*
X143880952Y-93268177D01*
X148452381Y-91839605D02*
X147976190Y-91506271D01*
X148452381Y-91268176D02*
X147452381Y-91268176D01*
X147452381Y-91649129D01*
X147500000Y-91744367D01*
X147547619Y-91791986D01*
X147642857Y-91839605D01*
X147785714Y-91839605D01*
X147880952Y-91791986D01*
X147928571Y-91744367D01*
X147976190Y-91649129D01*
X147976190Y-91268176D01*
X148452381Y-92791986D02*
X148452381Y-92220557D01*
X148452381Y-92506271D02*
X147452381Y-92506271D01*
X147595238Y-92411033D01*
X147690476Y-92315795D01*
X147738095Y-92220557D01*
X147452381Y-93411033D02*
X147452381Y-93506272D01*
X147500000Y-93601510D01*
X147547619Y-93649129D01*
X147642857Y-93696748D01*
X147833333Y-93744367D01*
X148071429Y-93744367D01*
X148261905Y-93696748D01*
X148357143Y-93649129D01*
X148404762Y-93601510D01*
X148452381Y-93506272D01*
X148452381Y-93411033D01*
X148404762Y-93315795D01*
X148357143Y-93268176D01*
X148261905Y-93220557D01*
X148071429Y-93172938D01*
X147833333Y-93172938D01*
X147642857Y-93220557D01*
X147547619Y-93268176D01*
X147500000Y-93315795D01*
X147452381Y-93411033D01*
M02*
