G04 #@! TF.FileFunction,Copper,L2,Bot,Signal*
%FSLAX46Y46*%
G04 Gerber Fmt 4.6, Leading zero omitted, Abs format (unit mm)*
G04 Created by KiCad (PCBNEW 4.0.7) date 03/28/18 22:17:57*
%MOMM*%
%LPD*%
G01*
G04 APERTURE LIST*
%ADD10C,0.100000*%
%ADD11R,3.048000X1.524000*%
%ADD12O,3.048000X1.524000*%
%ADD13C,1.800000*%
%ADD14C,0.609600*%
%ADD15C,0.508000*%
%ADD16C,0.254000*%
G04 APERTURE END LIST*
D10*
D11*
X170500000Y-95100000D03*
D12*
X170500000Y-92560000D03*
X170500000Y-90020000D03*
X170500000Y-87480000D03*
X170500000Y-84940000D03*
X170500000Y-82400000D03*
D13*
X155500000Y-83250000D03*
X162000000Y-83250000D03*
X155500000Y-87750000D03*
X162000000Y-87750000D03*
D14*
X160250000Y-93500000D03*
X161000000Y-91200000D03*
X164200000Y-93500000D03*
X159500000Y-91200000D03*
X162800000Y-94800000D03*
X150000000Y-82700000D03*
X146000000Y-82700000D03*
X142000000Y-82700000D03*
X161900000Y-95000000D03*
X142000000Y-86700000D03*
X146000000Y-86700000D03*
X150000000Y-86700000D03*
X162700000Y-95700000D03*
X150000000Y-90700000D03*
X146000000Y-90700000D03*
X142000000Y-90700000D03*
X145000000Y-94400000D03*
X149000000Y-94400000D03*
D15*
X162000000Y-83250000D02*
X160727208Y-83250000D01*
X160727208Y-83250000D02*
X155500000Y-83250000D01*
X164000000Y-90020000D02*
X170500000Y-90020000D01*
X162180000Y-90020000D02*
X164000000Y-90020000D01*
X164000000Y-90020000D02*
X164000000Y-85250000D01*
X164000000Y-85250000D02*
X162000000Y-83250000D01*
X161000000Y-91200000D02*
X162180000Y-90020000D01*
X160250000Y-93500000D02*
X160250000Y-91950000D01*
X160250000Y-91950000D02*
X161000000Y-91200000D01*
X158800000Y-93700000D02*
X158800000Y-91900000D01*
X158800000Y-91900000D02*
X159500000Y-91200000D01*
X159600000Y-94500000D02*
X158800000Y-93700000D01*
X160600000Y-94500000D02*
X159600000Y-94500000D01*
X161600000Y-93500000D02*
X160600000Y-94500000D01*
X164200000Y-93500000D02*
X161600000Y-93500000D01*
D16*
X162800000Y-94800000D02*
X162281009Y-94281009D01*
X162281009Y-94281009D02*
X161640663Y-94281009D01*
X161640663Y-94281009D02*
X160840662Y-95081011D01*
X160840662Y-95081011D02*
X156381011Y-95081011D01*
X156381011Y-95081011D02*
X152200000Y-90900000D01*
X152200000Y-90900000D02*
X152200000Y-83500000D01*
X152200000Y-83500000D02*
X151400000Y-82700000D01*
X151400000Y-82700000D02*
X150000000Y-82700000D01*
X146000000Y-82700000D02*
X150000000Y-82700000D01*
X142000000Y-82700000D02*
X146000000Y-82700000D01*
X150000000Y-86700000D02*
X151600000Y-88300000D01*
X151600000Y-88300000D02*
X151600000Y-91300000D01*
X151600000Y-91300000D02*
X155835021Y-95535021D01*
X155835021Y-95535021D02*
X161364979Y-95535021D01*
X161364979Y-95535021D02*
X161900000Y-95000000D01*
X146000000Y-86700000D02*
X150000000Y-86700000D01*
X142000000Y-86700000D02*
X146000000Y-86700000D01*
X150000000Y-90700000D02*
X155304799Y-96004799D01*
X155304799Y-96004799D02*
X162395201Y-96004799D01*
X162395201Y-96004799D02*
X162700000Y-95700000D01*
X146000000Y-90700000D02*
X150000000Y-90700000D01*
X142000000Y-90700000D02*
X142431052Y-90700000D01*
X142431052Y-90700000D02*
X146000000Y-90700000D01*
G36*
X168707875Y-81412172D02*
X168405043Y-81865391D01*
X168298703Y-82400000D01*
X168405043Y-82934609D01*
X168707875Y-83387828D01*
X169130174Y-83670000D01*
X168707875Y-83952172D01*
X168405043Y-84405391D01*
X168298703Y-84940000D01*
X168405043Y-85474609D01*
X168707875Y-85927828D01*
X169130174Y-86210000D01*
X168707875Y-86492172D01*
X168405043Y-86945391D01*
X168298703Y-87480000D01*
X168405043Y-88014609D01*
X168707875Y-88467828D01*
X169145662Y-88760349D01*
X169086059Y-88777941D01*
X168660370Y-89121974D01*
X168398740Y-89602723D01*
X168383780Y-89676930D01*
X168506280Y-89893000D01*
X170373000Y-89893000D01*
X170373000Y-89873000D01*
X170627000Y-89873000D01*
X170627000Y-89893000D01*
X172493720Y-89893000D01*
X172616220Y-89676930D01*
X172601260Y-89602723D01*
X172339630Y-89121974D01*
X171913941Y-88777941D01*
X171854338Y-88760349D01*
X172292125Y-88467828D01*
X172594957Y-88014609D01*
X172701297Y-87480000D01*
X172594957Y-86945391D01*
X172292125Y-86492172D01*
X171869826Y-86210000D01*
X172292125Y-85927828D01*
X172594957Y-85474609D01*
X172701297Y-84940000D01*
X172594957Y-84405391D01*
X172292125Y-83952172D01*
X171869826Y-83670000D01*
X172292125Y-83387828D01*
X172594957Y-82934609D01*
X172701297Y-82400000D01*
X172594957Y-81865391D01*
X172292125Y-81412172D01*
X171989554Y-81210000D01*
X173290000Y-81210000D01*
X173290000Y-95790000D01*
X172671440Y-95790000D01*
X172671440Y-94338000D01*
X172627162Y-94102683D01*
X172488090Y-93886559D01*
X172275890Y-93741569D01*
X172065834Y-93699032D01*
X172292125Y-93547828D01*
X172594957Y-93094609D01*
X172701297Y-92560000D01*
X172594957Y-92025391D01*
X172292125Y-91572172D01*
X171854338Y-91279651D01*
X171913941Y-91262059D01*
X172339630Y-90918026D01*
X172601260Y-90437277D01*
X172616220Y-90363070D01*
X172493720Y-90147000D01*
X170627000Y-90147000D01*
X170627000Y-90167000D01*
X170373000Y-90167000D01*
X170373000Y-90147000D01*
X168506280Y-90147000D01*
X168383780Y-90363070D01*
X168398740Y-90437277D01*
X168660370Y-90918026D01*
X169086059Y-91262059D01*
X169145662Y-91279651D01*
X168707875Y-91572172D01*
X168405043Y-92025391D01*
X168298703Y-92560000D01*
X168405043Y-93094609D01*
X168707875Y-93547828D01*
X168933466Y-93698563D01*
X168740683Y-93734838D01*
X168524559Y-93873910D01*
X168379569Y-94086110D01*
X168328560Y-94338000D01*
X168328560Y-95790000D01*
X163639722Y-95790000D01*
X163639963Y-95513882D01*
X163574301Y-95354969D01*
X163596259Y-95333049D01*
X163739637Y-94987758D01*
X163739963Y-94613882D01*
X163647043Y-94389000D01*
X163890295Y-94389000D01*
X164012242Y-94439637D01*
X164386118Y-94439963D01*
X164731659Y-94297188D01*
X164996259Y-94033049D01*
X165139637Y-93687758D01*
X165139963Y-93313882D01*
X164997188Y-92968341D01*
X164733049Y-92703741D01*
X164387758Y-92560363D01*
X164013882Y-92560037D01*
X163890542Y-92611000D01*
X161600000Y-92611000D01*
X161259795Y-92678670D01*
X160971382Y-92871382D01*
X160231764Y-93611000D01*
X159968236Y-93611000D01*
X159689000Y-93331764D01*
X159689000Y-92268236D01*
X159909624Y-92047612D01*
X160031659Y-91997188D01*
X160296259Y-91733049D01*
X160439637Y-91387758D01*
X160439963Y-91013882D01*
X160297188Y-90668341D01*
X160033049Y-90403741D01*
X159687758Y-90260363D01*
X159313882Y-90260037D01*
X158968341Y-90402812D01*
X158703741Y-90666951D01*
X158652563Y-90790201D01*
X158171382Y-91271382D01*
X157978671Y-91559794D01*
X157911000Y-91900000D01*
X157911000Y-93700000D01*
X157978671Y-94040206D01*
X158131106Y-94268341D01*
X158164963Y-94319011D01*
X156696642Y-94319011D01*
X152962000Y-90584370D01*
X152962000Y-88053991D01*
X153964735Y-88053991D01*
X154197932Y-88618371D01*
X154629357Y-89050551D01*
X155193330Y-89284733D01*
X155803991Y-89285265D01*
X156368371Y-89052068D01*
X156800551Y-88620643D01*
X157034733Y-88056670D01*
X157034735Y-88053991D01*
X160464735Y-88053991D01*
X160697932Y-88618371D01*
X161129357Y-89050551D01*
X161693330Y-89284733D01*
X162303991Y-89285265D01*
X162868371Y-89052068D01*
X163300551Y-88620643D01*
X163534733Y-88056670D01*
X163535265Y-87446009D01*
X163302068Y-86881629D01*
X162870643Y-86449449D01*
X162306670Y-86215267D01*
X161696009Y-86214735D01*
X161131629Y-86447932D01*
X160699449Y-86879357D01*
X160465267Y-87443330D01*
X160464735Y-88053991D01*
X157034735Y-88053991D01*
X157035265Y-87446009D01*
X156802068Y-86881629D01*
X156370643Y-86449449D01*
X155806670Y-86215267D01*
X155196009Y-86214735D01*
X154631629Y-86447932D01*
X154199449Y-86879357D01*
X153965267Y-87443330D01*
X153964735Y-88053991D01*
X152962000Y-88053991D01*
X152962000Y-84330159D01*
X154599446Y-84330159D01*
X154685852Y-84586643D01*
X155259336Y-84796458D01*
X155869460Y-84770839D01*
X156314148Y-84586643D01*
X156400554Y-84330159D01*
X161099446Y-84330159D01*
X161185852Y-84586643D01*
X161759336Y-84796458D01*
X162369460Y-84770839D01*
X162814148Y-84586643D01*
X162900554Y-84330159D01*
X162000000Y-83429605D01*
X161099446Y-84330159D01*
X156400554Y-84330159D01*
X155500000Y-83429605D01*
X154599446Y-84330159D01*
X152962000Y-84330159D01*
X152962000Y-83500000D01*
X152903996Y-83208395D01*
X152770989Y-83009336D01*
X153953542Y-83009336D01*
X153979161Y-83619460D01*
X154163357Y-84064148D01*
X154419841Y-84150554D01*
X155320395Y-83250000D01*
X155679605Y-83250000D01*
X156580159Y-84150554D01*
X156836643Y-84064148D01*
X157046458Y-83490664D01*
X157026248Y-83009336D01*
X160453542Y-83009336D01*
X160479161Y-83619460D01*
X160663357Y-84064148D01*
X160919841Y-84150554D01*
X161820395Y-83250000D01*
X162179605Y-83250000D01*
X163080159Y-84150554D01*
X163336643Y-84064148D01*
X163546458Y-83490664D01*
X163520839Y-82880540D01*
X163336643Y-82435852D01*
X163080159Y-82349446D01*
X162179605Y-83250000D01*
X161820395Y-83250000D01*
X160919841Y-82349446D01*
X160663357Y-82435852D01*
X160453542Y-83009336D01*
X157026248Y-83009336D01*
X157020839Y-82880540D01*
X156836643Y-82435852D01*
X156580159Y-82349446D01*
X155679605Y-83250000D01*
X155320395Y-83250000D01*
X154419841Y-82349446D01*
X154163357Y-82435852D01*
X153953542Y-83009336D01*
X152770989Y-83009336D01*
X152738815Y-82961185D01*
X151947471Y-82169841D01*
X154599446Y-82169841D01*
X155500000Y-83070395D01*
X156400554Y-82169841D01*
X161099446Y-82169841D01*
X162000000Y-83070395D01*
X162900554Y-82169841D01*
X162814148Y-81913357D01*
X162240664Y-81703542D01*
X161630540Y-81729161D01*
X161185852Y-81913357D01*
X161099446Y-82169841D01*
X156400554Y-82169841D01*
X156314148Y-81913357D01*
X155740664Y-81703542D01*
X155130540Y-81729161D01*
X154685852Y-81913357D01*
X154599446Y-82169841D01*
X151947471Y-82169841D01*
X151938815Y-82161185D01*
X151691605Y-81996004D01*
X151400000Y-81938000D01*
X150567248Y-81938000D01*
X150533049Y-81903741D01*
X150187758Y-81760363D01*
X149813882Y-81760037D01*
X149468341Y-81902812D01*
X149433092Y-81938000D01*
X146567248Y-81938000D01*
X146533049Y-81903741D01*
X146187758Y-81760363D01*
X145813882Y-81760037D01*
X145468341Y-81902812D01*
X145433092Y-81938000D01*
X142567248Y-81938000D01*
X142533049Y-81903741D01*
X142187758Y-81760363D01*
X141813882Y-81760037D01*
X141710000Y-81802960D01*
X141710000Y-81210000D01*
X169010446Y-81210000D01*
X168707875Y-81412172D01*
X168707875Y-81412172D01*
G37*
X168707875Y-81412172D02*
X168405043Y-81865391D01*
X168298703Y-82400000D01*
X168405043Y-82934609D01*
X168707875Y-83387828D01*
X169130174Y-83670000D01*
X168707875Y-83952172D01*
X168405043Y-84405391D01*
X168298703Y-84940000D01*
X168405043Y-85474609D01*
X168707875Y-85927828D01*
X169130174Y-86210000D01*
X168707875Y-86492172D01*
X168405043Y-86945391D01*
X168298703Y-87480000D01*
X168405043Y-88014609D01*
X168707875Y-88467828D01*
X169145662Y-88760349D01*
X169086059Y-88777941D01*
X168660370Y-89121974D01*
X168398740Y-89602723D01*
X168383780Y-89676930D01*
X168506280Y-89893000D01*
X170373000Y-89893000D01*
X170373000Y-89873000D01*
X170627000Y-89873000D01*
X170627000Y-89893000D01*
X172493720Y-89893000D01*
X172616220Y-89676930D01*
X172601260Y-89602723D01*
X172339630Y-89121974D01*
X171913941Y-88777941D01*
X171854338Y-88760349D01*
X172292125Y-88467828D01*
X172594957Y-88014609D01*
X172701297Y-87480000D01*
X172594957Y-86945391D01*
X172292125Y-86492172D01*
X171869826Y-86210000D01*
X172292125Y-85927828D01*
X172594957Y-85474609D01*
X172701297Y-84940000D01*
X172594957Y-84405391D01*
X172292125Y-83952172D01*
X171869826Y-83670000D01*
X172292125Y-83387828D01*
X172594957Y-82934609D01*
X172701297Y-82400000D01*
X172594957Y-81865391D01*
X172292125Y-81412172D01*
X171989554Y-81210000D01*
X173290000Y-81210000D01*
X173290000Y-95790000D01*
X172671440Y-95790000D01*
X172671440Y-94338000D01*
X172627162Y-94102683D01*
X172488090Y-93886559D01*
X172275890Y-93741569D01*
X172065834Y-93699032D01*
X172292125Y-93547828D01*
X172594957Y-93094609D01*
X172701297Y-92560000D01*
X172594957Y-92025391D01*
X172292125Y-91572172D01*
X171854338Y-91279651D01*
X171913941Y-91262059D01*
X172339630Y-90918026D01*
X172601260Y-90437277D01*
X172616220Y-90363070D01*
X172493720Y-90147000D01*
X170627000Y-90147000D01*
X170627000Y-90167000D01*
X170373000Y-90167000D01*
X170373000Y-90147000D01*
X168506280Y-90147000D01*
X168383780Y-90363070D01*
X168398740Y-90437277D01*
X168660370Y-90918026D01*
X169086059Y-91262059D01*
X169145662Y-91279651D01*
X168707875Y-91572172D01*
X168405043Y-92025391D01*
X168298703Y-92560000D01*
X168405043Y-93094609D01*
X168707875Y-93547828D01*
X168933466Y-93698563D01*
X168740683Y-93734838D01*
X168524559Y-93873910D01*
X168379569Y-94086110D01*
X168328560Y-94338000D01*
X168328560Y-95790000D01*
X163639722Y-95790000D01*
X163639963Y-95513882D01*
X163574301Y-95354969D01*
X163596259Y-95333049D01*
X163739637Y-94987758D01*
X163739963Y-94613882D01*
X163647043Y-94389000D01*
X163890295Y-94389000D01*
X164012242Y-94439637D01*
X164386118Y-94439963D01*
X164731659Y-94297188D01*
X164996259Y-94033049D01*
X165139637Y-93687758D01*
X165139963Y-93313882D01*
X164997188Y-92968341D01*
X164733049Y-92703741D01*
X164387758Y-92560363D01*
X164013882Y-92560037D01*
X163890542Y-92611000D01*
X161600000Y-92611000D01*
X161259795Y-92678670D01*
X160971382Y-92871382D01*
X160231764Y-93611000D01*
X159968236Y-93611000D01*
X159689000Y-93331764D01*
X159689000Y-92268236D01*
X159909624Y-92047612D01*
X160031659Y-91997188D01*
X160296259Y-91733049D01*
X160439637Y-91387758D01*
X160439963Y-91013882D01*
X160297188Y-90668341D01*
X160033049Y-90403741D01*
X159687758Y-90260363D01*
X159313882Y-90260037D01*
X158968341Y-90402812D01*
X158703741Y-90666951D01*
X158652563Y-90790201D01*
X158171382Y-91271382D01*
X157978671Y-91559794D01*
X157911000Y-91900000D01*
X157911000Y-93700000D01*
X157978671Y-94040206D01*
X158131106Y-94268341D01*
X158164963Y-94319011D01*
X156696642Y-94319011D01*
X152962000Y-90584370D01*
X152962000Y-88053991D01*
X153964735Y-88053991D01*
X154197932Y-88618371D01*
X154629357Y-89050551D01*
X155193330Y-89284733D01*
X155803991Y-89285265D01*
X156368371Y-89052068D01*
X156800551Y-88620643D01*
X157034733Y-88056670D01*
X157034735Y-88053991D01*
X160464735Y-88053991D01*
X160697932Y-88618371D01*
X161129357Y-89050551D01*
X161693330Y-89284733D01*
X162303991Y-89285265D01*
X162868371Y-89052068D01*
X163300551Y-88620643D01*
X163534733Y-88056670D01*
X163535265Y-87446009D01*
X163302068Y-86881629D01*
X162870643Y-86449449D01*
X162306670Y-86215267D01*
X161696009Y-86214735D01*
X161131629Y-86447932D01*
X160699449Y-86879357D01*
X160465267Y-87443330D01*
X160464735Y-88053991D01*
X157034735Y-88053991D01*
X157035265Y-87446009D01*
X156802068Y-86881629D01*
X156370643Y-86449449D01*
X155806670Y-86215267D01*
X155196009Y-86214735D01*
X154631629Y-86447932D01*
X154199449Y-86879357D01*
X153965267Y-87443330D01*
X153964735Y-88053991D01*
X152962000Y-88053991D01*
X152962000Y-84330159D01*
X154599446Y-84330159D01*
X154685852Y-84586643D01*
X155259336Y-84796458D01*
X155869460Y-84770839D01*
X156314148Y-84586643D01*
X156400554Y-84330159D01*
X161099446Y-84330159D01*
X161185852Y-84586643D01*
X161759336Y-84796458D01*
X162369460Y-84770839D01*
X162814148Y-84586643D01*
X162900554Y-84330159D01*
X162000000Y-83429605D01*
X161099446Y-84330159D01*
X156400554Y-84330159D01*
X155500000Y-83429605D01*
X154599446Y-84330159D01*
X152962000Y-84330159D01*
X152962000Y-83500000D01*
X152903996Y-83208395D01*
X152770989Y-83009336D01*
X153953542Y-83009336D01*
X153979161Y-83619460D01*
X154163357Y-84064148D01*
X154419841Y-84150554D01*
X155320395Y-83250000D01*
X155679605Y-83250000D01*
X156580159Y-84150554D01*
X156836643Y-84064148D01*
X157046458Y-83490664D01*
X157026248Y-83009336D01*
X160453542Y-83009336D01*
X160479161Y-83619460D01*
X160663357Y-84064148D01*
X160919841Y-84150554D01*
X161820395Y-83250000D01*
X162179605Y-83250000D01*
X163080159Y-84150554D01*
X163336643Y-84064148D01*
X163546458Y-83490664D01*
X163520839Y-82880540D01*
X163336643Y-82435852D01*
X163080159Y-82349446D01*
X162179605Y-83250000D01*
X161820395Y-83250000D01*
X160919841Y-82349446D01*
X160663357Y-82435852D01*
X160453542Y-83009336D01*
X157026248Y-83009336D01*
X157020839Y-82880540D01*
X156836643Y-82435852D01*
X156580159Y-82349446D01*
X155679605Y-83250000D01*
X155320395Y-83250000D01*
X154419841Y-82349446D01*
X154163357Y-82435852D01*
X153953542Y-83009336D01*
X152770989Y-83009336D01*
X152738815Y-82961185D01*
X151947471Y-82169841D01*
X154599446Y-82169841D01*
X155500000Y-83070395D01*
X156400554Y-82169841D01*
X161099446Y-82169841D01*
X162000000Y-83070395D01*
X162900554Y-82169841D01*
X162814148Y-81913357D01*
X162240664Y-81703542D01*
X161630540Y-81729161D01*
X161185852Y-81913357D01*
X161099446Y-82169841D01*
X156400554Y-82169841D01*
X156314148Y-81913357D01*
X155740664Y-81703542D01*
X155130540Y-81729161D01*
X154685852Y-81913357D01*
X154599446Y-82169841D01*
X151947471Y-82169841D01*
X151938815Y-82161185D01*
X151691605Y-81996004D01*
X151400000Y-81938000D01*
X150567248Y-81938000D01*
X150533049Y-81903741D01*
X150187758Y-81760363D01*
X149813882Y-81760037D01*
X149468341Y-81902812D01*
X149433092Y-81938000D01*
X146567248Y-81938000D01*
X146533049Y-81903741D01*
X146187758Y-81760363D01*
X145813882Y-81760037D01*
X145468341Y-81902812D01*
X145433092Y-81938000D01*
X142567248Y-81938000D01*
X142533049Y-81903741D01*
X142187758Y-81760363D01*
X141813882Y-81760037D01*
X141710000Y-81802960D01*
X141710000Y-81210000D01*
X169010446Y-81210000D01*
X168707875Y-81412172D01*
M02*
