G04 #@! TF.FileFunction,Legend,Top*
%FSLAX46Y46*%
G04 Gerber Fmt 4.6, Leading zero omitted, Abs format (unit mm)*
G04 Created by KiCad (PCBNEW 4.0.7) date 03/21/18 23:37:41*
%MOMM*%
%LPD*%
G01*
G04 APERTURE LIST*
%ADD10C,0.101600*%
%ADD11C,0.200000*%
%ADD12C,0.203200*%
%ADD13C,0.300000*%
%ADD14C,0.150000*%
G04 APERTURE END LIST*
D10*
D11*
X157000000Y-44750000D02*
X156250000Y-43750000D01*
D12*
X142361000Y-45278000D02*
X142361000Y-41722000D01*
X142361000Y-41722000D02*
X144139000Y-41722000D01*
X144139000Y-41722000D02*
X144139000Y-45278000D01*
X144139000Y-45278000D02*
X142361000Y-45278000D01*
X140361000Y-45278000D02*
X140361000Y-41722000D01*
X140361000Y-41722000D02*
X142139000Y-41722000D01*
X142139000Y-41722000D02*
X142139000Y-45278000D01*
X142139000Y-45278000D02*
X140361000Y-45278000D01*
X151178000Y-54339000D02*
X147622000Y-54339000D01*
X147622000Y-54339000D02*
X147622000Y-52561000D01*
X147622000Y-52561000D02*
X151178000Y-52561000D01*
X151178000Y-52561000D02*
X151178000Y-54339000D01*
X166978000Y-46689000D02*
X163422000Y-46689000D01*
X163422000Y-46689000D02*
X163422000Y-44911000D01*
X163422000Y-44911000D02*
X166978000Y-44911000D01*
X166978000Y-44911000D02*
X166978000Y-46689000D01*
X152472000Y-36361000D02*
X156028000Y-36361000D01*
X156028000Y-36361000D02*
X156028000Y-38139000D01*
X156028000Y-38139000D02*
X152472000Y-38139000D01*
X152472000Y-38139000D02*
X152472000Y-36361000D01*
X156028000Y-44139000D02*
X152472000Y-44139000D01*
X152472000Y-44139000D02*
X152472000Y-42361000D01*
X152472000Y-42361000D02*
X156028000Y-42361000D01*
X156028000Y-42361000D02*
X156028000Y-44139000D01*
X144311000Y-48803000D02*
X144311000Y-45247000D01*
X144311000Y-45247000D02*
X146089000Y-45247000D01*
X146089000Y-45247000D02*
X146089000Y-48803000D01*
X146089000Y-48803000D02*
X144311000Y-48803000D01*
X169943000Y-45368000D02*
X169943000Y-49432000D01*
X169943000Y-49432000D02*
X167657000Y-49432000D01*
X167657000Y-49432000D02*
X167657000Y-45368000D01*
X167657000Y-45368000D02*
X169943000Y-45368000D01*
X151178000Y-52289000D02*
X147622000Y-52289000D01*
X147622000Y-52289000D02*
X147622000Y-50511000D01*
X147622000Y-50511000D02*
X151178000Y-50511000D01*
X151178000Y-50511000D02*
X151178000Y-52289000D01*
X148139000Y-37972000D02*
X148139000Y-41528000D01*
X148139000Y-41528000D02*
X146361000Y-41528000D01*
X146361000Y-41528000D02*
X146361000Y-37972000D01*
X146361000Y-37972000D02*
X148139000Y-37972000D01*
X146139000Y-37972000D02*
X146139000Y-41528000D01*
X146139000Y-41528000D02*
X144361000Y-41528000D01*
X144361000Y-41528000D02*
X144361000Y-37972000D01*
X144361000Y-37972000D02*
X146139000Y-37972000D01*
X156028000Y-46139000D02*
X152472000Y-46139000D01*
X152472000Y-46139000D02*
X152472000Y-44361000D01*
X152472000Y-44361000D02*
X156028000Y-44361000D01*
X156028000Y-44361000D02*
X156028000Y-46139000D01*
X146911000Y-58578000D02*
X146911000Y-55022000D01*
X146911000Y-55022000D02*
X148689000Y-55022000D01*
X148689000Y-55022000D02*
X148689000Y-58578000D01*
X148689000Y-58578000D02*
X146911000Y-58578000D01*
X172089000Y-45822000D02*
X172089000Y-49378000D01*
X172089000Y-49378000D02*
X170311000Y-49378000D01*
X170311000Y-49378000D02*
X170311000Y-45822000D01*
X170311000Y-45822000D02*
X172089000Y-45822000D01*
X155222000Y-52711000D02*
X158778000Y-52711000D01*
X158778000Y-52711000D02*
X158778000Y-54489000D01*
X158778000Y-54489000D02*
X155222000Y-54489000D01*
X155222000Y-54489000D02*
X155222000Y-52711000D01*
X178930200Y-68285600D02*
X182486200Y-68285600D01*
X182486200Y-68285600D02*
X182486200Y-70063600D01*
X182486200Y-70063600D02*
X178930200Y-70063600D01*
X178930200Y-70063600D02*
X178930200Y-68285600D01*
X144139000Y-41028000D02*
X144139000Y-41409000D01*
X144139000Y-41409000D02*
X142361000Y-41409000D01*
X142361000Y-41409000D02*
X142361000Y-41028000D01*
X144139000Y-37472000D02*
X144139000Y-41028000D01*
X144139000Y-41028000D02*
X142361000Y-41028000D01*
X142361000Y-41028000D02*
X142361000Y-37472000D01*
X142361000Y-37472000D02*
X144139000Y-37472000D01*
X142139000Y-41028000D02*
X142139000Y-41409000D01*
X142139000Y-41409000D02*
X140361000Y-41409000D01*
X140361000Y-41409000D02*
X140361000Y-41028000D01*
X142139000Y-37472000D02*
X142139000Y-41028000D01*
X142139000Y-41028000D02*
X140361000Y-41028000D01*
X140361000Y-41028000D02*
X140361000Y-37472000D01*
X140361000Y-37472000D02*
X142139000Y-37472000D01*
X140361000Y-72472000D02*
X140361000Y-72091000D01*
X140361000Y-72091000D02*
X142139000Y-72091000D01*
X142139000Y-72091000D02*
X142139000Y-72472000D01*
X140361000Y-76028000D02*
X140361000Y-72472000D01*
X140361000Y-72472000D02*
X142139000Y-72472000D01*
X142139000Y-72472000D02*
X142139000Y-76028000D01*
X142139000Y-76028000D02*
X140361000Y-76028000D01*
X145111000Y-72472000D02*
X145111000Y-72091000D01*
X145111000Y-72091000D02*
X146889000Y-72091000D01*
X146889000Y-72091000D02*
X146889000Y-72472000D01*
X145111000Y-76028000D02*
X145111000Y-72472000D01*
X145111000Y-72472000D02*
X146889000Y-72472000D01*
X146889000Y-72472000D02*
X146889000Y-76028000D01*
X146889000Y-76028000D02*
X145111000Y-76028000D01*
X149861000Y-72472000D02*
X149861000Y-72091000D01*
X149861000Y-72091000D02*
X151639000Y-72091000D01*
X151639000Y-72091000D02*
X151639000Y-72472000D01*
X149861000Y-76028000D02*
X149861000Y-72472000D01*
X149861000Y-72472000D02*
X151639000Y-72472000D01*
X151639000Y-72472000D02*
X151639000Y-76028000D01*
X151639000Y-76028000D02*
X149861000Y-76028000D01*
X182541200Y-65204600D02*
X182922200Y-65204600D01*
X182922200Y-65204600D02*
X182922200Y-67744600D01*
X182922200Y-67744600D02*
X182541200Y-67744600D01*
X175175200Y-65204600D02*
X182541200Y-65204600D01*
X182541200Y-65204600D02*
X182541200Y-67744600D01*
X182541200Y-67744600D02*
X175175200Y-67744600D01*
X175175200Y-67744600D02*
X175175200Y-65204600D01*
X154861000Y-72397000D02*
X154861000Y-72016000D01*
X154861000Y-72016000D02*
X156639000Y-72016000D01*
X156639000Y-72016000D02*
X156639000Y-72397000D01*
X154861000Y-75953000D02*
X154861000Y-72397000D01*
X154861000Y-72397000D02*
X156639000Y-72397000D01*
X156639000Y-72397000D02*
X156639000Y-75953000D01*
X156639000Y-75953000D02*
X154861000Y-75953000D01*
X159611000Y-72397000D02*
X159611000Y-72016000D01*
X159611000Y-72016000D02*
X161389000Y-72016000D01*
X161389000Y-72016000D02*
X161389000Y-72397000D01*
X159611000Y-75953000D02*
X159611000Y-72397000D01*
X159611000Y-72397000D02*
X161389000Y-72397000D01*
X161389000Y-72397000D02*
X161389000Y-75953000D01*
X161389000Y-75953000D02*
X159611000Y-75953000D01*
X164611000Y-72397000D02*
X164611000Y-72016000D01*
X164611000Y-72016000D02*
X166389000Y-72016000D01*
X166389000Y-72016000D02*
X166389000Y-72397000D01*
X164611000Y-75953000D02*
X164611000Y-72397000D01*
X164611000Y-72397000D02*
X166389000Y-72397000D01*
X166389000Y-72397000D02*
X166389000Y-75953000D01*
X166389000Y-75953000D02*
X164611000Y-75953000D01*
D13*
X159200000Y-35050000D02*
X159200000Y-35550000D01*
X166700000Y-35050000D02*
X159200000Y-35050000D01*
X166700000Y-35550000D02*
X166700000Y-35050000D01*
X159200000Y-39050000D02*
X159200000Y-41050000D01*
X166700000Y-39050000D02*
X166700000Y-41050000D01*
D12*
X179500000Y-64120000D02*
X176960000Y-64120000D01*
X176960000Y-64120000D02*
X176960000Y-48880000D01*
X176960000Y-48880000D02*
X182040000Y-48880000D01*
X182040000Y-48880000D02*
X182040000Y-64120000D01*
X182040000Y-64120000D02*
X179500000Y-64120000D01*
X167432000Y-49343000D02*
X163368000Y-49343000D01*
X163368000Y-49343000D02*
X163368000Y-47057000D01*
X163368000Y-47057000D02*
X167432000Y-47057000D01*
X167432000Y-47057000D02*
X167432000Y-49343000D01*
X156028000Y-40139000D02*
X152472000Y-40139000D01*
X152472000Y-40139000D02*
X152472000Y-38361000D01*
X152472000Y-38361000D02*
X156028000Y-38361000D01*
X156028000Y-38361000D02*
X156028000Y-40139000D01*
X156028000Y-42139000D02*
X152472000Y-42139000D01*
X152472000Y-42139000D02*
X152472000Y-40361000D01*
X152472000Y-40361000D02*
X156028000Y-40361000D01*
X156028000Y-40361000D02*
X156028000Y-42139000D01*
X143978000Y-48289000D02*
X140422000Y-48289000D01*
X140422000Y-48289000D02*
X140422000Y-46511000D01*
X140422000Y-46511000D02*
X143978000Y-46511000D01*
X143978000Y-46511000D02*
X143978000Y-48289000D01*
X143978000Y-50289000D02*
X140422000Y-50289000D01*
X140422000Y-50289000D02*
X140422000Y-48511000D01*
X140422000Y-48511000D02*
X143978000Y-48511000D01*
X143978000Y-48511000D02*
X143978000Y-50289000D01*
X143978000Y-52289000D02*
X140422000Y-52289000D01*
X140422000Y-52289000D02*
X140422000Y-50511000D01*
X140422000Y-50511000D02*
X143978000Y-50511000D01*
X143978000Y-50511000D02*
X143978000Y-52289000D01*
X147622000Y-48511000D02*
X151178000Y-48511000D01*
X151178000Y-48511000D02*
X151178000Y-50289000D01*
X151178000Y-50289000D02*
X147622000Y-50289000D01*
X147622000Y-50289000D02*
X147622000Y-48511000D01*
X143978000Y-54289000D02*
X140422000Y-54289000D01*
X140422000Y-54289000D02*
X140422000Y-52511000D01*
X140422000Y-52511000D02*
X143978000Y-52511000D01*
X143978000Y-52511000D02*
X143978000Y-54289000D01*
X168578000Y-67689000D02*
X165022000Y-67689000D01*
X165022000Y-67689000D02*
X165022000Y-65911000D01*
X165022000Y-65911000D02*
X168578000Y-65911000D01*
X168578000Y-65911000D02*
X168578000Y-67689000D01*
X161022000Y-65911000D02*
X164578000Y-65911000D01*
X164578000Y-65911000D02*
X164578000Y-67689000D01*
X164578000Y-67689000D02*
X161022000Y-67689000D01*
X161022000Y-67689000D02*
X161022000Y-65911000D01*
X142911000Y-58578000D02*
X142911000Y-55022000D01*
X142911000Y-55022000D02*
X144689000Y-55022000D01*
X144689000Y-55022000D02*
X144689000Y-58578000D01*
X144689000Y-58578000D02*
X142911000Y-58578000D01*
X144911000Y-58578000D02*
X144911000Y-55022000D01*
X144911000Y-55022000D02*
X146689000Y-55022000D01*
X146689000Y-55022000D02*
X146689000Y-58578000D01*
X146689000Y-58578000D02*
X144911000Y-58578000D01*
X174311000Y-49378000D02*
X174311000Y-45822000D01*
X174311000Y-45822000D02*
X176089000Y-45822000D01*
X176089000Y-45822000D02*
X176089000Y-49378000D01*
X176089000Y-49378000D02*
X174311000Y-49378000D01*
X172311000Y-49378000D02*
X172311000Y-45822000D01*
X172311000Y-45822000D02*
X174089000Y-45822000D01*
X174089000Y-45822000D02*
X174089000Y-49378000D01*
X174089000Y-49378000D02*
X172311000Y-49378000D01*
X155222000Y-58861000D02*
X158778000Y-58861000D01*
X158778000Y-58861000D02*
X158778000Y-60639000D01*
X158778000Y-60639000D02*
X155222000Y-60639000D01*
X155222000Y-60639000D02*
X155222000Y-58861000D01*
X155222000Y-60861000D02*
X158778000Y-60861000D01*
X158778000Y-60861000D02*
X158778000Y-62639000D01*
X158778000Y-62639000D02*
X155222000Y-62639000D01*
X155222000Y-62639000D02*
X155222000Y-60861000D01*
X155222000Y-56861000D02*
X158778000Y-56861000D01*
X158778000Y-56861000D02*
X158778000Y-58639000D01*
X158778000Y-58639000D02*
X155222000Y-58639000D01*
X155222000Y-58639000D02*
X155222000Y-56861000D01*
X155222000Y-54861000D02*
X158778000Y-54861000D01*
X158778000Y-54861000D02*
X158778000Y-56639000D01*
X158778000Y-56639000D02*
X155222000Y-56639000D01*
X155222000Y-56639000D02*
X155222000Y-54861000D01*
X146689000Y-62222000D02*
X146689000Y-65778000D01*
X146689000Y-65778000D02*
X144911000Y-65778000D01*
X144911000Y-65778000D02*
X144911000Y-62222000D01*
X144911000Y-62222000D02*
X146689000Y-62222000D01*
X144689000Y-62247000D02*
X144689000Y-65803000D01*
X144689000Y-65803000D02*
X142911000Y-65803000D01*
X142911000Y-65803000D02*
X142911000Y-62247000D01*
X142911000Y-62247000D02*
X144689000Y-62247000D01*
X148689000Y-62222000D02*
X148689000Y-65778000D01*
X148689000Y-65778000D02*
X146911000Y-65778000D01*
X146911000Y-65778000D02*
X146911000Y-62222000D01*
X146911000Y-62222000D02*
X148689000Y-62222000D01*
X150689000Y-62222000D02*
X150689000Y-65778000D01*
X150689000Y-65778000D02*
X148911000Y-65778000D01*
X148911000Y-65778000D02*
X148911000Y-62222000D01*
X148911000Y-62222000D02*
X150689000Y-62222000D01*
X148911000Y-58578000D02*
X148911000Y-55022000D01*
X148911000Y-55022000D02*
X150689000Y-55022000D01*
X150689000Y-55022000D02*
X150689000Y-58578000D01*
X150689000Y-58578000D02*
X148911000Y-58578000D01*
X150911000Y-58578000D02*
X150911000Y-55022000D01*
X150911000Y-55022000D02*
X152689000Y-55022000D01*
X152689000Y-55022000D02*
X152689000Y-58578000D01*
X152689000Y-58578000D02*
X150911000Y-58578000D01*
X152689000Y-62222000D02*
X152689000Y-65778000D01*
X152689000Y-65778000D02*
X150911000Y-65778000D01*
X150911000Y-65778000D02*
X150911000Y-62222000D01*
X150911000Y-62222000D02*
X152689000Y-62222000D01*
X154468400Y-62222000D02*
X154468400Y-65778000D01*
X154468400Y-65778000D02*
X152690400Y-65778000D01*
X152690400Y-65778000D02*
X152690400Y-62222000D01*
X152690400Y-62222000D02*
X154468400Y-62222000D01*
X178686200Y-70063600D02*
X175130200Y-70063600D01*
X175130200Y-70063600D02*
X175130200Y-68285600D01*
X175130200Y-68285600D02*
X178686200Y-68285600D01*
X178686200Y-68285600D02*
X178686200Y-70063600D01*
X172861000Y-57611000D02*
X176417000Y-57611000D01*
X176417000Y-57611000D02*
X176417000Y-59389000D01*
X176417000Y-59389000D02*
X172861000Y-59389000D01*
X172861000Y-59389000D02*
X172861000Y-57611000D01*
X172861000Y-53611000D02*
X176417000Y-53611000D01*
X176417000Y-53611000D02*
X176417000Y-55389000D01*
X176417000Y-55389000D02*
X172861000Y-55389000D01*
X172861000Y-55389000D02*
X172861000Y-53611000D01*
X172861000Y-55611000D02*
X176417000Y-55611000D01*
X176417000Y-55611000D02*
X176417000Y-57389000D01*
X176417000Y-57389000D02*
X172861000Y-57389000D01*
X172861000Y-57389000D02*
X172861000Y-55611000D01*
D13*
X144700000Y-51950000D02*
G75*
G03X144700000Y-51950000I-100000J0D01*
G01*
X151850000Y-45750000D02*
G75*
G03X151850000Y-45750000I-100000J0D01*
G01*
D14*
X151000000Y-45750000D02*
X150500000Y-46250000D01*
X151000000Y-42250000D02*
X151000000Y-42750000D01*
X150500000Y-42250000D02*
X151000000Y-42250000D01*
X147000000Y-42250000D02*
X147500000Y-42250000D01*
X147000000Y-42750000D02*
X147000000Y-42250000D01*
X147000000Y-46250000D02*
X147000000Y-45750000D01*
X147500000Y-46250000D02*
X147000000Y-46250000D01*
D13*
X147950000Y-61700000D02*
G75*
G03X147950000Y-61700000I-100000J0D01*
G01*
D12*
X172450000Y-39500000D02*
X171450000Y-39500000D01*
X171450000Y-39500000D02*
X171450000Y-40750000D01*
X174450000Y-39500000D02*
X175450000Y-39500000D01*
X175450000Y-39500000D02*
X175450000Y-40750000D01*
X160823607Y-52110000D02*
G75*
G03X160823607Y-52110000I-223607J0D01*
G01*
X166000000Y-52510000D02*
X168600000Y-52510000D01*
X164600000Y-52510000D02*
X162000000Y-52510000D01*
X164600000Y-52510000D02*
G75*
G03X166000000Y-52510000I700000J0D01*
G01*
X168600000Y-52510000D02*
X168600000Y-65310000D01*
X168600000Y-65310000D02*
X162000000Y-65310000D01*
X162000000Y-65310000D02*
X162000000Y-52510000D01*
D14*
X145452381Y-44042857D02*
X144976190Y-44376191D01*
X145452381Y-44614286D02*
X144452381Y-44614286D01*
X144452381Y-44233333D01*
X144500000Y-44138095D01*
X144547619Y-44090476D01*
X144642857Y-44042857D01*
X144785714Y-44042857D01*
X144880952Y-44090476D01*
X144928571Y-44138095D01*
X144976190Y-44233333D01*
X144976190Y-44614286D01*
X145452381Y-43090476D02*
X145452381Y-43661905D01*
X145452381Y-43376191D02*
X144452381Y-43376191D01*
X144595238Y-43471429D01*
X144690476Y-43566667D01*
X144738095Y-43661905D01*
X144452381Y-42757143D02*
X144452381Y-42138095D01*
X144833333Y-42471429D01*
X144833333Y-42328571D01*
X144880952Y-42233333D01*
X144928571Y-42185714D01*
X145023810Y-42138095D01*
X145261905Y-42138095D01*
X145357143Y-42185714D01*
X145404762Y-42233333D01*
X145452381Y-42328571D01*
X145452381Y-42614286D01*
X145404762Y-42709524D01*
X145357143Y-42757143D01*
X140052381Y-44442857D02*
X139576190Y-44776191D01*
X140052381Y-45014286D02*
X139052381Y-45014286D01*
X139052381Y-44633333D01*
X139100000Y-44538095D01*
X139147619Y-44490476D01*
X139242857Y-44442857D01*
X139385714Y-44442857D01*
X139480952Y-44490476D01*
X139528571Y-44538095D01*
X139576190Y-44633333D01*
X139576190Y-45014286D01*
X140052381Y-43490476D02*
X140052381Y-44061905D01*
X140052381Y-43776191D02*
X139052381Y-43776191D01*
X139195238Y-43871429D01*
X139290476Y-43966667D01*
X139338095Y-44061905D01*
X139385714Y-42633333D02*
X140052381Y-42633333D01*
X139004762Y-42871429D02*
X139719048Y-43109524D01*
X139719048Y-42490476D01*
X152233334Y-53807143D02*
X152185715Y-53854762D01*
X152042858Y-53902381D01*
X151947620Y-53902381D01*
X151804762Y-53854762D01*
X151709524Y-53759524D01*
X151661905Y-53664286D01*
X151614286Y-53473810D01*
X151614286Y-53330952D01*
X151661905Y-53140476D01*
X151709524Y-53045238D01*
X151804762Y-52950000D01*
X151947620Y-52902381D01*
X152042858Y-52902381D01*
X152185715Y-52950000D01*
X152233334Y-52997619D01*
X153185715Y-53902381D02*
X152614286Y-53902381D01*
X152900000Y-53902381D02*
X152900000Y-52902381D01*
X152804762Y-53045238D01*
X152709524Y-53140476D01*
X152614286Y-53188095D01*
X162033334Y-46157143D02*
X161985715Y-46204762D01*
X161842858Y-46252381D01*
X161747620Y-46252381D01*
X161604762Y-46204762D01*
X161509524Y-46109524D01*
X161461905Y-46014286D01*
X161414286Y-45823810D01*
X161414286Y-45680952D01*
X161461905Y-45490476D01*
X161509524Y-45395238D01*
X161604762Y-45300000D01*
X161747620Y-45252381D01*
X161842858Y-45252381D01*
X161985715Y-45300000D01*
X162033334Y-45347619D01*
X162414286Y-45347619D02*
X162461905Y-45300000D01*
X162557143Y-45252381D01*
X162795239Y-45252381D01*
X162890477Y-45300000D01*
X162938096Y-45347619D01*
X162985715Y-45442857D01*
X162985715Y-45538095D01*
X162938096Y-45680952D01*
X162366667Y-46252381D01*
X162985715Y-46252381D01*
X151033334Y-37557143D02*
X150985715Y-37604762D01*
X150842858Y-37652381D01*
X150747620Y-37652381D01*
X150604762Y-37604762D01*
X150509524Y-37509524D01*
X150461905Y-37414286D01*
X150414286Y-37223810D01*
X150414286Y-37080952D01*
X150461905Y-36890476D01*
X150509524Y-36795238D01*
X150604762Y-36700000D01*
X150747620Y-36652381D01*
X150842858Y-36652381D01*
X150985715Y-36700000D01*
X151033334Y-36747619D01*
X151366667Y-36652381D02*
X151985715Y-36652381D01*
X151652381Y-37033333D01*
X151795239Y-37033333D01*
X151890477Y-37080952D01*
X151938096Y-37128571D01*
X151985715Y-37223810D01*
X151985715Y-37461905D01*
X151938096Y-37557143D01*
X151890477Y-37604762D01*
X151795239Y-37652381D01*
X151509524Y-37652381D01*
X151414286Y-37604762D01*
X151366667Y-37557143D01*
X157583334Y-45857143D02*
X157535715Y-45904762D01*
X157392858Y-45952381D01*
X157297620Y-45952381D01*
X157154762Y-45904762D01*
X157059524Y-45809524D01*
X157011905Y-45714286D01*
X156964286Y-45523810D01*
X156964286Y-45380952D01*
X157011905Y-45190476D01*
X157059524Y-45095238D01*
X157154762Y-45000000D01*
X157297620Y-44952381D01*
X157392858Y-44952381D01*
X157535715Y-45000000D01*
X157583334Y-45047619D01*
X158440477Y-45285714D02*
X158440477Y-45952381D01*
X158202381Y-44904762D02*
X157964286Y-45619048D01*
X158583334Y-45619048D01*
X145557143Y-50166666D02*
X145604762Y-50214285D01*
X145652381Y-50357142D01*
X145652381Y-50452380D01*
X145604762Y-50595238D01*
X145509524Y-50690476D01*
X145414286Y-50738095D01*
X145223810Y-50785714D01*
X145080952Y-50785714D01*
X144890476Y-50738095D01*
X144795238Y-50690476D01*
X144700000Y-50595238D01*
X144652381Y-50452380D01*
X144652381Y-50357142D01*
X144700000Y-50214285D01*
X144747619Y-50166666D01*
X144652381Y-49261904D02*
X144652381Y-49738095D01*
X145128571Y-49785714D01*
X145080952Y-49738095D01*
X145033333Y-49642857D01*
X145033333Y-49404761D01*
X145080952Y-49309523D01*
X145128571Y-49261904D01*
X145223810Y-49214285D01*
X145461905Y-49214285D01*
X145557143Y-49261904D01*
X145604762Y-49309523D01*
X145652381Y-49404761D01*
X145652381Y-49642857D01*
X145604762Y-49738095D01*
X145557143Y-49785714D01*
X169857143Y-44416666D02*
X169904762Y-44464285D01*
X169952381Y-44607142D01*
X169952381Y-44702380D01*
X169904762Y-44845238D01*
X169809524Y-44940476D01*
X169714286Y-44988095D01*
X169523810Y-45035714D01*
X169380952Y-45035714D01*
X169190476Y-44988095D01*
X169095238Y-44940476D01*
X169000000Y-44845238D01*
X168952381Y-44702380D01*
X168952381Y-44607142D01*
X169000000Y-44464285D01*
X169047619Y-44416666D01*
X168952381Y-43559523D02*
X168952381Y-43750000D01*
X169000000Y-43845238D01*
X169047619Y-43892857D01*
X169190476Y-43988095D01*
X169380952Y-44035714D01*
X169761905Y-44035714D01*
X169857143Y-43988095D01*
X169904762Y-43940476D01*
X169952381Y-43845238D01*
X169952381Y-43654761D01*
X169904762Y-43559523D01*
X169857143Y-43511904D01*
X169761905Y-43464285D01*
X169523810Y-43464285D01*
X169428571Y-43511904D01*
X169380952Y-43559523D01*
X169333333Y-43654761D01*
X169333333Y-43845238D01*
X169380952Y-43940476D01*
X169428571Y-43988095D01*
X169523810Y-44035714D01*
X152233334Y-51757143D02*
X152185715Y-51804762D01*
X152042858Y-51852381D01*
X151947620Y-51852381D01*
X151804762Y-51804762D01*
X151709524Y-51709524D01*
X151661905Y-51614286D01*
X151614286Y-51423810D01*
X151614286Y-51280952D01*
X151661905Y-51090476D01*
X151709524Y-50995238D01*
X151804762Y-50900000D01*
X151947620Y-50852381D01*
X152042858Y-50852381D01*
X152185715Y-50900000D01*
X152233334Y-50947619D01*
X152566667Y-50852381D02*
X153233334Y-50852381D01*
X152804762Y-51852381D01*
X147557143Y-36966666D02*
X147604762Y-37014285D01*
X147652381Y-37157142D01*
X147652381Y-37252380D01*
X147604762Y-37395238D01*
X147509524Y-37490476D01*
X147414286Y-37538095D01*
X147223810Y-37585714D01*
X147080952Y-37585714D01*
X146890476Y-37538095D01*
X146795238Y-37490476D01*
X146700000Y-37395238D01*
X146652381Y-37252380D01*
X146652381Y-37157142D01*
X146700000Y-37014285D01*
X146747619Y-36966666D01*
X147080952Y-36395238D02*
X147033333Y-36490476D01*
X146985714Y-36538095D01*
X146890476Y-36585714D01*
X146842857Y-36585714D01*
X146747619Y-36538095D01*
X146700000Y-36490476D01*
X146652381Y-36395238D01*
X146652381Y-36204761D01*
X146700000Y-36109523D01*
X146747619Y-36061904D01*
X146842857Y-36014285D01*
X146890476Y-36014285D01*
X146985714Y-36061904D01*
X147033333Y-36109523D01*
X147080952Y-36204761D01*
X147080952Y-36395238D01*
X147128571Y-36490476D01*
X147176190Y-36538095D01*
X147271429Y-36585714D01*
X147461905Y-36585714D01*
X147557143Y-36538095D01*
X147604762Y-36490476D01*
X147652381Y-36395238D01*
X147652381Y-36204761D01*
X147604762Y-36109523D01*
X147557143Y-36061904D01*
X147461905Y-36014285D01*
X147271429Y-36014285D01*
X147176190Y-36061904D01*
X147128571Y-36109523D01*
X147080952Y-36204761D01*
X145757143Y-36966666D02*
X145804762Y-37014285D01*
X145852381Y-37157142D01*
X145852381Y-37252380D01*
X145804762Y-37395238D01*
X145709524Y-37490476D01*
X145614286Y-37538095D01*
X145423810Y-37585714D01*
X145280952Y-37585714D01*
X145090476Y-37538095D01*
X144995238Y-37490476D01*
X144900000Y-37395238D01*
X144852381Y-37252380D01*
X144852381Y-37157142D01*
X144900000Y-37014285D01*
X144947619Y-36966666D01*
X145852381Y-36490476D02*
X145852381Y-36300000D01*
X145804762Y-36204761D01*
X145757143Y-36157142D01*
X145614286Y-36061904D01*
X145423810Y-36014285D01*
X145042857Y-36014285D01*
X144947619Y-36061904D01*
X144900000Y-36109523D01*
X144852381Y-36204761D01*
X144852381Y-36395238D01*
X144900000Y-36490476D01*
X144947619Y-36538095D01*
X145042857Y-36585714D01*
X145280952Y-36585714D01*
X145376190Y-36538095D01*
X145423810Y-36490476D01*
X145471429Y-36395238D01*
X145471429Y-36204761D01*
X145423810Y-36109523D01*
X145376190Y-36061904D01*
X145280952Y-36014285D01*
X153857143Y-47357143D02*
X153809524Y-47404762D01*
X153666667Y-47452381D01*
X153571429Y-47452381D01*
X153428571Y-47404762D01*
X153333333Y-47309524D01*
X153285714Y-47214286D01*
X153238095Y-47023810D01*
X153238095Y-46880952D01*
X153285714Y-46690476D01*
X153333333Y-46595238D01*
X153428571Y-46500000D01*
X153571429Y-46452381D01*
X153666667Y-46452381D01*
X153809524Y-46500000D01*
X153857143Y-46547619D01*
X154809524Y-47452381D02*
X154238095Y-47452381D01*
X154523809Y-47452381D02*
X154523809Y-46452381D01*
X154428571Y-46595238D01*
X154333333Y-46690476D01*
X154238095Y-46738095D01*
X155428571Y-46452381D02*
X155523810Y-46452381D01*
X155619048Y-46500000D01*
X155666667Y-46547619D01*
X155714286Y-46642857D01*
X155761905Y-46833333D01*
X155761905Y-47071429D01*
X155714286Y-47261905D01*
X155666667Y-47357143D01*
X155619048Y-47404762D01*
X155523810Y-47452381D01*
X155428571Y-47452381D01*
X155333333Y-47404762D01*
X155285714Y-47357143D01*
X155238095Y-47261905D01*
X155190476Y-47071429D01*
X155190476Y-46833333D01*
X155238095Y-46642857D01*
X155285714Y-46547619D01*
X155333333Y-46500000D01*
X155428571Y-46452381D01*
X141107143Y-57442857D02*
X141154762Y-57490476D01*
X141202381Y-57633333D01*
X141202381Y-57728571D01*
X141154762Y-57871429D01*
X141059524Y-57966667D01*
X140964286Y-58014286D01*
X140773810Y-58061905D01*
X140630952Y-58061905D01*
X140440476Y-58014286D01*
X140345238Y-57966667D01*
X140250000Y-57871429D01*
X140202381Y-57728571D01*
X140202381Y-57633333D01*
X140250000Y-57490476D01*
X140297619Y-57442857D01*
X141202381Y-56490476D02*
X141202381Y-57061905D01*
X141202381Y-56776191D02*
X140202381Y-56776191D01*
X140345238Y-56871429D01*
X140440476Y-56966667D01*
X140488095Y-57061905D01*
X141202381Y-55538095D02*
X141202381Y-56109524D01*
X141202381Y-55823810D02*
X140202381Y-55823810D01*
X140345238Y-55919048D01*
X140440476Y-56014286D01*
X140488095Y-56109524D01*
X171557143Y-44742857D02*
X171604762Y-44790476D01*
X171652381Y-44933333D01*
X171652381Y-45028571D01*
X171604762Y-45171429D01*
X171509524Y-45266667D01*
X171414286Y-45314286D01*
X171223810Y-45361905D01*
X171080952Y-45361905D01*
X170890476Y-45314286D01*
X170795238Y-45266667D01*
X170700000Y-45171429D01*
X170652381Y-45028571D01*
X170652381Y-44933333D01*
X170700000Y-44790476D01*
X170747619Y-44742857D01*
X171652381Y-43790476D02*
X171652381Y-44361905D01*
X171652381Y-44076191D02*
X170652381Y-44076191D01*
X170795238Y-44171429D01*
X170890476Y-44266667D01*
X170938095Y-44361905D01*
X170747619Y-43409524D02*
X170700000Y-43361905D01*
X170652381Y-43266667D01*
X170652381Y-43028571D01*
X170700000Y-42933333D01*
X170747619Y-42885714D01*
X170842857Y-42838095D01*
X170938095Y-42838095D01*
X171080952Y-42885714D01*
X171652381Y-43457143D01*
X171652381Y-42838095D01*
X156157143Y-50957143D02*
X156109524Y-51004762D01*
X155966667Y-51052381D01*
X155871429Y-51052381D01*
X155728571Y-51004762D01*
X155633333Y-50909524D01*
X155585714Y-50814286D01*
X155538095Y-50623810D01*
X155538095Y-50480952D01*
X155585714Y-50290476D01*
X155633333Y-50195238D01*
X155728571Y-50100000D01*
X155871429Y-50052381D01*
X155966667Y-50052381D01*
X156109524Y-50100000D01*
X156157143Y-50147619D01*
X157109524Y-51052381D02*
X156538095Y-51052381D01*
X156823809Y-51052381D02*
X156823809Y-50052381D01*
X156728571Y-50195238D01*
X156633333Y-50290476D01*
X156538095Y-50338095D01*
X157442857Y-50052381D02*
X158061905Y-50052381D01*
X157728571Y-50433333D01*
X157871429Y-50433333D01*
X157966667Y-50480952D01*
X158014286Y-50528571D01*
X158061905Y-50623810D01*
X158061905Y-50861905D01*
X158014286Y-50957143D01*
X157966667Y-51004762D01*
X157871429Y-51052381D01*
X157585714Y-51052381D01*
X157490476Y-51004762D01*
X157442857Y-50957143D01*
X180065343Y-71357143D02*
X180017724Y-71404762D01*
X179874867Y-71452381D01*
X179779629Y-71452381D01*
X179636771Y-71404762D01*
X179541533Y-71309524D01*
X179493914Y-71214286D01*
X179446295Y-71023810D01*
X179446295Y-70880952D01*
X179493914Y-70690476D01*
X179541533Y-70595238D01*
X179636771Y-70500000D01*
X179779629Y-70452381D01*
X179874867Y-70452381D01*
X180017724Y-70500000D01*
X180065343Y-70547619D01*
X181017724Y-71452381D02*
X180446295Y-71452381D01*
X180732009Y-71452381D02*
X180732009Y-70452381D01*
X180636771Y-70595238D01*
X180541533Y-70690476D01*
X180446295Y-70738095D01*
X181874867Y-70785714D02*
X181874867Y-71452381D01*
X181636771Y-70404762D02*
X181398676Y-71119048D01*
X182017724Y-71119048D01*
X143652381Y-37138095D02*
X142652381Y-37138095D01*
X142652381Y-36900000D01*
X142700000Y-36757142D01*
X142795238Y-36661904D01*
X142890476Y-36614285D01*
X143080952Y-36566666D01*
X143223810Y-36566666D01*
X143414286Y-36614285D01*
X143509524Y-36661904D01*
X143604762Y-36757142D01*
X143652381Y-36900000D01*
X143652381Y-37138095D01*
X143652381Y-35614285D02*
X143652381Y-36185714D01*
X143652381Y-35900000D02*
X142652381Y-35900000D01*
X142795238Y-35995238D01*
X142890476Y-36090476D01*
X142938095Y-36185714D01*
X141652381Y-37138095D02*
X140652381Y-37138095D01*
X140652381Y-36900000D01*
X140700000Y-36757142D01*
X140795238Y-36661904D01*
X140890476Y-36614285D01*
X141080952Y-36566666D01*
X141223810Y-36566666D01*
X141414286Y-36614285D01*
X141509524Y-36661904D01*
X141604762Y-36757142D01*
X141652381Y-36900000D01*
X141652381Y-37138095D01*
X140747619Y-36185714D02*
X140700000Y-36138095D01*
X140652381Y-36042857D01*
X140652381Y-35804761D01*
X140700000Y-35709523D01*
X140747619Y-35661904D01*
X140842857Y-35614285D01*
X140938095Y-35614285D01*
X141080952Y-35661904D01*
X141652381Y-36233333D01*
X141652381Y-35614285D01*
X141702381Y-71738095D02*
X140702381Y-71738095D01*
X140702381Y-71500000D01*
X140750000Y-71357142D01*
X140845238Y-71261904D01*
X140940476Y-71214285D01*
X141130952Y-71166666D01*
X141273810Y-71166666D01*
X141464286Y-71214285D01*
X141559524Y-71261904D01*
X141654762Y-71357142D01*
X141702381Y-71500000D01*
X141702381Y-71738095D01*
X140702381Y-70833333D02*
X140702381Y-70214285D01*
X141083333Y-70547619D01*
X141083333Y-70404761D01*
X141130952Y-70309523D01*
X141178571Y-70261904D01*
X141273810Y-70214285D01*
X141511905Y-70214285D01*
X141607143Y-70261904D01*
X141654762Y-70309523D01*
X141702381Y-70404761D01*
X141702381Y-70690476D01*
X141654762Y-70785714D01*
X141607143Y-70833333D01*
X146452381Y-71738095D02*
X145452381Y-71738095D01*
X145452381Y-71500000D01*
X145500000Y-71357142D01*
X145595238Y-71261904D01*
X145690476Y-71214285D01*
X145880952Y-71166666D01*
X146023810Y-71166666D01*
X146214286Y-71214285D01*
X146309524Y-71261904D01*
X146404762Y-71357142D01*
X146452381Y-71500000D01*
X146452381Y-71738095D01*
X145785714Y-70309523D02*
X146452381Y-70309523D01*
X145404762Y-70547619D02*
X146119048Y-70785714D01*
X146119048Y-70166666D01*
X151202381Y-71738095D02*
X150202381Y-71738095D01*
X150202381Y-71500000D01*
X150250000Y-71357142D01*
X150345238Y-71261904D01*
X150440476Y-71214285D01*
X150630952Y-71166666D01*
X150773810Y-71166666D01*
X150964286Y-71214285D01*
X151059524Y-71261904D01*
X151154762Y-71357142D01*
X151202381Y-71500000D01*
X151202381Y-71738095D01*
X150202381Y-70261904D02*
X150202381Y-70738095D01*
X150678571Y-70785714D01*
X150630952Y-70738095D01*
X150583333Y-70642857D01*
X150583333Y-70404761D01*
X150630952Y-70309523D01*
X150678571Y-70261904D01*
X150773810Y-70214285D01*
X151011905Y-70214285D01*
X151107143Y-70261904D01*
X151154762Y-70309523D01*
X151202381Y-70404761D01*
X151202381Y-70642857D01*
X151154762Y-70738095D01*
X151107143Y-70785714D01*
X173011905Y-66952381D02*
X173011905Y-65952381D01*
X173250000Y-65952381D01*
X173392858Y-66000000D01*
X173488096Y-66095238D01*
X173535715Y-66190476D01*
X173583334Y-66380952D01*
X173583334Y-66523810D01*
X173535715Y-66714286D01*
X173488096Y-66809524D01*
X173392858Y-66904762D01*
X173250000Y-66952381D01*
X173011905Y-66952381D01*
X174440477Y-65952381D02*
X174250000Y-65952381D01*
X174154762Y-66000000D01*
X174107143Y-66047619D01*
X174011905Y-66190476D01*
X173964286Y-66380952D01*
X173964286Y-66761905D01*
X174011905Y-66857143D01*
X174059524Y-66904762D01*
X174154762Y-66952381D01*
X174345239Y-66952381D01*
X174440477Y-66904762D01*
X174488096Y-66857143D01*
X174535715Y-66761905D01*
X174535715Y-66523810D01*
X174488096Y-66428571D01*
X174440477Y-66380952D01*
X174345239Y-66333333D01*
X174154762Y-66333333D01*
X174059524Y-66380952D01*
X174011905Y-66428571D01*
X173964286Y-66523810D01*
X156202381Y-71738095D02*
X155202381Y-71738095D01*
X155202381Y-71500000D01*
X155250000Y-71357142D01*
X155345238Y-71261904D01*
X155440476Y-71214285D01*
X155630952Y-71166666D01*
X155773810Y-71166666D01*
X155964286Y-71214285D01*
X156059524Y-71261904D01*
X156154762Y-71357142D01*
X156202381Y-71500000D01*
X156202381Y-71738095D01*
X155202381Y-70833333D02*
X155202381Y-70166666D01*
X156202381Y-70595238D01*
X160952381Y-71663095D02*
X159952381Y-71663095D01*
X159952381Y-71425000D01*
X160000000Y-71282142D01*
X160095238Y-71186904D01*
X160190476Y-71139285D01*
X160380952Y-71091666D01*
X160523810Y-71091666D01*
X160714286Y-71139285D01*
X160809524Y-71186904D01*
X160904762Y-71282142D01*
X160952381Y-71425000D01*
X160952381Y-71663095D01*
X160380952Y-70520238D02*
X160333333Y-70615476D01*
X160285714Y-70663095D01*
X160190476Y-70710714D01*
X160142857Y-70710714D01*
X160047619Y-70663095D01*
X160000000Y-70615476D01*
X159952381Y-70520238D01*
X159952381Y-70329761D01*
X160000000Y-70234523D01*
X160047619Y-70186904D01*
X160142857Y-70139285D01*
X160190476Y-70139285D01*
X160285714Y-70186904D01*
X160333333Y-70234523D01*
X160380952Y-70329761D01*
X160380952Y-70520238D01*
X160428571Y-70615476D01*
X160476190Y-70663095D01*
X160571429Y-70710714D01*
X160761905Y-70710714D01*
X160857143Y-70663095D01*
X160904762Y-70615476D01*
X160952381Y-70520238D01*
X160952381Y-70329761D01*
X160904762Y-70234523D01*
X160857143Y-70186904D01*
X160761905Y-70139285D01*
X160571429Y-70139285D01*
X160476190Y-70186904D01*
X160428571Y-70234523D01*
X160380952Y-70329761D01*
X165952381Y-71738095D02*
X164952381Y-71738095D01*
X164952381Y-71500000D01*
X165000000Y-71357142D01*
X165095238Y-71261904D01*
X165190476Y-71214285D01*
X165380952Y-71166666D01*
X165523810Y-71166666D01*
X165714286Y-71214285D01*
X165809524Y-71261904D01*
X165904762Y-71357142D01*
X165952381Y-71500000D01*
X165952381Y-71738095D01*
X165952381Y-70690476D02*
X165952381Y-70500000D01*
X165904762Y-70404761D01*
X165857143Y-70357142D01*
X165714286Y-70261904D01*
X165523810Y-70214285D01*
X165142857Y-70214285D01*
X165047619Y-70261904D01*
X165000000Y-70309523D01*
X164952381Y-70404761D01*
X164952381Y-70595238D01*
X165000000Y-70690476D01*
X165047619Y-70738095D01*
X165142857Y-70785714D01*
X165380952Y-70785714D01*
X165476190Y-70738095D01*
X165523810Y-70690476D01*
X165571429Y-70595238D01*
X165571429Y-70404761D01*
X165523810Y-70309523D01*
X165476190Y-70261904D01*
X165380952Y-70214285D01*
X167202381Y-40333333D02*
X167916667Y-40333333D01*
X168059524Y-40380953D01*
X168154762Y-40476191D01*
X168202381Y-40619048D01*
X168202381Y-40714286D01*
X168202381Y-39333333D02*
X168202381Y-39904762D01*
X168202381Y-39619048D02*
X167202381Y-39619048D01*
X167345238Y-39714286D01*
X167440476Y-39809524D01*
X167488095Y-39904762D01*
X175142381Y-63818333D02*
X175856667Y-63818333D01*
X175999524Y-63865953D01*
X176094762Y-63961191D01*
X176142381Y-64104048D01*
X176142381Y-64199286D01*
X175237619Y-63389762D02*
X175190000Y-63342143D01*
X175142381Y-63246905D01*
X175142381Y-63008809D01*
X175190000Y-62913571D01*
X175237619Y-62865952D01*
X175332857Y-62818333D01*
X175428095Y-62818333D01*
X175570952Y-62865952D01*
X176142381Y-63437381D01*
X176142381Y-62818333D01*
X161983334Y-48652381D02*
X161507143Y-48652381D01*
X161507143Y-47652381D01*
X162840477Y-48652381D02*
X162269048Y-48652381D01*
X162554762Y-48652381D02*
X162554762Y-47652381D01*
X162459524Y-47795238D01*
X162364286Y-47890476D01*
X162269048Y-47938095D01*
X151233334Y-39652381D02*
X150900000Y-39176190D01*
X150661905Y-39652381D02*
X150661905Y-38652381D01*
X151042858Y-38652381D01*
X151138096Y-38700000D01*
X151185715Y-38747619D01*
X151233334Y-38842857D01*
X151233334Y-38985714D01*
X151185715Y-39080952D01*
X151138096Y-39128571D01*
X151042858Y-39176190D01*
X150661905Y-39176190D01*
X152185715Y-39652381D02*
X151614286Y-39652381D01*
X151900000Y-39652381D02*
X151900000Y-38652381D01*
X151804762Y-38795238D01*
X151709524Y-38890476D01*
X151614286Y-38938095D01*
X151083334Y-41202381D02*
X150750000Y-40726190D01*
X150511905Y-41202381D02*
X150511905Y-40202381D01*
X150892858Y-40202381D01*
X150988096Y-40250000D01*
X151035715Y-40297619D01*
X151083334Y-40392857D01*
X151083334Y-40535714D01*
X151035715Y-40630952D01*
X150988096Y-40678571D01*
X150892858Y-40726190D01*
X150511905Y-40726190D01*
X151464286Y-40297619D02*
X151511905Y-40250000D01*
X151607143Y-40202381D01*
X151845239Y-40202381D01*
X151940477Y-40250000D01*
X151988096Y-40297619D01*
X152035715Y-40392857D01*
X152035715Y-40488095D01*
X151988096Y-40630952D01*
X151416667Y-41202381D01*
X152035715Y-41202381D01*
X139033334Y-47852381D02*
X138700000Y-47376190D01*
X138461905Y-47852381D02*
X138461905Y-46852381D01*
X138842858Y-46852381D01*
X138938096Y-46900000D01*
X138985715Y-46947619D01*
X139033334Y-47042857D01*
X139033334Y-47185714D01*
X138985715Y-47280952D01*
X138938096Y-47328571D01*
X138842858Y-47376190D01*
X138461905Y-47376190D01*
X139366667Y-46852381D02*
X139985715Y-46852381D01*
X139652381Y-47233333D01*
X139795239Y-47233333D01*
X139890477Y-47280952D01*
X139938096Y-47328571D01*
X139985715Y-47423810D01*
X139985715Y-47661905D01*
X139938096Y-47757143D01*
X139890477Y-47804762D01*
X139795239Y-47852381D01*
X139509524Y-47852381D01*
X139414286Y-47804762D01*
X139366667Y-47757143D01*
X139033334Y-49852381D02*
X138700000Y-49376190D01*
X138461905Y-49852381D02*
X138461905Y-48852381D01*
X138842858Y-48852381D01*
X138938096Y-48900000D01*
X138985715Y-48947619D01*
X139033334Y-49042857D01*
X139033334Y-49185714D01*
X138985715Y-49280952D01*
X138938096Y-49328571D01*
X138842858Y-49376190D01*
X138461905Y-49376190D01*
X139890477Y-49185714D02*
X139890477Y-49852381D01*
X139652381Y-48804762D02*
X139414286Y-49519048D01*
X140033334Y-49519048D01*
X139033334Y-51852381D02*
X138700000Y-51376190D01*
X138461905Y-51852381D02*
X138461905Y-50852381D01*
X138842858Y-50852381D01*
X138938096Y-50900000D01*
X138985715Y-50947619D01*
X139033334Y-51042857D01*
X139033334Y-51185714D01*
X138985715Y-51280952D01*
X138938096Y-51328571D01*
X138842858Y-51376190D01*
X138461905Y-51376190D01*
X139938096Y-50852381D02*
X139461905Y-50852381D01*
X139414286Y-51328571D01*
X139461905Y-51280952D01*
X139557143Y-51233333D01*
X139795239Y-51233333D01*
X139890477Y-51280952D01*
X139938096Y-51328571D01*
X139985715Y-51423810D01*
X139985715Y-51661905D01*
X139938096Y-51757143D01*
X139890477Y-51804762D01*
X139795239Y-51852381D01*
X139557143Y-51852381D01*
X139461905Y-51804762D01*
X139414286Y-51757143D01*
X152233334Y-49852381D02*
X151900000Y-49376190D01*
X151661905Y-49852381D02*
X151661905Y-48852381D01*
X152042858Y-48852381D01*
X152138096Y-48900000D01*
X152185715Y-48947619D01*
X152233334Y-49042857D01*
X152233334Y-49185714D01*
X152185715Y-49280952D01*
X152138096Y-49328571D01*
X152042858Y-49376190D01*
X151661905Y-49376190D01*
X153090477Y-48852381D02*
X152900000Y-48852381D01*
X152804762Y-48900000D01*
X152757143Y-48947619D01*
X152661905Y-49090476D01*
X152614286Y-49280952D01*
X152614286Y-49661905D01*
X152661905Y-49757143D01*
X152709524Y-49804762D01*
X152804762Y-49852381D01*
X152995239Y-49852381D01*
X153090477Y-49804762D01*
X153138096Y-49757143D01*
X153185715Y-49661905D01*
X153185715Y-49423810D01*
X153138096Y-49328571D01*
X153090477Y-49280952D01*
X152995239Y-49233333D01*
X152804762Y-49233333D01*
X152709524Y-49280952D01*
X152661905Y-49328571D01*
X152614286Y-49423810D01*
X139033334Y-54052381D02*
X138700000Y-53576190D01*
X138461905Y-54052381D02*
X138461905Y-53052381D01*
X138842858Y-53052381D01*
X138938096Y-53100000D01*
X138985715Y-53147619D01*
X139033334Y-53242857D01*
X139033334Y-53385714D01*
X138985715Y-53480952D01*
X138938096Y-53528571D01*
X138842858Y-53576190D01*
X138461905Y-53576190D01*
X139366667Y-53052381D02*
X140033334Y-53052381D01*
X139604762Y-54052381D01*
X166633334Y-68952381D02*
X166300000Y-68476190D01*
X166061905Y-68952381D02*
X166061905Y-67952381D01*
X166442858Y-67952381D01*
X166538096Y-68000000D01*
X166585715Y-68047619D01*
X166633334Y-68142857D01*
X166633334Y-68285714D01*
X166585715Y-68380952D01*
X166538096Y-68428571D01*
X166442858Y-68476190D01*
X166061905Y-68476190D01*
X167204762Y-68380952D02*
X167109524Y-68333333D01*
X167061905Y-68285714D01*
X167014286Y-68190476D01*
X167014286Y-68142857D01*
X167061905Y-68047619D01*
X167109524Y-68000000D01*
X167204762Y-67952381D01*
X167395239Y-67952381D01*
X167490477Y-68000000D01*
X167538096Y-68047619D01*
X167585715Y-68142857D01*
X167585715Y-68190476D01*
X167538096Y-68285714D01*
X167490477Y-68333333D01*
X167395239Y-68380952D01*
X167204762Y-68380952D01*
X167109524Y-68428571D01*
X167061905Y-68476190D01*
X167014286Y-68571429D01*
X167014286Y-68761905D01*
X167061905Y-68857143D01*
X167109524Y-68904762D01*
X167204762Y-68952381D01*
X167395239Y-68952381D01*
X167490477Y-68904762D01*
X167538096Y-68857143D01*
X167585715Y-68761905D01*
X167585715Y-68571429D01*
X167538096Y-68476190D01*
X167490477Y-68428571D01*
X167395239Y-68380952D01*
X162583334Y-68952381D02*
X162250000Y-68476190D01*
X162011905Y-68952381D02*
X162011905Y-67952381D01*
X162392858Y-67952381D01*
X162488096Y-68000000D01*
X162535715Y-68047619D01*
X162583334Y-68142857D01*
X162583334Y-68285714D01*
X162535715Y-68380952D01*
X162488096Y-68428571D01*
X162392858Y-68476190D01*
X162011905Y-68476190D01*
X163059524Y-68952381D02*
X163250000Y-68952381D01*
X163345239Y-68904762D01*
X163392858Y-68857143D01*
X163488096Y-68714286D01*
X163535715Y-68523810D01*
X163535715Y-68142857D01*
X163488096Y-68047619D01*
X163440477Y-68000000D01*
X163345239Y-67952381D01*
X163154762Y-67952381D01*
X163059524Y-68000000D01*
X163011905Y-68047619D01*
X162964286Y-68142857D01*
X162964286Y-68380952D01*
X163011905Y-68476190D01*
X163059524Y-68523810D01*
X163154762Y-68571429D01*
X163345239Y-68571429D01*
X163440477Y-68523810D01*
X163488096Y-68476190D01*
X163535715Y-68380952D01*
X138202381Y-57392857D02*
X137726190Y-57726191D01*
X138202381Y-57964286D02*
X137202381Y-57964286D01*
X137202381Y-57583333D01*
X137250000Y-57488095D01*
X137297619Y-57440476D01*
X137392857Y-57392857D01*
X137535714Y-57392857D01*
X137630952Y-57440476D01*
X137678571Y-57488095D01*
X137726190Y-57583333D01*
X137726190Y-57964286D01*
X138202381Y-56440476D02*
X138202381Y-57011905D01*
X138202381Y-56726191D02*
X137202381Y-56726191D01*
X137345238Y-56821429D01*
X137440476Y-56916667D01*
X137488095Y-57011905D01*
X137202381Y-55821429D02*
X137202381Y-55726190D01*
X137250000Y-55630952D01*
X137297619Y-55583333D01*
X137392857Y-55535714D01*
X137583333Y-55488095D01*
X137821429Y-55488095D01*
X138011905Y-55535714D01*
X138107143Y-55583333D01*
X138154762Y-55630952D01*
X138202381Y-55726190D01*
X138202381Y-55821429D01*
X138154762Y-55916667D01*
X138107143Y-55964286D01*
X138011905Y-56011905D01*
X137821429Y-56059524D01*
X137583333Y-56059524D01*
X137392857Y-56011905D01*
X137297619Y-55964286D01*
X137250000Y-55916667D01*
X137202381Y-55821429D01*
X139702381Y-57442857D02*
X139226190Y-57776191D01*
X139702381Y-58014286D02*
X138702381Y-58014286D01*
X138702381Y-57633333D01*
X138750000Y-57538095D01*
X138797619Y-57490476D01*
X138892857Y-57442857D01*
X139035714Y-57442857D01*
X139130952Y-57490476D01*
X139178571Y-57538095D01*
X139226190Y-57633333D01*
X139226190Y-58014286D01*
X139702381Y-56490476D02*
X139702381Y-57061905D01*
X139702381Y-56776191D02*
X138702381Y-56776191D01*
X138845238Y-56871429D01*
X138940476Y-56966667D01*
X138988095Y-57061905D01*
X139702381Y-55538095D02*
X139702381Y-56109524D01*
X139702381Y-55823810D02*
X138702381Y-55823810D01*
X138845238Y-55919048D01*
X138940476Y-56014286D01*
X138988095Y-56109524D01*
X175452381Y-44842857D02*
X174976190Y-45176191D01*
X175452381Y-45414286D02*
X174452381Y-45414286D01*
X174452381Y-45033333D01*
X174500000Y-44938095D01*
X174547619Y-44890476D01*
X174642857Y-44842857D01*
X174785714Y-44842857D01*
X174880952Y-44890476D01*
X174928571Y-44938095D01*
X174976190Y-45033333D01*
X174976190Y-45414286D01*
X175452381Y-43890476D02*
X175452381Y-44461905D01*
X175452381Y-44176191D02*
X174452381Y-44176191D01*
X174595238Y-44271429D01*
X174690476Y-44366667D01*
X174738095Y-44461905D01*
X174547619Y-43509524D02*
X174500000Y-43461905D01*
X174452381Y-43366667D01*
X174452381Y-43128571D01*
X174500000Y-43033333D01*
X174547619Y-42985714D01*
X174642857Y-42938095D01*
X174738095Y-42938095D01*
X174880952Y-42985714D01*
X175452381Y-43557143D01*
X175452381Y-42938095D01*
X173652381Y-44742857D02*
X173176190Y-45076191D01*
X173652381Y-45314286D02*
X172652381Y-45314286D01*
X172652381Y-44933333D01*
X172700000Y-44838095D01*
X172747619Y-44790476D01*
X172842857Y-44742857D01*
X172985714Y-44742857D01*
X173080952Y-44790476D01*
X173128571Y-44838095D01*
X173176190Y-44933333D01*
X173176190Y-45314286D01*
X173652381Y-43790476D02*
X173652381Y-44361905D01*
X173652381Y-44076191D02*
X172652381Y-44076191D01*
X172795238Y-44171429D01*
X172890476Y-44266667D01*
X172938095Y-44361905D01*
X172652381Y-42885714D02*
X172652381Y-43361905D01*
X173128571Y-43409524D01*
X173080952Y-43361905D01*
X173033333Y-43266667D01*
X173033333Y-43028571D01*
X173080952Y-42933333D01*
X173128571Y-42885714D01*
X173223810Y-42838095D01*
X173461905Y-42838095D01*
X173557143Y-42885714D01*
X173604762Y-42933333D01*
X173652381Y-43028571D01*
X173652381Y-43266667D01*
X173604762Y-43361905D01*
X173557143Y-43409524D01*
X156357143Y-65702381D02*
X156023809Y-65226190D01*
X155785714Y-65702381D02*
X155785714Y-64702381D01*
X156166667Y-64702381D01*
X156261905Y-64750000D01*
X156309524Y-64797619D01*
X156357143Y-64892857D01*
X156357143Y-65035714D01*
X156309524Y-65130952D01*
X156261905Y-65178571D01*
X156166667Y-65226190D01*
X155785714Y-65226190D01*
X157309524Y-65702381D02*
X156738095Y-65702381D01*
X157023809Y-65702381D02*
X157023809Y-64702381D01*
X156928571Y-64845238D01*
X156833333Y-64940476D01*
X156738095Y-64988095D01*
X158166667Y-64702381D02*
X157976190Y-64702381D01*
X157880952Y-64750000D01*
X157833333Y-64797619D01*
X157738095Y-64940476D01*
X157690476Y-65130952D01*
X157690476Y-65511905D01*
X157738095Y-65607143D01*
X157785714Y-65654762D01*
X157880952Y-65702381D01*
X158071429Y-65702381D01*
X158166667Y-65654762D01*
X158214286Y-65607143D01*
X158261905Y-65511905D01*
X158261905Y-65273810D01*
X158214286Y-65178571D01*
X158166667Y-65130952D01*
X158071429Y-65083333D01*
X157880952Y-65083333D01*
X157785714Y-65130952D01*
X157738095Y-65178571D01*
X157690476Y-65273810D01*
X156357143Y-67202381D02*
X156023809Y-66726190D01*
X155785714Y-67202381D02*
X155785714Y-66202381D01*
X156166667Y-66202381D01*
X156261905Y-66250000D01*
X156309524Y-66297619D01*
X156357143Y-66392857D01*
X156357143Y-66535714D01*
X156309524Y-66630952D01*
X156261905Y-66678571D01*
X156166667Y-66726190D01*
X155785714Y-66726190D01*
X157309524Y-67202381D02*
X156738095Y-67202381D01*
X157023809Y-67202381D02*
X157023809Y-66202381D01*
X156928571Y-66345238D01*
X156833333Y-66440476D01*
X156738095Y-66488095D01*
X157642857Y-66202381D02*
X158309524Y-66202381D01*
X157880952Y-67202381D01*
X156357143Y-64052381D02*
X156023809Y-63576190D01*
X155785714Y-64052381D02*
X155785714Y-63052381D01*
X156166667Y-63052381D01*
X156261905Y-63100000D01*
X156309524Y-63147619D01*
X156357143Y-63242857D01*
X156357143Y-63385714D01*
X156309524Y-63480952D01*
X156261905Y-63528571D01*
X156166667Y-63576190D01*
X155785714Y-63576190D01*
X157309524Y-64052381D02*
X156738095Y-64052381D01*
X157023809Y-64052381D02*
X157023809Y-63052381D01*
X156928571Y-63195238D01*
X156833333Y-63290476D01*
X156738095Y-63338095D01*
X157880952Y-63480952D02*
X157785714Y-63433333D01*
X157738095Y-63385714D01*
X157690476Y-63290476D01*
X157690476Y-63242857D01*
X157738095Y-63147619D01*
X157785714Y-63100000D01*
X157880952Y-63052381D01*
X158071429Y-63052381D01*
X158166667Y-63100000D01*
X158214286Y-63147619D01*
X158261905Y-63242857D01*
X158261905Y-63290476D01*
X158214286Y-63385714D01*
X158166667Y-63433333D01*
X158071429Y-63480952D01*
X157880952Y-63480952D01*
X157785714Y-63528571D01*
X157738095Y-63576190D01*
X157690476Y-63671429D01*
X157690476Y-63861905D01*
X157738095Y-63957143D01*
X157785714Y-64004762D01*
X157880952Y-64052381D01*
X158071429Y-64052381D01*
X158166667Y-64004762D01*
X158214286Y-63957143D01*
X158261905Y-63861905D01*
X158261905Y-63671429D01*
X158214286Y-63576190D01*
X158166667Y-63528571D01*
X158071429Y-63480952D01*
X156157143Y-52452381D02*
X155823809Y-51976190D01*
X155585714Y-52452381D02*
X155585714Y-51452381D01*
X155966667Y-51452381D01*
X156061905Y-51500000D01*
X156109524Y-51547619D01*
X156157143Y-51642857D01*
X156157143Y-51785714D01*
X156109524Y-51880952D01*
X156061905Y-51928571D01*
X155966667Y-51976190D01*
X155585714Y-51976190D01*
X157109524Y-52452381D02*
X156538095Y-52452381D01*
X156823809Y-52452381D02*
X156823809Y-51452381D01*
X156728571Y-51595238D01*
X156633333Y-51690476D01*
X156538095Y-51738095D01*
X157585714Y-52452381D02*
X157776190Y-52452381D01*
X157871429Y-52404762D01*
X157919048Y-52357143D01*
X158014286Y-52214286D01*
X158061905Y-52023810D01*
X158061905Y-51642857D01*
X158014286Y-51547619D01*
X157966667Y-51500000D01*
X157871429Y-51452381D01*
X157680952Y-51452381D01*
X157585714Y-51500000D01*
X157538095Y-51547619D01*
X157490476Y-51642857D01*
X157490476Y-51880952D01*
X157538095Y-51976190D01*
X157585714Y-52023810D01*
X157680952Y-52071429D01*
X157871429Y-52071429D01*
X157966667Y-52023810D01*
X158014286Y-51976190D01*
X158061905Y-51880952D01*
X146252381Y-68042857D02*
X145776190Y-68376191D01*
X146252381Y-68614286D02*
X145252381Y-68614286D01*
X145252381Y-68233333D01*
X145300000Y-68138095D01*
X145347619Y-68090476D01*
X145442857Y-68042857D01*
X145585714Y-68042857D01*
X145680952Y-68090476D01*
X145728571Y-68138095D01*
X145776190Y-68233333D01*
X145776190Y-68614286D01*
X145347619Y-67661905D02*
X145300000Y-67614286D01*
X145252381Y-67519048D01*
X145252381Y-67280952D01*
X145300000Y-67185714D01*
X145347619Y-67138095D01*
X145442857Y-67090476D01*
X145538095Y-67090476D01*
X145680952Y-67138095D01*
X146252381Y-67709524D01*
X146252381Y-67090476D01*
X145252381Y-66471429D02*
X145252381Y-66376190D01*
X145300000Y-66280952D01*
X145347619Y-66233333D01*
X145442857Y-66185714D01*
X145633333Y-66138095D01*
X145871429Y-66138095D01*
X146061905Y-66185714D01*
X146157143Y-66233333D01*
X146204762Y-66280952D01*
X146252381Y-66376190D01*
X146252381Y-66471429D01*
X146204762Y-66566667D01*
X146157143Y-66614286D01*
X146061905Y-66661905D01*
X145871429Y-66709524D01*
X145633333Y-66709524D01*
X145442857Y-66661905D01*
X145347619Y-66614286D01*
X145300000Y-66566667D01*
X145252381Y-66471429D01*
X144252381Y-68167857D02*
X143776190Y-68501191D01*
X144252381Y-68739286D02*
X143252381Y-68739286D01*
X143252381Y-68358333D01*
X143300000Y-68263095D01*
X143347619Y-68215476D01*
X143442857Y-68167857D01*
X143585714Y-68167857D01*
X143680952Y-68215476D01*
X143728571Y-68263095D01*
X143776190Y-68358333D01*
X143776190Y-68739286D01*
X143347619Y-67786905D02*
X143300000Y-67739286D01*
X143252381Y-67644048D01*
X143252381Y-67405952D01*
X143300000Y-67310714D01*
X143347619Y-67263095D01*
X143442857Y-67215476D01*
X143538095Y-67215476D01*
X143680952Y-67263095D01*
X144252381Y-67834524D01*
X144252381Y-67215476D01*
X144252381Y-66263095D02*
X144252381Y-66834524D01*
X144252381Y-66548810D02*
X143252381Y-66548810D01*
X143395238Y-66644048D01*
X143490476Y-66739286D01*
X143538095Y-66834524D01*
X148202381Y-68242857D02*
X147726190Y-68576191D01*
X148202381Y-68814286D02*
X147202381Y-68814286D01*
X147202381Y-68433333D01*
X147250000Y-68338095D01*
X147297619Y-68290476D01*
X147392857Y-68242857D01*
X147535714Y-68242857D01*
X147630952Y-68290476D01*
X147678571Y-68338095D01*
X147726190Y-68433333D01*
X147726190Y-68814286D01*
X147297619Y-67861905D02*
X147250000Y-67814286D01*
X147202381Y-67719048D01*
X147202381Y-67480952D01*
X147250000Y-67385714D01*
X147297619Y-67338095D01*
X147392857Y-67290476D01*
X147488095Y-67290476D01*
X147630952Y-67338095D01*
X148202381Y-67909524D01*
X148202381Y-67290476D01*
X147297619Y-66909524D02*
X147250000Y-66861905D01*
X147202381Y-66766667D01*
X147202381Y-66528571D01*
X147250000Y-66433333D01*
X147297619Y-66385714D01*
X147392857Y-66338095D01*
X147488095Y-66338095D01*
X147630952Y-66385714D01*
X148202381Y-66957143D01*
X148202381Y-66338095D01*
X150252381Y-68242857D02*
X149776190Y-68576191D01*
X150252381Y-68814286D02*
X149252381Y-68814286D01*
X149252381Y-68433333D01*
X149300000Y-68338095D01*
X149347619Y-68290476D01*
X149442857Y-68242857D01*
X149585714Y-68242857D01*
X149680952Y-68290476D01*
X149728571Y-68338095D01*
X149776190Y-68433333D01*
X149776190Y-68814286D01*
X149347619Y-67861905D02*
X149300000Y-67814286D01*
X149252381Y-67719048D01*
X149252381Y-67480952D01*
X149300000Y-67385714D01*
X149347619Y-67338095D01*
X149442857Y-67290476D01*
X149538095Y-67290476D01*
X149680952Y-67338095D01*
X150252381Y-67909524D01*
X150252381Y-67290476D01*
X149252381Y-66957143D02*
X149252381Y-66338095D01*
X149633333Y-66671429D01*
X149633333Y-66528571D01*
X149680952Y-66433333D01*
X149728571Y-66385714D01*
X149823810Y-66338095D01*
X150061905Y-66338095D01*
X150157143Y-66385714D01*
X150204762Y-66433333D01*
X150252381Y-66528571D01*
X150252381Y-66814286D01*
X150204762Y-66909524D01*
X150157143Y-66957143D01*
X142652381Y-57442857D02*
X142176190Y-57776191D01*
X142652381Y-58014286D02*
X141652381Y-58014286D01*
X141652381Y-57633333D01*
X141700000Y-57538095D01*
X141747619Y-57490476D01*
X141842857Y-57442857D01*
X141985714Y-57442857D01*
X142080952Y-57490476D01*
X142128571Y-57538095D01*
X142176190Y-57633333D01*
X142176190Y-58014286D01*
X141747619Y-57061905D02*
X141700000Y-57014286D01*
X141652381Y-56919048D01*
X141652381Y-56680952D01*
X141700000Y-56585714D01*
X141747619Y-56538095D01*
X141842857Y-56490476D01*
X141938095Y-56490476D01*
X142080952Y-56538095D01*
X142652381Y-57109524D01*
X142652381Y-56490476D01*
X141985714Y-55633333D02*
X142652381Y-55633333D01*
X141604762Y-55871429D02*
X142319048Y-56109524D01*
X142319048Y-55490476D01*
X154052381Y-57642857D02*
X153576190Y-57976191D01*
X154052381Y-58214286D02*
X153052381Y-58214286D01*
X153052381Y-57833333D01*
X153100000Y-57738095D01*
X153147619Y-57690476D01*
X153242857Y-57642857D01*
X153385714Y-57642857D01*
X153480952Y-57690476D01*
X153528571Y-57738095D01*
X153576190Y-57833333D01*
X153576190Y-58214286D01*
X153147619Y-57261905D02*
X153100000Y-57214286D01*
X153052381Y-57119048D01*
X153052381Y-56880952D01*
X153100000Y-56785714D01*
X153147619Y-56738095D01*
X153242857Y-56690476D01*
X153338095Y-56690476D01*
X153480952Y-56738095D01*
X154052381Y-57309524D01*
X154052381Y-56690476D01*
X153052381Y-55785714D02*
X153052381Y-56261905D01*
X153528571Y-56309524D01*
X153480952Y-56261905D01*
X153433333Y-56166667D01*
X153433333Y-55928571D01*
X153480952Y-55833333D01*
X153528571Y-55785714D01*
X153623810Y-55738095D01*
X153861905Y-55738095D01*
X153957143Y-55785714D01*
X154004762Y-55833333D01*
X154052381Y-55928571D01*
X154052381Y-56166667D01*
X154004762Y-56261905D01*
X153957143Y-56309524D01*
X152252381Y-68242857D02*
X151776190Y-68576191D01*
X152252381Y-68814286D02*
X151252381Y-68814286D01*
X151252381Y-68433333D01*
X151300000Y-68338095D01*
X151347619Y-68290476D01*
X151442857Y-68242857D01*
X151585714Y-68242857D01*
X151680952Y-68290476D01*
X151728571Y-68338095D01*
X151776190Y-68433333D01*
X151776190Y-68814286D01*
X151347619Y-67861905D02*
X151300000Y-67814286D01*
X151252381Y-67719048D01*
X151252381Y-67480952D01*
X151300000Y-67385714D01*
X151347619Y-67338095D01*
X151442857Y-67290476D01*
X151538095Y-67290476D01*
X151680952Y-67338095D01*
X152252381Y-67909524D01*
X152252381Y-67290476D01*
X151252381Y-66433333D02*
X151252381Y-66623810D01*
X151300000Y-66719048D01*
X151347619Y-66766667D01*
X151490476Y-66861905D01*
X151680952Y-66909524D01*
X152061905Y-66909524D01*
X152157143Y-66861905D01*
X152204762Y-66814286D01*
X152252381Y-66719048D01*
X152252381Y-66528571D01*
X152204762Y-66433333D01*
X152157143Y-66385714D01*
X152061905Y-66338095D01*
X151823810Y-66338095D01*
X151728571Y-66385714D01*
X151680952Y-66433333D01*
X151633333Y-66528571D01*
X151633333Y-66719048D01*
X151680952Y-66814286D01*
X151728571Y-66861905D01*
X151823810Y-66909524D01*
X154231781Y-68242857D02*
X153755590Y-68576191D01*
X154231781Y-68814286D02*
X153231781Y-68814286D01*
X153231781Y-68433333D01*
X153279400Y-68338095D01*
X153327019Y-68290476D01*
X153422257Y-68242857D01*
X153565114Y-68242857D01*
X153660352Y-68290476D01*
X153707971Y-68338095D01*
X153755590Y-68433333D01*
X153755590Y-68814286D01*
X153327019Y-67861905D02*
X153279400Y-67814286D01*
X153231781Y-67719048D01*
X153231781Y-67480952D01*
X153279400Y-67385714D01*
X153327019Y-67338095D01*
X153422257Y-67290476D01*
X153517495Y-67290476D01*
X153660352Y-67338095D01*
X154231781Y-67909524D01*
X154231781Y-67290476D01*
X153231781Y-66957143D02*
X153231781Y-66290476D01*
X154231781Y-66719048D01*
X176265343Y-71452381D02*
X175932009Y-70976190D01*
X175693914Y-71452381D02*
X175693914Y-70452381D01*
X176074867Y-70452381D01*
X176170105Y-70500000D01*
X176217724Y-70547619D01*
X176265343Y-70642857D01*
X176265343Y-70785714D01*
X176217724Y-70880952D01*
X176170105Y-70928571D01*
X176074867Y-70976190D01*
X175693914Y-70976190D01*
X176598676Y-70452381D02*
X177217724Y-70452381D01*
X176884390Y-70833333D01*
X177027248Y-70833333D01*
X177122486Y-70880952D01*
X177170105Y-70928571D01*
X177217724Y-71023810D01*
X177217724Y-71261905D01*
X177170105Y-71357143D01*
X177122486Y-71404762D01*
X177027248Y-71452381D01*
X176741533Y-71452381D01*
X176646295Y-71404762D01*
X176598676Y-71357143D01*
X177551057Y-70452381D02*
X178217724Y-70452381D01*
X177789152Y-71452381D01*
X173996143Y-60702381D02*
X173662809Y-60226190D01*
X173424714Y-60702381D02*
X173424714Y-59702381D01*
X173805667Y-59702381D01*
X173900905Y-59750000D01*
X173948524Y-59797619D01*
X173996143Y-59892857D01*
X173996143Y-60035714D01*
X173948524Y-60130952D01*
X173900905Y-60178571D01*
X173805667Y-60226190D01*
X173424714Y-60226190D01*
X174853286Y-60035714D02*
X174853286Y-60702381D01*
X174615190Y-59654762D02*
X174377095Y-60369048D01*
X174996143Y-60369048D01*
X175900905Y-60702381D02*
X175329476Y-60702381D01*
X175615190Y-60702381D02*
X175615190Y-59702381D01*
X175519952Y-59845238D01*
X175424714Y-59940476D01*
X175329476Y-59988095D01*
X173996143Y-51702381D02*
X173662809Y-51226190D01*
X173424714Y-51702381D02*
X173424714Y-50702381D01*
X173805667Y-50702381D01*
X173900905Y-50750000D01*
X173948524Y-50797619D01*
X173996143Y-50892857D01*
X173996143Y-51035714D01*
X173948524Y-51130952D01*
X173900905Y-51178571D01*
X173805667Y-51226190D01*
X173424714Y-51226190D01*
X174853286Y-51035714D02*
X174853286Y-51702381D01*
X174615190Y-50654762D02*
X174377095Y-51369048D01*
X174996143Y-51369048D01*
X175329476Y-50797619D02*
X175377095Y-50750000D01*
X175472333Y-50702381D01*
X175710429Y-50702381D01*
X175805667Y-50750000D01*
X175853286Y-50797619D01*
X175900905Y-50892857D01*
X175900905Y-50988095D01*
X175853286Y-51130952D01*
X175281857Y-51702381D01*
X175900905Y-51702381D01*
X173996143Y-53202381D02*
X173662809Y-52726190D01*
X173424714Y-53202381D02*
X173424714Y-52202381D01*
X173805667Y-52202381D01*
X173900905Y-52250000D01*
X173948524Y-52297619D01*
X173996143Y-52392857D01*
X173996143Y-52535714D01*
X173948524Y-52630952D01*
X173900905Y-52678571D01*
X173805667Y-52726190D01*
X173424714Y-52726190D01*
X174853286Y-52535714D02*
X174853286Y-53202381D01*
X174615190Y-52154762D02*
X174377095Y-52869048D01*
X174996143Y-52869048D01*
X175281857Y-52202381D02*
X175900905Y-52202381D01*
X175567571Y-52583333D01*
X175710429Y-52583333D01*
X175805667Y-52630952D01*
X175853286Y-52678571D01*
X175900905Y-52773810D01*
X175900905Y-53011905D01*
X175853286Y-53107143D01*
X175805667Y-53154762D01*
X175710429Y-53202381D01*
X175424714Y-53202381D01*
X175329476Y-53154762D01*
X175281857Y-53107143D01*
X145838095Y-50452381D02*
X145838095Y-51261905D01*
X145885714Y-51357143D01*
X145933333Y-51404762D01*
X146028571Y-51452381D01*
X146219048Y-51452381D01*
X146314286Y-51404762D01*
X146361905Y-51357143D01*
X146409524Y-51261905D01*
X146409524Y-50452381D01*
X147409524Y-51452381D02*
X146838095Y-51452381D01*
X147123809Y-51452381D02*
X147123809Y-50452381D01*
X147028571Y-50595238D01*
X146933333Y-50690476D01*
X146838095Y-50738095D01*
X150738095Y-46702381D02*
X150738095Y-47511905D01*
X150785714Y-47607143D01*
X150833333Y-47654762D01*
X150928571Y-47702381D01*
X151119048Y-47702381D01*
X151214286Y-47654762D01*
X151261905Y-47607143D01*
X151309524Y-47511905D01*
X151309524Y-46702381D01*
X151738095Y-46797619D02*
X151785714Y-46750000D01*
X151880952Y-46702381D01*
X152119048Y-46702381D01*
X152214286Y-46750000D01*
X152261905Y-46797619D01*
X152309524Y-46892857D01*
X152309524Y-46988095D01*
X152261905Y-47130952D01*
X151690476Y-47702381D01*
X152309524Y-47702381D01*
X146252381Y-60961905D02*
X147061905Y-60961905D01*
X147157143Y-60914286D01*
X147204762Y-60866667D01*
X147252381Y-60771429D01*
X147252381Y-60580952D01*
X147204762Y-60485714D01*
X147157143Y-60438095D01*
X147061905Y-60390476D01*
X146252381Y-60390476D01*
X146252381Y-60009524D02*
X146252381Y-59390476D01*
X146633333Y-59723810D01*
X146633333Y-59580952D01*
X146680952Y-59485714D01*
X146728571Y-59438095D01*
X146823810Y-59390476D01*
X147061905Y-59390476D01*
X147157143Y-59438095D01*
X147204762Y-59485714D01*
X147252381Y-59580952D01*
X147252381Y-59866667D01*
X147204762Y-59961905D01*
X147157143Y-60009524D01*
X172688095Y-36702381D02*
X172688095Y-37511905D01*
X172735714Y-37607143D01*
X172783333Y-37654762D01*
X172878571Y-37702381D01*
X173069048Y-37702381D01*
X173164286Y-37654762D01*
X173211905Y-37607143D01*
X173259524Y-37511905D01*
X173259524Y-36702381D01*
X174164286Y-37035714D02*
X174164286Y-37702381D01*
X173926190Y-36654762D02*
X173688095Y-37369048D01*
X174307143Y-37369048D01*
X162488095Y-51202381D02*
X162488095Y-52011905D01*
X162535714Y-52107143D01*
X162583333Y-52154762D01*
X162678571Y-52202381D01*
X162869048Y-52202381D01*
X162964286Y-52154762D01*
X163011905Y-52107143D01*
X163059524Y-52011905D01*
X163059524Y-51202381D01*
X164011905Y-51202381D02*
X163535714Y-51202381D01*
X163488095Y-51678571D01*
X163535714Y-51630952D01*
X163630952Y-51583333D01*
X163869048Y-51583333D01*
X163964286Y-51630952D01*
X164011905Y-51678571D01*
X164059524Y-51773810D01*
X164059524Y-52011905D01*
X164011905Y-52107143D01*
X163964286Y-52154762D01*
X163869048Y-52202381D01*
X163630952Y-52202381D01*
X163535714Y-52154762D01*
X163488095Y-52107143D01*
M02*
