G04 #@! TF.FileFunction,Soldermask,Bot*
%FSLAX46Y46*%
G04 Gerber Fmt 4.6, Leading zero omitted, Abs format (unit mm)*
G04 Created by KiCad (PCBNEW 4.0.7) date 03/21/18 23:37:41*
%MOMM*%
%LPD*%
G01*
G04 APERTURE LIST*
%ADD10C,0.101600*%
%ADD11C,1.300000*%
%ADD12R,3.448000X1.924000*%
%ADD13O,3.448000X1.924000*%
%ADD14R,1.800000X1.400000*%
%ADD15R,1.350000X1.400000*%
%ADD16C,4.400000*%
G04 APERTURE END LIST*
D10*
D11*
X165150000Y-40250000D03*
X160750000Y-40250000D03*
D12*
X179500000Y-62850000D03*
D13*
X179500000Y-60310000D03*
X179500000Y-57770000D03*
X179500000Y-55230000D03*
X179500000Y-52690000D03*
X179500000Y-50150000D03*
D14*
X143450000Y-73050000D03*
X143450000Y-74950000D03*
X141250000Y-74000000D03*
X148250000Y-73000000D03*
X148250000Y-74900000D03*
X146050000Y-73950000D03*
X153200000Y-73050000D03*
X153200000Y-74950000D03*
X151000000Y-74000000D03*
X157950000Y-73050000D03*
X157950000Y-74950000D03*
X155750000Y-74000000D03*
X162950000Y-73050000D03*
X162950000Y-74950000D03*
X160750000Y-74000000D03*
X167750000Y-73050000D03*
X167750000Y-74950000D03*
X165550000Y-74000000D03*
D15*
X143500000Y-68925000D03*
X143500000Y-70575000D03*
X141250000Y-70575000D03*
X141250000Y-68925000D03*
X148250000Y-68925000D03*
X148250000Y-70575000D03*
X146000000Y-70575000D03*
X146000000Y-68925000D03*
X153000000Y-68925000D03*
X153000000Y-70575000D03*
X150750000Y-70575000D03*
X150750000Y-68925000D03*
X158000000Y-68925000D03*
X158000000Y-70575000D03*
X155750000Y-70575000D03*
X155750000Y-68925000D03*
X162750000Y-68925000D03*
X162750000Y-70575000D03*
X160500000Y-70575000D03*
X160500000Y-68925000D03*
X167750000Y-68925000D03*
X167750000Y-70575000D03*
X165500000Y-70575000D03*
X165500000Y-68925000D03*
D16*
X180500000Y-73750000D03*
X137250000Y-73750000D03*
X137250000Y-38000000D03*
X180500000Y-38000000D03*
M02*
