G04 #@! TF.FileFunction,Legend,Bot*
%FSLAX46Y46*%
G04 Gerber Fmt 4.6, Leading zero omitted, Abs format (unit mm)*
G04 Created by KiCad (PCBNEW 4.0.7) date 03/21/18 23:37:41*
%MOMM*%
%LPD*%
G01*
G04 APERTURE LIST*
%ADD10C,0.101600*%
%ADD11C,0.203200*%
%ADD12C,0.150000*%
G04 APERTURE END LIST*
D10*
D11*
X141750000Y-73000000D02*
X141750000Y-72000000D01*
X141750000Y-72000000D02*
X143000000Y-72000000D01*
X141750000Y-75000000D02*
X141750000Y-76000000D01*
X141750000Y-76000000D02*
X143000000Y-76000000D01*
X146550000Y-72950000D02*
X146550000Y-71950000D01*
X146550000Y-71950000D02*
X147800000Y-71950000D01*
X146550000Y-74950000D02*
X146550000Y-75950000D01*
X146550000Y-75950000D02*
X147800000Y-75950000D01*
X151500000Y-73000000D02*
X151500000Y-72000000D01*
X151500000Y-72000000D02*
X152750000Y-72000000D01*
X151500000Y-75000000D02*
X151500000Y-76000000D01*
X151500000Y-76000000D02*
X152750000Y-76000000D01*
X156250000Y-73000000D02*
X156250000Y-72000000D01*
X156250000Y-72000000D02*
X157500000Y-72000000D01*
X156250000Y-75000000D02*
X156250000Y-76000000D01*
X156250000Y-76000000D02*
X157500000Y-76000000D01*
X161250000Y-73000000D02*
X161250000Y-72000000D01*
X161250000Y-72000000D02*
X162500000Y-72000000D01*
X161250000Y-75000000D02*
X161250000Y-76000000D01*
X161250000Y-76000000D02*
X162500000Y-76000000D01*
X166050000Y-73000000D02*
X166050000Y-72000000D01*
X166050000Y-72000000D02*
X167300000Y-72000000D01*
X166050000Y-75000000D02*
X166050000Y-76000000D01*
X166050000Y-76000000D02*
X167300000Y-76000000D01*
X144389000Y-71528000D02*
X144389000Y-67972000D01*
X144389000Y-67972000D02*
X142611000Y-67972000D01*
X142611000Y-67972000D02*
X142611000Y-71528000D01*
X142611000Y-71528000D02*
X144389000Y-71528000D01*
X140361000Y-67972000D02*
X140361000Y-71528000D01*
X140361000Y-71528000D02*
X142139000Y-71528000D01*
X142139000Y-71528000D02*
X142139000Y-67972000D01*
X142139000Y-67972000D02*
X140361000Y-67972000D01*
X149139000Y-71528000D02*
X149139000Y-67972000D01*
X149139000Y-67972000D02*
X147361000Y-67972000D01*
X147361000Y-67972000D02*
X147361000Y-71528000D01*
X147361000Y-71528000D02*
X149139000Y-71528000D01*
X145111000Y-67972000D02*
X145111000Y-71528000D01*
X145111000Y-71528000D02*
X146889000Y-71528000D01*
X146889000Y-71528000D02*
X146889000Y-67972000D01*
X146889000Y-67972000D02*
X145111000Y-67972000D01*
X153889000Y-71528000D02*
X153889000Y-67972000D01*
X153889000Y-67972000D02*
X152111000Y-67972000D01*
X152111000Y-67972000D02*
X152111000Y-71528000D01*
X152111000Y-71528000D02*
X153889000Y-71528000D01*
X149861000Y-67972000D02*
X149861000Y-71528000D01*
X149861000Y-71528000D02*
X151639000Y-71528000D01*
X151639000Y-71528000D02*
X151639000Y-67972000D01*
X151639000Y-67972000D02*
X149861000Y-67972000D01*
X158889000Y-71528000D02*
X158889000Y-67972000D01*
X158889000Y-67972000D02*
X157111000Y-67972000D01*
X157111000Y-67972000D02*
X157111000Y-71528000D01*
X157111000Y-71528000D02*
X158889000Y-71528000D01*
X154861000Y-67972000D02*
X154861000Y-71528000D01*
X154861000Y-71528000D02*
X156639000Y-71528000D01*
X156639000Y-71528000D02*
X156639000Y-67972000D01*
X156639000Y-67972000D02*
X154861000Y-67972000D01*
X163639000Y-71528000D02*
X163639000Y-67972000D01*
X163639000Y-67972000D02*
X161861000Y-67972000D01*
X161861000Y-67972000D02*
X161861000Y-71528000D01*
X161861000Y-71528000D02*
X163639000Y-71528000D01*
X159611000Y-67972000D02*
X159611000Y-71528000D01*
X159611000Y-71528000D02*
X161389000Y-71528000D01*
X161389000Y-71528000D02*
X161389000Y-67972000D01*
X161389000Y-67972000D02*
X159611000Y-67972000D01*
X168639000Y-71528000D02*
X168639000Y-67972000D01*
X168639000Y-67972000D02*
X166861000Y-67972000D01*
X166861000Y-67972000D02*
X166861000Y-71528000D01*
X166861000Y-71528000D02*
X168639000Y-71528000D01*
X164611000Y-67972000D02*
X164611000Y-71528000D01*
X164611000Y-71528000D02*
X166389000Y-71528000D01*
X166389000Y-71528000D02*
X166389000Y-67972000D01*
X166389000Y-67972000D02*
X164611000Y-67972000D01*
D12*
X140845238Y-76047619D02*
X140940476Y-76000000D01*
X141035714Y-75904762D01*
X141178571Y-75761905D01*
X141273810Y-75714286D01*
X141369048Y-75714286D01*
X141321429Y-75952381D02*
X141416667Y-75904762D01*
X141511905Y-75809524D01*
X141559524Y-75619048D01*
X141559524Y-75285714D01*
X141511905Y-75095238D01*
X141416667Y-75000000D01*
X141321429Y-74952381D01*
X141130952Y-74952381D01*
X141035714Y-75000000D01*
X140940476Y-75095238D01*
X140892857Y-75285714D01*
X140892857Y-75619048D01*
X140940476Y-75809524D01*
X141035714Y-75904762D01*
X141130952Y-75952381D01*
X141321429Y-75952381D01*
X139940476Y-75952381D02*
X140511905Y-75952381D01*
X140226191Y-75952381D02*
X140226191Y-74952381D01*
X140321429Y-75095238D01*
X140416667Y-75190476D01*
X140511905Y-75238095D01*
X145595238Y-76047619D02*
X145690476Y-76000000D01*
X145785714Y-75904762D01*
X145928571Y-75761905D01*
X146023810Y-75714286D01*
X146119048Y-75714286D01*
X146071429Y-75952381D02*
X146166667Y-75904762D01*
X146261905Y-75809524D01*
X146309524Y-75619048D01*
X146309524Y-75285714D01*
X146261905Y-75095238D01*
X146166667Y-75000000D01*
X146071429Y-74952381D01*
X145880952Y-74952381D01*
X145785714Y-75000000D01*
X145690476Y-75095238D01*
X145642857Y-75285714D01*
X145642857Y-75619048D01*
X145690476Y-75809524D01*
X145785714Y-75904762D01*
X145880952Y-75952381D01*
X146071429Y-75952381D01*
X145261905Y-75047619D02*
X145214286Y-75000000D01*
X145119048Y-74952381D01*
X144880952Y-74952381D01*
X144785714Y-75000000D01*
X144738095Y-75047619D01*
X144690476Y-75142857D01*
X144690476Y-75238095D01*
X144738095Y-75380952D01*
X145309524Y-75952381D01*
X144690476Y-75952381D01*
X150595238Y-76047619D02*
X150690476Y-76000000D01*
X150785714Y-75904762D01*
X150928571Y-75761905D01*
X151023810Y-75714286D01*
X151119048Y-75714286D01*
X151071429Y-75952381D02*
X151166667Y-75904762D01*
X151261905Y-75809524D01*
X151309524Y-75619048D01*
X151309524Y-75285714D01*
X151261905Y-75095238D01*
X151166667Y-75000000D01*
X151071429Y-74952381D01*
X150880952Y-74952381D01*
X150785714Y-75000000D01*
X150690476Y-75095238D01*
X150642857Y-75285714D01*
X150642857Y-75619048D01*
X150690476Y-75809524D01*
X150785714Y-75904762D01*
X150880952Y-75952381D01*
X151071429Y-75952381D01*
X150309524Y-74952381D02*
X149690476Y-74952381D01*
X150023810Y-75333333D01*
X149880952Y-75333333D01*
X149785714Y-75380952D01*
X149738095Y-75428571D01*
X149690476Y-75523810D01*
X149690476Y-75761905D01*
X149738095Y-75857143D01*
X149785714Y-75904762D01*
X149880952Y-75952381D01*
X150166667Y-75952381D01*
X150261905Y-75904762D01*
X150309524Y-75857143D01*
X155345238Y-76047619D02*
X155440476Y-76000000D01*
X155535714Y-75904762D01*
X155678571Y-75761905D01*
X155773810Y-75714286D01*
X155869048Y-75714286D01*
X155821429Y-75952381D02*
X155916667Y-75904762D01*
X156011905Y-75809524D01*
X156059524Y-75619048D01*
X156059524Y-75285714D01*
X156011905Y-75095238D01*
X155916667Y-75000000D01*
X155821429Y-74952381D01*
X155630952Y-74952381D01*
X155535714Y-75000000D01*
X155440476Y-75095238D01*
X155392857Y-75285714D01*
X155392857Y-75619048D01*
X155440476Y-75809524D01*
X155535714Y-75904762D01*
X155630952Y-75952381D01*
X155821429Y-75952381D01*
X154535714Y-75285714D02*
X154535714Y-75952381D01*
X154773810Y-74904762D02*
X155011905Y-75619048D01*
X154392857Y-75619048D01*
X160345238Y-76047619D02*
X160440476Y-76000000D01*
X160535714Y-75904762D01*
X160678571Y-75761905D01*
X160773810Y-75714286D01*
X160869048Y-75714286D01*
X160821429Y-75952381D02*
X160916667Y-75904762D01*
X161011905Y-75809524D01*
X161059524Y-75619048D01*
X161059524Y-75285714D01*
X161011905Y-75095238D01*
X160916667Y-75000000D01*
X160821429Y-74952381D01*
X160630952Y-74952381D01*
X160535714Y-75000000D01*
X160440476Y-75095238D01*
X160392857Y-75285714D01*
X160392857Y-75619048D01*
X160440476Y-75809524D01*
X160535714Y-75904762D01*
X160630952Y-75952381D01*
X160821429Y-75952381D01*
X159488095Y-74952381D02*
X159964286Y-74952381D01*
X160011905Y-75428571D01*
X159964286Y-75380952D01*
X159869048Y-75333333D01*
X159630952Y-75333333D01*
X159535714Y-75380952D01*
X159488095Y-75428571D01*
X159440476Y-75523810D01*
X159440476Y-75761905D01*
X159488095Y-75857143D01*
X159535714Y-75904762D01*
X159630952Y-75952381D01*
X159869048Y-75952381D01*
X159964286Y-75904762D01*
X160011905Y-75857143D01*
X165095238Y-76047619D02*
X165190476Y-76000000D01*
X165285714Y-75904762D01*
X165428571Y-75761905D01*
X165523810Y-75714286D01*
X165619048Y-75714286D01*
X165571429Y-75952381D02*
X165666667Y-75904762D01*
X165761905Y-75809524D01*
X165809524Y-75619048D01*
X165809524Y-75285714D01*
X165761905Y-75095238D01*
X165666667Y-75000000D01*
X165571429Y-74952381D01*
X165380952Y-74952381D01*
X165285714Y-75000000D01*
X165190476Y-75095238D01*
X165142857Y-75285714D01*
X165142857Y-75619048D01*
X165190476Y-75809524D01*
X165285714Y-75904762D01*
X165380952Y-75952381D01*
X165571429Y-75952381D01*
X164285714Y-74952381D02*
X164476191Y-74952381D01*
X164571429Y-75000000D01*
X164619048Y-75047619D01*
X164714286Y-75190476D01*
X164761905Y-75380952D01*
X164761905Y-75761905D01*
X164714286Y-75857143D01*
X164666667Y-75904762D01*
X164571429Y-75952381D01*
X164380952Y-75952381D01*
X164285714Y-75904762D01*
X164238095Y-75857143D01*
X164190476Y-75761905D01*
X164190476Y-75523810D01*
X164238095Y-75428571D01*
X164285714Y-75380952D01*
X164380952Y-75333333D01*
X164571429Y-75333333D01*
X164666667Y-75380952D01*
X164714286Y-75428571D01*
X164761905Y-75523810D01*
X146452381Y-65607143D02*
X145976190Y-65273809D01*
X146452381Y-65035714D02*
X145452381Y-65035714D01*
X145452381Y-65416667D01*
X145500000Y-65511905D01*
X145547619Y-65559524D01*
X145642857Y-65607143D01*
X145785714Y-65607143D01*
X145880952Y-65559524D01*
X145928571Y-65511905D01*
X145976190Y-65416667D01*
X145976190Y-65035714D01*
X145547619Y-65988095D02*
X145500000Y-66035714D01*
X145452381Y-66130952D01*
X145452381Y-66369048D01*
X145500000Y-66464286D01*
X145547619Y-66511905D01*
X145642857Y-66559524D01*
X145738095Y-66559524D01*
X145880952Y-66511905D01*
X146452381Y-65940476D01*
X146452381Y-66559524D01*
X145880952Y-67130952D02*
X145833333Y-67035714D01*
X145785714Y-66988095D01*
X145690476Y-66940476D01*
X145642857Y-66940476D01*
X145547619Y-66988095D01*
X145500000Y-67035714D01*
X145452381Y-67130952D01*
X145452381Y-67321429D01*
X145500000Y-67416667D01*
X145547619Y-67464286D01*
X145642857Y-67511905D01*
X145690476Y-67511905D01*
X145785714Y-67464286D01*
X145833333Y-67416667D01*
X145880952Y-67321429D01*
X145880952Y-67130952D01*
X145928571Y-67035714D01*
X145976190Y-66988095D01*
X146071429Y-66940476D01*
X146261905Y-66940476D01*
X146357143Y-66988095D01*
X146404762Y-67035714D01*
X146452381Y-67130952D01*
X146452381Y-67321429D01*
X146404762Y-67416667D01*
X146357143Y-67464286D01*
X146261905Y-67511905D01*
X146071429Y-67511905D01*
X145976190Y-67464286D01*
X145928571Y-67416667D01*
X145880952Y-67321429D01*
X141702381Y-65607143D02*
X141226190Y-65273809D01*
X141702381Y-65035714D02*
X140702381Y-65035714D01*
X140702381Y-65416667D01*
X140750000Y-65511905D01*
X140797619Y-65559524D01*
X140892857Y-65607143D01*
X141035714Y-65607143D01*
X141130952Y-65559524D01*
X141178571Y-65511905D01*
X141226190Y-65416667D01*
X141226190Y-65035714D01*
X140797619Y-65988095D02*
X140750000Y-66035714D01*
X140702381Y-66130952D01*
X140702381Y-66369048D01*
X140750000Y-66464286D01*
X140797619Y-66511905D01*
X140892857Y-66559524D01*
X140988095Y-66559524D01*
X141130952Y-66511905D01*
X141702381Y-65940476D01*
X141702381Y-66559524D01*
X141702381Y-67035714D02*
X141702381Y-67226190D01*
X141654762Y-67321429D01*
X141607143Y-67369048D01*
X141464286Y-67464286D01*
X141273810Y-67511905D01*
X140892857Y-67511905D01*
X140797619Y-67464286D01*
X140750000Y-67416667D01*
X140702381Y-67321429D01*
X140702381Y-67130952D01*
X140750000Y-67035714D01*
X140797619Y-66988095D01*
X140892857Y-66940476D01*
X141130952Y-66940476D01*
X141226190Y-66988095D01*
X141273810Y-67035714D01*
X141321429Y-67130952D01*
X141321429Y-67321429D01*
X141273810Y-67416667D01*
X141226190Y-67464286D01*
X141130952Y-67511905D01*
X151202381Y-65607143D02*
X150726190Y-65273809D01*
X151202381Y-65035714D02*
X150202381Y-65035714D01*
X150202381Y-65416667D01*
X150250000Y-65511905D01*
X150297619Y-65559524D01*
X150392857Y-65607143D01*
X150535714Y-65607143D01*
X150630952Y-65559524D01*
X150678571Y-65511905D01*
X150726190Y-65416667D01*
X150726190Y-65035714D01*
X150202381Y-65940476D02*
X150202381Y-66559524D01*
X150583333Y-66226190D01*
X150583333Y-66369048D01*
X150630952Y-66464286D01*
X150678571Y-66511905D01*
X150773810Y-66559524D01*
X151011905Y-66559524D01*
X151107143Y-66511905D01*
X151154762Y-66464286D01*
X151202381Y-66369048D01*
X151202381Y-66083333D01*
X151154762Y-65988095D01*
X151107143Y-65940476D01*
X150202381Y-67178571D02*
X150202381Y-67273810D01*
X150250000Y-67369048D01*
X150297619Y-67416667D01*
X150392857Y-67464286D01*
X150583333Y-67511905D01*
X150821429Y-67511905D01*
X151011905Y-67464286D01*
X151107143Y-67416667D01*
X151154762Y-67369048D01*
X151202381Y-67273810D01*
X151202381Y-67178571D01*
X151154762Y-67083333D01*
X151107143Y-67035714D01*
X151011905Y-66988095D01*
X150821429Y-66940476D01*
X150583333Y-66940476D01*
X150392857Y-66988095D01*
X150297619Y-67035714D01*
X150250000Y-67083333D01*
X150202381Y-67178571D01*
X143952381Y-65607143D02*
X143476190Y-65273809D01*
X143952381Y-65035714D02*
X142952381Y-65035714D01*
X142952381Y-65416667D01*
X143000000Y-65511905D01*
X143047619Y-65559524D01*
X143142857Y-65607143D01*
X143285714Y-65607143D01*
X143380952Y-65559524D01*
X143428571Y-65511905D01*
X143476190Y-65416667D01*
X143476190Y-65035714D01*
X142952381Y-65940476D02*
X142952381Y-66559524D01*
X143333333Y-66226190D01*
X143333333Y-66369048D01*
X143380952Y-66464286D01*
X143428571Y-66511905D01*
X143523810Y-66559524D01*
X143761905Y-66559524D01*
X143857143Y-66511905D01*
X143904762Y-66464286D01*
X143952381Y-66369048D01*
X143952381Y-66083333D01*
X143904762Y-65988095D01*
X143857143Y-65940476D01*
X143952381Y-67511905D02*
X143952381Y-66940476D01*
X143952381Y-67226190D02*
X142952381Y-67226190D01*
X143095238Y-67130952D01*
X143190476Y-67035714D01*
X143238095Y-66940476D01*
X156202381Y-65607143D02*
X155726190Y-65273809D01*
X156202381Y-65035714D02*
X155202381Y-65035714D01*
X155202381Y-65416667D01*
X155250000Y-65511905D01*
X155297619Y-65559524D01*
X155392857Y-65607143D01*
X155535714Y-65607143D01*
X155630952Y-65559524D01*
X155678571Y-65511905D01*
X155726190Y-65416667D01*
X155726190Y-65035714D01*
X155202381Y-65940476D02*
X155202381Y-66559524D01*
X155583333Y-66226190D01*
X155583333Y-66369048D01*
X155630952Y-66464286D01*
X155678571Y-66511905D01*
X155773810Y-66559524D01*
X156011905Y-66559524D01*
X156107143Y-66511905D01*
X156154762Y-66464286D01*
X156202381Y-66369048D01*
X156202381Y-66083333D01*
X156154762Y-65988095D01*
X156107143Y-65940476D01*
X155297619Y-66940476D02*
X155250000Y-66988095D01*
X155202381Y-67083333D01*
X155202381Y-67321429D01*
X155250000Y-67416667D01*
X155297619Y-67464286D01*
X155392857Y-67511905D01*
X155488095Y-67511905D01*
X155630952Y-67464286D01*
X156202381Y-66892857D01*
X156202381Y-67511905D01*
X148702381Y-65607143D02*
X148226190Y-65273809D01*
X148702381Y-65035714D02*
X147702381Y-65035714D01*
X147702381Y-65416667D01*
X147750000Y-65511905D01*
X147797619Y-65559524D01*
X147892857Y-65607143D01*
X148035714Y-65607143D01*
X148130952Y-65559524D01*
X148178571Y-65511905D01*
X148226190Y-65416667D01*
X148226190Y-65035714D01*
X147702381Y-65940476D02*
X147702381Y-66559524D01*
X148083333Y-66226190D01*
X148083333Y-66369048D01*
X148130952Y-66464286D01*
X148178571Y-66511905D01*
X148273810Y-66559524D01*
X148511905Y-66559524D01*
X148607143Y-66511905D01*
X148654762Y-66464286D01*
X148702381Y-66369048D01*
X148702381Y-66083333D01*
X148654762Y-65988095D01*
X148607143Y-65940476D01*
X147702381Y-66892857D02*
X147702381Y-67511905D01*
X148083333Y-67178571D01*
X148083333Y-67321429D01*
X148130952Y-67416667D01*
X148178571Y-67464286D01*
X148273810Y-67511905D01*
X148511905Y-67511905D01*
X148607143Y-67464286D01*
X148654762Y-67416667D01*
X148702381Y-67321429D01*
X148702381Y-67035714D01*
X148654762Y-66940476D01*
X148607143Y-66892857D01*
X158452381Y-65607143D02*
X157976190Y-65273809D01*
X158452381Y-65035714D02*
X157452381Y-65035714D01*
X157452381Y-65416667D01*
X157500000Y-65511905D01*
X157547619Y-65559524D01*
X157642857Y-65607143D01*
X157785714Y-65607143D01*
X157880952Y-65559524D01*
X157928571Y-65511905D01*
X157976190Y-65416667D01*
X157976190Y-65035714D01*
X157452381Y-65940476D02*
X157452381Y-66559524D01*
X157833333Y-66226190D01*
X157833333Y-66369048D01*
X157880952Y-66464286D01*
X157928571Y-66511905D01*
X158023810Y-66559524D01*
X158261905Y-66559524D01*
X158357143Y-66511905D01*
X158404762Y-66464286D01*
X158452381Y-66369048D01*
X158452381Y-66083333D01*
X158404762Y-65988095D01*
X158357143Y-65940476D01*
X157785714Y-67416667D02*
X158452381Y-67416667D01*
X157404762Y-67178571D02*
X158119048Y-66940476D01*
X158119048Y-67559524D01*
X153452381Y-65607143D02*
X152976190Y-65273809D01*
X153452381Y-65035714D02*
X152452381Y-65035714D01*
X152452381Y-65416667D01*
X152500000Y-65511905D01*
X152547619Y-65559524D01*
X152642857Y-65607143D01*
X152785714Y-65607143D01*
X152880952Y-65559524D01*
X152928571Y-65511905D01*
X152976190Y-65416667D01*
X152976190Y-65035714D01*
X152452381Y-65940476D02*
X152452381Y-66559524D01*
X152833333Y-66226190D01*
X152833333Y-66369048D01*
X152880952Y-66464286D01*
X152928571Y-66511905D01*
X153023810Y-66559524D01*
X153261905Y-66559524D01*
X153357143Y-66511905D01*
X153404762Y-66464286D01*
X153452381Y-66369048D01*
X153452381Y-66083333D01*
X153404762Y-65988095D01*
X153357143Y-65940476D01*
X152452381Y-67464286D02*
X152452381Y-66988095D01*
X152928571Y-66940476D01*
X152880952Y-66988095D01*
X152833333Y-67083333D01*
X152833333Y-67321429D01*
X152880952Y-67416667D01*
X152928571Y-67464286D01*
X153023810Y-67511905D01*
X153261905Y-67511905D01*
X153357143Y-67464286D01*
X153404762Y-67416667D01*
X153452381Y-67321429D01*
X153452381Y-67083333D01*
X153404762Y-66988095D01*
X153357143Y-66940476D01*
X163202381Y-65532143D02*
X162726190Y-65198809D01*
X163202381Y-64960714D02*
X162202381Y-64960714D01*
X162202381Y-65341667D01*
X162250000Y-65436905D01*
X162297619Y-65484524D01*
X162392857Y-65532143D01*
X162535714Y-65532143D01*
X162630952Y-65484524D01*
X162678571Y-65436905D01*
X162726190Y-65341667D01*
X162726190Y-64960714D01*
X162202381Y-65865476D02*
X162202381Y-66484524D01*
X162583333Y-66151190D01*
X162583333Y-66294048D01*
X162630952Y-66389286D01*
X162678571Y-66436905D01*
X162773810Y-66484524D01*
X163011905Y-66484524D01*
X163107143Y-66436905D01*
X163154762Y-66389286D01*
X163202381Y-66294048D01*
X163202381Y-66008333D01*
X163154762Y-65913095D01*
X163107143Y-65865476D01*
X162202381Y-67341667D02*
X162202381Y-67151190D01*
X162250000Y-67055952D01*
X162297619Y-67008333D01*
X162440476Y-66913095D01*
X162630952Y-66865476D01*
X163011905Y-66865476D01*
X163107143Y-66913095D01*
X163154762Y-66960714D01*
X163202381Y-67055952D01*
X163202381Y-67246429D01*
X163154762Y-67341667D01*
X163107143Y-67389286D01*
X163011905Y-67436905D01*
X162773810Y-67436905D01*
X162678571Y-67389286D01*
X162630952Y-67341667D01*
X162583333Y-67246429D01*
X162583333Y-67055952D01*
X162630952Y-66960714D01*
X162678571Y-66913095D01*
X162773810Y-66865476D01*
X160952381Y-65532143D02*
X160476190Y-65198809D01*
X160952381Y-64960714D02*
X159952381Y-64960714D01*
X159952381Y-65341667D01*
X160000000Y-65436905D01*
X160047619Y-65484524D01*
X160142857Y-65532143D01*
X160285714Y-65532143D01*
X160380952Y-65484524D01*
X160428571Y-65436905D01*
X160476190Y-65341667D01*
X160476190Y-64960714D01*
X159952381Y-65865476D02*
X159952381Y-66484524D01*
X160333333Y-66151190D01*
X160333333Y-66294048D01*
X160380952Y-66389286D01*
X160428571Y-66436905D01*
X160523810Y-66484524D01*
X160761905Y-66484524D01*
X160857143Y-66436905D01*
X160904762Y-66389286D01*
X160952381Y-66294048D01*
X160952381Y-66008333D01*
X160904762Y-65913095D01*
X160857143Y-65865476D01*
X160380952Y-67055952D02*
X160333333Y-66960714D01*
X160285714Y-66913095D01*
X160190476Y-66865476D01*
X160142857Y-66865476D01*
X160047619Y-66913095D01*
X160000000Y-66960714D01*
X159952381Y-67055952D01*
X159952381Y-67246429D01*
X160000000Y-67341667D01*
X160047619Y-67389286D01*
X160142857Y-67436905D01*
X160190476Y-67436905D01*
X160285714Y-67389286D01*
X160333333Y-67341667D01*
X160380952Y-67246429D01*
X160380952Y-67055952D01*
X160428571Y-66960714D01*
X160476190Y-66913095D01*
X160571429Y-66865476D01*
X160761905Y-66865476D01*
X160857143Y-66913095D01*
X160904762Y-66960714D01*
X160952381Y-67055952D01*
X160952381Y-67246429D01*
X160904762Y-67341667D01*
X160857143Y-67389286D01*
X160761905Y-67436905D01*
X160571429Y-67436905D01*
X160476190Y-67389286D01*
X160428571Y-67341667D01*
X160380952Y-67246429D01*
X168202381Y-65607143D02*
X167726190Y-65273809D01*
X168202381Y-65035714D02*
X167202381Y-65035714D01*
X167202381Y-65416667D01*
X167250000Y-65511905D01*
X167297619Y-65559524D01*
X167392857Y-65607143D01*
X167535714Y-65607143D01*
X167630952Y-65559524D01*
X167678571Y-65511905D01*
X167726190Y-65416667D01*
X167726190Y-65035714D01*
X167202381Y-65940476D02*
X167202381Y-66559524D01*
X167583333Y-66226190D01*
X167583333Y-66369048D01*
X167630952Y-66464286D01*
X167678571Y-66511905D01*
X167773810Y-66559524D01*
X168011905Y-66559524D01*
X168107143Y-66511905D01*
X168154762Y-66464286D01*
X168202381Y-66369048D01*
X168202381Y-66083333D01*
X168154762Y-65988095D01*
X168107143Y-65940476D01*
X168202381Y-67035714D02*
X168202381Y-67226190D01*
X168154762Y-67321429D01*
X168107143Y-67369048D01*
X167964286Y-67464286D01*
X167773810Y-67511905D01*
X167392857Y-67511905D01*
X167297619Y-67464286D01*
X167250000Y-67416667D01*
X167202381Y-67321429D01*
X167202381Y-67130952D01*
X167250000Y-67035714D01*
X167297619Y-66988095D01*
X167392857Y-66940476D01*
X167630952Y-66940476D01*
X167726190Y-66988095D01*
X167773810Y-67035714D01*
X167821429Y-67130952D01*
X167821429Y-67321429D01*
X167773810Y-67416667D01*
X167726190Y-67464286D01*
X167630952Y-67511905D01*
X165952381Y-65607143D02*
X165476190Y-65273809D01*
X165952381Y-65035714D02*
X164952381Y-65035714D01*
X164952381Y-65416667D01*
X165000000Y-65511905D01*
X165047619Y-65559524D01*
X165142857Y-65607143D01*
X165285714Y-65607143D01*
X165380952Y-65559524D01*
X165428571Y-65511905D01*
X165476190Y-65416667D01*
X165476190Y-65035714D01*
X165285714Y-66464286D02*
X165952381Y-66464286D01*
X164904762Y-66226190D02*
X165619048Y-65988095D01*
X165619048Y-66607143D01*
X164952381Y-67178571D02*
X164952381Y-67273810D01*
X165000000Y-67369048D01*
X165047619Y-67416667D01*
X165142857Y-67464286D01*
X165333333Y-67511905D01*
X165571429Y-67511905D01*
X165761905Y-67464286D01*
X165857143Y-67416667D01*
X165904762Y-67369048D01*
X165952381Y-67273810D01*
X165952381Y-67178571D01*
X165904762Y-67083333D01*
X165857143Y-67035714D01*
X165761905Y-66988095D01*
X165571429Y-66940476D01*
X165333333Y-66940476D01*
X165142857Y-66988095D01*
X165047619Y-67035714D01*
X165000000Y-67083333D01*
X164952381Y-67178571D01*
M02*
