M48
;DRILL file {KiCad 4.0.7} date 03/21/18 23:37:43
;FORMAT={-:-/ absolute / inch / decimal}
FMAT,2
INCH,TZ
T1C0.012
T2C0.040
T3C0.118
%
G90
G05
M72
T1
X5.5074Y-2.1067
X5.5094Y-2.3157
X5.5134Y-2.5887
X5.5205Y-1.9449
X5.5604Y-2.8437
X5.6894Y-2.1075
X5.6904Y-2.7057
X5.7064Y-2.8779
X5.7184Y-1.4917
X5.7549Y-1.7293
X5.7574Y-1.8187
X5.7584Y-1.8837
X5.7824Y-2.1397
X5.7901Y-1.6644
X5.7974Y-1.4937
X5.8047Y-2.0236
X5.8064Y-2.1043
X5.8189Y-2.315
X5.8465Y-1.7224
X5.8465Y-1.7618
X5.8583Y-2.315
X5.8794Y-2.7026
X5.8858Y-1.7224
X5.8858Y-1.7618
X5.8924Y-2.8817
X5.9094Y-2.065
X5.9764Y-2.5906
X5.9834Y-2.6866
X5.9904Y-1.4667
X5.9904Y-1.7805
X5.9941Y-1.7028
X6.0114Y-1.9287
X6.0164Y-1.9737
X6.0551Y-2.5906
X6.0904Y-2.8767
X6.1014Y-1.9487
X6.1212Y-2.5727
X6.1254Y-1.9157
X6.1474Y-2.5497
X6.1484Y-2.0397
X6.1494Y-1.7807
X6.1794Y-2.5337
X6.2354Y-2.6546
X6.2472Y-2.5328
X6.2544Y-2.0949
X6.2564Y-2.6237
X6.2774Y-2.8757
X6.2824Y-2.5987
X6.3524Y-1.7657
X6.4494Y-2.7506
X6.4754Y-2.8762
X6.4882Y-2.6299
X6.5364Y-1.7657
X6.6454Y-1.7807
X6.6684Y-2.7127
X6.6732Y-1.4567
X6.6732Y-1.4862
X6.6732Y-1.5157
X6.6929Y-2.063
X6.7028Y-1.4567
X6.7028Y-1.4862
X6.7028Y-1.5157
X6.7323Y-1.4567
X6.7323Y-1.4862
X6.7323Y-1.5157
X6.7394Y-1.7977
X6.7834Y-1.5347
X6.8324Y-2.7227
X6.8674Y-2.3517
X6.8804Y-2.4657
X6.8974Y-1.7977
X7.1457Y-2.7657
T2
X7.0669Y-1.9744
X7.0669Y-2.0744
X7.0669Y-2.1744
X7.0669Y-2.2744
X7.0669Y-2.3744
X7.0669Y-2.4744
T3
X5.4035Y-1.4961
X5.4035Y-2.9035
X7.1063Y-1.4961
X7.1063Y-2.9035
T0
M30
